<?xml version="1.0" encoding="UTF-8"?>
<svg xmlns="http://www.w3.org/2000/svg" xmlns:xlink="http://www.w3.org/1999/xlink" width="312pt" height="674pt" viewBox="0 0 312 674" version="1.1">
<defs>
<clipPath id="clip1">
  <path d="M 0 0.0546875 L 311.433594 0.0546875 L 311.433594 245 L 0 245 Z M 0 0.0546875 "/>
</clipPath>
<clipPath id="clip2">
  <path d="M 0 158 L 311.433594 158 L 311.433594 466 L 0 466 Z M 0 158 "/>
</clipPath>
<clipPath id="clip3">
  <path d="M 0 483 L 311.433594 483 L 311.433594 674 L 0 674 Z M 0 483 "/>
</clipPath>
</defs>
<g id="surface1">
<path style=" stroke:none;fill-rule:nonzero;fill:rgb(96.343994%,94.171143%,85.264587%);fill-opacity:1;" d="M 145.449219 242.277344 C 114.835938 242.273438 88.273438 237.339844 66.5 227.609375 C 39.980469 215.753906 21.570312 197.070312 11.777344 172.078125 C 10.882812 169.527344 3.40625 147.570312 8.105469 140.953125 C 9.109375 139.539062 10.570312 138.789062 12.332031 138.789062 C 13.171875 138.789062 14.09375 138.96875 15.070312 139.316406 L 15.199219 139.363281 L 15.324219 139.425781 C 26.304688 145.144531 39.269531 150.597656 50.882812 154.390625 L 51.527344 154.597656 L 51.910156 155.152344 C 66.0625 175.648438 96.160156 186.929688 136.667969 186.929688 C 172.078125 186.929688 213.234375 177.828125 239.074219 164.277344 C 240.640625 163.460938 241.902344 161.046875 241.890625 158.902344 C 241.832031 148.082031 207.960938 142.421875 174.535156 142.421875 C 166.648438 142.421875 159.796875 142.796875 156.652344 143.40625 L 156.539062 143.425781 L 154.269531 143.601562 C 136.566406 144.945312 118.261719 146.335938 100.246094 146.335938 C 81.292969 146.335938 64.582031 144.769531 49.164062 141.554688 C 30.238281 137.507812 15.027344 127.207031 7.417969 113.300781 C 0.785156 101.179688 0.238281 86.886719 5.832031 71.96875 C 13.765625 49.730469 31.996094 31.445312 58.550781 19.125 C 82.613281 7.957031 112.183594 2.054688 144.066406 2.054688 C 203.199219 2.054688 272.015625 23.960938 292.628906 72.898438 C 293.097656 73.675781 293.644531 75.023438 294.59375 77.359375 C 295.613281 79.871094 297.144531 83.953125 298.703125 89.195312 C 299.957031 91.414062 299.972656 94.140625 298.722656 96.378906 C 297.621094 98.351562 295.753906 99.527344 293.722656 99.527344 C 292.304688 99.527344 290.890625 98.949219 289.632812 97.855469 L 289.519531 97.75 C 283.535156 91.675781 260.175781 83.710938 244.71875 78.4375 C 240.910156 77.136719 237.621094 76.015625 234.992188 75.0625 L 234.855469 75.011719 L 234.730469 74.945312 C 212.679688 63.140625 184.800781 56.640625 156.230469 56.640625 C 121.878906 56.640625 89.433594 65.644531 64.839844 81.996094 C 62.277344 84.894531 61.210938 87.265625 61.84375 88.683594 C 62.558594 90.289062 66.128906 92.984375 81.984375 92.984375 C 88.222656 92.984375 94.648438 92.582031 99.8125 92.253906 C 103.21875 92.039062 105.910156 91.871094 107.671875 91.871094 L 107.988281 91.875 C 118.421875 91.011719 129.097656 89.683594 139.421875 88.398438 C 157.421875 86.15625 176.03125 83.839844 194.375 83.839844 C 207.507812 83.839844 219.28125 85.011719 230.367188 87.425781 C 255.886719 92.402344 301.054688 110.007812 308.21875 144.363281 C 311.523438 162.738281 308.035156 178.9375 297.859375 192.570312 C 274.605469 223.726562 221.40625 235.621094 180.875 240.113281 C 168.949219 241.546875 157.027344 242.277344 145.460938 242.277344 C 145.457031 242.277344 145.453125 242.277344 145.449219 242.277344 "/>
<g clip-path="url(#clip1)" clip-rule="nonzero">
<path style=" stroke:none;fill-rule:nonzero;fill:rgb(3.857422%,4.989624%,5.232239%);fill-opacity:1;" d="M 144.066406 0.0546875 L 144.050781 0.0546875 C 111.882812 0.0546875 82.023438 6.019531 57.703125 17.3125 C 30.667969 29.859375 12.078125 48.527344 3.945312 71.296875 C -1.84375 86.765625 -1.253906 101.621094 5.664062 114.257812 C 13.550781 128.679688 29.25 139.339844 48.734375 143.507812 C 64.308594 146.757812 81.152344 148.335938 100.246094 148.335938 C 118.339844 148.335938 136.683594 146.941406 154.425781 145.59375 L 156.578125 145.429688 L 156.808594 145.414062 L 157.035156 145.367188 C 159.40625 144.910156 165.25 144.421875 174.535156 144.421875 C 190.234375 144.421875 206.59375 145.824219 218.300781 148.171875 C 234.195312 151.363281 239.875 155.8125 239.890625 158.910156 C 239.898438 160.417969 238.960938 162.082031 238.144531 162.507812 C 212.5625 175.917969 171.78125 184.929688 136.667969 184.929688 C 96.839844 184.929688 67.320312 173.953125 53.554688 154.019531 L 52.789062 152.90625 L 51.503906 152.488281 C 39.988281 148.730469 27.136719 143.320312 16.246094 137.652344 L 16.003906 137.523438 L 15.742188 137.433594 C 14.554688 137.007812 13.40625 136.789062 12.332031 136.789062 C 9.929688 136.789062 7.847656 137.855469 6.476562 139.792969 C 4.984375 141.894531 3.300781 146.109375 5.910156 158.421875 C 7.164062 164.335938 9.042969 170.328125 9.863281 172.671875 L 9.886719 172.738281 L 9.914062 172.808594 C 19.90625 198.308594 38.667969 217.359375 65.683594 229.433594 C 87.71875 239.28125 114.554688 244.277344 145.449219 244.277344 C 157.105469 244.277344 169.109375 243.542969 181.132812 242.097656 C 222.019531 237.566406 275.777344 225.496094 299.460938 193.769531 C 309.984375 179.671875 313.597656 162.949219 310.199219 144.066406 L 310.1875 144.011719 L 310.179688 143.957031 C 302.804688 108.59375 256.804688 90.554688 230.753906 85.460938 C 219.535156 83.023438 207.636719 81.839844 194.375 81.839844 C 175.90625 81.839844 157.230469 84.164062 139.171875 86.414062 C 128.902344 87.691406 118.285156 89.015625 107.925781 89.871094 C 107.84375 89.871094 107.757812 89.871094 107.671875 89.871094 C 105.847656 89.871094 103.128906 90.042969 99.683594 90.261719 C 94.550781 90.582031 88.160156 90.984375 81.984375 90.984375 C 65.253906 90.984375 63.683594 87.902344 63.671875 87.871094 C 63.667969 87.859375 63.460938 86.632812 66.167969 83.515625 C 90.410156 67.472656 122.367188 58.640625 156.230469 58.640625 C 184.476562 58.640625 212.019531 65.058594 233.785156 76.710938 L 234.039062 76.84375 L 234.3125 76.941406 C 236.957031 77.902344 240.253906 79.027344 244.074219 80.328125 C 258.425781 85.222656 282.445312 93.417969 288.09375 99.152344 L 288.203125 99.261719 L 288.320312 99.363281 C 289.945312 100.78125 291.816406 101.527344 293.722656 101.527344 C 296.492188 101.527344 299.011719 99.96875 300.46875 97.355469 C 302.019531 94.574219 302.039062 91.203125 300.558594 88.421875 C 299 83.203125 297.46875 79.128906 296.445312 76.609375 C 295.96875 75.429688 295.480469 74.289062 295.035156 73.308594 C 294.882812 72.972656 294.71875 72.617188 294.53125 72.269531 C 285.132812 49.824219 264.757812 31.117188 235.609375 18.164062 C 209.328125 6.488281 176.820312 0.0546875 144.066406 0.0546875 Z M 144.066406 4.054688 C 207.203125 4.058594 271.777344 28.148438 290.878906 73.894531 L 290.882812 73.882812 C 290.886719 73.882812 293.839844 79.785156 296.855469 90 C 298.867188 93.253906 296.769531 97.527344 293.722656 97.527344 C 292.851562 97.527344 291.898438 97.175781 290.945312 96.34375 C 283.144531 88.429688 249.390625 78.152344 235.671875 73.183594 C 212.570312 60.816406 184.476562 54.640625 156.230469 54.640625 C 122.863281 54.640625 89.289062 63.261719 63.519531 80.472656 C 52.648438 92.550781 66.644531 94.984375 81.984375 94.984375 C 92.355469 94.984375 103.34375 93.871094 107.671875 93.871094 C 107.808594 93.871094 107.941406 93.871094 108.0625 93.875 C 136.679688 91.519531 165.589844 85.839844 194.375 85.839844 C 206.261719 85.839844 218.132812 86.808594 229.945312 89.378906 C 254.335938 94.136719 299.320312 111.476562 306.261719 144.773438 C 318.546875 213.082031 231.671875 232.46875 180.65625 238.125 C 169.433594 239.476562 157.550781 240.277344 145.449219 240.277344 C 91.972656 240.277344 34.503906 224.601562 13.640625 171.347656 C 12.367188 167.714844 3.679688 140.789062 12.332031 140.789062 C 12.933594 140.789062 13.621094 140.921875 14.398438 141.199219 C 25.527344 146.992188 38.539062 152.464844 50.265625 156.289062 C 66.65625 180.03125 100.601562 188.929688 136.667969 188.929688 C 174.835938 188.929688 215.382812 178.957031 240.003906 166.050781 C 242.402344 164.792969 243.90625 161.597656 243.890625 158.890625 C 243.8125 144.476562 200.941406 140.421875 174.535156 140.421875 C 166.167969 140.421875 159.449219 140.828125 156.273438 141.441406 C 137.546875 142.863281 118.902344 144.335938 100.246094 144.335938 C 83.386719 144.335938 66.515625 143.132812 49.570312 139.597656 C 18.46875 132.945312 -5.519531 107.929688 7.703125 72.671875 C 24.277344 26.207031 83.511719 4.050781 144.066406 4.054688 "/>
</g>
<path style=" stroke:none;fill-rule:nonzero;fill:rgb(88.887024%,66.712952%,12.174988%);fill-opacity:1;" d="M 297.667969 215.523438 C 290.53125 222.734375 279.933594 229.898438 267.289062 235.488281 C 263.160156 237.3125 259.0625 238.84375 255.058594 240.113281 C 252.464844 240.933594 250.507812 243 249.742188 245.609375 C 247.40625 253.578125 240.671875 265.324219 223.082031 273.550781 C 206.273438 282.960938 182.882812 289.035156 156.914062 289.539062 C 131.746094 290.03125 108.804688 285.1875 91.789062 276.921875 C 91.246094 276.726562 83.316406 272.878906 80.246094 270.144531 C 73.027344 264.996094 66.621094 254.679688 63.964844 249.675781 C 63.054688 247.960938 61.578125 246.617188 59.765625 245.9375 C 45.316406 240.519531 30.722656 230.011719 18.585938 218.074219 C 15.796875 215.324219 11.121094 217.734375 11.816406 221.589844 C 14.648438 237.308594 20.109375 259.695312 37.425781 287.503906 C 49.222656 306.445312 88.683594 334.652344 175.726562 328.226562 C 175.726562 328.226562 214.53125 323.058594 235.132812 313.832031 C 237.449219 312.796875 240.117188 314.480469 239.660156 316.734375 C 234.789062 340.851562 226.945312 359.6875 198.269531 362.449219 C 167.320312 365.429688 124.390625 358.828125 112.210938 356.539062 C 100.035156 354.25 91.136719 338.660156 91.136719 338.660156 C 91.136719 338.660156 69.835938 333.648438 55.441406 329.453125 C 50.703125 328.074219 46.097656 331.960938 47.457031 336.199219 C 53.1875 354.03125 61.664062 373.433594 68.867188 384.289062 C 70.09375 386.136719 72.398438 387.171875 74.820312 386.984375 C 99.460938 385.089844 149.902344 390.140625 173.605469 392.5 C 194.023438 394.53125 226.929688 404.902344 241.183594 408.628906 C 244.117188 409.398438 247.234375 408.171875 248.566406 405.726562 C 255.421875 393.140625 275.34375 355.535156 280.488281 334.363281 C 285.917969 312.011719 302.140625 253.59375 303.421875 221.171875 C 303.546875 217.992188 300.777344 215.726562 297.667969 215.523438 "/>
<g clip-path="url(#clip2)" clip-rule="nonzero">
<path style="fill:none;stroke-width:40;stroke-linecap:round;stroke-linejoin:miter;stroke:rgb(3.857422%,4.989624%,5.232239%);stroke-opacity:1;stroke-miterlimit:10;" d="M 2976.679688 4584.765625 C 2905.3125 4512.65625 2799.335938 4441.015625 2672.890625 4385.117188 C 2631.601562 4366.875 2590.625 4351.5625 2550.585938 4338.867188 C 2524.648438 4330.664062 2505.078125 4310 2497.421875 4283.90625 C 2474.0625 4204.21875 2406.71875 4086.757812 2230.820312 4004.492188 C 2062.734375 3910.390625 1828.828125 3849.648438 1569.140625 3844.609375 C 1317.460938 3839.6875 1088.046875 3888.125 917.890625 3970.78125 C 912.460938 3972.734375 833.164062 4011.210938 802.460938 4038.554688 C 730.273438 4090.039062 666.210938 4193.203125 639.648438 4243.242188 C 630.546875 4260.390625 615.78125 4273.828125 597.65625 4280.625 C 453.164062 4334.804688 307.226562 4439.882812 185.859375 4559.257812 C 157.96875 4586.757812 111.210938 4562.65625 118.164062 4524.101562 C 146.484375 4366.914062 201.09375 4143.046875 374.257812 3864.960938 C 492.226562 3675.546875 886.835938 3393.476562 1757.265625 3457.734375 C 1757.265625 3457.734375 2145.3125 3509.414062 2351.328125 3601.679688 C 2374.492188 3612.03125 2401.171875 3595.195312 2396.601562 3572.65625 C 2347.890625 3331.484375 2269.453125 3143.125 1982.695312 3115.507812 C 1673.203125 3085.703125 1243.90625 3151.71875 1122.109375 3174.609375 C 1000.351562 3197.5 911.367188 3353.398438 911.367188 3353.398438 C 911.367188 3353.398438 698.359375 3403.515625 554.414062 3445.46875 C 507.03125 3459.257812 460.976562 3420.390625 474.570312 3378.007812 C 531.875 3199.6875 616.640625 3005.664062 688.671875 2897.109375 C 700.9375 2878.632812 723.984375 2868.28125 748.203125 2870.15625 C 994.609375 2889.101562 1499.023438 2838.59375 1736.054688 2815 C 1940.234375 2794.6875 2269.296875 2690.976562 2411.835938 2653.710938 C 2441.171875 2646.015625 2472.34375 2658.28125 2485.664062 2682.734375 C 2554.21875 2808.59375 2753.4375 3184.648438 2804.882812 3396.367188 C 2859.179688 3619.882812 3021.40625 4204.0625 3034.21875 4528.28125 C 3035.46875 4560.078125 3007.773438 4582.734375 2976.679688 4584.765625 Z M 2976.679688 4584.765625 " transform="matrix(0.1,0,0,-0.1,0,674)"/>
</g>
<path style=" stroke:none;fill-rule:nonzero;fill:rgb(88.887024%,66.712952%,12.174988%);fill-opacity:1;" d="M 130.59375 575.617188 L 132.367188 575.835938 C 132.367188 575.835938 207.417969 574.628906 219.480469 571.109375 C 231.546875 567.589844 244.996094 583.25 228.753906 592.917969 C 212.511719 602.589844 167.589844 606.242188 131.054688 599.367188 C 123.699219 585.101562 130.59375 575.617188 130.59375 575.617188 Z M 269.609375 624.417969 C 269.609375 624.417969 195.027344 661.535156 140.507812 631.945312 C 137.941406 630.554688 135.816406 626.699219 136.980469 623.925781 C 152.328125 624.46875 204.757812 626.933594 232.824219 616.972656 C 255.324219 608.988281 268.390625 599.929688 268.390625 599.929688 C 268.390625 599.929688 267.320312 559.742188 255.710938 543.304688 C 253.597656 540.3125 249.652344 539.320312 246.386719 540.976562 C 219.980469 554.382812 173.464844 556.039062 169.894531 555.8125 C 165.953125 555.558594 101.847656 556.746094 74.285156 544.574219 C 73.121094 544.0625 71.789062 544.746094 71.53125 545.992188 C 68.871094 558.710938 56.851562 617.023438 55.0625 640.636719 C 54.988281 641.589844 55.242188 642.550781 55.8125 643.316406 C 66.359375 657.4375 80.257812 658.398438 85.855469 658.921875 C 86.683594 659 87.464844 658.566406 87.832031 657.824219 C 91.097656 651.242188 97.996094 621.027344 97.996094 621.027344 L 107.484375 623.539062 C 107.484375 623.539062 102.789062 652.757812 107.625 658.730469 C 112.460938 664.703125 150.367188 673.929688 184.121094 671.644531 C 220.308594 669.191406 253.511719 660.757812 275.863281 648.863281 C 279.023438 620.828125 269.609375 624.417969 269.609375 624.417969 "/>
<g clip-path="url(#clip3)" clip-rule="nonzero">
<path style="fill:none;stroke-width:40;stroke-linecap:round;stroke-linejoin:miter;stroke:rgb(3.857422%,4.989624%,5.232239%);stroke-opacity:1;stroke-miterlimit:10;" d="M 1305.9375 983.828125 L 1323.671875 981.640625 C 1323.671875 981.640625 2074.179688 993.710938 2194.804688 1028.90625 C 2315.46875 1064.101562 2449.960938 907.5 2287.539062 810.820312 C 2125.117188 714.101562 1675.898438 677.578125 1310.546875 746.328125 C 1236.992188 888.984375 1305.9375 983.828125 1305.9375 983.828125 Z M 2696.09375 495.820312 C 2696.09375 495.820312 1950.273438 124.648438 1405.078125 420.546875 C 1379.414062 434.453125 1358.164062 473.007812 1369.804688 500.742188 C 1523.28125 495.3125 2047.578125 470.664062 2328.242188 570.273438 C 2553.242188 650.117188 2683.90625 740.703125 2683.90625 740.703125 C 2683.90625 740.703125 2673.203125 1142.578125 2557.109375 1306.953125 C 2535.976562 1336.875 2496.523438 1346.796875 2463.867188 1330.234375 C 2199.804688 1196.171875 1734.648438 1179.609375 1698.945312 1181.875 C 1659.53125 1184.414062 1018.476562 1172.539062 742.851562 1294.257812 C 731.210938 1299.375 717.890625 1292.539062 715.3125 1280.078125 C 688.710938 1152.890625 568.515625 569.765625 550.625 333.632812 C 549.882812 324.101562 552.421875 314.492188 558.125 306.835938 C 663.59375 165.625 802.578125 156.015625 858.554688 150.78125 C 866.835938 150 874.648438 154.335938 878.320312 161.757812 C 910.976562 227.578125 979.960938 529.726562 979.960938 529.726562 L 1074.84375 504.609375 C 1074.84375 504.609375 1027.890625 212.421875 1076.25 152.695312 C 1124.609375 92.96875 1503.671875 0.703125 1841.210938 23.554688 C 2203.085938 48.085938 2535.117188 132.421875 2758.632812 251.367188 C 2790.234375 531.71875 2696.09375 495.820312 2696.09375 495.820312 Z M 2696.09375 495.820312 " transform="matrix(0.1,0,0,-0.1,0,674)"/>
</g>
<path style=" stroke:none;fill-rule:nonzero;fill:rgb(88.887024%,66.712952%,12.174988%);fill-opacity:1;" d="M 215.105469 496.503906 C 201.855469 508.496094 165.90625 505.769531 136.296875 501.511719 C 135.03125 501.328125 134.273438 500.023438 134.726562 498.828125 C 140.554688 483.476562 132.488281 442.160156 132.488281 442.160156 C 132.488281 442.160156 175.703125 446.039062 193.65625 450.746094 C 211.609375 455.453125 219.332031 462.347656 219.332031 462.347656 C 219.332031 462.347656 222.3125 489.980469 215.105469 496.503906 Z M 246.199219 441.769531 C 246.105469 440.339844 246.152344 438.941406 244.953125 438.15625 C 240.8125 435.457031 234.117188 428.816406 197.046875 416.976562 C 169.769531 408.265625 109.21875 397.117188 77.050781 404.183594 C 73.023438 405.066406 70.886719 409.460938 72.773438 413.128906 C 86.792969 440.445312 85.210938 494.890625 73.65625 522.089844 C 72.003906 525.976562 74.621094 530.316406 78.828125 530.714844 C 100.1875 532.730469 132.988281 537.804688 146.152344 538.363281 C 177.007812 539.671875 206.648438 533.945312 246.136719 514.214844 C 247.476562 513.542969 248.132812 512.007812 247.742188 510.558594 C 239.660156 480.632812 246.632812 448.578125 246.199219 441.769531 "/>
<path style="fill:none;stroke-width:40;stroke-linecap:round;stroke-linejoin:miter;stroke:rgb(3.857422%,4.989624%,5.232239%);stroke-opacity:1;stroke-miterlimit:10;" d="M 2151.054688 1774.960938 C 2018.554688 1655.039062 1659.0625 1682.304688 1362.96875 1724.882812 C 1350.3125 1726.71875 1342.734375 1739.765625 1347.265625 1751.71875 C 1405.546875 1905.234375 1324.882812 2318.398438 1324.882812 2318.398438 C 1324.882812 2318.398438 1757.03125 2279.609375 1936.5625 2232.539062 C 2116.09375 2185.46875 2193.320312 2116.523438 2193.320312 2116.523438 C 2193.320312 2116.523438 2223.125 1840.195312 2151.054688 1774.960938 Z M 2461.992188 2322.304688 C 2461.054688 2336.601562 2461.523438 2350.585938 2449.53125 2358.4375 C 2408.125 2385.429688 2341.171875 2451.835938 1970.46875 2570.234375 C 1697.695312 2657.34375 1092.1875 2768.828125 770.507812 2698.164062 C 730.234375 2689.335938 708.867188 2645.390625 727.734375 2608.710938 C 867.929688 2335.546875 852.109375 1791.09375 736.5625 1519.101562 C 720.039062 1480.234375 746.210938 1436.835938 788.28125 1432.851562 C 1001.875 1412.695312 1329.882812 1361.953125 1461.523438 1356.367188 C 1770.078125 1343.28125 2066.484375 1400.546875 2461.367188 1597.851562 C 2474.765625 1604.570312 2481.328125 1619.921875 2477.421875 1634.414062 C 2396.601562 1933.671875 2466.328125 2254.21875 2461.992188 2322.304688 Z M 2461.992188 2322.304688 " transform="matrix(0.1,0,0,-0.1,0,674)"/>
</g>
</svg>
