<?xml version="1.0" encoding="utf-8" standalone="no"?>
<!DOCTYPE svg PUBLIC "-//W3C//DTD SVG 1.1//EN"
  "http://www.w3.org/Graphics/SVG/1.1/DTD/svg11.dtd">
<svg height="325.986375pt" version="1.1" viewBox="0 0 923.680625 325.986375" width="923.680625pt" xmlns="http://www.w3.org/2000/svg" xmlns:xlink="http://www.w3.org/1999/xlink">
 <metadata>
  <rdf:RDF xmlns:cc="http://creativecommons.org/ns#" xmlns:dc="http://purl.org/dc/elements/1.1/" xmlns:rdf="http://www.w3.org/1999/02/22-rdf-syntax-ns#">
   <cc:Work>
    <dc:type rdf:resource="http://purl.org/dc/dcmitype/StillImage"/>
    <dc:date>2022-09-23T01:20:00.150905</dc:date>
    <dc:format>image/svg+xml</dc:format>
    <dc:creator>
     <cc:Agent>
      <dc:title>Matplotlib v3.4.1, https://matplotlib.org/</dc:title>
     </cc:Agent>
    </dc:creator>
   </cc:Work>
  </rdf:RDF>
 </metadata>
 <defs>
  <style type="text/css">*{stroke-linecap:butt;stroke-linejoin:round;}</style>
 </defs>
 <g id="figure_1">
  <g id="patch_1">
   <path d="M 0 325.986375 
L 923.680625 325.986375 
L 923.680625 0 
L 0 0 
z
" style="fill:#ffffff;"/>
  </g>
  <g id="axes_1">
   <g id="patch_2">
    <path d="M 53.328125 288.430125 
L 767.568125 288.430125 
L 767.568125 22.318125 
L 53.328125 22.318125 
z
" style="fill:#ffffff;"/>
   </g>
   <g id="PolyCollection_1">
    <defs>
     <path d="M 85.79358 -78.964351 
L 85.79358 -52.126648 
L 185.326487 -86.197207 
L 243.549506 -110.179835 
L 284.859395 -118.935397 
L 316.901835 -129.213666 
L 343.082414 -146.700999 
L 365.217778 -155.480354 
L 384.392303 -153.576971 
L 401.305433 -160.42915 
L 416.434742 -161.190503 
L 430.120868 -162.71321 
L 442.615322 -164.235916 
L 454.109105 -169.184713 
L 464.750686 -168.994374 
L 474.657761 -174.704524 
L 483.925211 -177.178922 
L 492.630642 -182.127718 
L 500.83834 -182.889071 
L 508.602157 -193.548017 
L 515.96765 -193.548017 
L 522.973705 -193.548017 
L 529.653776 -194.30937 
L 536.036855 -196.212754 
L 542.14823 -196.212754 
L 548.01009 -199.638843 
L 553.642013 -199.610292 
L 559.061359 -200.400196 
L 564.283594 -201.922903 
L 569.322554 -201.922903 
L 574.190669 -201.922903 
L 578.899144 -202.684256 
L 583.458119 -207.442714 
L 587.876794 -209.536436 
L 592.16355 -210.297789 
L 596.326033 -211.059142 
L 600.371248 -212.581849 
L 604.305621 -215.993663 
L 608.135065 -215.993663 
L 611.865031 -215.984146 
L 615.500558 -217.149968 
L 619.046309 -217.149968 
L 622.506613 -219.053351 
L 625.885489 -219.053351 
L 629.186684 -218.672675 
L 632.413688 -221.718088 
L 635.569763 -221.52775 
L 638.65796 -220.766396 
L 641.681137 -222.660263 
L 644.641977 -223.240794 
L 647.542997 -222.289103 
L 650.386568 -223.240794 
L 653.174921 -223.240794 
L 655.910158 -224.002148 
L 658.594267 -224.763501 
L 661.229123 -225.524854 
L 663.816502 -225.524854 
L 666.358084 -225.905531 
L 668.855462 -225.524854 
L 671.310148 -225.524854 
L 673.723577 -227.999252 
L 676.097112 -228.189591 
L 678.432052 -229.331621 
L 680.729631 -230.092974 
L 682.991027 -231.235004 
L 685.21736 -232.75771 
L 687.409702 -234.090078 
L 689.569076 -234.280417 
L 691.696457 -234.280417 
L 693.792781 -234.280417 
L 695.858941 -236.945153 
L 697.895793 -236.564477 
L 699.904156 -236.945153 
L 701.884817 -236.564477 
L 703.838529 -236.564477 
L 705.766016 -236.564477 
L 707.667973 -236.945153 
L 709.545067 -236.945153 
L 711.397939 -236.945153 
L 713.227208 -236.945153 
L 715.033466 -238.087183 
L 716.817286 -238.087183 
L 718.579217 -238.087183 
L 720.319792 -238.46786 
L 722.03952 -238.46786 
L 723.738897 -238.46786 
L 725.418397 -240.371243 
L 727.078481 -239.990566 
L 728.719591 -239.60989 
L 730.342158 -240.371243 
L 731.946595 -239.981049 
L 733.533304 -239.605131 
L 735.10267 -239.990566 
L 735.10267 -274.827237 
L 735.10267 -274.827237 
L 733.533304 -275.012816 
L 731.946595 -273.49011 
L 730.342158 -274.63214 
L 728.719591 -274.822478 
L 727.078481 -244.178009 
L 725.418397 -274.63214 
L 723.738897 -274.251463 
L 722.03952 -274.251463 
L 720.319792 -272.923853 
L 718.579217 -273.870787 
L 716.817286 -272.728757 
L 715.033466 -273.680448 
L 713.227208 -273.680448 
L 711.397939 -273.680448 
L 709.545067 -271.044263 
L 707.667973 -272.157742 
L 705.766016 -272.157742 
L 703.838529 -271.967403 
L 701.884817 -243.735473 
L 699.904156 -271.015712 
L 697.895793 -271.777065 
L 695.858941 -271.777065 
L 693.792781 -271.015712 
L 691.696457 -268.741169 
L 689.569076 -270.444697 
L 687.409702 -270.444697 
L 685.21736 -270.444697 
L 682.991027 -269.302667 
L 680.729631 -266.066916 
L 678.432052 -265.876577 
L 676.097112 -265.315079 
L 673.723577 -264.924886 
L 671.310148 -264.363388 
L 668.855462 -260.765994 
L 666.358084 -264.163532 
L 663.816502 -261.170462 
L 661.229123 -263.211841 
L 658.594267 -262.450488 
L 655.910158 -262.450488 
L 653.174921 -261.118119 
L 650.386568 -235.608027 
L 647.542997 -235.04177 
L 644.641977 -260.927781 
L 641.681137 -260.366283 
L 638.65796 -260.594689 
L 635.569763 -260.547104 
L 632.413688 -256.169323 
L 629.186684 -254.646617 
L 625.885489 -253.694925 
L 622.506613 -228.570267 
L 619.046309 -253.314248 
L 615.500558 -249.126805 
L 611.865031 -251.410865 
L 608.135065 -249.888159 
L 604.305621 -244.192285 
L 600.371248 -247.413761 
L 596.326033 -247.033084 
L 592.16355 -241.893949 
L 587.876794 -225.420168 
L 583.458119 -233.328725 
L 578.899144 -235.612785 
L 574.190669 -232.567372 
L 569.322554 -230.854327 
L 564.283594 -230.882878 
L 559.061359 -228.570267 
L 553.642013 -215.056247 
L 548.01009 -212.201172 
L 542.14823 -213.343202 
L 536.036855 -211.059142 
L 529.653776 -210.868804 
L 522.973705 -210.297789 
L 515.96765 -209.350856 
L 508.602157 -206.110346 
L 500.83834 -204.587639 
L 492.630642 -202.684256 
L 483.925211 -202.684256 
L 474.657761 -203.255271 
L 464.750686 -193.548017 
L 454.109105 -188.979898 
L 442.615322 -184.792455 
L 430.120868 -181.176027 
L 416.434742 -175.0852 
L 401.305433 -170.517081 
L 384.392303 -168.261572 
L 365.217778 -162.779828 
L 343.082414 -164.426255 
L 316.901835 -157.00306 
L 284.859395 -152.434941 
L 243.549506 -139.491935 
L 185.326487 -128.83299 
L 85.79358 -78.964351 
z
" id="mbd0bab9909" style="stroke:#1f77b4;stroke-opacity:0.2;"/>
    </defs>
    <g clip-path="url(#p3e202576ed)">
     <use style="fill:#1f77b4;fill-opacity:0.2;stroke:#1f77b4;stroke-opacity:0.2;" x="0" xlink:href="#mbd0bab9909" y="325.986375"/>
    </g>
   </g>
   <g id="PolyCollection_2">
    <defs>
     <path d="M 85.79358 -64.879315 
L 85.79358 -49.65225 
L 185.326487 -88.861943 
L 243.549506 -112.844571 
L 284.859395 -118.174044 
L 316.901835 -124.45045 
L 343.082414 -129.975019 
L 365.217778 -133.591447 
L 384.392303 -140.443627 
L 401.305433 -147.295806 
L 416.434742 -152.054264 
L 430.120868 -158.906444 
L 442.615322 -161.190503 
L 454.109105 -166.305846 
L 464.750686 -171.088096 
L 474.657761 -173.353122 
L 483.925211 -175.64194 
L 492.630642 -174.894862 
L 500.83834 -175.656215 
L 508.602157 -176.22723 
L 515.96765 -177.178922 
L 522.973705 -178.701628 
L 529.653776 -178.701628 
L 536.036855 -183.269748 
L 542.14823 -183.840763 
L 548.01009 -183.840763 
L 553.642013 -185.744146 
L 559.061359 -186.110547 
L 564.283594 -186.505499 
L 569.322554 -187.076514 
L 574.190669 -186.886176 
L 578.899144 -190.883281 
L 583.458119 -192.405987 
L 587.876794 -194.30937 
L 592.16355 -192.977002 
L 596.326033 -194.499709 
L 600.371248 -196.974107 
L 604.305621 -197.354783 
L 608.135065 -200.01952 
L 611.865031 -200.01952 
L 615.500558 -199.258167 
L 619.046309 -200.01952 
L 622.506613 -200.771356 
L 625.885489 -201.16155 
L 629.186684 -200.971211 
L 632.413688 -201.542226 
L 635.569763 -201.542226 
L 638.65796 -201.542226 
L 641.681137 -202.684256 
L 644.641977 -203.44561 
L 647.542997 -204.206963 
L 650.386568 -207.633053 
L 653.174921 -207.633053 
L 655.910158 -205.920008 
L 658.594267 -207.633053 
L 661.229123 -207.633053 
L 663.816502 -206.681361 
L 666.358084 -207.633053 
L 668.855462 -207.633053 
L 671.310148 -208.013729 
L 673.723577 -207.823391 
L 676.097112 -208.013729 
L 678.432052 -207.823391 
L 680.729631 -208.013729 
L 682.991027 -208.394406 
L 685.21736 -208.775082 
L 687.409702 -211.059142 
L 689.569076 -211.059142 
L 691.696457 -211.059142 
L 693.792781 -211.059142 
L 695.858941 -211.059142 
L 697.895793 -212.962525 
L 699.904156 -220.576058 
L 701.884817 -220.576058 
L 703.838529 -220.576058 
L 705.766016 -220.576058 
L 707.667973 -220.576058 
L 709.545067 -221.503957 
L 711.397939 -221.718088 
L 713.227208 -221.718088 
L 715.033466 -221.718088 
L 716.817286 -221.718088 
L 718.579217 -221.718088 
L 720.319792 -221.718088 
L 722.03952 -221.718088 
L 723.738897 -221.718088 
L 725.418397 -221.718088 
L 727.078481 -221.718088 
L 728.719591 -222.098765 
L 730.342158 -223.240794 
L 731.946595 -224.382824 
L 733.533304 -224.382824 
L 735.10267 -223.240794 
L 735.10267 -285.291086 
L 735.10267 -285.291086 
L 733.533304 -291.57225 
L 731.946595 -285.291086 
L 730.342158 -285.448115 
L 728.719591 -291.57225 
L 727.078481 -291.191573 
L 725.418397 -282.84048 
L 723.738897 -290.43022 
L 722.03952 -290.43022 
L 720.319792 -282.245673 
L 718.579217 -282.255189 
L 716.817286 -290.810897 
L 715.033466 -281.674658 
L 713.227208 -281.484319 
L 711.397939 -281.484319 
L 709.545067 -290.049543 
L 707.667973 -284.529732 
L 705.766016 -280.342289 
L 703.838529 -279.580936 
L 701.884817 -275.77417 
L 699.904156 -275.012816 
L 697.895793 -275.012816 
L 695.858941 -275.012816 
L 693.792781 -275.012816 
L 691.696457 -275.012816 
L 689.569076 -275.012816 
L 687.409702 -274.251463 
L 685.21736 -274.251463 
L 682.991027 -274.251463 
L 680.729631 -284.529732 
L 678.432052 -270.825374 
L 676.097112 -270.825374 
L 673.723577 -269.302667 
L 671.310148 -269.302667 
L 668.855462 -268.92199 
L 666.358084 -268.541314 
L 663.816502 -267.399284 
L 661.229123 -267.399284 
L 658.594267 -266.637931 
L 655.910158 -266.637931 
L 653.174921 -266.637931 
L 650.386568 -279.200259 
L 647.542997 -278.629244 
L 644.641977 -264.734547 
L 641.681137 -263.973194 
L 638.65796 -263.973194 
L 635.569763 -263.211841 
L 632.413688 -263.211841 
L 629.186684 -263.211841 
L 625.885489 -261.689134 
L 622.506613 -261.308458 
L 619.046309 -260.927781 
L 615.500558 -260.927781 
L 611.865031 -260.547104 
L 608.135065 -271.777065 
L 604.305621 -259.785751 
L 600.371248 -219.814705 
L 596.326033 -235.04177 
L 592.16355 -232.062975 
L 587.876794 -233.709402 
L 583.458119 -230.663989 
L 578.899144 -230.663989 
L 574.190669 -233.138387 
L 569.322554 -209.127208 
L 564.283594 -225.715193 
L 559.061359 -229.521959 
L 553.642013 -219.053351 
L 548.01009 -221.147073 
L 542.14823 -226.286208 
L 536.036855 -220.956735 
L 529.653776 -223.621471 
L 522.973705 -214.375787 
L 515.96765 -217.911322 
L 508.602157 -213.738154 
L 500.83834 -214.294894 
L 492.630642 -212.772187 
L 483.925211 -208.22786 
L 474.657761 -207.252376 
L 464.750686 -205.348993 
L 454.109105 -204.587639 
L 442.615322 -200.209858 
L 430.120868 -192.910384 
L 416.434742 -186.315161 
L 401.305433 -178.701628 
L 384.392303 -172.991479 
L 365.217778 -170.707419 
L 343.082414 -162.71321 
L 316.901835 -149.770204 
L 284.859395 -135.970676 
L 243.549506 -131.117049 
L 185.326487 -111.512203 
L 85.79358 -64.879315 
z
" id="mab3ab4ae62" style="stroke:#98df8a;stroke-opacity:0.2;"/>
    </defs>
    <g clip-path="url(#p3e202576ed)">
     <use style="fill:#98df8a;fill-opacity:0.2;stroke:#98df8a;stroke-opacity:0.2;" x="0" xlink:href="#mab3ab4ae62" y="325.986375"/>
    </g>
   </g>
   <g id="matplotlib.axis_1">
    <g id="xtick_1">
     <g id="line2d_1">
      <defs>
       <path d="M 0 0 
L 0 3.5 
" id="m09afacd285" style="stroke:#000000;stroke-width:0.8;"/>
      </defs>
      <g>
       <use style="stroke:#000000;stroke-width:0.8;" x="85.79358" xlink:href="#m09afacd285" y="288.430125"/>
      </g>
     </g>
     <g id="text_1">
      <!-- 14m -->
      <g transform="translate(74.560767 303.028562)scale(0.1 -0.1)">
       <defs>
        <path d="M 794 531 
L 1825 531 
L 1825 4091 
L 703 3866 
L 703 4441 
L 1819 4666 
L 2450 4666 
L 2450 531 
L 3481 531 
L 3481 0 
L 794 0 
L 794 531 
z
" id="DejaVuSans-31" transform="scale(0.015625)"/>
        <path d="M 2419 4116 
L 825 1625 
L 2419 1625 
L 2419 4116 
z
M 2253 4666 
L 3047 4666 
L 3047 1625 
L 3713 1625 
L 3713 1100 
L 3047 1100 
L 3047 0 
L 2419 0 
L 2419 1100 
L 313 1100 
L 313 1709 
L 2253 4666 
z
" id="DejaVuSans-34" transform="scale(0.015625)"/>
        <path d="M 3328 2828 
Q 3544 3216 3844 3400 
Q 4144 3584 4550 3584 
Q 5097 3584 5394 3201 
Q 5691 2819 5691 2113 
L 5691 0 
L 5113 0 
L 5113 2094 
Q 5113 2597 4934 2840 
Q 4756 3084 4391 3084 
Q 3944 3084 3684 2787 
Q 3425 2491 3425 1978 
L 3425 0 
L 2847 0 
L 2847 2094 
Q 2847 2600 2669 2842 
Q 2491 3084 2119 3084 
Q 1678 3084 1418 2786 
Q 1159 2488 1159 1978 
L 1159 0 
L 581 0 
L 581 3500 
L 1159 3500 
L 1159 2956 
Q 1356 3278 1631 3431 
Q 1906 3584 2284 3584 
Q 2666 3584 2933 3390 
Q 3200 3197 3328 2828 
z
" id="DejaVuSans-6d" transform="scale(0.015625)"/>
       </defs>
       <use xlink:href="#DejaVuSans-31"/>
       <use x="63.623047" xlink:href="#DejaVuSans-34"/>
       <use x="127.246094" xlink:href="#DejaVuSans-6d"/>
      </g>
     </g>
    </g>
    <g id="xtick_2">
     <g id="line2d_2">
      <g>
       <use style="stroke:#000000;stroke-width:0.8;" x="144.821836" xlink:href="#m09afacd285" y="288.430125"/>
      </g>
     </g>
     <g id="text_2">
      <!-- 22m -->
      <g transform="translate(133.589024 303.028562)scale(0.1 -0.1)">
       <defs>
        <path d="M 1228 531 
L 3431 531 
L 3431 0 
L 469 0 
L 469 531 
Q 828 903 1448 1529 
Q 2069 2156 2228 2338 
Q 2531 2678 2651 2914 
Q 2772 3150 2772 3378 
Q 2772 3750 2511 3984 
Q 2250 4219 1831 4219 
Q 1534 4219 1204 4116 
Q 875 4013 500 3803 
L 500 4441 
Q 881 4594 1212 4672 
Q 1544 4750 1819 4750 
Q 2544 4750 2975 4387 
Q 3406 4025 3406 3419 
Q 3406 3131 3298 2873 
Q 3191 2616 2906 2266 
Q 2828 2175 2409 1742 
Q 1991 1309 1228 531 
z
" id="DejaVuSans-32" transform="scale(0.015625)"/>
       </defs>
       <use xlink:href="#DejaVuSans-32"/>
       <use x="63.623047" xlink:href="#DejaVuSans-32"/>
       <use x="127.246094" xlink:href="#DejaVuSans-6d"/>
      </g>
     </g>
    </g>
    <g id="xtick_3">
     <g id="line2d_3">
      <g>
       <use style="stroke:#000000;stroke-width:0.8;" x="203.850093" xlink:href="#m09afacd285" y="288.430125"/>
      </g>
     </g>
     <g id="text_3">
      <!-- 34m -->
      <g transform="translate(192.617281 303.028562)scale(0.1 -0.1)">
       <defs>
        <path d="M 2597 2516 
Q 3050 2419 3304 2112 
Q 3559 1806 3559 1356 
Q 3559 666 3084 287 
Q 2609 -91 1734 -91 
Q 1441 -91 1130 -33 
Q 819 25 488 141 
L 488 750 
Q 750 597 1062 519 
Q 1375 441 1716 441 
Q 2309 441 2620 675 
Q 2931 909 2931 1356 
Q 2931 1769 2642 2001 
Q 2353 2234 1838 2234 
L 1294 2234 
L 1294 2753 
L 1863 2753 
Q 2328 2753 2575 2939 
Q 2822 3125 2822 3475 
Q 2822 3834 2567 4026 
Q 2313 4219 1838 4219 
Q 1578 4219 1281 4162 
Q 984 4106 628 3988 
L 628 4550 
Q 988 4650 1302 4700 
Q 1616 4750 1894 4750 
Q 2613 4750 3031 4423 
Q 3450 4097 3450 3541 
Q 3450 3153 3228 2886 
Q 3006 2619 2597 2516 
z
" id="DejaVuSans-33" transform="scale(0.015625)"/>
       </defs>
       <use xlink:href="#DejaVuSans-33"/>
       <use x="63.623047" xlink:href="#DejaVuSans-34"/>
       <use x="127.246094" xlink:href="#DejaVuSans-6d"/>
      </g>
     </g>
    </g>
    <g id="xtick_4">
     <g id="line2d_4">
      <g>
       <use style="stroke:#000000;stroke-width:0.8;" x="262.87835" xlink:href="#m09afacd285" y="288.430125"/>
      </g>
     </g>
     <g id="text_4">
      <!-- 51m -->
      <g transform="translate(251.645538 303.028562)scale(0.1 -0.1)">
       <defs>
        <path d="M 691 4666 
L 3169 4666 
L 3169 4134 
L 1269 4134 
L 1269 2991 
Q 1406 3038 1543 3061 
Q 1681 3084 1819 3084 
Q 2600 3084 3056 2656 
Q 3513 2228 3513 1497 
Q 3513 744 3044 326 
Q 2575 -91 1722 -91 
Q 1428 -91 1123 -41 
Q 819 9 494 109 
L 494 744 
Q 775 591 1075 516 
Q 1375 441 1709 441 
Q 2250 441 2565 725 
Q 2881 1009 2881 1497 
Q 2881 1984 2565 2268 
Q 2250 2553 1709 2553 
Q 1456 2553 1204 2497 
Q 953 2441 691 2322 
L 691 4666 
z
" id="DejaVuSans-35" transform="scale(0.015625)"/>
       </defs>
       <use xlink:href="#DejaVuSans-35"/>
       <use x="63.623047" xlink:href="#DejaVuSans-31"/>
       <use x="127.246094" xlink:href="#DejaVuSans-6d"/>
      </g>
     </g>
    </g>
    <g id="xtick_5">
     <g id="line2d_5">
      <g>
       <use style="stroke:#000000;stroke-width:0.8;" x="321.906607" xlink:href="#m09afacd285" y="288.430125"/>
      </g>
     </g>
     <g id="text_5">
      <!-- 1h:17m -->
      <g transform="translate(302.639419 303.028562)scale(0.1 -0.1)">
       <defs>
        <path d="M 3513 2113 
L 3513 0 
L 2938 0 
L 2938 2094 
Q 2938 2591 2744 2837 
Q 2550 3084 2163 3084 
Q 1697 3084 1428 2787 
Q 1159 2491 1159 1978 
L 1159 0 
L 581 0 
L 581 4863 
L 1159 4863 
L 1159 2956 
Q 1366 3272 1645 3428 
Q 1925 3584 2291 3584 
Q 2894 3584 3203 3211 
Q 3513 2838 3513 2113 
z
" id="DejaVuSans-68" transform="scale(0.015625)"/>
        <path d="M 750 794 
L 1409 794 
L 1409 0 
L 750 0 
L 750 794 
z
M 750 3309 
L 1409 3309 
L 1409 2516 
L 750 2516 
L 750 3309 
z
" id="DejaVuSans-3a" transform="scale(0.015625)"/>
        <path d="M 525 4666 
L 3525 4666 
L 3525 4397 
L 1831 0 
L 1172 0 
L 2766 4134 
L 525 4134 
L 525 4666 
z
" id="DejaVuSans-37" transform="scale(0.015625)"/>
       </defs>
       <use xlink:href="#DejaVuSans-31"/>
       <use x="63.623047" xlink:href="#DejaVuSans-68"/>
       <use x="127.001953" xlink:href="#DejaVuSans-3a"/>
       <use x="160.693359" xlink:href="#DejaVuSans-31"/>
       <use x="224.316406" xlink:href="#DejaVuSans-37"/>
       <use x="287.939453" xlink:href="#DejaVuSans-6d"/>
      </g>
     </g>
    </g>
    <g id="xtick_6">
     <g id="line2d_6">
      <g>
       <use style="stroke:#000000;stroke-width:0.8;" x="380.934864" xlink:href="#m09afacd285" y="288.430125"/>
      </g>
     </g>
     <g id="text_6">
      <!-- 1h:57m -->
      <g transform="translate(361.667676 303.028562)scale(0.1 -0.1)">
       <use xlink:href="#DejaVuSans-31"/>
       <use x="63.623047" xlink:href="#DejaVuSans-68"/>
       <use x="127.001953" xlink:href="#DejaVuSans-3a"/>
       <use x="160.693359" xlink:href="#DejaVuSans-35"/>
       <use x="224.316406" xlink:href="#DejaVuSans-37"/>
       <use x="287.939453" xlink:href="#DejaVuSans-6d"/>
      </g>
     </g>
    </g>
    <g id="xtick_7">
     <g id="line2d_7">
      <g>
       <use style="stroke:#000000;stroke-width:0.8;" x="439.963121" xlink:href="#m09afacd285" y="288.430125"/>
      </g>
     </g>
     <g id="text_7">
      <!-- 2h:56m -->
      <g transform="translate(420.695933 303.028562)scale(0.1 -0.1)">
       <defs>
        <path d="M 2113 2584 
Q 1688 2584 1439 2293 
Q 1191 2003 1191 1497 
Q 1191 994 1439 701 
Q 1688 409 2113 409 
Q 2538 409 2786 701 
Q 3034 994 3034 1497 
Q 3034 2003 2786 2293 
Q 2538 2584 2113 2584 
z
M 3366 4563 
L 3366 3988 
Q 3128 4100 2886 4159 
Q 2644 4219 2406 4219 
Q 1781 4219 1451 3797 
Q 1122 3375 1075 2522 
Q 1259 2794 1537 2939 
Q 1816 3084 2150 3084 
Q 2853 3084 3261 2657 
Q 3669 2231 3669 1497 
Q 3669 778 3244 343 
Q 2819 -91 2113 -91 
Q 1303 -91 875 529 
Q 447 1150 447 2328 
Q 447 3434 972 4092 
Q 1497 4750 2381 4750 
Q 2619 4750 2861 4703 
Q 3103 4656 3366 4563 
z
" id="DejaVuSans-36" transform="scale(0.015625)"/>
       </defs>
       <use xlink:href="#DejaVuSans-32"/>
       <use x="63.623047" xlink:href="#DejaVuSans-68"/>
       <use x="127.001953" xlink:href="#DejaVuSans-3a"/>
       <use x="160.693359" xlink:href="#DejaVuSans-35"/>
       <use x="224.316406" xlink:href="#DejaVuSans-36"/>
       <use x="287.939453" xlink:href="#DejaVuSans-6d"/>
      </g>
     </g>
    </g>
    <g id="xtick_8">
     <g id="line2d_8">
      <g>
       <use style="stroke:#000000;stroke-width:0.8;" x="498.991377" xlink:href="#m09afacd285" y="288.430125"/>
      </g>
     </g>
     <g id="text_8">
      <!-- 4h:26m -->
      <g transform="translate(479.72419 303.028562)scale(0.1 -0.1)">
       <use xlink:href="#DejaVuSans-34"/>
       <use x="63.623047" xlink:href="#DejaVuSans-68"/>
       <use x="127.001953" xlink:href="#DejaVuSans-3a"/>
       <use x="160.693359" xlink:href="#DejaVuSans-32"/>
       <use x="224.316406" xlink:href="#DejaVuSans-36"/>
       <use x="287.939453" xlink:href="#DejaVuSans-6d"/>
      </g>
     </g>
    </g>
    <g id="xtick_9">
     <g id="line2d_9">
      <g>
       <use style="stroke:#000000;stroke-width:0.8;" x="558.019634" xlink:href="#m09afacd285" y="288.430125"/>
      </g>
     </g>
     <g id="text_9">
      <!-- 6h:42m -->
      <g transform="translate(538.752447 303.028562)scale(0.1 -0.1)">
       <use xlink:href="#DejaVuSans-36"/>
       <use x="63.623047" xlink:href="#DejaVuSans-68"/>
       <use x="127.001953" xlink:href="#DejaVuSans-3a"/>
       <use x="160.693359" xlink:href="#DejaVuSans-34"/>
       <use x="224.316406" xlink:href="#DejaVuSans-32"/>
       <use x="287.939453" xlink:href="#DejaVuSans-6d"/>
      </g>
     </g>
    </g>
    <g id="xtick_10">
     <g id="line2d_10">
      <g>
       <use style="stroke:#000000;stroke-width:0.8;" x="617.047891" xlink:href="#m09afacd285" y="288.430125"/>
      </g>
     </g>
     <g id="text_10">
      <!-- 10h:6m -->
      <g transform="translate(597.780704 303.028562)scale(0.1 -0.1)">
       <defs>
        <path d="M 2034 4250 
Q 1547 4250 1301 3770 
Q 1056 3291 1056 2328 
Q 1056 1369 1301 889 
Q 1547 409 2034 409 
Q 2525 409 2770 889 
Q 3016 1369 3016 2328 
Q 3016 3291 2770 3770 
Q 2525 4250 2034 4250 
z
M 2034 4750 
Q 2819 4750 3233 4129 
Q 3647 3509 3647 2328 
Q 3647 1150 3233 529 
Q 2819 -91 2034 -91 
Q 1250 -91 836 529 
Q 422 1150 422 2328 
Q 422 3509 836 4129 
Q 1250 4750 2034 4750 
z
" id="DejaVuSans-30" transform="scale(0.015625)"/>
       </defs>
       <use xlink:href="#DejaVuSans-31"/>
       <use x="63.623047" xlink:href="#DejaVuSans-30"/>
       <use x="127.246094" xlink:href="#DejaVuSans-68"/>
       <use x="190.625" xlink:href="#DejaVuSans-3a"/>
       <use x="224.316406" xlink:href="#DejaVuSans-36"/>
       <use x="287.939453" xlink:href="#DejaVuSans-6d"/>
      </g>
     </g>
    </g>
    <g id="xtick_11">
     <g id="line2d_11">
      <g>
       <use style="stroke:#000000;stroke-width:0.8;" x="676.076148" xlink:href="#m09afacd285" y="288.430125"/>
      </g>
     </g>
     <g id="text_11">
      <!-- 15h:14m -->
      <g transform="translate(653.62771 303.028562)scale(0.1 -0.1)">
       <use xlink:href="#DejaVuSans-31"/>
       <use x="63.623047" xlink:href="#DejaVuSans-35"/>
       <use x="127.246094" xlink:href="#DejaVuSans-68"/>
       <use x="190.625" xlink:href="#DejaVuSans-3a"/>
       <use x="224.316406" xlink:href="#DejaVuSans-31"/>
       <use x="287.939453" xlink:href="#DejaVuSans-34"/>
       <use x="351.5625" xlink:href="#DejaVuSans-6d"/>
      </g>
     </g>
    </g>
    <g id="xtick_12">
     <g id="line2d_12">
      <g>
       <use style="stroke:#000000;stroke-width:0.8;" x="735.104405" xlink:href="#m09afacd285" y="288.430125"/>
      </g>
     </g>
     <g id="text_12">
      <!-- 23h -->
      <g transform="translate(725.573155 303.028562)scale(0.1 -0.1)">
       <use xlink:href="#DejaVuSans-32"/>
       <use x="63.623047" xlink:href="#DejaVuSans-33"/>
       <use x="127.246094" xlink:href="#DejaVuSans-68"/>
      </g>
     </g>
    </g>
    <g id="xtick_13">
     <g id="line2d_13">
      <defs>
       <path d="M 0 0 
L 0 2 
" id="me86a0bbef2" style="stroke:#000000;stroke-width:0.6;"/>
      </defs>
      <g>
       <use style="stroke:#000000;stroke-width:0.6;" x="68.88045" xlink:href="#me86a0bbef2" y="288.430125"/>
      </g>
     </g>
    </g>
    <g id="xtick_14">
     <g id="line2d_14">
      <g>
       <use style="stroke:#000000;stroke-width:0.6;" x="200.455797" xlink:href="#me86a0bbef2" y="288.430125"/>
      </g>
     </g>
    </g>
    <g id="xtick_15">
     <g id="line2d_15">
      <g>
       <use style="stroke:#000000;stroke-width:0.6;" x="258.678816" xlink:href="#me86a0bbef2" y="288.430125"/>
      </g>
     </g>
    </g>
    <g id="xtick_16">
     <g id="line2d_16">
      <g>
       <use style="stroke:#000000;stroke-width:0.6;" x="299.988705" xlink:href="#me86a0bbef2" y="288.430125"/>
      </g>
     </g>
    </g>
    <g id="xtick_17">
     <g id="line2d_17">
      <g>
       <use style="stroke:#000000;stroke-width:0.6;" x="332.031144" xlink:href="#me86a0bbef2" y="288.430125"/>
      </g>
     </g>
    </g>
    <g id="xtick_18">
     <g id="line2d_18">
      <g>
       <use style="stroke:#000000;stroke-width:0.6;" x="358.211724" xlink:href="#me86a0bbef2" y="288.430125"/>
      </g>
     </g>
    </g>
    <g id="xtick_19">
     <g id="line2d_19">
      <g>
       <use style="stroke:#000000;stroke-width:0.6;" x="380.347088" xlink:href="#me86a0bbef2" y="288.430125"/>
      </g>
     </g>
    </g>
    <g id="xtick_20">
     <g id="line2d_20">
      <g>
       <use style="stroke:#000000;stroke-width:0.6;" x="399.521613" xlink:href="#me86a0bbef2" y="288.430125"/>
      </g>
     </g>
    </g>
    <g id="xtick_21">
     <g id="line2d_21">
      <g>
       <use style="stroke:#000000;stroke-width:0.6;" x="416.434742" xlink:href="#me86a0bbef2" y="288.430125"/>
      </g>
     </g>
    </g>
    <g id="xtick_22">
     <g id="line2d_22">
      <g>
       <use style="stroke:#000000;stroke-width:0.6;" x="531.09696" xlink:href="#me86a0bbef2" y="288.430125"/>
      </g>
     </g>
    </g>
    <g id="xtick_23">
     <g id="line2d_23">
      <g>
       <use style="stroke:#000000;stroke-width:0.6;" x="589.319979" xlink:href="#me86a0bbef2" y="288.430125"/>
      </g>
     </g>
    </g>
    <g id="xtick_24">
     <g id="line2d_24">
      <g>
       <use style="stroke:#000000;stroke-width:0.6;" x="630.629868" xlink:href="#me86a0bbef2" y="288.430125"/>
      </g>
     </g>
    </g>
    <g id="xtick_25">
     <g id="line2d_25">
      <g>
       <use style="stroke:#000000;stroke-width:0.6;" x="662.672307" xlink:href="#me86a0bbef2" y="288.430125"/>
      </g>
     </g>
    </g>
    <g id="xtick_26">
     <g id="line2d_26">
      <g>
       <use style="stroke:#000000;stroke-width:0.6;" x="688.852887" xlink:href="#me86a0bbef2" y="288.430125"/>
      </g>
     </g>
    </g>
    <g id="xtick_27">
     <g id="line2d_27">
      <g>
       <use style="stroke:#000000;stroke-width:0.6;" x="710.988251" xlink:href="#me86a0bbef2" y="288.430125"/>
      </g>
     </g>
    </g>
    <g id="xtick_28">
     <g id="line2d_28">
      <g>
       <use style="stroke:#000000;stroke-width:0.6;" x="730.162776" xlink:href="#me86a0bbef2" y="288.430125"/>
      </g>
     </g>
    </g>
    <g id="xtick_29">
     <g id="line2d_29">
      <g>
       <use style="stroke:#000000;stroke-width:0.6;" x="747.075905" xlink:href="#me86a0bbef2" y="288.430125"/>
      </g>
     </g>
    </g>
    <g id="text_13">
     <!-- Time (hour:minute) -->
     <g transform="translate(362.041094 316.706687)scale(0.1 -0.1)">
      <defs>
       <path d="M -19 4666 
L 3928 4666 
L 3928 4134 
L 2272 4134 
L 2272 0 
L 1638 0 
L 1638 4134 
L -19 4134 
L -19 4666 
z
" id="DejaVuSans-54" transform="scale(0.015625)"/>
       <path d="M 603 3500 
L 1178 3500 
L 1178 0 
L 603 0 
L 603 3500 
z
M 603 4863 
L 1178 4863 
L 1178 4134 
L 603 4134 
L 603 4863 
z
" id="DejaVuSans-69" transform="scale(0.015625)"/>
       <path d="M 3597 1894 
L 3597 1613 
L 953 1613 
Q 991 1019 1311 708 
Q 1631 397 2203 397 
Q 2534 397 2845 478 
Q 3156 559 3463 722 
L 3463 178 
Q 3153 47 2828 -22 
Q 2503 -91 2169 -91 
Q 1331 -91 842 396 
Q 353 884 353 1716 
Q 353 2575 817 3079 
Q 1281 3584 2069 3584 
Q 2775 3584 3186 3129 
Q 3597 2675 3597 1894 
z
M 3022 2063 
Q 3016 2534 2758 2815 
Q 2500 3097 2075 3097 
Q 1594 3097 1305 2825 
Q 1016 2553 972 2059 
L 3022 2063 
z
" id="DejaVuSans-65" transform="scale(0.015625)"/>
       <path id="DejaVuSans-20" transform="scale(0.015625)"/>
       <path d="M 1984 4856 
Q 1566 4138 1362 3434 
Q 1159 2731 1159 2009 
Q 1159 1288 1364 580 
Q 1569 -128 1984 -844 
L 1484 -844 
Q 1016 -109 783 600 
Q 550 1309 550 2009 
Q 550 2706 781 3412 
Q 1013 4119 1484 4856 
L 1984 4856 
z
" id="DejaVuSans-28" transform="scale(0.015625)"/>
       <path d="M 1959 3097 
Q 1497 3097 1228 2736 
Q 959 2375 959 1747 
Q 959 1119 1226 758 
Q 1494 397 1959 397 
Q 2419 397 2687 759 
Q 2956 1122 2956 1747 
Q 2956 2369 2687 2733 
Q 2419 3097 1959 3097 
z
M 1959 3584 
Q 2709 3584 3137 3096 
Q 3566 2609 3566 1747 
Q 3566 888 3137 398 
Q 2709 -91 1959 -91 
Q 1206 -91 779 398 
Q 353 888 353 1747 
Q 353 2609 779 3096 
Q 1206 3584 1959 3584 
z
" id="DejaVuSans-6f" transform="scale(0.015625)"/>
       <path d="M 544 1381 
L 544 3500 
L 1119 3500 
L 1119 1403 
Q 1119 906 1312 657 
Q 1506 409 1894 409 
Q 2359 409 2629 706 
Q 2900 1003 2900 1516 
L 2900 3500 
L 3475 3500 
L 3475 0 
L 2900 0 
L 2900 538 
Q 2691 219 2414 64 
Q 2138 -91 1772 -91 
Q 1169 -91 856 284 
Q 544 659 544 1381 
z
M 1991 3584 
L 1991 3584 
z
" id="DejaVuSans-75" transform="scale(0.015625)"/>
       <path d="M 2631 2963 
Q 2534 3019 2420 3045 
Q 2306 3072 2169 3072 
Q 1681 3072 1420 2755 
Q 1159 2438 1159 1844 
L 1159 0 
L 581 0 
L 581 3500 
L 1159 3500 
L 1159 2956 
Q 1341 3275 1631 3429 
Q 1922 3584 2338 3584 
Q 2397 3584 2469 3576 
Q 2541 3569 2628 3553 
L 2631 2963 
z
" id="DejaVuSans-72" transform="scale(0.015625)"/>
       <path d="M 3513 2113 
L 3513 0 
L 2938 0 
L 2938 2094 
Q 2938 2591 2744 2837 
Q 2550 3084 2163 3084 
Q 1697 3084 1428 2787 
Q 1159 2491 1159 1978 
L 1159 0 
L 581 0 
L 581 3500 
L 1159 3500 
L 1159 2956 
Q 1366 3272 1645 3428 
Q 1925 3584 2291 3584 
Q 2894 3584 3203 3211 
Q 3513 2838 3513 2113 
z
" id="DejaVuSans-6e" transform="scale(0.015625)"/>
       <path d="M 1172 4494 
L 1172 3500 
L 2356 3500 
L 2356 3053 
L 1172 3053 
L 1172 1153 
Q 1172 725 1289 603 
Q 1406 481 1766 481 
L 2356 481 
L 2356 0 
L 1766 0 
Q 1100 0 847 248 
Q 594 497 594 1153 
L 594 3053 
L 172 3053 
L 172 3500 
L 594 3500 
L 594 4494 
L 1172 4494 
z
" id="DejaVuSans-74" transform="scale(0.015625)"/>
       <path d="M 513 4856 
L 1013 4856 
Q 1481 4119 1714 3412 
Q 1947 2706 1947 2009 
Q 1947 1309 1714 600 
Q 1481 -109 1013 -844 
L 513 -844 
Q 928 -128 1133 580 
Q 1338 1288 1338 2009 
Q 1338 2731 1133 3434 
Q 928 4138 513 4856 
z
" id="DejaVuSans-29" transform="scale(0.015625)"/>
      </defs>
      <use xlink:href="#DejaVuSans-54"/>
      <use x="57.958984" xlink:href="#DejaVuSans-69"/>
      <use x="85.742188" xlink:href="#DejaVuSans-6d"/>
      <use x="183.154297" xlink:href="#DejaVuSans-65"/>
      <use x="244.677734" xlink:href="#DejaVuSans-20"/>
      <use x="276.464844" xlink:href="#DejaVuSans-28"/>
      <use x="315.478516" xlink:href="#DejaVuSans-68"/>
      <use x="378.857422" xlink:href="#DejaVuSans-6f"/>
      <use x="440.039062" xlink:href="#DejaVuSans-75"/>
      <use x="503.417969" xlink:href="#DejaVuSans-72"/>
      <use x="542.78125" xlink:href="#DejaVuSans-3a"/>
      <use x="576.472656" xlink:href="#DejaVuSans-6d"/>
      <use x="673.884766" xlink:href="#DejaVuSans-69"/>
      <use x="701.667969" xlink:href="#DejaVuSans-6e"/>
      <use x="765.046875" xlink:href="#DejaVuSans-75"/>
      <use x="828.425781" xlink:href="#DejaVuSans-74"/>
      <use x="867.634766" xlink:href="#DejaVuSans-65"/>
      <use x="929.158203" xlink:href="#DejaVuSans-29"/>
     </g>
    </g>
   </g>
   <g id="matplotlib.axis_2">
    <g id="ytick_1">
     <g id="line2d_30">
      <defs>
       <path d="M 0 0 
L -3.5 0 
" id="mac228b2fc0" style="stroke:#000000;stroke-width:0.8;"/>
      </defs>
      <g>
       <use style="stroke:#000000;stroke-width:0.8;" x="53.328125" xlink:href="#mac228b2fc0" y="267.959239"/>
      </g>
     </g>
     <g id="text_14">
      <!-- 6900 -->
      <g transform="translate(20.878125 271.758458)scale(0.1 -0.1)">
       <defs>
        <path d="M 703 97 
L 703 672 
Q 941 559 1184 500 
Q 1428 441 1663 441 
Q 2288 441 2617 861 
Q 2947 1281 2994 2138 
Q 2813 1869 2534 1725 
Q 2256 1581 1919 1581 
Q 1219 1581 811 2004 
Q 403 2428 403 3163 
Q 403 3881 828 4315 
Q 1253 4750 1959 4750 
Q 2769 4750 3195 4129 
Q 3622 3509 3622 2328 
Q 3622 1225 3098 567 
Q 2575 -91 1691 -91 
Q 1453 -91 1209 -44 
Q 966 3 703 97 
z
M 1959 2075 
Q 2384 2075 2632 2365 
Q 2881 2656 2881 3163 
Q 2881 3666 2632 3958 
Q 2384 4250 1959 4250 
Q 1534 4250 1286 3958 
Q 1038 3666 1038 3163 
Q 1038 2656 1286 2365 
Q 1534 2075 1959 2075 
z
" id="DejaVuSans-39" transform="scale(0.015625)"/>
       </defs>
       <use xlink:href="#DejaVuSans-36"/>
       <use x="63.623047" xlink:href="#DejaVuSans-39"/>
       <use x="127.246094" xlink:href="#DejaVuSans-30"/>
       <use x="190.869141" xlink:href="#DejaVuSans-30"/>
      </g>
     </g>
    </g>
    <g id="ytick_2">
     <g id="line2d_31">
      <g>
       <use style="stroke:#000000;stroke-width:0.8;" x="53.328125" xlink:href="#mac228b2fc0" y="229.891576"/>
      </g>
     </g>
     <g id="text_15">
      <!-- 7000 -->
      <g transform="translate(20.878125 233.690795)scale(0.1 -0.1)">
       <use xlink:href="#DejaVuSans-37"/>
       <use x="63.623047" xlink:href="#DejaVuSans-30"/>
       <use x="127.246094" xlink:href="#DejaVuSans-30"/>
       <use x="190.869141" xlink:href="#DejaVuSans-30"/>
      </g>
     </g>
    </g>
    <g id="ytick_3">
     <g id="line2d_32">
      <g>
       <use style="stroke:#000000;stroke-width:0.8;" x="53.328125" xlink:href="#mac228b2fc0" y="191.823913"/>
      </g>
     </g>
     <g id="text_16">
      <!-- 7100 -->
      <g transform="translate(20.878125 195.623131)scale(0.1 -0.1)">
       <use xlink:href="#DejaVuSans-37"/>
       <use x="63.623047" xlink:href="#DejaVuSans-31"/>
       <use x="127.246094" xlink:href="#DejaVuSans-30"/>
       <use x="190.869141" xlink:href="#DejaVuSans-30"/>
      </g>
     </g>
    </g>
    <g id="ytick_4">
     <g id="line2d_33">
      <g>
       <use style="stroke:#000000;stroke-width:0.8;" x="53.328125" xlink:href="#mac228b2fc0" y="153.756249"/>
      </g>
     </g>
     <g id="text_17">
      <!-- 7200 -->
      <g transform="translate(20.878125 157.555468)scale(0.1 -0.1)">
       <use xlink:href="#DejaVuSans-37"/>
       <use x="63.623047" xlink:href="#DejaVuSans-32"/>
       <use x="127.246094" xlink:href="#DejaVuSans-30"/>
       <use x="190.869141" xlink:href="#DejaVuSans-30"/>
      </g>
     </g>
    </g>
    <g id="ytick_5">
     <g id="line2d_34">
      <g>
       <use style="stroke:#000000;stroke-width:0.8;" x="53.328125" xlink:href="#mac228b2fc0" y="115.688586"/>
      </g>
     </g>
     <g id="text_18">
      <!-- 7300 -->
      <g transform="translate(20.878125 119.487805)scale(0.1 -0.1)">
       <use xlink:href="#DejaVuSans-37"/>
       <use x="63.623047" xlink:href="#DejaVuSans-33"/>
       <use x="127.246094" xlink:href="#DejaVuSans-30"/>
       <use x="190.869141" xlink:href="#DejaVuSans-30"/>
      </g>
     </g>
    </g>
    <g id="ytick_6">
     <g id="line2d_35">
      <g>
       <use style="stroke:#000000;stroke-width:0.8;" x="53.328125" xlink:href="#mac228b2fc0" y="77.620923"/>
      </g>
     </g>
     <g id="text_19">
      <!-- 7400 -->
      <g transform="translate(20.878125 81.420142)scale(0.1 -0.1)">
       <use xlink:href="#DejaVuSans-37"/>
       <use x="63.623047" xlink:href="#DejaVuSans-34"/>
       <use x="127.246094" xlink:href="#DejaVuSans-30"/>
       <use x="190.869141" xlink:href="#DejaVuSans-30"/>
      </g>
     </g>
    </g>
    <g id="ytick_7">
     <g id="line2d_36">
      <g>
       <use style="stroke:#000000;stroke-width:0.8;" x="53.328125" xlink:href="#mac228b2fc0" y="39.55326"/>
      </g>
     </g>
     <g id="text_20">
      <!-- 7500 -->
      <g transform="translate(20.878125 43.352478)scale(0.1 -0.1)">
       <use xlink:href="#DejaVuSans-37"/>
       <use x="63.623047" xlink:href="#DejaVuSans-35"/>
       <use x="127.246094" xlink:href="#DejaVuSans-30"/>
       <use x="190.869141" xlink:href="#DejaVuSans-30"/>
      </g>
     </g>
    </g>
    <g id="text_21">
     <!-- Code branch coverage -->
     <g transform="translate(14.798438 211.949125)rotate(-90)scale(0.1 -0.1)">
      <defs>
       <path d="M 4122 4306 
L 4122 3641 
Q 3803 3938 3442 4084 
Q 3081 4231 2675 4231 
Q 1875 4231 1450 3742 
Q 1025 3253 1025 2328 
Q 1025 1406 1450 917 
Q 1875 428 2675 428 
Q 3081 428 3442 575 
Q 3803 722 4122 1019 
L 4122 359 
Q 3791 134 3420 21 
Q 3050 -91 2638 -91 
Q 1578 -91 968 557 
Q 359 1206 359 2328 
Q 359 3453 968 4101 
Q 1578 4750 2638 4750 
Q 3056 4750 3426 4639 
Q 3797 4528 4122 4306 
z
" id="DejaVuSans-43" transform="scale(0.015625)"/>
       <path d="M 2906 2969 
L 2906 4863 
L 3481 4863 
L 3481 0 
L 2906 0 
L 2906 525 
Q 2725 213 2448 61 
Q 2172 -91 1784 -91 
Q 1150 -91 751 415 
Q 353 922 353 1747 
Q 353 2572 751 3078 
Q 1150 3584 1784 3584 
Q 2172 3584 2448 3432 
Q 2725 3281 2906 2969 
z
M 947 1747 
Q 947 1113 1208 752 
Q 1469 391 1925 391 
Q 2381 391 2643 752 
Q 2906 1113 2906 1747 
Q 2906 2381 2643 2742 
Q 2381 3103 1925 3103 
Q 1469 3103 1208 2742 
Q 947 2381 947 1747 
z
" id="DejaVuSans-64" transform="scale(0.015625)"/>
       <path d="M 3116 1747 
Q 3116 2381 2855 2742 
Q 2594 3103 2138 3103 
Q 1681 3103 1420 2742 
Q 1159 2381 1159 1747 
Q 1159 1113 1420 752 
Q 1681 391 2138 391 
Q 2594 391 2855 752 
Q 3116 1113 3116 1747 
z
M 1159 2969 
Q 1341 3281 1617 3432 
Q 1894 3584 2278 3584 
Q 2916 3584 3314 3078 
Q 3713 2572 3713 1747 
Q 3713 922 3314 415 
Q 2916 -91 2278 -91 
Q 1894 -91 1617 61 
Q 1341 213 1159 525 
L 1159 0 
L 581 0 
L 581 4863 
L 1159 4863 
L 1159 2969 
z
" id="DejaVuSans-62" transform="scale(0.015625)"/>
       <path d="M 2194 1759 
Q 1497 1759 1228 1600 
Q 959 1441 959 1056 
Q 959 750 1161 570 
Q 1363 391 1709 391 
Q 2188 391 2477 730 
Q 2766 1069 2766 1631 
L 2766 1759 
L 2194 1759 
z
M 3341 1997 
L 3341 0 
L 2766 0 
L 2766 531 
Q 2569 213 2275 61 
Q 1981 -91 1556 -91 
Q 1019 -91 701 211 
Q 384 513 384 1019 
Q 384 1609 779 1909 
Q 1175 2209 1959 2209 
L 2766 2209 
L 2766 2266 
Q 2766 2663 2505 2880 
Q 2244 3097 1772 3097 
Q 1472 3097 1187 3025 
Q 903 2953 641 2809 
L 641 3341 
Q 956 3463 1253 3523 
Q 1550 3584 1831 3584 
Q 2591 3584 2966 3190 
Q 3341 2797 3341 1997 
z
" id="DejaVuSans-61" transform="scale(0.015625)"/>
       <path d="M 3122 3366 
L 3122 2828 
Q 2878 2963 2633 3030 
Q 2388 3097 2138 3097 
Q 1578 3097 1268 2742 
Q 959 2388 959 1747 
Q 959 1106 1268 751 
Q 1578 397 2138 397 
Q 2388 397 2633 464 
Q 2878 531 3122 666 
L 3122 134 
Q 2881 22 2623 -34 
Q 2366 -91 2075 -91 
Q 1284 -91 818 406 
Q 353 903 353 1747 
Q 353 2603 823 3093 
Q 1294 3584 2113 3584 
Q 2378 3584 2631 3529 
Q 2884 3475 3122 3366 
z
" id="DejaVuSans-63" transform="scale(0.015625)"/>
       <path d="M 191 3500 
L 800 3500 
L 1894 563 
L 2988 3500 
L 3597 3500 
L 2284 0 
L 1503 0 
L 191 3500 
z
" id="DejaVuSans-76" transform="scale(0.015625)"/>
       <path d="M 2906 1791 
Q 2906 2416 2648 2759 
Q 2391 3103 1925 3103 
Q 1463 3103 1205 2759 
Q 947 2416 947 1791 
Q 947 1169 1205 825 
Q 1463 481 1925 481 
Q 2391 481 2648 825 
Q 2906 1169 2906 1791 
z
M 3481 434 
Q 3481 -459 3084 -895 
Q 2688 -1331 1869 -1331 
Q 1566 -1331 1297 -1286 
Q 1028 -1241 775 -1147 
L 775 -588 
Q 1028 -725 1275 -790 
Q 1522 -856 1778 -856 
Q 2344 -856 2625 -561 
Q 2906 -266 2906 331 
L 2906 616 
Q 2728 306 2450 153 
Q 2172 0 1784 0 
Q 1141 0 747 490 
Q 353 981 353 1791 
Q 353 2603 747 3093 
Q 1141 3584 1784 3584 
Q 2172 3584 2450 3431 
Q 2728 3278 2906 2969 
L 2906 3500 
L 3481 3500 
L 3481 434 
z
" id="DejaVuSans-67" transform="scale(0.015625)"/>
      </defs>
      <use xlink:href="#DejaVuSans-43"/>
      <use x="69.824219" xlink:href="#DejaVuSans-6f"/>
      <use x="131.005859" xlink:href="#DejaVuSans-64"/>
      <use x="194.482422" xlink:href="#DejaVuSans-65"/>
      <use x="256.005859" xlink:href="#DejaVuSans-20"/>
      <use x="287.792969" xlink:href="#DejaVuSans-62"/>
      <use x="351.269531" xlink:href="#DejaVuSans-72"/>
      <use x="392.382812" xlink:href="#DejaVuSans-61"/>
      <use x="453.662109" xlink:href="#DejaVuSans-6e"/>
      <use x="517.041016" xlink:href="#DejaVuSans-63"/>
      <use x="572.021484" xlink:href="#DejaVuSans-68"/>
      <use x="635.400391" xlink:href="#DejaVuSans-20"/>
      <use x="667.1875" xlink:href="#DejaVuSans-63"/>
      <use x="722.167969" xlink:href="#DejaVuSans-6f"/>
      <use x="783.349609" xlink:href="#DejaVuSans-76"/>
      <use x="842.529297" xlink:href="#DejaVuSans-65"/>
      <use x="904.052734" xlink:href="#DejaVuSans-72"/>
      <use x="945.166016" xlink:href="#DejaVuSans-61"/>
      <use x="1006.445312" xlink:href="#DejaVuSans-67"/>
      <use x="1069.921875" xlink:href="#DejaVuSans-65"/>
     </g>
    </g>
   </g>
   <g id="line2d_37">
    <path clip-path="url(#p3e202576ed)" d="M 85.79358 259.774691 
L 185.326487 224.562103 
L 243.549506 204.195903 
L 284.859395 183.449027 
L 316.901835 178.50023 
L 343.082414 171.648051 
L 365.217778 165.937902 
L 384.392303 162.131135 
L 401.305433 159.847075 
L 416.434742 157.753354 
L 430.120868 151.852866 
L 442.615322 149.568806 
L 454.109105 146.90407 
L 464.750686 145.191025 
L 474.657761 144.62001 
L 483.925211 137.006477 
L 492.630642 131.867343 
L 500.83834 125.015164 
L 508.602157 121.208397 
L 515.96765 120.637382 
L 522.973705 118.924337 
L 529.653776 118.353322 
L 536.036855 117.211293 
L 542.14823 115.307909 
L 548.01009 115.117571 
L 553.642013 115.117571 
L 559.061359 113.975541 
L 564.283594 112.643173 
L 569.322554 110.930128 
L 574.190669 109.217083 
L 578.899144 108.836407 
L 583.458119 108.836407 
L 587.876794 108.836407 
L 592.16355 108.646068 
L 596.326033 108.646068 
L 600.371248 107.884715 
L 604.305621 107.504038 
L 608.135065 106.552347 
L 611.865031 105.02964 
L 615.500558 101.984227 
L 619.046309 101.032536 
L 622.506613 101.032536 
L 625.885489 100.842197 
L 629.186684 100.080844 
L 632.413688 98.938814 
L 635.569763 98.938814 
L 638.65796 97.606446 
L 641.681137 97.035431 
L 644.641977 96.464416 
L 647.542997 96.464416 
L 650.386568 96.464416 
L 653.174921 95.893401 
L 655.910158 95.703063 
L 658.594267 95.512725 
L 661.229123 94.751371 
L 663.816502 93.419003 
L 666.358084 93.228665 
L 668.855462 93.228665 
L 671.310148 93.228665 
L 673.723577 92.65765 
L 676.097112 92.65765 
L 678.432052 92.086635 
L 680.729631 90.563928 
L 682.991027 89.802575 
L 685.21736 89.802575 
L 687.409702 89.802575 
L 689.569076 89.802575 
L 691.696457 89.802575 
L 693.792781 88.660545 
L 695.858941 86.9475 
L 697.895793 86.9475 
L 699.904156 86.9475 
L 701.884817 86.9475 
L 703.838529 86.9475 
L 705.766016 86.9475 
L 707.667973 85.80547 
L 709.545067 85.80547 
L 711.397939 85.615132 
L 713.227208 85.615132 
L 715.033466 85.615132 
L 716.817286 85.424794 
L 718.579217 85.424794 
L 720.319792 84.66344 
L 722.03952 84.473102 
L 723.738897 84.473102 
L 725.418397 84.473102 
L 727.078481 84.473102 
L 728.719591 84.473102 
L 730.342158 84.473102 
L 731.946595 84.473102 
L 733.533304 84.473102 
L 735.10267 83.140734 
" style="fill:none;stroke:#1f77b4;stroke-linecap:square;stroke-width:1.5;"/>
    <defs>
     <path d="M 0 3 
C 0.795609 3 1.55874 2.683901 2.12132 2.12132 
C 2.683901 1.55874 3 0.795609 3 0 
C 3 -0.795609 2.683901 -1.55874 2.12132 -2.12132 
C 1.55874 -2.683901 0.795609 -3 0 -3 
C -0.795609 -3 -1.55874 -2.683901 -2.12132 -2.12132 
C -2.683901 -1.55874 -3 -0.795609 -3 0 
C -3 0.795609 -2.683901 1.55874 -2.12132 2.12132 
C -1.55874 2.683901 -0.795609 3 0 3 
z
" id="m8806d50765" style="stroke:#ffffff;stroke-width:0.75;"/>
    </defs>
    <g clip-path="url(#p3e202576ed)">
     <use style="fill:#1f77b4;stroke:#ffffff;stroke-width:0.75;" x="85.79358" xlink:href="#m8806d50765" y="259.774691"/>
     <use style="fill:#1f77b4;stroke:#ffffff;stroke-width:0.75;" x="185.326487" xlink:href="#m8806d50765" y="224.562103"/>
     <use style="fill:#1f77b4;stroke:#ffffff;stroke-width:0.75;" x="243.549506" xlink:href="#m8806d50765" y="204.195903"/>
     <use style="fill:#1f77b4;stroke:#ffffff;stroke-width:0.75;" x="284.859395" xlink:href="#m8806d50765" y="183.449027"/>
     <use style="fill:#1f77b4;stroke:#ffffff;stroke-width:0.75;" x="316.901835" xlink:href="#m8806d50765" y="178.50023"/>
     <use style="fill:#1f77b4;stroke:#ffffff;stroke-width:0.75;" x="343.082414" xlink:href="#m8806d50765" y="171.648051"/>
     <use style="fill:#1f77b4;stroke:#ffffff;stroke-width:0.75;" x="365.217778" xlink:href="#m8806d50765" y="165.937902"/>
     <use style="fill:#1f77b4;stroke:#ffffff;stroke-width:0.75;" x="384.392303" xlink:href="#m8806d50765" y="162.131135"/>
     <use style="fill:#1f77b4;stroke:#ffffff;stroke-width:0.75;" x="401.305433" xlink:href="#m8806d50765" y="159.847075"/>
     <use style="fill:#1f77b4;stroke:#ffffff;stroke-width:0.75;" x="416.434742" xlink:href="#m8806d50765" y="157.753354"/>
     <use style="fill:#1f77b4;stroke:#ffffff;stroke-width:0.75;" x="430.120868" xlink:href="#m8806d50765" y="151.852866"/>
     <use style="fill:#1f77b4;stroke:#ffffff;stroke-width:0.75;" x="442.615322" xlink:href="#m8806d50765" y="149.568806"/>
     <use style="fill:#1f77b4;stroke:#ffffff;stroke-width:0.75;" x="454.109105" xlink:href="#m8806d50765" y="146.90407"/>
     <use style="fill:#1f77b4;stroke:#ffffff;stroke-width:0.75;" x="464.750686" xlink:href="#m8806d50765" y="145.191025"/>
     <use style="fill:#1f77b4;stroke:#ffffff;stroke-width:0.75;" x="474.657761" xlink:href="#m8806d50765" y="144.62001"/>
     <use style="fill:#1f77b4;stroke:#ffffff;stroke-width:0.75;" x="483.925211" xlink:href="#m8806d50765" y="137.006477"/>
     <use style="fill:#1f77b4;stroke:#ffffff;stroke-width:0.75;" x="492.630642" xlink:href="#m8806d50765" y="131.867343"/>
     <use style="fill:#1f77b4;stroke:#ffffff;stroke-width:0.75;" x="500.83834" xlink:href="#m8806d50765" y="125.015164"/>
     <use style="fill:#1f77b4;stroke:#ffffff;stroke-width:0.75;" x="508.602157" xlink:href="#m8806d50765" y="121.208397"/>
     <use style="fill:#1f77b4;stroke:#ffffff;stroke-width:0.75;" x="515.96765" xlink:href="#m8806d50765" y="120.637382"/>
     <use style="fill:#1f77b4;stroke:#ffffff;stroke-width:0.75;" x="522.973705" xlink:href="#m8806d50765" y="118.924337"/>
     <use style="fill:#1f77b4;stroke:#ffffff;stroke-width:0.75;" x="529.653776" xlink:href="#m8806d50765" y="118.353322"/>
     <use style="fill:#1f77b4;stroke:#ffffff;stroke-width:0.75;" x="536.036855" xlink:href="#m8806d50765" y="117.211293"/>
     <use style="fill:#1f77b4;stroke:#ffffff;stroke-width:0.75;" x="542.14823" xlink:href="#m8806d50765" y="115.307909"/>
     <use style="fill:#1f77b4;stroke:#ffffff;stroke-width:0.75;" x="548.01009" xlink:href="#m8806d50765" y="115.117571"/>
     <use style="fill:#1f77b4;stroke:#ffffff;stroke-width:0.75;" x="553.642013" xlink:href="#m8806d50765" y="115.117571"/>
     <use style="fill:#1f77b4;stroke:#ffffff;stroke-width:0.75;" x="559.061359" xlink:href="#m8806d50765" y="113.975541"/>
     <use style="fill:#1f77b4;stroke:#ffffff;stroke-width:0.75;" x="564.283594" xlink:href="#m8806d50765" y="112.643173"/>
     <use style="fill:#1f77b4;stroke:#ffffff;stroke-width:0.75;" x="569.322554" xlink:href="#m8806d50765" y="110.930128"/>
     <use style="fill:#1f77b4;stroke:#ffffff;stroke-width:0.75;" x="574.190669" xlink:href="#m8806d50765" y="109.217083"/>
     <use style="fill:#1f77b4;stroke:#ffffff;stroke-width:0.75;" x="578.899144" xlink:href="#m8806d50765" y="108.836407"/>
     <use style="fill:#1f77b4;stroke:#ffffff;stroke-width:0.75;" x="583.458119" xlink:href="#m8806d50765" y="108.836407"/>
     <use style="fill:#1f77b4;stroke:#ffffff;stroke-width:0.75;" x="587.876794" xlink:href="#m8806d50765" y="108.836407"/>
     <use style="fill:#1f77b4;stroke:#ffffff;stroke-width:0.75;" x="592.16355" xlink:href="#m8806d50765" y="108.646068"/>
     <use style="fill:#1f77b4;stroke:#ffffff;stroke-width:0.75;" x="596.326033" xlink:href="#m8806d50765" y="108.646068"/>
     <use style="fill:#1f77b4;stroke:#ffffff;stroke-width:0.75;" x="600.371248" xlink:href="#m8806d50765" y="107.884715"/>
     <use style="fill:#1f77b4;stroke:#ffffff;stroke-width:0.75;" x="604.305621" xlink:href="#m8806d50765" y="107.504038"/>
     <use style="fill:#1f77b4;stroke:#ffffff;stroke-width:0.75;" x="608.135065" xlink:href="#m8806d50765" y="106.552347"/>
     <use style="fill:#1f77b4;stroke:#ffffff;stroke-width:0.75;" x="611.865031" xlink:href="#m8806d50765" y="105.02964"/>
     <use style="fill:#1f77b4;stroke:#ffffff;stroke-width:0.75;" x="615.500558" xlink:href="#m8806d50765" y="101.984227"/>
     <use style="fill:#1f77b4;stroke:#ffffff;stroke-width:0.75;" x="619.046309" xlink:href="#m8806d50765" y="101.032536"/>
     <use style="fill:#1f77b4;stroke:#ffffff;stroke-width:0.75;" x="622.506613" xlink:href="#m8806d50765" y="101.032536"/>
     <use style="fill:#1f77b4;stroke:#ffffff;stroke-width:0.75;" x="625.885489" xlink:href="#m8806d50765" y="100.842197"/>
     <use style="fill:#1f77b4;stroke:#ffffff;stroke-width:0.75;" x="629.186684" xlink:href="#m8806d50765" y="100.080844"/>
     <use style="fill:#1f77b4;stroke:#ffffff;stroke-width:0.75;" x="632.413688" xlink:href="#m8806d50765" y="98.938814"/>
     <use style="fill:#1f77b4;stroke:#ffffff;stroke-width:0.75;" x="635.569763" xlink:href="#m8806d50765" y="98.938814"/>
     <use style="fill:#1f77b4;stroke:#ffffff;stroke-width:0.75;" x="638.65796" xlink:href="#m8806d50765" y="97.606446"/>
     <use style="fill:#1f77b4;stroke:#ffffff;stroke-width:0.75;" x="641.681137" xlink:href="#m8806d50765" y="97.035431"/>
     <use style="fill:#1f77b4;stroke:#ffffff;stroke-width:0.75;" x="644.641977" xlink:href="#m8806d50765" y="96.464416"/>
     <use style="fill:#1f77b4;stroke:#ffffff;stroke-width:0.75;" x="647.542997" xlink:href="#m8806d50765" y="96.464416"/>
     <use style="fill:#1f77b4;stroke:#ffffff;stroke-width:0.75;" x="650.386568" xlink:href="#m8806d50765" y="96.464416"/>
     <use style="fill:#1f77b4;stroke:#ffffff;stroke-width:0.75;" x="653.174921" xlink:href="#m8806d50765" y="95.893401"/>
     <use style="fill:#1f77b4;stroke:#ffffff;stroke-width:0.75;" x="655.910158" xlink:href="#m8806d50765" y="95.703063"/>
     <use style="fill:#1f77b4;stroke:#ffffff;stroke-width:0.75;" x="658.594267" xlink:href="#m8806d50765" y="95.512725"/>
     <use style="fill:#1f77b4;stroke:#ffffff;stroke-width:0.75;" x="661.229123" xlink:href="#m8806d50765" y="94.751371"/>
     <use style="fill:#1f77b4;stroke:#ffffff;stroke-width:0.75;" x="663.816502" xlink:href="#m8806d50765" y="93.419003"/>
     <use style="fill:#1f77b4;stroke:#ffffff;stroke-width:0.75;" x="666.358084" xlink:href="#m8806d50765" y="93.228665"/>
     <use style="fill:#1f77b4;stroke:#ffffff;stroke-width:0.75;" x="668.855462" xlink:href="#m8806d50765" y="93.228665"/>
     <use style="fill:#1f77b4;stroke:#ffffff;stroke-width:0.75;" x="671.310148" xlink:href="#m8806d50765" y="93.228665"/>
     <use style="fill:#1f77b4;stroke:#ffffff;stroke-width:0.75;" x="673.723577" xlink:href="#m8806d50765" y="92.65765"/>
     <use style="fill:#1f77b4;stroke:#ffffff;stroke-width:0.75;" x="676.097112" xlink:href="#m8806d50765" y="92.65765"/>
     <use style="fill:#1f77b4;stroke:#ffffff;stroke-width:0.75;" x="678.432052" xlink:href="#m8806d50765" y="92.086635"/>
     <use style="fill:#1f77b4;stroke:#ffffff;stroke-width:0.75;" x="680.729631" xlink:href="#m8806d50765" y="90.563928"/>
     <use style="fill:#1f77b4;stroke:#ffffff;stroke-width:0.75;" x="682.991027" xlink:href="#m8806d50765" y="89.802575"/>
     <use style="fill:#1f77b4;stroke:#ffffff;stroke-width:0.75;" x="685.21736" xlink:href="#m8806d50765" y="89.802575"/>
     <use style="fill:#1f77b4;stroke:#ffffff;stroke-width:0.75;" x="687.409702" xlink:href="#m8806d50765" y="89.802575"/>
     <use style="fill:#1f77b4;stroke:#ffffff;stroke-width:0.75;" x="689.569076" xlink:href="#m8806d50765" y="89.802575"/>
     <use style="fill:#1f77b4;stroke:#ffffff;stroke-width:0.75;" x="691.696457" xlink:href="#m8806d50765" y="89.802575"/>
     <use style="fill:#1f77b4;stroke:#ffffff;stroke-width:0.75;" x="693.792781" xlink:href="#m8806d50765" y="88.660545"/>
     <use style="fill:#1f77b4;stroke:#ffffff;stroke-width:0.75;" x="695.858941" xlink:href="#m8806d50765" y="86.9475"/>
     <use style="fill:#1f77b4;stroke:#ffffff;stroke-width:0.75;" x="697.895793" xlink:href="#m8806d50765" y="86.9475"/>
     <use style="fill:#1f77b4;stroke:#ffffff;stroke-width:0.75;" x="699.904156" xlink:href="#m8806d50765" y="86.9475"/>
     <use style="fill:#1f77b4;stroke:#ffffff;stroke-width:0.75;" x="701.884817" xlink:href="#m8806d50765" y="86.9475"/>
     <use style="fill:#1f77b4;stroke:#ffffff;stroke-width:0.75;" x="703.838529" xlink:href="#m8806d50765" y="86.9475"/>
     <use style="fill:#1f77b4;stroke:#ffffff;stroke-width:0.75;" x="705.766016" xlink:href="#m8806d50765" y="86.9475"/>
     <use style="fill:#1f77b4;stroke:#ffffff;stroke-width:0.75;" x="707.667973" xlink:href="#m8806d50765" y="85.80547"/>
     <use style="fill:#1f77b4;stroke:#ffffff;stroke-width:0.75;" x="709.545067" xlink:href="#m8806d50765" y="85.80547"/>
     <use style="fill:#1f77b4;stroke:#ffffff;stroke-width:0.75;" x="711.397939" xlink:href="#m8806d50765" y="85.615132"/>
     <use style="fill:#1f77b4;stroke:#ffffff;stroke-width:0.75;" x="713.227208" xlink:href="#m8806d50765" y="85.615132"/>
     <use style="fill:#1f77b4;stroke:#ffffff;stroke-width:0.75;" x="715.033466" xlink:href="#m8806d50765" y="85.615132"/>
     <use style="fill:#1f77b4;stroke:#ffffff;stroke-width:0.75;" x="716.817286" xlink:href="#m8806d50765" y="85.424794"/>
     <use style="fill:#1f77b4;stroke:#ffffff;stroke-width:0.75;" x="718.579217" xlink:href="#m8806d50765" y="85.424794"/>
     <use style="fill:#1f77b4;stroke:#ffffff;stroke-width:0.75;" x="720.319792" xlink:href="#m8806d50765" y="84.66344"/>
     <use style="fill:#1f77b4;stroke:#ffffff;stroke-width:0.75;" x="722.03952" xlink:href="#m8806d50765" y="84.473102"/>
     <use style="fill:#1f77b4;stroke:#ffffff;stroke-width:0.75;" x="723.738897" xlink:href="#m8806d50765" y="84.473102"/>
     <use style="fill:#1f77b4;stroke:#ffffff;stroke-width:0.75;" x="725.418397" xlink:href="#m8806d50765" y="84.473102"/>
     <use style="fill:#1f77b4;stroke:#ffffff;stroke-width:0.75;" x="727.078481" xlink:href="#m8806d50765" y="84.473102"/>
     <use style="fill:#1f77b4;stroke:#ffffff;stroke-width:0.75;" x="728.719591" xlink:href="#m8806d50765" y="84.473102"/>
     <use style="fill:#1f77b4;stroke:#ffffff;stroke-width:0.75;" x="730.342158" xlink:href="#m8806d50765" y="84.473102"/>
     <use style="fill:#1f77b4;stroke:#ffffff;stroke-width:0.75;" x="731.946595" xlink:href="#m8806d50765" y="84.473102"/>
     <use style="fill:#1f77b4;stroke:#ffffff;stroke-width:0.75;" x="733.533304" xlink:href="#m8806d50765" y="84.473102"/>
     <use style="fill:#1f77b4;stroke:#ffffff;stroke-width:0.75;" x="735.10267" xlink:href="#m8806d50765" y="83.140734"/>
    </g>
   </g>
   <g id="line2d_38">
    <path clip-path="url(#p3e202576ed)" d="M 85.79358 270.814314 
L 185.326487 220.945675 
L 243.549506 209.525376 
L 284.859395 201.721505 
L 316.901835 195.440341 
L 343.082414 188.397823 
L 365.217778 182.306997 
L 384.392303 180.022937 
L 401.305433 174.883802 
L 416.434742 164.795872 
L 430.120868 162.511812 
L 442.615322 158.895384 
L 454.109105 152.043204 
L 464.750686 147.665423 
L 474.657761 146.90407 
L 483.925211 145.381363 
L 492.630642 144.810348 
L 500.83834 144.810348 
L 508.602157 143.668319 
L 515.96765 142.526289 
L 522.973705 137.958169 
L 529.653776 137.767831 
L 536.036855 137.006477 
L 542.14823 136.054786 
L 548.01009 136.054786 
L 553.642013 134.912756 
L 559.061359 133.961064 
L 564.283594 131.677005 
L 569.322554 130.534975 
L 574.190669 125.966855 
L 578.899144 124.824825 
L 583.458119 124.25381 
L 587.876794 123.492457 
L 592.16355 122.921442 
L 596.326033 121.96975 
L 600.371248 121.589074 
L 604.305621 120.256706 
L 608.135065 116.830616 
L 611.865031 116.830616 
L 615.500558 116.259601 
L 619.046309 115.688586 
L 622.506613 115.688586 
L 625.885489 115.688586 
L 629.186684 113.594865 
L 632.413688 113.594865 
L 635.569763 112.452835 
L 638.65796 111.88182 
L 641.681137 111.88182 
L 644.641977 111.88182 
L 647.542997 110.549452 
L 650.386568 110.549452 
L 653.174921 108.45573 
L 655.910158 107.504038 
L 658.594267 107.504038 
L 661.229123 106.362009 
L 663.816502 106.362009 
L 666.358084 105.219979 
L 668.855462 105.219979 
L 671.310148 105.02964 
L 673.723577 104.268287 
L 676.097112 103.88761 
L 678.432052 103.88761 
L 680.729631 102.555242 
L 682.991027 102.555242 
L 685.21736 102.555242 
L 687.409702 102.555242 
L 689.569076 102.555242 
L 691.696457 102.555242 
L 693.792781 101.793889 
L 695.858941 100.461521 
L 697.895793 96.274078 
L 699.904156 90.183252 
L 701.884817 89.612237 
L 703.838529 89.612237 
L 705.766016 89.612237 
L 707.667973 89.612237 
L 709.545067 88.850883 
L 711.397939 87.328177 
L 713.227208 87.137839 
L 715.033466 87.137839 
L 716.817286 87.137839 
L 718.579217 87.137839 
L 720.319792 87.137839 
L 722.03952 87.137839 
L 723.738897 87.137839 
L 725.418397 87.137839 
L 727.078481 87.137839 
L 728.719591 87.137839 
L 730.342158 85.80547 
L 731.946595 85.615132 
L 733.533304 85.615132 
L 735.10267 85.424794 
" style="fill:none;stroke:#98df8a;stroke-linecap:square;stroke-width:1.5;"/>
    <defs>
     <path d="M -0 3 
L 3 -3 
L -3 -3 
z
" id="m46663c3d66" style="stroke:#ffffff;stroke-linejoin:miter;stroke-width:0.75;"/>
    </defs>
    <g clip-path="url(#p3e202576ed)">
     <use style="fill:#98df8a;stroke:#ffffff;stroke-linejoin:miter;stroke-width:0.75;" x="85.79358" xlink:href="#m46663c3d66" y="270.814314"/>
     <use style="fill:#98df8a;stroke:#ffffff;stroke-linejoin:miter;stroke-width:0.75;" x="185.326487" xlink:href="#m46663c3d66" y="220.945675"/>
     <use style="fill:#98df8a;stroke:#ffffff;stroke-linejoin:miter;stroke-width:0.75;" x="243.549506" xlink:href="#m46663c3d66" y="209.525376"/>
     <use style="fill:#98df8a;stroke:#ffffff;stroke-linejoin:miter;stroke-width:0.75;" x="284.859395" xlink:href="#m46663c3d66" y="201.721505"/>
     <use style="fill:#98df8a;stroke:#ffffff;stroke-linejoin:miter;stroke-width:0.75;" x="316.901835" xlink:href="#m46663c3d66" y="195.440341"/>
     <use style="fill:#98df8a;stroke:#ffffff;stroke-linejoin:miter;stroke-width:0.75;" x="343.082414" xlink:href="#m46663c3d66" y="188.397823"/>
     <use style="fill:#98df8a;stroke:#ffffff;stroke-linejoin:miter;stroke-width:0.75;" x="365.217778" xlink:href="#m46663c3d66" y="182.306997"/>
     <use style="fill:#98df8a;stroke:#ffffff;stroke-linejoin:miter;stroke-width:0.75;" x="384.392303" xlink:href="#m46663c3d66" y="180.022937"/>
     <use style="fill:#98df8a;stroke:#ffffff;stroke-linejoin:miter;stroke-width:0.75;" x="401.305433" xlink:href="#m46663c3d66" y="174.883802"/>
     <use style="fill:#98df8a;stroke:#ffffff;stroke-linejoin:miter;stroke-width:0.75;" x="416.434742" xlink:href="#m46663c3d66" y="164.795872"/>
     <use style="fill:#98df8a;stroke:#ffffff;stroke-linejoin:miter;stroke-width:0.75;" x="430.120868" xlink:href="#m46663c3d66" y="162.511812"/>
     <use style="fill:#98df8a;stroke:#ffffff;stroke-linejoin:miter;stroke-width:0.75;" x="442.615322" xlink:href="#m46663c3d66" y="158.895384"/>
     <use style="fill:#98df8a;stroke:#ffffff;stroke-linejoin:miter;stroke-width:0.75;" x="454.109105" xlink:href="#m46663c3d66" y="152.043204"/>
     <use style="fill:#98df8a;stroke:#ffffff;stroke-linejoin:miter;stroke-width:0.75;" x="464.750686" xlink:href="#m46663c3d66" y="147.665423"/>
     <use style="fill:#98df8a;stroke:#ffffff;stroke-linejoin:miter;stroke-width:0.75;" x="474.657761" xlink:href="#m46663c3d66" y="146.90407"/>
     <use style="fill:#98df8a;stroke:#ffffff;stroke-linejoin:miter;stroke-width:0.75;" x="483.925211" xlink:href="#m46663c3d66" y="145.381363"/>
     <use style="fill:#98df8a;stroke:#ffffff;stroke-linejoin:miter;stroke-width:0.75;" x="492.630642" xlink:href="#m46663c3d66" y="144.810348"/>
     <use style="fill:#98df8a;stroke:#ffffff;stroke-linejoin:miter;stroke-width:0.75;" x="500.83834" xlink:href="#m46663c3d66" y="144.810348"/>
     <use style="fill:#98df8a;stroke:#ffffff;stroke-linejoin:miter;stroke-width:0.75;" x="508.602157" xlink:href="#m46663c3d66" y="143.668319"/>
     <use style="fill:#98df8a;stroke:#ffffff;stroke-linejoin:miter;stroke-width:0.75;" x="515.96765" xlink:href="#m46663c3d66" y="142.526289"/>
     <use style="fill:#98df8a;stroke:#ffffff;stroke-linejoin:miter;stroke-width:0.75;" x="522.973705" xlink:href="#m46663c3d66" y="137.958169"/>
     <use style="fill:#98df8a;stroke:#ffffff;stroke-linejoin:miter;stroke-width:0.75;" x="529.653776" xlink:href="#m46663c3d66" y="137.767831"/>
     <use style="fill:#98df8a;stroke:#ffffff;stroke-linejoin:miter;stroke-width:0.75;" x="536.036855" xlink:href="#m46663c3d66" y="137.006477"/>
     <use style="fill:#98df8a;stroke:#ffffff;stroke-linejoin:miter;stroke-width:0.75;" x="542.14823" xlink:href="#m46663c3d66" y="136.054786"/>
     <use style="fill:#98df8a;stroke:#ffffff;stroke-linejoin:miter;stroke-width:0.75;" x="548.01009" xlink:href="#m46663c3d66" y="136.054786"/>
     <use style="fill:#98df8a;stroke:#ffffff;stroke-linejoin:miter;stroke-width:0.75;" x="553.642013" xlink:href="#m46663c3d66" y="134.912756"/>
     <use style="fill:#98df8a;stroke:#ffffff;stroke-linejoin:miter;stroke-width:0.75;" x="559.061359" xlink:href="#m46663c3d66" y="133.961064"/>
     <use style="fill:#98df8a;stroke:#ffffff;stroke-linejoin:miter;stroke-width:0.75;" x="564.283594" xlink:href="#m46663c3d66" y="131.677005"/>
     <use style="fill:#98df8a;stroke:#ffffff;stroke-linejoin:miter;stroke-width:0.75;" x="569.322554" xlink:href="#m46663c3d66" y="130.534975"/>
     <use style="fill:#98df8a;stroke:#ffffff;stroke-linejoin:miter;stroke-width:0.75;" x="574.190669" xlink:href="#m46663c3d66" y="125.966855"/>
     <use style="fill:#98df8a;stroke:#ffffff;stroke-linejoin:miter;stroke-width:0.75;" x="578.899144" xlink:href="#m46663c3d66" y="124.824825"/>
     <use style="fill:#98df8a;stroke:#ffffff;stroke-linejoin:miter;stroke-width:0.75;" x="583.458119" xlink:href="#m46663c3d66" y="124.25381"/>
     <use style="fill:#98df8a;stroke:#ffffff;stroke-linejoin:miter;stroke-width:0.75;" x="587.876794" xlink:href="#m46663c3d66" y="123.492457"/>
     <use style="fill:#98df8a;stroke:#ffffff;stroke-linejoin:miter;stroke-width:0.75;" x="592.16355" xlink:href="#m46663c3d66" y="122.921442"/>
     <use style="fill:#98df8a;stroke:#ffffff;stroke-linejoin:miter;stroke-width:0.75;" x="596.326033" xlink:href="#m46663c3d66" y="121.96975"/>
     <use style="fill:#98df8a;stroke:#ffffff;stroke-linejoin:miter;stroke-width:0.75;" x="600.371248" xlink:href="#m46663c3d66" y="121.589074"/>
     <use style="fill:#98df8a;stroke:#ffffff;stroke-linejoin:miter;stroke-width:0.75;" x="604.305621" xlink:href="#m46663c3d66" y="120.256706"/>
     <use style="fill:#98df8a;stroke:#ffffff;stroke-linejoin:miter;stroke-width:0.75;" x="608.135065" xlink:href="#m46663c3d66" y="116.830616"/>
     <use style="fill:#98df8a;stroke:#ffffff;stroke-linejoin:miter;stroke-width:0.75;" x="611.865031" xlink:href="#m46663c3d66" y="116.830616"/>
     <use style="fill:#98df8a;stroke:#ffffff;stroke-linejoin:miter;stroke-width:0.75;" x="615.500558" xlink:href="#m46663c3d66" y="116.259601"/>
     <use style="fill:#98df8a;stroke:#ffffff;stroke-linejoin:miter;stroke-width:0.75;" x="619.046309" xlink:href="#m46663c3d66" y="115.688586"/>
     <use style="fill:#98df8a;stroke:#ffffff;stroke-linejoin:miter;stroke-width:0.75;" x="622.506613" xlink:href="#m46663c3d66" y="115.688586"/>
     <use style="fill:#98df8a;stroke:#ffffff;stroke-linejoin:miter;stroke-width:0.75;" x="625.885489" xlink:href="#m46663c3d66" y="115.688586"/>
     <use style="fill:#98df8a;stroke:#ffffff;stroke-linejoin:miter;stroke-width:0.75;" x="629.186684" xlink:href="#m46663c3d66" y="113.594865"/>
     <use style="fill:#98df8a;stroke:#ffffff;stroke-linejoin:miter;stroke-width:0.75;" x="632.413688" xlink:href="#m46663c3d66" y="113.594865"/>
     <use style="fill:#98df8a;stroke:#ffffff;stroke-linejoin:miter;stroke-width:0.75;" x="635.569763" xlink:href="#m46663c3d66" y="112.452835"/>
     <use style="fill:#98df8a;stroke:#ffffff;stroke-linejoin:miter;stroke-width:0.75;" x="638.65796" xlink:href="#m46663c3d66" y="111.88182"/>
     <use style="fill:#98df8a;stroke:#ffffff;stroke-linejoin:miter;stroke-width:0.75;" x="641.681137" xlink:href="#m46663c3d66" y="111.88182"/>
     <use style="fill:#98df8a;stroke:#ffffff;stroke-linejoin:miter;stroke-width:0.75;" x="644.641977" xlink:href="#m46663c3d66" y="111.88182"/>
     <use style="fill:#98df8a;stroke:#ffffff;stroke-linejoin:miter;stroke-width:0.75;" x="647.542997" xlink:href="#m46663c3d66" y="110.549452"/>
     <use style="fill:#98df8a;stroke:#ffffff;stroke-linejoin:miter;stroke-width:0.75;" x="650.386568" xlink:href="#m46663c3d66" y="110.549452"/>
     <use style="fill:#98df8a;stroke:#ffffff;stroke-linejoin:miter;stroke-width:0.75;" x="653.174921" xlink:href="#m46663c3d66" y="108.45573"/>
     <use style="fill:#98df8a;stroke:#ffffff;stroke-linejoin:miter;stroke-width:0.75;" x="655.910158" xlink:href="#m46663c3d66" y="107.504038"/>
     <use style="fill:#98df8a;stroke:#ffffff;stroke-linejoin:miter;stroke-width:0.75;" x="658.594267" xlink:href="#m46663c3d66" y="107.504038"/>
     <use style="fill:#98df8a;stroke:#ffffff;stroke-linejoin:miter;stroke-width:0.75;" x="661.229123" xlink:href="#m46663c3d66" y="106.362009"/>
     <use style="fill:#98df8a;stroke:#ffffff;stroke-linejoin:miter;stroke-width:0.75;" x="663.816502" xlink:href="#m46663c3d66" y="106.362009"/>
     <use style="fill:#98df8a;stroke:#ffffff;stroke-linejoin:miter;stroke-width:0.75;" x="666.358084" xlink:href="#m46663c3d66" y="105.219979"/>
     <use style="fill:#98df8a;stroke:#ffffff;stroke-linejoin:miter;stroke-width:0.75;" x="668.855462" xlink:href="#m46663c3d66" y="105.219979"/>
     <use style="fill:#98df8a;stroke:#ffffff;stroke-linejoin:miter;stroke-width:0.75;" x="671.310148" xlink:href="#m46663c3d66" y="105.02964"/>
     <use style="fill:#98df8a;stroke:#ffffff;stroke-linejoin:miter;stroke-width:0.75;" x="673.723577" xlink:href="#m46663c3d66" y="104.268287"/>
     <use style="fill:#98df8a;stroke:#ffffff;stroke-linejoin:miter;stroke-width:0.75;" x="676.097112" xlink:href="#m46663c3d66" y="103.88761"/>
     <use style="fill:#98df8a;stroke:#ffffff;stroke-linejoin:miter;stroke-width:0.75;" x="678.432052" xlink:href="#m46663c3d66" y="103.88761"/>
     <use style="fill:#98df8a;stroke:#ffffff;stroke-linejoin:miter;stroke-width:0.75;" x="680.729631" xlink:href="#m46663c3d66" y="102.555242"/>
     <use style="fill:#98df8a;stroke:#ffffff;stroke-linejoin:miter;stroke-width:0.75;" x="682.991027" xlink:href="#m46663c3d66" y="102.555242"/>
     <use style="fill:#98df8a;stroke:#ffffff;stroke-linejoin:miter;stroke-width:0.75;" x="685.21736" xlink:href="#m46663c3d66" y="102.555242"/>
     <use style="fill:#98df8a;stroke:#ffffff;stroke-linejoin:miter;stroke-width:0.75;" x="687.409702" xlink:href="#m46663c3d66" y="102.555242"/>
     <use style="fill:#98df8a;stroke:#ffffff;stroke-linejoin:miter;stroke-width:0.75;" x="689.569076" xlink:href="#m46663c3d66" y="102.555242"/>
     <use style="fill:#98df8a;stroke:#ffffff;stroke-linejoin:miter;stroke-width:0.75;" x="691.696457" xlink:href="#m46663c3d66" y="102.555242"/>
     <use style="fill:#98df8a;stroke:#ffffff;stroke-linejoin:miter;stroke-width:0.75;" x="693.792781" xlink:href="#m46663c3d66" y="101.793889"/>
     <use style="fill:#98df8a;stroke:#ffffff;stroke-linejoin:miter;stroke-width:0.75;" x="695.858941" xlink:href="#m46663c3d66" y="100.461521"/>
     <use style="fill:#98df8a;stroke:#ffffff;stroke-linejoin:miter;stroke-width:0.75;" x="697.895793" xlink:href="#m46663c3d66" y="96.274078"/>
     <use style="fill:#98df8a;stroke:#ffffff;stroke-linejoin:miter;stroke-width:0.75;" x="699.904156" xlink:href="#m46663c3d66" y="90.183252"/>
     <use style="fill:#98df8a;stroke:#ffffff;stroke-linejoin:miter;stroke-width:0.75;" x="701.884817" xlink:href="#m46663c3d66" y="89.612237"/>
     <use style="fill:#98df8a;stroke:#ffffff;stroke-linejoin:miter;stroke-width:0.75;" x="703.838529" xlink:href="#m46663c3d66" y="89.612237"/>
     <use style="fill:#98df8a;stroke:#ffffff;stroke-linejoin:miter;stroke-width:0.75;" x="705.766016" xlink:href="#m46663c3d66" y="89.612237"/>
     <use style="fill:#98df8a;stroke:#ffffff;stroke-linejoin:miter;stroke-width:0.75;" x="707.667973" xlink:href="#m46663c3d66" y="89.612237"/>
     <use style="fill:#98df8a;stroke:#ffffff;stroke-linejoin:miter;stroke-width:0.75;" x="709.545067" xlink:href="#m46663c3d66" y="88.850883"/>
     <use style="fill:#98df8a;stroke:#ffffff;stroke-linejoin:miter;stroke-width:0.75;" x="711.397939" xlink:href="#m46663c3d66" y="87.328177"/>
     <use style="fill:#98df8a;stroke:#ffffff;stroke-linejoin:miter;stroke-width:0.75;" x="713.227208" xlink:href="#m46663c3d66" y="87.137839"/>
     <use style="fill:#98df8a;stroke:#ffffff;stroke-linejoin:miter;stroke-width:0.75;" x="715.033466" xlink:href="#m46663c3d66" y="87.137839"/>
     <use style="fill:#98df8a;stroke:#ffffff;stroke-linejoin:miter;stroke-width:0.75;" x="716.817286" xlink:href="#m46663c3d66" y="87.137839"/>
     <use style="fill:#98df8a;stroke:#ffffff;stroke-linejoin:miter;stroke-width:0.75;" x="718.579217" xlink:href="#m46663c3d66" y="87.137839"/>
     <use style="fill:#98df8a;stroke:#ffffff;stroke-linejoin:miter;stroke-width:0.75;" x="720.319792" xlink:href="#m46663c3d66" y="87.137839"/>
     <use style="fill:#98df8a;stroke:#ffffff;stroke-linejoin:miter;stroke-width:0.75;" x="722.03952" xlink:href="#m46663c3d66" y="87.137839"/>
     <use style="fill:#98df8a;stroke:#ffffff;stroke-linejoin:miter;stroke-width:0.75;" x="723.738897" xlink:href="#m46663c3d66" y="87.137839"/>
     <use style="fill:#98df8a;stroke:#ffffff;stroke-linejoin:miter;stroke-width:0.75;" x="725.418397" xlink:href="#m46663c3d66" y="87.137839"/>
     <use style="fill:#98df8a;stroke:#ffffff;stroke-linejoin:miter;stroke-width:0.75;" x="727.078481" xlink:href="#m46663c3d66" y="87.137839"/>
     <use style="fill:#98df8a;stroke:#ffffff;stroke-linejoin:miter;stroke-width:0.75;" x="728.719591" xlink:href="#m46663c3d66" y="87.137839"/>
     <use style="fill:#98df8a;stroke:#ffffff;stroke-linejoin:miter;stroke-width:0.75;" x="730.342158" xlink:href="#m46663c3d66" y="85.80547"/>
     <use style="fill:#98df8a;stroke:#ffffff;stroke-linejoin:miter;stroke-width:0.75;" x="731.946595" xlink:href="#m46663c3d66" y="85.615132"/>
     <use style="fill:#98df8a;stroke:#ffffff;stroke-linejoin:miter;stroke-width:0.75;" x="733.533304" xlink:href="#m46663c3d66" y="85.615132"/>
     <use style="fill:#98df8a;stroke:#ffffff;stroke-linejoin:miter;stroke-width:0.75;" x="735.10267" xlink:href="#m46663c3d66" y="85.424794"/>
    </g>
   </g>
   <g id="line2d_39"/>
   <g id="line2d_40"/>
   <g id="line2d_41">
    <path clip-path="url(#p3e202576ed)" d="M 735.10267 288.430125 
L 735.10267 22.318125 
" style="fill:none;stroke:#ff0000;stroke-linecap:square;stroke-width:1.5;"/>
   </g>
   <g id="patch_3">
    <path d="M 53.328125 267.959239 
L 53.328125 39.55326 
" style="fill:none;stroke:#000000;stroke-linecap:square;stroke-linejoin:miter;stroke-width:0.8;"/>
   </g>
   <g id="patch_4">
    <path d="M 85.79358 288.430125 
L 735.104405 288.430125 
" style="fill:none;stroke:#000000;stroke-linecap:square;stroke-linejoin:miter;stroke-width:0.8;"/>
   </g>
   <g id="text_22">
    <!-- harfbuzz-1.3.2 (23h, 10 trials/fuzzer) -->
    <g transform="translate(300.32 16.318125)scale(0.12 -0.12)">
     <defs>
      <path d="M 2375 4863 
L 2375 4384 
L 1825 4384 
Q 1516 4384 1395 4259 
Q 1275 4134 1275 3809 
L 1275 3500 
L 2222 3500 
L 2222 3053 
L 1275 3053 
L 1275 0 
L 697 0 
L 697 3053 
L 147 3053 
L 147 3500 
L 697 3500 
L 697 3744 
Q 697 4328 969 4595 
Q 1241 4863 1831 4863 
L 2375 4863 
z
" id="DejaVuSans-66" transform="scale(0.015625)"/>
      <path d="M 353 3500 
L 3084 3500 
L 3084 2975 
L 922 459 
L 3084 459 
L 3084 0 
L 275 0 
L 275 525 
L 2438 3041 
L 353 3041 
L 353 3500 
z
" id="DejaVuSans-7a" transform="scale(0.015625)"/>
      <path d="M 313 2009 
L 1997 2009 
L 1997 1497 
L 313 1497 
L 313 2009 
z
" id="DejaVuSans-2d" transform="scale(0.015625)"/>
      <path d="M 684 794 
L 1344 794 
L 1344 0 
L 684 0 
L 684 794 
z
" id="DejaVuSans-2e" transform="scale(0.015625)"/>
      <path d="M 750 794 
L 1409 794 
L 1409 256 
L 897 -744 
L 494 -744 
L 750 256 
L 750 794 
z
" id="DejaVuSans-2c" transform="scale(0.015625)"/>
      <path d="M 603 4863 
L 1178 4863 
L 1178 0 
L 603 0 
L 603 4863 
z
" id="DejaVuSans-6c" transform="scale(0.015625)"/>
      <path d="M 2834 3397 
L 2834 2853 
Q 2591 2978 2328 3040 
Q 2066 3103 1784 3103 
Q 1356 3103 1142 2972 
Q 928 2841 928 2578 
Q 928 2378 1081 2264 
Q 1234 2150 1697 2047 
L 1894 2003 
Q 2506 1872 2764 1633 
Q 3022 1394 3022 966 
Q 3022 478 2636 193 
Q 2250 -91 1575 -91 
Q 1294 -91 989 -36 
Q 684 19 347 128 
L 347 722 
Q 666 556 975 473 
Q 1284 391 1588 391 
Q 1994 391 2212 530 
Q 2431 669 2431 922 
Q 2431 1156 2273 1281 
Q 2116 1406 1581 1522 
L 1381 1569 
Q 847 1681 609 1914 
Q 372 2147 372 2553 
Q 372 3047 722 3315 
Q 1072 3584 1716 3584 
Q 2034 3584 2315 3537 
Q 2597 3491 2834 3397 
z
" id="DejaVuSans-73" transform="scale(0.015625)"/>
      <path d="M 1625 4666 
L 2156 4666 
L 531 -594 
L 0 -594 
L 1625 4666 
z
" id="DejaVuSans-2f" transform="scale(0.015625)"/>
     </defs>
     <use xlink:href="#DejaVuSans-68"/>
     <use x="63.378906" xlink:href="#DejaVuSans-61"/>
     <use x="124.658203" xlink:href="#DejaVuSans-72"/>
     <use x="165.771484" xlink:href="#DejaVuSans-66"/>
     <use x="200.976562" xlink:href="#DejaVuSans-62"/>
     <use x="264.453125" xlink:href="#DejaVuSans-75"/>
     <use x="327.832031" xlink:href="#DejaVuSans-7a"/>
     <use x="380.322266" xlink:href="#DejaVuSans-7a"/>
     <use x="432.8125" xlink:href="#DejaVuSans-2d"/>
     <use x="468.896484" xlink:href="#DejaVuSans-31"/>
     <use x="532.519531" xlink:href="#DejaVuSans-2e"/>
     <use x="564.306641" xlink:href="#DejaVuSans-33"/>
     <use x="627.929688" xlink:href="#DejaVuSans-2e"/>
     <use x="659.716797" xlink:href="#DejaVuSans-32"/>
     <use x="723.339844" xlink:href="#DejaVuSans-20"/>
     <use x="755.126953" xlink:href="#DejaVuSans-28"/>
     <use x="794.140625" xlink:href="#DejaVuSans-32"/>
     <use x="857.763672" xlink:href="#DejaVuSans-33"/>
     <use x="921.386719" xlink:href="#DejaVuSans-68"/>
     <use x="984.765625" xlink:href="#DejaVuSans-2c"/>
     <use x="1016.552734" xlink:href="#DejaVuSans-20"/>
     <use x="1048.339844" xlink:href="#DejaVuSans-31"/>
     <use x="1111.962891" xlink:href="#DejaVuSans-30"/>
     <use x="1175.585938" xlink:href="#DejaVuSans-20"/>
     <use x="1207.373047" xlink:href="#DejaVuSans-74"/>
     <use x="1246.582031" xlink:href="#DejaVuSans-72"/>
     <use x="1287.695312" xlink:href="#DejaVuSans-69"/>
     <use x="1315.478516" xlink:href="#DejaVuSans-61"/>
     <use x="1376.757812" xlink:href="#DejaVuSans-6c"/>
     <use x="1404.541016" xlink:href="#DejaVuSans-73"/>
     <use x="1456.640625" xlink:href="#DejaVuSans-2f"/>
     <use x="1490.332031" xlink:href="#DejaVuSans-66"/>
     <use x="1525.537109" xlink:href="#DejaVuSans-75"/>
     <use x="1588.916016" xlink:href="#DejaVuSans-7a"/>
     <use x="1641.40625" xlink:href="#DejaVuSans-7a"/>
     <use x="1693.896484" xlink:href="#DejaVuSans-65"/>
     <use x="1755.419922" xlink:href="#DejaVuSans-72"/>
     <use x="1796.533203" xlink:href="#DejaVuSans-29"/>
    </g>
   </g>
   <g id="legend_1">
    <g id="line2d_42">
     <path d="M 771.568125 30.416563 
L 791.568125 30.416563 
" style="fill:none;stroke:#1f77b4;stroke-linecap:square;stroke-width:1.5;"/>
    </g>
    <g id="line2d_43">
     <defs>
      <path d="M 0 3 
C 0.795609 3 1.55874 2.683901 2.12132 2.12132 
C 2.683901 1.55874 3 0.795609 3 0 
C 3 -0.795609 2.683901 -1.55874 2.12132 -2.12132 
C 1.55874 -2.683901 0.795609 -3 0 -3 
C -0.795609 -3 -1.55874 -2.683901 -2.12132 -2.12132 
C -2.683901 -1.55874 -3 -0.795609 -3 0 
C -3 0.795609 -2.683901 1.55874 -2.12132 2.12132 
C -1.55874 2.683901 -0.795609 3 0 3 
z
" id="m652030bcfc" style="stroke:#1f77b4;"/>
     </defs>
     <g>
      <use style="fill:#1f77b4;stroke:#1f77b4;" x="781.568125" xlink:href="#m652030bcfc" y="30.416563"/>
     </g>
    </g>
    <g id="text_23">
     <!-- fuzzolic_aflplusplus_z3 -->
     <g transform="translate(799.568125 33.916563)scale(0.1 -0.1)">
      <defs>
       <path d="M 3263 -1063 
L 3263 -1509 
L -63 -1509 
L -63 -1063 
L 3263 -1063 
z
" id="DejaVuSans-5f" transform="scale(0.015625)"/>
       <path d="M 1159 525 
L 1159 -1331 
L 581 -1331 
L 581 3500 
L 1159 3500 
L 1159 2969 
Q 1341 3281 1617 3432 
Q 1894 3584 2278 3584 
Q 2916 3584 3314 3078 
Q 3713 2572 3713 1747 
Q 3713 922 3314 415 
Q 2916 -91 2278 -91 
Q 1894 -91 1617 61 
Q 1341 213 1159 525 
z
M 3116 1747 
Q 3116 2381 2855 2742 
Q 2594 3103 2138 3103 
Q 1681 3103 1420 2742 
Q 1159 2381 1159 1747 
Q 1159 1113 1420 752 
Q 1681 391 2138 391 
Q 2594 391 2855 752 
Q 3116 1113 3116 1747 
z
" id="DejaVuSans-70" transform="scale(0.015625)"/>
      </defs>
      <use xlink:href="#DejaVuSans-66"/>
      <use x="35.205078" xlink:href="#DejaVuSans-75"/>
      <use x="98.583984" xlink:href="#DejaVuSans-7a"/>
      <use x="151.074219" xlink:href="#DejaVuSans-7a"/>
      <use x="203.564453" xlink:href="#DejaVuSans-6f"/>
      <use x="264.746094" xlink:href="#DejaVuSans-6c"/>
      <use x="292.529297" xlink:href="#DejaVuSans-69"/>
      <use x="320.3125" xlink:href="#DejaVuSans-63"/>
      <use x="375.292969" xlink:href="#DejaVuSans-5f"/>
      <use x="425.292969" xlink:href="#DejaVuSans-61"/>
      <use x="486.572266" xlink:href="#DejaVuSans-66"/>
      <use x="521.777344" xlink:href="#DejaVuSans-6c"/>
      <use x="549.560547" xlink:href="#DejaVuSans-70"/>
      <use x="613.037109" xlink:href="#DejaVuSans-6c"/>
      <use x="640.820312" xlink:href="#DejaVuSans-75"/>
      <use x="704.199219" xlink:href="#DejaVuSans-73"/>
      <use x="756.298828" xlink:href="#DejaVuSans-70"/>
      <use x="819.775391" xlink:href="#DejaVuSans-6c"/>
      <use x="847.558594" xlink:href="#DejaVuSans-75"/>
      <use x="910.9375" xlink:href="#DejaVuSans-73"/>
      <use x="963.037109" xlink:href="#DejaVuSans-5f"/>
      <use x="1013.037109" xlink:href="#DejaVuSans-7a"/>
      <use x="1065.527344" xlink:href="#DejaVuSans-33"/>
     </g>
    </g>
    <g id="line2d_44">
     <path d="M 771.568125 45.372813 
L 791.568125 45.372813 
" style="fill:none;stroke:#98df8a;stroke-linecap:square;stroke-width:1.5;"/>
    </g>
    <g id="line2d_45">
     <defs>
      <path d="M -0 3 
L 3 -3 
L -3 -3 
z
" id="m5b4653655c" style="stroke:#98df8a;stroke-linejoin:miter;"/>
     </defs>
     <g>
      <use style="fill:#98df8a;stroke:#98df8a;stroke-linejoin:miter;" x="781.568125" xlink:href="#m5b4653655c" y="45.372813"/>
     </g>
    </g>
    <g id="text_24">
     <!-- sydr_aflplusplus -->
     <g transform="translate(799.568125 48.872813)scale(0.1 -0.1)">
      <defs>
       <path d="M 2059 -325 
Q 1816 -950 1584 -1140 
Q 1353 -1331 966 -1331 
L 506 -1331 
L 506 -850 
L 844 -850 
Q 1081 -850 1212 -737 
Q 1344 -625 1503 -206 
L 1606 56 
L 191 3500 
L 800 3500 
L 1894 763 
L 2988 3500 
L 3597 3500 
L 2059 -325 
z
" id="DejaVuSans-79" transform="scale(0.015625)"/>
      </defs>
      <use xlink:href="#DejaVuSans-73"/>
      <use x="52.099609" xlink:href="#DejaVuSans-79"/>
      <use x="111.279297" xlink:href="#DejaVuSans-64"/>
      <use x="174.755859" xlink:href="#DejaVuSans-72"/>
      <use x="215.869141" xlink:href="#DejaVuSans-5f"/>
      <use x="265.869141" xlink:href="#DejaVuSans-61"/>
      <use x="327.148438" xlink:href="#DejaVuSans-66"/>
      <use x="362.353516" xlink:href="#DejaVuSans-6c"/>
      <use x="390.136719" xlink:href="#DejaVuSans-70"/>
      <use x="453.613281" xlink:href="#DejaVuSans-6c"/>
      <use x="481.396484" xlink:href="#DejaVuSans-75"/>
      <use x="544.775391" xlink:href="#DejaVuSans-73"/>
      <use x="596.875" xlink:href="#DejaVuSans-70"/>
      <use x="660.351562" xlink:href="#DejaVuSans-6c"/>
      <use x="688.134766" xlink:href="#DejaVuSans-75"/>
      <use x="751.513672" xlink:href="#DejaVuSans-73"/>
     </g>
    </g>
   </g>
  </g>
 </g>
 <defs>
  <clipPath id="p3e202576ed">
   <rect height="266.112" width="714.24" x="53.328125" y="22.318125"/>
  </clipPath>
 </defs>
</svg>
