<?xml version="1.0" encoding="utf-8" standalone="no"?>
<!DOCTYPE svg PUBLIC "-//W3C//DTD SVG 1.1//EN"
  "http://www.w3.org/Graphics/SVG/1.1/DTD/svg11.dtd">
<svg height="325.986375pt" version="1.1" viewBox="0 0 930.043125 325.986375" width="930.043125pt" xmlns="http://www.w3.org/2000/svg" xmlns:xlink="http://www.w3.org/1999/xlink">
 <metadata>
  <rdf:RDF xmlns:cc="http://creativecommons.org/ns#" xmlns:dc="http://purl.org/dc/elements/1.1/" xmlns:rdf="http://www.w3.org/1999/02/22-rdf-syntax-ns#">
   <cc:Work>
    <dc:type rdf:resource="http://purl.org/dc/dcmitype/StillImage"/>
    <dc:date>2022-09-23T01:21:39.627565</dc:date>
    <dc:format>image/svg+xml</dc:format>
    <dc:creator>
     <cc:Agent>
      <dc:title>Matplotlib v3.4.1, https://matplotlib.org/</dc:title>
     </cc:Agent>
    </dc:creator>
   </cc:Work>
  </rdf:RDF>
 </metadata>
 <defs>
  <style type="text/css">*{stroke-linecap:butt;stroke-linejoin:round;}</style>
 </defs>
 <g id="figure_1">
  <g id="patch_1">
   <path d="M 0 325.986375 
L 930.043125 325.986375 
L 930.043125 0 
L 0 0 
z
" style="fill:#ffffff;"/>
  </g>
  <g id="axes_1">
   <g id="patch_2">
    <path d="M 59.690625 288.430125 
L 773.930625 288.430125 
L 773.930625 22.318125 
L 59.690625 22.318125 
z
" style="fill:#ffffff;"/>
   </g>
   <g id="PolyCollection_1">
    <defs>
     <path d="M 92.15608 -75.078883 
L 92.15608 -63.492727 
L 191.688987 -87.346579 
L 249.912006 -100.033682 
L 291.221895 -109.522797 
L 323.264335 -115.881094 
L 349.444914 -118.959486 
L 371.580278 -124.726351 
L 390.754803 -133.59946 
L 407.667933 -138.357124 
L 422.797242 -143.625942 
L 436.483368 -145.709877 
L 448.977822 -150.179198 
L 460.471605 -153.088843 
L 471.113186 -155.579081 
L 481.020261 -156.548963 
L 490.287711 -157.518844 
L 498.993142 -158.17417 
L 507.20084 -161.424585 
L 514.964657 -165.54003 
L 522.33015 -168.280274 
L 529.336205 -171.975327 
L 536.016276 -173.744706 
L 542.399355 -174.662162 
L 548.51073 -178.266453 
L 554.37259 -180.573199 
L 560.004513 -185.438664 
L 565.423859 -189.24971 
L 570.646094 -194.234444 
L 575.685054 -195.737434 
L 580.553169 -198.673292 
L 585.261644 -201.189743 
L 589.820619 -203.208146 
L 594.239294 -207.113886 
L 598.52605 -208.922585 
L 602.688533 -213.536077 
L 606.733748 -213.719568 
L 610.668121 -214.807409 
L 614.497565 -217.913652 
L 618.227531 -219.853416 
L 621.863058 -220.561168 
L 625.408809 -222.57957 
L 628.869113 -223.261109 
L 632.247989 -225.43679 
L 635.549184 -227.324128 
L 638.776188 -228.739631 
L 641.932263 -230.744927 
L 645.02046 -231.505105 
L 648.043637 -232.724011 
L 651.004477 -235.030757 
L 653.905497 -236.105491 
L 656.749068 -236.760816 
L 659.537421 -239.146202 
L 662.272658 -240.325788 
L 664.956767 -240.566292 
L 667.591623 -241.924782 
L 670.179002 -242.108273 
L 672.720584 -242.265552 
L 675.217962 -243.54999 
L 677.672648 -247.586795 
L 680.086077 -244.546085 
L 682.459612 -245.568393 
L 684.794552 -249.841116 
L 687.092131 -251.073128 
L 689.353527 -252.554164 
L 691.57986 -257.206975 
L 693.772202 -258.54384 
L 695.931576 -260.037982 
L 698.058957 -263.83887 
L 700.155281 -268.295085 
L 702.221441 -270.523192 
L 704.258293 -272.200825 
L 706.266656 -272.829938 
L 708.247317 -271.899375 
L 710.201029 -272.594021 
L 712.128516 -275.162897 
L 714.030473 -276.067246 
L 715.907567 -277.076448 
L 717.760439 -278.033223 
L 719.589708 -278.083355 
L 721.395966 -280.510354 
L 723.179786 -280.235117 
L 724.941717 -280.235117 
L 726.682292 -281.178786 
L 728.40202 -282.266626 
L 730.101397 -281.936998 
L 731.780897 -281.925857 
L 733.440981 -283.780756 
L 735.082091 -284.363668 
L 736.704658 -284.966568 
L 738.309095 -285.59568 
L 739.895804 -286.093728 
L 741.46517 -286.958758 
L 741.46517 -291.57225 
L 741.46517 -291.57225 
L 739.895804 -290.523729 
L 738.309095 -290.916924 
L 736.704658 -290.209173 
L 735.082091 -289.566954 
L 733.440981 -289.252397 
L 731.780897 -288.531539 
L 730.101397 -288.334942 
L 728.40202 -288.374261 
L 726.682292 -287.561657 
L 724.941717 -286.827693 
L 723.179786 -286.447604 
L 721.395966 -285.752959 
L 719.589708 -285.59568 
L 717.760439 -285.254911 
L 715.907567 -284.835503 
L 714.030473 -283.786982 
L 712.128516 -282.358372 
L 710.201029 -282.083135 
L 708.247317 -280.903549 
L 706.266656 -280.090945 
L 704.258293 -278.649229 
L 702.221441 -276.919169 
L 700.155281 -276.172098 
L 698.058957 -274.219228 
L 695.931576 -274.468252 
L 693.772202 -273.432837 
L 691.57986 -273.642541 
L 689.353527 -271.742097 
L 687.092131 -270.863961 
L 684.794552 -270.601831 
L 682.459612 -269.789227 
L 680.086077 -269.21254 
L 677.672648 -268.819345 
L 675.217962 -267.548013 
L 672.720584 -266.69609 
L 670.179002 -263.996149 
L 667.591623 -263.655379 
L 664.956767 -263.104906 
L 662.272658 -262.003959 
L 659.537421 -260.640881 
L 656.749068 -257.399313 
L 653.905497 -257.154549 
L 651.004477 -257.023484 
L 648.043637 -254.585673 
L 645.02046 -254.009314 
L 641.932263 -252.252714 
L 638.776188 -251.361471 
L 635.549184 -248.976086 
L 632.247989 -247.167387 
L 628.869113 -243.707268 
L 625.408809 -241.662652 
L 621.863058 -239.30348 
L 618.227531 -237.494781 
L 614.497565 -236.524899 
L 610.668121 -235.292887 
L 606.733748 -234.545816 
L 602.688533 -233.06478 
L 598.52605 -232.147324 
L 594.239294 -229.971643 
L 589.820619 -228.896909 
L 585.261644 -227.664897 
L 580.553169 -226.03969 
L 575.685054 -225.17466 
L 570.646094 -223.969516 
L 565.423859 -219.302942 
L 560.004513 -217.192794 
L 554.37259 -215.069539 
L 548.51073 -211.884657 
L 542.399355 -210.731283 
L 536.016276 -209.263354 
L 529.336205 -196.603446 
L 522.33015 -192.275348 
L 514.964657 -189.81329 
L 507.20084 -185.855124 
L 498.993142 -181.739679 
L 490.287711 -177.453849 
L 481.020261 -175.107784 
L 471.113186 -174.059263 
L 460.471605 -170.245268 
L 448.977822 -166.981746 
L 436.483368 -166.326421 
L 422.797242 -161.870206 
L 407.667933 -153.350974 
L 390.754803 -150.048133 
L 371.580278 -146.509374 
L 349.444914 -137.137563 
L 323.264335 -129.798571 
L 291.221895 -121.42351 
L 249.912006 -111.08411 
L 191.688987 -98.958948 
L 92.15608 -75.078883 
z
" id="m5d185a6b29" style="stroke:#1f77b4;stroke-opacity:0.2;"/>
    </defs>
    <g clip-path="url(#p3565ad6cc3)">
     <use style="fill:#1f77b4;fill-opacity:0.2;stroke:#1f77b4;stroke-opacity:0.2;" x="0" xlink:href="#m5d185a6b29" y="325.986375"/>
    </g>
   </g>
   <g id="PolyCollection_2">
    <defs>
     <path d="M 92.15608 -65.039295 
L 92.15608 -49.65225 
L 191.688987 -59.259323 
L 249.912006 -75.000244 
L 291.221895 -83.781607 
L 323.264335 -90.675633 
L 349.444914 -102.130724 
L 371.580278 -109.496584 
L 390.754803 -114.659239 
L 407.667933 -118.121652 
L 422.797242 -118.7121 
L 436.483368 -120.099752 
L 448.977822 -126.194281 
L 460.471605 -127.518038 
L 471.113186 -131.659696 
L 481.020261 -133.717418 
L 490.287711 -137.845314 
L 498.993142 -141.948308 
L 507.20084 -143.023042 
L 514.964657 -145.854049 
L 522.33015 -147.217126 
L 529.336205 -148.737481 
L 536.016276 -151.096654 
L 542.399355 -151.516062 
L 548.51073 -152.983991 
L 554.37259 -156.706241 
L 560.004513 -157.930389 
L 565.423859 -158.383874 
L 570.646094 -158.514939 
L 575.685054 -158.986774 
L 580.553169 -159.484821 
L 585.261644 -159.589673 
L 589.820619 -162.15855 
L 594.239294 -162.866301 
L 598.52605 -163.888609 
L 602.688533 -163.207071 
L 606.733748 -169.419557 
L 610.668121 -167.099705 
L 614.497565 -173.456363 
L 618.227531 -174.635949 
L 621.863058 -175.343701 
L 625.408809 -176.234944 
L 628.869113 -174.439352 
L 632.247989 -178.253347 
L 635.549184 -179.144589 
L 638.776188 -180.402815 
L 641.932263 -182.630922 
L 645.02046 -184.885242 
L 648.043637 -186.012402 
L 651.004477 -186.667727 
L 653.905497 -188.895834 
L 656.749068 -189.81329 
L 659.537421 -189.970568 
L 662.272658 -191.123941 
L 664.956767 -192.251101 
L 667.591623 -192.618084 
L 670.179002 -197.074298 
L 672.720584 -197.336428 
L 675.217962 -197.677197 
L 677.672648 -198.463588 
L 680.086077 -199.669387 
L 682.459612 -204.649862 
L 684.794552 -207.978916 
L 687.092131 -208.18862 
L 689.353527 -210.102171 
L 691.57986 -213.326373 
L 693.772202 -214.741876 
L 695.931576 -214.925367 
L 698.058957 -216.026314 
L 700.155281 -216.996196 
L 702.221441 -217.54667 
L 704.258293 -218.280634 
L 706.266656 -218.700043 
L 708.247317 -219.932055 
L 710.201029 -221.635902 
L 712.128516 -222.907233 
L 714.030473 -224.493121 
L 715.907567 -226.930932 
L 717.760439 -227.848388 
L 719.589708 -228.792057 
L 721.395966 -229.342531 
L 723.179786 -233.195845 
L 724.941717 -235.109396 
L 726.682292 -236.262769 
L 728.40202 -236.44626 
L 730.101397 -238.39913 
L 731.780897 -238.949604 
L 733.440981 -233.405549 
L 735.082091 -239.853953 
L 736.704658 -239.985018 
L 738.309095 -241.29567 
L 739.895804 -241.5578 
L 741.46517 -241.977208 
L 741.46517 -279.828815 
L 741.46517 -279.828815 
L 739.895804 -279.450692 
L 738.309095 -278.885802 
L 736.704658 -265.883486 
L 735.082091 -278.226872 
L 733.440981 -277.862838 
L 731.780897 -276.263844 
L 730.101397 -275.031832 
L 728.40202 -276.853637 
L 726.682292 -276.158992 
L 724.941717 -274.691062 
L 723.179786 -272.541594 
L 721.395966 -269.991067 
L 719.589708 -270.431446 
L 717.760439 -270.103783 
L 715.907567 -269.133901 
L 714.030473 -267.430055 
L 712.128516 -266.630558 
L 710.201029 -263.563634 
L 708.247317 -262.934521 
L 706.266656 -261.594053 
L 704.258293 -262.161237 
L 702.221441 -248.635316 
L 700.155281 -259.015674 
L 698.058957 -259.081207 
L 695.931576 -258.609372 
L 693.772202 -257.90162 
L 691.57986 -257.665703 
L 689.353527 -255.188572 
L 687.092131 -254.271117 
L 684.794552 -253.065318 
L 682.459612 -250.745465 
L 680.086077 -242.945124 
L 677.672648 -247.969178 
L 675.217962 -249.329962 
L 672.720584 -246.294493 
L 670.179002 -243.654842 
L 667.591623 -240.378541 
L 664.956767 -242.357297 
L 662.272658 -238.054429 
L 659.537421 -234.79484 
L 656.749068 -233.012354 
L 653.905497 -232.304602 
L 651.004477 -231.727916 
L 648.043637 -230.993951 
L 645.02046 -230.076495 
L 641.932263 -229.159039 
L 638.776188 -228.084305 
L 635.549184 -227.822175 
L 632.247989 -227.193063 
L 628.869113 -223.549452 
L 625.408809 -221.976671 
L 621.863058 -221.268919 
L 618.227531 -218.883534 
L 614.497565 -217.54667 
L 610.668121 -215.606906 
L 606.733748 -214.007912 
L 602.688533 -212.723473 
L 598.52605 -209.650979 
L 594.239294 -208.428797 
L 589.820619 -210.102171 
L 585.261644 -204.859566 
L 580.553169 -204.597436 
L 575.685054 -203.968323 
L 570.646094 -201.927967 
L 565.423859 -197.70341 
L 560.004513 -194.020481 
L 554.37259 -191.608882 
L 548.51073 -189.564266 
L 542.399355 -188.345361 
L 536.016276 -183.024117 
L 529.336205 -180.638732 
L 522.33015 -179.485359 
L 514.964657 -177.912577 
L 507.20084 -176.156305 
L 498.993142 -168.0958 
L 490.287711 -165.408965 
L 481.020261 -164.845385 
L 471.113186 -158.77707 
L 460.471605 -154.268429 
L 448.977822 -153.914554 
L 436.483368 -151.514751 
L 422.797242 -142.682273 
L 407.667933 -141.368017 
L 390.754803 -137.308603 
L 371.580278 -131.882507 
L 349.444914 -127.714636 
L 323.264335 -119.274042 
L 291.221895 -109.968419 
L 249.912006 -100.361345 
L 191.688987 -86.953383 
L 92.15608 -65.039295 
z
" id="m501440378f" style="stroke:#98df8a;stroke-opacity:0.2;"/>
    </defs>
    <g clip-path="url(#p3565ad6cc3)">
     <use style="fill:#98df8a;fill-opacity:0.2;stroke:#98df8a;stroke-opacity:0.2;" x="0" xlink:href="#m501440378f" y="325.986375"/>
    </g>
   </g>
   <g id="matplotlib.axis_1">
    <g id="xtick_1">
     <g id="line2d_1">
      <defs>
       <path d="M 0 0 
L 0 3.5 
" id="md72c3b5878" style="stroke:#000000;stroke-width:0.8;"/>
      </defs>
      <g>
       <use style="stroke:#000000;stroke-width:0.8;" x="92.15608" xlink:href="#md72c3b5878" y="288.430125"/>
      </g>
     </g>
     <g id="text_1">
      <!-- 14m -->
      <g transform="translate(80.923267 303.028562)scale(0.1 -0.1)">
       <defs>
        <path d="M 794 531 
L 1825 531 
L 1825 4091 
L 703 3866 
L 703 4441 
L 1819 4666 
L 2450 4666 
L 2450 531 
L 3481 531 
L 3481 0 
L 794 0 
L 794 531 
z
" id="DejaVuSans-31" transform="scale(0.015625)"/>
        <path d="M 2419 4116 
L 825 1625 
L 2419 1625 
L 2419 4116 
z
M 2253 4666 
L 3047 4666 
L 3047 1625 
L 3713 1625 
L 3713 1100 
L 3047 1100 
L 3047 0 
L 2419 0 
L 2419 1100 
L 313 1100 
L 313 1709 
L 2253 4666 
z
" id="DejaVuSans-34" transform="scale(0.015625)"/>
        <path d="M 3328 2828 
Q 3544 3216 3844 3400 
Q 4144 3584 4550 3584 
Q 5097 3584 5394 3201 
Q 5691 2819 5691 2113 
L 5691 0 
L 5113 0 
L 5113 2094 
Q 5113 2597 4934 2840 
Q 4756 3084 4391 3084 
Q 3944 3084 3684 2787 
Q 3425 2491 3425 1978 
L 3425 0 
L 2847 0 
L 2847 2094 
Q 2847 2600 2669 2842 
Q 2491 3084 2119 3084 
Q 1678 3084 1418 2786 
Q 1159 2488 1159 1978 
L 1159 0 
L 581 0 
L 581 3500 
L 1159 3500 
L 1159 2956 
Q 1356 3278 1631 3431 
Q 1906 3584 2284 3584 
Q 2666 3584 2933 3390 
Q 3200 3197 3328 2828 
z
" id="DejaVuSans-6d" transform="scale(0.015625)"/>
       </defs>
       <use xlink:href="#DejaVuSans-31"/>
       <use x="63.623047" xlink:href="#DejaVuSans-34"/>
       <use x="127.246094" xlink:href="#DejaVuSans-6d"/>
      </g>
     </g>
    </g>
    <g id="xtick_2">
     <g id="line2d_2">
      <g>
       <use style="stroke:#000000;stroke-width:0.8;" x="151.184336" xlink:href="#md72c3b5878" y="288.430125"/>
      </g>
     </g>
     <g id="text_2">
      <!-- 22m -->
      <g transform="translate(139.951524 303.028562)scale(0.1 -0.1)">
       <defs>
        <path d="M 1228 531 
L 3431 531 
L 3431 0 
L 469 0 
L 469 531 
Q 828 903 1448 1529 
Q 2069 2156 2228 2338 
Q 2531 2678 2651 2914 
Q 2772 3150 2772 3378 
Q 2772 3750 2511 3984 
Q 2250 4219 1831 4219 
Q 1534 4219 1204 4116 
Q 875 4013 500 3803 
L 500 4441 
Q 881 4594 1212 4672 
Q 1544 4750 1819 4750 
Q 2544 4750 2975 4387 
Q 3406 4025 3406 3419 
Q 3406 3131 3298 2873 
Q 3191 2616 2906 2266 
Q 2828 2175 2409 1742 
Q 1991 1309 1228 531 
z
" id="DejaVuSans-32" transform="scale(0.015625)"/>
       </defs>
       <use xlink:href="#DejaVuSans-32"/>
       <use x="63.623047" xlink:href="#DejaVuSans-32"/>
       <use x="127.246094" xlink:href="#DejaVuSans-6d"/>
      </g>
     </g>
    </g>
    <g id="xtick_3">
     <g id="line2d_3">
      <g>
       <use style="stroke:#000000;stroke-width:0.8;" x="210.212593" xlink:href="#md72c3b5878" y="288.430125"/>
      </g>
     </g>
     <g id="text_3">
      <!-- 34m -->
      <g transform="translate(198.979781 303.028562)scale(0.1 -0.1)">
       <defs>
        <path d="M 2597 2516 
Q 3050 2419 3304 2112 
Q 3559 1806 3559 1356 
Q 3559 666 3084 287 
Q 2609 -91 1734 -91 
Q 1441 -91 1130 -33 
Q 819 25 488 141 
L 488 750 
Q 750 597 1062 519 
Q 1375 441 1716 441 
Q 2309 441 2620 675 
Q 2931 909 2931 1356 
Q 2931 1769 2642 2001 
Q 2353 2234 1838 2234 
L 1294 2234 
L 1294 2753 
L 1863 2753 
Q 2328 2753 2575 2939 
Q 2822 3125 2822 3475 
Q 2822 3834 2567 4026 
Q 2313 4219 1838 4219 
Q 1578 4219 1281 4162 
Q 984 4106 628 3988 
L 628 4550 
Q 988 4650 1302 4700 
Q 1616 4750 1894 4750 
Q 2613 4750 3031 4423 
Q 3450 4097 3450 3541 
Q 3450 3153 3228 2886 
Q 3006 2619 2597 2516 
z
" id="DejaVuSans-33" transform="scale(0.015625)"/>
       </defs>
       <use xlink:href="#DejaVuSans-33"/>
       <use x="63.623047" xlink:href="#DejaVuSans-34"/>
       <use x="127.246094" xlink:href="#DejaVuSans-6d"/>
      </g>
     </g>
    </g>
    <g id="xtick_4">
     <g id="line2d_4">
      <g>
       <use style="stroke:#000000;stroke-width:0.8;" x="269.24085" xlink:href="#md72c3b5878" y="288.430125"/>
      </g>
     </g>
     <g id="text_4">
      <!-- 51m -->
      <g transform="translate(258.008038 303.028562)scale(0.1 -0.1)">
       <defs>
        <path d="M 691 4666 
L 3169 4666 
L 3169 4134 
L 1269 4134 
L 1269 2991 
Q 1406 3038 1543 3061 
Q 1681 3084 1819 3084 
Q 2600 3084 3056 2656 
Q 3513 2228 3513 1497 
Q 3513 744 3044 326 
Q 2575 -91 1722 -91 
Q 1428 -91 1123 -41 
Q 819 9 494 109 
L 494 744 
Q 775 591 1075 516 
Q 1375 441 1709 441 
Q 2250 441 2565 725 
Q 2881 1009 2881 1497 
Q 2881 1984 2565 2268 
Q 2250 2553 1709 2553 
Q 1456 2553 1204 2497 
Q 953 2441 691 2322 
L 691 4666 
z
" id="DejaVuSans-35" transform="scale(0.015625)"/>
       </defs>
       <use xlink:href="#DejaVuSans-35"/>
       <use x="63.623047" xlink:href="#DejaVuSans-31"/>
       <use x="127.246094" xlink:href="#DejaVuSans-6d"/>
      </g>
     </g>
    </g>
    <g id="xtick_5">
     <g id="line2d_5">
      <g>
       <use style="stroke:#000000;stroke-width:0.8;" x="328.269107" xlink:href="#md72c3b5878" y="288.430125"/>
      </g>
     </g>
     <g id="text_5">
      <!-- 1h:17m -->
      <g transform="translate(309.001919 303.028562)scale(0.1 -0.1)">
       <defs>
        <path d="M 3513 2113 
L 3513 0 
L 2938 0 
L 2938 2094 
Q 2938 2591 2744 2837 
Q 2550 3084 2163 3084 
Q 1697 3084 1428 2787 
Q 1159 2491 1159 1978 
L 1159 0 
L 581 0 
L 581 4863 
L 1159 4863 
L 1159 2956 
Q 1366 3272 1645 3428 
Q 1925 3584 2291 3584 
Q 2894 3584 3203 3211 
Q 3513 2838 3513 2113 
z
" id="DejaVuSans-68" transform="scale(0.015625)"/>
        <path d="M 750 794 
L 1409 794 
L 1409 0 
L 750 0 
L 750 794 
z
M 750 3309 
L 1409 3309 
L 1409 2516 
L 750 2516 
L 750 3309 
z
" id="DejaVuSans-3a" transform="scale(0.015625)"/>
        <path d="M 525 4666 
L 3525 4666 
L 3525 4397 
L 1831 0 
L 1172 0 
L 2766 4134 
L 525 4134 
L 525 4666 
z
" id="DejaVuSans-37" transform="scale(0.015625)"/>
       </defs>
       <use xlink:href="#DejaVuSans-31"/>
       <use x="63.623047" xlink:href="#DejaVuSans-68"/>
       <use x="127.001953" xlink:href="#DejaVuSans-3a"/>
       <use x="160.693359" xlink:href="#DejaVuSans-31"/>
       <use x="224.316406" xlink:href="#DejaVuSans-37"/>
       <use x="287.939453" xlink:href="#DejaVuSans-6d"/>
      </g>
     </g>
    </g>
    <g id="xtick_6">
     <g id="line2d_6">
      <g>
       <use style="stroke:#000000;stroke-width:0.8;" x="387.297364" xlink:href="#md72c3b5878" y="288.430125"/>
      </g>
     </g>
     <g id="text_6">
      <!-- 1h:57m -->
      <g transform="translate(368.030176 303.028562)scale(0.1 -0.1)">
       <use xlink:href="#DejaVuSans-31"/>
       <use x="63.623047" xlink:href="#DejaVuSans-68"/>
       <use x="127.001953" xlink:href="#DejaVuSans-3a"/>
       <use x="160.693359" xlink:href="#DejaVuSans-35"/>
       <use x="224.316406" xlink:href="#DejaVuSans-37"/>
       <use x="287.939453" xlink:href="#DejaVuSans-6d"/>
      </g>
     </g>
    </g>
    <g id="xtick_7">
     <g id="line2d_7">
      <g>
       <use style="stroke:#000000;stroke-width:0.8;" x="446.325621" xlink:href="#md72c3b5878" y="288.430125"/>
      </g>
     </g>
     <g id="text_7">
      <!-- 2h:56m -->
      <g transform="translate(427.058433 303.028562)scale(0.1 -0.1)">
       <defs>
        <path d="M 2113 2584 
Q 1688 2584 1439 2293 
Q 1191 2003 1191 1497 
Q 1191 994 1439 701 
Q 1688 409 2113 409 
Q 2538 409 2786 701 
Q 3034 994 3034 1497 
Q 3034 2003 2786 2293 
Q 2538 2584 2113 2584 
z
M 3366 4563 
L 3366 3988 
Q 3128 4100 2886 4159 
Q 2644 4219 2406 4219 
Q 1781 4219 1451 3797 
Q 1122 3375 1075 2522 
Q 1259 2794 1537 2939 
Q 1816 3084 2150 3084 
Q 2853 3084 3261 2657 
Q 3669 2231 3669 1497 
Q 3669 778 3244 343 
Q 2819 -91 2113 -91 
Q 1303 -91 875 529 
Q 447 1150 447 2328 
Q 447 3434 972 4092 
Q 1497 4750 2381 4750 
Q 2619 4750 2861 4703 
Q 3103 4656 3366 4563 
z
" id="DejaVuSans-36" transform="scale(0.015625)"/>
       </defs>
       <use xlink:href="#DejaVuSans-32"/>
       <use x="63.623047" xlink:href="#DejaVuSans-68"/>
       <use x="127.001953" xlink:href="#DejaVuSans-3a"/>
       <use x="160.693359" xlink:href="#DejaVuSans-35"/>
       <use x="224.316406" xlink:href="#DejaVuSans-36"/>
       <use x="287.939453" xlink:href="#DejaVuSans-6d"/>
      </g>
     </g>
    </g>
    <g id="xtick_8">
     <g id="line2d_8">
      <g>
       <use style="stroke:#000000;stroke-width:0.8;" x="505.353877" xlink:href="#md72c3b5878" y="288.430125"/>
      </g>
     </g>
     <g id="text_8">
      <!-- 4h:26m -->
      <g transform="translate(486.08669 303.028562)scale(0.1 -0.1)">
       <use xlink:href="#DejaVuSans-34"/>
       <use x="63.623047" xlink:href="#DejaVuSans-68"/>
       <use x="127.001953" xlink:href="#DejaVuSans-3a"/>
       <use x="160.693359" xlink:href="#DejaVuSans-32"/>
       <use x="224.316406" xlink:href="#DejaVuSans-36"/>
       <use x="287.939453" xlink:href="#DejaVuSans-6d"/>
      </g>
     </g>
    </g>
    <g id="xtick_9">
     <g id="line2d_9">
      <g>
       <use style="stroke:#000000;stroke-width:0.8;" x="564.382134" xlink:href="#md72c3b5878" y="288.430125"/>
      </g>
     </g>
     <g id="text_9">
      <!-- 6h:42m -->
      <g transform="translate(545.114947 303.028562)scale(0.1 -0.1)">
       <use xlink:href="#DejaVuSans-36"/>
       <use x="63.623047" xlink:href="#DejaVuSans-68"/>
       <use x="127.001953" xlink:href="#DejaVuSans-3a"/>
       <use x="160.693359" xlink:href="#DejaVuSans-34"/>
       <use x="224.316406" xlink:href="#DejaVuSans-32"/>
       <use x="287.939453" xlink:href="#DejaVuSans-6d"/>
      </g>
     </g>
    </g>
    <g id="xtick_10">
     <g id="line2d_10">
      <g>
       <use style="stroke:#000000;stroke-width:0.8;" x="623.410391" xlink:href="#md72c3b5878" y="288.430125"/>
      </g>
     </g>
     <g id="text_10">
      <!-- 10h:6m -->
      <g transform="translate(604.143204 303.028562)scale(0.1 -0.1)">
       <defs>
        <path d="M 2034 4250 
Q 1547 4250 1301 3770 
Q 1056 3291 1056 2328 
Q 1056 1369 1301 889 
Q 1547 409 2034 409 
Q 2525 409 2770 889 
Q 3016 1369 3016 2328 
Q 3016 3291 2770 3770 
Q 2525 4250 2034 4250 
z
M 2034 4750 
Q 2819 4750 3233 4129 
Q 3647 3509 3647 2328 
Q 3647 1150 3233 529 
Q 2819 -91 2034 -91 
Q 1250 -91 836 529 
Q 422 1150 422 2328 
Q 422 3509 836 4129 
Q 1250 4750 2034 4750 
z
" id="DejaVuSans-30" transform="scale(0.015625)"/>
       </defs>
       <use xlink:href="#DejaVuSans-31"/>
       <use x="63.623047" xlink:href="#DejaVuSans-30"/>
       <use x="127.246094" xlink:href="#DejaVuSans-68"/>
       <use x="190.625" xlink:href="#DejaVuSans-3a"/>
       <use x="224.316406" xlink:href="#DejaVuSans-36"/>
       <use x="287.939453" xlink:href="#DejaVuSans-6d"/>
      </g>
     </g>
    </g>
    <g id="xtick_11">
     <g id="line2d_11">
      <g>
       <use style="stroke:#000000;stroke-width:0.8;" x="682.438648" xlink:href="#md72c3b5878" y="288.430125"/>
      </g>
     </g>
     <g id="text_11">
      <!-- 15h:14m -->
      <g transform="translate(659.99021 303.028562)scale(0.1 -0.1)">
       <use xlink:href="#DejaVuSans-31"/>
       <use x="63.623047" xlink:href="#DejaVuSans-35"/>
       <use x="127.246094" xlink:href="#DejaVuSans-68"/>
       <use x="190.625" xlink:href="#DejaVuSans-3a"/>
       <use x="224.316406" xlink:href="#DejaVuSans-31"/>
       <use x="287.939453" xlink:href="#DejaVuSans-34"/>
       <use x="351.5625" xlink:href="#DejaVuSans-6d"/>
      </g>
     </g>
    </g>
    <g id="xtick_12">
     <g id="line2d_12">
      <g>
       <use style="stroke:#000000;stroke-width:0.8;" x="741.466905" xlink:href="#md72c3b5878" y="288.430125"/>
      </g>
     </g>
     <g id="text_12">
      <!-- 23h -->
      <g transform="translate(731.935655 303.028562)scale(0.1 -0.1)">
       <use xlink:href="#DejaVuSans-32"/>
       <use x="63.623047" xlink:href="#DejaVuSans-33"/>
       <use x="127.246094" xlink:href="#DejaVuSans-68"/>
      </g>
     </g>
    </g>
    <g id="xtick_13">
     <g id="line2d_13">
      <defs>
       <path d="M 0 0 
L 0 2 
" id="md22b336571" style="stroke:#000000;stroke-width:0.6;"/>
      </defs>
      <g>
       <use style="stroke:#000000;stroke-width:0.6;" x="75.24295" xlink:href="#md22b336571" y="288.430125"/>
      </g>
     </g>
    </g>
    <g id="xtick_14">
     <g id="line2d_14">
      <g>
       <use style="stroke:#000000;stroke-width:0.6;" x="206.818297" xlink:href="#md22b336571" y="288.430125"/>
      </g>
     </g>
    </g>
    <g id="xtick_15">
     <g id="line2d_15">
      <g>
       <use style="stroke:#000000;stroke-width:0.6;" x="265.041316" xlink:href="#md22b336571" y="288.430125"/>
      </g>
     </g>
    </g>
    <g id="xtick_16">
     <g id="line2d_16">
      <g>
       <use style="stroke:#000000;stroke-width:0.6;" x="306.351205" xlink:href="#md22b336571" y="288.430125"/>
      </g>
     </g>
    </g>
    <g id="xtick_17">
     <g id="line2d_17">
      <g>
       <use style="stroke:#000000;stroke-width:0.6;" x="338.393644" xlink:href="#md22b336571" y="288.430125"/>
      </g>
     </g>
    </g>
    <g id="xtick_18">
     <g id="line2d_18">
      <g>
       <use style="stroke:#000000;stroke-width:0.6;" x="364.574224" xlink:href="#md22b336571" y="288.430125"/>
      </g>
     </g>
    </g>
    <g id="xtick_19">
     <g id="line2d_19">
      <g>
       <use style="stroke:#000000;stroke-width:0.6;" x="386.709588" xlink:href="#md22b336571" y="288.430125"/>
      </g>
     </g>
    </g>
    <g id="xtick_20">
     <g id="line2d_20">
      <g>
       <use style="stroke:#000000;stroke-width:0.6;" x="405.884113" xlink:href="#md22b336571" y="288.430125"/>
      </g>
     </g>
    </g>
    <g id="xtick_21">
     <g id="line2d_21">
      <g>
       <use style="stroke:#000000;stroke-width:0.6;" x="422.797242" xlink:href="#md22b336571" y="288.430125"/>
      </g>
     </g>
    </g>
    <g id="xtick_22">
     <g id="line2d_22">
      <g>
       <use style="stroke:#000000;stroke-width:0.6;" x="537.45946" xlink:href="#md22b336571" y="288.430125"/>
      </g>
     </g>
    </g>
    <g id="xtick_23">
     <g id="line2d_23">
      <g>
       <use style="stroke:#000000;stroke-width:0.6;" x="595.682479" xlink:href="#md22b336571" y="288.430125"/>
      </g>
     </g>
    </g>
    <g id="xtick_24">
     <g id="line2d_24">
      <g>
       <use style="stroke:#000000;stroke-width:0.6;" x="636.992368" xlink:href="#md22b336571" y="288.430125"/>
      </g>
     </g>
    </g>
    <g id="xtick_25">
     <g id="line2d_25">
      <g>
       <use style="stroke:#000000;stroke-width:0.6;" x="669.034807" xlink:href="#md22b336571" y="288.430125"/>
      </g>
     </g>
    </g>
    <g id="xtick_26">
     <g id="line2d_26">
      <g>
       <use style="stroke:#000000;stroke-width:0.6;" x="695.215387" xlink:href="#md22b336571" y="288.430125"/>
      </g>
     </g>
    </g>
    <g id="xtick_27">
     <g id="line2d_27">
      <g>
       <use style="stroke:#000000;stroke-width:0.6;" x="717.350751" xlink:href="#md22b336571" y="288.430125"/>
      </g>
     </g>
    </g>
    <g id="xtick_28">
     <g id="line2d_28">
      <g>
       <use style="stroke:#000000;stroke-width:0.6;" x="736.525276" xlink:href="#md22b336571" y="288.430125"/>
      </g>
     </g>
    </g>
    <g id="xtick_29">
     <g id="line2d_29">
      <g>
       <use style="stroke:#000000;stroke-width:0.6;" x="753.438405" xlink:href="#md22b336571" y="288.430125"/>
      </g>
     </g>
    </g>
    <g id="text_13">
     <!-- Time (hour:minute) -->
     <g transform="translate(368.403594 316.706687)scale(0.1 -0.1)">
      <defs>
       <path d="M -19 4666 
L 3928 4666 
L 3928 4134 
L 2272 4134 
L 2272 0 
L 1638 0 
L 1638 4134 
L -19 4134 
L -19 4666 
z
" id="DejaVuSans-54" transform="scale(0.015625)"/>
       <path d="M 603 3500 
L 1178 3500 
L 1178 0 
L 603 0 
L 603 3500 
z
M 603 4863 
L 1178 4863 
L 1178 4134 
L 603 4134 
L 603 4863 
z
" id="DejaVuSans-69" transform="scale(0.015625)"/>
       <path d="M 3597 1894 
L 3597 1613 
L 953 1613 
Q 991 1019 1311 708 
Q 1631 397 2203 397 
Q 2534 397 2845 478 
Q 3156 559 3463 722 
L 3463 178 
Q 3153 47 2828 -22 
Q 2503 -91 2169 -91 
Q 1331 -91 842 396 
Q 353 884 353 1716 
Q 353 2575 817 3079 
Q 1281 3584 2069 3584 
Q 2775 3584 3186 3129 
Q 3597 2675 3597 1894 
z
M 3022 2063 
Q 3016 2534 2758 2815 
Q 2500 3097 2075 3097 
Q 1594 3097 1305 2825 
Q 1016 2553 972 2059 
L 3022 2063 
z
" id="DejaVuSans-65" transform="scale(0.015625)"/>
       <path id="DejaVuSans-20" transform="scale(0.015625)"/>
       <path d="M 1984 4856 
Q 1566 4138 1362 3434 
Q 1159 2731 1159 2009 
Q 1159 1288 1364 580 
Q 1569 -128 1984 -844 
L 1484 -844 
Q 1016 -109 783 600 
Q 550 1309 550 2009 
Q 550 2706 781 3412 
Q 1013 4119 1484 4856 
L 1984 4856 
z
" id="DejaVuSans-28" transform="scale(0.015625)"/>
       <path d="M 1959 3097 
Q 1497 3097 1228 2736 
Q 959 2375 959 1747 
Q 959 1119 1226 758 
Q 1494 397 1959 397 
Q 2419 397 2687 759 
Q 2956 1122 2956 1747 
Q 2956 2369 2687 2733 
Q 2419 3097 1959 3097 
z
M 1959 3584 
Q 2709 3584 3137 3096 
Q 3566 2609 3566 1747 
Q 3566 888 3137 398 
Q 2709 -91 1959 -91 
Q 1206 -91 779 398 
Q 353 888 353 1747 
Q 353 2609 779 3096 
Q 1206 3584 1959 3584 
z
" id="DejaVuSans-6f" transform="scale(0.015625)"/>
       <path d="M 544 1381 
L 544 3500 
L 1119 3500 
L 1119 1403 
Q 1119 906 1312 657 
Q 1506 409 1894 409 
Q 2359 409 2629 706 
Q 2900 1003 2900 1516 
L 2900 3500 
L 3475 3500 
L 3475 0 
L 2900 0 
L 2900 538 
Q 2691 219 2414 64 
Q 2138 -91 1772 -91 
Q 1169 -91 856 284 
Q 544 659 544 1381 
z
M 1991 3584 
L 1991 3584 
z
" id="DejaVuSans-75" transform="scale(0.015625)"/>
       <path d="M 2631 2963 
Q 2534 3019 2420 3045 
Q 2306 3072 2169 3072 
Q 1681 3072 1420 2755 
Q 1159 2438 1159 1844 
L 1159 0 
L 581 0 
L 581 3500 
L 1159 3500 
L 1159 2956 
Q 1341 3275 1631 3429 
Q 1922 3584 2338 3584 
Q 2397 3584 2469 3576 
Q 2541 3569 2628 3553 
L 2631 2963 
z
" id="DejaVuSans-72" transform="scale(0.015625)"/>
       <path d="M 3513 2113 
L 3513 0 
L 2938 0 
L 2938 2094 
Q 2938 2591 2744 2837 
Q 2550 3084 2163 3084 
Q 1697 3084 1428 2787 
Q 1159 2491 1159 1978 
L 1159 0 
L 581 0 
L 581 3500 
L 1159 3500 
L 1159 2956 
Q 1366 3272 1645 3428 
Q 1925 3584 2291 3584 
Q 2894 3584 3203 3211 
Q 3513 2838 3513 2113 
z
" id="DejaVuSans-6e" transform="scale(0.015625)"/>
       <path d="M 1172 4494 
L 1172 3500 
L 2356 3500 
L 2356 3053 
L 1172 3053 
L 1172 1153 
Q 1172 725 1289 603 
Q 1406 481 1766 481 
L 2356 481 
L 2356 0 
L 1766 0 
Q 1100 0 847 248 
Q 594 497 594 1153 
L 594 3053 
L 172 3053 
L 172 3500 
L 594 3500 
L 594 4494 
L 1172 4494 
z
" id="DejaVuSans-74" transform="scale(0.015625)"/>
       <path d="M 513 4856 
L 1013 4856 
Q 1481 4119 1714 3412 
Q 1947 2706 1947 2009 
Q 1947 1309 1714 600 
Q 1481 -109 1013 -844 
L 513 -844 
Q 928 -128 1133 580 
Q 1338 1288 1338 2009 
Q 1338 2731 1133 3434 
Q 928 4138 513 4856 
z
" id="DejaVuSans-29" transform="scale(0.015625)"/>
      </defs>
      <use xlink:href="#DejaVuSans-54"/>
      <use x="57.958984" xlink:href="#DejaVuSans-69"/>
      <use x="85.742188" xlink:href="#DejaVuSans-6d"/>
      <use x="183.154297" xlink:href="#DejaVuSans-65"/>
      <use x="244.677734" xlink:href="#DejaVuSans-20"/>
      <use x="276.464844" xlink:href="#DejaVuSans-28"/>
      <use x="315.478516" xlink:href="#DejaVuSans-68"/>
      <use x="378.857422" xlink:href="#DejaVuSans-6f"/>
      <use x="440.039062" xlink:href="#DejaVuSans-75"/>
      <use x="503.417969" xlink:href="#DejaVuSans-72"/>
      <use x="542.78125" xlink:href="#DejaVuSans-3a"/>
      <use x="576.472656" xlink:href="#DejaVuSans-6d"/>
      <use x="673.884766" xlink:href="#DejaVuSans-69"/>
      <use x="701.667969" xlink:href="#DejaVuSans-6e"/>
      <use x="765.046875" xlink:href="#DejaVuSans-75"/>
      <use x="828.425781" xlink:href="#DejaVuSans-74"/>
      <use x="867.634766" xlink:href="#DejaVuSans-65"/>
      <use x="929.158203" xlink:href="#DejaVuSans-29"/>
     </g>
    </g>
   </g>
   <g id="matplotlib.axis_2">
    <g id="ytick_1">
     <g id="line2d_30">
      <defs>
       <path d="M 0 0 
L -3.5 0 
" id="m47892c6f78" style="stroke:#000000;stroke-width:0.8;"/>
      </defs>
      <g>
       <use style="stroke:#000000;stroke-width:0.8;" x="59.690625" xlink:href="#m47892c6f78" y="285.246553"/>
      </g>
     </g>
     <g id="text_14">
      <!-- 10000 -->
      <g transform="translate(20.878125 289.045772)scale(0.1 -0.1)">
       <use xlink:href="#DejaVuSans-31"/>
       <use x="63.623047" xlink:href="#DejaVuSans-30"/>
       <use x="127.246094" xlink:href="#DejaVuSans-30"/>
       <use x="190.869141" xlink:href="#DejaVuSans-30"/>
       <use x="254.492188" xlink:href="#DejaVuSans-30"/>
      </g>
     </g>
    </g>
    <g id="ytick_2">
     <g id="line2d_31">
      <g>
       <use style="stroke:#000000;stroke-width:0.8;" x="59.690625" xlink:href="#m47892c6f78" y="232.820505"/>
      </g>
     </g>
     <g id="text_15">
      <!-- 12000 -->
      <g transform="translate(20.878125 236.619724)scale(0.1 -0.1)">
       <use xlink:href="#DejaVuSans-31"/>
       <use x="63.623047" xlink:href="#DejaVuSans-32"/>
       <use x="127.246094" xlink:href="#DejaVuSans-30"/>
       <use x="190.869141" xlink:href="#DejaVuSans-30"/>
       <use x="254.492188" xlink:href="#DejaVuSans-30"/>
      </g>
     </g>
    </g>
    <g id="ytick_3">
     <g id="line2d_32">
      <g>
       <use style="stroke:#000000;stroke-width:0.8;" x="59.690625" xlink:href="#m47892c6f78" y="180.394457"/>
      </g>
     </g>
     <g id="text_16">
      <!-- 14000 -->
      <g transform="translate(20.878125 184.193675)scale(0.1 -0.1)">
       <use xlink:href="#DejaVuSans-31"/>
       <use x="63.623047" xlink:href="#DejaVuSans-34"/>
       <use x="127.246094" xlink:href="#DejaVuSans-30"/>
       <use x="190.869141" xlink:href="#DejaVuSans-30"/>
       <use x="254.492188" xlink:href="#DejaVuSans-30"/>
      </g>
     </g>
    </g>
    <g id="ytick_4">
     <g id="line2d_33">
      <g>
       <use style="stroke:#000000;stroke-width:0.8;" x="59.690625" xlink:href="#m47892c6f78" y="127.968408"/>
      </g>
     </g>
     <g id="text_17">
      <!-- 16000 -->
      <g transform="translate(20.878125 131.767627)scale(0.1 -0.1)">
       <use xlink:href="#DejaVuSans-31"/>
       <use x="63.623047" xlink:href="#DejaVuSans-36"/>
       <use x="127.246094" xlink:href="#DejaVuSans-30"/>
       <use x="190.869141" xlink:href="#DejaVuSans-30"/>
       <use x="254.492188" xlink:href="#DejaVuSans-30"/>
      </g>
     </g>
    </g>
    <g id="ytick_5">
     <g id="line2d_34">
      <g>
       <use style="stroke:#000000;stroke-width:0.8;" x="59.690625" xlink:href="#m47892c6f78" y="75.54236"/>
      </g>
     </g>
     <g id="text_18">
      <!-- 18000 -->
      <g transform="translate(20.878125 79.341579)scale(0.1 -0.1)">
       <defs>
        <path d="M 2034 2216 
Q 1584 2216 1326 1975 
Q 1069 1734 1069 1313 
Q 1069 891 1326 650 
Q 1584 409 2034 409 
Q 2484 409 2743 651 
Q 3003 894 3003 1313 
Q 3003 1734 2745 1975 
Q 2488 2216 2034 2216 
z
M 1403 2484 
Q 997 2584 770 2862 
Q 544 3141 544 3541 
Q 544 4100 942 4425 
Q 1341 4750 2034 4750 
Q 2731 4750 3128 4425 
Q 3525 4100 3525 3541 
Q 3525 3141 3298 2862 
Q 3072 2584 2669 2484 
Q 3125 2378 3379 2068 
Q 3634 1759 3634 1313 
Q 3634 634 3220 271 
Q 2806 -91 2034 -91 
Q 1263 -91 848 271 
Q 434 634 434 1313 
Q 434 1759 690 2068 
Q 947 2378 1403 2484 
z
M 1172 3481 
Q 1172 3119 1398 2916 
Q 1625 2713 2034 2713 
Q 2441 2713 2670 2916 
Q 2900 3119 2900 3481 
Q 2900 3844 2670 4047 
Q 2441 4250 2034 4250 
Q 1625 4250 1398 4047 
Q 1172 3844 1172 3481 
z
" id="DejaVuSans-38" transform="scale(0.015625)"/>
       </defs>
       <use xlink:href="#DejaVuSans-31"/>
       <use x="63.623047" xlink:href="#DejaVuSans-38"/>
       <use x="127.246094" xlink:href="#DejaVuSans-30"/>
       <use x="190.869141" xlink:href="#DejaVuSans-30"/>
       <use x="254.492188" xlink:href="#DejaVuSans-30"/>
      </g>
     </g>
    </g>
    <g id="ytick_6">
     <g id="line2d_35">
      <g>
       <use style="stroke:#000000;stroke-width:0.8;" x="59.690625" xlink:href="#m47892c6f78" y="23.116312"/>
      </g>
     </g>
     <g id="text_19">
      <!-- 20000 -->
      <g transform="translate(20.878125 26.91553)scale(0.1 -0.1)">
       <use xlink:href="#DejaVuSans-32"/>
       <use x="63.623047" xlink:href="#DejaVuSans-30"/>
       <use x="127.246094" xlink:href="#DejaVuSans-30"/>
       <use x="190.869141" xlink:href="#DejaVuSans-30"/>
       <use x="254.492188" xlink:href="#DejaVuSans-30"/>
      </g>
     </g>
    </g>
    <g id="text_20">
     <!-- Code branch coverage -->
     <g transform="translate(14.798438 211.949125)rotate(-90)scale(0.1 -0.1)">
      <defs>
       <path d="M 4122 4306 
L 4122 3641 
Q 3803 3938 3442 4084 
Q 3081 4231 2675 4231 
Q 1875 4231 1450 3742 
Q 1025 3253 1025 2328 
Q 1025 1406 1450 917 
Q 1875 428 2675 428 
Q 3081 428 3442 575 
Q 3803 722 4122 1019 
L 4122 359 
Q 3791 134 3420 21 
Q 3050 -91 2638 -91 
Q 1578 -91 968 557 
Q 359 1206 359 2328 
Q 359 3453 968 4101 
Q 1578 4750 2638 4750 
Q 3056 4750 3426 4639 
Q 3797 4528 4122 4306 
z
" id="DejaVuSans-43" transform="scale(0.015625)"/>
       <path d="M 2906 2969 
L 2906 4863 
L 3481 4863 
L 3481 0 
L 2906 0 
L 2906 525 
Q 2725 213 2448 61 
Q 2172 -91 1784 -91 
Q 1150 -91 751 415 
Q 353 922 353 1747 
Q 353 2572 751 3078 
Q 1150 3584 1784 3584 
Q 2172 3584 2448 3432 
Q 2725 3281 2906 2969 
z
M 947 1747 
Q 947 1113 1208 752 
Q 1469 391 1925 391 
Q 2381 391 2643 752 
Q 2906 1113 2906 1747 
Q 2906 2381 2643 2742 
Q 2381 3103 1925 3103 
Q 1469 3103 1208 2742 
Q 947 2381 947 1747 
z
" id="DejaVuSans-64" transform="scale(0.015625)"/>
       <path d="M 3116 1747 
Q 3116 2381 2855 2742 
Q 2594 3103 2138 3103 
Q 1681 3103 1420 2742 
Q 1159 2381 1159 1747 
Q 1159 1113 1420 752 
Q 1681 391 2138 391 
Q 2594 391 2855 752 
Q 3116 1113 3116 1747 
z
M 1159 2969 
Q 1341 3281 1617 3432 
Q 1894 3584 2278 3584 
Q 2916 3584 3314 3078 
Q 3713 2572 3713 1747 
Q 3713 922 3314 415 
Q 2916 -91 2278 -91 
Q 1894 -91 1617 61 
Q 1341 213 1159 525 
L 1159 0 
L 581 0 
L 581 4863 
L 1159 4863 
L 1159 2969 
z
" id="DejaVuSans-62" transform="scale(0.015625)"/>
       <path d="M 2194 1759 
Q 1497 1759 1228 1600 
Q 959 1441 959 1056 
Q 959 750 1161 570 
Q 1363 391 1709 391 
Q 2188 391 2477 730 
Q 2766 1069 2766 1631 
L 2766 1759 
L 2194 1759 
z
M 3341 1997 
L 3341 0 
L 2766 0 
L 2766 531 
Q 2569 213 2275 61 
Q 1981 -91 1556 -91 
Q 1019 -91 701 211 
Q 384 513 384 1019 
Q 384 1609 779 1909 
Q 1175 2209 1959 2209 
L 2766 2209 
L 2766 2266 
Q 2766 2663 2505 2880 
Q 2244 3097 1772 3097 
Q 1472 3097 1187 3025 
Q 903 2953 641 2809 
L 641 3341 
Q 956 3463 1253 3523 
Q 1550 3584 1831 3584 
Q 2591 3584 2966 3190 
Q 3341 2797 3341 1997 
z
" id="DejaVuSans-61" transform="scale(0.015625)"/>
       <path d="M 3122 3366 
L 3122 2828 
Q 2878 2963 2633 3030 
Q 2388 3097 2138 3097 
Q 1578 3097 1268 2742 
Q 959 2388 959 1747 
Q 959 1106 1268 751 
Q 1578 397 2138 397 
Q 2388 397 2633 464 
Q 2878 531 3122 666 
L 3122 134 
Q 2881 22 2623 -34 
Q 2366 -91 2075 -91 
Q 1284 -91 818 406 
Q 353 903 353 1747 
Q 353 2603 823 3093 
Q 1294 3584 2113 3584 
Q 2378 3584 2631 3529 
Q 2884 3475 3122 3366 
z
" id="DejaVuSans-63" transform="scale(0.015625)"/>
       <path d="M 191 3500 
L 800 3500 
L 1894 563 
L 2988 3500 
L 3597 3500 
L 2284 0 
L 1503 0 
L 191 3500 
z
" id="DejaVuSans-76" transform="scale(0.015625)"/>
       <path d="M 2906 1791 
Q 2906 2416 2648 2759 
Q 2391 3103 1925 3103 
Q 1463 3103 1205 2759 
Q 947 2416 947 1791 
Q 947 1169 1205 825 
Q 1463 481 1925 481 
Q 2391 481 2648 825 
Q 2906 1169 2906 1791 
z
M 3481 434 
Q 3481 -459 3084 -895 
Q 2688 -1331 1869 -1331 
Q 1566 -1331 1297 -1286 
Q 1028 -1241 775 -1147 
L 775 -588 
Q 1028 -725 1275 -790 
Q 1522 -856 1778 -856 
Q 2344 -856 2625 -561 
Q 2906 -266 2906 331 
L 2906 616 
Q 2728 306 2450 153 
Q 2172 0 1784 0 
Q 1141 0 747 490 
Q 353 981 353 1791 
Q 353 2603 747 3093 
Q 1141 3584 1784 3584 
Q 2172 3584 2450 3431 
Q 2728 3278 2906 2969 
L 2906 3500 
L 3481 3500 
L 3481 434 
z
" id="DejaVuSans-67" transform="scale(0.015625)"/>
      </defs>
      <use xlink:href="#DejaVuSans-43"/>
      <use x="69.824219" xlink:href="#DejaVuSans-6f"/>
      <use x="131.005859" xlink:href="#DejaVuSans-64"/>
      <use x="194.482422" xlink:href="#DejaVuSans-65"/>
      <use x="256.005859" xlink:href="#DejaVuSans-20"/>
      <use x="287.792969" xlink:href="#DejaVuSans-62"/>
      <use x="351.269531" xlink:href="#DejaVuSans-72"/>
      <use x="392.382812" xlink:href="#DejaVuSans-61"/>
      <use x="453.662109" xlink:href="#DejaVuSans-6e"/>
      <use x="517.041016" xlink:href="#DejaVuSans-63"/>
      <use x="572.021484" xlink:href="#DejaVuSans-68"/>
      <use x="635.400391" xlink:href="#DejaVuSans-20"/>
      <use x="667.1875" xlink:href="#DejaVuSans-63"/>
      <use x="722.167969" xlink:href="#DejaVuSans-6f"/>
      <use x="783.349609" xlink:href="#DejaVuSans-76"/>
      <use x="842.529297" xlink:href="#DejaVuSans-65"/>
      <use x="904.052734" xlink:href="#DejaVuSans-72"/>
      <use x="945.166016" xlink:href="#DejaVuSans-61"/>
      <use x="1006.445312" xlink:href="#DejaVuSans-67"/>
      <use x="1069.921875" xlink:href="#DejaVuSans-65"/>
     </g>
    </g>
   </g>
   <g id="line2d_36">
    <path clip-path="url(#p3565ad6cc3)" d="M 92.15608 256.228735 
L 191.688987 231.509854 
L 249.912006 217.512099 
L 291.221895 207.459404 
L 323.264335 201.456621 
L 349.444914 195.506265 
L 371.580278 188.454961 
L 390.754803 184.32641 
L 407.667933 181.167741 
L 422.797242 176.279012 
L 436.483368 173.814987 
L 448.977822 171.508241 
L 460.471605 168.572383 
L 471.113186 164.129275 
L 481.020261 160.197321 
L 490.287711 157.313889 
L 498.993142 155.334805 
L 507.20084 154.469776 
L 514.964657 151.009656 
L 522.33015 148.335928 
L 529.336205 145.675306 
L 536.016276 143.814181 
L 542.399355 138.833707 
L 548.51073 137.43131 
L 554.37259 135.334268 
L 560.004513 128.41403 
L 565.423859 126.041751 
L 570.646094 124.980123 
L 575.685054 120.772933 
L 580.553169 116.133228 
L 585.261644 112.869706 
L 589.820619 109.003285 
L 594.239294 106.748965 
L 598.52605 105.412101 
L 602.688533 103.144674 
L 606.733748 101.951982 
L 610.668121 100.785502 
L 614.497565 100.366094 
L 618.227531 98.151093 
L 621.863058 96.827336 
L 625.408809 96.080264 
L 628.869113 95.189022 
L 632.247989 91.217748 
L 635.549184 90.221653 
L 638.776188 87.888694 
L 641.932263 87.220262 
L 645.02046 86.407658 
L 648.043637 85.713013 
L 651.004477 84.992155 
L 653.905497 81.17816 
L 656.749068 79.762657 
L 659.537421 77.770467 
L 662.272658 74.873928 
L 664.956767 70.69295 
L 667.591623 68.451737 
L 670.179002 66.446441 
L 672.720584 64.912979 
L 675.217962 64.100375 
L 677.672648 63.458156 
L 680.086077 61.898481 
L 682.459612 60.561617 
L 684.794552 59.696587 
L 687.092131 58.792237 
L 689.353527 58.412149 
L 691.57986 57.442267 
L 693.772202 55.253479 
L 695.931576 53.4841 
L 698.058957 52.474899 
L 700.155281 51.622975 
L 702.221441 51.046289 
L 704.258293 50.128833 
L 706.266656 48.844395 
L 708.247317 48.503625 
L 710.201029 47.58617 
L 712.128516 46.917738 
L 714.030473 46.45901 
L 715.907567 46.223092 
L 717.760439 45.226997 
L 719.589708 44.532352 
L 721.395966 44.12605 
L 723.179786 42.946464 
L 724.941717 42.566376 
L 726.682292 41.688239 
L 728.40202 40.980488 
L 730.101397 40.312055 
L 731.780897 40.036819 
L 733.440981 39.302854 
L 735.082091 39.211108 
L 736.704658 38.726167 
L 738.309095 38.477144 
L 739.895804 38.175694 
L 741.46517 36.642232 
" style="fill:none;stroke:#1f77b4;stroke-linecap:square;stroke-width:1.5;"/>
    <defs>
     <path d="M 0 3 
C 0.795609 3 1.55874 2.683901 2.12132 2.12132 
C 2.683901 1.55874 3 0.795609 3 0 
C 3 -0.795609 2.683901 -1.55874 2.12132 -2.12132 
C 1.55874 -2.683901 0.795609 -3 0 -3 
C -0.795609 -3 -1.55874 -2.683901 -2.12132 -2.12132 
C -2.683901 -1.55874 -3 -0.795609 -3 0 
C -3 0.795609 -2.683901 1.55874 -2.12132 2.12132 
C -1.55874 2.683901 -0.795609 3 0 3 
z
" id="mfbede6bb5c" style="stroke:#ffffff;stroke-width:0.75;"/>
    </defs>
    <g clip-path="url(#p3565ad6cc3)">
     <use style="fill:#1f77b4;stroke:#ffffff;stroke-width:0.75;" x="92.15608" xlink:href="#mfbede6bb5c" y="256.228735"/>
     <use style="fill:#1f77b4;stroke:#ffffff;stroke-width:0.75;" x="191.688987" xlink:href="#mfbede6bb5c" y="231.509854"/>
     <use style="fill:#1f77b4;stroke:#ffffff;stroke-width:0.75;" x="249.912006" xlink:href="#mfbede6bb5c" y="217.512099"/>
     <use style="fill:#1f77b4;stroke:#ffffff;stroke-width:0.75;" x="291.221895" xlink:href="#mfbede6bb5c" y="207.459404"/>
     <use style="fill:#1f77b4;stroke:#ffffff;stroke-width:0.75;" x="323.264335" xlink:href="#mfbede6bb5c" y="201.456621"/>
     <use style="fill:#1f77b4;stroke:#ffffff;stroke-width:0.75;" x="349.444914" xlink:href="#mfbede6bb5c" y="195.506265"/>
     <use style="fill:#1f77b4;stroke:#ffffff;stroke-width:0.75;" x="371.580278" xlink:href="#mfbede6bb5c" y="188.454961"/>
     <use style="fill:#1f77b4;stroke:#ffffff;stroke-width:0.75;" x="390.754803" xlink:href="#mfbede6bb5c" y="184.32641"/>
     <use style="fill:#1f77b4;stroke:#ffffff;stroke-width:0.75;" x="407.667933" xlink:href="#mfbede6bb5c" y="181.167741"/>
     <use style="fill:#1f77b4;stroke:#ffffff;stroke-width:0.75;" x="422.797242" xlink:href="#mfbede6bb5c" y="176.279012"/>
     <use style="fill:#1f77b4;stroke:#ffffff;stroke-width:0.75;" x="436.483368" xlink:href="#mfbede6bb5c" y="173.814987"/>
     <use style="fill:#1f77b4;stroke:#ffffff;stroke-width:0.75;" x="448.977822" xlink:href="#mfbede6bb5c" y="171.508241"/>
     <use style="fill:#1f77b4;stroke:#ffffff;stroke-width:0.75;" x="460.471605" xlink:href="#mfbede6bb5c" y="168.572383"/>
     <use style="fill:#1f77b4;stroke:#ffffff;stroke-width:0.75;" x="471.113186" xlink:href="#mfbede6bb5c" y="164.129275"/>
     <use style="fill:#1f77b4;stroke:#ffffff;stroke-width:0.75;" x="481.020261" xlink:href="#mfbede6bb5c" y="160.197321"/>
     <use style="fill:#1f77b4;stroke:#ffffff;stroke-width:0.75;" x="490.287711" xlink:href="#mfbede6bb5c" y="157.313889"/>
     <use style="fill:#1f77b4;stroke:#ffffff;stroke-width:0.75;" x="498.993142" xlink:href="#mfbede6bb5c" y="155.334805"/>
     <use style="fill:#1f77b4;stroke:#ffffff;stroke-width:0.75;" x="507.20084" xlink:href="#mfbede6bb5c" y="154.469776"/>
     <use style="fill:#1f77b4;stroke:#ffffff;stroke-width:0.75;" x="514.964657" xlink:href="#mfbede6bb5c" y="151.009656"/>
     <use style="fill:#1f77b4;stroke:#ffffff;stroke-width:0.75;" x="522.33015" xlink:href="#mfbede6bb5c" y="148.335928"/>
     <use style="fill:#1f77b4;stroke:#ffffff;stroke-width:0.75;" x="529.336205" xlink:href="#mfbede6bb5c" y="145.675306"/>
     <use style="fill:#1f77b4;stroke:#ffffff;stroke-width:0.75;" x="536.016276" xlink:href="#mfbede6bb5c" y="143.814181"/>
     <use style="fill:#1f77b4;stroke:#ffffff;stroke-width:0.75;" x="542.399355" xlink:href="#mfbede6bb5c" y="138.833707"/>
     <use style="fill:#1f77b4;stroke:#ffffff;stroke-width:0.75;" x="548.51073" xlink:href="#mfbede6bb5c" y="137.43131"/>
     <use style="fill:#1f77b4;stroke:#ffffff;stroke-width:0.75;" x="554.37259" xlink:href="#mfbede6bb5c" y="135.334268"/>
     <use style="fill:#1f77b4;stroke:#ffffff;stroke-width:0.75;" x="560.004513" xlink:href="#mfbede6bb5c" y="128.41403"/>
     <use style="fill:#1f77b4;stroke:#ffffff;stroke-width:0.75;" x="565.423859" xlink:href="#mfbede6bb5c" y="126.041751"/>
     <use style="fill:#1f77b4;stroke:#ffffff;stroke-width:0.75;" x="570.646094" xlink:href="#mfbede6bb5c" y="124.980123"/>
     <use style="fill:#1f77b4;stroke:#ffffff;stroke-width:0.75;" x="575.685054" xlink:href="#mfbede6bb5c" y="120.772933"/>
     <use style="fill:#1f77b4;stroke:#ffffff;stroke-width:0.75;" x="580.553169" xlink:href="#mfbede6bb5c" y="116.133228"/>
     <use style="fill:#1f77b4;stroke:#ffffff;stroke-width:0.75;" x="585.261644" xlink:href="#mfbede6bb5c" y="112.869706"/>
     <use style="fill:#1f77b4;stroke:#ffffff;stroke-width:0.75;" x="589.820619" xlink:href="#mfbede6bb5c" y="109.003285"/>
     <use style="fill:#1f77b4;stroke:#ffffff;stroke-width:0.75;" x="594.239294" xlink:href="#mfbede6bb5c" y="106.748965"/>
     <use style="fill:#1f77b4;stroke:#ffffff;stroke-width:0.75;" x="598.52605" xlink:href="#mfbede6bb5c" y="105.412101"/>
     <use style="fill:#1f77b4;stroke:#ffffff;stroke-width:0.75;" x="602.688533" xlink:href="#mfbede6bb5c" y="103.144674"/>
     <use style="fill:#1f77b4;stroke:#ffffff;stroke-width:0.75;" x="606.733748" xlink:href="#mfbede6bb5c" y="101.951982"/>
     <use style="fill:#1f77b4;stroke:#ffffff;stroke-width:0.75;" x="610.668121" xlink:href="#mfbede6bb5c" y="100.785502"/>
     <use style="fill:#1f77b4;stroke:#ffffff;stroke-width:0.75;" x="614.497565" xlink:href="#mfbede6bb5c" y="100.366094"/>
     <use style="fill:#1f77b4;stroke:#ffffff;stroke-width:0.75;" x="618.227531" xlink:href="#mfbede6bb5c" y="98.151093"/>
     <use style="fill:#1f77b4;stroke:#ffffff;stroke-width:0.75;" x="621.863058" xlink:href="#mfbede6bb5c" y="96.827336"/>
     <use style="fill:#1f77b4;stroke:#ffffff;stroke-width:0.75;" x="625.408809" xlink:href="#mfbede6bb5c" y="96.080264"/>
     <use style="fill:#1f77b4;stroke:#ffffff;stroke-width:0.75;" x="628.869113" xlink:href="#mfbede6bb5c" y="95.189022"/>
     <use style="fill:#1f77b4;stroke:#ffffff;stroke-width:0.75;" x="632.247989" xlink:href="#mfbede6bb5c" y="91.217748"/>
     <use style="fill:#1f77b4;stroke:#ffffff;stroke-width:0.75;" x="635.549184" xlink:href="#mfbede6bb5c" y="90.221653"/>
     <use style="fill:#1f77b4;stroke:#ffffff;stroke-width:0.75;" x="638.776188" xlink:href="#mfbede6bb5c" y="87.888694"/>
     <use style="fill:#1f77b4;stroke:#ffffff;stroke-width:0.75;" x="641.932263" xlink:href="#mfbede6bb5c" y="87.220262"/>
     <use style="fill:#1f77b4;stroke:#ffffff;stroke-width:0.75;" x="645.02046" xlink:href="#mfbede6bb5c" y="86.407658"/>
     <use style="fill:#1f77b4;stroke:#ffffff;stroke-width:0.75;" x="648.043637" xlink:href="#mfbede6bb5c" y="85.713013"/>
     <use style="fill:#1f77b4;stroke:#ffffff;stroke-width:0.75;" x="651.004477" xlink:href="#mfbede6bb5c" y="84.992155"/>
     <use style="fill:#1f77b4;stroke:#ffffff;stroke-width:0.75;" x="653.905497" xlink:href="#mfbede6bb5c" y="81.17816"/>
     <use style="fill:#1f77b4;stroke:#ffffff;stroke-width:0.75;" x="656.749068" xlink:href="#mfbede6bb5c" y="79.762657"/>
     <use style="fill:#1f77b4;stroke:#ffffff;stroke-width:0.75;" x="659.537421" xlink:href="#mfbede6bb5c" y="77.770467"/>
     <use style="fill:#1f77b4;stroke:#ffffff;stroke-width:0.75;" x="662.272658" xlink:href="#mfbede6bb5c" y="74.873928"/>
     <use style="fill:#1f77b4;stroke:#ffffff;stroke-width:0.75;" x="664.956767" xlink:href="#mfbede6bb5c" y="70.69295"/>
     <use style="fill:#1f77b4;stroke:#ffffff;stroke-width:0.75;" x="667.591623" xlink:href="#mfbede6bb5c" y="68.451737"/>
     <use style="fill:#1f77b4;stroke:#ffffff;stroke-width:0.75;" x="670.179002" xlink:href="#mfbede6bb5c" y="66.446441"/>
     <use style="fill:#1f77b4;stroke:#ffffff;stroke-width:0.75;" x="672.720584" xlink:href="#mfbede6bb5c" y="64.912979"/>
     <use style="fill:#1f77b4;stroke:#ffffff;stroke-width:0.75;" x="675.217962" xlink:href="#mfbede6bb5c" y="64.100375"/>
     <use style="fill:#1f77b4;stroke:#ffffff;stroke-width:0.75;" x="677.672648" xlink:href="#mfbede6bb5c" y="63.458156"/>
     <use style="fill:#1f77b4;stroke:#ffffff;stroke-width:0.75;" x="680.086077" xlink:href="#mfbede6bb5c" y="61.898481"/>
     <use style="fill:#1f77b4;stroke:#ffffff;stroke-width:0.75;" x="682.459612" xlink:href="#mfbede6bb5c" y="60.561617"/>
     <use style="fill:#1f77b4;stroke:#ffffff;stroke-width:0.75;" x="684.794552" xlink:href="#mfbede6bb5c" y="59.696587"/>
     <use style="fill:#1f77b4;stroke:#ffffff;stroke-width:0.75;" x="687.092131" xlink:href="#mfbede6bb5c" y="58.792237"/>
     <use style="fill:#1f77b4;stroke:#ffffff;stroke-width:0.75;" x="689.353527" xlink:href="#mfbede6bb5c" y="58.412149"/>
     <use style="fill:#1f77b4;stroke:#ffffff;stroke-width:0.75;" x="691.57986" xlink:href="#mfbede6bb5c" y="57.442267"/>
     <use style="fill:#1f77b4;stroke:#ffffff;stroke-width:0.75;" x="693.772202" xlink:href="#mfbede6bb5c" y="55.253479"/>
     <use style="fill:#1f77b4;stroke:#ffffff;stroke-width:0.75;" x="695.931576" xlink:href="#mfbede6bb5c" y="53.4841"/>
     <use style="fill:#1f77b4;stroke:#ffffff;stroke-width:0.75;" x="698.058957" xlink:href="#mfbede6bb5c" y="52.474899"/>
     <use style="fill:#1f77b4;stroke:#ffffff;stroke-width:0.75;" x="700.155281" xlink:href="#mfbede6bb5c" y="51.622975"/>
     <use style="fill:#1f77b4;stroke:#ffffff;stroke-width:0.75;" x="702.221441" xlink:href="#mfbede6bb5c" y="51.046289"/>
     <use style="fill:#1f77b4;stroke:#ffffff;stroke-width:0.75;" x="704.258293" xlink:href="#mfbede6bb5c" y="50.128833"/>
     <use style="fill:#1f77b4;stroke:#ffffff;stroke-width:0.75;" x="706.266656" xlink:href="#mfbede6bb5c" y="48.844395"/>
     <use style="fill:#1f77b4;stroke:#ffffff;stroke-width:0.75;" x="708.247317" xlink:href="#mfbede6bb5c" y="48.503625"/>
     <use style="fill:#1f77b4;stroke:#ffffff;stroke-width:0.75;" x="710.201029" xlink:href="#mfbede6bb5c" y="47.58617"/>
     <use style="fill:#1f77b4;stroke:#ffffff;stroke-width:0.75;" x="712.128516" xlink:href="#mfbede6bb5c" y="46.917738"/>
     <use style="fill:#1f77b4;stroke:#ffffff;stroke-width:0.75;" x="714.030473" xlink:href="#mfbede6bb5c" y="46.45901"/>
     <use style="fill:#1f77b4;stroke:#ffffff;stroke-width:0.75;" x="715.907567" xlink:href="#mfbede6bb5c" y="46.223092"/>
     <use style="fill:#1f77b4;stroke:#ffffff;stroke-width:0.75;" x="717.760439" xlink:href="#mfbede6bb5c" y="45.226997"/>
     <use style="fill:#1f77b4;stroke:#ffffff;stroke-width:0.75;" x="719.589708" xlink:href="#mfbede6bb5c" y="44.532352"/>
     <use style="fill:#1f77b4;stroke:#ffffff;stroke-width:0.75;" x="721.395966" xlink:href="#mfbede6bb5c" y="44.12605"/>
     <use style="fill:#1f77b4;stroke:#ffffff;stroke-width:0.75;" x="723.179786" xlink:href="#mfbede6bb5c" y="42.946464"/>
     <use style="fill:#1f77b4;stroke:#ffffff;stroke-width:0.75;" x="724.941717" xlink:href="#mfbede6bb5c" y="42.566376"/>
     <use style="fill:#1f77b4;stroke:#ffffff;stroke-width:0.75;" x="726.682292" xlink:href="#mfbede6bb5c" y="41.688239"/>
     <use style="fill:#1f77b4;stroke:#ffffff;stroke-width:0.75;" x="728.40202" xlink:href="#mfbede6bb5c" y="40.980488"/>
     <use style="fill:#1f77b4;stroke:#ffffff;stroke-width:0.75;" x="730.101397" xlink:href="#mfbede6bb5c" y="40.312055"/>
     <use style="fill:#1f77b4;stroke:#ffffff;stroke-width:0.75;" x="731.780897" xlink:href="#mfbede6bb5c" y="40.036819"/>
     <use style="fill:#1f77b4;stroke:#ffffff;stroke-width:0.75;" x="733.440981" xlink:href="#mfbede6bb5c" y="39.302854"/>
     <use style="fill:#1f77b4;stroke:#ffffff;stroke-width:0.75;" x="735.082091" xlink:href="#mfbede6bb5c" y="39.211108"/>
     <use style="fill:#1f77b4;stroke:#ffffff;stroke-width:0.75;" x="736.704658" xlink:href="#mfbede6bb5c" y="38.726167"/>
     <use style="fill:#1f77b4;stroke:#ffffff;stroke-width:0.75;" x="738.309095" xlink:href="#mfbede6bb5c" y="38.477144"/>
     <use style="fill:#1f77b4;stroke:#ffffff;stroke-width:0.75;" x="739.895804" xlink:href="#mfbede6bb5c" y="38.175694"/>
     <use style="fill:#1f77b4;stroke:#ffffff;stroke-width:0.75;" x="741.46517" xlink:href="#mfbede6bb5c" y="36.642232"/>
    </g>
   </g>
   <g id="line2d_37">
    <path clip-path="url(#p3565ad6cc3)" d="M 92.15608 268.142555 
L 191.688987 245.206159 
L 249.912006 231.798197 
L 291.221895 219.491182 
L 323.264335 213.042778 
L 349.444914 206.319137 
L 371.580278 198.796 
L 390.754803 195.833928 
L 407.667933 194.51017 
L 422.797242 192.688365 
L 436.483368 189.084074 
L 448.977822 183.828363 
L 460.471605 180.64348 
L 471.113186 178.900314 
L 481.020261 176.226586 
L 490.287711 171.744159 
L 498.993142 168.598596 
L 507.20084 167.287944 
L 514.964657 165.42682 
L 522.33015 163.146287 
L 529.336205 161.901168 
L 536.016276 161.14099 
L 542.399355 156.658563 
L 548.51073 152.464479 
L 554.37259 147.693709 
L 560.004513 140.24921 
L 565.423859 135.70125 
L 570.646094 133.460037 
L 575.685054 132.267344 
L 580.553169 130.642137 
L 585.261644 129.187314 
L 589.820619 128.309178 
L 594.239294 126.277668 
L 598.52605 124.862165 
L 602.688533 124.115094 
L 606.733748 121.323407 
L 610.668121 118.295802 
L 614.497565 116.854086 
L 618.227531 115.084707 
L 621.863058 114.127931 
L 625.408809 111.768759 
L 628.869113 110.30083 
L 632.247989 109.763463 
L 635.549184 108.269321 
L 638.776188 106.91935 
L 641.932263 106.31645 
L 645.02046 105.018906 
L 648.043637 104.245621 
L 651.004477 103.446124 
L 653.905497 102.41071 
L 656.749068 101.571893 
L 659.537421 100.3792 
L 662.272658 99.894259 
L 664.956767 98.373904 
L 667.591623 98.020028 
L 670.179002 96.853549 
L 672.720584 95.582217 
L 675.217962 94.559909 
L 677.672648 92.960914 
L 680.086077 90.693488 
L 682.459612 89.356624 
L 684.794552 86.81396 
L 687.092131 85.214966 
L 689.353527 84.048486 
L 691.57986 83.157243 
L 693.772202 82.266001 
L 695.931576 81.610675 
L 698.058957 81.033988 
L 700.155281 80.601474 
L 702.221441 80.483515 
L 704.258293 80.247598 
L 706.266656 79.657805 
L 708.247317 78.609284 
L 710.201029 77.416591 
L 712.128516 76.315644 
L 714.030473 75.004993 
L 715.907567 74.782182 
L 717.760439 74.402093 
L 719.589708 73.340466 
L 721.395966 71.531767 
L 723.179786 69.500258 
L 724.941717 69.146382 
L 726.682292 68.884252 
L 728.40202 67.796411 
L 730.101397 66.616825 
L 731.780897 64.257653 
L 733.440981 63.287771 
L 735.082091 62.488274 
L 736.704658 61.597031 
L 738.309095 60.941705 
L 739.895804 60.129102 
L 741.46517 59.631054 
" style="fill:none;stroke:#98df8a;stroke-linecap:square;stroke-width:1.5;"/>
    <defs>
     <path d="M -0 3 
L 3 -3 
L -3 -3 
z
" id="ma651d2f90c" style="stroke:#ffffff;stroke-linejoin:miter;stroke-width:0.75;"/>
    </defs>
    <g clip-path="url(#p3565ad6cc3)">
     <use style="fill:#98df8a;stroke:#ffffff;stroke-linejoin:miter;stroke-width:0.75;" x="92.15608" xlink:href="#ma651d2f90c" y="268.142555"/>
     <use style="fill:#98df8a;stroke:#ffffff;stroke-linejoin:miter;stroke-width:0.75;" x="191.688987" xlink:href="#ma651d2f90c" y="245.206159"/>
     <use style="fill:#98df8a;stroke:#ffffff;stroke-linejoin:miter;stroke-width:0.75;" x="249.912006" xlink:href="#ma651d2f90c" y="231.798197"/>
     <use style="fill:#98df8a;stroke:#ffffff;stroke-linejoin:miter;stroke-width:0.75;" x="291.221895" xlink:href="#ma651d2f90c" y="219.491182"/>
     <use style="fill:#98df8a;stroke:#ffffff;stroke-linejoin:miter;stroke-width:0.75;" x="323.264335" xlink:href="#ma651d2f90c" y="213.042778"/>
     <use style="fill:#98df8a;stroke:#ffffff;stroke-linejoin:miter;stroke-width:0.75;" x="349.444914" xlink:href="#ma651d2f90c" y="206.319137"/>
     <use style="fill:#98df8a;stroke:#ffffff;stroke-linejoin:miter;stroke-width:0.75;" x="371.580278" xlink:href="#ma651d2f90c" y="198.796"/>
     <use style="fill:#98df8a;stroke:#ffffff;stroke-linejoin:miter;stroke-width:0.75;" x="390.754803" xlink:href="#ma651d2f90c" y="195.833928"/>
     <use style="fill:#98df8a;stroke:#ffffff;stroke-linejoin:miter;stroke-width:0.75;" x="407.667933" xlink:href="#ma651d2f90c" y="194.51017"/>
     <use style="fill:#98df8a;stroke:#ffffff;stroke-linejoin:miter;stroke-width:0.75;" x="422.797242" xlink:href="#ma651d2f90c" y="192.688365"/>
     <use style="fill:#98df8a;stroke:#ffffff;stroke-linejoin:miter;stroke-width:0.75;" x="436.483368" xlink:href="#ma651d2f90c" y="189.084074"/>
     <use style="fill:#98df8a;stroke:#ffffff;stroke-linejoin:miter;stroke-width:0.75;" x="448.977822" xlink:href="#ma651d2f90c" y="183.828363"/>
     <use style="fill:#98df8a;stroke:#ffffff;stroke-linejoin:miter;stroke-width:0.75;" x="460.471605" xlink:href="#ma651d2f90c" y="180.64348"/>
     <use style="fill:#98df8a;stroke:#ffffff;stroke-linejoin:miter;stroke-width:0.75;" x="471.113186" xlink:href="#ma651d2f90c" y="178.900314"/>
     <use style="fill:#98df8a;stroke:#ffffff;stroke-linejoin:miter;stroke-width:0.75;" x="481.020261" xlink:href="#ma651d2f90c" y="176.226586"/>
     <use style="fill:#98df8a;stroke:#ffffff;stroke-linejoin:miter;stroke-width:0.75;" x="490.287711" xlink:href="#ma651d2f90c" y="171.744159"/>
     <use style="fill:#98df8a;stroke:#ffffff;stroke-linejoin:miter;stroke-width:0.75;" x="498.993142" xlink:href="#ma651d2f90c" y="168.598596"/>
     <use style="fill:#98df8a;stroke:#ffffff;stroke-linejoin:miter;stroke-width:0.75;" x="507.20084" xlink:href="#ma651d2f90c" y="167.287944"/>
     <use style="fill:#98df8a;stroke:#ffffff;stroke-linejoin:miter;stroke-width:0.75;" x="514.964657" xlink:href="#ma651d2f90c" y="165.42682"/>
     <use style="fill:#98df8a;stroke:#ffffff;stroke-linejoin:miter;stroke-width:0.75;" x="522.33015" xlink:href="#ma651d2f90c" y="163.146287"/>
     <use style="fill:#98df8a;stroke:#ffffff;stroke-linejoin:miter;stroke-width:0.75;" x="529.336205" xlink:href="#ma651d2f90c" y="161.901168"/>
     <use style="fill:#98df8a;stroke:#ffffff;stroke-linejoin:miter;stroke-width:0.75;" x="536.016276" xlink:href="#ma651d2f90c" y="161.14099"/>
     <use style="fill:#98df8a;stroke:#ffffff;stroke-linejoin:miter;stroke-width:0.75;" x="542.399355" xlink:href="#ma651d2f90c" y="156.658563"/>
     <use style="fill:#98df8a;stroke:#ffffff;stroke-linejoin:miter;stroke-width:0.75;" x="548.51073" xlink:href="#ma651d2f90c" y="152.464479"/>
     <use style="fill:#98df8a;stroke:#ffffff;stroke-linejoin:miter;stroke-width:0.75;" x="554.37259" xlink:href="#ma651d2f90c" y="147.693709"/>
     <use style="fill:#98df8a;stroke:#ffffff;stroke-linejoin:miter;stroke-width:0.75;" x="560.004513" xlink:href="#ma651d2f90c" y="140.24921"/>
     <use style="fill:#98df8a;stroke:#ffffff;stroke-linejoin:miter;stroke-width:0.75;" x="565.423859" xlink:href="#ma651d2f90c" y="135.70125"/>
     <use style="fill:#98df8a;stroke:#ffffff;stroke-linejoin:miter;stroke-width:0.75;" x="570.646094" xlink:href="#ma651d2f90c" y="133.460037"/>
     <use style="fill:#98df8a;stroke:#ffffff;stroke-linejoin:miter;stroke-width:0.75;" x="575.685054" xlink:href="#ma651d2f90c" y="132.267344"/>
     <use style="fill:#98df8a;stroke:#ffffff;stroke-linejoin:miter;stroke-width:0.75;" x="580.553169" xlink:href="#ma651d2f90c" y="130.642137"/>
     <use style="fill:#98df8a;stroke:#ffffff;stroke-linejoin:miter;stroke-width:0.75;" x="585.261644" xlink:href="#ma651d2f90c" y="129.187314"/>
     <use style="fill:#98df8a;stroke:#ffffff;stroke-linejoin:miter;stroke-width:0.75;" x="589.820619" xlink:href="#ma651d2f90c" y="128.309178"/>
     <use style="fill:#98df8a;stroke:#ffffff;stroke-linejoin:miter;stroke-width:0.75;" x="594.239294" xlink:href="#ma651d2f90c" y="126.277668"/>
     <use style="fill:#98df8a;stroke:#ffffff;stroke-linejoin:miter;stroke-width:0.75;" x="598.52605" xlink:href="#ma651d2f90c" y="124.862165"/>
     <use style="fill:#98df8a;stroke:#ffffff;stroke-linejoin:miter;stroke-width:0.75;" x="602.688533" xlink:href="#ma651d2f90c" y="124.115094"/>
     <use style="fill:#98df8a;stroke:#ffffff;stroke-linejoin:miter;stroke-width:0.75;" x="606.733748" xlink:href="#ma651d2f90c" y="121.323407"/>
     <use style="fill:#98df8a;stroke:#ffffff;stroke-linejoin:miter;stroke-width:0.75;" x="610.668121" xlink:href="#ma651d2f90c" y="118.295802"/>
     <use style="fill:#98df8a;stroke:#ffffff;stroke-linejoin:miter;stroke-width:0.75;" x="614.497565" xlink:href="#ma651d2f90c" y="116.854086"/>
     <use style="fill:#98df8a;stroke:#ffffff;stroke-linejoin:miter;stroke-width:0.75;" x="618.227531" xlink:href="#ma651d2f90c" y="115.084707"/>
     <use style="fill:#98df8a;stroke:#ffffff;stroke-linejoin:miter;stroke-width:0.75;" x="621.863058" xlink:href="#ma651d2f90c" y="114.127931"/>
     <use style="fill:#98df8a;stroke:#ffffff;stroke-linejoin:miter;stroke-width:0.75;" x="625.408809" xlink:href="#ma651d2f90c" y="111.768759"/>
     <use style="fill:#98df8a;stroke:#ffffff;stroke-linejoin:miter;stroke-width:0.75;" x="628.869113" xlink:href="#ma651d2f90c" y="110.30083"/>
     <use style="fill:#98df8a;stroke:#ffffff;stroke-linejoin:miter;stroke-width:0.75;" x="632.247989" xlink:href="#ma651d2f90c" y="109.763463"/>
     <use style="fill:#98df8a;stroke:#ffffff;stroke-linejoin:miter;stroke-width:0.75;" x="635.549184" xlink:href="#ma651d2f90c" y="108.269321"/>
     <use style="fill:#98df8a;stroke:#ffffff;stroke-linejoin:miter;stroke-width:0.75;" x="638.776188" xlink:href="#ma651d2f90c" y="106.91935"/>
     <use style="fill:#98df8a;stroke:#ffffff;stroke-linejoin:miter;stroke-width:0.75;" x="641.932263" xlink:href="#ma651d2f90c" y="106.31645"/>
     <use style="fill:#98df8a;stroke:#ffffff;stroke-linejoin:miter;stroke-width:0.75;" x="645.02046" xlink:href="#ma651d2f90c" y="105.018906"/>
     <use style="fill:#98df8a;stroke:#ffffff;stroke-linejoin:miter;stroke-width:0.75;" x="648.043637" xlink:href="#ma651d2f90c" y="104.245621"/>
     <use style="fill:#98df8a;stroke:#ffffff;stroke-linejoin:miter;stroke-width:0.75;" x="651.004477" xlink:href="#ma651d2f90c" y="103.446124"/>
     <use style="fill:#98df8a;stroke:#ffffff;stroke-linejoin:miter;stroke-width:0.75;" x="653.905497" xlink:href="#ma651d2f90c" y="102.41071"/>
     <use style="fill:#98df8a;stroke:#ffffff;stroke-linejoin:miter;stroke-width:0.75;" x="656.749068" xlink:href="#ma651d2f90c" y="101.571893"/>
     <use style="fill:#98df8a;stroke:#ffffff;stroke-linejoin:miter;stroke-width:0.75;" x="659.537421" xlink:href="#ma651d2f90c" y="100.3792"/>
     <use style="fill:#98df8a;stroke:#ffffff;stroke-linejoin:miter;stroke-width:0.75;" x="662.272658" xlink:href="#ma651d2f90c" y="99.894259"/>
     <use style="fill:#98df8a;stroke:#ffffff;stroke-linejoin:miter;stroke-width:0.75;" x="664.956767" xlink:href="#ma651d2f90c" y="98.373904"/>
     <use style="fill:#98df8a;stroke:#ffffff;stroke-linejoin:miter;stroke-width:0.75;" x="667.591623" xlink:href="#ma651d2f90c" y="98.020028"/>
     <use style="fill:#98df8a;stroke:#ffffff;stroke-linejoin:miter;stroke-width:0.75;" x="670.179002" xlink:href="#ma651d2f90c" y="96.853549"/>
     <use style="fill:#98df8a;stroke:#ffffff;stroke-linejoin:miter;stroke-width:0.75;" x="672.720584" xlink:href="#ma651d2f90c" y="95.582217"/>
     <use style="fill:#98df8a;stroke:#ffffff;stroke-linejoin:miter;stroke-width:0.75;" x="675.217962" xlink:href="#ma651d2f90c" y="94.559909"/>
     <use style="fill:#98df8a;stroke:#ffffff;stroke-linejoin:miter;stroke-width:0.75;" x="677.672648" xlink:href="#ma651d2f90c" y="92.960914"/>
     <use style="fill:#98df8a;stroke:#ffffff;stroke-linejoin:miter;stroke-width:0.75;" x="680.086077" xlink:href="#ma651d2f90c" y="90.693488"/>
     <use style="fill:#98df8a;stroke:#ffffff;stroke-linejoin:miter;stroke-width:0.75;" x="682.459612" xlink:href="#ma651d2f90c" y="89.356624"/>
     <use style="fill:#98df8a;stroke:#ffffff;stroke-linejoin:miter;stroke-width:0.75;" x="684.794552" xlink:href="#ma651d2f90c" y="86.81396"/>
     <use style="fill:#98df8a;stroke:#ffffff;stroke-linejoin:miter;stroke-width:0.75;" x="687.092131" xlink:href="#ma651d2f90c" y="85.214966"/>
     <use style="fill:#98df8a;stroke:#ffffff;stroke-linejoin:miter;stroke-width:0.75;" x="689.353527" xlink:href="#ma651d2f90c" y="84.048486"/>
     <use style="fill:#98df8a;stroke:#ffffff;stroke-linejoin:miter;stroke-width:0.75;" x="691.57986" xlink:href="#ma651d2f90c" y="83.157243"/>
     <use style="fill:#98df8a;stroke:#ffffff;stroke-linejoin:miter;stroke-width:0.75;" x="693.772202" xlink:href="#ma651d2f90c" y="82.266001"/>
     <use style="fill:#98df8a;stroke:#ffffff;stroke-linejoin:miter;stroke-width:0.75;" x="695.931576" xlink:href="#ma651d2f90c" y="81.610675"/>
     <use style="fill:#98df8a;stroke:#ffffff;stroke-linejoin:miter;stroke-width:0.75;" x="698.058957" xlink:href="#ma651d2f90c" y="81.033988"/>
     <use style="fill:#98df8a;stroke:#ffffff;stroke-linejoin:miter;stroke-width:0.75;" x="700.155281" xlink:href="#ma651d2f90c" y="80.601474"/>
     <use style="fill:#98df8a;stroke:#ffffff;stroke-linejoin:miter;stroke-width:0.75;" x="702.221441" xlink:href="#ma651d2f90c" y="80.483515"/>
     <use style="fill:#98df8a;stroke:#ffffff;stroke-linejoin:miter;stroke-width:0.75;" x="704.258293" xlink:href="#ma651d2f90c" y="80.247598"/>
     <use style="fill:#98df8a;stroke:#ffffff;stroke-linejoin:miter;stroke-width:0.75;" x="706.266656" xlink:href="#ma651d2f90c" y="79.657805"/>
     <use style="fill:#98df8a;stroke:#ffffff;stroke-linejoin:miter;stroke-width:0.75;" x="708.247317" xlink:href="#ma651d2f90c" y="78.609284"/>
     <use style="fill:#98df8a;stroke:#ffffff;stroke-linejoin:miter;stroke-width:0.75;" x="710.201029" xlink:href="#ma651d2f90c" y="77.416591"/>
     <use style="fill:#98df8a;stroke:#ffffff;stroke-linejoin:miter;stroke-width:0.75;" x="712.128516" xlink:href="#ma651d2f90c" y="76.315644"/>
     <use style="fill:#98df8a;stroke:#ffffff;stroke-linejoin:miter;stroke-width:0.75;" x="714.030473" xlink:href="#ma651d2f90c" y="75.004993"/>
     <use style="fill:#98df8a;stroke:#ffffff;stroke-linejoin:miter;stroke-width:0.75;" x="715.907567" xlink:href="#ma651d2f90c" y="74.782182"/>
     <use style="fill:#98df8a;stroke:#ffffff;stroke-linejoin:miter;stroke-width:0.75;" x="717.760439" xlink:href="#ma651d2f90c" y="74.402093"/>
     <use style="fill:#98df8a;stroke:#ffffff;stroke-linejoin:miter;stroke-width:0.75;" x="719.589708" xlink:href="#ma651d2f90c" y="73.340466"/>
     <use style="fill:#98df8a;stroke:#ffffff;stroke-linejoin:miter;stroke-width:0.75;" x="721.395966" xlink:href="#ma651d2f90c" y="71.531767"/>
     <use style="fill:#98df8a;stroke:#ffffff;stroke-linejoin:miter;stroke-width:0.75;" x="723.179786" xlink:href="#ma651d2f90c" y="69.500258"/>
     <use style="fill:#98df8a;stroke:#ffffff;stroke-linejoin:miter;stroke-width:0.75;" x="724.941717" xlink:href="#ma651d2f90c" y="69.146382"/>
     <use style="fill:#98df8a;stroke:#ffffff;stroke-linejoin:miter;stroke-width:0.75;" x="726.682292" xlink:href="#ma651d2f90c" y="68.884252"/>
     <use style="fill:#98df8a;stroke:#ffffff;stroke-linejoin:miter;stroke-width:0.75;" x="728.40202" xlink:href="#ma651d2f90c" y="67.796411"/>
     <use style="fill:#98df8a;stroke:#ffffff;stroke-linejoin:miter;stroke-width:0.75;" x="730.101397" xlink:href="#ma651d2f90c" y="66.616825"/>
     <use style="fill:#98df8a;stroke:#ffffff;stroke-linejoin:miter;stroke-width:0.75;" x="731.780897" xlink:href="#ma651d2f90c" y="64.257653"/>
     <use style="fill:#98df8a;stroke:#ffffff;stroke-linejoin:miter;stroke-width:0.75;" x="733.440981" xlink:href="#ma651d2f90c" y="63.287771"/>
     <use style="fill:#98df8a;stroke:#ffffff;stroke-linejoin:miter;stroke-width:0.75;" x="735.082091" xlink:href="#ma651d2f90c" y="62.488274"/>
     <use style="fill:#98df8a;stroke:#ffffff;stroke-linejoin:miter;stroke-width:0.75;" x="736.704658" xlink:href="#ma651d2f90c" y="61.597031"/>
     <use style="fill:#98df8a;stroke:#ffffff;stroke-linejoin:miter;stroke-width:0.75;" x="738.309095" xlink:href="#ma651d2f90c" y="60.941705"/>
     <use style="fill:#98df8a;stroke:#ffffff;stroke-linejoin:miter;stroke-width:0.75;" x="739.895804" xlink:href="#ma651d2f90c" y="60.129102"/>
     <use style="fill:#98df8a;stroke:#ffffff;stroke-linejoin:miter;stroke-width:0.75;" x="741.46517" xlink:href="#ma651d2f90c" y="59.631054"/>
    </g>
   </g>
   <g id="line2d_38"/>
   <g id="line2d_39"/>
   <g id="line2d_40">
    <path clip-path="url(#p3565ad6cc3)" d="M 741.46517 288.430125 
L 741.46517 22.318125 
" style="fill:none;stroke:#ff0000;stroke-linecap:square;stroke-width:1.5;"/>
   </g>
   <g id="patch_3">
    <path d="M 59.690625 285.246553 
L 59.690625 23.116312 
" style="fill:none;stroke:#000000;stroke-linecap:square;stroke-linejoin:miter;stroke-width:0.8;"/>
   </g>
   <g id="patch_4">
    <path d="M 92.15608 288.430125 
L 741.466905 288.430125 
" style="fill:none;stroke:#000000;stroke-linecap:square;stroke-linejoin:miter;stroke-width:0.8;"/>
   </g>
   <g id="text_21">
    <!-- sqlite3_ossfuzz (23h, 10 trials/fuzzer) -->
    <g transform="translate(304.815938 16.318125)scale(0.12 -0.12)">
     <defs>
      <path d="M 2834 3397 
L 2834 2853 
Q 2591 2978 2328 3040 
Q 2066 3103 1784 3103 
Q 1356 3103 1142 2972 
Q 928 2841 928 2578 
Q 928 2378 1081 2264 
Q 1234 2150 1697 2047 
L 1894 2003 
Q 2506 1872 2764 1633 
Q 3022 1394 3022 966 
Q 3022 478 2636 193 
Q 2250 -91 1575 -91 
Q 1294 -91 989 -36 
Q 684 19 347 128 
L 347 722 
Q 666 556 975 473 
Q 1284 391 1588 391 
Q 1994 391 2212 530 
Q 2431 669 2431 922 
Q 2431 1156 2273 1281 
Q 2116 1406 1581 1522 
L 1381 1569 
Q 847 1681 609 1914 
Q 372 2147 372 2553 
Q 372 3047 722 3315 
Q 1072 3584 1716 3584 
Q 2034 3584 2315 3537 
Q 2597 3491 2834 3397 
z
" id="DejaVuSans-73" transform="scale(0.015625)"/>
      <path d="M 947 1747 
Q 947 1113 1208 752 
Q 1469 391 1925 391 
Q 2381 391 2643 752 
Q 2906 1113 2906 1747 
Q 2906 2381 2643 2742 
Q 2381 3103 1925 3103 
Q 1469 3103 1208 2742 
Q 947 2381 947 1747 
z
M 2906 525 
Q 2725 213 2448 61 
Q 2172 -91 1784 -91 
Q 1150 -91 751 415 
Q 353 922 353 1747 
Q 353 2572 751 3078 
Q 1150 3584 1784 3584 
Q 2172 3584 2448 3432 
Q 2725 3281 2906 2969 
L 2906 3500 
L 3481 3500 
L 3481 -1331 
L 2906 -1331 
L 2906 525 
z
" id="DejaVuSans-71" transform="scale(0.015625)"/>
      <path d="M 603 4863 
L 1178 4863 
L 1178 0 
L 603 0 
L 603 4863 
z
" id="DejaVuSans-6c" transform="scale(0.015625)"/>
      <path d="M 3263 -1063 
L 3263 -1509 
L -63 -1509 
L -63 -1063 
L 3263 -1063 
z
" id="DejaVuSans-5f" transform="scale(0.015625)"/>
      <path d="M 2375 4863 
L 2375 4384 
L 1825 4384 
Q 1516 4384 1395 4259 
Q 1275 4134 1275 3809 
L 1275 3500 
L 2222 3500 
L 2222 3053 
L 1275 3053 
L 1275 0 
L 697 0 
L 697 3053 
L 147 3053 
L 147 3500 
L 697 3500 
L 697 3744 
Q 697 4328 969 4595 
Q 1241 4863 1831 4863 
L 2375 4863 
z
" id="DejaVuSans-66" transform="scale(0.015625)"/>
      <path d="M 353 3500 
L 3084 3500 
L 3084 2975 
L 922 459 
L 3084 459 
L 3084 0 
L 275 0 
L 275 525 
L 2438 3041 
L 353 3041 
L 353 3500 
z
" id="DejaVuSans-7a" transform="scale(0.015625)"/>
      <path d="M 750 794 
L 1409 794 
L 1409 256 
L 897 -744 
L 494 -744 
L 750 256 
L 750 794 
z
" id="DejaVuSans-2c" transform="scale(0.015625)"/>
      <path d="M 1625 4666 
L 2156 4666 
L 531 -594 
L 0 -594 
L 1625 4666 
z
" id="DejaVuSans-2f" transform="scale(0.015625)"/>
     </defs>
     <use xlink:href="#DejaVuSans-73"/>
     <use x="52.099609" xlink:href="#DejaVuSans-71"/>
     <use x="115.576172" xlink:href="#DejaVuSans-6c"/>
     <use x="143.359375" xlink:href="#DejaVuSans-69"/>
     <use x="171.142578" xlink:href="#DejaVuSans-74"/>
     <use x="210.351562" xlink:href="#DejaVuSans-65"/>
     <use x="271.875" xlink:href="#DejaVuSans-33"/>
     <use x="335.498047" xlink:href="#DejaVuSans-5f"/>
     <use x="385.498047" xlink:href="#DejaVuSans-6f"/>
     <use x="446.679688" xlink:href="#DejaVuSans-73"/>
     <use x="498.779297" xlink:href="#DejaVuSans-73"/>
     <use x="550.878906" xlink:href="#DejaVuSans-66"/>
     <use x="586.083984" xlink:href="#DejaVuSans-75"/>
     <use x="649.462891" xlink:href="#DejaVuSans-7a"/>
     <use x="701.953125" xlink:href="#DejaVuSans-7a"/>
     <use x="754.443359" xlink:href="#DejaVuSans-20"/>
     <use x="786.230469" xlink:href="#DejaVuSans-28"/>
     <use x="825.244141" xlink:href="#DejaVuSans-32"/>
     <use x="888.867188" xlink:href="#DejaVuSans-33"/>
     <use x="952.490234" xlink:href="#DejaVuSans-68"/>
     <use x="1015.869141" xlink:href="#DejaVuSans-2c"/>
     <use x="1047.65625" xlink:href="#DejaVuSans-20"/>
     <use x="1079.443359" xlink:href="#DejaVuSans-31"/>
     <use x="1143.066406" xlink:href="#DejaVuSans-30"/>
     <use x="1206.689453" xlink:href="#DejaVuSans-20"/>
     <use x="1238.476562" xlink:href="#DejaVuSans-74"/>
     <use x="1277.685547" xlink:href="#DejaVuSans-72"/>
     <use x="1318.798828" xlink:href="#DejaVuSans-69"/>
     <use x="1346.582031" xlink:href="#DejaVuSans-61"/>
     <use x="1407.861328" xlink:href="#DejaVuSans-6c"/>
     <use x="1435.644531" xlink:href="#DejaVuSans-73"/>
     <use x="1487.744141" xlink:href="#DejaVuSans-2f"/>
     <use x="1521.435547" xlink:href="#DejaVuSans-66"/>
     <use x="1556.640625" xlink:href="#DejaVuSans-75"/>
     <use x="1620.019531" xlink:href="#DejaVuSans-7a"/>
     <use x="1672.509766" xlink:href="#DejaVuSans-7a"/>
     <use x="1725" xlink:href="#DejaVuSans-65"/>
     <use x="1786.523438" xlink:href="#DejaVuSans-72"/>
     <use x="1827.636719" xlink:href="#DejaVuSans-29"/>
    </g>
   </g>
   <g id="legend_1">
    <g id="line2d_41">
     <path d="M 777.930625 30.416563 
L 797.930625 30.416563 
" style="fill:none;stroke:#1f77b4;stroke-linecap:square;stroke-width:1.5;"/>
    </g>
    <g id="line2d_42">
     <defs>
      <path d="M 0 3 
C 0.795609 3 1.55874 2.683901 2.12132 2.12132 
C 2.683901 1.55874 3 0.795609 3 0 
C 3 -0.795609 2.683901 -1.55874 2.12132 -2.12132 
C 1.55874 -2.683901 0.795609 -3 0 -3 
C -0.795609 -3 -1.55874 -2.683901 -2.12132 -2.12132 
C -2.683901 -1.55874 -3 -0.795609 -3 0 
C -3 0.795609 -2.683901 1.55874 -2.12132 2.12132 
C -1.55874 2.683901 -0.795609 3 0 3 
z
" id="maed016dd7b" style="stroke:#1f77b4;"/>
     </defs>
     <g>
      <use style="fill:#1f77b4;stroke:#1f77b4;" x="787.930625" xlink:href="#maed016dd7b" y="30.416563"/>
     </g>
    </g>
    <g id="text_22">
     <!-- fuzzolic_aflplusplus_z3 -->
     <g transform="translate(805.930625 33.916563)scale(0.1 -0.1)">
      <defs>
       <path d="M 1159 525 
L 1159 -1331 
L 581 -1331 
L 581 3500 
L 1159 3500 
L 1159 2969 
Q 1341 3281 1617 3432 
Q 1894 3584 2278 3584 
Q 2916 3584 3314 3078 
Q 3713 2572 3713 1747 
Q 3713 922 3314 415 
Q 2916 -91 2278 -91 
Q 1894 -91 1617 61 
Q 1341 213 1159 525 
z
M 3116 1747 
Q 3116 2381 2855 2742 
Q 2594 3103 2138 3103 
Q 1681 3103 1420 2742 
Q 1159 2381 1159 1747 
Q 1159 1113 1420 752 
Q 1681 391 2138 391 
Q 2594 391 2855 752 
Q 3116 1113 3116 1747 
z
" id="DejaVuSans-70" transform="scale(0.015625)"/>
      </defs>
      <use xlink:href="#DejaVuSans-66"/>
      <use x="35.205078" xlink:href="#DejaVuSans-75"/>
      <use x="98.583984" xlink:href="#DejaVuSans-7a"/>
      <use x="151.074219" xlink:href="#DejaVuSans-7a"/>
      <use x="203.564453" xlink:href="#DejaVuSans-6f"/>
      <use x="264.746094" xlink:href="#DejaVuSans-6c"/>
      <use x="292.529297" xlink:href="#DejaVuSans-69"/>
      <use x="320.3125" xlink:href="#DejaVuSans-63"/>
      <use x="375.292969" xlink:href="#DejaVuSans-5f"/>
      <use x="425.292969" xlink:href="#DejaVuSans-61"/>
      <use x="486.572266" xlink:href="#DejaVuSans-66"/>
      <use x="521.777344" xlink:href="#DejaVuSans-6c"/>
      <use x="549.560547" xlink:href="#DejaVuSans-70"/>
      <use x="613.037109" xlink:href="#DejaVuSans-6c"/>
      <use x="640.820312" xlink:href="#DejaVuSans-75"/>
      <use x="704.199219" xlink:href="#DejaVuSans-73"/>
      <use x="756.298828" xlink:href="#DejaVuSans-70"/>
      <use x="819.775391" xlink:href="#DejaVuSans-6c"/>
      <use x="847.558594" xlink:href="#DejaVuSans-75"/>
      <use x="910.9375" xlink:href="#DejaVuSans-73"/>
      <use x="963.037109" xlink:href="#DejaVuSans-5f"/>
      <use x="1013.037109" xlink:href="#DejaVuSans-7a"/>
      <use x="1065.527344" xlink:href="#DejaVuSans-33"/>
     </g>
    </g>
    <g id="line2d_43">
     <path d="M 777.930625 45.372813 
L 797.930625 45.372813 
" style="fill:none;stroke:#98df8a;stroke-linecap:square;stroke-width:1.5;"/>
    </g>
    <g id="line2d_44">
     <defs>
      <path d="M -0 3 
L 3 -3 
L -3 -3 
z
" id="m4278537981" style="stroke:#98df8a;stroke-linejoin:miter;"/>
     </defs>
     <g>
      <use style="fill:#98df8a;stroke:#98df8a;stroke-linejoin:miter;" x="787.930625" xlink:href="#m4278537981" y="45.372813"/>
     </g>
    </g>
    <g id="text_23">
     <!-- sydr_aflplusplus -->
     <g transform="translate(805.930625 48.872813)scale(0.1 -0.1)">
      <defs>
       <path d="M 2059 -325 
Q 1816 -950 1584 -1140 
Q 1353 -1331 966 -1331 
L 506 -1331 
L 506 -850 
L 844 -850 
Q 1081 -850 1212 -737 
Q 1344 -625 1503 -206 
L 1606 56 
L 191 3500 
L 800 3500 
L 1894 763 
L 2988 3500 
L 3597 3500 
L 2059 -325 
z
" id="DejaVuSans-79" transform="scale(0.015625)"/>
      </defs>
      <use xlink:href="#DejaVuSans-73"/>
      <use x="52.099609" xlink:href="#DejaVuSans-79"/>
      <use x="111.279297" xlink:href="#DejaVuSans-64"/>
      <use x="174.755859" xlink:href="#DejaVuSans-72"/>
      <use x="215.869141" xlink:href="#DejaVuSans-5f"/>
      <use x="265.869141" xlink:href="#DejaVuSans-61"/>
      <use x="327.148438" xlink:href="#DejaVuSans-66"/>
      <use x="362.353516" xlink:href="#DejaVuSans-6c"/>
      <use x="390.136719" xlink:href="#DejaVuSans-70"/>
      <use x="453.613281" xlink:href="#DejaVuSans-6c"/>
      <use x="481.396484" xlink:href="#DejaVuSans-75"/>
      <use x="544.775391" xlink:href="#DejaVuSans-73"/>
      <use x="596.875" xlink:href="#DejaVuSans-70"/>
      <use x="660.351562" xlink:href="#DejaVuSans-6c"/>
      <use x="688.134766" xlink:href="#DejaVuSans-75"/>
      <use x="751.513672" xlink:href="#DejaVuSans-73"/>
     </g>
    </g>
   </g>
  </g>
 </g>
 <defs>
  <clipPath id="p3565ad6cc3">
   <rect height="266.112" width="714.24" x="59.690625" y="22.318125"/>
  </clipPath>
 </defs>
</svg>
