<?xml version="1.0" encoding="utf-8" standalone="no"?>
<!DOCTYPE svg PUBLIC "-//W3C//DTD SVG 1.1//EN"
  "http://www.w3.org/Graphics/SVG/1.1/DTD/svg11.dtd">
<svg height="325.986375pt" version="1.1" viewBox="0 0 920.818125 325.986375" width="920.818125pt" xmlns="http://www.w3.org/2000/svg" xmlns:xlink="http://www.w3.org/1999/xlink">
 <metadata>
  <rdf:RDF xmlns:cc="http://creativecommons.org/ns#" xmlns:dc="http://purl.org/dc/elements/1.1/" xmlns:rdf="http://www.w3.org/1999/02/22-rdf-syntax-ns#">
   <cc:Work>
    <dc:type rdf:resource="http://purl.org/dc/dcmitype/StillImage"/>
    <dc:date>2022-08-15T01:51:14.418473</dc:date>
    <dc:format>image/svg+xml</dc:format>
    <dc:creator>
     <cc:Agent>
      <dc:title>Matplotlib v3.4.1, https://matplotlib.org/</dc:title>
     </cc:Agent>
    </dc:creator>
   </cc:Work>
  </rdf:RDF>
 </metadata>
 <defs>
  <style type="text/css">*{stroke-linecap:butt;stroke-linejoin:round;}</style>
 </defs>
 <g id="figure_1">
  <g id="patch_1">
   <path d="M 0 325.986375 
L 920.818125 325.986375 
L 920.818125 0 
L 0 0 
z
" style="fill:#ffffff;"/>
  </g>
  <g id="axes_1">
   <g id="patch_2">
    <path d="M 53.328125 288.430125 
L 767.568125 288.430125 
L 767.568125 22.318125 
L 53.328125 22.318125 
z
" style="fill:#ffffff;"/>
   </g>
   <g id="PolyCollection_1">
    <defs>
     <path d="M 85.79358 -68.134792 
L 85.79358 -49.65225 
L 185.326487 -59.717 
L 243.549506 -76.369587 
L 284.859395 -85.885351 
L 316.901835 -90.826229 
L 343.082414 -91.19222 
L 365.217778 -91.19222 
L 384.392303 -91.19222 
L 401.305433 -92.290193 
L 416.434742 -93.20517 
L 430.120868 -94.120147 
L 442.615322 -94.120147 
L 454.109105 -94.120147 
L 464.750686 -94.120147 
L 474.657761 -94.120147 
L 483.925211 -94.120147 
L 492.630642 -94.120147 
L 500.83834 -97.583336 
L 508.602157 -97.048075 
L 515.96765 -99.976002 
L 522.973705 -97.048075 
L 529.653776 -99.943978 
L 536.036855 -99.976002 
L 542.14823 -97.597061 
L 548.01009 -97.583336 
L 553.642013 -97.048075 
L 559.061359 -97.597061 
L 564.283594 -99.747258 
L 569.322554 -99.976002 
L 574.190669 -101.073975 
L 578.899144 -100.524988 
L 583.458119 -101.073975 
L 587.876794 -101.073975 
L 592.16355 -101.439966 
L 596.326033 -101.439966 
L 600.371248 -101.439966 
L 604.305621 -101.805957 
L 608.135065 -101.805957 
L 611.865031 -101.805957 
L 615.500558 -101.805957 
L 619.046309 -104.550888 
L 622.506613 -104.550888 
L 625.885489 -104.550888 
L 629.186684 -104.550888 
L 632.413688 -104.550888 
L 635.569763 -105.648861 
L 638.65796 -105.822707 
L 641.681137 -107.268371 
L 644.641977 -105.831857 
L 647.542997 -105.831857 
L 650.386568 -109.441442 
L 653.174921 -105.831857 
L 655.910158 -107.469666 
L 658.594267 -107.625212 
L 661.229123 -109.491766 
L 663.816502 -109.491766 
L 666.358084 -109.491766 
L 668.855462 -109.491766 
L 671.310148 -109.491766 
L 673.723577 -109.491766 
L 676.097112 -109.491766 
L 678.432052 -109.853182 
L 680.729631 -109.857757 
L 682.991027 -109.857757 
L 685.21736 -109.857757 
L 687.409702 -109.857757 
L 689.569076 -109.857757 
L 691.696457 -113.151675 
L 693.792781 -111.504716 
L 695.858941 -116.445593 
L 697.895793 -116.445593 
L 699.904156 -116.445593 
L 701.884817 -114.98163 
L 703.838529 -116.413569 
L 705.766016 -116.445593 
L 707.667973 -115.164625 
L 709.545067 -115.164625 
L 711.397939 -116.445593 
L 713.227208 -115.164625 
L 715.033466 -116.445593 
L 716.817286 -116.413569 
L 718.579217 -116.445593 
L 720.319792 -116.413569 
L 722.03952 -116.445593 
L 723.738897 -115.164625 
L 725.418397 -116.445593 
L 727.078481 -115.164625 
L 728.719591 -115.164625 
L 730.342158 -116.445593 
L 731.946595 -115.164625 
L 733.533304 -116.445593 
L 735.10267 -115.164625 
L 735.10267 -291.57225 
L 735.10267 -291.57225 
L 733.533304 -291.389255 
L 731.946595 -291.389255 
L 730.342158 -291.389255 
L 728.719591 -291.389255 
L 727.078481 -275.651645 
L 725.418397 -275.651645 
L 723.738897 -244.176425 
L 722.03952 -258.28995 
L 720.319792 -259.182053 
L 718.579217 -259.182053 
L 716.817286 -259.182053 
L 715.033466 -244.524117 
L 713.227208 -259.182053 
L 711.397939 -258.088655 
L 709.545067 -259.182053 
L 707.667973 -244.176425 
L 705.766016 -258.267076 
L 703.838529 -255.522144 
L 701.884817 -255.339149 
L 699.904156 -255.339149 
L 697.895793 -255.339149 
L 695.858941 -255.156153 
L 693.792781 -255.179028 
L 691.696457 -242.712462 
L 689.569076 -242.712462 
L 687.409702 -242.895457 
L 685.21736 -242.163475 
L 682.991027 -242.163475 
L 680.729631 -242.163475 
L 678.432052 -241.614489 
L 676.097112 -241.619064 
L 673.723577 -241.614489 
L 671.310148 -241.614489 
L 668.855462 -241.614489 
L 666.358084 -241.614489 
L 663.816502 -241.614489 
L 661.229123 -241.614489 
L 658.594267 -241.614489 
L 655.910158 -241.248498 
L 653.174921 -240.530241 
L 650.386568 -236.490616 
L 647.542997 -177.200087 
L 644.641977 -177.200087 
L 641.681137 -175.919118 
L 638.65796 -117.731137 
L 635.569763 -117.726562 
L 632.413688 -117.360571 
L 629.186684 -116.99458 
L 625.885489 -117.360571 
L 622.506613 -116.079602 
L 619.046309 -115.896607 
L 615.500558 -110.95573 
L 611.865031 -110.223748 
L 608.135065 -110.223748 
L 604.305621 -109.857757 
L 600.371248 -109.857757 
L 596.326033 -109.491766 
L 592.16355 -109.491766 
L 587.876794 -109.500916 
L 583.458119 -109.491766 
L 578.899144 -109.674761 
L 574.190669 -109.125775 
L 569.322554 -109.125775 
L 564.283594 -109.125775 
L 559.061359 -109.125775 
L 553.642013 -109.125775 
L 548.01009 -109.125775 
L 542.14823 -109.125775 
L 536.036855 -109.125775 
L 529.653776 -109.125775 
L 522.973705 -108.94278 
L 515.96765 -108.759784 
L 508.602157 -108.759784 
L 500.83834 -108.027802 
L 492.630642 -108.027802 
L 483.925211 -108.027802 
L 474.657761 -108.027802 
L 464.750686 -102.537938 
L 454.109105 -103.28822 
L 442.615322 -103.26992 
L 430.120868 -102.354943 
L 416.434742 -98.512038 
L 401.305433 -99.061025 
L 384.392303 -97.24022 
L 365.217778 -97.048075 
L 343.082414 -96.316093 
L 316.901835 -95.584111 
L 284.859395 -95.767106 
L 243.549506 -91.558211 
L 185.326487 -74.722628 
L 85.79358 -68.134792 
z
" id="mdf52f19ca8" style="stroke:#98df8a;stroke-opacity:0.2;"/>
    </defs>
    <g clip-path="url(#pb8050c9a8d)">
     <use style="fill:#98df8a;fill-opacity:0.2;stroke:#98df8a;stroke-opacity:0.2;" x="0" xlink:href="#mdf52f19ca8" y="325.986375"/>
    </g>
   </g>
   <g id="PolyCollection_2">
    <defs>
     <path d="M 85.79358 -63.559905 
L 85.79358 -53.129164 
L 185.326487 -64.840873 
L 243.549506 -68.500783 
L 284.859395 -71.062719 
L 316.901835 -72.343687 
L 343.082414 -76.735578 
L 365.217778 -78.565533 
L 384.392303 -81.859451 
L 401.305433 -85.51936 
L 416.434742 -85.702356 
L 430.120868 -87.16632 
L 442.615322 -87.16632 
L 454.109105 -90.277242 
L 464.750686 -91.924202 
L 474.657761 -90.277242 
L 483.925211 -90.277242 
L 492.630642 -91.924202 
L 500.83834 -93.200595 
L 508.602157 -93.571161 
L 515.96765 -94.303143 
L 522.973705 -94.486138 
L 529.653776 -94.486138 
L 536.036855 -96.499088 
L 542.14823 -96.499088 
L 548.01009 -97.048075 
L 553.642013 -97.048075 
L 559.061359 -97.404916 
L 564.283594 -97.414065 
L 569.322554 -96.865079 
L 574.190669 -97.780056 
L 578.899144 -97.780056 
L 583.458119 -98.146047 
L 587.876794 -97.414065 
L 592.16355 -98.146047 
L 596.326033 -98.878029 
L 600.371248 -99.24402 
L 604.305621 -99.24402 
L 608.135065 -99.24402 
L 611.865031 -99.24402 
L 615.500558 -99.24402 
L 619.046309 -99.24402 
L 622.506613 -99.24402 
L 625.885489 -99.24402 
L 629.186684 -99.976002 
L 632.413688 -99.976002 
L 635.569763 -99.976002 
L 638.65796 -100.707984 
L 641.681137 -99.966852 
L 644.641977 -99.976002 
L 647.542997 -100.707984 
L 650.386568 -99.610011 
L 653.174921 -100.511264 
L 655.910158 -100.707984 
L 658.594267 -99.976002 
L 661.229123 -100.524988 
L 663.816502 -99.610011 
L 666.358084 -100.511264 
L 668.855462 -99.966852 
L 671.310148 -99.976002 
L 673.723577 -99.610011 
L 676.097112 -100.703409 
L 678.432052 -99.610011 
L 680.729631 -100.341993 
L 682.991027 -100.520413 
L 685.21736 -100.524988 
L 687.409702 -100.524988 
L 689.569076 -100.524988 
L 691.696457 -100.524988 
L 693.792781 -100.524988 
L 695.858941 -99.610011 
L 697.895793 -100.524988 
L 699.904156 -100.524988 
L 701.884817 -100.524988 
L 703.838529 -99.610011 
L 705.766016 -99.610011 
L 707.667973 -100.524988 
L 709.545067 -99.610011 
L 711.397939 -99.610011 
L 713.227208 -100.707984 
L 715.033466 -100.502114 
L 716.817286 -100.524988 
L 718.579217 -100.707984 
L 720.319792 -100.707984 
L 722.03952 -100.707984 
L 723.738897 -100.524988 
L 725.418397 -99.610011 
L 727.078481 -100.707984 
L 728.719591 -100.524988 
L 730.342158 -100.524988 
L 731.946595 -100.524988 
L 733.533304 -100.524988 
L 735.10267 -100.524988 
L 735.10267 -240.150525 
L 735.10267 -240.150525 
L 733.533304 -240.150525 
L 731.946595 -240.150525 
L 730.342158 -240.333521 
L 728.719591 -240.150525 
L 727.078481 -239.418543 
L 725.418397 -239.432268 
L 723.738897 -239.418543 
L 722.03952 -239.418543 
L 720.319792 -239.784534 
L 718.579217 -238.343445 
L 716.817286 -239.235548 
L 715.033466 -237.95458 
L 713.227208 -237.95458 
L 711.397939 -237.95458 
L 709.545067 -237.95458 
L 707.667973 -237.95458 
L 705.766016 -237.95458 
L 703.838529 -237.95458 
L 701.884817 -237.95458 
L 699.904156 -237.95458 
L 697.895793 -237.95458 
L 695.858941 -237.95458 
L 693.792781 -235.94163 
L 691.696457 -233.92868 
L 689.569076 -233.92868 
L 687.409702 -233.92868 
L 685.21736 -233.92868 
L 682.991027 -233.92868 
L 680.729631 -233.92868 
L 678.432052 -233.92868 
L 676.097112 -233.92868 
L 673.723577 -233.92868 
L 671.310148 -233.92868 
L 668.855462 -233.92868 
L 666.358084 -235.94163 
L 663.816502 -233.92868 
L 661.229123 -233.92868 
L 658.594267 -233.92868 
L 655.910158 -233.92868 
L 653.174921 -233.92868 
L 650.386568 -233.92868 
L 647.542997 -233.92868 
L 644.641977 -233.979003 
L 641.681137 -233.92868 
L 638.65796 -233.196698 
L 635.569763 -233.196698 
L 632.413688 -233.196698 
L 629.186684 -233.196698 
L 625.885489 -233.196698 
L 622.506613 -233.196698 
L 619.046309 -233.196698 
L 615.500558 -233.196698 
L 611.865031 -233.196698 
L 608.135065 -233.196698 
L 604.305621 -186.715851 
L 600.371248 -186.715851 
L 596.326033 -186.715851 
L 592.16355 -186.715851 
L 587.876794 -186.715851 
L 583.458119 -187.301436 
L 578.899144 -186.715851 
L 574.190669 -186.715851 
L 569.322554 -208.12632 
L 564.283594 -186.715851 
L 559.061359 -186.715851 
L 553.642013 -186.715851 
L 548.01009 -186.715851 
L 542.14823 -186.715851 
L 536.036855 -186.715851 
L 529.653776 -204.649406 
L 522.973705 -186.715851 
L 515.96765 -186.715851 
L 508.602157 -145.358876 
L 500.83834 -102.368668 
L 492.630642 -102.903929 
L 483.925211 -102.903929 
L 474.657761 -102.903929 
L 464.750686 -102.903929 
L 454.109105 -101.46284 
L 442.615322 -102.354943 
L 430.120868 -100.341993 
L 416.434742 -99.976002 
L 401.305433 -96.133097 
L 384.392303 -95.401115 
L 365.217778 -94.486138 
L 343.082414 -92.656183 
L 316.901835 -92.290193 
L 284.859395 -92.290193 
L 243.549506 -88.264292 
L 185.326487 -84.238392 
L 85.79358 -63.559905 
z
" id="m8d477166d7" style="stroke:#1f77b4;stroke-opacity:0.2;"/>
    </defs>
    <g clip-path="url(#pb8050c9a8d)">
     <use style="fill:#1f77b4;fill-opacity:0.2;stroke:#1f77b4;stroke-opacity:0.2;" x="0" xlink:href="#m8d477166d7" y="325.986375"/>
    </g>
   </g>
   <g id="matplotlib.axis_1">
    <g id="xtick_1">
     <g id="line2d_1">
      <defs>
       <path d="M 0 0 
L 0 3.5 
" id="m2c4f884863" style="stroke:#000000;stroke-width:0.8;"/>
      </defs>
      <g>
       <use style="stroke:#000000;stroke-width:0.8;" x="85.79358" xlink:href="#m2c4f884863" y="288.430125"/>
      </g>
     </g>
     <g id="text_1">
      <!-- 14m -->
      <g transform="translate(74.560767 303.028562)scale(0.1 -0.1)">
       <defs>
        <path d="M 794 531 
L 1825 531 
L 1825 4091 
L 703 3866 
L 703 4441 
L 1819 4666 
L 2450 4666 
L 2450 531 
L 3481 531 
L 3481 0 
L 794 0 
L 794 531 
z
" id="DejaVuSans-31" transform="scale(0.015625)"/>
        <path d="M 2419 4116 
L 825 1625 
L 2419 1625 
L 2419 4116 
z
M 2253 4666 
L 3047 4666 
L 3047 1625 
L 3713 1625 
L 3713 1100 
L 3047 1100 
L 3047 0 
L 2419 0 
L 2419 1100 
L 313 1100 
L 313 1709 
L 2253 4666 
z
" id="DejaVuSans-34" transform="scale(0.015625)"/>
        <path d="M 3328 2828 
Q 3544 3216 3844 3400 
Q 4144 3584 4550 3584 
Q 5097 3584 5394 3201 
Q 5691 2819 5691 2113 
L 5691 0 
L 5113 0 
L 5113 2094 
Q 5113 2597 4934 2840 
Q 4756 3084 4391 3084 
Q 3944 3084 3684 2787 
Q 3425 2491 3425 1978 
L 3425 0 
L 2847 0 
L 2847 2094 
Q 2847 2600 2669 2842 
Q 2491 3084 2119 3084 
Q 1678 3084 1418 2786 
Q 1159 2488 1159 1978 
L 1159 0 
L 581 0 
L 581 3500 
L 1159 3500 
L 1159 2956 
Q 1356 3278 1631 3431 
Q 1906 3584 2284 3584 
Q 2666 3584 2933 3390 
Q 3200 3197 3328 2828 
z
" id="DejaVuSans-6d" transform="scale(0.015625)"/>
       </defs>
       <use xlink:href="#DejaVuSans-31"/>
       <use x="63.623047" xlink:href="#DejaVuSans-34"/>
       <use x="127.246094" xlink:href="#DejaVuSans-6d"/>
      </g>
     </g>
    </g>
    <g id="xtick_2">
     <g id="line2d_2">
      <g>
       <use style="stroke:#000000;stroke-width:0.8;" x="144.821836" xlink:href="#m2c4f884863" y="288.430125"/>
      </g>
     </g>
     <g id="text_2">
      <!-- 22m -->
      <g transform="translate(133.589024 303.028562)scale(0.1 -0.1)">
       <defs>
        <path d="M 1228 531 
L 3431 531 
L 3431 0 
L 469 0 
L 469 531 
Q 828 903 1448 1529 
Q 2069 2156 2228 2338 
Q 2531 2678 2651 2914 
Q 2772 3150 2772 3378 
Q 2772 3750 2511 3984 
Q 2250 4219 1831 4219 
Q 1534 4219 1204 4116 
Q 875 4013 500 3803 
L 500 4441 
Q 881 4594 1212 4672 
Q 1544 4750 1819 4750 
Q 2544 4750 2975 4387 
Q 3406 4025 3406 3419 
Q 3406 3131 3298 2873 
Q 3191 2616 2906 2266 
Q 2828 2175 2409 1742 
Q 1991 1309 1228 531 
z
" id="DejaVuSans-32" transform="scale(0.015625)"/>
       </defs>
       <use xlink:href="#DejaVuSans-32"/>
       <use x="63.623047" xlink:href="#DejaVuSans-32"/>
       <use x="127.246094" xlink:href="#DejaVuSans-6d"/>
      </g>
     </g>
    </g>
    <g id="xtick_3">
     <g id="line2d_3">
      <g>
       <use style="stroke:#000000;stroke-width:0.8;" x="203.850093" xlink:href="#m2c4f884863" y="288.430125"/>
      </g>
     </g>
     <g id="text_3">
      <!-- 34m -->
      <g transform="translate(192.617281 303.028562)scale(0.1 -0.1)">
       <defs>
        <path d="M 2597 2516 
Q 3050 2419 3304 2112 
Q 3559 1806 3559 1356 
Q 3559 666 3084 287 
Q 2609 -91 1734 -91 
Q 1441 -91 1130 -33 
Q 819 25 488 141 
L 488 750 
Q 750 597 1062 519 
Q 1375 441 1716 441 
Q 2309 441 2620 675 
Q 2931 909 2931 1356 
Q 2931 1769 2642 2001 
Q 2353 2234 1838 2234 
L 1294 2234 
L 1294 2753 
L 1863 2753 
Q 2328 2753 2575 2939 
Q 2822 3125 2822 3475 
Q 2822 3834 2567 4026 
Q 2313 4219 1838 4219 
Q 1578 4219 1281 4162 
Q 984 4106 628 3988 
L 628 4550 
Q 988 4650 1302 4700 
Q 1616 4750 1894 4750 
Q 2613 4750 3031 4423 
Q 3450 4097 3450 3541 
Q 3450 3153 3228 2886 
Q 3006 2619 2597 2516 
z
" id="DejaVuSans-33" transform="scale(0.015625)"/>
       </defs>
       <use xlink:href="#DejaVuSans-33"/>
       <use x="63.623047" xlink:href="#DejaVuSans-34"/>
       <use x="127.246094" xlink:href="#DejaVuSans-6d"/>
      </g>
     </g>
    </g>
    <g id="xtick_4">
     <g id="line2d_4">
      <g>
       <use style="stroke:#000000;stroke-width:0.8;" x="262.87835" xlink:href="#m2c4f884863" y="288.430125"/>
      </g>
     </g>
     <g id="text_4">
      <!-- 51m -->
      <g transform="translate(251.645538 303.028562)scale(0.1 -0.1)">
       <defs>
        <path d="M 691 4666 
L 3169 4666 
L 3169 4134 
L 1269 4134 
L 1269 2991 
Q 1406 3038 1543 3061 
Q 1681 3084 1819 3084 
Q 2600 3084 3056 2656 
Q 3513 2228 3513 1497 
Q 3513 744 3044 326 
Q 2575 -91 1722 -91 
Q 1428 -91 1123 -41 
Q 819 9 494 109 
L 494 744 
Q 775 591 1075 516 
Q 1375 441 1709 441 
Q 2250 441 2565 725 
Q 2881 1009 2881 1497 
Q 2881 1984 2565 2268 
Q 2250 2553 1709 2553 
Q 1456 2553 1204 2497 
Q 953 2441 691 2322 
L 691 4666 
z
" id="DejaVuSans-35" transform="scale(0.015625)"/>
       </defs>
       <use xlink:href="#DejaVuSans-35"/>
       <use x="63.623047" xlink:href="#DejaVuSans-31"/>
       <use x="127.246094" xlink:href="#DejaVuSans-6d"/>
      </g>
     </g>
    </g>
    <g id="xtick_5">
     <g id="line2d_5">
      <g>
       <use style="stroke:#000000;stroke-width:0.8;" x="321.906607" xlink:href="#m2c4f884863" y="288.430125"/>
      </g>
     </g>
     <g id="text_5">
      <!-- 1h:17m -->
      <g transform="translate(302.639419 303.028562)scale(0.1 -0.1)">
       <defs>
        <path d="M 3513 2113 
L 3513 0 
L 2938 0 
L 2938 2094 
Q 2938 2591 2744 2837 
Q 2550 3084 2163 3084 
Q 1697 3084 1428 2787 
Q 1159 2491 1159 1978 
L 1159 0 
L 581 0 
L 581 4863 
L 1159 4863 
L 1159 2956 
Q 1366 3272 1645 3428 
Q 1925 3584 2291 3584 
Q 2894 3584 3203 3211 
Q 3513 2838 3513 2113 
z
" id="DejaVuSans-68" transform="scale(0.015625)"/>
        <path d="M 750 794 
L 1409 794 
L 1409 0 
L 750 0 
L 750 794 
z
M 750 3309 
L 1409 3309 
L 1409 2516 
L 750 2516 
L 750 3309 
z
" id="DejaVuSans-3a" transform="scale(0.015625)"/>
        <path d="M 525 4666 
L 3525 4666 
L 3525 4397 
L 1831 0 
L 1172 0 
L 2766 4134 
L 525 4134 
L 525 4666 
z
" id="DejaVuSans-37" transform="scale(0.015625)"/>
       </defs>
       <use xlink:href="#DejaVuSans-31"/>
       <use x="63.623047" xlink:href="#DejaVuSans-68"/>
       <use x="127.001953" xlink:href="#DejaVuSans-3a"/>
       <use x="160.693359" xlink:href="#DejaVuSans-31"/>
       <use x="224.316406" xlink:href="#DejaVuSans-37"/>
       <use x="287.939453" xlink:href="#DejaVuSans-6d"/>
      </g>
     </g>
    </g>
    <g id="xtick_6">
     <g id="line2d_6">
      <g>
       <use style="stroke:#000000;stroke-width:0.8;" x="380.934864" xlink:href="#m2c4f884863" y="288.430125"/>
      </g>
     </g>
     <g id="text_6">
      <!-- 1h:57m -->
      <g transform="translate(361.667676 303.028562)scale(0.1 -0.1)">
       <use xlink:href="#DejaVuSans-31"/>
       <use x="63.623047" xlink:href="#DejaVuSans-68"/>
       <use x="127.001953" xlink:href="#DejaVuSans-3a"/>
       <use x="160.693359" xlink:href="#DejaVuSans-35"/>
       <use x="224.316406" xlink:href="#DejaVuSans-37"/>
       <use x="287.939453" xlink:href="#DejaVuSans-6d"/>
      </g>
     </g>
    </g>
    <g id="xtick_7">
     <g id="line2d_7">
      <g>
       <use style="stroke:#000000;stroke-width:0.8;" x="439.963121" xlink:href="#m2c4f884863" y="288.430125"/>
      </g>
     </g>
     <g id="text_7">
      <!-- 2h:56m -->
      <g transform="translate(420.695933 303.028562)scale(0.1 -0.1)">
       <defs>
        <path d="M 2113 2584 
Q 1688 2584 1439 2293 
Q 1191 2003 1191 1497 
Q 1191 994 1439 701 
Q 1688 409 2113 409 
Q 2538 409 2786 701 
Q 3034 994 3034 1497 
Q 3034 2003 2786 2293 
Q 2538 2584 2113 2584 
z
M 3366 4563 
L 3366 3988 
Q 3128 4100 2886 4159 
Q 2644 4219 2406 4219 
Q 1781 4219 1451 3797 
Q 1122 3375 1075 2522 
Q 1259 2794 1537 2939 
Q 1816 3084 2150 3084 
Q 2853 3084 3261 2657 
Q 3669 2231 3669 1497 
Q 3669 778 3244 343 
Q 2819 -91 2113 -91 
Q 1303 -91 875 529 
Q 447 1150 447 2328 
Q 447 3434 972 4092 
Q 1497 4750 2381 4750 
Q 2619 4750 2861 4703 
Q 3103 4656 3366 4563 
z
" id="DejaVuSans-36" transform="scale(0.015625)"/>
       </defs>
       <use xlink:href="#DejaVuSans-32"/>
       <use x="63.623047" xlink:href="#DejaVuSans-68"/>
       <use x="127.001953" xlink:href="#DejaVuSans-3a"/>
       <use x="160.693359" xlink:href="#DejaVuSans-35"/>
       <use x="224.316406" xlink:href="#DejaVuSans-36"/>
       <use x="287.939453" xlink:href="#DejaVuSans-6d"/>
      </g>
     </g>
    </g>
    <g id="xtick_8">
     <g id="line2d_8">
      <g>
       <use style="stroke:#000000;stroke-width:0.8;" x="498.991377" xlink:href="#m2c4f884863" y="288.430125"/>
      </g>
     </g>
     <g id="text_8">
      <!-- 4h:26m -->
      <g transform="translate(479.72419 303.028562)scale(0.1 -0.1)">
       <use xlink:href="#DejaVuSans-34"/>
       <use x="63.623047" xlink:href="#DejaVuSans-68"/>
       <use x="127.001953" xlink:href="#DejaVuSans-3a"/>
       <use x="160.693359" xlink:href="#DejaVuSans-32"/>
       <use x="224.316406" xlink:href="#DejaVuSans-36"/>
       <use x="287.939453" xlink:href="#DejaVuSans-6d"/>
      </g>
     </g>
    </g>
    <g id="xtick_9">
     <g id="line2d_9">
      <g>
       <use style="stroke:#000000;stroke-width:0.8;" x="558.019634" xlink:href="#m2c4f884863" y="288.430125"/>
      </g>
     </g>
     <g id="text_9">
      <!-- 6h:42m -->
      <g transform="translate(538.752447 303.028562)scale(0.1 -0.1)">
       <use xlink:href="#DejaVuSans-36"/>
       <use x="63.623047" xlink:href="#DejaVuSans-68"/>
       <use x="127.001953" xlink:href="#DejaVuSans-3a"/>
       <use x="160.693359" xlink:href="#DejaVuSans-34"/>
       <use x="224.316406" xlink:href="#DejaVuSans-32"/>
       <use x="287.939453" xlink:href="#DejaVuSans-6d"/>
      </g>
     </g>
    </g>
    <g id="xtick_10">
     <g id="line2d_10">
      <g>
       <use style="stroke:#000000;stroke-width:0.8;" x="617.047891" xlink:href="#m2c4f884863" y="288.430125"/>
      </g>
     </g>
     <g id="text_10">
      <!-- 10h:6m -->
      <g transform="translate(597.780704 303.028562)scale(0.1 -0.1)">
       <defs>
        <path d="M 2034 4250 
Q 1547 4250 1301 3770 
Q 1056 3291 1056 2328 
Q 1056 1369 1301 889 
Q 1547 409 2034 409 
Q 2525 409 2770 889 
Q 3016 1369 3016 2328 
Q 3016 3291 2770 3770 
Q 2525 4250 2034 4250 
z
M 2034 4750 
Q 2819 4750 3233 4129 
Q 3647 3509 3647 2328 
Q 3647 1150 3233 529 
Q 2819 -91 2034 -91 
Q 1250 -91 836 529 
Q 422 1150 422 2328 
Q 422 3509 836 4129 
Q 1250 4750 2034 4750 
z
" id="DejaVuSans-30" transform="scale(0.015625)"/>
       </defs>
       <use xlink:href="#DejaVuSans-31"/>
       <use x="63.623047" xlink:href="#DejaVuSans-30"/>
       <use x="127.246094" xlink:href="#DejaVuSans-68"/>
       <use x="190.625" xlink:href="#DejaVuSans-3a"/>
       <use x="224.316406" xlink:href="#DejaVuSans-36"/>
       <use x="287.939453" xlink:href="#DejaVuSans-6d"/>
      </g>
     </g>
    </g>
    <g id="xtick_11">
     <g id="line2d_11">
      <g>
       <use style="stroke:#000000;stroke-width:0.8;" x="676.076148" xlink:href="#m2c4f884863" y="288.430125"/>
      </g>
     </g>
     <g id="text_11">
      <!-- 15h:14m -->
      <g transform="translate(653.62771 303.028562)scale(0.1 -0.1)">
       <use xlink:href="#DejaVuSans-31"/>
       <use x="63.623047" xlink:href="#DejaVuSans-35"/>
       <use x="127.246094" xlink:href="#DejaVuSans-68"/>
       <use x="190.625" xlink:href="#DejaVuSans-3a"/>
       <use x="224.316406" xlink:href="#DejaVuSans-31"/>
       <use x="287.939453" xlink:href="#DejaVuSans-34"/>
       <use x="351.5625" xlink:href="#DejaVuSans-6d"/>
      </g>
     </g>
    </g>
    <g id="xtick_12">
     <g id="line2d_12">
      <g>
       <use style="stroke:#000000;stroke-width:0.8;" x="735.104405" xlink:href="#m2c4f884863" y="288.430125"/>
      </g>
     </g>
     <g id="text_12">
      <!-- 23h -->
      <g transform="translate(725.573155 303.028562)scale(0.1 -0.1)">
       <use xlink:href="#DejaVuSans-32"/>
       <use x="63.623047" xlink:href="#DejaVuSans-33"/>
       <use x="127.246094" xlink:href="#DejaVuSans-68"/>
      </g>
     </g>
    </g>
    <g id="xtick_13">
     <g id="line2d_13">
      <defs>
       <path d="M 0 0 
L 0 2 
" id="m5bb7dac414" style="stroke:#000000;stroke-width:0.6;"/>
      </defs>
      <g>
       <use style="stroke:#000000;stroke-width:0.6;" x="68.88045" xlink:href="#m5bb7dac414" y="288.430125"/>
      </g>
     </g>
    </g>
    <g id="xtick_14">
     <g id="line2d_14">
      <g>
       <use style="stroke:#000000;stroke-width:0.6;" x="200.455797" xlink:href="#m5bb7dac414" y="288.430125"/>
      </g>
     </g>
    </g>
    <g id="xtick_15">
     <g id="line2d_15">
      <g>
       <use style="stroke:#000000;stroke-width:0.6;" x="258.678816" xlink:href="#m5bb7dac414" y="288.430125"/>
      </g>
     </g>
    </g>
    <g id="xtick_16">
     <g id="line2d_16">
      <g>
       <use style="stroke:#000000;stroke-width:0.6;" x="299.988705" xlink:href="#m5bb7dac414" y="288.430125"/>
      </g>
     </g>
    </g>
    <g id="xtick_17">
     <g id="line2d_17">
      <g>
       <use style="stroke:#000000;stroke-width:0.6;" x="332.031144" xlink:href="#m5bb7dac414" y="288.430125"/>
      </g>
     </g>
    </g>
    <g id="xtick_18">
     <g id="line2d_18">
      <g>
       <use style="stroke:#000000;stroke-width:0.6;" x="358.211724" xlink:href="#m5bb7dac414" y="288.430125"/>
      </g>
     </g>
    </g>
    <g id="xtick_19">
     <g id="line2d_19">
      <g>
       <use style="stroke:#000000;stroke-width:0.6;" x="380.347088" xlink:href="#m5bb7dac414" y="288.430125"/>
      </g>
     </g>
    </g>
    <g id="xtick_20">
     <g id="line2d_20">
      <g>
       <use style="stroke:#000000;stroke-width:0.6;" x="399.521613" xlink:href="#m5bb7dac414" y="288.430125"/>
      </g>
     </g>
    </g>
    <g id="xtick_21">
     <g id="line2d_21">
      <g>
       <use style="stroke:#000000;stroke-width:0.6;" x="416.434742" xlink:href="#m5bb7dac414" y="288.430125"/>
      </g>
     </g>
    </g>
    <g id="xtick_22">
     <g id="line2d_22">
      <g>
       <use style="stroke:#000000;stroke-width:0.6;" x="531.09696" xlink:href="#m5bb7dac414" y="288.430125"/>
      </g>
     </g>
    </g>
    <g id="xtick_23">
     <g id="line2d_23">
      <g>
       <use style="stroke:#000000;stroke-width:0.6;" x="589.319979" xlink:href="#m5bb7dac414" y="288.430125"/>
      </g>
     </g>
    </g>
    <g id="xtick_24">
     <g id="line2d_24">
      <g>
       <use style="stroke:#000000;stroke-width:0.6;" x="630.629868" xlink:href="#m5bb7dac414" y="288.430125"/>
      </g>
     </g>
    </g>
    <g id="xtick_25">
     <g id="line2d_25">
      <g>
       <use style="stroke:#000000;stroke-width:0.6;" x="662.672307" xlink:href="#m5bb7dac414" y="288.430125"/>
      </g>
     </g>
    </g>
    <g id="xtick_26">
     <g id="line2d_26">
      <g>
       <use style="stroke:#000000;stroke-width:0.6;" x="688.852887" xlink:href="#m5bb7dac414" y="288.430125"/>
      </g>
     </g>
    </g>
    <g id="xtick_27">
     <g id="line2d_27">
      <g>
       <use style="stroke:#000000;stroke-width:0.6;" x="710.988251" xlink:href="#m5bb7dac414" y="288.430125"/>
      </g>
     </g>
    </g>
    <g id="xtick_28">
     <g id="line2d_28">
      <g>
       <use style="stroke:#000000;stroke-width:0.6;" x="730.162776" xlink:href="#m5bb7dac414" y="288.430125"/>
      </g>
     </g>
    </g>
    <g id="xtick_29">
     <g id="line2d_29">
      <g>
       <use style="stroke:#000000;stroke-width:0.6;" x="747.075905" xlink:href="#m5bb7dac414" y="288.430125"/>
      </g>
     </g>
    </g>
    <g id="text_13">
     <!-- Time (hour:minute) -->
     <g transform="translate(362.041094 316.706687)scale(0.1 -0.1)">
      <defs>
       <path d="M -19 4666 
L 3928 4666 
L 3928 4134 
L 2272 4134 
L 2272 0 
L 1638 0 
L 1638 4134 
L -19 4134 
L -19 4666 
z
" id="DejaVuSans-54" transform="scale(0.015625)"/>
       <path d="M 603 3500 
L 1178 3500 
L 1178 0 
L 603 0 
L 603 3500 
z
M 603 4863 
L 1178 4863 
L 1178 4134 
L 603 4134 
L 603 4863 
z
" id="DejaVuSans-69" transform="scale(0.015625)"/>
       <path d="M 3597 1894 
L 3597 1613 
L 953 1613 
Q 991 1019 1311 708 
Q 1631 397 2203 397 
Q 2534 397 2845 478 
Q 3156 559 3463 722 
L 3463 178 
Q 3153 47 2828 -22 
Q 2503 -91 2169 -91 
Q 1331 -91 842 396 
Q 353 884 353 1716 
Q 353 2575 817 3079 
Q 1281 3584 2069 3584 
Q 2775 3584 3186 3129 
Q 3597 2675 3597 1894 
z
M 3022 2063 
Q 3016 2534 2758 2815 
Q 2500 3097 2075 3097 
Q 1594 3097 1305 2825 
Q 1016 2553 972 2059 
L 3022 2063 
z
" id="DejaVuSans-65" transform="scale(0.015625)"/>
       <path id="DejaVuSans-20" transform="scale(0.015625)"/>
       <path d="M 1984 4856 
Q 1566 4138 1362 3434 
Q 1159 2731 1159 2009 
Q 1159 1288 1364 580 
Q 1569 -128 1984 -844 
L 1484 -844 
Q 1016 -109 783 600 
Q 550 1309 550 2009 
Q 550 2706 781 3412 
Q 1013 4119 1484 4856 
L 1984 4856 
z
" id="DejaVuSans-28" transform="scale(0.015625)"/>
       <path d="M 1959 3097 
Q 1497 3097 1228 2736 
Q 959 2375 959 1747 
Q 959 1119 1226 758 
Q 1494 397 1959 397 
Q 2419 397 2687 759 
Q 2956 1122 2956 1747 
Q 2956 2369 2687 2733 
Q 2419 3097 1959 3097 
z
M 1959 3584 
Q 2709 3584 3137 3096 
Q 3566 2609 3566 1747 
Q 3566 888 3137 398 
Q 2709 -91 1959 -91 
Q 1206 -91 779 398 
Q 353 888 353 1747 
Q 353 2609 779 3096 
Q 1206 3584 1959 3584 
z
" id="DejaVuSans-6f" transform="scale(0.015625)"/>
       <path d="M 544 1381 
L 544 3500 
L 1119 3500 
L 1119 1403 
Q 1119 906 1312 657 
Q 1506 409 1894 409 
Q 2359 409 2629 706 
Q 2900 1003 2900 1516 
L 2900 3500 
L 3475 3500 
L 3475 0 
L 2900 0 
L 2900 538 
Q 2691 219 2414 64 
Q 2138 -91 1772 -91 
Q 1169 -91 856 284 
Q 544 659 544 1381 
z
M 1991 3584 
L 1991 3584 
z
" id="DejaVuSans-75" transform="scale(0.015625)"/>
       <path d="M 2631 2963 
Q 2534 3019 2420 3045 
Q 2306 3072 2169 3072 
Q 1681 3072 1420 2755 
Q 1159 2438 1159 1844 
L 1159 0 
L 581 0 
L 581 3500 
L 1159 3500 
L 1159 2956 
Q 1341 3275 1631 3429 
Q 1922 3584 2338 3584 
Q 2397 3584 2469 3576 
Q 2541 3569 2628 3553 
L 2631 2963 
z
" id="DejaVuSans-72" transform="scale(0.015625)"/>
       <path d="M 3513 2113 
L 3513 0 
L 2938 0 
L 2938 2094 
Q 2938 2591 2744 2837 
Q 2550 3084 2163 3084 
Q 1697 3084 1428 2787 
Q 1159 2491 1159 1978 
L 1159 0 
L 581 0 
L 581 3500 
L 1159 3500 
L 1159 2956 
Q 1366 3272 1645 3428 
Q 1925 3584 2291 3584 
Q 2894 3584 3203 3211 
Q 3513 2838 3513 2113 
z
" id="DejaVuSans-6e" transform="scale(0.015625)"/>
       <path d="M 1172 4494 
L 1172 3500 
L 2356 3500 
L 2356 3053 
L 1172 3053 
L 1172 1153 
Q 1172 725 1289 603 
Q 1406 481 1766 481 
L 2356 481 
L 2356 0 
L 1766 0 
Q 1100 0 847 248 
Q 594 497 594 1153 
L 594 3053 
L 172 3053 
L 172 3500 
L 594 3500 
L 594 4494 
L 1172 4494 
z
" id="DejaVuSans-74" transform="scale(0.015625)"/>
       <path d="M 513 4856 
L 1013 4856 
Q 1481 4119 1714 3412 
Q 1947 2706 1947 2009 
Q 1947 1309 1714 600 
Q 1481 -109 1013 -844 
L 513 -844 
Q 928 -128 1133 580 
Q 1338 1288 1338 2009 
Q 1338 2731 1133 3434 
Q 928 4138 513 4856 
z
" id="DejaVuSans-29" transform="scale(0.015625)"/>
      </defs>
      <use xlink:href="#DejaVuSans-54"/>
      <use x="57.958984" xlink:href="#DejaVuSans-69"/>
      <use x="85.742188" xlink:href="#DejaVuSans-6d"/>
      <use x="183.154297" xlink:href="#DejaVuSans-65"/>
      <use x="244.677734" xlink:href="#DejaVuSans-20"/>
      <use x="276.464844" xlink:href="#DejaVuSans-28"/>
      <use x="315.478516" xlink:href="#DejaVuSans-68"/>
      <use x="378.857422" xlink:href="#DejaVuSans-6f"/>
      <use x="440.039062" xlink:href="#DejaVuSans-75"/>
      <use x="503.417969" xlink:href="#DejaVuSans-72"/>
      <use x="542.78125" xlink:href="#DejaVuSans-3a"/>
      <use x="576.472656" xlink:href="#DejaVuSans-6d"/>
      <use x="673.884766" xlink:href="#DejaVuSans-69"/>
      <use x="701.667969" xlink:href="#DejaVuSans-6e"/>
      <use x="765.046875" xlink:href="#DejaVuSans-75"/>
      <use x="828.425781" xlink:href="#DejaVuSans-74"/>
      <use x="867.634766" xlink:href="#DejaVuSans-65"/>
      <use x="929.158203" xlink:href="#DejaVuSans-29"/>
     </g>
    </g>
   </g>
   <g id="matplotlib.axis_2">
    <g id="ytick_1">
     <g id="line2d_30">
      <defs>
       <path d="M 0 0 
L -3.5 0 
" id="m6240715f1b" style="stroke:#000000;stroke-width:0.8;"/>
      </defs>
      <g>
       <use style="stroke:#000000;stroke-width:0.8;" x="53.328125" xlink:href="#m6240715f1b" y="268.831311"/>
      </g>
     </g>
     <g id="text_14">
      <!-- 2100 -->
      <g transform="translate(20.878125 272.63053)scale(0.1 -0.1)">
       <use xlink:href="#DejaVuSans-32"/>
       <use x="63.623047" xlink:href="#DejaVuSans-31"/>
       <use x="127.246094" xlink:href="#DejaVuSans-30"/>
       <use x="190.869141" xlink:href="#DejaVuSans-30"/>
      </g>
     </g>
    </g>
    <g id="ytick_2">
     <g id="line2d_31">
      <g>
       <use style="stroke:#000000;stroke-width:0.8;" x="53.328125" xlink:href="#m6240715f1b" y="232.232219"/>
      </g>
     </g>
     <g id="text_15">
      <!-- 2200 -->
      <g transform="translate(20.878125 236.031438)scale(0.1 -0.1)">
       <use xlink:href="#DejaVuSans-32"/>
       <use x="63.623047" xlink:href="#DejaVuSans-32"/>
       <use x="127.246094" xlink:href="#DejaVuSans-30"/>
       <use x="190.869141" xlink:href="#DejaVuSans-30"/>
      </g>
     </g>
    </g>
    <g id="ytick_3">
     <g id="line2d_32">
      <g>
       <use style="stroke:#000000;stroke-width:0.8;" x="53.328125" xlink:href="#m6240715f1b" y="195.633127"/>
      </g>
     </g>
     <g id="text_16">
      <!-- 2300 -->
      <g transform="translate(20.878125 199.432345)scale(0.1 -0.1)">
       <use xlink:href="#DejaVuSans-32"/>
       <use x="63.623047" xlink:href="#DejaVuSans-33"/>
       <use x="127.246094" xlink:href="#DejaVuSans-30"/>
       <use x="190.869141" xlink:href="#DejaVuSans-30"/>
      </g>
     </g>
    </g>
    <g id="ytick_4">
     <g id="line2d_33">
      <g>
       <use style="stroke:#000000;stroke-width:0.8;" x="53.328125" xlink:href="#m6240715f1b" y="159.034034"/>
      </g>
     </g>
     <g id="text_17">
      <!-- 2400 -->
      <g transform="translate(20.878125 162.833253)scale(0.1 -0.1)">
       <use xlink:href="#DejaVuSans-32"/>
       <use x="63.623047" xlink:href="#DejaVuSans-34"/>
       <use x="127.246094" xlink:href="#DejaVuSans-30"/>
       <use x="190.869141" xlink:href="#DejaVuSans-30"/>
      </g>
     </g>
    </g>
    <g id="ytick_5">
     <g id="line2d_34">
      <g>
       <use style="stroke:#000000;stroke-width:0.8;" x="53.328125" xlink:href="#m6240715f1b" y="122.434942"/>
      </g>
     </g>
     <g id="text_18">
      <!-- 2500 -->
      <g transform="translate(20.878125 126.234161)scale(0.1 -0.1)">
       <use xlink:href="#DejaVuSans-32"/>
       <use x="63.623047" xlink:href="#DejaVuSans-35"/>
       <use x="127.246094" xlink:href="#DejaVuSans-30"/>
       <use x="190.869141" xlink:href="#DejaVuSans-30"/>
      </g>
     </g>
    </g>
    <g id="ytick_6">
     <g id="line2d_35">
      <g>
       <use style="stroke:#000000;stroke-width:0.8;" x="53.328125" xlink:href="#m6240715f1b" y="85.83585"/>
      </g>
     </g>
     <g id="text_19">
      <!-- 2600 -->
      <g transform="translate(20.878125 89.635068)scale(0.1 -0.1)">
       <use xlink:href="#DejaVuSans-32"/>
       <use x="63.623047" xlink:href="#DejaVuSans-36"/>
       <use x="127.246094" xlink:href="#DejaVuSans-30"/>
       <use x="190.869141" xlink:href="#DejaVuSans-30"/>
      </g>
     </g>
    </g>
    <g id="ytick_7">
     <g id="line2d_36">
      <g>
       <use style="stroke:#000000;stroke-width:0.8;" x="53.328125" xlink:href="#m6240715f1b" y="49.236757"/>
      </g>
     </g>
     <g id="text_20">
      <!-- 2700 -->
      <g transform="translate(20.878125 53.035976)scale(0.1 -0.1)">
       <use xlink:href="#DejaVuSans-32"/>
       <use x="63.623047" xlink:href="#DejaVuSans-37"/>
       <use x="127.246094" xlink:href="#DejaVuSans-30"/>
       <use x="190.869141" xlink:href="#DejaVuSans-30"/>
      </g>
     </g>
    </g>
    <g id="text_21">
     <!-- Code branch coverage -->
     <g transform="translate(14.798438 211.949125)rotate(-90)scale(0.1 -0.1)">
      <defs>
       <path d="M 4122 4306 
L 4122 3641 
Q 3803 3938 3442 4084 
Q 3081 4231 2675 4231 
Q 1875 4231 1450 3742 
Q 1025 3253 1025 2328 
Q 1025 1406 1450 917 
Q 1875 428 2675 428 
Q 3081 428 3442 575 
Q 3803 722 4122 1019 
L 4122 359 
Q 3791 134 3420 21 
Q 3050 -91 2638 -91 
Q 1578 -91 968 557 
Q 359 1206 359 2328 
Q 359 3453 968 4101 
Q 1578 4750 2638 4750 
Q 3056 4750 3426 4639 
Q 3797 4528 4122 4306 
z
" id="DejaVuSans-43" transform="scale(0.015625)"/>
       <path d="M 2906 2969 
L 2906 4863 
L 3481 4863 
L 3481 0 
L 2906 0 
L 2906 525 
Q 2725 213 2448 61 
Q 2172 -91 1784 -91 
Q 1150 -91 751 415 
Q 353 922 353 1747 
Q 353 2572 751 3078 
Q 1150 3584 1784 3584 
Q 2172 3584 2448 3432 
Q 2725 3281 2906 2969 
z
M 947 1747 
Q 947 1113 1208 752 
Q 1469 391 1925 391 
Q 2381 391 2643 752 
Q 2906 1113 2906 1747 
Q 2906 2381 2643 2742 
Q 2381 3103 1925 3103 
Q 1469 3103 1208 2742 
Q 947 2381 947 1747 
z
" id="DejaVuSans-64" transform="scale(0.015625)"/>
       <path d="M 3116 1747 
Q 3116 2381 2855 2742 
Q 2594 3103 2138 3103 
Q 1681 3103 1420 2742 
Q 1159 2381 1159 1747 
Q 1159 1113 1420 752 
Q 1681 391 2138 391 
Q 2594 391 2855 752 
Q 3116 1113 3116 1747 
z
M 1159 2969 
Q 1341 3281 1617 3432 
Q 1894 3584 2278 3584 
Q 2916 3584 3314 3078 
Q 3713 2572 3713 1747 
Q 3713 922 3314 415 
Q 2916 -91 2278 -91 
Q 1894 -91 1617 61 
Q 1341 213 1159 525 
L 1159 0 
L 581 0 
L 581 4863 
L 1159 4863 
L 1159 2969 
z
" id="DejaVuSans-62" transform="scale(0.015625)"/>
       <path d="M 2194 1759 
Q 1497 1759 1228 1600 
Q 959 1441 959 1056 
Q 959 750 1161 570 
Q 1363 391 1709 391 
Q 2188 391 2477 730 
Q 2766 1069 2766 1631 
L 2766 1759 
L 2194 1759 
z
M 3341 1997 
L 3341 0 
L 2766 0 
L 2766 531 
Q 2569 213 2275 61 
Q 1981 -91 1556 -91 
Q 1019 -91 701 211 
Q 384 513 384 1019 
Q 384 1609 779 1909 
Q 1175 2209 1959 2209 
L 2766 2209 
L 2766 2266 
Q 2766 2663 2505 2880 
Q 2244 3097 1772 3097 
Q 1472 3097 1187 3025 
Q 903 2953 641 2809 
L 641 3341 
Q 956 3463 1253 3523 
Q 1550 3584 1831 3584 
Q 2591 3584 2966 3190 
Q 3341 2797 3341 1997 
z
" id="DejaVuSans-61" transform="scale(0.015625)"/>
       <path d="M 3122 3366 
L 3122 2828 
Q 2878 2963 2633 3030 
Q 2388 3097 2138 3097 
Q 1578 3097 1268 2742 
Q 959 2388 959 1747 
Q 959 1106 1268 751 
Q 1578 397 2138 397 
Q 2388 397 2633 464 
Q 2878 531 3122 666 
L 3122 134 
Q 2881 22 2623 -34 
Q 2366 -91 2075 -91 
Q 1284 -91 818 406 
Q 353 903 353 1747 
Q 353 2603 823 3093 
Q 1294 3584 2113 3584 
Q 2378 3584 2631 3529 
Q 2884 3475 3122 3366 
z
" id="DejaVuSans-63" transform="scale(0.015625)"/>
       <path d="M 191 3500 
L 800 3500 
L 1894 563 
L 2988 3500 
L 3597 3500 
L 2284 0 
L 1503 0 
L 191 3500 
z
" id="DejaVuSans-76" transform="scale(0.015625)"/>
       <path d="M 2906 1791 
Q 2906 2416 2648 2759 
Q 2391 3103 1925 3103 
Q 1463 3103 1205 2759 
Q 947 2416 947 1791 
Q 947 1169 1205 825 
Q 1463 481 1925 481 
Q 2391 481 2648 825 
Q 2906 1169 2906 1791 
z
M 3481 434 
Q 3481 -459 3084 -895 
Q 2688 -1331 1869 -1331 
Q 1566 -1331 1297 -1286 
Q 1028 -1241 775 -1147 
L 775 -588 
Q 1028 -725 1275 -790 
Q 1522 -856 1778 -856 
Q 2344 -856 2625 -561 
Q 2906 -266 2906 331 
L 2906 616 
Q 2728 306 2450 153 
Q 2172 0 1784 0 
Q 1141 0 747 490 
Q 353 981 353 1791 
Q 353 2603 747 3093 
Q 1141 3584 1784 3584 
Q 2172 3584 2450 3431 
Q 2728 3278 2906 2969 
L 2906 3500 
L 3481 3500 
L 3481 434 
z
" id="DejaVuSans-67" transform="scale(0.015625)"/>
      </defs>
      <use xlink:href="#DejaVuSans-43"/>
      <use x="69.824219" xlink:href="#DejaVuSans-6f"/>
      <use x="131.005859" xlink:href="#DejaVuSans-64"/>
      <use x="194.482422" xlink:href="#DejaVuSans-65"/>
      <use x="256.005859" xlink:href="#DejaVuSans-20"/>
      <use x="287.792969" xlink:href="#DejaVuSans-62"/>
      <use x="351.269531" xlink:href="#DejaVuSans-72"/>
      <use x="392.382812" xlink:href="#DejaVuSans-61"/>
      <use x="453.662109" xlink:href="#DejaVuSans-6e"/>
      <use x="517.041016" xlink:href="#DejaVuSans-63"/>
      <use x="572.021484" xlink:href="#DejaVuSans-68"/>
      <use x="635.400391" xlink:href="#DejaVuSans-20"/>
      <use x="667.1875" xlink:href="#DejaVuSans-63"/>
      <use x="722.167969" xlink:href="#DejaVuSans-6f"/>
      <use x="783.349609" xlink:href="#DejaVuSans-76"/>
      <use x="842.529297" xlink:href="#DejaVuSans-65"/>
      <use x="904.052734" xlink:href="#DejaVuSans-72"/>
      <use x="945.166016" xlink:href="#DejaVuSans-61"/>
      <use x="1006.445312" xlink:href="#DejaVuSans-67"/>
      <use x="1069.921875" xlink:href="#DejaVuSans-65"/>
     </g>
    </g>
   </g>
   <g id="line2d_37">
    <path clip-path="url(#pb8050c9a8d)" d="M 85.79358 263.524443 
L 185.326487 258.034579 
L 243.549506 243.394942 
L 284.859395 234.428164 
L 316.901835 233.330192 
L 343.082414 232.781205 
L 365.217778 231.866228 
L 384.392303 231.134246 
L 401.305433 230.219269 
L 416.434742 230.219269 
L 430.120868 229.670282 
L 442.615322 229.670282 
L 454.109105 228.389314 
L 464.750686 228.389314 
L 474.657761 226.742355 
L 483.925211 226.010373 
L 492.630642 224.729405 
L 500.83834 222.167468 
L 508.602157 221.984473 
L 515.96765 221.801477 
L 522.973705 221.069496 
L 529.653776 221.069496 
L 536.036855 221.069496 
L 542.14823 221.069496 
L 548.01009 221.069496 
L 553.642013 221.069496 
L 559.061359 221.069496 
L 564.283594 220.337514 
L 569.322554 220.337514 
L 574.190669 218.690555 
L 578.899144 217.592582 
L 583.458119 217.592582 
L 587.876794 217.592582 
L 592.16355 217.592582 
L 596.326033 217.592582 
L 600.371248 217.592582 
L 604.305621 216.8606 
L 608.135065 216.8606 
L 611.865031 216.8606 
L 615.500558 216.8606 
L 619.046309 216.8606 
L 622.506613 216.8606 
L 625.885489 216.8606 
L 629.186684 216.8606 
L 632.413688 216.8606 
L 635.569763 216.494609 
L 638.65796 216.311614 
L 641.681137 216.311614 
L 644.641977 216.311614 
L 647.542997 216.311614 
L 650.386568 214.664655 
L 653.174921 214.664655 
L 655.910158 214.664655 
L 658.594267 214.664655 
L 661.229123 213.932673 
L 663.816502 213.932673 
L 666.358084 212.8347 
L 668.855462 212.8347 
L 671.310148 212.285714 
L 673.723577 210.82175 
L 676.097112 210.82175 
L 678.432052 210.638754 
L 680.729631 210.638754 
L 682.991027 146.956334 
L 685.21736 146.956334 
L 687.409702 146.773338 
L 689.569076 146.773338 
L 691.696457 86.384836 
L 693.792781 84.371886 
L 695.858941 84.371886 
L 697.895793 84.371886 
L 699.904156 84.371886 
L 701.884817 84.371886 
L 703.838529 84.371886 
L 705.766016 84.188891 
L 707.667973 84.188891 
L 709.545067 84.188891 
L 711.397939 84.188891 
L 713.227208 84.188891 
L 715.033466 84.188891 
L 716.817286 84.188891 
L 718.579217 84.188891 
L 720.319792 84.188891 
L 722.03952 84.188891 
L 723.738897 84.188891 
L 725.418397 83.273913 
L 727.078481 83.273913 
L 728.719591 83.273913 
L 730.342158 83.273913 
L 731.946595 83.273913 
L 733.533304 83.273913 
L 735.10267 83.273913 
" style="fill:none;stroke:#98df8a;stroke-linecap:square;stroke-width:1.5;"/>
    <defs>
     <path d="M -0 3 
L 3 -3 
L -3 -3 
z
" id="m193ba37760" style="stroke:#ffffff;stroke-linejoin:miter;stroke-width:0.75;"/>
    </defs>
    <g clip-path="url(#pb8050c9a8d)">
     <use style="fill:#98df8a;stroke:#ffffff;stroke-linejoin:miter;stroke-width:0.75;" x="85.79358" xlink:href="#m193ba37760" y="263.524443"/>
     <use style="fill:#98df8a;stroke:#ffffff;stroke-linejoin:miter;stroke-width:0.75;" x="185.326487" xlink:href="#m193ba37760" y="258.034579"/>
     <use style="fill:#98df8a;stroke:#ffffff;stroke-linejoin:miter;stroke-width:0.75;" x="243.549506" xlink:href="#m193ba37760" y="243.394942"/>
     <use style="fill:#98df8a;stroke:#ffffff;stroke-linejoin:miter;stroke-width:0.75;" x="284.859395" xlink:href="#m193ba37760" y="234.428164"/>
     <use style="fill:#98df8a;stroke:#ffffff;stroke-linejoin:miter;stroke-width:0.75;" x="316.901835" xlink:href="#m193ba37760" y="233.330192"/>
     <use style="fill:#98df8a;stroke:#ffffff;stroke-linejoin:miter;stroke-width:0.75;" x="343.082414" xlink:href="#m193ba37760" y="232.781205"/>
     <use style="fill:#98df8a;stroke:#ffffff;stroke-linejoin:miter;stroke-width:0.75;" x="365.217778" xlink:href="#m193ba37760" y="231.866228"/>
     <use style="fill:#98df8a;stroke:#ffffff;stroke-linejoin:miter;stroke-width:0.75;" x="384.392303" xlink:href="#m193ba37760" y="231.134246"/>
     <use style="fill:#98df8a;stroke:#ffffff;stroke-linejoin:miter;stroke-width:0.75;" x="401.305433" xlink:href="#m193ba37760" y="230.219269"/>
     <use style="fill:#98df8a;stroke:#ffffff;stroke-linejoin:miter;stroke-width:0.75;" x="416.434742" xlink:href="#m193ba37760" y="230.219269"/>
     <use style="fill:#98df8a;stroke:#ffffff;stroke-linejoin:miter;stroke-width:0.75;" x="430.120868" xlink:href="#m193ba37760" y="229.670282"/>
     <use style="fill:#98df8a;stroke:#ffffff;stroke-linejoin:miter;stroke-width:0.75;" x="442.615322" xlink:href="#m193ba37760" y="229.670282"/>
     <use style="fill:#98df8a;stroke:#ffffff;stroke-linejoin:miter;stroke-width:0.75;" x="454.109105" xlink:href="#m193ba37760" y="228.389314"/>
     <use style="fill:#98df8a;stroke:#ffffff;stroke-linejoin:miter;stroke-width:0.75;" x="464.750686" xlink:href="#m193ba37760" y="228.389314"/>
     <use style="fill:#98df8a;stroke:#ffffff;stroke-linejoin:miter;stroke-width:0.75;" x="474.657761" xlink:href="#m193ba37760" y="226.742355"/>
     <use style="fill:#98df8a;stroke:#ffffff;stroke-linejoin:miter;stroke-width:0.75;" x="483.925211" xlink:href="#m193ba37760" y="226.010373"/>
     <use style="fill:#98df8a;stroke:#ffffff;stroke-linejoin:miter;stroke-width:0.75;" x="492.630642" xlink:href="#m193ba37760" y="224.729405"/>
     <use style="fill:#98df8a;stroke:#ffffff;stroke-linejoin:miter;stroke-width:0.75;" x="500.83834" xlink:href="#m193ba37760" y="222.167468"/>
     <use style="fill:#98df8a;stroke:#ffffff;stroke-linejoin:miter;stroke-width:0.75;" x="508.602157" xlink:href="#m193ba37760" y="221.984473"/>
     <use style="fill:#98df8a;stroke:#ffffff;stroke-linejoin:miter;stroke-width:0.75;" x="515.96765" xlink:href="#m193ba37760" y="221.801477"/>
     <use style="fill:#98df8a;stroke:#ffffff;stroke-linejoin:miter;stroke-width:0.75;" x="522.973705" xlink:href="#m193ba37760" y="221.069496"/>
     <use style="fill:#98df8a;stroke:#ffffff;stroke-linejoin:miter;stroke-width:0.75;" x="529.653776" xlink:href="#m193ba37760" y="221.069496"/>
     <use style="fill:#98df8a;stroke:#ffffff;stroke-linejoin:miter;stroke-width:0.75;" x="536.036855" xlink:href="#m193ba37760" y="221.069496"/>
     <use style="fill:#98df8a;stroke:#ffffff;stroke-linejoin:miter;stroke-width:0.75;" x="542.14823" xlink:href="#m193ba37760" y="221.069496"/>
     <use style="fill:#98df8a;stroke:#ffffff;stroke-linejoin:miter;stroke-width:0.75;" x="548.01009" xlink:href="#m193ba37760" y="221.069496"/>
     <use style="fill:#98df8a;stroke:#ffffff;stroke-linejoin:miter;stroke-width:0.75;" x="553.642013" xlink:href="#m193ba37760" y="221.069496"/>
     <use style="fill:#98df8a;stroke:#ffffff;stroke-linejoin:miter;stroke-width:0.75;" x="559.061359" xlink:href="#m193ba37760" y="221.069496"/>
     <use style="fill:#98df8a;stroke:#ffffff;stroke-linejoin:miter;stroke-width:0.75;" x="564.283594" xlink:href="#m193ba37760" y="220.337514"/>
     <use style="fill:#98df8a;stroke:#ffffff;stroke-linejoin:miter;stroke-width:0.75;" x="569.322554" xlink:href="#m193ba37760" y="220.337514"/>
     <use style="fill:#98df8a;stroke:#ffffff;stroke-linejoin:miter;stroke-width:0.75;" x="574.190669" xlink:href="#m193ba37760" y="218.690555"/>
     <use style="fill:#98df8a;stroke:#ffffff;stroke-linejoin:miter;stroke-width:0.75;" x="578.899144" xlink:href="#m193ba37760" y="217.592582"/>
     <use style="fill:#98df8a;stroke:#ffffff;stroke-linejoin:miter;stroke-width:0.75;" x="583.458119" xlink:href="#m193ba37760" y="217.592582"/>
     <use style="fill:#98df8a;stroke:#ffffff;stroke-linejoin:miter;stroke-width:0.75;" x="587.876794" xlink:href="#m193ba37760" y="217.592582"/>
     <use style="fill:#98df8a;stroke:#ffffff;stroke-linejoin:miter;stroke-width:0.75;" x="592.16355" xlink:href="#m193ba37760" y="217.592582"/>
     <use style="fill:#98df8a;stroke:#ffffff;stroke-linejoin:miter;stroke-width:0.75;" x="596.326033" xlink:href="#m193ba37760" y="217.592582"/>
     <use style="fill:#98df8a;stroke:#ffffff;stroke-linejoin:miter;stroke-width:0.75;" x="600.371248" xlink:href="#m193ba37760" y="217.592582"/>
     <use style="fill:#98df8a;stroke:#ffffff;stroke-linejoin:miter;stroke-width:0.75;" x="604.305621" xlink:href="#m193ba37760" y="216.8606"/>
     <use style="fill:#98df8a;stroke:#ffffff;stroke-linejoin:miter;stroke-width:0.75;" x="608.135065" xlink:href="#m193ba37760" y="216.8606"/>
     <use style="fill:#98df8a;stroke:#ffffff;stroke-linejoin:miter;stroke-width:0.75;" x="611.865031" xlink:href="#m193ba37760" y="216.8606"/>
     <use style="fill:#98df8a;stroke:#ffffff;stroke-linejoin:miter;stroke-width:0.75;" x="615.500558" xlink:href="#m193ba37760" y="216.8606"/>
     <use style="fill:#98df8a;stroke:#ffffff;stroke-linejoin:miter;stroke-width:0.75;" x="619.046309" xlink:href="#m193ba37760" y="216.8606"/>
     <use style="fill:#98df8a;stroke:#ffffff;stroke-linejoin:miter;stroke-width:0.75;" x="622.506613" xlink:href="#m193ba37760" y="216.8606"/>
     <use style="fill:#98df8a;stroke:#ffffff;stroke-linejoin:miter;stroke-width:0.75;" x="625.885489" xlink:href="#m193ba37760" y="216.8606"/>
     <use style="fill:#98df8a;stroke:#ffffff;stroke-linejoin:miter;stroke-width:0.75;" x="629.186684" xlink:href="#m193ba37760" y="216.8606"/>
     <use style="fill:#98df8a;stroke:#ffffff;stroke-linejoin:miter;stroke-width:0.75;" x="632.413688" xlink:href="#m193ba37760" y="216.8606"/>
     <use style="fill:#98df8a;stroke:#ffffff;stroke-linejoin:miter;stroke-width:0.75;" x="635.569763" xlink:href="#m193ba37760" y="216.494609"/>
     <use style="fill:#98df8a;stroke:#ffffff;stroke-linejoin:miter;stroke-width:0.75;" x="638.65796" xlink:href="#m193ba37760" y="216.311614"/>
     <use style="fill:#98df8a;stroke:#ffffff;stroke-linejoin:miter;stroke-width:0.75;" x="641.681137" xlink:href="#m193ba37760" y="216.311614"/>
     <use style="fill:#98df8a;stroke:#ffffff;stroke-linejoin:miter;stroke-width:0.75;" x="644.641977" xlink:href="#m193ba37760" y="216.311614"/>
     <use style="fill:#98df8a;stroke:#ffffff;stroke-linejoin:miter;stroke-width:0.75;" x="647.542997" xlink:href="#m193ba37760" y="216.311614"/>
     <use style="fill:#98df8a;stroke:#ffffff;stroke-linejoin:miter;stroke-width:0.75;" x="650.386568" xlink:href="#m193ba37760" y="214.664655"/>
     <use style="fill:#98df8a;stroke:#ffffff;stroke-linejoin:miter;stroke-width:0.75;" x="653.174921" xlink:href="#m193ba37760" y="214.664655"/>
     <use style="fill:#98df8a;stroke:#ffffff;stroke-linejoin:miter;stroke-width:0.75;" x="655.910158" xlink:href="#m193ba37760" y="214.664655"/>
     <use style="fill:#98df8a;stroke:#ffffff;stroke-linejoin:miter;stroke-width:0.75;" x="658.594267" xlink:href="#m193ba37760" y="214.664655"/>
     <use style="fill:#98df8a;stroke:#ffffff;stroke-linejoin:miter;stroke-width:0.75;" x="661.229123" xlink:href="#m193ba37760" y="213.932673"/>
     <use style="fill:#98df8a;stroke:#ffffff;stroke-linejoin:miter;stroke-width:0.75;" x="663.816502" xlink:href="#m193ba37760" y="213.932673"/>
     <use style="fill:#98df8a;stroke:#ffffff;stroke-linejoin:miter;stroke-width:0.75;" x="666.358084" xlink:href="#m193ba37760" y="212.8347"/>
     <use style="fill:#98df8a;stroke:#ffffff;stroke-linejoin:miter;stroke-width:0.75;" x="668.855462" xlink:href="#m193ba37760" y="212.8347"/>
     <use style="fill:#98df8a;stroke:#ffffff;stroke-linejoin:miter;stroke-width:0.75;" x="671.310148" xlink:href="#m193ba37760" y="212.285714"/>
     <use style="fill:#98df8a;stroke:#ffffff;stroke-linejoin:miter;stroke-width:0.75;" x="673.723577" xlink:href="#m193ba37760" y="210.82175"/>
     <use style="fill:#98df8a;stroke:#ffffff;stroke-linejoin:miter;stroke-width:0.75;" x="676.097112" xlink:href="#m193ba37760" y="210.82175"/>
     <use style="fill:#98df8a;stroke:#ffffff;stroke-linejoin:miter;stroke-width:0.75;" x="678.432052" xlink:href="#m193ba37760" y="210.638754"/>
     <use style="fill:#98df8a;stroke:#ffffff;stroke-linejoin:miter;stroke-width:0.75;" x="680.729631" xlink:href="#m193ba37760" y="210.638754"/>
     <use style="fill:#98df8a;stroke:#ffffff;stroke-linejoin:miter;stroke-width:0.75;" x="682.991027" xlink:href="#m193ba37760" y="146.956334"/>
     <use style="fill:#98df8a;stroke:#ffffff;stroke-linejoin:miter;stroke-width:0.75;" x="685.21736" xlink:href="#m193ba37760" y="146.956334"/>
     <use style="fill:#98df8a;stroke:#ffffff;stroke-linejoin:miter;stroke-width:0.75;" x="687.409702" xlink:href="#m193ba37760" y="146.773338"/>
     <use style="fill:#98df8a;stroke:#ffffff;stroke-linejoin:miter;stroke-width:0.75;" x="689.569076" xlink:href="#m193ba37760" y="146.773338"/>
     <use style="fill:#98df8a;stroke:#ffffff;stroke-linejoin:miter;stroke-width:0.75;" x="691.696457" xlink:href="#m193ba37760" y="86.384836"/>
     <use style="fill:#98df8a;stroke:#ffffff;stroke-linejoin:miter;stroke-width:0.75;" x="693.792781" xlink:href="#m193ba37760" y="84.371886"/>
     <use style="fill:#98df8a;stroke:#ffffff;stroke-linejoin:miter;stroke-width:0.75;" x="695.858941" xlink:href="#m193ba37760" y="84.371886"/>
     <use style="fill:#98df8a;stroke:#ffffff;stroke-linejoin:miter;stroke-width:0.75;" x="697.895793" xlink:href="#m193ba37760" y="84.371886"/>
     <use style="fill:#98df8a;stroke:#ffffff;stroke-linejoin:miter;stroke-width:0.75;" x="699.904156" xlink:href="#m193ba37760" y="84.371886"/>
     <use style="fill:#98df8a;stroke:#ffffff;stroke-linejoin:miter;stroke-width:0.75;" x="701.884817" xlink:href="#m193ba37760" y="84.371886"/>
     <use style="fill:#98df8a;stroke:#ffffff;stroke-linejoin:miter;stroke-width:0.75;" x="703.838529" xlink:href="#m193ba37760" y="84.371886"/>
     <use style="fill:#98df8a;stroke:#ffffff;stroke-linejoin:miter;stroke-width:0.75;" x="705.766016" xlink:href="#m193ba37760" y="84.188891"/>
     <use style="fill:#98df8a;stroke:#ffffff;stroke-linejoin:miter;stroke-width:0.75;" x="707.667973" xlink:href="#m193ba37760" y="84.188891"/>
     <use style="fill:#98df8a;stroke:#ffffff;stroke-linejoin:miter;stroke-width:0.75;" x="709.545067" xlink:href="#m193ba37760" y="84.188891"/>
     <use style="fill:#98df8a;stroke:#ffffff;stroke-linejoin:miter;stroke-width:0.75;" x="711.397939" xlink:href="#m193ba37760" y="84.188891"/>
     <use style="fill:#98df8a;stroke:#ffffff;stroke-linejoin:miter;stroke-width:0.75;" x="713.227208" xlink:href="#m193ba37760" y="84.188891"/>
     <use style="fill:#98df8a;stroke:#ffffff;stroke-linejoin:miter;stroke-width:0.75;" x="715.033466" xlink:href="#m193ba37760" y="84.188891"/>
     <use style="fill:#98df8a;stroke:#ffffff;stroke-linejoin:miter;stroke-width:0.75;" x="716.817286" xlink:href="#m193ba37760" y="84.188891"/>
     <use style="fill:#98df8a;stroke:#ffffff;stroke-linejoin:miter;stroke-width:0.75;" x="718.579217" xlink:href="#m193ba37760" y="84.188891"/>
     <use style="fill:#98df8a;stroke:#ffffff;stroke-linejoin:miter;stroke-width:0.75;" x="720.319792" xlink:href="#m193ba37760" y="84.188891"/>
     <use style="fill:#98df8a;stroke:#ffffff;stroke-linejoin:miter;stroke-width:0.75;" x="722.03952" xlink:href="#m193ba37760" y="84.188891"/>
     <use style="fill:#98df8a;stroke:#ffffff;stroke-linejoin:miter;stroke-width:0.75;" x="723.738897" xlink:href="#m193ba37760" y="84.188891"/>
     <use style="fill:#98df8a;stroke:#ffffff;stroke-linejoin:miter;stroke-width:0.75;" x="725.418397" xlink:href="#m193ba37760" y="83.273913"/>
     <use style="fill:#98df8a;stroke:#ffffff;stroke-linejoin:miter;stroke-width:0.75;" x="727.078481" xlink:href="#m193ba37760" y="83.273913"/>
     <use style="fill:#98df8a;stroke:#ffffff;stroke-linejoin:miter;stroke-width:0.75;" x="728.719591" xlink:href="#m193ba37760" y="83.273913"/>
     <use style="fill:#98df8a;stroke:#ffffff;stroke-linejoin:miter;stroke-width:0.75;" x="730.342158" xlink:href="#m193ba37760" y="83.273913"/>
     <use style="fill:#98df8a;stroke:#ffffff;stroke-linejoin:miter;stroke-width:0.75;" x="731.946595" xlink:href="#m193ba37760" y="83.273913"/>
     <use style="fill:#98df8a;stroke:#ffffff;stroke-linejoin:miter;stroke-width:0.75;" x="733.533304" xlink:href="#m193ba37760" y="83.273913"/>
     <use style="fill:#98df8a;stroke:#ffffff;stroke-linejoin:miter;stroke-width:0.75;" x="735.10267" xlink:href="#m193ba37760" y="83.273913"/>
    </g>
   </g>
   <g id="line2d_38">
    <path clip-path="url(#pb8050c9a8d)" d="M 85.79358 269.746288 
L 185.326487 253.276697 
L 243.549506 245.956878 
L 284.859395 245.590887 
L 316.901835 243.394942 
L 343.082414 240.833005 
L 365.217778 235.526137 
L 384.392303 233.147196 
L 401.305433 232.781205 
L 416.434742 231.134246 
L 430.120868 231.134246 
L 442.615322 231.134246 
L 454.109105 230.036273 
L 464.750686 229.853278 
L 474.657761 229.853278 
L 483.925211 229.853278 
L 492.630642 229.853278 
L 500.83834 227.291341 
L 508.602157 227.291341 
L 515.96765 225.095396 
L 522.973705 225.095396 
L 529.653776 225.095396 
L 536.036855 225.095396 
L 542.14823 225.095396 
L 548.01009 224.9124 
L 553.642013 224.9124 
L 559.061359 224.9124 
L 564.283594 224.9124 
L 569.322554 224.9124 
L 574.190669 224.9124 
L 578.899144 224.9124 
L 583.458119 224.9124 
L 587.876794 224.546409 
L 592.16355 224.363414 
L 596.326033 224.363414 
L 600.371248 224.363414 
L 604.305621 224.363414 
L 608.135065 224.363414 
L 611.865031 224.363414 
L 615.500558 223.997423 
L 619.046309 223.997423 
L 622.506613 223.997423 
L 625.885489 223.997423 
L 629.186684 223.997423 
L 632.413688 223.997423 
L 635.569763 223.997423 
L 638.65796 223.997423 
L 641.681137 223.814428 
L 644.641977 223.814428 
L 647.542997 223.265441 
L 650.386568 222.167468 
L 653.174921 222.167468 
L 655.910158 222.167468 
L 658.594267 222.167468 
L 661.229123 222.167468 
L 663.816502 222.167468 
L 666.358084 222.167468 
L 668.855462 222.167468 
L 671.310148 222.167468 
L 673.723577 222.167468 
L 676.097112 222.167468 
L 678.432052 222.167468 
L 680.729631 222.167468 
L 682.991027 222.167468 
L 685.21736 222.167468 
L 687.409702 222.167468 
L 689.569076 222.167468 
L 691.696457 219.422536 
L 693.792781 219.422536 
L 695.858941 219.422536 
L 697.895793 219.422536 
L 699.904156 219.422536 
L 701.884817 219.422536 
L 703.838529 219.422536 
L 705.766016 219.422536 
L 707.667973 219.239541 
L 709.545067 219.239541 
L 711.397939 219.239541 
L 713.227208 219.239541 
L 715.033466 153.727166 
L 716.817286 153.727166 
L 718.579217 153.727166 
L 720.319792 153.727166 
L 722.03952 153.727166 
L 723.738897 153.727166 
L 725.418397 153.727166 
L 727.078481 153.727166 
L 728.719591 153.727166 
L 730.342158 153.727166 
L 731.946595 153.727166 
L 733.533304 153.727166 
L 735.10267 153.727166 
" style="fill:none;stroke:#1f77b4;stroke-linecap:square;stroke-width:1.5;"/>
    <defs>
     <path d="M 0 3 
C 0.795609 3 1.55874 2.683901 2.12132 2.12132 
C 2.683901 1.55874 3 0.795609 3 0 
C 3 -0.795609 2.683901 -1.55874 2.12132 -2.12132 
C 1.55874 -2.683901 0.795609 -3 0 -3 
C -0.795609 -3 -1.55874 -2.683901 -2.12132 -2.12132 
C -2.683901 -1.55874 -3 -0.795609 -3 0 
C -3 0.795609 -2.683901 1.55874 -2.12132 2.12132 
C -1.55874 2.683901 -0.795609 3 0 3 
z
" id="m598e20b5a3" style="stroke:#ffffff;stroke-width:0.75;"/>
    </defs>
    <g clip-path="url(#pb8050c9a8d)">
     <use style="fill:#1f77b4;stroke:#ffffff;stroke-width:0.75;" x="85.79358" xlink:href="#m598e20b5a3" y="269.746288"/>
     <use style="fill:#1f77b4;stroke:#ffffff;stroke-width:0.75;" x="185.326487" xlink:href="#m598e20b5a3" y="253.276697"/>
     <use style="fill:#1f77b4;stroke:#ffffff;stroke-width:0.75;" x="243.549506" xlink:href="#m598e20b5a3" y="245.956878"/>
     <use style="fill:#1f77b4;stroke:#ffffff;stroke-width:0.75;" x="284.859395" xlink:href="#m598e20b5a3" y="245.590887"/>
     <use style="fill:#1f77b4;stroke:#ffffff;stroke-width:0.75;" x="316.901835" xlink:href="#m598e20b5a3" y="243.394942"/>
     <use style="fill:#1f77b4;stroke:#ffffff;stroke-width:0.75;" x="343.082414" xlink:href="#m598e20b5a3" y="240.833005"/>
     <use style="fill:#1f77b4;stroke:#ffffff;stroke-width:0.75;" x="365.217778" xlink:href="#m598e20b5a3" y="235.526137"/>
     <use style="fill:#1f77b4;stroke:#ffffff;stroke-width:0.75;" x="384.392303" xlink:href="#m598e20b5a3" y="233.147196"/>
     <use style="fill:#1f77b4;stroke:#ffffff;stroke-width:0.75;" x="401.305433" xlink:href="#m598e20b5a3" y="232.781205"/>
     <use style="fill:#1f77b4;stroke:#ffffff;stroke-width:0.75;" x="416.434742" xlink:href="#m598e20b5a3" y="231.134246"/>
     <use style="fill:#1f77b4;stroke:#ffffff;stroke-width:0.75;" x="430.120868" xlink:href="#m598e20b5a3" y="231.134246"/>
     <use style="fill:#1f77b4;stroke:#ffffff;stroke-width:0.75;" x="442.615322" xlink:href="#m598e20b5a3" y="231.134246"/>
     <use style="fill:#1f77b4;stroke:#ffffff;stroke-width:0.75;" x="454.109105" xlink:href="#m598e20b5a3" y="230.036273"/>
     <use style="fill:#1f77b4;stroke:#ffffff;stroke-width:0.75;" x="464.750686" xlink:href="#m598e20b5a3" y="229.853278"/>
     <use style="fill:#1f77b4;stroke:#ffffff;stroke-width:0.75;" x="474.657761" xlink:href="#m598e20b5a3" y="229.853278"/>
     <use style="fill:#1f77b4;stroke:#ffffff;stroke-width:0.75;" x="483.925211" xlink:href="#m598e20b5a3" y="229.853278"/>
     <use style="fill:#1f77b4;stroke:#ffffff;stroke-width:0.75;" x="492.630642" xlink:href="#m598e20b5a3" y="229.853278"/>
     <use style="fill:#1f77b4;stroke:#ffffff;stroke-width:0.75;" x="500.83834" xlink:href="#m598e20b5a3" y="227.291341"/>
     <use style="fill:#1f77b4;stroke:#ffffff;stroke-width:0.75;" x="508.602157" xlink:href="#m598e20b5a3" y="227.291341"/>
     <use style="fill:#1f77b4;stroke:#ffffff;stroke-width:0.75;" x="515.96765" xlink:href="#m598e20b5a3" y="225.095396"/>
     <use style="fill:#1f77b4;stroke:#ffffff;stroke-width:0.75;" x="522.973705" xlink:href="#m598e20b5a3" y="225.095396"/>
     <use style="fill:#1f77b4;stroke:#ffffff;stroke-width:0.75;" x="529.653776" xlink:href="#m598e20b5a3" y="225.095396"/>
     <use style="fill:#1f77b4;stroke:#ffffff;stroke-width:0.75;" x="536.036855" xlink:href="#m598e20b5a3" y="225.095396"/>
     <use style="fill:#1f77b4;stroke:#ffffff;stroke-width:0.75;" x="542.14823" xlink:href="#m598e20b5a3" y="225.095396"/>
     <use style="fill:#1f77b4;stroke:#ffffff;stroke-width:0.75;" x="548.01009" xlink:href="#m598e20b5a3" y="224.9124"/>
     <use style="fill:#1f77b4;stroke:#ffffff;stroke-width:0.75;" x="553.642013" xlink:href="#m598e20b5a3" y="224.9124"/>
     <use style="fill:#1f77b4;stroke:#ffffff;stroke-width:0.75;" x="559.061359" xlink:href="#m598e20b5a3" y="224.9124"/>
     <use style="fill:#1f77b4;stroke:#ffffff;stroke-width:0.75;" x="564.283594" xlink:href="#m598e20b5a3" y="224.9124"/>
     <use style="fill:#1f77b4;stroke:#ffffff;stroke-width:0.75;" x="569.322554" xlink:href="#m598e20b5a3" y="224.9124"/>
     <use style="fill:#1f77b4;stroke:#ffffff;stroke-width:0.75;" x="574.190669" xlink:href="#m598e20b5a3" y="224.9124"/>
     <use style="fill:#1f77b4;stroke:#ffffff;stroke-width:0.75;" x="578.899144" xlink:href="#m598e20b5a3" y="224.9124"/>
     <use style="fill:#1f77b4;stroke:#ffffff;stroke-width:0.75;" x="583.458119" xlink:href="#m598e20b5a3" y="224.9124"/>
     <use style="fill:#1f77b4;stroke:#ffffff;stroke-width:0.75;" x="587.876794" xlink:href="#m598e20b5a3" y="224.546409"/>
     <use style="fill:#1f77b4;stroke:#ffffff;stroke-width:0.75;" x="592.16355" xlink:href="#m598e20b5a3" y="224.363414"/>
     <use style="fill:#1f77b4;stroke:#ffffff;stroke-width:0.75;" x="596.326033" xlink:href="#m598e20b5a3" y="224.363414"/>
     <use style="fill:#1f77b4;stroke:#ffffff;stroke-width:0.75;" x="600.371248" xlink:href="#m598e20b5a3" y="224.363414"/>
     <use style="fill:#1f77b4;stroke:#ffffff;stroke-width:0.75;" x="604.305621" xlink:href="#m598e20b5a3" y="224.363414"/>
     <use style="fill:#1f77b4;stroke:#ffffff;stroke-width:0.75;" x="608.135065" xlink:href="#m598e20b5a3" y="224.363414"/>
     <use style="fill:#1f77b4;stroke:#ffffff;stroke-width:0.75;" x="611.865031" xlink:href="#m598e20b5a3" y="224.363414"/>
     <use style="fill:#1f77b4;stroke:#ffffff;stroke-width:0.75;" x="615.500558" xlink:href="#m598e20b5a3" y="223.997423"/>
     <use style="fill:#1f77b4;stroke:#ffffff;stroke-width:0.75;" x="619.046309" xlink:href="#m598e20b5a3" y="223.997423"/>
     <use style="fill:#1f77b4;stroke:#ffffff;stroke-width:0.75;" x="622.506613" xlink:href="#m598e20b5a3" y="223.997423"/>
     <use style="fill:#1f77b4;stroke:#ffffff;stroke-width:0.75;" x="625.885489" xlink:href="#m598e20b5a3" y="223.997423"/>
     <use style="fill:#1f77b4;stroke:#ffffff;stroke-width:0.75;" x="629.186684" xlink:href="#m598e20b5a3" y="223.997423"/>
     <use style="fill:#1f77b4;stroke:#ffffff;stroke-width:0.75;" x="632.413688" xlink:href="#m598e20b5a3" y="223.997423"/>
     <use style="fill:#1f77b4;stroke:#ffffff;stroke-width:0.75;" x="635.569763" xlink:href="#m598e20b5a3" y="223.997423"/>
     <use style="fill:#1f77b4;stroke:#ffffff;stroke-width:0.75;" x="638.65796" xlink:href="#m598e20b5a3" y="223.997423"/>
     <use style="fill:#1f77b4;stroke:#ffffff;stroke-width:0.75;" x="641.681137" xlink:href="#m598e20b5a3" y="223.814428"/>
     <use style="fill:#1f77b4;stroke:#ffffff;stroke-width:0.75;" x="644.641977" xlink:href="#m598e20b5a3" y="223.814428"/>
     <use style="fill:#1f77b4;stroke:#ffffff;stroke-width:0.75;" x="647.542997" xlink:href="#m598e20b5a3" y="223.265441"/>
     <use style="fill:#1f77b4;stroke:#ffffff;stroke-width:0.75;" x="650.386568" xlink:href="#m598e20b5a3" y="222.167468"/>
     <use style="fill:#1f77b4;stroke:#ffffff;stroke-width:0.75;" x="653.174921" xlink:href="#m598e20b5a3" y="222.167468"/>
     <use style="fill:#1f77b4;stroke:#ffffff;stroke-width:0.75;" x="655.910158" xlink:href="#m598e20b5a3" y="222.167468"/>
     <use style="fill:#1f77b4;stroke:#ffffff;stroke-width:0.75;" x="658.594267" xlink:href="#m598e20b5a3" y="222.167468"/>
     <use style="fill:#1f77b4;stroke:#ffffff;stroke-width:0.75;" x="661.229123" xlink:href="#m598e20b5a3" y="222.167468"/>
     <use style="fill:#1f77b4;stroke:#ffffff;stroke-width:0.75;" x="663.816502" xlink:href="#m598e20b5a3" y="222.167468"/>
     <use style="fill:#1f77b4;stroke:#ffffff;stroke-width:0.75;" x="666.358084" xlink:href="#m598e20b5a3" y="222.167468"/>
     <use style="fill:#1f77b4;stroke:#ffffff;stroke-width:0.75;" x="668.855462" xlink:href="#m598e20b5a3" y="222.167468"/>
     <use style="fill:#1f77b4;stroke:#ffffff;stroke-width:0.75;" x="671.310148" xlink:href="#m598e20b5a3" y="222.167468"/>
     <use style="fill:#1f77b4;stroke:#ffffff;stroke-width:0.75;" x="673.723577" xlink:href="#m598e20b5a3" y="222.167468"/>
     <use style="fill:#1f77b4;stroke:#ffffff;stroke-width:0.75;" x="676.097112" xlink:href="#m598e20b5a3" y="222.167468"/>
     <use style="fill:#1f77b4;stroke:#ffffff;stroke-width:0.75;" x="678.432052" xlink:href="#m598e20b5a3" y="222.167468"/>
     <use style="fill:#1f77b4;stroke:#ffffff;stroke-width:0.75;" x="680.729631" xlink:href="#m598e20b5a3" y="222.167468"/>
     <use style="fill:#1f77b4;stroke:#ffffff;stroke-width:0.75;" x="682.991027" xlink:href="#m598e20b5a3" y="222.167468"/>
     <use style="fill:#1f77b4;stroke:#ffffff;stroke-width:0.75;" x="685.21736" xlink:href="#m598e20b5a3" y="222.167468"/>
     <use style="fill:#1f77b4;stroke:#ffffff;stroke-width:0.75;" x="687.409702" xlink:href="#m598e20b5a3" y="222.167468"/>
     <use style="fill:#1f77b4;stroke:#ffffff;stroke-width:0.75;" x="689.569076" xlink:href="#m598e20b5a3" y="222.167468"/>
     <use style="fill:#1f77b4;stroke:#ffffff;stroke-width:0.75;" x="691.696457" xlink:href="#m598e20b5a3" y="219.422536"/>
     <use style="fill:#1f77b4;stroke:#ffffff;stroke-width:0.75;" x="693.792781" xlink:href="#m598e20b5a3" y="219.422536"/>
     <use style="fill:#1f77b4;stroke:#ffffff;stroke-width:0.75;" x="695.858941" xlink:href="#m598e20b5a3" y="219.422536"/>
     <use style="fill:#1f77b4;stroke:#ffffff;stroke-width:0.75;" x="697.895793" xlink:href="#m598e20b5a3" y="219.422536"/>
     <use style="fill:#1f77b4;stroke:#ffffff;stroke-width:0.75;" x="699.904156" xlink:href="#m598e20b5a3" y="219.422536"/>
     <use style="fill:#1f77b4;stroke:#ffffff;stroke-width:0.75;" x="701.884817" xlink:href="#m598e20b5a3" y="219.422536"/>
     <use style="fill:#1f77b4;stroke:#ffffff;stroke-width:0.75;" x="703.838529" xlink:href="#m598e20b5a3" y="219.422536"/>
     <use style="fill:#1f77b4;stroke:#ffffff;stroke-width:0.75;" x="705.766016" xlink:href="#m598e20b5a3" y="219.422536"/>
     <use style="fill:#1f77b4;stroke:#ffffff;stroke-width:0.75;" x="707.667973" xlink:href="#m598e20b5a3" y="219.239541"/>
     <use style="fill:#1f77b4;stroke:#ffffff;stroke-width:0.75;" x="709.545067" xlink:href="#m598e20b5a3" y="219.239541"/>
     <use style="fill:#1f77b4;stroke:#ffffff;stroke-width:0.75;" x="711.397939" xlink:href="#m598e20b5a3" y="219.239541"/>
     <use style="fill:#1f77b4;stroke:#ffffff;stroke-width:0.75;" x="713.227208" xlink:href="#m598e20b5a3" y="219.239541"/>
     <use style="fill:#1f77b4;stroke:#ffffff;stroke-width:0.75;" x="715.033466" xlink:href="#m598e20b5a3" y="153.727166"/>
     <use style="fill:#1f77b4;stroke:#ffffff;stroke-width:0.75;" x="716.817286" xlink:href="#m598e20b5a3" y="153.727166"/>
     <use style="fill:#1f77b4;stroke:#ffffff;stroke-width:0.75;" x="718.579217" xlink:href="#m598e20b5a3" y="153.727166"/>
     <use style="fill:#1f77b4;stroke:#ffffff;stroke-width:0.75;" x="720.319792" xlink:href="#m598e20b5a3" y="153.727166"/>
     <use style="fill:#1f77b4;stroke:#ffffff;stroke-width:0.75;" x="722.03952" xlink:href="#m598e20b5a3" y="153.727166"/>
     <use style="fill:#1f77b4;stroke:#ffffff;stroke-width:0.75;" x="723.738897" xlink:href="#m598e20b5a3" y="153.727166"/>
     <use style="fill:#1f77b4;stroke:#ffffff;stroke-width:0.75;" x="725.418397" xlink:href="#m598e20b5a3" y="153.727166"/>
     <use style="fill:#1f77b4;stroke:#ffffff;stroke-width:0.75;" x="727.078481" xlink:href="#m598e20b5a3" y="153.727166"/>
     <use style="fill:#1f77b4;stroke:#ffffff;stroke-width:0.75;" x="728.719591" xlink:href="#m598e20b5a3" y="153.727166"/>
     <use style="fill:#1f77b4;stroke:#ffffff;stroke-width:0.75;" x="730.342158" xlink:href="#m598e20b5a3" y="153.727166"/>
     <use style="fill:#1f77b4;stroke:#ffffff;stroke-width:0.75;" x="731.946595" xlink:href="#m598e20b5a3" y="153.727166"/>
     <use style="fill:#1f77b4;stroke:#ffffff;stroke-width:0.75;" x="733.533304" xlink:href="#m598e20b5a3" y="153.727166"/>
     <use style="fill:#1f77b4;stroke:#ffffff;stroke-width:0.75;" x="735.10267" xlink:href="#m598e20b5a3" y="153.727166"/>
    </g>
   </g>
   <g id="line2d_39"/>
   <g id="line2d_40"/>
   <g id="line2d_41">
    <path clip-path="url(#pb8050c9a8d)" d="M 735.10267 288.430125 
L 735.10267 22.318125 
" style="fill:none;stroke:#ff0000;stroke-linecap:square;stroke-width:1.5;"/>
   </g>
   <g id="patch_3">
    <path d="M 53.328125 268.831311 
L 53.328125 49.236757 
" style="fill:none;stroke:#000000;stroke-linecap:square;stroke-linejoin:miter;stroke-width:0.8;"/>
   </g>
   <g id="patch_4">
    <path d="M 85.79358 288.430125 
L 735.104405 288.430125 
" style="fill:none;stroke:#000000;stroke-linecap:square;stroke-linejoin:miter;stroke-width:0.8;"/>
   </g>
   <g id="text_22">
    <!-- openthread-2019-12-23 (23h, 10 trials/fuzzer) -->
    <g transform="translate(272.045938 16.318125)scale(0.12 -0.12)">
     <defs>
      <path d="M 1159 525 
L 1159 -1331 
L 581 -1331 
L 581 3500 
L 1159 3500 
L 1159 2969 
Q 1341 3281 1617 3432 
Q 1894 3584 2278 3584 
Q 2916 3584 3314 3078 
Q 3713 2572 3713 1747 
Q 3713 922 3314 415 
Q 2916 -91 2278 -91 
Q 1894 -91 1617 61 
Q 1341 213 1159 525 
z
M 3116 1747 
Q 3116 2381 2855 2742 
Q 2594 3103 2138 3103 
Q 1681 3103 1420 2742 
Q 1159 2381 1159 1747 
Q 1159 1113 1420 752 
Q 1681 391 2138 391 
Q 2594 391 2855 752 
Q 3116 1113 3116 1747 
z
" id="DejaVuSans-70" transform="scale(0.015625)"/>
      <path d="M 313 2009 
L 1997 2009 
L 1997 1497 
L 313 1497 
L 313 2009 
z
" id="DejaVuSans-2d" transform="scale(0.015625)"/>
      <path d="M 703 97 
L 703 672 
Q 941 559 1184 500 
Q 1428 441 1663 441 
Q 2288 441 2617 861 
Q 2947 1281 2994 2138 
Q 2813 1869 2534 1725 
Q 2256 1581 1919 1581 
Q 1219 1581 811 2004 
Q 403 2428 403 3163 
Q 403 3881 828 4315 
Q 1253 4750 1959 4750 
Q 2769 4750 3195 4129 
Q 3622 3509 3622 2328 
Q 3622 1225 3098 567 
Q 2575 -91 1691 -91 
Q 1453 -91 1209 -44 
Q 966 3 703 97 
z
M 1959 2075 
Q 2384 2075 2632 2365 
Q 2881 2656 2881 3163 
Q 2881 3666 2632 3958 
Q 2384 4250 1959 4250 
Q 1534 4250 1286 3958 
Q 1038 3666 1038 3163 
Q 1038 2656 1286 2365 
Q 1534 2075 1959 2075 
z
" id="DejaVuSans-39" transform="scale(0.015625)"/>
      <path d="M 750 794 
L 1409 794 
L 1409 256 
L 897 -744 
L 494 -744 
L 750 256 
L 750 794 
z
" id="DejaVuSans-2c" transform="scale(0.015625)"/>
      <path d="M 603 4863 
L 1178 4863 
L 1178 0 
L 603 0 
L 603 4863 
z
" id="DejaVuSans-6c" transform="scale(0.015625)"/>
      <path d="M 2834 3397 
L 2834 2853 
Q 2591 2978 2328 3040 
Q 2066 3103 1784 3103 
Q 1356 3103 1142 2972 
Q 928 2841 928 2578 
Q 928 2378 1081 2264 
Q 1234 2150 1697 2047 
L 1894 2003 
Q 2506 1872 2764 1633 
Q 3022 1394 3022 966 
Q 3022 478 2636 193 
Q 2250 -91 1575 -91 
Q 1294 -91 989 -36 
Q 684 19 347 128 
L 347 722 
Q 666 556 975 473 
Q 1284 391 1588 391 
Q 1994 391 2212 530 
Q 2431 669 2431 922 
Q 2431 1156 2273 1281 
Q 2116 1406 1581 1522 
L 1381 1569 
Q 847 1681 609 1914 
Q 372 2147 372 2553 
Q 372 3047 722 3315 
Q 1072 3584 1716 3584 
Q 2034 3584 2315 3537 
Q 2597 3491 2834 3397 
z
" id="DejaVuSans-73" transform="scale(0.015625)"/>
      <path d="M 1625 4666 
L 2156 4666 
L 531 -594 
L 0 -594 
L 1625 4666 
z
" id="DejaVuSans-2f" transform="scale(0.015625)"/>
      <path d="M 2375 4863 
L 2375 4384 
L 1825 4384 
Q 1516 4384 1395 4259 
Q 1275 4134 1275 3809 
L 1275 3500 
L 2222 3500 
L 2222 3053 
L 1275 3053 
L 1275 0 
L 697 0 
L 697 3053 
L 147 3053 
L 147 3500 
L 697 3500 
L 697 3744 
Q 697 4328 969 4595 
Q 1241 4863 1831 4863 
L 2375 4863 
z
" id="DejaVuSans-66" transform="scale(0.015625)"/>
      <path d="M 353 3500 
L 3084 3500 
L 3084 2975 
L 922 459 
L 3084 459 
L 3084 0 
L 275 0 
L 275 525 
L 2438 3041 
L 353 3041 
L 353 3500 
z
" id="DejaVuSans-7a" transform="scale(0.015625)"/>
     </defs>
     <use xlink:href="#DejaVuSans-6f"/>
     <use x="61.181641" xlink:href="#DejaVuSans-70"/>
     <use x="124.658203" xlink:href="#DejaVuSans-65"/>
     <use x="186.181641" xlink:href="#DejaVuSans-6e"/>
     <use x="249.560547" xlink:href="#DejaVuSans-74"/>
     <use x="288.769531" xlink:href="#DejaVuSans-68"/>
     <use x="352.148438" xlink:href="#DejaVuSans-72"/>
     <use x="391.011719" xlink:href="#DejaVuSans-65"/>
     <use x="452.535156" xlink:href="#DejaVuSans-61"/>
     <use x="513.814453" xlink:href="#DejaVuSans-64"/>
     <use x="577.291016" xlink:href="#DejaVuSans-2d"/>
     <use x="613.375" xlink:href="#DejaVuSans-32"/>
     <use x="676.998047" xlink:href="#DejaVuSans-30"/>
     <use x="740.621094" xlink:href="#DejaVuSans-31"/>
     <use x="804.244141" xlink:href="#DejaVuSans-39"/>
     <use x="867.867188" xlink:href="#DejaVuSans-2d"/>
     <use x="903.951172" xlink:href="#DejaVuSans-31"/>
     <use x="967.574219" xlink:href="#DejaVuSans-32"/>
     <use x="1031.197266" xlink:href="#DejaVuSans-2d"/>
     <use x="1067.28125" xlink:href="#DejaVuSans-32"/>
     <use x="1130.904297" xlink:href="#DejaVuSans-33"/>
     <use x="1194.527344" xlink:href="#DejaVuSans-20"/>
     <use x="1226.314453" xlink:href="#DejaVuSans-28"/>
     <use x="1265.328125" xlink:href="#DejaVuSans-32"/>
     <use x="1328.951172" xlink:href="#DejaVuSans-33"/>
     <use x="1392.574219" xlink:href="#DejaVuSans-68"/>
     <use x="1455.953125" xlink:href="#DejaVuSans-2c"/>
     <use x="1487.740234" xlink:href="#DejaVuSans-20"/>
     <use x="1519.527344" xlink:href="#DejaVuSans-31"/>
     <use x="1583.150391" xlink:href="#DejaVuSans-30"/>
     <use x="1646.773438" xlink:href="#DejaVuSans-20"/>
     <use x="1678.560547" xlink:href="#DejaVuSans-74"/>
     <use x="1717.769531" xlink:href="#DejaVuSans-72"/>
     <use x="1758.882812" xlink:href="#DejaVuSans-69"/>
     <use x="1786.666016" xlink:href="#DejaVuSans-61"/>
     <use x="1847.945312" xlink:href="#DejaVuSans-6c"/>
     <use x="1875.728516" xlink:href="#DejaVuSans-73"/>
     <use x="1927.828125" xlink:href="#DejaVuSans-2f"/>
     <use x="1961.519531" xlink:href="#DejaVuSans-66"/>
     <use x="1996.724609" xlink:href="#DejaVuSans-75"/>
     <use x="2060.103516" xlink:href="#DejaVuSans-7a"/>
     <use x="2112.59375" xlink:href="#DejaVuSans-7a"/>
     <use x="2165.083984" xlink:href="#DejaVuSans-65"/>
     <use x="2226.607422" xlink:href="#DejaVuSans-72"/>
     <use x="2267.720703" xlink:href="#DejaVuSans-29"/>
    </g>
   </g>
   <g id="legend_1">
    <g id="line2d_42">
     <path d="M 771.568125 30.416563 
L 791.568125 30.416563 
" style="fill:none;stroke:#98df8a;stroke-linecap:square;stroke-width:1.5;"/>
    </g>
    <g id="line2d_43">
     <defs>
      <path d="M -0 3 
L 3 -3 
L -3 -3 
z
" id="m3fe9dde2eb" style="stroke:#98df8a;stroke-linejoin:miter;"/>
     </defs>
     <g>
      <use style="fill:#98df8a;stroke:#98df8a;stroke-linejoin:miter;" x="781.568125" xlink:href="#m3fe9dde2eb" y="30.416563"/>
     </g>
    </g>
    <g id="text_23">
     <!-- sydr_libfuzzer -->
     <g transform="translate(799.568125 33.916563)scale(0.1 -0.1)">
      <defs>
       <path d="M 2059 -325 
Q 1816 -950 1584 -1140 
Q 1353 -1331 966 -1331 
L 506 -1331 
L 506 -850 
L 844 -850 
Q 1081 -850 1212 -737 
Q 1344 -625 1503 -206 
L 1606 56 
L 191 3500 
L 800 3500 
L 1894 763 
L 2988 3500 
L 3597 3500 
L 2059 -325 
z
" id="DejaVuSans-79" transform="scale(0.015625)"/>
       <path d="M 3263 -1063 
L 3263 -1509 
L -63 -1509 
L -63 -1063 
L 3263 -1063 
z
" id="DejaVuSans-5f" transform="scale(0.015625)"/>
      </defs>
      <use xlink:href="#DejaVuSans-73"/>
      <use x="52.099609" xlink:href="#DejaVuSans-79"/>
      <use x="111.279297" xlink:href="#DejaVuSans-64"/>
      <use x="174.755859" xlink:href="#DejaVuSans-72"/>
      <use x="215.869141" xlink:href="#DejaVuSans-5f"/>
      <use x="265.869141" xlink:href="#DejaVuSans-6c"/>
      <use x="293.652344" xlink:href="#DejaVuSans-69"/>
      <use x="321.435547" xlink:href="#DejaVuSans-62"/>
      <use x="384.912109" xlink:href="#DejaVuSans-66"/>
      <use x="420.117188" xlink:href="#DejaVuSans-75"/>
      <use x="483.496094" xlink:href="#DejaVuSans-7a"/>
      <use x="535.986328" xlink:href="#DejaVuSans-7a"/>
      <use x="588.476562" xlink:href="#DejaVuSans-65"/>
      <use x="650" xlink:href="#DejaVuSans-72"/>
     </g>
    </g>
    <g id="line2d_44">
     <path d="M 771.568125 45.372813 
L 791.568125 45.372813 
" style="fill:none;stroke:#1f77b4;stroke-linecap:square;stroke-width:1.5;"/>
    </g>
    <g id="line2d_45">
     <defs>
      <path d="M 0 3 
C 0.795609 3 1.55874 2.683901 2.12132 2.12132 
C 2.683901 1.55874 3 0.795609 3 0 
C 3 -0.795609 2.683901 -1.55874 2.12132 -2.12132 
C 1.55874 -2.683901 0.795609 -3 0 -3 
C -0.795609 -3 -1.55874 -2.683901 -2.12132 -2.12132 
C -2.683901 -1.55874 -3 -0.795609 -3 0 
C -3 0.795609 -2.683901 1.55874 -2.12132 2.12132 
C -1.55874 2.683901 -0.795609 3 0 3 
z
" id="m33847d33be" style="stroke:#1f77b4;"/>
     </defs>
     <g>
      <use style="fill:#1f77b4;stroke:#1f77b4;" x="781.568125" xlink:href="#m33847d33be" y="45.372813"/>
     </g>
    </g>
    <g id="text_24">
     <!-- libfuzzer_two_workers -->
     <g transform="translate(799.568125 48.872813)scale(0.1 -0.1)">
      <defs>
       <path d="M 269 3500 
L 844 3500 
L 1563 769 
L 2278 3500 
L 2956 3500 
L 3675 769 
L 4391 3500 
L 4966 3500 
L 4050 0 
L 3372 0 
L 2619 2869 
L 1863 0 
L 1184 0 
L 269 3500 
z
" id="DejaVuSans-77" transform="scale(0.015625)"/>
       <path d="M 581 4863 
L 1159 4863 
L 1159 1991 
L 2875 3500 
L 3609 3500 
L 1753 1863 
L 3688 0 
L 2938 0 
L 1159 1709 
L 1159 0 
L 581 0 
L 581 4863 
z
" id="DejaVuSans-6b" transform="scale(0.015625)"/>
      </defs>
      <use xlink:href="#DejaVuSans-6c"/>
      <use x="27.783203" xlink:href="#DejaVuSans-69"/>
      <use x="55.566406" xlink:href="#DejaVuSans-62"/>
      <use x="119.042969" xlink:href="#DejaVuSans-66"/>
      <use x="154.248047" xlink:href="#DejaVuSans-75"/>
      <use x="217.626953" xlink:href="#DejaVuSans-7a"/>
      <use x="270.117188" xlink:href="#DejaVuSans-7a"/>
      <use x="322.607422" xlink:href="#DejaVuSans-65"/>
      <use x="384.130859" xlink:href="#DejaVuSans-72"/>
      <use x="425.244141" xlink:href="#DejaVuSans-5f"/>
      <use x="475.244141" xlink:href="#DejaVuSans-74"/>
      <use x="514.453125" xlink:href="#DejaVuSans-77"/>
      <use x="596.240234" xlink:href="#DejaVuSans-6f"/>
      <use x="657.421875" xlink:href="#DejaVuSans-5f"/>
      <use x="707.421875" xlink:href="#DejaVuSans-77"/>
      <use x="789.208984" xlink:href="#DejaVuSans-6f"/>
      <use x="850.390625" xlink:href="#DejaVuSans-72"/>
      <use x="891.503906" xlink:href="#DejaVuSans-6b"/>
      <use x="945.789062" xlink:href="#DejaVuSans-65"/>
      <use x="1007.3125" xlink:href="#DejaVuSans-72"/>
      <use x="1048.425781" xlink:href="#DejaVuSans-73"/>
     </g>
    </g>
   </g>
  </g>
 </g>
 <defs>
  <clipPath id="pb8050c9a8d">
   <rect height="266.112" width="714.24" x="53.328125" y="22.318125"/>
  </clipPath>
 </defs>
</svg>
