<?xml version="1.0" encoding="utf-8" standalone="no"?>
<!DOCTYPE svg PUBLIC "-//W3C//DTD SVG 1.1//EN"
  "http://www.w3.org/Graphics/SVG/1.1/DTD/svg11.dtd">
<svg height="325.986375pt" version="1.1" viewBox="0 0 946.693125 325.986375" width="946.693125pt" xmlns="http://www.w3.org/2000/svg" xmlns:xlink="http://www.w3.org/1999/xlink">
 <metadata>
  <rdf:RDF xmlns:cc="http://creativecommons.org/ns#" xmlns:dc="http://purl.org/dc/elements/1.1/" xmlns:rdf="http://www.w3.org/1999/02/22-rdf-syntax-ns#">
   <cc:Work>
    <dc:type rdf:resource="http://purl.org/dc/dcmitype/StillImage"/>
    <dc:date>2022-09-13T23:52:00.805052</dc:date>
    <dc:format>image/svg+xml</dc:format>
    <dc:creator>
     <cc:Agent>
      <dc:title>Matplotlib v3.4.1, https://matplotlib.org/</dc:title>
     </cc:Agent>
    </dc:creator>
   </cc:Work>
  </rdf:RDF>
 </metadata>
 <defs>
  <style type="text/css">*{stroke-linecap:butt;stroke-linejoin:round;}</style>
 </defs>
 <g id="figure_1">
  <g id="patch_1">
   <path d="M 0 325.986375 
L 946.693125 325.986375 
L 946.693125 0 
L 0 0 
z
" style="fill:#ffffff;"/>
  </g>
  <g id="axes_1">
   <g id="patch_2">
    <path d="M 59.690625 288.430125 
L 773.930625 288.430125 
L 773.930625 22.318125 
L 59.690625 22.318125 
z
" style="fill:#ffffff;"/>
   </g>
   <g id="PolyCollection_1">
    <defs>
     <path d="M 92.15608 -63.634262 
L 92.15608 -56.373826 
L 99.291344 -94.774726 
L 106.426609 -103.112883 
L 113.561874 -108.331322 
L 120.697138 -111.025624 
L 127.832403 -113.095983 
L 134.967668 -115.024536 
L 142.102933 -123.02236 
L 149.238197 -131.785933 
L 156.373462 -139.074731 
L 163.508727 -147.611415 
L 170.643992 -155.240545 
L 177.779256 -155.552517 
L 184.914521 -158.133375 
L 192.049786 -159.211096 
L 199.185051 -160.005207 
L 206.320315 -166.1312 
L 213.45558 -176.114299 
L 220.590845 -177.929408 
L 227.72611 -181.652509 
L 234.861374 -194.038501 
L 241.996639 -185.813788 
L 249.131904 -186.182482 
L 256.267168 -192.989141 
L 263.402433 -202.897793 
L 270.537698 -203.170768 
L 277.672963 -203.340935 
L 284.808227 -200.221216 
L 291.943492 -203.851434 
L 299.078757 -204.033654 
L 306.214022 -205.382932 
L 313.349286 -205.496377 
L 320.484551 -206.063598 
L 327.619816 -208.786262 
L 334.755081 -210.31776 
L 341.890345 -212.019425 
L 349.02561 -210.261038 
L 356.160875 -210.261038 
L 363.296139 -213.607645 
L 370.431404 -213.721089 
L 377.566669 -213.777812 
L 384.701934 -213.777812 
L 391.837198 -213.891256 
L 398.972463 -213.891256 
L 406.107728 -214.061422 
L 413.242993 -214.118144 
L 420.378257 -214.174867 
L 427.513522 -214.174867 
L 434.648787 -214.231589 
L 441.784052 -214.288311 
L 448.919316 -214.855533 
L 456.054581 -215.30931 
L 463.189846 -217.010975 
L 470.325111 -218.429028 
L 477.460375 -218.655917 
L 484.59564 -215.933254 
L 491.730905 -219.506749 
L 498.866169 -216.216864 
L 506.001434 -219.676916 
L 513.136699 -219.676916 
L 520.271964 -219.676916 
L 527.407228 -219.676916 
L 534.542493 -219.676916 
L 541.677758 -219.676916 
L 548.813023 -218.655917 
L 555.948287 -219.676916 
L 563.083552 -219.847082 
L 570.218817 -222.966801 
L 577.354082 -222.966801 
L 584.489346 -223.534023 
L 591.624611 -223.602089 
L 598.759876 -223.647467 
L 605.89514 -223.647467 
L 613.030405 -223.647467 
L 620.16567 -223.647467 
L 627.300935 -223.647467 
L 634.436199 -223.604216 
L 641.571464 -223.704189 
L 648.706729 -223.704189 
L 655.841994 -223.874356 
L 662.977258 -229.886904 
L 670.112523 -230.56757 
L 677.247788 -230.624292 
L 684.383053 -230.50234 
L 691.518317 -230.624292 
L 698.653582 -230.624292 
L 705.788847 -230.624292 
L 712.924112 -230.624292 
L 720.059376 -230.624292 
L 727.194641 -230.681014 
L 734.329906 -230.681014 
L 741.46517 -230.681014 
L 741.46517 -291.57225 
L 741.46517 -291.57225 
L 734.329906 -289.501891 
L 727.194641 -291.233335 
L 720.059376 -289.544433 
L 712.924112 -289.513236 
L 705.788847 -290.976667 
L 698.653582 -290.976667 
L 691.518317 -289.360086 
L 684.383053 -285.817787 
L 677.247788 -285.814951 
L 670.112523 -290.381085 
L 662.977258 -285.758229 
L 655.841994 -288.991392 
L 648.706729 -288.792864 
L 641.571464 -286.636713 
L 634.436199 -285.773827 
L 627.300935 -287.034477 
L 620.16567 -286.694144 
L 613.030405 -285.758229 
L 605.89514 -285.758229 
L 598.759876 -289.530252 
L 591.624611 -285.758229 
L 584.489346 -285.758229 
L 577.354082 -285.758229 
L 570.218817 -285.701507 
L 563.083552 -285.644785 
L 555.948287 -283.631148 
L 548.813023 -284.623786 
L 541.677758 -284.113286 
L 534.542493 -283.602787 
L 527.407228 -283.375898 
L 520.271964 -283.14901 
L 513.136699 -283.14901 
L 506.001434 -281.220456 
L 498.866169 -276.966295 
L 491.730905 -274.073465 
L 484.59564 -271.691134 
L 477.460375 -271.407523 
L 470.325111 -270.102914 
L 463.189846 -270.102914 
L 456.054581 -270.102914 
L 448.919316 -269.507331 
L 441.784052 -269.025193 
L 434.648787 -268.514693 
L 427.513522 -266.756306 
L 420.378257 -266.529418 
L 413.242993 -265.678585 
L 406.107728 -263.048095 
L 398.972463 -262.331978 
L 391.837198 -262.331978 
L 384.701934 -259.382426 
L 377.566669 -259.325704 
L 370.431404 -258.304705 
L 363.296139 -256.092541 
L 356.160875 -254.844653 
L 349.02561 -253.993821 
L 341.890345 -242.791195 
L 334.755081 -237.800354 
L 327.619816 -237.913089 
L 320.484551 -237.430951 
L 313.349286 -232.559936 
L 306.214022 -234.679926 
L 299.078757 -233.517122 
L 291.943492 -225.150604 
L 284.808227 -221.293497 
L 277.672963 -219.308222 
L 270.537698 -217.922783 
L 263.402433 -217.69164 
L 256.267168 -217.294585 
L 249.131904 -215.933254 
L 241.996639 -214.231589 
L 234.861374 -213.21059 
L 227.72611 -211.120378 
L 220.590845 -207.566735 
L 213.45558 -205.723265 
L 206.320315 -205.723265 
L 199.185051 -200.84516 
L 192.049786 -196.988053 
L 184.914521 -190.975504 
L 177.779256 -189.841061 
L 170.643992 -184.622623 
L 163.508727 -171.463082 
L 156.373462 -167.832864 
L 149.238197 -161.423261 
L 142.102933 -161.196372 
L 134.967668 -154.673324 
L 127.832403 -147.980109 
L 120.697138 -145.144001 
L 113.561874 -129.604258 
L 106.426609 -119.675753 
L 99.291344 -104.218965 
L 92.15608 -63.634262 
z
" id="me284ede869" style="stroke:#98df8a;stroke-opacity:0.2;"/>
    </defs>
    <g clip-path="url(#p1d9230b9a2)">
     <use style="fill:#98df8a;fill-opacity:0.2;stroke:#98df8a;stroke-opacity:0.2;" x="0" xlink:href="#me284ede869" y="325.986375"/>
    </g>
   </g>
   <g id="PolyCollection_2">
    <defs>
     <path d="M 92.15608 -54.416911 
L 92.15608 -49.65225 
L 99.291344 -62.046041 
L 106.426609 -76.084775 
L 113.561874 -81.388297 
L 120.697138 -85.358848 
L 127.832403 -88.648733 
L 134.967668 -88.648733 
L 142.102933 -90.208592 
L 149.238197 -91.161525 
L 156.373462 -91.257952 
L 163.508727 -93.413394 
L 170.643992 -93.413394 
L 177.779256 -93.526839 
L 184.914521 -93.526839 
L 192.049786 -93.583561 
L 199.185051 -95.739003 
L 206.320315 -95.795725 
L 213.45558 -96.249502 
L 220.590845 -97.213779 
L 227.72611 -97.327223 
L 234.861374 -97.383945 
L 241.996639 -97.383945 
L 249.131904 -97.610834 
L 256.267168 -98.404944 
L 263.402433 -98.404944 
L 270.537698 -98.404944 
L 277.672963 -98.57511 
L 284.808227 -98.57511 
L 291.943492 -98.57511 
L 299.078757 -98.688555 
L 306.214022 -98.486482 
L 313.349286 -98.745277 
L 320.484551 -102.035162 
L 327.619816 -102.205329 
L 334.755081 -103.339772 
L 341.890345 -103.396494 
L 349.02561 -103.056161 
L 356.160875 -105.013075 
L 363.296139 -105.013075 
L 370.431404 -105.778824 
L 377.566669 -105.778824 
L 384.701934 -105.948991 
L 391.837198 -105.948991 
L 398.972463 -105.948991 
L 406.107728 -106.260963 
L 413.242993 -106.487851 
L 420.378257 -106.538192 
L 427.513522 -107.593933 
L 434.648787 -107.735739 
L 441.784052 -107.026712 
L 448.919316 -107.7641 
L 456.054581 -108.444766 
L 463.189846 -108.444766 
L 470.325111 -107.1593 
L 477.460375 -107.50885 
L 484.59564 -107.501051 
L 491.730905 -107.537211 
L 498.866169 -109.295598 
L 506.001434 -109.35232 
L 513.136699 -107.593933 
L 520.271964 -107.588261 
L 527.407228 -108.20866 
L 534.542493 -108.217877 
L 541.677758 -108.331322 
L 548.813023 -110.032986 
L 555.948287 -110.045749 
L 563.083552 -108.473127 
L 570.218817 -109.749375 
L 577.354082 -109.749375 
L 584.489346 -110.690254 
L 591.624611 -110.05213 
L 598.759876 -111.306399 
L 605.89514 -110.087581 
L 613.030405 -111.337596 
L 620.16567 -111.337596 
L 627.300935 -111.337596 
L 634.436199 -111.337596 
L 641.571464 -111.337596 
L 648.706729 -111.337596 
L 655.841994 -111.337596 
L 662.977258 -111.394318 
L 670.112523 -111.394318 
L 677.247788 -111.394318 
L 684.383053 -111.394318 
L 691.518317 -111.394318 
L 698.653582 -111.394318 
L 705.788847 -111.394318 
L 712.924112 -111.394318 
L 720.059376 -111.368084 
L 727.194641 -111.394318 
L 734.329906 -111.394318 
L 741.46517 -111.394318 
L 741.46517 -145.342529 
L 741.46517 -145.342529 
L 734.329906 -145.172363 
L 727.194641 -145.172363 
L 720.059376 -144.520058 
L 712.924112 -145.285807 
L 705.788847 -144.520058 
L 698.653582 -144.520058 
L 691.518317 -144.463336 
L 684.383053 -144.473262 
L 677.247788 -145.030557 
L 670.112523 -145.030557 
L 662.977258 -145.030557 
L 655.841994 -145.030557 
L 648.706729 -145.002196 
L 641.571464 -144.642719 
L 634.436199 -144.548419 
L 627.300935 -144.917113 
L 620.16567 -144.463336 
L 613.030405 -144.463336 
L 605.89514 -144.633502 
L 598.759876 -144.463336 
L 591.624611 -144.463336 
L 584.489346 -144.463336 
L 577.354082 -144.264808 
L 570.218817 -144.264808 
L 563.083552 -143.555781 
L 555.948287 -143.697586 
L 548.813023 -143.903204 
L 541.677758 -143.499059 
L 534.542493 -143.555781 
L 527.407228 -143.442337 
L 520.271964 -143.442337 
L 513.136699 -143.442337 
L 506.001434 -142.988559 
L 498.866169 -142.73331 
L 491.730905 -142.73331 
L 484.59564 -142.421338 
L 477.460375 -142.364616 
L 470.325111 -142.506421 
L 463.189846 -142.137727 
L 456.054581 -142.137727 
L 448.919316 -142.137727 
L 441.784052 -141.910839 
L 434.648787 -141.910839 
L 427.513522 -137.259622 
L 420.378257 -137.202899 
L 413.242993 -137.146177 
L 406.107728 -137.146177 
L 398.972463 -137.146177 
L 391.837198 -136.862567 
L 384.701934 -136.862567 
L 377.566669 -136.805844 
L 370.431404 -136.805844 
L 363.296139 -136.805844 
L 356.160875 -136.749122 
L 349.02561 -136.791664 
L 341.890345 -136.749122 
L 334.755081 -136.749122 
L 327.619816 -136.790246 
L 320.484551 -136.6924 
L 313.349286 -136.731397 
L 306.214022 -136.522234 
L 299.078757 -133.459237 
L 291.943492 -122.029722 
L 284.808227 -121.717751 
L 277.672963 -115.535035 
L 270.537698 -109.06871 
L 263.402433 -110.004625 
L 256.267168 -108.841821 
L 249.131904 -108.728377 
L 241.996639 -108.728377 
L 234.861374 -108.246238 
L 227.72611 -108.217877 
L 220.590845 -107.480489 
L 213.45558 -108.076072 
L 206.320315 -106.856545 
L 199.185051 -106.743101 
L 192.049786 -106.544574 
L 184.914521 -104.4416 
L 177.779256 -104.265761 
L 170.643992 -105.551936 
L 163.508727 -104.502576 
L 156.373462 -102.375495 
L 149.238197 -100.900719 
L 142.102933 -98.248249 
L 134.967668 -96.476391 
L 127.832403 -93.697005 
L 120.697138 -91.229591 
L 113.561874 -88.989066 
L 106.426609 -86.436569 
L 99.291344 -77.247579 
L 92.15608 -54.416911 
z
" id="m568baeb7ff" style="stroke:#1f77b4;stroke-opacity:0.2;"/>
    </defs>
    <g clip-path="url(#p1d9230b9a2)">
     <use style="fill:#1f77b4;fill-opacity:0.2;stroke:#1f77b4;stroke-opacity:0.2;" x="0" xlink:href="#m568baeb7ff" y="325.986375"/>
    </g>
   </g>
   <g id="matplotlib.axis_1">
    <g id="xtick_1">
     <g id="line2d_1">
      <defs>
       <path d="M 0 0 
L 0 3.5 
" id="m5c753dff00" style="stroke:#000000;stroke-width:0.8;"/>
      </defs>
      <g>
       <use style="stroke:#000000;stroke-width:0.8;" x="92.15608" xlink:href="#m5c753dff00" y="288.430125"/>
      </g>
     </g>
     <g id="text_1">
      <!-- 15m -->
      <g transform="translate(80.923267 303.028562)scale(0.1 -0.1)">
       <defs>
        <path d="M 794 531 
L 1825 531 
L 1825 4091 
L 703 3866 
L 703 4441 
L 1819 4666 
L 2450 4666 
L 2450 531 
L 3481 531 
L 3481 0 
L 794 0 
L 794 531 
z
" id="DejaVuSans-31" transform="scale(0.015625)"/>
        <path d="M 691 4666 
L 3169 4666 
L 3169 4134 
L 1269 4134 
L 1269 2991 
Q 1406 3038 1543 3061 
Q 1681 3084 1819 3084 
Q 2600 3084 3056 2656 
Q 3513 2228 3513 1497 
Q 3513 744 3044 326 
Q 2575 -91 1722 -91 
Q 1428 -91 1123 -41 
Q 819 9 494 109 
L 494 744 
Q 775 591 1075 516 
Q 1375 441 1709 441 
Q 2250 441 2565 725 
Q 2881 1009 2881 1497 
Q 2881 1984 2565 2268 
Q 2250 2553 1709 2553 
Q 1456 2553 1204 2497 
Q 953 2441 691 2322 
L 691 4666 
z
" id="DejaVuSans-35" transform="scale(0.015625)"/>
        <path d="M 3328 2828 
Q 3544 3216 3844 3400 
Q 4144 3584 4550 3584 
Q 5097 3584 5394 3201 
Q 5691 2819 5691 2113 
L 5691 0 
L 5113 0 
L 5113 2094 
Q 5113 2597 4934 2840 
Q 4756 3084 4391 3084 
Q 3944 3084 3684 2787 
Q 3425 2491 3425 1978 
L 3425 0 
L 2847 0 
L 2847 2094 
Q 2847 2600 2669 2842 
Q 2491 3084 2119 3084 
Q 1678 3084 1418 2786 
Q 1159 2488 1159 1978 
L 1159 0 
L 581 0 
L 581 3500 
L 1159 3500 
L 1159 2956 
Q 1356 3278 1631 3431 
Q 1906 3584 2284 3584 
Q 2666 3584 2933 3390 
Q 3200 3197 3328 2828 
z
" id="DejaVuSans-6d" transform="scale(0.015625)"/>
       </defs>
       <use xlink:href="#DejaVuSans-31"/>
       <use x="63.623047" xlink:href="#DejaVuSans-35"/>
       <use x="127.246094" xlink:href="#DejaVuSans-6d"/>
      </g>
     </g>
    </g>
    <g id="xtick_2">
     <g id="line2d_2">
      <g>
       <use style="stroke:#000000;stroke-width:0.8;" x="146.859776" xlink:href="#m5c753dff00" y="288.430125"/>
      </g>
     </g>
     <g id="text_2">
      <!-- 2h:10m -->
      <g transform="translate(127.592588 303.028562)scale(0.1 -0.1)">
       <defs>
        <path d="M 1228 531 
L 3431 531 
L 3431 0 
L 469 0 
L 469 531 
Q 828 903 1448 1529 
Q 2069 2156 2228 2338 
Q 2531 2678 2651 2914 
Q 2772 3150 2772 3378 
Q 2772 3750 2511 3984 
Q 2250 4219 1831 4219 
Q 1534 4219 1204 4116 
Q 875 4013 500 3803 
L 500 4441 
Q 881 4594 1212 4672 
Q 1544 4750 1819 4750 
Q 2544 4750 2975 4387 
Q 3406 4025 3406 3419 
Q 3406 3131 3298 2873 
Q 3191 2616 2906 2266 
Q 2828 2175 2409 1742 
Q 1991 1309 1228 531 
z
" id="DejaVuSans-32" transform="scale(0.015625)"/>
        <path d="M 3513 2113 
L 3513 0 
L 2938 0 
L 2938 2094 
Q 2938 2591 2744 2837 
Q 2550 3084 2163 3084 
Q 1697 3084 1428 2787 
Q 1159 2491 1159 1978 
L 1159 0 
L 581 0 
L 581 4863 
L 1159 4863 
L 1159 2956 
Q 1366 3272 1645 3428 
Q 1925 3584 2291 3584 
Q 2894 3584 3203 3211 
Q 3513 2838 3513 2113 
z
" id="DejaVuSans-68" transform="scale(0.015625)"/>
        <path d="M 750 794 
L 1409 794 
L 1409 0 
L 750 0 
L 750 794 
z
M 750 3309 
L 1409 3309 
L 1409 2516 
L 750 2516 
L 750 3309 
z
" id="DejaVuSans-3a" transform="scale(0.015625)"/>
        <path d="M 2034 4250 
Q 1547 4250 1301 3770 
Q 1056 3291 1056 2328 
Q 1056 1369 1301 889 
Q 1547 409 2034 409 
Q 2525 409 2770 889 
Q 3016 1369 3016 2328 
Q 3016 3291 2770 3770 
Q 2525 4250 2034 4250 
z
M 2034 4750 
Q 2819 4750 3233 4129 
Q 3647 3509 3647 2328 
Q 3647 1150 3233 529 
Q 2819 -91 2034 -91 
Q 1250 -91 836 529 
Q 422 1150 422 2328 
Q 422 3509 836 4129 
Q 1250 4750 2034 4750 
z
" id="DejaVuSans-30" transform="scale(0.015625)"/>
       </defs>
       <use xlink:href="#DejaVuSans-32"/>
       <use x="63.623047" xlink:href="#DejaVuSans-68"/>
       <use x="127.001953" xlink:href="#DejaVuSans-3a"/>
       <use x="160.693359" xlink:href="#DejaVuSans-31"/>
       <use x="224.316406" xlink:href="#DejaVuSans-30"/>
       <use x="287.939453" xlink:href="#DejaVuSans-6d"/>
      </g>
     </g>
    </g>
    <g id="xtick_3">
     <g id="line2d_3">
      <g>
       <use style="stroke:#000000;stroke-width:0.8;" x="201.563472" xlink:href="#m5c753dff00" y="288.430125"/>
      </g>
     </g>
     <g id="text_3">
      <!-- 4h:5m -->
      <g transform="translate(185.477535 303.028562)scale(0.1 -0.1)">
       <defs>
        <path d="M 2419 4116 
L 825 1625 
L 2419 1625 
L 2419 4116 
z
M 2253 4666 
L 3047 4666 
L 3047 1625 
L 3713 1625 
L 3713 1100 
L 3047 1100 
L 3047 0 
L 2419 0 
L 2419 1100 
L 313 1100 
L 313 1709 
L 2253 4666 
z
" id="DejaVuSans-34" transform="scale(0.015625)"/>
       </defs>
       <use xlink:href="#DejaVuSans-34"/>
       <use x="63.623047" xlink:href="#DejaVuSans-68"/>
       <use x="127.001953" xlink:href="#DejaVuSans-3a"/>
       <use x="160.693359" xlink:href="#DejaVuSans-35"/>
       <use x="224.316406" xlink:href="#DejaVuSans-6d"/>
      </g>
     </g>
    </g>
    <g id="xtick_4">
     <g id="line2d_4">
      <g>
       <use style="stroke:#000000;stroke-width:0.8;" x="256.267168" xlink:href="#m5c753dff00" y="288.430125"/>
      </g>
     </g>
     <g id="text_4">
      <!-- 6h -->
      <g transform="translate(249.917168 303.028562)scale(0.1 -0.1)">
       <defs>
        <path d="M 2113 2584 
Q 1688 2584 1439 2293 
Q 1191 2003 1191 1497 
Q 1191 994 1439 701 
Q 1688 409 2113 409 
Q 2538 409 2786 701 
Q 3034 994 3034 1497 
Q 3034 2003 2786 2293 
Q 2538 2584 2113 2584 
z
M 3366 4563 
L 3366 3988 
Q 3128 4100 2886 4159 
Q 2644 4219 2406 4219 
Q 1781 4219 1451 3797 
Q 1122 3375 1075 2522 
Q 1259 2794 1537 2939 
Q 1816 3084 2150 3084 
Q 2853 3084 3261 2657 
Q 3669 2231 3669 1497 
Q 3669 778 3244 343 
Q 2819 -91 2113 -91 
Q 1303 -91 875 529 
Q 447 1150 447 2328 
Q 447 3434 972 4092 
Q 1497 4750 2381 4750 
Q 2619 4750 2861 4703 
Q 3103 4656 3366 4563 
z
" id="DejaVuSans-36" transform="scale(0.015625)"/>
       </defs>
       <use xlink:href="#DejaVuSans-36"/>
       <use x="63.623047" xlink:href="#DejaVuSans-68"/>
      </g>
     </g>
    </g>
    <g id="xtick_5">
     <g id="line2d_5">
      <g>
       <use style="stroke:#000000;stroke-width:0.8;" x="310.970865" xlink:href="#m5c753dff00" y="288.430125"/>
      </g>
     </g>
     <g id="text_5">
      <!-- 7h:55m -->
      <g transform="translate(291.703677 303.028562)scale(0.1 -0.1)">
       <defs>
        <path d="M 525 4666 
L 3525 4666 
L 3525 4397 
L 1831 0 
L 1172 0 
L 2766 4134 
L 525 4134 
L 525 4666 
z
" id="DejaVuSans-37" transform="scale(0.015625)"/>
       </defs>
       <use xlink:href="#DejaVuSans-37"/>
       <use x="63.623047" xlink:href="#DejaVuSans-68"/>
       <use x="127.001953" xlink:href="#DejaVuSans-3a"/>
       <use x="160.693359" xlink:href="#DejaVuSans-35"/>
       <use x="224.316406" xlink:href="#DejaVuSans-35"/>
       <use x="287.939453" xlink:href="#DejaVuSans-6d"/>
      </g>
     </g>
    </g>
    <g id="xtick_6">
     <g id="line2d_6">
      <g>
       <use style="stroke:#000000;stroke-width:0.8;" x="365.674561" xlink:href="#m5c753dff00" y="288.430125"/>
      </g>
     </g>
     <g id="text_6">
      <!-- 9h:50m -->
      <g transform="translate(346.407374 303.028562)scale(0.1 -0.1)">
       <defs>
        <path d="M 703 97 
L 703 672 
Q 941 559 1184 500 
Q 1428 441 1663 441 
Q 2288 441 2617 861 
Q 2947 1281 2994 2138 
Q 2813 1869 2534 1725 
Q 2256 1581 1919 1581 
Q 1219 1581 811 2004 
Q 403 2428 403 3163 
Q 403 3881 828 4315 
Q 1253 4750 1959 4750 
Q 2769 4750 3195 4129 
Q 3622 3509 3622 2328 
Q 3622 1225 3098 567 
Q 2575 -91 1691 -91 
Q 1453 -91 1209 -44 
Q 966 3 703 97 
z
M 1959 2075 
Q 2384 2075 2632 2365 
Q 2881 2656 2881 3163 
Q 2881 3666 2632 3958 
Q 2384 4250 1959 4250 
Q 1534 4250 1286 3958 
Q 1038 3666 1038 3163 
Q 1038 2656 1286 2365 
Q 1534 2075 1959 2075 
z
" id="DejaVuSans-39" transform="scale(0.015625)"/>
       </defs>
       <use xlink:href="#DejaVuSans-39"/>
       <use x="63.623047" xlink:href="#DejaVuSans-68"/>
       <use x="127.001953" xlink:href="#DejaVuSans-3a"/>
       <use x="160.693359" xlink:href="#DejaVuSans-35"/>
       <use x="224.316406" xlink:href="#DejaVuSans-30"/>
       <use x="287.939453" xlink:href="#DejaVuSans-6d"/>
      </g>
     </g>
    </g>
    <g id="xtick_7">
     <g id="line2d_7">
      <g>
       <use style="stroke:#000000;stroke-width:0.8;" x="420.378257" xlink:href="#m5c753dff00" y="288.430125"/>
      </g>
     </g>
     <g id="text_7">
      <!-- 11h:45m -->
      <g transform="translate(397.92982 303.028562)scale(0.1 -0.1)">
       <use xlink:href="#DejaVuSans-31"/>
       <use x="63.623047" xlink:href="#DejaVuSans-31"/>
       <use x="127.246094" xlink:href="#DejaVuSans-68"/>
       <use x="190.625" xlink:href="#DejaVuSans-3a"/>
       <use x="224.316406" xlink:href="#DejaVuSans-34"/>
       <use x="287.939453" xlink:href="#DejaVuSans-35"/>
       <use x="351.5625" xlink:href="#DejaVuSans-6d"/>
      </g>
     </g>
    </g>
    <g id="xtick_8">
     <g id="line2d_8">
      <g>
       <use style="stroke:#000000;stroke-width:0.8;" x="475.081954" xlink:href="#m5c753dff00" y="288.430125"/>
      </g>
     </g>
     <g id="text_8">
      <!-- 13h:40m -->
      <g transform="translate(452.633516 303.028562)scale(0.1 -0.1)">
       <defs>
        <path d="M 2597 2516 
Q 3050 2419 3304 2112 
Q 3559 1806 3559 1356 
Q 3559 666 3084 287 
Q 2609 -91 1734 -91 
Q 1441 -91 1130 -33 
Q 819 25 488 141 
L 488 750 
Q 750 597 1062 519 
Q 1375 441 1716 441 
Q 2309 441 2620 675 
Q 2931 909 2931 1356 
Q 2931 1769 2642 2001 
Q 2353 2234 1838 2234 
L 1294 2234 
L 1294 2753 
L 1863 2753 
Q 2328 2753 2575 2939 
Q 2822 3125 2822 3475 
Q 2822 3834 2567 4026 
Q 2313 4219 1838 4219 
Q 1578 4219 1281 4162 
Q 984 4106 628 3988 
L 628 4550 
Q 988 4650 1302 4700 
Q 1616 4750 1894 4750 
Q 2613 4750 3031 4423 
Q 3450 4097 3450 3541 
Q 3450 3153 3228 2886 
Q 3006 2619 2597 2516 
z
" id="DejaVuSans-33" transform="scale(0.015625)"/>
       </defs>
       <use xlink:href="#DejaVuSans-31"/>
       <use x="63.623047" xlink:href="#DejaVuSans-33"/>
       <use x="127.246094" xlink:href="#DejaVuSans-68"/>
       <use x="190.625" xlink:href="#DejaVuSans-3a"/>
       <use x="224.316406" xlink:href="#DejaVuSans-34"/>
       <use x="287.939453" xlink:href="#DejaVuSans-30"/>
       <use x="351.5625" xlink:href="#DejaVuSans-6d"/>
      </g>
     </g>
    </g>
    <g id="xtick_9">
     <g id="line2d_9">
      <g>
       <use style="stroke:#000000;stroke-width:0.8;" x="529.78565" xlink:href="#m5c753dff00" y="288.430125"/>
      </g>
     </g>
     <g id="text_9">
      <!-- 15h:35m -->
      <g transform="translate(507.337212 303.028562)scale(0.1 -0.1)">
       <use xlink:href="#DejaVuSans-31"/>
       <use x="63.623047" xlink:href="#DejaVuSans-35"/>
       <use x="127.246094" xlink:href="#DejaVuSans-68"/>
       <use x="190.625" xlink:href="#DejaVuSans-3a"/>
       <use x="224.316406" xlink:href="#DejaVuSans-33"/>
       <use x="287.939453" xlink:href="#DejaVuSans-35"/>
       <use x="351.5625" xlink:href="#DejaVuSans-6d"/>
      </g>
     </g>
    </g>
    <g id="xtick_10">
     <g id="line2d_10">
      <g>
       <use style="stroke:#000000;stroke-width:0.8;" x="584.489346" xlink:href="#m5c753dff00" y="288.430125"/>
      </g>
     </g>
     <g id="text_10">
      <!-- 17h:30m -->
      <g transform="translate(562.040909 303.028562)scale(0.1 -0.1)">
       <use xlink:href="#DejaVuSans-31"/>
       <use x="63.623047" xlink:href="#DejaVuSans-37"/>
       <use x="127.246094" xlink:href="#DejaVuSans-68"/>
       <use x="190.625" xlink:href="#DejaVuSans-3a"/>
       <use x="224.316406" xlink:href="#DejaVuSans-33"/>
       <use x="287.939453" xlink:href="#DejaVuSans-30"/>
       <use x="351.5625" xlink:href="#DejaVuSans-6d"/>
      </g>
     </g>
    </g>
    <g id="xtick_11">
     <g id="line2d_11">
      <g>
       <use style="stroke:#000000;stroke-width:0.8;" x="639.193043" xlink:href="#m5c753dff00" y="288.430125"/>
      </g>
     </g>
     <g id="text_11">
      <!-- 19h:25m -->
      <g transform="translate(616.744605 303.028562)scale(0.1 -0.1)">
       <use xlink:href="#DejaVuSans-31"/>
       <use x="63.623047" xlink:href="#DejaVuSans-39"/>
       <use x="127.246094" xlink:href="#DejaVuSans-68"/>
       <use x="190.625" xlink:href="#DejaVuSans-3a"/>
       <use x="224.316406" xlink:href="#DejaVuSans-32"/>
       <use x="287.939453" xlink:href="#DejaVuSans-35"/>
       <use x="351.5625" xlink:href="#DejaVuSans-6d"/>
      </g>
     </g>
    </g>
    <g id="xtick_12">
     <g id="line2d_12">
      <g>
       <use style="stroke:#000000;stroke-width:0.8;" x="693.896739" xlink:href="#m5c753dff00" y="288.430125"/>
      </g>
     </g>
     <g id="text_12">
      <!-- 21h:20m -->
      <g transform="translate(671.448301 303.028562)scale(0.1 -0.1)">
       <use xlink:href="#DejaVuSans-32"/>
       <use x="63.623047" xlink:href="#DejaVuSans-31"/>
       <use x="127.246094" xlink:href="#DejaVuSans-68"/>
       <use x="190.625" xlink:href="#DejaVuSans-3a"/>
       <use x="224.316406" xlink:href="#DejaVuSans-32"/>
       <use x="287.939453" xlink:href="#DejaVuSans-30"/>
       <use x="351.5625" xlink:href="#DejaVuSans-6d"/>
      </g>
     </g>
    </g>
    <g id="text_13">
     <!-- Time (hour:minute) -->
     <g transform="translate(368.403594 316.706687)scale(0.1 -0.1)">
      <defs>
       <path d="M -19 4666 
L 3928 4666 
L 3928 4134 
L 2272 4134 
L 2272 0 
L 1638 0 
L 1638 4134 
L -19 4134 
L -19 4666 
z
" id="DejaVuSans-54" transform="scale(0.015625)"/>
       <path d="M 603 3500 
L 1178 3500 
L 1178 0 
L 603 0 
L 603 3500 
z
M 603 4863 
L 1178 4863 
L 1178 4134 
L 603 4134 
L 603 4863 
z
" id="DejaVuSans-69" transform="scale(0.015625)"/>
       <path d="M 3597 1894 
L 3597 1613 
L 953 1613 
Q 991 1019 1311 708 
Q 1631 397 2203 397 
Q 2534 397 2845 478 
Q 3156 559 3463 722 
L 3463 178 
Q 3153 47 2828 -22 
Q 2503 -91 2169 -91 
Q 1331 -91 842 396 
Q 353 884 353 1716 
Q 353 2575 817 3079 
Q 1281 3584 2069 3584 
Q 2775 3584 3186 3129 
Q 3597 2675 3597 1894 
z
M 3022 2063 
Q 3016 2534 2758 2815 
Q 2500 3097 2075 3097 
Q 1594 3097 1305 2825 
Q 1016 2553 972 2059 
L 3022 2063 
z
" id="DejaVuSans-65" transform="scale(0.015625)"/>
       <path id="DejaVuSans-20" transform="scale(0.015625)"/>
       <path d="M 1984 4856 
Q 1566 4138 1362 3434 
Q 1159 2731 1159 2009 
Q 1159 1288 1364 580 
Q 1569 -128 1984 -844 
L 1484 -844 
Q 1016 -109 783 600 
Q 550 1309 550 2009 
Q 550 2706 781 3412 
Q 1013 4119 1484 4856 
L 1984 4856 
z
" id="DejaVuSans-28" transform="scale(0.015625)"/>
       <path d="M 1959 3097 
Q 1497 3097 1228 2736 
Q 959 2375 959 1747 
Q 959 1119 1226 758 
Q 1494 397 1959 397 
Q 2419 397 2687 759 
Q 2956 1122 2956 1747 
Q 2956 2369 2687 2733 
Q 2419 3097 1959 3097 
z
M 1959 3584 
Q 2709 3584 3137 3096 
Q 3566 2609 3566 1747 
Q 3566 888 3137 398 
Q 2709 -91 1959 -91 
Q 1206 -91 779 398 
Q 353 888 353 1747 
Q 353 2609 779 3096 
Q 1206 3584 1959 3584 
z
" id="DejaVuSans-6f" transform="scale(0.015625)"/>
       <path d="M 544 1381 
L 544 3500 
L 1119 3500 
L 1119 1403 
Q 1119 906 1312 657 
Q 1506 409 1894 409 
Q 2359 409 2629 706 
Q 2900 1003 2900 1516 
L 2900 3500 
L 3475 3500 
L 3475 0 
L 2900 0 
L 2900 538 
Q 2691 219 2414 64 
Q 2138 -91 1772 -91 
Q 1169 -91 856 284 
Q 544 659 544 1381 
z
M 1991 3584 
L 1991 3584 
z
" id="DejaVuSans-75" transform="scale(0.015625)"/>
       <path d="M 2631 2963 
Q 2534 3019 2420 3045 
Q 2306 3072 2169 3072 
Q 1681 3072 1420 2755 
Q 1159 2438 1159 1844 
L 1159 0 
L 581 0 
L 581 3500 
L 1159 3500 
L 1159 2956 
Q 1341 3275 1631 3429 
Q 1922 3584 2338 3584 
Q 2397 3584 2469 3576 
Q 2541 3569 2628 3553 
L 2631 2963 
z
" id="DejaVuSans-72" transform="scale(0.015625)"/>
       <path d="M 3513 2113 
L 3513 0 
L 2938 0 
L 2938 2094 
Q 2938 2591 2744 2837 
Q 2550 3084 2163 3084 
Q 1697 3084 1428 2787 
Q 1159 2491 1159 1978 
L 1159 0 
L 581 0 
L 581 3500 
L 1159 3500 
L 1159 2956 
Q 1366 3272 1645 3428 
Q 1925 3584 2291 3584 
Q 2894 3584 3203 3211 
Q 3513 2838 3513 2113 
z
" id="DejaVuSans-6e" transform="scale(0.015625)"/>
       <path d="M 1172 4494 
L 1172 3500 
L 2356 3500 
L 2356 3053 
L 1172 3053 
L 1172 1153 
Q 1172 725 1289 603 
Q 1406 481 1766 481 
L 2356 481 
L 2356 0 
L 1766 0 
Q 1100 0 847 248 
Q 594 497 594 1153 
L 594 3053 
L 172 3053 
L 172 3500 
L 594 3500 
L 594 4494 
L 1172 4494 
z
" id="DejaVuSans-74" transform="scale(0.015625)"/>
       <path d="M 513 4856 
L 1013 4856 
Q 1481 4119 1714 3412 
Q 1947 2706 1947 2009 
Q 1947 1309 1714 600 
Q 1481 -109 1013 -844 
L 513 -844 
Q 928 -128 1133 580 
Q 1338 1288 1338 2009 
Q 1338 2731 1133 3434 
Q 928 4138 513 4856 
z
" id="DejaVuSans-29" transform="scale(0.015625)"/>
      </defs>
      <use xlink:href="#DejaVuSans-54"/>
      <use x="57.958984" xlink:href="#DejaVuSans-69"/>
      <use x="85.742188" xlink:href="#DejaVuSans-6d"/>
      <use x="183.154297" xlink:href="#DejaVuSans-65"/>
      <use x="244.677734" xlink:href="#DejaVuSans-20"/>
      <use x="276.464844" xlink:href="#DejaVuSans-28"/>
      <use x="315.478516" xlink:href="#DejaVuSans-68"/>
      <use x="378.857422" xlink:href="#DejaVuSans-6f"/>
      <use x="440.039062" xlink:href="#DejaVuSans-75"/>
      <use x="503.417969" xlink:href="#DejaVuSans-72"/>
      <use x="542.78125" xlink:href="#DejaVuSans-3a"/>
      <use x="576.472656" xlink:href="#DejaVuSans-6d"/>
      <use x="673.884766" xlink:href="#DejaVuSans-69"/>
      <use x="701.667969" xlink:href="#DejaVuSans-6e"/>
      <use x="765.046875" xlink:href="#DejaVuSans-75"/>
      <use x="828.425781" xlink:href="#DejaVuSans-74"/>
      <use x="867.634766" xlink:href="#DejaVuSans-65"/>
      <use x="929.158203" xlink:href="#DejaVuSans-29"/>
     </g>
    </g>
   </g>
   <g id="matplotlib.axis_2">
    <g id="ytick_1">
     <g id="line2d_13">
      <defs>
       <path d="M 0 0 
L -3.5 0 
" id="m0b7cc0f74a" style="stroke:#000000;stroke-width:0.8;"/>
      </defs>
      <g>
       <use style="stroke:#000000;stroke-width:0.8;" x="59.690625" xlink:href="#m0b7cc0f74a" y="261.104226"/>
      </g>
     </g>
     <g id="text_14">
      <!-- 7000 -->
      <g transform="translate(27.240625 264.903445)scale(0.1 -0.1)">
       <use xlink:href="#DejaVuSans-37"/>
       <use x="63.623047" xlink:href="#DejaVuSans-30"/>
       <use x="127.246094" xlink:href="#DejaVuSans-30"/>
       <use x="190.869141" xlink:href="#DejaVuSans-30"/>
      </g>
     </g>
    </g>
    <g id="ytick_2">
     <g id="line2d_14">
      <g>
       <use style="stroke:#000000;stroke-width:0.8;" x="59.690625" xlink:href="#m0b7cc0f74a" y="204.382069"/>
      </g>
     </g>
     <g id="text_15">
      <!-- 8000 -->
      <g transform="translate(27.240625 208.181287)scale(0.1 -0.1)">
       <defs>
        <path d="M 2034 2216 
Q 1584 2216 1326 1975 
Q 1069 1734 1069 1313 
Q 1069 891 1326 650 
Q 1584 409 2034 409 
Q 2484 409 2743 651 
Q 3003 894 3003 1313 
Q 3003 1734 2745 1975 
Q 2488 2216 2034 2216 
z
M 1403 2484 
Q 997 2584 770 2862 
Q 544 3141 544 3541 
Q 544 4100 942 4425 
Q 1341 4750 2034 4750 
Q 2731 4750 3128 4425 
Q 3525 4100 3525 3541 
Q 3525 3141 3298 2862 
Q 3072 2584 2669 2484 
Q 3125 2378 3379 2068 
Q 3634 1759 3634 1313 
Q 3634 634 3220 271 
Q 2806 -91 2034 -91 
Q 1263 -91 848 271 
Q 434 634 434 1313 
Q 434 1759 690 2068 
Q 947 2378 1403 2484 
z
M 1172 3481 
Q 1172 3119 1398 2916 
Q 1625 2713 2034 2713 
Q 2441 2713 2670 2916 
Q 2900 3119 2900 3481 
Q 2900 3844 2670 4047 
Q 2441 4250 2034 4250 
Q 1625 4250 1398 4047 
Q 1172 3844 1172 3481 
z
" id="DejaVuSans-38" transform="scale(0.015625)"/>
       </defs>
       <use xlink:href="#DejaVuSans-38"/>
       <use x="63.623047" xlink:href="#DejaVuSans-30"/>
       <use x="127.246094" xlink:href="#DejaVuSans-30"/>
       <use x="190.869141" xlink:href="#DejaVuSans-30"/>
      </g>
     </g>
    </g>
    <g id="ytick_3">
     <g id="line2d_15">
      <g>
       <use style="stroke:#000000;stroke-width:0.8;" x="59.690625" xlink:href="#m0b7cc0f74a" y="147.659912"/>
      </g>
     </g>
     <g id="text_16">
      <!-- 9000 -->
      <g transform="translate(27.240625 151.45913)scale(0.1 -0.1)">
       <use xlink:href="#DejaVuSans-39"/>
       <use x="63.623047" xlink:href="#DejaVuSans-30"/>
       <use x="127.246094" xlink:href="#DejaVuSans-30"/>
       <use x="190.869141" xlink:href="#DejaVuSans-30"/>
      </g>
     </g>
    </g>
    <g id="ytick_4">
     <g id="line2d_16">
      <g>
       <use style="stroke:#000000;stroke-width:0.8;" x="59.690625" xlink:href="#m0b7cc0f74a" y="90.937755"/>
      </g>
     </g>
     <g id="text_17">
      <!-- 10000 -->
      <g transform="translate(20.878125 94.736973)scale(0.1 -0.1)">
       <use xlink:href="#DejaVuSans-31"/>
       <use x="63.623047" xlink:href="#DejaVuSans-30"/>
       <use x="127.246094" xlink:href="#DejaVuSans-30"/>
       <use x="190.869141" xlink:href="#DejaVuSans-30"/>
       <use x="254.492188" xlink:href="#DejaVuSans-30"/>
      </g>
     </g>
    </g>
    <g id="ytick_5">
     <g id="line2d_17">
      <g>
       <use style="stroke:#000000;stroke-width:0.8;" x="59.690625" xlink:href="#m0b7cc0f74a" y="34.215597"/>
      </g>
     </g>
     <g id="text_18">
      <!-- 11000 -->
      <g transform="translate(20.878125 38.014816)scale(0.1 -0.1)">
       <use xlink:href="#DejaVuSans-31"/>
       <use x="63.623047" xlink:href="#DejaVuSans-31"/>
       <use x="127.246094" xlink:href="#DejaVuSans-30"/>
       <use x="190.869141" xlink:href="#DejaVuSans-30"/>
       <use x="254.492188" xlink:href="#DejaVuSans-30"/>
      </g>
     </g>
    </g>
    <g id="text_19">
     <!-- Code branch coverage -->
     <g transform="translate(14.798438 211.949125)rotate(-90)scale(0.1 -0.1)">
      <defs>
       <path d="M 4122 4306 
L 4122 3641 
Q 3803 3938 3442 4084 
Q 3081 4231 2675 4231 
Q 1875 4231 1450 3742 
Q 1025 3253 1025 2328 
Q 1025 1406 1450 917 
Q 1875 428 2675 428 
Q 3081 428 3442 575 
Q 3803 722 4122 1019 
L 4122 359 
Q 3791 134 3420 21 
Q 3050 -91 2638 -91 
Q 1578 -91 968 557 
Q 359 1206 359 2328 
Q 359 3453 968 4101 
Q 1578 4750 2638 4750 
Q 3056 4750 3426 4639 
Q 3797 4528 4122 4306 
z
" id="DejaVuSans-43" transform="scale(0.015625)"/>
       <path d="M 2906 2969 
L 2906 4863 
L 3481 4863 
L 3481 0 
L 2906 0 
L 2906 525 
Q 2725 213 2448 61 
Q 2172 -91 1784 -91 
Q 1150 -91 751 415 
Q 353 922 353 1747 
Q 353 2572 751 3078 
Q 1150 3584 1784 3584 
Q 2172 3584 2448 3432 
Q 2725 3281 2906 2969 
z
M 947 1747 
Q 947 1113 1208 752 
Q 1469 391 1925 391 
Q 2381 391 2643 752 
Q 2906 1113 2906 1747 
Q 2906 2381 2643 2742 
Q 2381 3103 1925 3103 
Q 1469 3103 1208 2742 
Q 947 2381 947 1747 
z
" id="DejaVuSans-64" transform="scale(0.015625)"/>
       <path d="M 3116 1747 
Q 3116 2381 2855 2742 
Q 2594 3103 2138 3103 
Q 1681 3103 1420 2742 
Q 1159 2381 1159 1747 
Q 1159 1113 1420 752 
Q 1681 391 2138 391 
Q 2594 391 2855 752 
Q 3116 1113 3116 1747 
z
M 1159 2969 
Q 1341 3281 1617 3432 
Q 1894 3584 2278 3584 
Q 2916 3584 3314 3078 
Q 3713 2572 3713 1747 
Q 3713 922 3314 415 
Q 2916 -91 2278 -91 
Q 1894 -91 1617 61 
Q 1341 213 1159 525 
L 1159 0 
L 581 0 
L 581 4863 
L 1159 4863 
L 1159 2969 
z
" id="DejaVuSans-62" transform="scale(0.015625)"/>
       <path d="M 2194 1759 
Q 1497 1759 1228 1600 
Q 959 1441 959 1056 
Q 959 750 1161 570 
Q 1363 391 1709 391 
Q 2188 391 2477 730 
Q 2766 1069 2766 1631 
L 2766 1759 
L 2194 1759 
z
M 3341 1997 
L 3341 0 
L 2766 0 
L 2766 531 
Q 2569 213 2275 61 
Q 1981 -91 1556 -91 
Q 1019 -91 701 211 
Q 384 513 384 1019 
Q 384 1609 779 1909 
Q 1175 2209 1959 2209 
L 2766 2209 
L 2766 2266 
Q 2766 2663 2505 2880 
Q 2244 3097 1772 3097 
Q 1472 3097 1187 3025 
Q 903 2953 641 2809 
L 641 3341 
Q 956 3463 1253 3523 
Q 1550 3584 1831 3584 
Q 2591 3584 2966 3190 
Q 3341 2797 3341 1997 
z
" id="DejaVuSans-61" transform="scale(0.015625)"/>
       <path d="M 3122 3366 
L 3122 2828 
Q 2878 2963 2633 3030 
Q 2388 3097 2138 3097 
Q 1578 3097 1268 2742 
Q 959 2388 959 1747 
Q 959 1106 1268 751 
Q 1578 397 2138 397 
Q 2388 397 2633 464 
Q 2878 531 3122 666 
L 3122 134 
Q 2881 22 2623 -34 
Q 2366 -91 2075 -91 
Q 1284 -91 818 406 
Q 353 903 353 1747 
Q 353 2603 823 3093 
Q 1294 3584 2113 3584 
Q 2378 3584 2631 3529 
Q 2884 3475 3122 3366 
z
" id="DejaVuSans-63" transform="scale(0.015625)"/>
       <path d="M 191 3500 
L 800 3500 
L 1894 563 
L 2988 3500 
L 3597 3500 
L 2284 0 
L 1503 0 
L 191 3500 
z
" id="DejaVuSans-76" transform="scale(0.015625)"/>
       <path d="M 2906 1791 
Q 2906 2416 2648 2759 
Q 2391 3103 1925 3103 
Q 1463 3103 1205 2759 
Q 947 2416 947 1791 
Q 947 1169 1205 825 
Q 1463 481 1925 481 
Q 2391 481 2648 825 
Q 2906 1169 2906 1791 
z
M 3481 434 
Q 3481 -459 3084 -895 
Q 2688 -1331 1869 -1331 
Q 1566 -1331 1297 -1286 
Q 1028 -1241 775 -1147 
L 775 -588 
Q 1028 -725 1275 -790 
Q 1522 -856 1778 -856 
Q 2344 -856 2625 -561 
Q 2906 -266 2906 331 
L 2906 616 
Q 2728 306 2450 153 
Q 2172 0 1784 0 
Q 1141 0 747 490 
Q 353 981 353 1791 
Q 353 2603 747 3093 
Q 1141 3584 1784 3584 
Q 2172 3584 2450 3431 
Q 2728 3278 2906 2969 
L 2906 3500 
L 3481 3500 
L 3481 434 
z
" id="DejaVuSans-67" transform="scale(0.015625)"/>
      </defs>
      <use xlink:href="#DejaVuSans-43"/>
      <use x="69.824219" xlink:href="#DejaVuSans-6f"/>
      <use x="131.005859" xlink:href="#DejaVuSans-64"/>
      <use x="194.482422" xlink:href="#DejaVuSans-65"/>
      <use x="256.005859" xlink:href="#DejaVuSans-20"/>
      <use x="287.792969" xlink:href="#DejaVuSans-62"/>
      <use x="351.269531" xlink:href="#DejaVuSans-72"/>
      <use x="392.382812" xlink:href="#DejaVuSans-61"/>
      <use x="453.662109" xlink:href="#DejaVuSans-6e"/>
      <use x="517.041016" xlink:href="#DejaVuSans-63"/>
      <use x="572.021484" xlink:href="#DejaVuSans-68"/>
      <use x="635.400391" xlink:href="#DejaVuSans-20"/>
      <use x="667.1875" xlink:href="#DejaVuSans-63"/>
      <use x="722.167969" xlink:href="#DejaVuSans-6f"/>
      <use x="783.349609" xlink:href="#DejaVuSans-76"/>
      <use x="842.529297" xlink:href="#DejaVuSans-65"/>
      <use x="904.052734" xlink:href="#DejaVuSans-72"/>
      <use x="945.166016" xlink:href="#DejaVuSans-61"/>
      <use x="1006.445312" xlink:href="#DejaVuSans-67"/>
      <use x="1069.921875" xlink:href="#DejaVuSans-65"/>
     </g>
    </g>
   </g>
   <g id="line2d_18">
    <path clip-path="url(#p1d9230b9a2)" d="M 92.15608 265.188221 
L 99.291344 229.198012 
L 106.426609 218.108831 
L 113.561874 212.776948 
L 120.697138 203.985014 
L 127.832403 195.448329 
L 134.967668 185.408507 
L 142.102933 180.700568 
L 149.238197 178.942181 
L 156.373462 175.113436 
L 163.508727 169.015804 
L 170.643992 151.488657 
L 177.779256 146.29858 
L 184.914521 143.1505 
L 192.049786 143.093778 
L 199.185051 139.803893 
L 206.320315 139.20831 
L 213.45558 134.613816 
L 220.590845 132.288207 
L 227.72611 126.984685 
L 234.861374 118.589806 
L 241.996639 117.398641 
L 249.131904 116.803058 
L 256.267168 116.689614 
L 263.402433 116.632892 
L 270.537698 113.96695 
L 277.672963 112.492174 
L 284.808227 110.875593 
L 291.943492 109.769511 
L 299.078757 109.117206 
L 306.214022 108.266374 
L 313.349286 106.252737 
L 320.484551 103.359907 
L 327.619816 103.161379 
L 334.755081 103.104657 
L 341.890345 102.168742 
L 349.02561 100.353633 
L 356.160875 100.268549 
L 363.296139 99.389356 
L 370.431404 92.299086 
L 377.566669 90.909393 
L 384.701934 90.28545 
L 391.837198 89.604784 
L 398.972463 88.073286 
L 406.107728 86.513426 
L 413.242993 86.258177 
L 420.378257 86.173093 
L 427.513522 86.173093 
L 434.648787 85.946205 
L 441.784052 85.946205 
L 448.919316 85.946205 
L 456.054581 83.478791 
L 463.189846 83.365347 
L 470.325111 83.336985 
L 477.460375 70.886472 
L 484.59564 70.092362 
L 491.730905 57.188071 
L 498.866169 56.961182 
L 506.001434 56.734294 
L 513.136699 55.770017 
L 520.271964 55.684934 
L 527.407228 54.975907 
L 534.542493 54.890824 
L 541.677758 54.635574 
L 548.813023 54.295241 
L 555.948287 53.841464 
L 563.083552 53.104076 
L 570.218817 52.933909 
L 577.354082 52.905548 
L 584.489346 52.905548 
L 591.624611 52.877187 
L 598.759876 52.735382 
L 605.89514 52.338327 
L 613.030405 50.182885 
L 620.16567 49.955996 
L 627.300935 49.899274 
L 634.436199 49.133525 
L 641.571464 48.651386 
L 648.706729 47.460221 
L 655.841994 47.43186 
L 662.977258 47.119888 
L 670.112523 47.063166 
L 677.247788 47.063166 
L 684.383053 46.836277 
L 691.518317 45.248057 
L 698.653582 45.021168 
L 705.788847 44.141975 
L 712.924112 44.141975 
L 720.059376 44.113614 
L 727.194641 44.113614 
L 734.329906 44.113614 
L 741.46517 44.085253 
" style="fill:none;stroke:#98df8a;stroke-linecap:square;stroke-width:1.5;"/>
    <defs>
     <path d="M -0 3 
L 3 -3 
L -3 -3 
z
" id="m6d2b74d5f2" style="stroke:#ffffff;stroke-linejoin:miter;stroke-width:0.75;"/>
    </defs>
    <g clip-path="url(#p1d9230b9a2)">
     <use style="fill:#98df8a;stroke:#ffffff;stroke-linejoin:miter;stroke-width:0.75;" x="92.15608" xlink:href="#m6d2b74d5f2" y="265.188221"/>
     <use style="fill:#98df8a;stroke:#ffffff;stroke-linejoin:miter;stroke-width:0.75;" x="99.291344" xlink:href="#m6d2b74d5f2" y="229.198012"/>
     <use style="fill:#98df8a;stroke:#ffffff;stroke-linejoin:miter;stroke-width:0.75;" x="106.426609" xlink:href="#m6d2b74d5f2" y="218.108831"/>
     <use style="fill:#98df8a;stroke:#ffffff;stroke-linejoin:miter;stroke-width:0.75;" x="113.561874" xlink:href="#m6d2b74d5f2" y="212.776948"/>
     <use style="fill:#98df8a;stroke:#ffffff;stroke-linejoin:miter;stroke-width:0.75;" x="120.697138" xlink:href="#m6d2b74d5f2" y="203.985014"/>
     <use style="fill:#98df8a;stroke:#ffffff;stroke-linejoin:miter;stroke-width:0.75;" x="127.832403" xlink:href="#m6d2b74d5f2" y="195.448329"/>
     <use style="fill:#98df8a;stroke:#ffffff;stroke-linejoin:miter;stroke-width:0.75;" x="134.967668" xlink:href="#m6d2b74d5f2" y="185.408507"/>
     <use style="fill:#98df8a;stroke:#ffffff;stroke-linejoin:miter;stroke-width:0.75;" x="142.102933" xlink:href="#m6d2b74d5f2" y="180.700568"/>
     <use style="fill:#98df8a;stroke:#ffffff;stroke-linejoin:miter;stroke-width:0.75;" x="149.238197" xlink:href="#m6d2b74d5f2" y="178.942181"/>
     <use style="fill:#98df8a;stroke:#ffffff;stroke-linejoin:miter;stroke-width:0.75;" x="156.373462" xlink:href="#m6d2b74d5f2" y="175.113436"/>
     <use style="fill:#98df8a;stroke:#ffffff;stroke-linejoin:miter;stroke-width:0.75;" x="163.508727" xlink:href="#m6d2b74d5f2" y="169.015804"/>
     <use style="fill:#98df8a;stroke:#ffffff;stroke-linejoin:miter;stroke-width:0.75;" x="170.643992" xlink:href="#m6d2b74d5f2" y="151.488657"/>
     <use style="fill:#98df8a;stroke:#ffffff;stroke-linejoin:miter;stroke-width:0.75;" x="177.779256" xlink:href="#m6d2b74d5f2" y="146.29858"/>
     <use style="fill:#98df8a;stroke:#ffffff;stroke-linejoin:miter;stroke-width:0.75;" x="184.914521" xlink:href="#m6d2b74d5f2" y="143.1505"/>
     <use style="fill:#98df8a;stroke:#ffffff;stroke-linejoin:miter;stroke-width:0.75;" x="192.049786" xlink:href="#m6d2b74d5f2" y="143.093778"/>
     <use style="fill:#98df8a;stroke:#ffffff;stroke-linejoin:miter;stroke-width:0.75;" x="199.185051" xlink:href="#m6d2b74d5f2" y="139.803893"/>
     <use style="fill:#98df8a;stroke:#ffffff;stroke-linejoin:miter;stroke-width:0.75;" x="206.320315" xlink:href="#m6d2b74d5f2" y="139.20831"/>
     <use style="fill:#98df8a;stroke:#ffffff;stroke-linejoin:miter;stroke-width:0.75;" x="213.45558" xlink:href="#m6d2b74d5f2" y="134.613816"/>
     <use style="fill:#98df8a;stroke:#ffffff;stroke-linejoin:miter;stroke-width:0.75;" x="220.590845" xlink:href="#m6d2b74d5f2" y="132.288207"/>
     <use style="fill:#98df8a;stroke:#ffffff;stroke-linejoin:miter;stroke-width:0.75;" x="227.72611" xlink:href="#m6d2b74d5f2" y="126.984685"/>
     <use style="fill:#98df8a;stroke:#ffffff;stroke-linejoin:miter;stroke-width:0.75;" x="234.861374" xlink:href="#m6d2b74d5f2" y="118.589806"/>
     <use style="fill:#98df8a;stroke:#ffffff;stroke-linejoin:miter;stroke-width:0.75;" x="241.996639" xlink:href="#m6d2b74d5f2" y="117.398641"/>
     <use style="fill:#98df8a;stroke:#ffffff;stroke-linejoin:miter;stroke-width:0.75;" x="249.131904" xlink:href="#m6d2b74d5f2" y="116.803058"/>
     <use style="fill:#98df8a;stroke:#ffffff;stroke-linejoin:miter;stroke-width:0.75;" x="256.267168" xlink:href="#m6d2b74d5f2" y="116.689614"/>
     <use style="fill:#98df8a;stroke:#ffffff;stroke-linejoin:miter;stroke-width:0.75;" x="263.402433" xlink:href="#m6d2b74d5f2" y="116.632892"/>
     <use style="fill:#98df8a;stroke:#ffffff;stroke-linejoin:miter;stroke-width:0.75;" x="270.537698" xlink:href="#m6d2b74d5f2" y="113.96695"/>
     <use style="fill:#98df8a;stroke:#ffffff;stroke-linejoin:miter;stroke-width:0.75;" x="277.672963" xlink:href="#m6d2b74d5f2" y="112.492174"/>
     <use style="fill:#98df8a;stroke:#ffffff;stroke-linejoin:miter;stroke-width:0.75;" x="284.808227" xlink:href="#m6d2b74d5f2" y="110.875593"/>
     <use style="fill:#98df8a;stroke:#ffffff;stroke-linejoin:miter;stroke-width:0.75;" x="291.943492" xlink:href="#m6d2b74d5f2" y="109.769511"/>
     <use style="fill:#98df8a;stroke:#ffffff;stroke-linejoin:miter;stroke-width:0.75;" x="299.078757" xlink:href="#m6d2b74d5f2" y="109.117206"/>
     <use style="fill:#98df8a;stroke:#ffffff;stroke-linejoin:miter;stroke-width:0.75;" x="306.214022" xlink:href="#m6d2b74d5f2" y="108.266374"/>
     <use style="fill:#98df8a;stroke:#ffffff;stroke-linejoin:miter;stroke-width:0.75;" x="313.349286" xlink:href="#m6d2b74d5f2" y="106.252737"/>
     <use style="fill:#98df8a;stroke:#ffffff;stroke-linejoin:miter;stroke-width:0.75;" x="320.484551" xlink:href="#m6d2b74d5f2" y="103.359907"/>
     <use style="fill:#98df8a;stroke:#ffffff;stroke-linejoin:miter;stroke-width:0.75;" x="327.619816" xlink:href="#m6d2b74d5f2" y="103.161379"/>
     <use style="fill:#98df8a;stroke:#ffffff;stroke-linejoin:miter;stroke-width:0.75;" x="334.755081" xlink:href="#m6d2b74d5f2" y="103.104657"/>
     <use style="fill:#98df8a;stroke:#ffffff;stroke-linejoin:miter;stroke-width:0.75;" x="341.890345" xlink:href="#m6d2b74d5f2" y="102.168742"/>
     <use style="fill:#98df8a;stroke:#ffffff;stroke-linejoin:miter;stroke-width:0.75;" x="349.02561" xlink:href="#m6d2b74d5f2" y="100.353633"/>
     <use style="fill:#98df8a;stroke:#ffffff;stroke-linejoin:miter;stroke-width:0.75;" x="356.160875" xlink:href="#m6d2b74d5f2" y="100.268549"/>
     <use style="fill:#98df8a;stroke:#ffffff;stroke-linejoin:miter;stroke-width:0.75;" x="363.296139" xlink:href="#m6d2b74d5f2" y="99.389356"/>
     <use style="fill:#98df8a;stroke:#ffffff;stroke-linejoin:miter;stroke-width:0.75;" x="370.431404" xlink:href="#m6d2b74d5f2" y="92.299086"/>
     <use style="fill:#98df8a;stroke:#ffffff;stroke-linejoin:miter;stroke-width:0.75;" x="377.566669" xlink:href="#m6d2b74d5f2" y="90.909393"/>
     <use style="fill:#98df8a;stroke:#ffffff;stroke-linejoin:miter;stroke-width:0.75;" x="384.701934" xlink:href="#m6d2b74d5f2" y="90.28545"/>
     <use style="fill:#98df8a;stroke:#ffffff;stroke-linejoin:miter;stroke-width:0.75;" x="391.837198" xlink:href="#m6d2b74d5f2" y="89.604784"/>
     <use style="fill:#98df8a;stroke:#ffffff;stroke-linejoin:miter;stroke-width:0.75;" x="398.972463" xlink:href="#m6d2b74d5f2" y="88.073286"/>
     <use style="fill:#98df8a;stroke:#ffffff;stroke-linejoin:miter;stroke-width:0.75;" x="406.107728" xlink:href="#m6d2b74d5f2" y="86.513426"/>
     <use style="fill:#98df8a;stroke:#ffffff;stroke-linejoin:miter;stroke-width:0.75;" x="413.242993" xlink:href="#m6d2b74d5f2" y="86.258177"/>
     <use style="fill:#98df8a;stroke:#ffffff;stroke-linejoin:miter;stroke-width:0.75;" x="420.378257" xlink:href="#m6d2b74d5f2" y="86.173093"/>
     <use style="fill:#98df8a;stroke:#ffffff;stroke-linejoin:miter;stroke-width:0.75;" x="427.513522" xlink:href="#m6d2b74d5f2" y="86.173093"/>
     <use style="fill:#98df8a;stroke:#ffffff;stroke-linejoin:miter;stroke-width:0.75;" x="434.648787" xlink:href="#m6d2b74d5f2" y="85.946205"/>
     <use style="fill:#98df8a;stroke:#ffffff;stroke-linejoin:miter;stroke-width:0.75;" x="441.784052" xlink:href="#m6d2b74d5f2" y="85.946205"/>
     <use style="fill:#98df8a;stroke:#ffffff;stroke-linejoin:miter;stroke-width:0.75;" x="448.919316" xlink:href="#m6d2b74d5f2" y="85.946205"/>
     <use style="fill:#98df8a;stroke:#ffffff;stroke-linejoin:miter;stroke-width:0.75;" x="456.054581" xlink:href="#m6d2b74d5f2" y="83.478791"/>
     <use style="fill:#98df8a;stroke:#ffffff;stroke-linejoin:miter;stroke-width:0.75;" x="463.189846" xlink:href="#m6d2b74d5f2" y="83.365347"/>
     <use style="fill:#98df8a;stroke:#ffffff;stroke-linejoin:miter;stroke-width:0.75;" x="470.325111" xlink:href="#m6d2b74d5f2" y="83.336985"/>
     <use style="fill:#98df8a;stroke:#ffffff;stroke-linejoin:miter;stroke-width:0.75;" x="477.460375" xlink:href="#m6d2b74d5f2" y="70.886472"/>
     <use style="fill:#98df8a;stroke:#ffffff;stroke-linejoin:miter;stroke-width:0.75;" x="484.59564" xlink:href="#m6d2b74d5f2" y="70.092362"/>
     <use style="fill:#98df8a;stroke:#ffffff;stroke-linejoin:miter;stroke-width:0.75;" x="491.730905" xlink:href="#m6d2b74d5f2" y="57.188071"/>
     <use style="fill:#98df8a;stroke:#ffffff;stroke-linejoin:miter;stroke-width:0.75;" x="498.866169" xlink:href="#m6d2b74d5f2" y="56.961182"/>
     <use style="fill:#98df8a;stroke:#ffffff;stroke-linejoin:miter;stroke-width:0.75;" x="506.001434" xlink:href="#m6d2b74d5f2" y="56.734294"/>
     <use style="fill:#98df8a;stroke:#ffffff;stroke-linejoin:miter;stroke-width:0.75;" x="513.136699" xlink:href="#m6d2b74d5f2" y="55.770017"/>
     <use style="fill:#98df8a;stroke:#ffffff;stroke-linejoin:miter;stroke-width:0.75;" x="520.271964" xlink:href="#m6d2b74d5f2" y="55.684934"/>
     <use style="fill:#98df8a;stroke:#ffffff;stroke-linejoin:miter;stroke-width:0.75;" x="527.407228" xlink:href="#m6d2b74d5f2" y="54.975907"/>
     <use style="fill:#98df8a;stroke:#ffffff;stroke-linejoin:miter;stroke-width:0.75;" x="534.542493" xlink:href="#m6d2b74d5f2" y="54.890824"/>
     <use style="fill:#98df8a;stroke:#ffffff;stroke-linejoin:miter;stroke-width:0.75;" x="541.677758" xlink:href="#m6d2b74d5f2" y="54.635574"/>
     <use style="fill:#98df8a;stroke:#ffffff;stroke-linejoin:miter;stroke-width:0.75;" x="548.813023" xlink:href="#m6d2b74d5f2" y="54.295241"/>
     <use style="fill:#98df8a;stroke:#ffffff;stroke-linejoin:miter;stroke-width:0.75;" x="555.948287" xlink:href="#m6d2b74d5f2" y="53.841464"/>
     <use style="fill:#98df8a;stroke:#ffffff;stroke-linejoin:miter;stroke-width:0.75;" x="563.083552" xlink:href="#m6d2b74d5f2" y="53.104076"/>
     <use style="fill:#98df8a;stroke:#ffffff;stroke-linejoin:miter;stroke-width:0.75;" x="570.218817" xlink:href="#m6d2b74d5f2" y="52.933909"/>
     <use style="fill:#98df8a;stroke:#ffffff;stroke-linejoin:miter;stroke-width:0.75;" x="577.354082" xlink:href="#m6d2b74d5f2" y="52.905548"/>
     <use style="fill:#98df8a;stroke:#ffffff;stroke-linejoin:miter;stroke-width:0.75;" x="584.489346" xlink:href="#m6d2b74d5f2" y="52.905548"/>
     <use style="fill:#98df8a;stroke:#ffffff;stroke-linejoin:miter;stroke-width:0.75;" x="591.624611" xlink:href="#m6d2b74d5f2" y="52.877187"/>
     <use style="fill:#98df8a;stroke:#ffffff;stroke-linejoin:miter;stroke-width:0.75;" x="598.759876" xlink:href="#m6d2b74d5f2" y="52.735382"/>
     <use style="fill:#98df8a;stroke:#ffffff;stroke-linejoin:miter;stroke-width:0.75;" x="605.89514" xlink:href="#m6d2b74d5f2" y="52.338327"/>
     <use style="fill:#98df8a;stroke:#ffffff;stroke-linejoin:miter;stroke-width:0.75;" x="613.030405" xlink:href="#m6d2b74d5f2" y="50.182885"/>
     <use style="fill:#98df8a;stroke:#ffffff;stroke-linejoin:miter;stroke-width:0.75;" x="620.16567" xlink:href="#m6d2b74d5f2" y="49.955996"/>
     <use style="fill:#98df8a;stroke:#ffffff;stroke-linejoin:miter;stroke-width:0.75;" x="627.300935" xlink:href="#m6d2b74d5f2" y="49.899274"/>
     <use style="fill:#98df8a;stroke:#ffffff;stroke-linejoin:miter;stroke-width:0.75;" x="634.436199" xlink:href="#m6d2b74d5f2" y="49.133525"/>
     <use style="fill:#98df8a;stroke:#ffffff;stroke-linejoin:miter;stroke-width:0.75;" x="641.571464" xlink:href="#m6d2b74d5f2" y="48.651386"/>
     <use style="fill:#98df8a;stroke:#ffffff;stroke-linejoin:miter;stroke-width:0.75;" x="648.706729" xlink:href="#m6d2b74d5f2" y="47.460221"/>
     <use style="fill:#98df8a;stroke:#ffffff;stroke-linejoin:miter;stroke-width:0.75;" x="655.841994" xlink:href="#m6d2b74d5f2" y="47.43186"/>
     <use style="fill:#98df8a;stroke:#ffffff;stroke-linejoin:miter;stroke-width:0.75;" x="662.977258" xlink:href="#m6d2b74d5f2" y="47.119888"/>
     <use style="fill:#98df8a;stroke:#ffffff;stroke-linejoin:miter;stroke-width:0.75;" x="670.112523" xlink:href="#m6d2b74d5f2" y="47.063166"/>
     <use style="fill:#98df8a;stroke:#ffffff;stroke-linejoin:miter;stroke-width:0.75;" x="677.247788" xlink:href="#m6d2b74d5f2" y="47.063166"/>
     <use style="fill:#98df8a;stroke:#ffffff;stroke-linejoin:miter;stroke-width:0.75;" x="684.383053" xlink:href="#m6d2b74d5f2" y="46.836277"/>
     <use style="fill:#98df8a;stroke:#ffffff;stroke-linejoin:miter;stroke-width:0.75;" x="691.518317" xlink:href="#m6d2b74d5f2" y="45.248057"/>
     <use style="fill:#98df8a;stroke:#ffffff;stroke-linejoin:miter;stroke-width:0.75;" x="698.653582" xlink:href="#m6d2b74d5f2" y="45.021168"/>
     <use style="fill:#98df8a;stroke:#ffffff;stroke-linejoin:miter;stroke-width:0.75;" x="705.788847" xlink:href="#m6d2b74d5f2" y="44.141975"/>
     <use style="fill:#98df8a;stroke:#ffffff;stroke-linejoin:miter;stroke-width:0.75;" x="712.924112" xlink:href="#m6d2b74d5f2" y="44.141975"/>
     <use style="fill:#98df8a;stroke:#ffffff;stroke-linejoin:miter;stroke-width:0.75;" x="720.059376" xlink:href="#m6d2b74d5f2" y="44.113614"/>
     <use style="fill:#98df8a;stroke:#ffffff;stroke-linejoin:miter;stroke-width:0.75;" x="727.194641" xlink:href="#m6d2b74d5f2" y="44.113614"/>
     <use style="fill:#98df8a;stroke:#ffffff;stroke-linejoin:miter;stroke-width:0.75;" x="734.329906" xlink:href="#m6d2b74d5f2" y="44.113614"/>
     <use style="fill:#98df8a;stroke:#ffffff;stroke-linejoin:miter;stroke-width:0.75;" x="741.46517" xlink:href="#m6d2b74d5f2" y="44.085253"/>
    </g>
   </g>
   <g id="line2d_19">
    <path clip-path="url(#p1d9230b9a2)" d="M 92.15608 275.256404 
L 99.291344 251.801792 
L 106.426609 246.583354 
L 113.561874 240.315555 
L 120.697138 236.259921 
L 127.832403 235.040395 
L 134.967668 232.28937 
L 142.102933 231.154927 
L 149.238197 229.765234 
L 156.373462 227.127654 
L 163.508727 227.014209 
L 170.643992 226.844043 
L 177.779256 226.50371 
L 184.914521 226.191738 
L 192.049786 225.794683 
L 199.185051 225.114017 
L 206.320315 224.178102 
L 213.45558 223.412352 
L 220.590845 223.412352 
L 227.72611 223.35563 
L 234.861374 223.298908 
L 241.996639 222.930214 
L 249.131904 222.81677 
L 256.267168 222.760048 
L 263.402433 222.760048 
L 270.537698 222.504798 
L 277.672963 222.476437 
L 284.808227 221.143466 
L 291.943492 220.746411 
L 299.078757 219.611968 
L 306.214022 219.611968 
L 313.349286 219.611968 
L 320.484551 219.611968 
L 327.619816 219.583607 
L 334.755081 219.583607 
L 341.890345 218.817858 
L 349.02561 218.817858 
L 356.160875 217.002749 
L 363.296139 216.889304 
L 370.431404 216.889304 
L 377.566669 216.889304 
L 384.701934 216.889304 
L 391.837198 216.860943 
L 398.972463 216.860943 
L 406.107728 216.492249 
L 413.242993 216.435527 
L 420.378257 216.435527 
L 427.513522 216.435527 
L 434.648787 202.141544 
L 441.784052 202.113182 
L 448.919316 201.489239 
L 456.054581 201.375794 
L 463.189846 201.148906 
L 470.325111 199.844296 
L 477.460375 199.815935 
L 484.59564 199.730852 
L 491.730905 199.67413 
L 498.866169 199.645769 
L 506.001434 199.645769 
L 513.136699 199.305436 
L 520.271964 199.305436 
L 527.407228 199.305436 
L 534.542493 199.305436 
L 541.677758 199.277075 
L 548.813023 184.586036 
L 555.948287 183.962092 
L 563.083552 183.508315 
L 570.218817 183.479954 
L 577.354082 183.479954 
L 584.489346 183.253065 
L 591.624611 183.196343 
L 598.759876 183.196343 
L 605.89514 183.196343 
L 613.030405 183.196343 
L 620.16567 182.742566 
L 627.300935 182.742566 
L 634.436199 182.742566 
L 641.571464 182.742566 
L 648.706729 182.742566 
L 655.841994 182.742566 
L 662.977258 182.714205 
L 670.112523 182.714205 
L 677.247788 182.685844 
L 684.383053 182.544038 
L 691.518317 182.487316 
L 698.653582 182.345511 
L 705.788847 182.232066 
L 712.924112 182.232066 
L 720.059376 182.232066 
L 727.194641 182.232066 
L 734.329906 182.232066 
L 741.46517 182.090261 
" style="fill:none;stroke:#1f77b4;stroke-linecap:square;stroke-width:1.5;"/>
    <defs>
     <path d="M 0 3 
C 0.795609 3 1.55874 2.683901 2.12132 2.12132 
C 2.683901 1.55874 3 0.795609 3 0 
C 3 -0.795609 2.683901 -1.55874 2.12132 -2.12132 
C 1.55874 -2.683901 0.795609 -3 0 -3 
C -0.795609 -3 -1.55874 -2.683901 -2.12132 -2.12132 
C -2.683901 -1.55874 -3 -0.795609 -3 0 
C -3 0.795609 -2.683901 1.55874 -2.12132 2.12132 
C -1.55874 2.683901 -0.795609 3 0 3 
z
" id="mffb300e721" style="stroke:#ffffff;stroke-width:0.75;"/>
    </defs>
    <g clip-path="url(#p1d9230b9a2)">
     <use style="fill:#1f77b4;stroke:#ffffff;stroke-width:0.75;" x="92.15608" xlink:href="#mffb300e721" y="275.256404"/>
     <use style="fill:#1f77b4;stroke:#ffffff;stroke-width:0.75;" x="99.291344" xlink:href="#mffb300e721" y="251.801792"/>
     <use style="fill:#1f77b4;stroke:#ffffff;stroke-width:0.75;" x="106.426609" xlink:href="#mffb300e721" y="246.583354"/>
     <use style="fill:#1f77b4;stroke:#ffffff;stroke-width:0.75;" x="113.561874" xlink:href="#mffb300e721" y="240.315555"/>
     <use style="fill:#1f77b4;stroke:#ffffff;stroke-width:0.75;" x="120.697138" xlink:href="#mffb300e721" y="236.259921"/>
     <use style="fill:#1f77b4;stroke:#ffffff;stroke-width:0.75;" x="127.832403" xlink:href="#mffb300e721" y="235.040395"/>
     <use style="fill:#1f77b4;stroke:#ffffff;stroke-width:0.75;" x="134.967668" xlink:href="#mffb300e721" y="232.28937"/>
     <use style="fill:#1f77b4;stroke:#ffffff;stroke-width:0.75;" x="142.102933" xlink:href="#mffb300e721" y="231.154927"/>
     <use style="fill:#1f77b4;stroke:#ffffff;stroke-width:0.75;" x="149.238197" xlink:href="#mffb300e721" y="229.765234"/>
     <use style="fill:#1f77b4;stroke:#ffffff;stroke-width:0.75;" x="156.373462" xlink:href="#mffb300e721" y="227.127654"/>
     <use style="fill:#1f77b4;stroke:#ffffff;stroke-width:0.75;" x="163.508727" xlink:href="#mffb300e721" y="227.014209"/>
     <use style="fill:#1f77b4;stroke:#ffffff;stroke-width:0.75;" x="170.643992" xlink:href="#mffb300e721" y="226.844043"/>
     <use style="fill:#1f77b4;stroke:#ffffff;stroke-width:0.75;" x="177.779256" xlink:href="#mffb300e721" y="226.50371"/>
     <use style="fill:#1f77b4;stroke:#ffffff;stroke-width:0.75;" x="184.914521" xlink:href="#mffb300e721" y="226.191738"/>
     <use style="fill:#1f77b4;stroke:#ffffff;stroke-width:0.75;" x="192.049786" xlink:href="#mffb300e721" y="225.794683"/>
     <use style="fill:#1f77b4;stroke:#ffffff;stroke-width:0.75;" x="199.185051" xlink:href="#mffb300e721" y="225.114017"/>
     <use style="fill:#1f77b4;stroke:#ffffff;stroke-width:0.75;" x="206.320315" xlink:href="#mffb300e721" y="224.178102"/>
     <use style="fill:#1f77b4;stroke:#ffffff;stroke-width:0.75;" x="213.45558" xlink:href="#mffb300e721" y="223.412352"/>
     <use style="fill:#1f77b4;stroke:#ffffff;stroke-width:0.75;" x="220.590845" xlink:href="#mffb300e721" y="223.412352"/>
     <use style="fill:#1f77b4;stroke:#ffffff;stroke-width:0.75;" x="227.72611" xlink:href="#mffb300e721" y="223.35563"/>
     <use style="fill:#1f77b4;stroke:#ffffff;stroke-width:0.75;" x="234.861374" xlink:href="#mffb300e721" y="223.298908"/>
     <use style="fill:#1f77b4;stroke:#ffffff;stroke-width:0.75;" x="241.996639" xlink:href="#mffb300e721" y="222.930214"/>
     <use style="fill:#1f77b4;stroke:#ffffff;stroke-width:0.75;" x="249.131904" xlink:href="#mffb300e721" y="222.81677"/>
     <use style="fill:#1f77b4;stroke:#ffffff;stroke-width:0.75;" x="256.267168" xlink:href="#mffb300e721" y="222.760048"/>
     <use style="fill:#1f77b4;stroke:#ffffff;stroke-width:0.75;" x="263.402433" xlink:href="#mffb300e721" y="222.760048"/>
     <use style="fill:#1f77b4;stroke:#ffffff;stroke-width:0.75;" x="270.537698" xlink:href="#mffb300e721" y="222.504798"/>
     <use style="fill:#1f77b4;stroke:#ffffff;stroke-width:0.75;" x="277.672963" xlink:href="#mffb300e721" y="222.476437"/>
     <use style="fill:#1f77b4;stroke:#ffffff;stroke-width:0.75;" x="284.808227" xlink:href="#mffb300e721" y="221.143466"/>
     <use style="fill:#1f77b4;stroke:#ffffff;stroke-width:0.75;" x="291.943492" xlink:href="#mffb300e721" y="220.746411"/>
     <use style="fill:#1f77b4;stroke:#ffffff;stroke-width:0.75;" x="299.078757" xlink:href="#mffb300e721" y="219.611968"/>
     <use style="fill:#1f77b4;stroke:#ffffff;stroke-width:0.75;" x="306.214022" xlink:href="#mffb300e721" y="219.611968"/>
     <use style="fill:#1f77b4;stroke:#ffffff;stroke-width:0.75;" x="313.349286" xlink:href="#mffb300e721" y="219.611968"/>
     <use style="fill:#1f77b4;stroke:#ffffff;stroke-width:0.75;" x="320.484551" xlink:href="#mffb300e721" y="219.611968"/>
     <use style="fill:#1f77b4;stroke:#ffffff;stroke-width:0.75;" x="327.619816" xlink:href="#mffb300e721" y="219.583607"/>
     <use style="fill:#1f77b4;stroke:#ffffff;stroke-width:0.75;" x="334.755081" xlink:href="#mffb300e721" y="219.583607"/>
     <use style="fill:#1f77b4;stroke:#ffffff;stroke-width:0.75;" x="341.890345" xlink:href="#mffb300e721" y="218.817858"/>
     <use style="fill:#1f77b4;stroke:#ffffff;stroke-width:0.75;" x="349.02561" xlink:href="#mffb300e721" y="218.817858"/>
     <use style="fill:#1f77b4;stroke:#ffffff;stroke-width:0.75;" x="356.160875" xlink:href="#mffb300e721" y="217.002749"/>
     <use style="fill:#1f77b4;stroke:#ffffff;stroke-width:0.75;" x="363.296139" xlink:href="#mffb300e721" y="216.889304"/>
     <use style="fill:#1f77b4;stroke:#ffffff;stroke-width:0.75;" x="370.431404" xlink:href="#mffb300e721" y="216.889304"/>
     <use style="fill:#1f77b4;stroke:#ffffff;stroke-width:0.75;" x="377.566669" xlink:href="#mffb300e721" y="216.889304"/>
     <use style="fill:#1f77b4;stroke:#ffffff;stroke-width:0.75;" x="384.701934" xlink:href="#mffb300e721" y="216.889304"/>
     <use style="fill:#1f77b4;stroke:#ffffff;stroke-width:0.75;" x="391.837198" xlink:href="#mffb300e721" y="216.860943"/>
     <use style="fill:#1f77b4;stroke:#ffffff;stroke-width:0.75;" x="398.972463" xlink:href="#mffb300e721" y="216.860943"/>
     <use style="fill:#1f77b4;stroke:#ffffff;stroke-width:0.75;" x="406.107728" xlink:href="#mffb300e721" y="216.492249"/>
     <use style="fill:#1f77b4;stroke:#ffffff;stroke-width:0.75;" x="413.242993" xlink:href="#mffb300e721" y="216.435527"/>
     <use style="fill:#1f77b4;stroke:#ffffff;stroke-width:0.75;" x="420.378257" xlink:href="#mffb300e721" y="216.435527"/>
     <use style="fill:#1f77b4;stroke:#ffffff;stroke-width:0.75;" x="427.513522" xlink:href="#mffb300e721" y="216.435527"/>
     <use style="fill:#1f77b4;stroke:#ffffff;stroke-width:0.75;" x="434.648787" xlink:href="#mffb300e721" y="202.141544"/>
     <use style="fill:#1f77b4;stroke:#ffffff;stroke-width:0.75;" x="441.784052" xlink:href="#mffb300e721" y="202.113182"/>
     <use style="fill:#1f77b4;stroke:#ffffff;stroke-width:0.75;" x="448.919316" xlink:href="#mffb300e721" y="201.489239"/>
     <use style="fill:#1f77b4;stroke:#ffffff;stroke-width:0.75;" x="456.054581" xlink:href="#mffb300e721" y="201.375794"/>
     <use style="fill:#1f77b4;stroke:#ffffff;stroke-width:0.75;" x="463.189846" xlink:href="#mffb300e721" y="201.148906"/>
     <use style="fill:#1f77b4;stroke:#ffffff;stroke-width:0.75;" x="470.325111" xlink:href="#mffb300e721" y="199.844296"/>
     <use style="fill:#1f77b4;stroke:#ffffff;stroke-width:0.75;" x="477.460375" xlink:href="#mffb300e721" y="199.815935"/>
     <use style="fill:#1f77b4;stroke:#ffffff;stroke-width:0.75;" x="484.59564" xlink:href="#mffb300e721" y="199.730852"/>
     <use style="fill:#1f77b4;stroke:#ffffff;stroke-width:0.75;" x="491.730905" xlink:href="#mffb300e721" y="199.67413"/>
     <use style="fill:#1f77b4;stroke:#ffffff;stroke-width:0.75;" x="498.866169" xlink:href="#mffb300e721" y="199.645769"/>
     <use style="fill:#1f77b4;stroke:#ffffff;stroke-width:0.75;" x="506.001434" xlink:href="#mffb300e721" y="199.645769"/>
     <use style="fill:#1f77b4;stroke:#ffffff;stroke-width:0.75;" x="513.136699" xlink:href="#mffb300e721" y="199.305436"/>
     <use style="fill:#1f77b4;stroke:#ffffff;stroke-width:0.75;" x="520.271964" xlink:href="#mffb300e721" y="199.305436"/>
     <use style="fill:#1f77b4;stroke:#ffffff;stroke-width:0.75;" x="527.407228" xlink:href="#mffb300e721" y="199.305436"/>
     <use style="fill:#1f77b4;stroke:#ffffff;stroke-width:0.75;" x="534.542493" xlink:href="#mffb300e721" y="199.305436"/>
     <use style="fill:#1f77b4;stroke:#ffffff;stroke-width:0.75;" x="541.677758" xlink:href="#mffb300e721" y="199.277075"/>
     <use style="fill:#1f77b4;stroke:#ffffff;stroke-width:0.75;" x="548.813023" xlink:href="#mffb300e721" y="184.586036"/>
     <use style="fill:#1f77b4;stroke:#ffffff;stroke-width:0.75;" x="555.948287" xlink:href="#mffb300e721" y="183.962092"/>
     <use style="fill:#1f77b4;stroke:#ffffff;stroke-width:0.75;" x="563.083552" xlink:href="#mffb300e721" y="183.508315"/>
     <use style="fill:#1f77b4;stroke:#ffffff;stroke-width:0.75;" x="570.218817" xlink:href="#mffb300e721" y="183.479954"/>
     <use style="fill:#1f77b4;stroke:#ffffff;stroke-width:0.75;" x="577.354082" xlink:href="#mffb300e721" y="183.479954"/>
     <use style="fill:#1f77b4;stroke:#ffffff;stroke-width:0.75;" x="584.489346" xlink:href="#mffb300e721" y="183.253065"/>
     <use style="fill:#1f77b4;stroke:#ffffff;stroke-width:0.75;" x="591.624611" xlink:href="#mffb300e721" y="183.196343"/>
     <use style="fill:#1f77b4;stroke:#ffffff;stroke-width:0.75;" x="598.759876" xlink:href="#mffb300e721" y="183.196343"/>
     <use style="fill:#1f77b4;stroke:#ffffff;stroke-width:0.75;" x="605.89514" xlink:href="#mffb300e721" y="183.196343"/>
     <use style="fill:#1f77b4;stroke:#ffffff;stroke-width:0.75;" x="613.030405" xlink:href="#mffb300e721" y="183.196343"/>
     <use style="fill:#1f77b4;stroke:#ffffff;stroke-width:0.75;" x="620.16567" xlink:href="#mffb300e721" y="182.742566"/>
     <use style="fill:#1f77b4;stroke:#ffffff;stroke-width:0.75;" x="627.300935" xlink:href="#mffb300e721" y="182.742566"/>
     <use style="fill:#1f77b4;stroke:#ffffff;stroke-width:0.75;" x="634.436199" xlink:href="#mffb300e721" y="182.742566"/>
     <use style="fill:#1f77b4;stroke:#ffffff;stroke-width:0.75;" x="641.571464" xlink:href="#mffb300e721" y="182.742566"/>
     <use style="fill:#1f77b4;stroke:#ffffff;stroke-width:0.75;" x="648.706729" xlink:href="#mffb300e721" y="182.742566"/>
     <use style="fill:#1f77b4;stroke:#ffffff;stroke-width:0.75;" x="655.841994" xlink:href="#mffb300e721" y="182.742566"/>
     <use style="fill:#1f77b4;stroke:#ffffff;stroke-width:0.75;" x="662.977258" xlink:href="#mffb300e721" y="182.714205"/>
     <use style="fill:#1f77b4;stroke:#ffffff;stroke-width:0.75;" x="670.112523" xlink:href="#mffb300e721" y="182.714205"/>
     <use style="fill:#1f77b4;stroke:#ffffff;stroke-width:0.75;" x="677.247788" xlink:href="#mffb300e721" y="182.685844"/>
     <use style="fill:#1f77b4;stroke:#ffffff;stroke-width:0.75;" x="684.383053" xlink:href="#mffb300e721" y="182.544038"/>
     <use style="fill:#1f77b4;stroke:#ffffff;stroke-width:0.75;" x="691.518317" xlink:href="#mffb300e721" y="182.487316"/>
     <use style="fill:#1f77b4;stroke:#ffffff;stroke-width:0.75;" x="698.653582" xlink:href="#mffb300e721" y="182.345511"/>
     <use style="fill:#1f77b4;stroke:#ffffff;stroke-width:0.75;" x="705.788847" xlink:href="#mffb300e721" y="182.232066"/>
     <use style="fill:#1f77b4;stroke:#ffffff;stroke-width:0.75;" x="712.924112" xlink:href="#mffb300e721" y="182.232066"/>
     <use style="fill:#1f77b4;stroke:#ffffff;stroke-width:0.75;" x="720.059376" xlink:href="#mffb300e721" y="182.232066"/>
     <use style="fill:#1f77b4;stroke:#ffffff;stroke-width:0.75;" x="727.194641" xlink:href="#mffb300e721" y="182.232066"/>
     <use style="fill:#1f77b4;stroke:#ffffff;stroke-width:0.75;" x="734.329906" xlink:href="#mffb300e721" y="182.232066"/>
     <use style="fill:#1f77b4;stroke:#ffffff;stroke-width:0.75;" x="741.46517" xlink:href="#mffb300e721" y="182.090261"/>
    </g>
   </g>
   <g id="line2d_20"/>
   <g id="line2d_21"/>
   <g id="line2d_22">
    <path clip-path="url(#p1d9230b9a2)" d="M 741.46517 288.430125 
L 741.46517 22.318125 
" style="fill:none;stroke:#ff0000;stroke-linecap:square;stroke-width:1.5;"/>
   </g>
   <g id="patch_3">
    <path d="M 59.690625 261.104226 
L 59.690625 34.215597 
" style="fill:none;stroke:#000000;stroke-linecap:square;stroke-linejoin:miter;stroke-width:0.8;"/>
   </g>
   <g id="patch_4">
    <path d="M 92.15608 288.430125 
L 693.896739 288.430125 
" style="fill:none;stroke:#000000;stroke-linecap:square;stroke-linejoin:miter;stroke-width:0.8;"/>
   </g>
   <g id="text_20">
    <!-- freetype2-2017 (23h, 10 trials/fuzzer) -->
    <g transform="translate(303.597188 16.318125)scale(0.12 -0.12)">
     <defs>
      <path d="M 2375 4863 
L 2375 4384 
L 1825 4384 
Q 1516 4384 1395 4259 
Q 1275 4134 1275 3809 
L 1275 3500 
L 2222 3500 
L 2222 3053 
L 1275 3053 
L 1275 0 
L 697 0 
L 697 3053 
L 147 3053 
L 147 3500 
L 697 3500 
L 697 3744 
Q 697 4328 969 4595 
Q 1241 4863 1831 4863 
L 2375 4863 
z
" id="DejaVuSans-66" transform="scale(0.015625)"/>
      <path d="M 2059 -325 
Q 1816 -950 1584 -1140 
Q 1353 -1331 966 -1331 
L 506 -1331 
L 506 -850 
L 844 -850 
Q 1081 -850 1212 -737 
Q 1344 -625 1503 -206 
L 1606 56 
L 191 3500 
L 800 3500 
L 1894 763 
L 2988 3500 
L 3597 3500 
L 2059 -325 
z
" id="DejaVuSans-79" transform="scale(0.015625)"/>
      <path d="M 1159 525 
L 1159 -1331 
L 581 -1331 
L 581 3500 
L 1159 3500 
L 1159 2969 
Q 1341 3281 1617 3432 
Q 1894 3584 2278 3584 
Q 2916 3584 3314 3078 
Q 3713 2572 3713 1747 
Q 3713 922 3314 415 
Q 2916 -91 2278 -91 
Q 1894 -91 1617 61 
Q 1341 213 1159 525 
z
M 3116 1747 
Q 3116 2381 2855 2742 
Q 2594 3103 2138 3103 
Q 1681 3103 1420 2742 
Q 1159 2381 1159 1747 
Q 1159 1113 1420 752 
Q 1681 391 2138 391 
Q 2594 391 2855 752 
Q 3116 1113 3116 1747 
z
" id="DejaVuSans-70" transform="scale(0.015625)"/>
      <path d="M 313 2009 
L 1997 2009 
L 1997 1497 
L 313 1497 
L 313 2009 
z
" id="DejaVuSans-2d" transform="scale(0.015625)"/>
      <path d="M 750 794 
L 1409 794 
L 1409 256 
L 897 -744 
L 494 -744 
L 750 256 
L 750 794 
z
" id="DejaVuSans-2c" transform="scale(0.015625)"/>
      <path d="M 603 4863 
L 1178 4863 
L 1178 0 
L 603 0 
L 603 4863 
z
" id="DejaVuSans-6c" transform="scale(0.015625)"/>
      <path d="M 2834 3397 
L 2834 2853 
Q 2591 2978 2328 3040 
Q 2066 3103 1784 3103 
Q 1356 3103 1142 2972 
Q 928 2841 928 2578 
Q 928 2378 1081 2264 
Q 1234 2150 1697 2047 
L 1894 2003 
Q 2506 1872 2764 1633 
Q 3022 1394 3022 966 
Q 3022 478 2636 193 
Q 2250 -91 1575 -91 
Q 1294 -91 989 -36 
Q 684 19 347 128 
L 347 722 
Q 666 556 975 473 
Q 1284 391 1588 391 
Q 1994 391 2212 530 
Q 2431 669 2431 922 
Q 2431 1156 2273 1281 
Q 2116 1406 1581 1522 
L 1381 1569 
Q 847 1681 609 1914 
Q 372 2147 372 2553 
Q 372 3047 722 3315 
Q 1072 3584 1716 3584 
Q 2034 3584 2315 3537 
Q 2597 3491 2834 3397 
z
" id="DejaVuSans-73" transform="scale(0.015625)"/>
      <path d="M 1625 4666 
L 2156 4666 
L 531 -594 
L 0 -594 
L 1625 4666 
z
" id="DejaVuSans-2f" transform="scale(0.015625)"/>
      <path d="M 353 3500 
L 3084 3500 
L 3084 2975 
L 922 459 
L 3084 459 
L 3084 0 
L 275 0 
L 275 525 
L 2438 3041 
L 353 3041 
L 353 3500 
z
" id="DejaVuSans-7a" transform="scale(0.015625)"/>
     </defs>
     <use xlink:href="#DejaVuSans-66"/>
     <use x="35.205078" xlink:href="#DejaVuSans-72"/>
     <use x="74.068359" xlink:href="#DejaVuSans-65"/>
     <use x="135.591797" xlink:href="#DejaVuSans-65"/>
     <use x="197.115234" xlink:href="#DejaVuSans-74"/>
     <use x="236.324219" xlink:href="#DejaVuSans-79"/>
     <use x="295.503906" xlink:href="#DejaVuSans-70"/>
     <use x="358.980469" xlink:href="#DejaVuSans-65"/>
     <use x="420.503906" xlink:href="#DejaVuSans-32"/>
     <use x="484.126953" xlink:href="#DejaVuSans-2d"/>
     <use x="520.210938" xlink:href="#DejaVuSans-32"/>
     <use x="583.833984" xlink:href="#DejaVuSans-30"/>
     <use x="647.457031" xlink:href="#DejaVuSans-31"/>
     <use x="711.080078" xlink:href="#DejaVuSans-37"/>
     <use x="774.703125" xlink:href="#DejaVuSans-20"/>
     <use x="806.490234" xlink:href="#DejaVuSans-28"/>
     <use x="845.503906" xlink:href="#DejaVuSans-32"/>
     <use x="909.126953" xlink:href="#DejaVuSans-33"/>
     <use x="972.75" xlink:href="#DejaVuSans-68"/>
     <use x="1036.128906" xlink:href="#DejaVuSans-2c"/>
     <use x="1067.916016" xlink:href="#DejaVuSans-20"/>
     <use x="1099.703125" xlink:href="#DejaVuSans-31"/>
     <use x="1163.326172" xlink:href="#DejaVuSans-30"/>
     <use x="1226.949219" xlink:href="#DejaVuSans-20"/>
     <use x="1258.736328" xlink:href="#DejaVuSans-74"/>
     <use x="1297.945312" xlink:href="#DejaVuSans-72"/>
     <use x="1339.058594" xlink:href="#DejaVuSans-69"/>
     <use x="1366.841797" xlink:href="#DejaVuSans-61"/>
     <use x="1428.121094" xlink:href="#DejaVuSans-6c"/>
     <use x="1455.904297" xlink:href="#DejaVuSans-73"/>
     <use x="1508.003906" xlink:href="#DejaVuSans-2f"/>
     <use x="1541.695312" xlink:href="#DejaVuSans-66"/>
     <use x="1576.900391" xlink:href="#DejaVuSans-75"/>
     <use x="1640.279297" xlink:href="#DejaVuSans-7a"/>
     <use x="1692.769531" xlink:href="#DejaVuSans-7a"/>
     <use x="1745.259766" xlink:href="#DejaVuSans-65"/>
     <use x="1806.783203" xlink:href="#DejaVuSans-72"/>
     <use x="1847.896484" xlink:href="#DejaVuSans-29"/>
    </g>
   </g>
   <g id="legend_1">
    <g id="line2d_23">
     <path d="M 777.930625 30.416563 
L 797.930625 30.416563 
" style="fill:none;stroke:#98df8a;stroke-linecap:square;stroke-width:1.5;"/>
    </g>
    <g id="line2d_24">
     <defs>
      <path d="M -0 3 
L 3 -3 
L -3 -3 
z
" id="mcc0888da22" style="stroke:#98df8a;stroke-linejoin:miter;"/>
     </defs>
     <g>
      <use style="fill:#98df8a;stroke:#98df8a;stroke-linejoin:miter;" x="787.930625" xlink:href="#mcc0888da22" y="30.416563"/>
     </g>
    </g>
    <g id="text_21">
     <!-- sydr_aflplusplus -->
     <g transform="translate(805.930625 33.916563)scale(0.1 -0.1)">
      <defs>
       <path d="M 3263 -1063 
L 3263 -1509 
L -63 -1509 
L -63 -1063 
L 3263 -1063 
z
" id="DejaVuSans-5f" transform="scale(0.015625)"/>
      </defs>
      <use xlink:href="#DejaVuSans-73"/>
      <use x="52.099609" xlink:href="#DejaVuSans-79"/>
      <use x="111.279297" xlink:href="#DejaVuSans-64"/>
      <use x="174.755859" xlink:href="#DejaVuSans-72"/>
      <use x="215.869141" xlink:href="#DejaVuSans-5f"/>
      <use x="265.869141" xlink:href="#DejaVuSans-61"/>
      <use x="327.148438" xlink:href="#DejaVuSans-66"/>
      <use x="362.353516" xlink:href="#DejaVuSans-6c"/>
      <use x="390.136719" xlink:href="#DejaVuSans-70"/>
      <use x="453.613281" xlink:href="#DejaVuSans-6c"/>
      <use x="481.396484" xlink:href="#DejaVuSans-75"/>
      <use x="544.775391" xlink:href="#DejaVuSans-73"/>
      <use x="596.875" xlink:href="#DejaVuSans-70"/>
      <use x="660.351562" xlink:href="#DejaVuSans-6c"/>
      <use x="688.134766" xlink:href="#DejaVuSans-75"/>
      <use x="751.513672" xlink:href="#DejaVuSans-73"/>
     </g>
    </g>
    <g id="line2d_25">
     <path d="M 777.930625 45.372813 
L 797.930625 45.372813 
" style="fill:none;stroke:#1f77b4;stroke-linecap:square;stroke-width:1.5;"/>
    </g>
    <g id="line2d_26">
     <defs>
      <path d="M 0 3 
C 0.795609 3 1.55874 2.683901 2.12132 2.12132 
C 2.683901 1.55874 3 0.795609 3 0 
C 3 -0.795609 2.683901 -1.55874 2.12132 -2.12132 
C 1.55874 -2.683901 0.795609 -3 0 -3 
C -0.795609 -3 -1.55874 -2.683901 -2.12132 -2.12132 
C -2.683901 -1.55874 -3 -0.795609 -3 0 
C -3 0.795609 -2.683901 1.55874 -2.12132 2.12132 
C -1.55874 2.683901 -0.795609 3 0 3 
z
" id="m5611f50258" style="stroke:#1f77b4;"/>
     </defs>
     <g>
      <use style="fill:#1f77b4;stroke:#1f77b4;" x="787.930625" xlink:href="#m5611f50258" y="45.372813"/>
     </g>
    </g>
    <g id="text_22">
     <!-- aflplusplus_two_instances -->
     <g transform="translate(805.930625 48.872813)scale(0.1 -0.1)">
      <defs>
       <path d="M 269 3500 
L 844 3500 
L 1563 769 
L 2278 3500 
L 2956 3500 
L 3675 769 
L 4391 3500 
L 4966 3500 
L 4050 0 
L 3372 0 
L 2619 2869 
L 1863 0 
L 1184 0 
L 269 3500 
z
" id="DejaVuSans-77" transform="scale(0.015625)"/>
      </defs>
      <use xlink:href="#DejaVuSans-61"/>
      <use x="61.279297" xlink:href="#DejaVuSans-66"/>
      <use x="96.484375" xlink:href="#DejaVuSans-6c"/>
      <use x="124.267578" xlink:href="#DejaVuSans-70"/>
      <use x="187.744141" xlink:href="#DejaVuSans-6c"/>
      <use x="215.527344" xlink:href="#DejaVuSans-75"/>
      <use x="278.90625" xlink:href="#DejaVuSans-73"/>
      <use x="331.005859" xlink:href="#DejaVuSans-70"/>
      <use x="394.482422" xlink:href="#DejaVuSans-6c"/>
      <use x="422.265625" xlink:href="#DejaVuSans-75"/>
      <use x="485.644531" xlink:href="#DejaVuSans-73"/>
      <use x="537.744141" xlink:href="#DejaVuSans-5f"/>
      <use x="587.744141" xlink:href="#DejaVuSans-74"/>
      <use x="626.953125" xlink:href="#DejaVuSans-77"/>
      <use x="708.740234" xlink:href="#DejaVuSans-6f"/>
      <use x="769.921875" xlink:href="#DejaVuSans-5f"/>
      <use x="819.921875" xlink:href="#DejaVuSans-69"/>
      <use x="847.705078" xlink:href="#DejaVuSans-6e"/>
      <use x="911.083984" xlink:href="#DejaVuSans-73"/>
      <use x="963.183594" xlink:href="#DejaVuSans-74"/>
      <use x="1002.392578" xlink:href="#DejaVuSans-61"/>
      <use x="1063.671875" xlink:href="#DejaVuSans-6e"/>
      <use x="1127.050781" xlink:href="#DejaVuSans-63"/>
      <use x="1182.03125" xlink:href="#DejaVuSans-65"/>
      <use x="1243.554688" xlink:href="#DejaVuSans-73"/>
     </g>
    </g>
   </g>
  </g>
 </g>
 <defs>
  <clipPath id="p1d9230b9a2">
   <rect height="266.112" width="714.24" x="59.690625" y="22.318125"/>
  </clipPath>
 </defs>
</svg>
