<?xml version="1.0" encoding="utf-8" standalone="no"?>
<!DOCTYPE svg PUBLIC "-//W3C//DTD SVG 1.1//EN"
  "http://www.w3.org/Graphics/SVG/1.1/DTD/svg11.dtd">
<svg height="325.986375pt" version="1.1" viewBox="0 0 940.330625 325.986375" width="940.330625pt" xmlns="http://www.w3.org/2000/svg" xmlns:xlink="http://www.w3.org/1999/xlink">
 <metadata>
  <rdf:RDF xmlns:cc="http://creativecommons.org/ns#" xmlns:dc="http://purl.org/dc/elements/1.1/" xmlns:rdf="http://www.w3.org/1999/02/22-rdf-syntax-ns#">
   <cc:Work>
    <dc:type rdf:resource="http://purl.org/dc/dcmitype/StillImage"/>
    <dc:date>2022-09-13T23:54:01.024482</dc:date>
    <dc:format>image/svg+xml</dc:format>
    <dc:creator>
     <cc:Agent>
      <dc:title>Matplotlib v3.4.1, https://matplotlib.org/</dc:title>
     </cc:Agent>
    </dc:creator>
   </cc:Work>
  </rdf:RDF>
 </metadata>
 <defs>
  <style type="text/css">*{stroke-linecap:butt;stroke-linejoin:round;}</style>
 </defs>
 <g id="figure_1">
  <g id="patch_1">
   <path d="M 0 325.986375 
L 940.330625 325.986375 
L 940.330625 0 
L 0 0 
z
" style="fill:#ffffff;"/>
  </g>
  <g id="axes_1">
   <g id="patch_2">
    <path d="M 53.328125 288.430125 
L 767.568125 288.430125 
L 767.568125 22.318125 
L 53.328125 22.318125 
z
" style="fill:#ffffff;"/>
   </g>
   <g id="PolyCollection_1">
    <defs>
     <path d="M 85.79358 -125.02431 
L 85.79358 -49.65225 
L 92.928844 -185.80823 
L 100.064109 -223.49426 
L 107.199374 -238.082401 
L 114.334638 -242.945114 
L 121.469903 -246.592149 
L 128.605168 -246.592149 
L 135.740433 -249.023506 
L 142.875697 -249.023506 
L 150.010962 -251.454863 
L 157.146227 -251.454863 
L 164.281492 -251.454863 
L 171.416756 -253.88622 
L 178.552021 -253.88622 
L 185.687286 -255.101898 
L 192.822551 -256.317577 
L 199.957815 -257.533255 
L 207.09308 -258.748933 
L 214.228345 -258.748933 
L 221.36361 -257.533255 
L 228.498874 -258.748933 
L 235.634139 -258.748933 
L 242.769404 -258.748933 
L 249.904668 -258.748933 
L 257.039933 -258.748933 
L 264.175198 -258.748933 
L 271.310463 -258.748933 
L 278.445727 -258.748933 
L 285.580992 -261.18029 
L 292.716257 -261.18029 
L 299.851522 -261.18029 
L 306.986786 -261.18029 
L 314.122051 -261.18029 
L 321.257316 -262.395969 
L 328.392581 -262.395969 
L 335.527845 -262.395969 
L 342.66311 -263.611647 
L 349.798375 -262.395969 
L 356.933639 -263.581255 
L 364.068904 -262.395969 
L 371.204169 -263.611647 
L 378.339434 -263.611647 
L 385.474698 -263.611647 
L 392.609963 -263.611647 
L 399.745228 -263.611647 
L 406.880493 -263.611647 
L 414.015757 -263.611647 
L 421.151022 -263.611647 
L 428.286287 -263.611647 
L 435.421552 -263.611647 
L 442.556816 -263.611647 
L 449.692081 -264.827325 
L 456.827346 -263.611647 
L 463.962611 -263.611647 
L 471.097875 -263.611647 
L 478.23314 -264.827325 
L 485.368405 -264.827325 
L 492.503669 -264.827325 
L 499.638934 -266.043004 
L 506.774199 -264.827325 
L 513.909464 -264.827325 
L 521.044728 -268.413577 
L 528.179993 -268.474361 
L 535.315258 -264.827325 
L 542.450523 -264.827325 
L 549.585787 -266.043004 
L 556.721052 -264.827325 
L 563.856317 -267.258682 
L 570.991582 -267.22829 
L 578.126846 -267.258682 
L 585.262111 -264.827325 
L 592.397376 -266.012612 
L 599.53264 -264.827325 
L 606.667905 -266.043004 
L 613.80317 -268.443969 
L 620.938435 -264.827325 
L 628.073699 -266.043004 
L 635.208964 -266.043004 
L 642.344229 -266.043004 
L 649.479494 -266.043004 
L 656.614758 -264.827325 
L 663.750023 -268.474361 
L 670.885288 -267.258682 
L 678.020553 -268.443969 
L 685.155817 -266.043004 
L 692.291082 -266.043004 
L 699.426347 -268.474361 
L 706.561612 -266.043004 
L 713.696876 -266.043004 
L 720.832141 -268.474361 
L 727.967406 -266.043004 
L 735.10267 -267.258682 
L 735.10267 -290.356572 
L 735.10267 -290.356572 
L 727.967406 -290.356572 
L 720.832141 -291.57225 
L 713.696876 -290.356572 
L 706.561612 -290.356572 
L 699.426347 -290.356572 
L 692.291082 -290.356572 
L 685.155817 -290.356572 
L 678.020553 -290.356572 
L 670.885288 -291.57225 
L 663.750023 -290.356572 
L 656.614758 -284.27818 
L 649.479494 -284.27818 
L 642.344229 -284.27818 
L 635.208964 -284.27818 
L 628.073699 -284.27818 
L 620.938435 -284.27818 
L 613.80317 -284.27818 
L 606.667905 -284.27818 
L 599.53264 -281.846823 
L 592.397376 -281.846823 
L 585.262111 -281.846823 
L 578.126846 -281.846823 
L 570.991582 -281.846823 
L 563.856317 -281.877215 
L 556.721052 -281.846823 
L 549.585787 -275.889999 
L 542.450523 -281.846823 
L 535.315258 -275.768431 
L 528.179993 -281.846823 
L 521.044728 -281.846823 
L 513.909464 -281.846823 
L 506.774199 -279.415466 
L 499.638934 -280.631144 
L 492.503669 -279.415466 
L 485.368405 -278.199788 
L 478.23314 -276.984109 
L 471.097875 -275.798823 
L 463.962611 -279.415466 
L 456.827346 -276.984109 
L 449.692081 -278.199788 
L 442.556816 -278.199788 
L 435.421552 -278.199788 
L 428.286287 -274.552753 
L 421.151022 -274.552753 
L 414.015757 -274.552753 
L 406.880493 -273.337074 
L 399.745228 -273.337074 
L 392.609963 -273.337074 
L 385.474698 -273.337074 
L 378.339434 -273.337074 
L 371.204169 -273.337074 
L 364.068904 -273.337074 
L 356.933639 -273.337074 
L 349.798375 -273.337074 
L 342.66311 -273.337074 
L 335.527845 -273.337074 
L 328.392581 -273.337074 
L 321.257316 -273.337074 
L 314.122051 -273.337074 
L 306.986786 -273.337074 
L 299.851522 -272.121396 
L 292.716257 -272.121396 
L 285.580992 -272.121396 
L 278.445727 -272.121396 
L 271.310463 -268.535144 
L 264.175198 -269.720431 
L 257.039933 -270.905717 
L 249.904668 -270.905717 
L 242.769404 -270.905717 
L 235.634139 -269.690039 
L 228.498874 -268.474361 
L 221.36361 -268.474361 
L 214.228345 -268.474361 
L 207.09308 -269.690039 
L 199.957815 -268.474361 
L 192.822551 -268.474361 
L 185.687286 -268.474361 
L 178.552021 -268.474361 
L 171.416756 -268.474361 
L 164.281492 -266.043004 
L 157.146227 -264.827325 
L 150.010962 -263.611647 
L 142.875697 -263.611647 
L 135.740433 -264.827325 
L 128.605168 -263.611647 
L 121.469903 -261.18029 
L 114.334638 -256.317577 
L 107.199374 -252.670541 
L 100.064109 -245.376471 
L 92.928844 -233.219687 
L 85.79358 -125.02431 
z
" id="m88314154bc" style="stroke:#98df8a;stroke-opacity:0.2;"/>
    </defs>
    <g clip-path="url(#p5ef378b317)">
     <use style="fill:#98df8a;fill-opacity:0.2;stroke:#98df8a;stroke-opacity:0.2;" x="0" xlink:href="#m88314154bc" y="325.986375"/>
    </g>
   </g>
   <g id="PolyCollection_2">
    <defs>
     <path d="M 85.79358 -197.965014 
L 85.79358 -115.298883 
L 92.928844 -227.141295 
L 100.064109 -234.34419 
L 107.199374 -244.160793 
L 114.334638 -247.807828 
L 121.469903 -251.454863 
L 128.605168 -253.88622 
L 135.740433 -253.88622 
L 142.875697 -256.317577 
L 150.010962 -256.317577 
L 157.146227 -256.317577 
L 164.281492 -258.748933 
L 171.416756 -258.748933 
L 178.552021 -258.748933 
L 185.687286 -258.748933 
L 192.822551 -261.18029 
L 199.957815 -261.18029 
L 207.09308 -261.18029 
L 214.228345 -261.18029 
L 221.36361 -261.18029 
L 228.498874 -261.18029 
L 235.634139 -261.18029 
L 242.769404 -262.395969 
L 249.904668 -263.611647 
L 257.039933 -263.611647 
L 264.175198 -263.611647 
L 271.310463 -263.611647 
L 278.445727 -263.611647 
L 285.580992 -263.611647 
L 292.716257 -263.611647 
L 299.851522 -263.611647 
L 306.986786 -263.611647 
L 314.122051 -263.611647 
L 321.257316 -263.611647 
L 328.392581 -263.611647 
L 335.527845 -263.611647 
L 342.66311 -263.611647 
L 349.798375 -263.611647 
L 356.933639 -263.611647 
L 364.068904 -263.611647 
L 371.204169 -263.611647 
L 378.339434 -263.611647 
L 385.474698 -263.611647 
L 392.609963 -263.611647 
L 399.745228 -263.611647 
L 406.880493 -263.611647 
L 414.015757 -263.611647 
L 421.151022 -263.611647 
L 428.286287 -263.611647 
L 435.421552 -263.611647 
L 442.556816 -263.611647 
L 449.692081 -263.611647 
L 456.827346 -263.611647 
L 463.962611 -263.611647 
L 471.097875 -264.827325 
L 478.23314 -264.827325 
L 485.368405 -264.827325 
L 492.503669 -264.827325 
L 499.638934 -264.827325 
L 506.774199 -264.827325 
L 513.909464 -266.012612 
L 521.044728 -264.827325 
L 528.179993 -264.827325 
L 535.315258 -264.827325 
L 542.450523 -264.827325 
L 549.585787 -264.827325 
L 556.721052 -264.827325 
L 563.856317 -266.012612 
L 570.991582 -264.827325 
L 578.126846 -264.827325 
L 585.262111 -266.012612 
L 592.397376 -266.043004 
L 599.53264 -264.827325 
L 606.667905 -266.043004 
L 613.80317 -264.827325 
L 620.938435 -264.827325 
L 628.073699 -266.043004 
L 635.208964 -266.043004 
L 642.344229 -266.043004 
L 649.479494 -264.827325 
L 656.614758 -264.827325 
L 663.750023 -264.827325 
L 670.885288 -266.012612 
L 678.020553 -266.043004 
L 685.155817 -266.043004 
L 692.291082 -266.043004 
L 699.426347 -266.043004 
L 706.561612 -266.043004 
L 713.696876 -266.043004 
L 720.832141 -266.043004 
L 727.967406 -266.043004 
L 735.10267 -264.827325 
L 735.10267 -278.23018 
L 735.10267 -278.23018 
L 727.967406 -279.415466 
L 720.832141 -279.415466 
L 713.696876 -278.199788 
L 706.561612 -278.199788 
L 699.426347 -278.199788 
L 692.291082 -279.415466 
L 685.155817 -278.199788 
L 678.020553 -278.199788 
L 670.885288 -278.199788 
L 663.750023 -278.199788 
L 656.614758 -278.199788 
L 649.479494 -278.199788 
L 642.344229 -278.199788 
L 635.208964 -278.199788 
L 628.073699 -278.199788 
L 620.938435 -278.199788 
L 613.80317 -278.199788 
L 606.667905 -279.415466 
L 599.53264 -278.199788 
L 592.397376 -278.23018 
L 585.262111 -278.199788 
L 578.126846 -278.199788 
L 570.991582 -278.199788 
L 563.856317 -278.199788 
L 556.721052 -278.199788 
L 549.585787 -278.199788 
L 542.450523 -278.199788 
L 535.315258 -278.199788 
L 528.179993 -278.199788 
L 521.044728 -278.199788 
L 513.909464 -278.199788 
L 506.774199 -278.199788 
L 499.638934 -278.199788 
L 492.503669 -278.199788 
L 485.368405 -278.199788 
L 478.23314 -278.199788 
L 471.097875 -278.23018 
L 463.962611 -278.199788 
L 456.827346 -279.415466 
L 449.692081 -278.199788 
L 442.556816 -278.199788 
L 435.421552 -279.415466 
L 428.286287 -278.199788 
L 421.151022 -278.199788 
L 414.015757 -278.199788 
L 406.880493 -278.23018 
L 399.745228 -278.199788 
L 392.609963 -278.199788 
L 385.474698 -278.199788 
L 378.339434 -278.199788 
L 371.204169 -278.199788 
L 364.068904 -278.199788 
L 356.933639 -278.199788 
L 349.798375 -275.768431 
L 342.66311 -275.768431 
L 335.527845 -275.768431 
L 328.392581 -275.768431 
L 321.257316 -275.768431 
L 314.122051 -275.768431 
L 306.986786 -275.768431 
L 299.851522 -275.768431 
L 292.716257 -275.768431 
L 285.580992 -275.768431 
L 278.445727 -275.768431 
L 271.310463 -275.768431 
L 264.175198 -276.984109 
L 257.039933 -275.768431 
L 249.904668 -273.337074 
L 242.769404 -273.337074 
L 235.634139 -273.337074 
L 228.498874 -273.337074 
L 221.36361 -273.337074 
L 214.228345 -270.905717 
L 207.09308 -270.905717 
L 199.957815 -270.905717 
L 192.822551 -268.474361 
L 185.687286 -266.073396 
L 178.552021 -264.827325 
L 171.416756 -264.827325 
L 164.281492 -264.827325 
L 157.146227 -262.395969 
L 150.010962 -261.18029 
L 142.875697 -261.18029 
L 135.740433 -259.964612 
L 128.605168 -258.748933 
L 121.469903 -258.748933 
L 114.334638 -256.317577 
L 107.199374 -255.101898 
L 100.064109 -253.88622 
L 92.928844 -246.592149 
L 85.79358 -197.965014 
z
" id="md8fed65365" style="stroke:#1f77b4;stroke-opacity:0.2;"/>
    </defs>
    <g clip-path="url(#p5ef378b317)">
     <use style="fill:#1f77b4;fill-opacity:0.2;stroke:#1f77b4;stroke-opacity:0.2;" x="0" xlink:href="#md8fed65365" y="325.986375"/>
    </g>
   </g>
   <g id="matplotlib.axis_1">
    <g id="xtick_1">
     <g id="line2d_1">
      <defs>
       <path d="M 0 0 
L 0 3.5 
" id="m3a57430676" style="stroke:#000000;stroke-width:0.8;"/>
      </defs>
      <g>
       <use style="stroke:#000000;stroke-width:0.8;" x="85.79358" xlink:href="#m3a57430676" y="288.430125"/>
      </g>
     </g>
     <g id="text_1">
      <!-- 15m -->
      <g transform="translate(74.560767 303.028562)scale(0.1 -0.1)">
       <defs>
        <path d="M 794 531 
L 1825 531 
L 1825 4091 
L 703 3866 
L 703 4441 
L 1819 4666 
L 2450 4666 
L 2450 531 
L 3481 531 
L 3481 0 
L 794 0 
L 794 531 
z
" id="DejaVuSans-31" transform="scale(0.015625)"/>
        <path d="M 691 4666 
L 3169 4666 
L 3169 4134 
L 1269 4134 
L 1269 2991 
Q 1406 3038 1543 3061 
Q 1681 3084 1819 3084 
Q 2600 3084 3056 2656 
Q 3513 2228 3513 1497 
Q 3513 744 3044 326 
Q 2575 -91 1722 -91 
Q 1428 -91 1123 -41 
Q 819 9 494 109 
L 494 744 
Q 775 591 1075 516 
Q 1375 441 1709 441 
Q 2250 441 2565 725 
Q 2881 1009 2881 1497 
Q 2881 1984 2565 2268 
Q 2250 2553 1709 2553 
Q 1456 2553 1204 2497 
Q 953 2441 691 2322 
L 691 4666 
z
" id="DejaVuSans-35" transform="scale(0.015625)"/>
        <path d="M 3328 2828 
Q 3544 3216 3844 3400 
Q 4144 3584 4550 3584 
Q 5097 3584 5394 3201 
Q 5691 2819 5691 2113 
L 5691 0 
L 5113 0 
L 5113 2094 
Q 5113 2597 4934 2840 
Q 4756 3084 4391 3084 
Q 3944 3084 3684 2787 
Q 3425 2491 3425 1978 
L 3425 0 
L 2847 0 
L 2847 2094 
Q 2847 2600 2669 2842 
Q 2491 3084 2119 3084 
Q 1678 3084 1418 2786 
Q 1159 2488 1159 1978 
L 1159 0 
L 581 0 
L 581 3500 
L 1159 3500 
L 1159 2956 
Q 1356 3278 1631 3431 
Q 1906 3584 2284 3584 
Q 2666 3584 2933 3390 
Q 3200 3197 3328 2828 
z
" id="DejaVuSans-6d" transform="scale(0.015625)"/>
       </defs>
       <use xlink:href="#DejaVuSans-31"/>
       <use x="63.623047" xlink:href="#DejaVuSans-35"/>
       <use x="127.246094" xlink:href="#DejaVuSans-6d"/>
      </g>
     </g>
    </g>
    <g id="xtick_2">
     <g id="line2d_2">
      <g>
       <use style="stroke:#000000;stroke-width:0.8;" x="140.497276" xlink:href="#m3a57430676" y="288.430125"/>
      </g>
     </g>
     <g id="text_2">
      <!-- 2h:10m -->
      <g transform="translate(121.230088 303.028562)scale(0.1 -0.1)">
       <defs>
        <path d="M 1228 531 
L 3431 531 
L 3431 0 
L 469 0 
L 469 531 
Q 828 903 1448 1529 
Q 2069 2156 2228 2338 
Q 2531 2678 2651 2914 
Q 2772 3150 2772 3378 
Q 2772 3750 2511 3984 
Q 2250 4219 1831 4219 
Q 1534 4219 1204 4116 
Q 875 4013 500 3803 
L 500 4441 
Q 881 4594 1212 4672 
Q 1544 4750 1819 4750 
Q 2544 4750 2975 4387 
Q 3406 4025 3406 3419 
Q 3406 3131 3298 2873 
Q 3191 2616 2906 2266 
Q 2828 2175 2409 1742 
Q 1991 1309 1228 531 
z
" id="DejaVuSans-32" transform="scale(0.015625)"/>
        <path d="M 3513 2113 
L 3513 0 
L 2938 0 
L 2938 2094 
Q 2938 2591 2744 2837 
Q 2550 3084 2163 3084 
Q 1697 3084 1428 2787 
Q 1159 2491 1159 1978 
L 1159 0 
L 581 0 
L 581 4863 
L 1159 4863 
L 1159 2956 
Q 1366 3272 1645 3428 
Q 1925 3584 2291 3584 
Q 2894 3584 3203 3211 
Q 3513 2838 3513 2113 
z
" id="DejaVuSans-68" transform="scale(0.015625)"/>
        <path d="M 750 794 
L 1409 794 
L 1409 0 
L 750 0 
L 750 794 
z
M 750 3309 
L 1409 3309 
L 1409 2516 
L 750 2516 
L 750 3309 
z
" id="DejaVuSans-3a" transform="scale(0.015625)"/>
        <path d="M 2034 4250 
Q 1547 4250 1301 3770 
Q 1056 3291 1056 2328 
Q 1056 1369 1301 889 
Q 1547 409 2034 409 
Q 2525 409 2770 889 
Q 3016 1369 3016 2328 
Q 3016 3291 2770 3770 
Q 2525 4250 2034 4250 
z
M 2034 4750 
Q 2819 4750 3233 4129 
Q 3647 3509 3647 2328 
Q 3647 1150 3233 529 
Q 2819 -91 2034 -91 
Q 1250 -91 836 529 
Q 422 1150 422 2328 
Q 422 3509 836 4129 
Q 1250 4750 2034 4750 
z
" id="DejaVuSans-30" transform="scale(0.015625)"/>
       </defs>
       <use xlink:href="#DejaVuSans-32"/>
       <use x="63.623047" xlink:href="#DejaVuSans-68"/>
       <use x="127.001953" xlink:href="#DejaVuSans-3a"/>
       <use x="160.693359" xlink:href="#DejaVuSans-31"/>
       <use x="224.316406" xlink:href="#DejaVuSans-30"/>
       <use x="287.939453" xlink:href="#DejaVuSans-6d"/>
      </g>
     </g>
    </g>
    <g id="xtick_3">
     <g id="line2d_3">
      <g>
       <use style="stroke:#000000;stroke-width:0.8;" x="195.200972" xlink:href="#m3a57430676" y="288.430125"/>
      </g>
     </g>
     <g id="text_3">
      <!-- 4h:5m -->
      <g transform="translate(179.115035 303.028562)scale(0.1 -0.1)">
       <defs>
        <path d="M 2419 4116 
L 825 1625 
L 2419 1625 
L 2419 4116 
z
M 2253 4666 
L 3047 4666 
L 3047 1625 
L 3713 1625 
L 3713 1100 
L 3047 1100 
L 3047 0 
L 2419 0 
L 2419 1100 
L 313 1100 
L 313 1709 
L 2253 4666 
z
" id="DejaVuSans-34" transform="scale(0.015625)"/>
       </defs>
       <use xlink:href="#DejaVuSans-34"/>
       <use x="63.623047" xlink:href="#DejaVuSans-68"/>
       <use x="127.001953" xlink:href="#DejaVuSans-3a"/>
       <use x="160.693359" xlink:href="#DejaVuSans-35"/>
       <use x="224.316406" xlink:href="#DejaVuSans-6d"/>
      </g>
     </g>
    </g>
    <g id="xtick_4">
     <g id="line2d_4">
      <g>
       <use style="stroke:#000000;stroke-width:0.8;" x="249.904668" xlink:href="#m3a57430676" y="288.430125"/>
      </g>
     </g>
     <g id="text_4">
      <!-- 6h -->
      <g transform="translate(243.554668 303.028562)scale(0.1 -0.1)">
       <defs>
        <path d="M 2113 2584 
Q 1688 2584 1439 2293 
Q 1191 2003 1191 1497 
Q 1191 994 1439 701 
Q 1688 409 2113 409 
Q 2538 409 2786 701 
Q 3034 994 3034 1497 
Q 3034 2003 2786 2293 
Q 2538 2584 2113 2584 
z
M 3366 4563 
L 3366 3988 
Q 3128 4100 2886 4159 
Q 2644 4219 2406 4219 
Q 1781 4219 1451 3797 
Q 1122 3375 1075 2522 
Q 1259 2794 1537 2939 
Q 1816 3084 2150 3084 
Q 2853 3084 3261 2657 
Q 3669 2231 3669 1497 
Q 3669 778 3244 343 
Q 2819 -91 2113 -91 
Q 1303 -91 875 529 
Q 447 1150 447 2328 
Q 447 3434 972 4092 
Q 1497 4750 2381 4750 
Q 2619 4750 2861 4703 
Q 3103 4656 3366 4563 
z
" id="DejaVuSans-36" transform="scale(0.015625)"/>
       </defs>
       <use xlink:href="#DejaVuSans-36"/>
       <use x="63.623047" xlink:href="#DejaVuSans-68"/>
      </g>
     </g>
    </g>
    <g id="xtick_5">
     <g id="line2d_5">
      <g>
       <use style="stroke:#000000;stroke-width:0.8;" x="304.608365" xlink:href="#m3a57430676" y="288.430125"/>
      </g>
     </g>
     <g id="text_5">
      <!-- 7h:55m -->
      <g transform="translate(285.341177 303.028562)scale(0.1 -0.1)">
       <defs>
        <path d="M 525 4666 
L 3525 4666 
L 3525 4397 
L 1831 0 
L 1172 0 
L 2766 4134 
L 525 4134 
L 525 4666 
z
" id="DejaVuSans-37" transform="scale(0.015625)"/>
       </defs>
       <use xlink:href="#DejaVuSans-37"/>
       <use x="63.623047" xlink:href="#DejaVuSans-68"/>
       <use x="127.001953" xlink:href="#DejaVuSans-3a"/>
       <use x="160.693359" xlink:href="#DejaVuSans-35"/>
       <use x="224.316406" xlink:href="#DejaVuSans-35"/>
       <use x="287.939453" xlink:href="#DejaVuSans-6d"/>
      </g>
     </g>
    </g>
    <g id="xtick_6">
     <g id="line2d_6">
      <g>
       <use style="stroke:#000000;stroke-width:0.8;" x="359.312061" xlink:href="#m3a57430676" y="288.430125"/>
      </g>
     </g>
     <g id="text_6">
      <!-- 9h:50m -->
      <g transform="translate(340.044874 303.028562)scale(0.1 -0.1)">
       <defs>
        <path d="M 703 97 
L 703 672 
Q 941 559 1184 500 
Q 1428 441 1663 441 
Q 2288 441 2617 861 
Q 2947 1281 2994 2138 
Q 2813 1869 2534 1725 
Q 2256 1581 1919 1581 
Q 1219 1581 811 2004 
Q 403 2428 403 3163 
Q 403 3881 828 4315 
Q 1253 4750 1959 4750 
Q 2769 4750 3195 4129 
Q 3622 3509 3622 2328 
Q 3622 1225 3098 567 
Q 2575 -91 1691 -91 
Q 1453 -91 1209 -44 
Q 966 3 703 97 
z
M 1959 2075 
Q 2384 2075 2632 2365 
Q 2881 2656 2881 3163 
Q 2881 3666 2632 3958 
Q 2384 4250 1959 4250 
Q 1534 4250 1286 3958 
Q 1038 3666 1038 3163 
Q 1038 2656 1286 2365 
Q 1534 2075 1959 2075 
z
" id="DejaVuSans-39" transform="scale(0.015625)"/>
       </defs>
       <use xlink:href="#DejaVuSans-39"/>
       <use x="63.623047" xlink:href="#DejaVuSans-68"/>
       <use x="127.001953" xlink:href="#DejaVuSans-3a"/>
       <use x="160.693359" xlink:href="#DejaVuSans-35"/>
       <use x="224.316406" xlink:href="#DejaVuSans-30"/>
       <use x="287.939453" xlink:href="#DejaVuSans-6d"/>
      </g>
     </g>
    </g>
    <g id="xtick_7">
     <g id="line2d_7">
      <g>
       <use style="stroke:#000000;stroke-width:0.8;" x="414.015757" xlink:href="#m3a57430676" y="288.430125"/>
      </g>
     </g>
     <g id="text_7">
      <!-- 11h:45m -->
      <g transform="translate(391.56732 303.028562)scale(0.1 -0.1)">
       <use xlink:href="#DejaVuSans-31"/>
       <use x="63.623047" xlink:href="#DejaVuSans-31"/>
       <use x="127.246094" xlink:href="#DejaVuSans-68"/>
       <use x="190.625" xlink:href="#DejaVuSans-3a"/>
       <use x="224.316406" xlink:href="#DejaVuSans-34"/>
       <use x="287.939453" xlink:href="#DejaVuSans-35"/>
       <use x="351.5625" xlink:href="#DejaVuSans-6d"/>
      </g>
     </g>
    </g>
    <g id="xtick_8">
     <g id="line2d_8">
      <g>
       <use style="stroke:#000000;stroke-width:0.8;" x="468.719454" xlink:href="#m3a57430676" y="288.430125"/>
      </g>
     </g>
     <g id="text_8">
      <!-- 13h:40m -->
      <g transform="translate(446.271016 303.028562)scale(0.1 -0.1)">
       <defs>
        <path d="M 2597 2516 
Q 3050 2419 3304 2112 
Q 3559 1806 3559 1356 
Q 3559 666 3084 287 
Q 2609 -91 1734 -91 
Q 1441 -91 1130 -33 
Q 819 25 488 141 
L 488 750 
Q 750 597 1062 519 
Q 1375 441 1716 441 
Q 2309 441 2620 675 
Q 2931 909 2931 1356 
Q 2931 1769 2642 2001 
Q 2353 2234 1838 2234 
L 1294 2234 
L 1294 2753 
L 1863 2753 
Q 2328 2753 2575 2939 
Q 2822 3125 2822 3475 
Q 2822 3834 2567 4026 
Q 2313 4219 1838 4219 
Q 1578 4219 1281 4162 
Q 984 4106 628 3988 
L 628 4550 
Q 988 4650 1302 4700 
Q 1616 4750 1894 4750 
Q 2613 4750 3031 4423 
Q 3450 4097 3450 3541 
Q 3450 3153 3228 2886 
Q 3006 2619 2597 2516 
z
" id="DejaVuSans-33" transform="scale(0.015625)"/>
       </defs>
       <use xlink:href="#DejaVuSans-31"/>
       <use x="63.623047" xlink:href="#DejaVuSans-33"/>
       <use x="127.246094" xlink:href="#DejaVuSans-68"/>
       <use x="190.625" xlink:href="#DejaVuSans-3a"/>
       <use x="224.316406" xlink:href="#DejaVuSans-34"/>
       <use x="287.939453" xlink:href="#DejaVuSans-30"/>
       <use x="351.5625" xlink:href="#DejaVuSans-6d"/>
      </g>
     </g>
    </g>
    <g id="xtick_9">
     <g id="line2d_9">
      <g>
       <use style="stroke:#000000;stroke-width:0.8;" x="523.42315" xlink:href="#m3a57430676" y="288.430125"/>
      </g>
     </g>
     <g id="text_9">
      <!-- 15h:35m -->
      <g transform="translate(500.974712 303.028562)scale(0.1 -0.1)">
       <use xlink:href="#DejaVuSans-31"/>
       <use x="63.623047" xlink:href="#DejaVuSans-35"/>
       <use x="127.246094" xlink:href="#DejaVuSans-68"/>
       <use x="190.625" xlink:href="#DejaVuSans-3a"/>
       <use x="224.316406" xlink:href="#DejaVuSans-33"/>
       <use x="287.939453" xlink:href="#DejaVuSans-35"/>
       <use x="351.5625" xlink:href="#DejaVuSans-6d"/>
      </g>
     </g>
    </g>
    <g id="xtick_10">
     <g id="line2d_10">
      <g>
       <use style="stroke:#000000;stroke-width:0.8;" x="578.126846" xlink:href="#m3a57430676" y="288.430125"/>
      </g>
     </g>
     <g id="text_10">
      <!-- 17h:30m -->
      <g transform="translate(555.678409 303.028562)scale(0.1 -0.1)">
       <use xlink:href="#DejaVuSans-31"/>
       <use x="63.623047" xlink:href="#DejaVuSans-37"/>
       <use x="127.246094" xlink:href="#DejaVuSans-68"/>
       <use x="190.625" xlink:href="#DejaVuSans-3a"/>
       <use x="224.316406" xlink:href="#DejaVuSans-33"/>
       <use x="287.939453" xlink:href="#DejaVuSans-30"/>
       <use x="351.5625" xlink:href="#DejaVuSans-6d"/>
      </g>
     </g>
    </g>
    <g id="xtick_11">
     <g id="line2d_11">
      <g>
       <use style="stroke:#000000;stroke-width:0.8;" x="632.830543" xlink:href="#m3a57430676" y="288.430125"/>
      </g>
     </g>
     <g id="text_11">
      <!-- 19h:25m -->
      <g transform="translate(610.382105 303.028562)scale(0.1 -0.1)">
       <use xlink:href="#DejaVuSans-31"/>
       <use x="63.623047" xlink:href="#DejaVuSans-39"/>
       <use x="127.246094" xlink:href="#DejaVuSans-68"/>
       <use x="190.625" xlink:href="#DejaVuSans-3a"/>
       <use x="224.316406" xlink:href="#DejaVuSans-32"/>
       <use x="287.939453" xlink:href="#DejaVuSans-35"/>
       <use x="351.5625" xlink:href="#DejaVuSans-6d"/>
      </g>
     </g>
    </g>
    <g id="xtick_12">
     <g id="line2d_12">
      <g>
       <use style="stroke:#000000;stroke-width:0.8;" x="687.534239" xlink:href="#m3a57430676" y="288.430125"/>
      </g>
     </g>
     <g id="text_12">
      <!-- 21h:20m -->
      <g transform="translate(665.085801 303.028562)scale(0.1 -0.1)">
       <use xlink:href="#DejaVuSans-32"/>
       <use x="63.623047" xlink:href="#DejaVuSans-31"/>
       <use x="127.246094" xlink:href="#DejaVuSans-68"/>
       <use x="190.625" xlink:href="#DejaVuSans-3a"/>
       <use x="224.316406" xlink:href="#DejaVuSans-32"/>
       <use x="287.939453" xlink:href="#DejaVuSans-30"/>
       <use x="351.5625" xlink:href="#DejaVuSans-6d"/>
      </g>
     </g>
    </g>
    <g id="text_13">
     <!-- Time (hour:minute) -->
     <g transform="translate(362.041094 316.706687)scale(0.1 -0.1)">
      <defs>
       <path d="M -19 4666 
L 3928 4666 
L 3928 4134 
L 2272 4134 
L 2272 0 
L 1638 0 
L 1638 4134 
L -19 4134 
L -19 4666 
z
" id="DejaVuSans-54" transform="scale(0.015625)"/>
       <path d="M 603 3500 
L 1178 3500 
L 1178 0 
L 603 0 
L 603 3500 
z
M 603 4863 
L 1178 4863 
L 1178 4134 
L 603 4134 
L 603 4863 
z
" id="DejaVuSans-69" transform="scale(0.015625)"/>
       <path d="M 3597 1894 
L 3597 1613 
L 953 1613 
Q 991 1019 1311 708 
Q 1631 397 2203 397 
Q 2534 397 2845 478 
Q 3156 559 3463 722 
L 3463 178 
Q 3153 47 2828 -22 
Q 2503 -91 2169 -91 
Q 1331 -91 842 396 
Q 353 884 353 1716 
Q 353 2575 817 3079 
Q 1281 3584 2069 3584 
Q 2775 3584 3186 3129 
Q 3597 2675 3597 1894 
z
M 3022 2063 
Q 3016 2534 2758 2815 
Q 2500 3097 2075 3097 
Q 1594 3097 1305 2825 
Q 1016 2553 972 2059 
L 3022 2063 
z
" id="DejaVuSans-65" transform="scale(0.015625)"/>
       <path id="DejaVuSans-20" transform="scale(0.015625)"/>
       <path d="M 1984 4856 
Q 1566 4138 1362 3434 
Q 1159 2731 1159 2009 
Q 1159 1288 1364 580 
Q 1569 -128 1984 -844 
L 1484 -844 
Q 1016 -109 783 600 
Q 550 1309 550 2009 
Q 550 2706 781 3412 
Q 1013 4119 1484 4856 
L 1984 4856 
z
" id="DejaVuSans-28" transform="scale(0.015625)"/>
       <path d="M 1959 3097 
Q 1497 3097 1228 2736 
Q 959 2375 959 1747 
Q 959 1119 1226 758 
Q 1494 397 1959 397 
Q 2419 397 2687 759 
Q 2956 1122 2956 1747 
Q 2956 2369 2687 2733 
Q 2419 3097 1959 3097 
z
M 1959 3584 
Q 2709 3584 3137 3096 
Q 3566 2609 3566 1747 
Q 3566 888 3137 398 
Q 2709 -91 1959 -91 
Q 1206 -91 779 398 
Q 353 888 353 1747 
Q 353 2609 779 3096 
Q 1206 3584 1959 3584 
z
" id="DejaVuSans-6f" transform="scale(0.015625)"/>
       <path d="M 544 1381 
L 544 3500 
L 1119 3500 
L 1119 1403 
Q 1119 906 1312 657 
Q 1506 409 1894 409 
Q 2359 409 2629 706 
Q 2900 1003 2900 1516 
L 2900 3500 
L 3475 3500 
L 3475 0 
L 2900 0 
L 2900 538 
Q 2691 219 2414 64 
Q 2138 -91 1772 -91 
Q 1169 -91 856 284 
Q 544 659 544 1381 
z
M 1991 3584 
L 1991 3584 
z
" id="DejaVuSans-75" transform="scale(0.015625)"/>
       <path d="M 2631 2963 
Q 2534 3019 2420 3045 
Q 2306 3072 2169 3072 
Q 1681 3072 1420 2755 
Q 1159 2438 1159 1844 
L 1159 0 
L 581 0 
L 581 3500 
L 1159 3500 
L 1159 2956 
Q 1341 3275 1631 3429 
Q 1922 3584 2338 3584 
Q 2397 3584 2469 3576 
Q 2541 3569 2628 3553 
L 2631 2963 
z
" id="DejaVuSans-72" transform="scale(0.015625)"/>
       <path d="M 3513 2113 
L 3513 0 
L 2938 0 
L 2938 2094 
Q 2938 2591 2744 2837 
Q 2550 3084 2163 3084 
Q 1697 3084 1428 2787 
Q 1159 2491 1159 1978 
L 1159 0 
L 581 0 
L 581 3500 
L 1159 3500 
L 1159 2956 
Q 1366 3272 1645 3428 
Q 1925 3584 2291 3584 
Q 2894 3584 3203 3211 
Q 3513 2838 3513 2113 
z
" id="DejaVuSans-6e" transform="scale(0.015625)"/>
       <path d="M 1172 4494 
L 1172 3500 
L 2356 3500 
L 2356 3053 
L 1172 3053 
L 1172 1153 
Q 1172 725 1289 603 
Q 1406 481 1766 481 
L 2356 481 
L 2356 0 
L 1766 0 
Q 1100 0 847 248 
Q 594 497 594 1153 
L 594 3053 
L 172 3053 
L 172 3500 
L 594 3500 
L 594 4494 
L 1172 4494 
z
" id="DejaVuSans-74" transform="scale(0.015625)"/>
       <path d="M 513 4856 
L 1013 4856 
Q 1481 4119 1714 3412 
Q 1947 2706 1947 2009 
Q 1947 1309 1714 600 
Q 1481 -109 1013 -844 
L 513 -844 
Q 928 -128 1133 580 
Q 1338 1288 1338 2009 
Q 1338 2731 1133 3434 
Q 928 4138 513 4856 
z
" id="DejaVuSans-29" transform="scale(0.015625)"/>
      </defs>
      <use xlink:href="#DejaVuSans-54"/>
      <use x="57.958984" xlink:href="#DejaVuSans-69"/>
      <use x="85.742188" xlink:href="#DejaVuSans-6d"/>
      <use x="183.154297" xlink:href="#DejaVuSans-65"/>
      <use x="244.677734" xlink:href="#DejaVuSans-20"/>
      <use x="276.464844" xlink:href="#DejaVuSans-28"/>
      <use x="315.478516" xlink:href="#DejaVuSans-68"/>
      <use x="378.857422" xlink:href="#DejaVuSans-6f"/>
      <use x="440.039062" xlink:href="#DejaVuSans-75"/>
      <use x="503.417969" xlink:href="#DejaVuSans-72"/>
      <use x="542.78125" xlink:href="#DejaVuSans-3a"/>
      <use x="576.472656" xlink:href="#DejaVuSans-6d"/>
      <use x="673.884766" xlink:href="#DejaVuSans-69"/>
      <use x="701.667969" xlink:href="#DejaVuSans-6e"/>
      <use x="765.046875" xlink:href="#DejaVuSans-75"/>
      <use x="828.425781" xlink:href="#DejaVuSans-74"/>
      <use x="867.634766" xlink:href="#DejaVuSans-65"/>
      <use x="929.158203" xlink:href="#DejaVuSans-29"/>
     </g>
    </g>
   </g>
   <g id="matplotlib.axis_2">
    <g id="ytick_1">
     <g id="line2d_13">
      <defs>
       <path d="M 0 0 
L -3.5 0 
" id="m8131d5b0f5" style="stroke:#000000;stroke-width:0.8;"/>
      </defs>
      <g>
       <use style="stroke:#000000;stroke-width:0.8;" x="53.328125" xlink:href="#m8131d5b0f5" y="242.29513"/>
      </g>
     </g>
     <g id="text_14">
      <!-- 1180 -->
      <g transform="translate(20.878125 246.094349)scale(0.1 -0.1)">
       <defs>
        <path d="M 2034 2216 
Q 1584 2216 1326 1975 
Q 1069 1734 1069 1313 
Q 1069 891 1326 650 
Q 1584 409 2034 409 
Q 2484 409 2743 651 
Q 3003 894 3003 1313 
Q 3003 1734 2745 1975 
Q 2488 2216 2034 2216 
z
M 1403 2484 
Q 997 2584 770 2862 
Q 544 3141 544 3541 
Q 544 4100 942 4425 
Q 1341 4750 2034 4750 
Q 2731 4750 3128 4425 
Q 3525 4100 3525 3541 
Q 3525 3141 3298 2862 
Q 3072 2584 2669 2484 
Q 3125 2378 3379 2068 
Q 3634 1759 3634 1313 
Q 3634 634 3220 271 
Q 2806 -91 2034 -91 
Q 1263 -91 848 271 
Q 434 634 434 1313 
Q 434 1759 690 2068 
Q 947 2378 1403 2484 
z
M 1172 3481 
Q 1172 3119 1398 2916 
Q 1625 2713 2034 2713 
Q 2441 2713 2670 2916 
Q 2900 3119 2900 3481 
Q 2900 3844 2670 4047 
Q 2441 4250 2034 4250 
Q 1625 4250 1398 4047 
Q 1172 3844 1172 3481 
z
" id="DejaVuSans-38" transform="scale(0.015625)"/>
       </defs>
       <use xlink:href="#DejaVuSans-31"/>
       <use x="63.623047" xlink:href="#DejaVuSans-31"/>
       <use x="127.246094" xlink:href="#DejaVuSans-38"/>
       <use x="190.869141" xlink:href="#DejaVuSans-30"/>
      </g>
     </g>
    </g>
    <g id="ytick_2">
     <g id="line2d_14">
      <g>
       <use style="stroke:#000000;stroke-width:0.8;" x="53.328125" xlink:href="#m8131d5b0f5" y="193.667994"/>
      </g>
     </g>
     <g id="text_15">
      <!-- 1200 -->
      <g transform="translate(20.878125 197.467213)scale(0.1 -0.1)">
       <use xlink:href="#DejaVuSans-31"/>
       <use x="63.623047" xlink:href="#DejaVuSans-32"/>
       <use x="127.246094" xlink:href="#DejaVuSans-30"/>
       <use x="190.869141" xlink:href="#DejaVuSans-30"/>
      </g>
     </g>
    </g>
    <g id="ytick_3">
     <g id="line2d_15">
      <g>
       <use style="stroke:#000000;stroke-width:0.8;" x="53.328125" xlink:href="#m8131d5b0f5" y="145.040859"/>
      </g>
     </g>
     <g id="text_16">
      <!-- 1220 -->
      <g transform="translate(20.878125 148.840077)scale(0.1 -0.1)">
       <use xlink:href="#DejaVuSans-31"/>
       <use x="63.623047" xlink:href="#DejaVuSans-32"/>
       <use x="127.246094" xlink:href="#DejaVuSans-32"/>
       <use x="190.869141" xlink:href="#DejaVuSans-30"/>
      </g>
     </g>
    </g>
    <g id="ytick_4">
     <g id="line2d_16">
      <g>
       <use style="stroke:#000000;stroke-width:0.8;" x="53.328125" xlink:href="#m8131d5b0f5" y="96.413723"/>
      </g>
     </g>
     <g id="text_17">
      <!-- 1240 -->
      <g transform="translate(20.878125 100.212942)scale(0.1 -0.1)">
       <use xlink:href="#DejaVuSans-31"/>
       <use x="63.623047" xlink:href="#DejaVuSans-32"/>
       <use x="127.246094" xlink:href="#DejaVuSans-34"/>
       <use x="190.869141" xlink:href="#DejaVuSans-30"/>
      </g>
     </g>
    </g>
    <g id="ytick_5">
     <g id="line2d_17">
      <g>
       <use style="stroke:#000000;stroke-width:0.8;" x="53.328125" xlink:href="#m8131d5b0f5" y="47.786587"/>
      </g>
     </g>
     <g id="text_18">
      <!-- 1260 -->
      <g transform="translate(20.878125 51.585806)scale(0.1 -0.1)">
       <use xlink:href="#DejaVuSans-31"/>
       <use x="63.623047" xlink:href="#DejaVuSans-32"/>
       <use x="127.246094" xlink:href="#DejaVuSans-36"/>
       <use x="190.869141" xlink:href="#DejaVuSans-30"/>
      </g>
     </g>
    </g>
    <g id="text_19">
     <!-- Code branch coverage -->
     <g transform="translate(14.798438 211.949125)rotate(-90)scale(0.1 -0.1)">
      <defs>
       <path d="M 4122 4306 
L 4122 3641 
Q 3803 3938 3442 4084 
Q 3081 4231 2675 4231 
Q 1875 4231 1450 3742 
Q 1025 3253 1025 2328 
Q 1025 1406 1450 917 
Q 1875 428 2675 428 
Q 3081 428 3442 575 
Q 3803 722 4122 1019 
L 4122 359 
Q 3791 134 3420 21 
Q 3050 -91 2638 -91 
Q 1578 -91 968 557 
Q 359 1206 359 2328 
Q 359 3453 968 4101 
Q 1578 4750 2638 4750 
Q 3056 4750 3426 4639 
Q 3797 4528 4122 4306 
z
" id="DejaVuSans-43" transform="scale(0.015625)"/>
       <path d="M 2906 2969 
L 2906 4863 
L 3481 4863 
L 3481 0 
L 2906 0 
L 2906 525 
Q 2725 213 2448 61 
Q 2172 -91 1784 -91 
Q 1150 -91 751 415 
Q 353 922 353 1747 
Q 353 2572 751 3078 
Q 1150 3584 1784 3584 
Q 2172 3584 2448 3432 
Q 2725 3281 2906 2969 
z
M 947 1747 
Q 947 1113 1208 752 
Q 1469 391 1925 391 
Q 2381 391 2643 752 
Q 2906 1113 2906 1747 
Q 2906 2381 2643 2742 
Q 2381 3103 1925 3103 
Q 1469 3103 1208 2742 
Q 947 2381 947 1747 
z
" id="DejaVuSans-64" transform="scale(0.015625)"/>
       <path d="M 3116 1747 
Q 3116 2381 2855 2742 
Q 2594 3103 2138 3103 
Q 1681 3103 1420 2742 
Q 1159 2381 1159 1747 
Q 1159 1113 1420 752 
Q 1681 391 2138 391 
Q 2594 391 2855 752 
Q 3116 1113 3116 1747 
z
M 1159 2969 
Q 1341 3281 1617 3432 
Q 1894 3584 2278 3584 
Q 2916 3584 3314 3078 
Q 3713 2572 3713 1747 
Q 3713 922 3314 415 
Q 2916 -91 2278 -91 
Q 1894 -91 1617 61 
Q 1341 213 1159 525 
L 1159 0 
L 581 0 
L 581 4863 
L 1159 4863 
L 1159 2969 
z
" id="DejaVuSans-62" transform="scale(0.015625)"/>
       <path d="M 2194 1759 
Q 1497 1759 1228 1600 
Q 959 1441 959 1056 
Q 959 750 1161 570 
Q 1363 391 1709 391 
Q 2188 391 2477 730 
Q 2766 1069 2766 1631 
L 2766 1759 
L 2194 1759 
z
M 3341 1997 
L 3341 0 
L 2766 0 
L 2766 531 
Q 2569 213 2275 61 
Q 1981 -91 1556 -91 
Q 1019 -91 701 211 
Q 384 513 384 1019 
Q 384 1609 779 1909 
Q 1175 2209 1959 2209 
L 2766 2209 
L 2766 2266 
Q 2766 2663 2505 2880 
Q 2244 3097 1772 3097 
Q 1472 3097 1187 3025 
Q 903 2953 641 2809 
L 641 3341 
Q 956 3463 1253 3523 
Q 1550 3584 1831 3584 
Q 2591 3584 2966 3190 
Q 3341 2797 3341 1997 
z
" id="DejaVuSans-61" transform="scale(0.015625)"/>
       <path d="M 3122 3366 
L 3122 2828 
Q 2878 2963 2633 3030 
Q 2388 3097 2138 3097 
Q 1578 3097 1268 2742 
Q 959 2388 959 1747 
Q 959 1106 1268 751 
Q 1578 397 2138 397 
Q 2388 397 2633 464 
Q 2878 531 3122 666 
L 3122 134 
Q 2881 22 2623 -34 
Q 2366 -91 2075 -91 
Q 1284 -91 818 406 
Q 353 903 353 1747 
Q 353 2603 823 3093 
Q 1294 3584 2113 3584 
Q 2378 3584 2631 3529 
Q 2884 3475 3122 3366 
z
" id="DejaVuSans-63" transform="scale(0.015625)"/>
       <path d="M 191 3500 
L 800 3500 
L 1894 563 
L 2988 3500 
L 3597 3500 
L 2284 0 
L 1503 0 
L 191 3500 
z
" id="DejaVuSans-76" transform="scale(0.015625)"/>
       <path d="M 2906 1791 
Q 2906 2416 2648 2759 
Q 2391 3103 1925 3103 
Q 1463 3103 1205 2759 
Q 947 2416 947 1791 
Q 947 1169 1205 825 
Q 1463 481 1925 481 
Q 2391 481 2648 825 
Q 2906 1169 2906 1791 
z
M 3481 434 
Q 3481 -459 3084 -895 
Q 2688 -1331 1869 -1331 
Q 1566 -1331 1297 -1286 
Q 1028 -1241 775 -1147 
L 775 -588 
Q 1028 -725 1275 -790 
Q 1522 -856 1778 -856 
Q 2344 -856 2625 -561 
Q 2906 -266 2906 331 
L 2906 616 
Q 2728 306 2450 153 
Q 2172 0 1784 0 
Q 1141 0 747 490 
Q 353 981 353 1791 
Q 353 2603 747 3093 
Q 1141 3584 1784 3584 
Q 2172 3584 2450 3431 
Q 2728 3278 2906 2969 
L 2906 3500 
L 3481 3500 
L 3481 434 
z
" id="DejaVuSans-67" transform="scale(0.015625)"/>
      </defs>
      <use xlink:href="#DejaVuSans-43"/>
      <use x="69.824219" xlink:href="#DejaVuSans-6f"/>
      <use x="131.005859" xlink:href="#DejaVuSans-64"/>
      <use x="194.482422" xlink:href="#DejaVuSans-65"/>
      <use x="256.005859" xlink:href="#DejaVuSans-20"/>
      <use x="287.792969" xlink:href="#DejaVuSans-62"/>
      <use x="351.269531" xlink:href="#DejaVuSans-72"/>
      <use x="392.382812" xlink:href="#DejaVuSans-61"/>
      <use x="453.662109" xlink:href="#DejaVuSans-6e"/>
      <use x="517.041016" xlink:href="#DejaVuSans-63"/>
      <use x="572.021484" xlink:href="#DejaVuSans-68"/>
      <use x="635.400391" xlink:href="#DejaVuSans-20"/>
      <use x="667.1875" xlink:href="#DejaVuSans-63"/>
      <use x="722.167969" xlink:href="#DejaVuSans-6f"/>
      <use x="783.349609" xlink:href="#DejaVuSans-76"/>
      <use x="842.529297" xlink:href="#DejaVuSans-65"/>
      <use x="904.052734" xlink:href="#DejaVuSans-72"/>
      <use x="945.166016" xlink:href="#DejaVuSans-61"/>
      <use x="1006.445312" xlink:href="#DejaVuSans-67"/>
      <use x="1069.921875" xlink:href="#DejaVuSans-65"/>
     </g>
    </g>
   </g>
   <g id="line2d_18">
    <path clip-path="url(#p5ef378b317)" d="M 85.79358 228.922668 
L 92.928844 108.570507 
L 100.064109 91.551009 
L 107.199374 81.825582 
L 114.334638 79.394226 
L 121.469903 74.531512 
L 128.605168 74.531512 
L 135.740433 74.531512 
L 142.875697 72.100155 
L 150.010962 69.668798 
L 157.146227 68.45312 
L 164.281492 67.237442 
L 171.416756 66.021763 
L 178.552021 66.021763 
L 185.687286 64.806085 
L 192.822551 64.806085 
L 199.957815 63.590406 
L 207.09308 63.590406 
L 214.228345 63.590406 
L 221.36361 62.374728 
L 228.498874 62.374728 
L 235.634139 62.374728 
L 242.769404 62.374728 
L 249.904668 61.15905 
L 257.039933 59.943371 
L 264.175198 59.943371 
L 271.310463 58.727693 
L 278.445727 58.727693 
L 285.580992 58.727693 
L 292.716257 58.727693 
L 299.851522 58.727693 
L 306.986786 58.727693 
L 314.122051 58.727693 
L 321.257316 58.727693 
L 328.392581 58.727693 
L 335.527845 58.727693 
L 342.66311 58.727693 
L 349.798375 58.727693 
L 356.933639 58.727693 
L 364.068904 58.727693 
L 371.204169 58.727693 
L 378.339434 58.727693 
L 385.474698 58.727693 
L 392.609963 58.727693 
L 399.745228 58.727693 
L 406.880493 58.727693 
L 414.015757 58.727693 
L 421.151022 58.727693 
L 428.286287 58.727693 
L 435.421552 58.727693 
L 442.556816 57.512014 
L 449.692081 57.512014 
L 456.827346 57.512014 
L 463.962611 57.512014 
L 471.097875 57.512014 
L 478.23314 57.512014 
L 485.368405 56.296336 
L 492.503669 56.296336 
L 499.638934 56.296336 
L 506.774199 55.080658 
L 513.909464 55.080658 
L 521.044728 55.080658 
L 528.179993 55.080658 
L 535.315258 55.080658 
L 542.450523 55.080658 
L 549.585787 53.864979 
L 556.721052 53.864979 
L 563.856317 53.864979 
L 570.991582 53.864979 
L 578.126846 53.864979 
L 585.262111 53.864979 
L 592.397376 53.864979 
L 599.53264 53.864979 
L 606.667905 53.864979 
L 613.80317 53.864979 
L 620.938435 53.864979 
L 628.073699 53.864979 
L 635.208964 53.864979 
L 642.344229 53.864979 
L 649.479494 53.864979 
L 656.614758 53.864979 
L 663.750023 51.433622 
L 670.885288 51.433622 
L 678.020553 51.433622 
L 685.155817 51.433622 
L 692.291082 51.433622 
L 699.426347 51.433622 
L 706.561612 51.433622 
L 713.696876 51.433622 
L 720.832141 51.433622 
L 727.967406 51.433622 
L 735.10267 51.433622 
" style="fill:none;stroke:#98df8a;stroke-linecap:square;stroke-width:1.5;"/>
    <defs>
     <path d="M -0 3 
L 3 -3 
L -3 -3 
z
" id="mfe3fc112b8" style="stroke:#ffffff;stroke-linejoin:miter;stroke-width:0.75;"/>
    </defs>
    <g clip-path="url(#p5ef378b317)">
     <use style="fill:#98df8a;stroke:#ffffff;stroke-linejoin:miter;stroke-width:0.75;" x="85.79358" xlink:href="#mfe3fc112b8" y="228.922668"/>
     <use style="fill:#98df8a;stroke:#ffffff;stroke-linejoin:miter;stroke-width:0.75;" x="92.928844" xlink:href="#mfe3fc112b8" y="108.570507"/>
     <use style="fill:#98df8a;stroke:#ffffff;stroke-linejoin:miter;stroke-width:0.75;" x="100.064109" xlink:href="#mfe3fc112b8" y="91.551009"/>
     <use style="fill:#98df8a;stroke:#ffffff;stroke-linejoin:miter;stroke-width:0.75;" x="107.199374" xlink:href="#mfe3fc112b8" y="81.825582"/>
     <use style="fill:#98df8a;stroke:#ffffff;stroke-linejoin:miter;stroke-width:0.75;" x="114.334638" xlink:href="#mfe3fc112b8" y="79.394226"/>
     <use style="fill:#98df8a;stroke:#ffffff;stroke-linejoin:miter;stroke-width:0.75;" x="121.469903" xlink:href="#mfe3fc112b8" y="74.531512"/>
     <use style="fill:#98df8a;stroke:#ffffff;stroke-linejoin:miter;stroke-width:0.75;" x="128.605168" xlink:href="#mfe3fc112b8" y="74.531512"/>
     <use style="fill:#98df8a;stroke:#ffffff;stroke-linejoin:miter;stroke-width:0.75;" x="135.740433" xlink:href="#mfe3fc112b8" y="74.531512"/>
     <use style="fill:#98df8a;stroke:#ffffff;stroke-linejoin:miter;stroke-width:0.75;" x="142.875697" xlink:href="#mfe3fc112b8" y="72.100155"/>
     <use style="fill:#98df8a;stroke:#ffffff;stroke-linejoin:miter;stroke-width:0.75;" x="150.010962" xlink:href="#mfe3fc112b8" y="69.668798"/>
     <use style="fill:#98df8a;stroke:#ffffff;stroke-linejoin:miter;stroke-width:0.75;" x="157.146227" xlink:href="#mfe3fc112b8" y="68.45312"/>
     <use style="fill:#98df8a;stroke:#ffffff;stroke-linejoin:miter;stroke-width:0.75;" x="164.281492" xlink:href="#mfe3fc112b8" y="67.237442"/>
     <use style="fill:#98df8a;stroke:#ffffff;stroke-linejoin:miter;stroke-width:0.75;" x="171.416756" xlink:href="#mfe3fc112b8" y="66.021763"/>
     <use style="fill:#98df8a;stroke:#ffffff;stroke-linejoin:miter;stroke-width:0.75;" x="178.552021" xlink:href="#mfe3fc112b8" y="66.021763"/>
     <use style="fill:#98df8a;stroke:#ffffff;stroke-linejoin:miter;stroke-width:0.75;" x="185.687286" xlink:href="#mfe3fc112b8" y="64.806085"/>
     <use style="fill:#98df8a;stroke:#ffffff;stroke-linejoin:miter;stroke-width:0.75;" x="192.822551" xlink:href="#mfe3fc112b8" y="64.806085"/>
     <use style="fill:#98df8a;stroke:#ffffff;stroke-linejoin:miter;stroke-width:0.75;" x="199.957815" xlink:href="#mfe3fc112b8" y="63.590406"/>
     <use style="fill:#98df8a;stroke:#ffffff;stroke-linejoin:miter;stroke-width:0.75;" x="207.09308" xlink:href="#mfe3fc112b8" y="63.590406"/>
     <use style="fill:#98df8a;stroke:#ffffff;stroke-linejoin:miter;stroke-width:0.75;" x="214.228345" xlink:href="#mfe3fc112b8" y="63.590406"/>
     <use style="fill:#98df8a;stroke:#ffffff;stroke-linejoin:miter;stroke-width:0.75;" x="221.36361" xlink:href="#mfe3fc112b8" y="62.374728"/>
     <use style="fill:#98df8a;stroke:#ffffff;stroke-linejoin:miter;stroke-width:0.75;" x="228.498874" xlink:href="#mfe3fc112b8" y="62.374728"/>
     <use style="fill:#98df8a;stroke:#ffffff;stroke-linejoin:miter;stroke-width:0.75;" x="235.634139" xlink:href="#mfe3fc112b8" y="62.374728"/>
     <use style="fill:#98df8a;stroke:#ffffff;stroke-linejoin:miter;stroke-width:0.75;" x="242.769404" xlink:href="#mfe3fc112b8" y="62.374728"/>
     <use style="fill:#98df8a;stroke:#ffffff;stroke-linejoin:miter;stroke-width:0.75;" x="249.904668" xlink:href="#mfe3fc112b8" y="61.15905"/>
     <use style="fill:#98df8a;stroke:#ffffff;stroke-linejoin:miter;stroke-width:0.75;" x="257.039933" xlink:href="#mfe3fc112b8" y="59.943371"/>
     <use style="fill:#98df8a;stroke:#ffffff;stroke-linejoin:miter;stroke-width:0.75;" x="264.175198" xlink:href="#mfe3fc112b8" y="59.943371"/>
     <use style="fill:#98df8a;stroke:#ffffff;stroke-linejoin:miter;stroke-width:0.75;" x="271.310463" xlink:href="#mfe3fc112b8" y="58.727693"/>
     <use style="fill:#98df8a;stroke:#ffffff;stroke-linejoin:miter;stroke-width:0.75;" x="278.445727" xlink:href="#mfe3fc112b8" y="58.727693"/>
     <use style="fill:#98df8a;stroke:#ffffff;stroke-linejoin:miter;stroke-width:0.75;" x="285.580992" xlink:href="#mfe3fc112b8" y="58.727693"/>
     <use style="fill:#98df8a;stroke:#ffffff;stroke-linejoin:miter;stroke-width:0.75;" x="292.716257" xlink:href="#mfe3fc112b8" y="58.727693"/>
     <use style="fill:#98df8a;stroke:#ffffff;stroke-linejoin:miter;stroke-width:0.75;" x="299.851522" xlink:href="#mfe3fc112b8" y="58.727693"/>
     <use style="fill:#98df8a;stroke:#ffffff;stroke-linejoin:miter;stroke-width:0.75;" x="306.986786" xlink:href="#mfe3fc112b8" y="58.727693"/>
     <use style="fill:#98df8a;stroke:#ffffff;stroke-linejoin:miter;stroke-width:0.75;" x="314.122051" xlink:href="#mfe3fc112b8" y="58.727693"/>
     <use style="fill:#98df8a;stroke:#ffffff;stroke-linejoin:miter;stroke-width:0.75;" x="321.257316" xlink:href="#mfe3fc112b8" y="58.727693"/>
     <use style="fill:#98df8a;stroke:#ffffff;stroke-linejoin:miter;stroke-width:0.75;" x="328.392581" xlink:href="#mfe3fc112b8" y="58.727693"/>
     <use style="fill:#98df8a;stroke:#ffffff;stroke-linejoin:miter;stroke-width:0.75;" x="335.527845" xlink:href="#mfe3fc112b8" y="58.727693"/>
     <use style="fill:#98df8a;stroke:#ffffff;stroke-linejoin:miter;stroke-width:0.75;" x="342.66311" xlink:href="#mfe3fc112b8" y="58.727693"/>
     <use style="fill:#98df8a;stroke:#ffffff;stroke-linejoin:miter;stroke-width:0.75;" x="349.798375" xlink:href="#mfe3fc112b8" y="58.727693"/>
     <use style="fill:#98df8a;stroke:#ffffff;stroke-linejoin:miter;stroke-width:0.75;" x="356.933639" xlink:href="#mfe3fc112b8" y="58.727693"/>
     <use style="fill:#98df8a;stroke:#ffffff;stroke-linejoin:miter;stroke-width:0.75;" x="364.068904" xlink:href="#mfe3fc112b8" y="58.727693"/>
     <use style="fill:#98df8a;stroke:#ffffff;stroke-linejoin:miter;stroke-width:0.75;" x="371.204169" xlink:href="#mfe3fc112b8" y="58.727693"/>
     <use style="fill:#98df8a;stroke:#ffffff;stroke-linejoin:miter;stroke-width:0.75;" x="378.339434" xlink:href="#mfe3fc112b8" y="58.727693"/>
     <use style="fill:#98df8a;stroke:#ffffff;stroke-linejoin:miter;stroke-width:0.75;" x="385.474698" xlink:href="#mfe3fc112b8" y="58.727693"/>
     <use style="fill:#98df8a;stroke:#ffffff;stroke-linejoin:miter;stroke-width:0.75;" x="392.609963" xlink:href="#mfe3fc112b8" y="58.727693"/>
     <use style="fill:#98df8a;stroke:#ffffff;stroke-linejoin:miter;stroke-width:0.75;" x="399.745228" xlink:href="#mfe3fc112b8" y="58.727693"/>
     <use style="fill:#98df8a;stroke:#ffffff;stroke-linejoin:miter;stroke-width:0.75;" x="406.880493" xlink:href="#mfe3fc112b8" y="58.727693"/>
     <use style="fill:#98df8a;stroke:#ffffff;stroke-linejoin:miter;stroke-width:0.75;" x="414.015757" xlink:href="#mfe3fc112b8" y="58.727693"/>
     <use style="fill:#98df8a;stroke:#ffffff;stroke-linejoin:miter;stroke-width:0.75;" x="421.151022" xlink:href="#mfe3fc112b8" y="58.727693"/>
     <use style="fill:#98df8a;stroke:#ffffff;stroke-linejoin:miter;stroke-width:0.75;" x="428.286287" xlink:href="#mfe3fc112b8" y="58.727693"/>
     <use style="fill:#98df8a;stroke:#ffffff;stroke-linejoin:miter;stroke-width:0.75;" x="435.421552" xlink:href="#mfe3fc112b8" y="58.727693"/>
     <use style="fill:#98df8a;stroke:#ffffff;stroke-linejoin:miter;stroke-width:0.75;" x="442.556816" xlink:href="#mfe3fc112b8" y="57.512014"/>
     <use style="fill:#98df8a;stroke:#ffffff;stroke-linejoin:miter;stroke-width:0.75;" x="449.692081" xlink:href="#mfe3fc112b8" y="57.512014"/>
     <use style="fill:#98df8a;stroke:#ffffff;stroke-linejoin:miter;stroke-width:0.75;" x="456.827346" xlink:href="#mfe3fc112b8" y="57.512014"/>
     <use style="fill:#98df8a;stroke:#ffffff;stroke-linejoin:miter;stroke-width:0.75;" x="463.962611" xlink:href="#mfe3fc112b8" y="57.512014"/>
     <use style="fill:#98df8a;stroke:#ffffff;stroke-linejoin:miter;stroke-width:0.75;" x="471.097875" xlink:href="#mfe3fc112b8" y="57.512014"/>
     <use style="fill:#98df8a;stroke:#ffffff;stroke-linejoin:miter;stroke-width:0.75;" x="478.23314" xlink:href="#mfe3fc112b8" y="57.512014"/>
     <use style="fill:#98df8a;stroke:#ffffff;stroke-linejoin:miter;stroke-width:0.75;" x="485.368405" xlink:href="#mfe3fc112b8" y="56.296336"/>
     <use style="fill:#98df8a;stroke:#ffffff;stroke-linejoin:miter;stroke-width:0.75;" x="492.503669" xlink:href="#mfe3fc112b8" y="56.296336"/>
     <use style="fill:#98df8a;stroke:#ffffff;stroke-linejoin:miter;stroke-width:0.75;" x="499.638934" xlink:href="#mfe3fc112b8" y="56.296336"/>
     <use style="fill:#98df8a;stroke:#ffffff;stroke-linejoin:miter;stroke-width:0.75;" x="506.774199" xlink:href="#mfe3fc112b8" y="55.080658"/>
     <use style="fill:#98df8a;stroke:#ffffff;stroke-linejoin:miter;stroke-width:0.75;" x="513.909464" xlink:href="#mfe3fc112b8" y="55.080658"/>
     <use style="fill:#98df8a;stroke:#ffffff;stroke-linejoin:miter;stroke-width:0.75;" x="521.044728" xlink:href="#mfe3fc112b8" y="55.080658"/>
     <use style="fill:#98df8a;stroke:#ffffff;stroke-linejoin:miter;stroke-width:0.75;" x="528.179993" xlink:href="#mfe3fc112b8" y="55.080658"/>
     <use style="fill:#98df8a;stroke:#ffffff;stroke-linejoin:miter;stroke-width:0.75;" x="535.315258" xlink:href="#mfe3fc112b8" y="55.080658"/>
     <use style="fill:#98df8a;stroke:#ffffff;stroke-linejoin:miter;stroke-width:0.75;" x="542.450523" xlink:href="#mfe3fc112b8" y="55.080658"/>
     <use style="fill:#98df8a;stroke:#ffffff;stroke-linejoin:miter;stroke-width:0.75;" x="549.585787" xlink:href="#mfe3fc112b8" y="53.864979"/>
     <use style="fill:#98df8a;stroke:#ffffff;stroke-linejoin:miter;stroke-width:0.75;" x="556.721052" xlink:href="#mfe3fc112b8" y="53.864979"/>
     <use style="fill:#98df8a;stroke:#ffffff;stroke-linejoin:miter;stroke-width:0.75;" x="563.856317" xlink:href="#mfe3fc112b8" y="53.864979"/>
     <use style="fill:#98df8a;stroke:#ffffff;stroke-linejoin:miter;stroke-width:0.75;" x="570.991582" xlink:href="#mfe3fc112b8" y="53.864979"/>
     <use style="fill:#98df8a;stroke:#ffffff;stroke-linejoin:miter;stroke-width:0.75;" x="578.126846" xlink:href="#mfe3fc112b8" y="53.864979"/>
     <use style="fill:#98df8a;stroke:#ffffff;stroke-linejoin:miter;stroke-width:0.75;" x="585.262111" xlink:href="#mfe3fc112b8" y="53.864979"/>
     <use style="fill:#98df8a;stroke:#ffffff;stroke-linejoin:miter;stroke-width:0.75;" x="592.397376" xlink:href="#mfe3fc112b8" y="53.864979"/>
     <use style="fill:#98df8a;stroke:#ffffff;stroke-linejoin:miter;stroke-width:0.75;" x="599.53264" xlink:href="#mfe3fc112b8" y="53.864979"/>
     <use style="fill:#98df8a;stroke:#ffffff;stroke-linejoin:miter;stroke-width:0.75;" x="606.667905" xlink:href="#mfe3fc112b8" y="53.864979"/>
     <use style="fill:#98df8a;stroke:#ffffff;stroke-linejoin:miter;stroke-width:0.75;" x="613.80317" xlink:href="#mfe3fc112b8" y="53.864979"/>
     <use style="fill:#98df8a;stroke:#ffffff;stroke-linejoin:miter;stroke-width:0.75;" x="620.938435" xlink:href="#mfe3fc112b8" y="53.864979"/>
     <use style="fill:#98df8a;stroke:#ffffff;stroke-linejoin:miter;stroke-width:0.75;" x="628.073699" xlink:href="#mfe3fc112b8" y="53.864979"/>
     <use style="fill:#98df8a;stroke:#ffffff;stroke-linejoin:miter;stroke-width:0.75;" x="635.208964" xlink:href="#mfe3fc112b8" y="53.864979"/>
     <use style="fill:#98df8a;stroke:#ffffff;stroke-linejoin:miter;stroke-width:0.75;" x="642.344229" xlink:href="#mfe3fc112b8" y="53.864979"/>
     <use style="fill:#98df8a;stroke:#ffffff;stroke-linejoin:miter;stroke-width:0.75;" x="649.479494" xlink:href="#mfe3fc112b8" y="53.864979"/>
     <use style="fill:#98df8a;stroke:#ffffff;stroke-linejoin:miter;stroke-width:0.75;" x="656.614758" xlink:href="#mfe3fc112b8" y="53.864979"/>
     <use style="fill:#98df8a;stroke:#ffffff;stroke-linejoin:miter;stroke-width:0.75;" x="663.750023" xlink:href="#mfe3fc112b8" y="51.433622"/>
     <use style="fill:#98df8a;stroke:#ffffff;stroke-linejoin:miter;stroke-width:0.75;" x="670.885288" xlink:href="#mfe3fc112b8" y="51.433622"/>
     <use style="fill:#98df8a;stroke:#ffffff;stroke-linejoin:miter;stroke-width:0.75;" x="678.020553" xlink:href="#mfe3fc112b8" y="51.433622"/>
     <use style="fill:#98df8a;stroke:#ffffff;stroke-linejoin:miter;stroke-width:0.75;" x="685.155817" xlink:href="#mfe3fc112b8" y="51.433622"/>
     <use style="fill:#98df8a;stroke:#ffffff;stroke-linejoin:miter;stroke-width:0.75;" x="692.291082" xlink:href="#mfe3fc112b8" y="51.433622"/>
     <use style="fill:#98df8a;stroke:#ffffff;stroke-linejoin:miter;stroke-width:0.75;" x="699.426347" xlink:href="#mfe3fc112b8" y="51.433622"/>
     <use style="fill:#98df8a;stroke:#ffffff;stroke-linejoin:miter;stroke-width:0.75;" x="706.561612" xlink:href="#mfe3fc112b8" y="51.433622"/>
     <use style="fill:#98df8a;stroke:#ffffff;stroke-linejoin:miter;stroke-width:0.75;" x="713.696876" xlink:href="#mfe3fc112b8" y="51.433622"/>
     <use style="fill:#98df8a;stroke:#ffffff;stroke-linejoin:miter;stroke-width:0.75;" x="720.832141" xlink:href="#mfe3fc112b8" y="51.433622"/>
     <use style="fill:#98df8a;stroke:#ffffff;stroke-linejoin:miter;stroke-width:0.75;" x="727.967406" xlink:href="#mfe3fc112b8" y="51.433622"/>
     <use style="fill:#98df8a;stroke:#ffffff;stroke-linejoin:miter;stroke-width:0.75;" x="735.10267" xlink:href="#mfe3fc112b8" y="51.433622"/>
    </g>
   </g>
   <g id="line2d_19">
    <path clip-path="url(#p5ef378b317)" d="M 85.79358 154.766286 
L 92.928844 91.551009 
L 100.064109 79.394226 
L 107.199374 75.74719 
L 114.334638 73.315834 
L 121.469903 70.884477 
L 128.605168 68.45312 
L 135.740433 67.237442 
L 142.875697 67.237442 
L 150.010962 66.021763 
L 157.146227 64.806085 
L 164.281492 64.806085 
L 171.416756 63.590406 
L 178.552021 62.374728 
L 185.687286 62.374728 
L 192.822551 62.374728 
L 199.957815 62.374728 
L 207.09308 62.374728 
L 214.228345 62.374728 
L 221.36361 62.374728 
L 228.498874 62.374728 
L 235.634139 62.374728 
L 242.769404 62.374728 
L 249.904668 62.374728 
L 257.039933 62.374728 
L 264.175198 62.374728 
L 271.310463 62.374728 
L 278.445727 62.374728 
L 285.580992 62.374728 
L 292.716257 61.15905 
L 299.851522 61.15905 
L 306.986786 61.15905 
L 314.122051 61.15905 
L 321.257316 61.15905 
L 328.392581 61.15905 
L 335.527845 61.15905 
L 342.66311 61.15905 
L 349.798375 61.15905 
L 356.933639 61.15905 
L 364.068904 61.15905 
L 371.204169 61.15905 
L 378.339434 61.15905 
L 385.474698 61.15905 
L 392.609963 61.15905 
L 399.745228 61.15905 
L 406.880493 59.943371 
L 414.015757 59.943371 
L 421.151022 59.943371 
L 428.286287 59.943371 
L 435.421552 59.943371 
L 442.556816 58.727693 
L 449.692081 58.727693 
L 456.827346 58.727693 
L 463.962611 57.512014 
L 471.097875 57.512014 
L 478.23314 57.512014 
L 485.368405 57.512014 
L 492.503669 57.512014 
L 499.638934 57.512014 
L 506.774199 57.512014 
L 513.909464 57.512014 
L 521.044728 57.512014 
L 528.179993 57.512014 
L 535.315258 57.512014 
L 542.450523 57.512014 
L 549.585787 57.512014 
L 556.721052 57.512014 
L 563.856317 57.512014 
L 570.991582 57.512014 
L 578.126846 57.512014 
L 585.262111 56.296336 
L 592.397376 56.296336 
L 599.53264 56.296336 
L 606.667905 56.296336 
L 613.80317 56.296336 
L 620.938435 56.296336 
L 628.073699 56.296336 
L 635.208964 55.080658 
L 642.344229 55.080658 
L 649.479494 55.080658 
L 656.614758 55.080658 
L 663.750023 55.080658 
L 670.885288 55.080658 
L 678.020553 55.080658 
L 685.155817 55.080658 
L 692.291082 55.080658 
L 699.426347 55.080658 
L 706.561612 55.080658 
L 713.696876 55.080658 
L 720.832141 55.080658 
L 727.967406 52.649301 
L 735.10267 52.649301 
" style="fill:none;stroke:#1f77b4;stroke-linecap:square;stroke-width:1.5;"/>
    <defs>
     <path d="M 0 3 
C 0.795609 3 1.55874 2.683901 2.12132 2.12132 
C 2.683901 1.55874 3 0.795609 3 0 
C 3 -0.795609 2.683901 -1.55874 2.12132 -2.12132 
C 1.55874 -2.683901 0.795609 -3 0 -3 
C -0.795609 -3 -1.55874 -2.683901 -2.12132 -2.12132 
C -2.683901 -1.55874 -3 -0.795609 -3 0 
C -3 0.795609 -2.683901 1.55874 -2.12132 2.12132 
C -1.55874 2.683901 -0.795609 3 0 3 
z
" id="m707845e930" style="stroke:#ffffff;stroke-width:0.75;"/>
    </defs>
    <g clip-path="url(#p5ef378b317)">
     <use style="fill:#1f77b4;stroke:#ffffff;stroke-width:0.75;" x="85.79358" xlink:href="#m707845e930" y="154.766286"/>
     <use style="fill:#1f77b4;stroke:#ffffff;stroke-width:0.75;" x="92.928844" xlink:href="#m707845e930" y="91.551009"/>
     <use style="fill:#1f77b4;stroke:#ffffff;stroke-width:0.75;" x="100.064109" xlink:href="#m707845e930" y="79.394226"/>
     <use style="fill:#1f77b4;stroke:#ffffff;stroke-width:0.75;" x="107.199374" xlink:href="#m707845e930" y="75.74719"/>
     <use style="fill:#1f77b4;stroke:#ffffff;stroke-width:0.75;" x="114.334638" xlink:href="#m707845e930" y="73.315834"/>
     <use style="fill:#1f77b4;stroke:#ffffff;stroke-width:0.75;" x="121.469903" xlink:href="#m707845e930" y="70.884477"/>
     <use style="fill:#1f77b4;stroke:#ffffff;stroke-width:0.75;" x="128.605168" xlink:href="#m707845e930" y="68.45312"/>
     <use style="fill:#1f77b4;stroke:#ffffff;stroke-width:0.75;" x="135.740433" xlink:href="#m707845e930" y="67.237442"/>
     <use style="fill:#1f77b4;stroke:#ffffff;stroke-width:0.75;" x="142.875697" xlink:href="#m707845e930" y="67.237442"/>
     <use style="fill:#1f77b4;stroke:#ffffff;stroke-width:0.75;" x="150.010962" xlink:href="#m707845e930" y="66.021763"/>
     <use style="fill:#1f77b4;stroke:#ffffff;stroke-width:0.75;" x="157.146227" xlink:href="#m707845e930" y="64.806085"/>
     <use style="fill:#1f77b4;stroke:#ffffff;stroke-width:0.75;" x="164.281492" xlink:href="#m707845e930" y="64.806085"/>
     <use style="fill:#1f77b4;stroke:#ffffff;stroke-width:0.75;" x="171.416756" xlink:href="#m707845e930" y="63.590406"/>
     <use style="fill:#1f77b4;stroke:#ffffff;stroke-width:0.75;" x="178.552021" xlink:href="#m707845e930" y="62.374728"/>
     <use style="fill:#1f77b4;stroke:#ffffff;stroke-width:0.75;" x="185.687286" xlink:href="#m707845e930" y="62.374728"/>
     <use style="fill:#1f77b4;stroke:#ffffff;stroke-width:0.75;" x="192.822551" xlink:href="#m707845e930" y="62.374728"/>
     <use style="fill:#1f77b4;stroke:#ffffff;stroke-width:0.75;" x="199.957815" xlink:href="#m707845e930" y="62.374728"/>
     <use style="fill:#1f77b4;stroke:#ffffff;stroke-width:0.75;" x="207.09308" xlink:href="#m707845e930" y="62.374728"/>
     <use style="fill:#1f77b4;stroke:#ffffff;stroke-width:0.75;" x="214.228345" xlink:href="#m707845e930" y="62.374728"/>
     <use style="fill:#1f77b4;stroke:#ffffff;stroke-width:0.75;" x="221.36361" xlink:href="#m707845e930" y="62.374728"/>
     <use style="fill:#1f77b4;stroke:#ffffff;stroke-width:0.75;" x="228.498874" xlink:href="#m707845e930" y="62.374728"/>
     <use style="fill:#1f77b4;stroke:#ffffff;stroke-width:0.75;" x="235.634139" xlink:href="#m707845e930" y="62.374728"/>
     <use style="fill:#1f77b4;stroke:#ffffff;stroke-width:0.75;" x="242.769404" xlink:href="#m707845e930" y="62.374728"/>
     <use style="fill:#1f77b4;stroke:#ffffff;stroke-width:0.75;" x="249.904668" xlink:href="#m707845e930" y="62.374728"/>
     <use style="fill:#1f77b4;stroke:#ffffff;stroke-width:0.75;" x="257.039933" xlink:href="#m707845e930" y="62.374728"/>
     <use style="fill:#1f77b4;stroke:#ffffff;stroke-width:0.75;" x="264.175198" xlink:href="#m707845e930" y="62.374728"/>
     <use style="fill:#1f77b4;stroke:#ffffff;stroke-width:0.75;" x="271.310463" xlink:href="#m707845e930" y="62.374728"/>
     <use style="fill:#1f77b4;stroke:#ffffff;stroke-width:0.75;" x="278.445727" xlink:href="#m707845e930" y="62.374728"/>
     <use style="fill:#1f77b4;stroke:#ffffff;stroke-width:0.75;" x="285.580992" xlink:href="#m707845e930" y="62.374728"/>
     <use style="fill:#1f77b4;stroke:#ffffff;stroke-width:0.75;" x="292.716257" xlink:href="#m707845e930" y="61.15905"/>
     <use style="fill:#1f77b4;stroke:#ffffff;stroke-width:0.75;" x="299.851522" xlink:href="#m707845e930" y="61.15905"/>
     <use style="fill:#1f77b4;stroke:#ffffff;stroke-width:0.75;" x="306.986786" xlink:href="#m707845e930" y="61.15905"/>
     <use style="fill:#1f77b4;stroke:#ffffff;stroke-width:0.75;" x="314.122051" xlink:href="#m707845e930" y="61.15905"/>
     <use style="fill:#1f77b4;stroke:#ffffff;stroke-width:0.75;" x="321.257316" xlink:href="#m707845e930" y="61.15905"/>
     <use style="fill:#1f77b4;stroke:#ffffff;stroke-width:0.75;" x="328.392581" xlink:href="#m707845e930" y="61.15905"/>
     <use style="fill:#1f77b4;stroke:#ffffff;stroke-width:0.75;" x="335.527845" xlink:href="#m707845e930" y="61.15905"/>
     <use style="fill:#1f77b4;stroke:#ffffff;stroke-width:0.75;" x="342.66311" xlink:href="#m707845e930" y="61.15905"/>
     <use style="fill:#1f77b4;stroke:#ffffff;stroke-width:0.75;" x="349.798375" xlink:href="#m707845e930" y="61.15905"/>
     <use style="fill:#1f77b4;stroke:#ffffff;stroke-width:0.75;" x="356.933639" xlink:href="#m707845e930" y="61.15905"/>
     <use style="fill:#1f77b4;stroke:#ffffff;stroke-width:0.75;" x="364.068904" xlink:href="#m707845e930" y="61.15905"/>
     <use style="fill:#1f77b4;stroke:#ffffff;stroke-width:0.75;" x="371.204169" xlink:href="#m707845e930" y="61.15905"/>
     <use style="fill:#1f77b4;stroke:#ffffff;stroke-width:0.75;" x="378.339434" xlink:href="#m707845e930" y="61.15905"/>
     <use style="fill:#1f77b4;stroke:#ffffff;stroke-width:0.75;" x="385.474698" xlink:href="#m707845e930" y="61.15905"/>
     <use style="fill:#1f77b4;stroke:#ffffff;stroke-width:0.75;" x="392.609963" xlink:href="#m707845e930" y="61.15905"/>
     <use style="fill:#1f77b4;stroke:#ffffff;stroke-width:0.75;" x="399.745228" xlink:href="#m707845e930" y="61.15905"/>
     <use style="fill:#1f77b4;stroke:#ffffff;stroke-width:0.75;" x="406.880493" xlink:href="#m707845e930" y="59.943371"/>
     <use style="fill:#1f77b4;stroke:#ffffff;stroke-width:0.75;" x="414.015757" xlink:href="#m707845e930" y="59.943371"/>
     <use style="fill:#1f77b4;stroke:#ffffff;stroke-width:0.75;" x="421.151022" xlink:href="#m707845e930" y="59.943371"/>
     <use style="fill:#1f77b4;stroke:#ffffff;stroke-width:0.75;" x="428.286287" xlink:href="#m707845e930" y="59.943371"/>
     <use style="fill:#1f77b4;stroke:#ffffff;stroke-width:0.75;" x="435.421552" xlink:href="#m707845e930" y="59.943371"/>
     <use style="fill:#1f77b4;stroke:#ffffff;stroke-width:0.75;" x="442.556816" xlink:href="#m707845e930" y="58.727693"/>
     <use style="fill:#1f77b4;stroke:#ffffff;stroke-width:0.75;" x="449.692081" xlink:href="#m707845e930" y="58.727693"/>
     <use style="fill:#1f77b4;stroke:#ffffff;stroke-width:0.75;" x="456.827346" xlink:href="#m707845e930" y="58.727693"/>
     <use style="fill:#1f77b4;stroke:#ffffff;stroke-width:0.75;" x="463.962611" xlink:href="#m707845e930" y="57.512014"/>
     <use style="fill:#1f77b4;stroke:#ffffff;stroke-width:0.75;" x="471.097875" xlink:href="#m707845e930" y="57.512014"/>
     <use style="fill:#1f77b4;stroke:#ffffff;stroke-width:0.75;" x="478.23314" xlink:href="#m707845e930" y="57.512014"/>
     <use style="fill:#1f77b4;stroke:#ffffff;stroke-width:0.75;" x="485.368405" xlink:href="#m707845e930" y="57.512014"/>
     <use style="fill:#1f77b4;stroke:#ffffff;stroke-width:0.75;" x="492.503669" xlink:href="#m707845e930" y="57.512014"/>
     <use style="fill:#1f77b4;stroke:#ffffff;stroke-width:0.75;" x="499.638934" xlink:href="#m707845e930" y="57.512014"/>
     <use style="fill:#1f77b4;stroke:#ffffff;stroke-width:0.75;" x="506.774199" xlink:href="#m707845e930" y="57.512014"/>
     <use style="fill:#1f77b4;stroke:#ffffff;stroke-width:0.75;" x="513.909464" xlink:href="#m707845e930" y="57.512014"/>
     <use style="fill:#1f77b4;stroke:#ffffff;stroke-width:0.75;" x="521.044728" xlink:href="#m707845e930" y="57.512014"/>
     <use style="fill:#1f77b4;stroke:#ffffff;stroke-width:0.75;" x="528.179993" xlink:href="#m707845e930" y="57.512014"/>
     <use style="fill:#1f77b4;stroke:#ffffff;stroke-width:0.75;" x="535.315258" xlink:href="#m707845e930" y="57.512014"/>
     <use style="fill:#1f77b4;stroke:#ffffff;stroke-width:0.75;" x="542.450523" xlink:href="#m707845e930" y="57.512014"/>
     <use style="fill:#1f77b4;stroke:#ffffff;stroke-width:0.75;" x="549.585787" xlink:href="#m707845e930" y="57.512014"/>
     <use style="fill:#1f77b4;stroke:#ffffff;stroke-width:0.75;" x="556.721052" xlink:href="#m707845e930" y="57.512014"/>
     <use style="fill:#1f77b4;stroke:#ffffff;stroke-width:0.75;" x="563.856317" xlink:href="#m707845e930" y="57.512014"/>
     <use style="fill:#1f77b4;stroke:#ffffff;stroke-width:0.75;" x="570.991582" xlink:href="#m707845e930" y="57.512014"/>
     <use style="fill:#1f77b4;stroke:#ffffff;stroke-width:0.75;" x="578.126846" xlink:href="#m707845e930" y="57.512014"/>
     <use style="fill:#1f77b4;stroke:#ffffff;stroke-width:0.75;" x="585.262111" xlink:href="#m707845e930" y="56.296336"/>
     <use style="fill:#1f77b4;stroke:#ffffff;stroke-width:0.75;" x="592.397376" xlink:href="#m707845e930" y="56.296336"/>
     <use style="fill:#1f77b4;stroke:#ffffff;stroke-width:0.75;" x="599.53264" xlink:href="#m707845e930" y="56.296336"/>
     <use style="fill:#1f77b4;stroke:#ffffff;stroke-width:0.75;" x="606.667905" xlink:href="#m707845e930" y="56.296336"/>
     <use style="fill:#1f77b4;stroke:#ffffff;stroke-width:0.75;" x="613.80317" xlink:href="#m707845e930" y="56.296336"/>
     <use style="fill:#1f77b4;stroke:#ffffff;stroke-width:0.75;" x="620.938435" xlink:href="#m707845e930" y="56.296336"/>
     <use style="fill:#1f77b4;stroke:#ffffff;stroke-width:0.75;" x="628.073699" xlink:href="#m707845e930" y="56.296336"/>
     <use style="fill:#1f77b4;stroke:#ffffff;stroke-width:0.75;" x="635.208964" xlink:href="#m707845e930" y="55.080658"/>
     <use style="fill:#1f77b4;stroke:#ffffff;stroke-width:0.75;" x="642.344229" xlink:href="#m707845e930" y="55.080658"/>
     <use style="fill:#1f77b4;stroke:#ffffff;stroke-width:0.75;" x="649.479494" xlink:href="#m707845e930" y="55.080658"/>
     <use style="fill:#1f77b4;stroke:#ffffff;stroke-width:0.75;" x="656.614758" xlink:href="#m707845e930" y="55.080658"/>
     <use style="fill:#1f77b4;stroke:#ffffff;stroke-width:0.75;" x="663.750023" xlink:href="#m707845e930" y="55.080658"/>
     <use style="fill:#1f77b4;stroke:#ffffff;stroke-width:0.75;" x="670.885288" xlink:href="#m707845e930" y="55.080658"/>
     <use style="fill:#1f77b4;stroke:#ffffff;stroke-width:0.75;" x="678.020553" xlink:href="#m707845e930" y="55.080658"/>
     <use style="fill:#1f77b4;stroke:#ffffff;stroke-width:0.75;" x="685.155817" xlink:href="#m707845e930" y="55.080658"/>
     <use style="fill:#1f77b4;stroke:#ffffff;stroke-width:0.75;" x="692.291082" xlink:href="#m707845e930" y="55.080658"/>
     <use style="fill:#1f77b4;stroke:#ffffff;stroke-width:0.75;" x="699.426347" xlink:href="#m707845e930" y="55.080658"/>
     <use style="fill:#1f77b4;stroke:#ffffff;stroke-width:0.75;" x="706.561612" xlink:href="#m707845e930" y="55.080658"/>
     <use style="fill:#1f77b4;stroke:#ffffff;stroke-width:0.75;" x="713.696876" xlink:href="#m707845e930" y="55.080658"/>
     <use style="fill:#1f77b4;stroke:#ffffff;stroke-width:0.75;" x="720.832141" xlink:href="#m707845e930" y="55.080658"/>
     <use style="fill:#1f77b4;stroke:#ffffff;stroke-width:0.75;" x="727.967406" xlink:href="#m707845e930" y="52.649301"/>
     <use style="fill:#1f77b4;stroke:#ffffff;stroke-width:0.75;" x="735.10267" xlink:href="#m707845e930" y="52.649301"/>
    </g>
   </g>
   <g id="line2d_20"/>
   <g id="line2d_21"/>
   <g id="line2d_22">
    <path clip-path="url(#p5ef378b317)" d="M 735.10267 288.430125 
L 735.10267 22.318125 
" style="fill:none;stroke:#ff0000;stroke-linecap:square;stroke-width:1.5;"/>
   </g>
   <g id="patch_3">
    <path d="M 53.328125 242.29513 
L 53.328125 47.786587 
" style="fill:none;stroke:#000000;stroke-linecap:square;stroke-linejoin:miter;stroke-width:0.8;"/>
   </g>
   <g id="patch_4">
    <path d="M 85.79358 288.430125 
L 687.534239 288.430125 
" style="fill:none;stroke:#000000;stroke-linecap:square;stroke-linejoin:miter;stroke-width:0.8;"/>
   </g>
   <g id="text_20">
    <!-- vorbis-2017-12-11 (23h, 10 trials/fuzzer) -->
    <g transform="translate(288.394063 16.318125)scale(0.12 -0.12)">
     <defs>
      <path d="M 2834 3397 
L 2834 2853 
Q 2591 2978 2328 3040 
Q 2066 3103 1784 3103 
Q 1356 3103 1142 2972 
Q 928 2841 928 2578 
Q 928 2378 1081 2264 
Q 1234 2150 1697 2047 
L 1894 2003 
Q 2506 1872 2764 1633 
Q 3022 1394 3022 966 
Q 3022 478 2636 193 
Q 2250 -91 1575 -91 
Q 1294 -91 989 -36 
Q 684 19 347 128 
L 347 722 
Q 666 556 975 473 
Q 1284 391 1588 391 
Q 1994 391 2212 530 
Q 2431 669 2431 922 
Q 2431 1156 2273 1281 
Q 2116 1406 1581 1522 
L 1381 1569 
Q 847 1681 609 1914 
Q 372 2147 372 2553 
Q 372 3047 722 3315 
Q 1072 3584 1716 3584 
Q 2034 3584 2315 3537 
Q 2597 3491 2834 3397 
z
" id="DejaVuSans-73" transform="scale(0.015625)"/>
      <path d="M 313 2009 
L 1997 2009 
L 1997 1497 
L 313 1497 
L 313 2009 
z
" id="DejaVuSans-2d" transform="scale(0.015625)"/>
      <path d="M 750 794 
L 1409 794 
L 1409 256 
L 897 -744 
L 494 -744 
L 750 256 
L 750 794 
z
" id="DejaVuSans-2c" transform="scale(0.015625)"/>
      <path d="M 603 4863 
L 1178 4863 
L 1178 0 
L 603 0 
L 603 4863 
z
" id="DejaVuSans-6c" transform="scale(0.015625)"/>
      <path d="M 1625 4666 
L 2156 4666 
L 531 -594 
L 0 -594 
L 1625 4666 
z
" id="DejaVuSans-2f" transform="scale(0.015625)"/>
      <path d="M 2375 4863 
L 2375 4384 
L 1825 4384 
Q 1516 4384 1395 4259 
Q 1275 4134 1275 3809 
L 1275 3500 
L 2222 3500 
L 2222 3053 
L 1275 3053 
L 1275 0 
L 697 0 
L 697 3053 
L 147 3053 
L 147 3500 
L 697 3500 
L 697 3744 
Q 697 4328 969 4595 
Q 1241 4863 1831 4863 
L 2375 4863 
z
" id="DejaVuSans-66" transform="scale(0.015625)"/>
      <path d="M 353 3500 
L 3084 3500 
L 3084 2975 
L 922 459 
L 3084 459 
L 3084 0 
L 275 0 
L 275 525 
L 2438 3041 
L 353 3041 
L 353 3500 
z
" id="DejaVuSans-7a" transform="scale(0.015625)"/>
     </defs>
     <use xlink:href="#DejaVuSans-76"/>
     <use x="59.179688" xlink:href="#DejaVuSans-6f"/>
     <use x="120.361328" xlink:href="#DejaVuSans-72"/>
     <use x="161.474609" xlink:href="#DejaVuSans-62"/>
     <use x="224.951172" xlink:href="#DejaVuSans-69"/>
     <use x="252.734375" xlink:href="#DejaVuSans-73"/>
     <use x="304.833984" xlink:href="#DejaVuSans-2d"/>
     <use x="340.917969" xlink:href="#DejaVuSans-32"/>
     <use x="404.541016" xlink:href="#DejaVuSans-30"/>
     <use x="468.164062" xlink:href="#DejaVuSans-31"/>
     <use x="531.787109" xlink:href="#DejaVuSans-37"/>
     <use x="595.410156" xlink:href="#DejaVuSans-2d"/>
     <use x="631.494141" xlink:href="#DejaVuSans-31"/>
     <use x="695.117188" xlink:href="#DejaVuSans-32"/>
     <use x="758.740234" xlink:href="#DejaVuSans-2d"/>
     <use x="794.824219" xlink:href="#DejaVuSans-31"/>
     <use x="858.447266" xlink:href="#DejaVuSans-31"/>
     <use x="922.070312" xlink:href="#DejaVuSans-20"/>
     <use x="953.857422" xlink:href="#DejaVuSans-28"/>
     <use x="992.871094" xlink:href="#DejaVuSans-32"/>
     <use x="1056.494141" xlink:href="#DejaVuSans-33"/>
     <use x="1120.117188" xlink:href="#DejaVuSans-68"/>
     <use x="1183.496094" xlink:href="#DejaVuSans-2c"/>
     <use x="1215.283203" xlink:href="#DejaVuSans-20"/>
     <use x="1247.070312" xlink:href="#DejaVuSans-31"/>
     <use x="1310.693359" xlink:href="#DejaVuSans-30"/>
     <use x="1374.316406" xlink:href="#DejaVuSans-20"/>
     <use x="1406.103516" xlink:href="#DejaVuSans-74"/>
     <use x="1445.3125" xlink:href="#DejaVuSans-72"/>
     <use x="1486.425781" xlink:href="#DejaVuSans-69"/>
     <use x="1514.208984" xlink:href="#DejaVuSans-61"/>
     <use x="1575.488281" xlink:href="#DejaVuSans-6c"/>
     <use x="1603.271484" xlink:href="#DejaVuSans-73"/>
     <use x="1655.371094" xlink:href="#DejaVuSans-2f"/>
     <use x="1689.0625" xlink:href="#DejaVuSans-66"/>
     <use x="1724.267578" xlink:href="#DejaVuSans-75"/>
     <use x="1787.646484" xlink:href="#DejaVuSans-7a"/>
     <use x="1840.136719" xlink:href="#DejaVuSans-7a"/>
     <use x="1892.626953" xlink:href="#DejaVuSans-65"/>
     <use x="1954.150391" xlink:href="#DejaVuSans-72"/>
     <use x="1995.263672" xlink:href="#DejaVuSans-29"/>
    </g>
   </g>
   <g id="legend_1">
    <g id="line2d_23">
     <path d="M 771.568125 30.416563 
L 791.568125 30.416563 
" style="fill:none;stroke:#98df8a;stroke-linecap:square;stroke-width:1.5;"/>
    </g>
    <g id="line2d_24">
     <defs>
      <path d="M -0 3 
L 3 -3 
L -3 -3 
z
" id="m17e1603ce0" style="stroke:#98df8a;stroke-linejoin:miter;"/>
     </defs>
     <g>
      <use style="fill:#98df8a;stroke:#98df8a;stroke-linejoin:miter;" x="781.568125" xlink:href="#m17e1603ce0" y="30.416563"/>
     </g>
    </g>
    <g id="text_21">
     <!-- sydr_aflplusplus -->
     <g transform="translate(799.568125 33.916563)scale(0.1 -0.1)">
      <defs>
       <path d="M 2059 -325 
Q 1816 -950 1584 -1140 
Q 1353 -1331 966 -1331 
L 506 -1331 
L 506 -850 
L 844 -850 
Q 1081 -850 1212 -737 
Q 1344 -625 1503 -206 
L 1606 56 
L 191 3500 
L 800 3500 
L 1894 763 
L 2988 3500 
L 3597 3500 
L 2059 -325 
z
" id="DejaVuSans-79" transform="scale(0.015625)"/>
       <path d="M 3263 -1063 
L 3263 -1509 
L -63 -1509 
L -63 -1063 
L 3263 -1063 
z
" id="DejaVuSans-5f" transform="scale(0.015625)"/>
       <path d="M 1159 525 
L 1159 -1331 
L 581 -1331 
L 581 3500 
L 1159 3500 
L 1159 2969 
Q 1341 3281 1617 3432 
Q 1894 3584 2278 3584 
Q 2916 3584 3314 3078 
Q 3713 2572 3713 1747 
Q 3713 922 3314 415 
Q 2916 -91 2278 -91 
Q 1894 -91 1617 61 
Q 1341 213 1159 525 
z
M 3116 1747 
Q 3116 2381 2855 2742 
Q 2594 3103 2138 3103 
Q 1681 3103 1420 2742 
Q 1159 2381 1159 1747 
Q 1159 1113 1420 752 
Q 1681 391 2138 391 
Q 2594 391 2855 752 
Q 3116 1113 3116 1747 
z
" id="DejaVuSans-70" transform="scale(0.015625)"/>
      </defs>
      <use xlink:href="#DejaVuSans-73"/>
      <use x="52.099609" xlink:href="#DejaVuSans-79"/>
      <use x="111.279297" xlink:href="#DejaVuSans-64"/>
      <use x="174.755859" xlink:href="#DejaVuSans-72"/>
      <use x="215.869141" xlink:href="#DejaVuSans-5f"/>
      <use x="265.869141" xlink:href="#DejaVuSans-61"/>
      <use x="327.148438" xlink:href="#DejaVuSans-66"/>
      <use x="362.353516" xlink:href="#DejaVuSans-6c"/>
      <use x="390.136719" xlink:href="#DejaVuSans-70"/>
      <use x="453.613281" xlink:href="#DejaVuSans-6c"/>
      <use x="481.396484" xlink:href="#DejaVuSans-75"/>
      <use x="544.775391" xlink:href="#DejaVuSans-73"/>
      <use x="596.875" xlink:href="#DejaVuSans-70"/>
      <use x="660.351562" xlink:href="#DejaVuSans-6c"/>
      <use x="688.134766" xlink:href="#DejaVuSans-75"/>
      <use x="751.513672" xlink:href="#DejaVuSans-73"/>
     </g>
    </g>
    <g id="line2d_25">
     <path d="M 771.568125 45.372813 
L 791.568125 45.372813 
" style="fill:none;stroke:#1f77b4;stroke-linecap:square;stroke-width:1.5;"/>
    </g>
    <g id="line2d_26">
     <defs>
      <path d="M 0 3 
C 0.795609 3 1.55874 2.683901 2.12132 2.12132 
C 2.683901 1.55874 3 0.795609 3 0 
C 3 -0.795609 2.683901 -1.55874 2.12132 -2.12132 
C 1.55874 -2.683901 0.795609 -3 0 -3 
C -0.795609 -3 -1.55874 -2.683901 -2.12132 -2.12132 
C -2.683901 -1.55874 -3 -0.795609 -3 0 
C -3 0.795609 -2.683901 1.55874 -2.12132 2.12132 
C -1.55874 2.683901 -0.795609 3 0 3 
z
" id="ma334efab40" style="stroke:#1f77b4;"/>
     </defs>
     <g>
      <use style="fill:#1f77b4;stroke:#1f77b4;" x="781.568125" xlink:href="#ma334efab40" y="45.372813"/>
     </g>
    </g>
    <g id="text_22">
     <!-- aflplusplus_two_instances -->
     <g transform="translate(799.568125 48.872813)scale(0.1 -0.1)">
      <defs>
       <path d="M 269 3500 
L 844 3500 
L 1563 769 
L 2278 3500 
L 2956 3500 
L 3675 769 
L 4391 3500 
L 4966 3500 
L 4050 0 
L 3372 0 
L 2619 2869 
L 1863 0 
L 1184 0 
L 269 3500 
z
" id="DejaVuSans-77" transform="scale(0.015625)"/>
      </defs>
      <use xlink:href="#DejaVuSans-61"/>
      <use x="61.279297" xlink:href="#DejaVuSans-66"/>
      <use x="96.484375" xlink:href="#DejaVuSans-6c"/>
      <use x="124.267578" xlink:href="#DejaVuSans-70"/>
      <use x="187.744141" xlink:href="#DejaVuSans-6c"/>
      <use x="215.527344" xlink:href="#DejaVuSans-75"/>
      <use x="278.90625" xlink:href="#DejaVuSans-73"/>
      <use x="331.005859" xlink:href="#DejaVuSans-70"/>
      <use x="394.482422" xlink:href="#DejaVuSans-6c"/>
      <use x="422.265625" xlink:href="#DejaVuSans-75"/>
      <use x="485.644531" xlink:href="#DejaVuSans-73"/>
      <use x="537.744141" xlink:href="#DejaVuSans-5f"/>
      <use x="587.744141" xlink:href="#DejaVuSans-74"/>
      <use x="626.953125" xlink:href="#DejaVuSans-77"/>
      <use x="708.740234" xlink:href="#DejaVuSans-6f"/>
      <use x="769.921875" xlink:href="#DejaVuSans-5f"/>
      <use x="819.921875" xlink:href="#DejaVuSans-69"/>
      <use x="847.705078" xlink:href="#DejaVuSans-6e"/>
      <use x="911.083984" xlink:href="#DejaVuSans-73"/>
      <use x="963.183594" xlink:href="#DejaVuSans-74"/>
      <use x="1002.392578" xlink:href="#DejaVuSans-61"/>
      <use x="1063.671875" xlink:href="#DejaVuSans-6e"/>
      <use x="1127.050781" xlink:href="#DejaVuSans-63"/>
      <use x="1182.03125" xlink:href="#DejaVuSans-65"/>
      <use x="1243.554688" xlink:href="#DejaVuSans-73"/>
     </g>
    </g>
   </g>
  </g>
 </g>
 <defs>
  <clipPath id="p5ef378b317">
   <rect height="266.112" width="714.24" x="53.328125" y="22.318125"/>
  </clipPath>
 </defs>
</svg>
