<?xml version="1.0" encoding="utf-8" standalone="no"?>
<!DOCTYPE svg PUBLIC "-//W3C//DTD SVG 1.1//EN"
  "http://www.w3.org/Graphics/SVG/1.1/DTD/svg11.dtd">
<svg height="325.986375pt" version="1.1" viewBox="0 0 925.3525 325.986375" width="925.3525pt" xmlns="http://www.w3.org/2000/svg" xmlns:xlink="http://www.w3.org/1999/xlink">
 <metadata>
  <rdf:RDF xmlns:cc="http://creativecommons.org/ns#" xmlns:dc="http://purl.org/dc/elements/1.1/" xmlns:rdf="http://www.w3.org/1999/02/22-rdf-syntax-ns#">
   <cc:Work>
    <dc:type rdf:resource="http://purl.org/dc/dcmitype/StillImage"/>
    <dc:date>2022-08-28T18:57:54.363177</dc:date>
    <dc:format>image/svg+xml</dc:format>
    <dc:creator>
     <cc:Agent>
      <dc:title>Matplotlib v3.4.1, https://matplotlib.org/</dc:title>
     </cc:Agent>
    </dc:creator>
   </cc:Work>
  </rdf:RDF>
 </metadata>
 <defs>
  <style type="text/css">*{stroke-linecap:butt;stroke-linejoin:round;}</style>
 </defs>
 <g id="figure_1">
  <g id="patch_1">
   <path d="M 0 325.986375 
L 925.3525 325.986375 
L 925.3525 0 
L 0 0 
z
" style="fill:#ffffff;"/>
  </g>
  <g id="axes_1">
   <g id="patch_2">
    <path d="M 59.690625 288.430125 
L 773.930625 288.430125 
L 773.930625 22.318125 
L 59.690625 22.318125 
z
" style="fill:#ffffff;"/>
   </g>
   <g id="PolyCollection_1">
    <defs>
     <path d="M 92.15608 -68.488269 
L 92.15608 -63.055852 
L 191.688987 -96.087132 
L 249.912006 -105.34135 
L 291.221895 -113.039549 
L 323.264335 -117.025141 
L 349.444914 -120.792345 
L 371.580278 -127.999169 
L 390.754803 -132.967511 
L 407.667933 -139.109691 
L 422.797242 -142.522013 
L 436.483368 -156.116705 
L 448.977822 -161.904004 
L 460.471605 -169.438411 
L 471.113186 -172.113672 
L 481.020261 -173.560496 
L 490.287711 -176.153861 
L 498.993142 -181.477084 
L 507.20084 -183.46988 
L 514.964657 -179.402392 
L 522.33015 -183.797463 
L 529.336205 -191.195378 
L 536.016276 -191.987037 
L 542.399355 -195.645046 
L 548.51073 -196.518601 
L 554.37259 -196.573198 
L 560.004513 -205.74552 
L 565.423859 -204.653577 
L 570.646094 -204.844667 
L 575.685054 -205.008459 
L 580.553169 -213.006942 
L 585.261644 -208.994051 
L 589.820619 -219.176421 
L 594.239294 -223.544193 
L 598.52605 -231.71534 
L 602.688533 -229.085805 
L 606.733748 -228.97661 
L 610.668121 -229.54988 
L 614.497565 -229.631776 
L 618.227531 -232.115947 
L 621.863058 -232.87007 
L 625.408809 -233.20789 
L 628.869113 -233.20789 
L 632.247989 -233.20789 
L 635.549184 -233.20789 
L 638.776188 -232.798411 
L 641.932263 -233.20789 
L 645.02046 -233.371681 
L 648.043637 -232.689217 
L 651.004477 -235.89407 
L 653.905497 -240.679511 
L 656.749068 -239.950639 
L 659.537421 -241.943435 
L 662.272658 -241.907264 
L 664.956767 -240.578506 
L 667.591623 -241.998032 
L 670.179002 -240.605805 
L 672.720584 -244.072724 
L 675.217962 -242.107226 
L 677.672648 -240.769596 
L 680.086077 -242.516705 
L 682.459612 -244.291113 
L 684.794552 -241.151776 
L 687.092131 -243.936231 
L 689.353527 -244.454904 
L 691.57986 -243.936231 
L 693.772202 -243.990828 
L 695.931576 -244.482203 
L 698.058957 -244.564098 
L 700.155281 -244.564098 
L 702.221441 -246.857179 
L 704.258293 -252.2077 
L 706.266656 -247.21206 
L 708.247317 -252.2077 
L 710.201029 -252.2077 
L 712.128516 -247.184762 
L 714.030473 -250.460591 
L 715.907567 -252.262297 
L 717.760439 -250.48789 
L 719.589708 -256.466278 
L 721.395966 -252.753672 
L 723.179786 -253.654525 
L 724.941717 -257.339833 
L 726.682292 -255.155947 
L 728.40202 -257.666733 
L 730.101397 -258.868553 
L 731.780897 -259.578316 
L 733.440981 -259.578316 
L 735.082091 -263.017937 
L 736.704658 -264.055283 
L 738.309095 -264.328269 
L 739.895804 -264.382866 
L 741.46517 -264.382866 
L 741.46517 -291.326563 
L 741.46517 -291.326563 
L 739.895804 -291.57225 
L 738.309095 -291.544951 
L 736.704658 -290.80789 
L 735.082091 -291.408459 
L 733.440981 -291.353861 
L 731.780897 -290.589501 
L 730.101397 -291.326563 
L 728.40202 -290.589501 
L 726.682292 -290.589501 
L 724.941717 -290.589501 
L 723.179786 -290.589501 
L 721.395966 -289.552155 
L 719.589708 -287.322544 
L 717.760439 -285.784951 
L 715.907567 -286.931492 
L 714.030473 -280.546354 
L 712.128516 -285.757653 
L 710.201029 -287.14988 
L 708.247317 -280.106847 
L 706.266656 -285.722165 
L 704.258293 -284.802203 
L 702.221441 -285.675757 
L 700.155281 -284.420023 
L 698.058957 -285.320876 
L 695.931576 -285.129786 
L 693.772202 -276.230449 
L 691.57986 -276.066658 
L 689.353527 -275.957463 
L 687.092131 -276.145141 
L 684.794552 -283.382677 
L 682.459612 -283.355378 
L 680.086077 -275.793672 
L 677.672648 -275.43879 
L 675.217962 -273.118411 
L 672.720584 -273.063814 
L 670.179002 -273.063814 
L 667.591623 -273.009217 
L 664.956767 -272.900023 
L 662.272658 -272.190259 
L 659.537421 -266.938695 
L 656.749068 -264.10988 
L 653.905497 -263.563909 
L 651.004477 -263.236326 
L 648.043637 -262.526563 
L 645.02046 -260.744648 
L 641.932263 -259.658165 
L 638.776188 -263.372819 
L 635.549184 -260.124288 
L 632.247989 -254.097444 
L 628.869113 -259.796705 
L 625.408809 -259.278032 
L 621.863058 -249.860023 
L 618.227531 -258.104193 
L 614.497565 -249.860023 
L 610.668121 -247.539643 
L 606.733748 -245.49225 
L 602.688533 -247.048269 
L 598.52605 -246.556895 
L 594.239294 -244.127321 
L 589.820619 -241.506658 
L 585.261644 -239.268174 
L 580.553169 -236.292629 
L 575.685054 -236.893198 
L 570.646094 -235.637463 
L 565.423859 -232.225141 
L 560.004513 -232.225141 
L 554.37259 -232.195795 
L 548.51073 -232.115947 
L 542.399355 -232.115947 
L 536.016276 -220.814335 
L 529.336205 -220.322961 
L 522.33015 -223.434999 
L 514.964657 -216.31007 
L 507.20084 -211.860402 
L 498.993142 -203.343245 
L 490.287711 -200.613387 
L 481.020261 -199.166563 
L 471.113186 -195.645046 
L 460.471605 -192.860591 
L 448.977822 -190.185331 
L 436.483368 -188.547416 
L 422.797242 -180.139454 
L 407.667933 -166.708553 
L 390.754803 -162.286184 
L 371.580278 -157.044857 
L 349.444914 -142.7677 
L 323.264335 -135.806563 
L 291.221895 -129.063814 
L 249.912006 -117.789501 
L 191.688987 -108.881293 
L 92.15608 -68.488269 
z
" id="m7e80c5bdd2" style="stroke:#1f77b4;stroke-opacity:0.2;"/>
    </defs>
    <g clip-path="url(#pbcffd39592)">
     <use style="fill:#1f77b4;fill-opacity:0.2;stroke:#1f77b4;stroke-opacity:0.2;" x="0" xlink:href="#m7e80c5bdd2" y="325.986375"/>
    </g>
   </g>
   <g id="PolyCollection_2">
    <defs>
     <path d="M 92.15608 -61.008459 
L 92.15608 -49.65225 
L 191.688987 -67.751207 
L 249.912006 -79.243909 
L 291.221895 -84.027985 
L 323.264335 -84.485236 
L 349.444914 -85.959359 
L 371.580278 -88.143245 
L 390.754803 -89.617368 
L 407.667933 -91.30988 
L 422.797242 -101.847132 
L 436.483368 -111.183245 
L 448.977822 -114.049596 
L 460.471605 -114.950449 
L 471.113186 -117.43462 
L 481.020261 -123.112724 
L 490.287711 -120.464762 
L 498.993142 -119.236326 
L 507.20084 -123.5768 
L 514.964657 -120.137179 
L 522.33015 -124.845501 
L 529.336205 -123.440307 
L 536.016276 -130.67443 
L 542.399355 -130.729027 
L 548.51073 -132.912914 
L 554.37259 -131.848269 
L 560.004513 -132.101463 
L 565.423859 -135.260591 
L 570.646094 -149.019075 
L 575.685054 -146.944383 
L 580.553169 -151.581729 
L 585.261644 -148.363909 
L 589.820619 -146.180023 
L 594.239294 -148.5277 
L 598.52605 -151.858127 
L 602.688533 -150.929975 
L 606.733748 -152.704383 
L 610.668121 -153.850923 
L 614.497565 -158.300591 
L 618.227531 -164.961444 
L 621.863058 -167.138506 
L 625.408809 -166.872345 
L 628.869113 -167.090733 
L 632.247989 -168.89244 
L 635.549184 -168.89244 
L 638.776188 -170.80334 
L 641.932263 -170.830639 
L 645.02046 -170.857937 
L 648.043637 -171.021729 
L 651.004477 -172.905331 
L 653.905497 -173.096421 
L 656.749068 -173.096421 
L 659.537421 -173.669691 
L 662.272658 -174.655852 
L 664.956767 -173.817786 
L 667.591623 -173.478601 
L 670.179002 -174.019795 
L 672.720584 -174.320079 
L 675.217962 -174.84353 
L 677.672648 -175.441368 
L 680.086077 -175.253008 
L 682.459612 -175.880876 
L 684.794552 -176.017368 
L 687.092131 -176.153861 
L 689.353527 -176.153861 
L 691.57986 -176.18116 
L 693.772202 -177.955568 
L 695.931576 -175.826278 
L 698.058957 -178.774525 
L 700.155281 -176.426847 
L 702.221441 -178.09206 
L 704.258293 -178.146658 
L 706.266656 -179.211302 
L 708.247317 -182.159549 
L 710.201029 -182.159549 
L 712.128516 -180.685425 
L 714.030473 -182.159549 
L 715.907567 -182.159549 
L 717.760439 -182.487132 
L 719.589708 -182.760117 
L 721.395966 -182.923909 
L 723.179786 -181.1768 
L 724.941717 -182.923909 
L 726.682292 -182.923909 
L 728.40202 -181.204098 
L 730.101397 -196.05589 
L 731.780897 -194.716895 
L 733.440981 -194.826089 
L 735.082091 -197.123264 
L 736.704658 -207.474203 
L 738.309095 -194.962582 
L 739.895804 -197.463814 
L 741.46517 -195.153672 
L 741.46517 -221.380781 
L 741.46517 -221.380781 
L 739.895804 -220.54135 
L 738.309095 -220.54135 
L 736.704658 -220.213767 
L 735.082091 -220.049975 
L 733.440981 -220.896231 
L 731.780897 -220.049975 
L 730.101397 -219.995378 
L 728.40202 -219.995378 
L 726.682292 -219.995378 
L 724.941717 -217.866089 
L 723.179786 -216.446563 
L 721.395966 -216.200876 
L 719.589708 -216.11898 
L 717.760439 -216.11898 
L 715.907567 -210.606032 
L 714.030473 -210.606032 
L 712.128516 -210.55007 
L 710.201029 -212.215283 
L 708.247317 -210.55007 
L 706.266656 -209.840307 
L 704.258293 -209.840307 
L 702.221441 -211.778506 
L 700.155281 -210.553482 
L 698.058957 -208.952421 
L 695.931576 -209.949501 
L 693.772202 -211.723909 
L 691.57986 -211.69661 
L 689.353527 -212.160686 
L 687.092131 -207.438032 
L 684.794552 -207.478297 
L 682.459612 -207.438032 
L 680.086077 -207.438032 
L 677.672648 -208.912155 
L 675.217962 -208.884857 
L 672.720584 -208.830259 
L 670.179002 -207.438032 
L 667.591623 -211.478222 
L 664.956767 -207.438032 
L 662.272658 -208.065899 
L 659.537421 -207.738316 
L 656.749068 -207.683719 
L 653.905497 -207.574525 
L 651.004477 -206.946658 
L 648.043637 -206.89206 
L 645.02046 -206.782866 
L 641.932263 -206.782866 
L 638.776188 -206.455283 
L 635.549184 -206.3768 
L 632.247989 -206.018506 
L 628.869113 -209.321634 
L 625.408809 -204.380591 
L 621.863058 -192.614904 
L 618.227531 -192.396515 
L 614.497565 -175.229805 
L 610.668121 -174.84353 
L 606.733748 -191.058885 
L 602.688533 -190.076136 
L 598.52605 -189.994241 
L 594.239294 -189.885046 
L 589.820619 -189.339075 
L 585.261644 -187.51007 
L 580.553169 -185.972477 
L 575.685054 -185.053198 
L 570.646094 -184.752914 
L 565.423859 -186.964098 
L 560.004513 -184.179643 
L 554.37259 -186.800307 
L 548.51073 -173.396705 
L 542.399355 -170.202771 
L 536.016276 -169.27462 
L 529.336205 -168.073482 
L 522.33015 -167.391018 
L 514.964657 -165.343624 
L 507.20084 -162.94135 
L 498.993142 -162.286184 
L 490.287711 -161.194241 
L 481.020261 -160.866658 
L 471.113186 -147.933274 
L 460.471605 -145.207511 
L 448.977822 -144.26571 
L 436.483368 -135.970354 
L 422.797242 -135.806563 
L 407.667933 -135.533577 
L 390.754803 -131.602582 
L 371.580278 -127.780781 
L 349.444914 -126.688838 
L 323.264335 -125.160117 
L 291.221895 -120.355568 
L 249.912006 -95.486563 
L 191.688987 -74.958032 
L 92.15608 -61.008459 
z
" id="m40f07da1a0" style="stroke:#98df8a;stroke-opacity:0.2;"/>
    </defs>
    <g clip-path="url(#pbcffd39592)">
     <use style="fill:#98df8a;fill-opacity:0.2;stroke:#98df8a;stroke-opacity:0.2;" x="0" xlink:href="#m40f07da1a0" y="325.986375"/>
    </g>
   </g>
   <g id="matplotlib.axis_1">
    <g id="xtick_1">
     <g id="line2d_1">
      <defs>
       <path d="M 0 0 
L 0 3.5 
" id="m3517887f57" style="stroke:#000000;stroke-width:0.8;"/>
      </defs>
      <g>
       <use style="stroke:#000000;stroke-width:0.8;" x="92.15608" xlink:href="#m3517887f57" y="288.430125"/>
      </g>
     </g>
     <g id="text_1">
      <!-- 14m -->
      <g transform="translate(80.923267 303.028562)scale(0.1 -0.1)">
       <defs>
        <path d="M 794 531 
L 1825 531 
L 1825 4091 
L 703 3866 
L 703 4441 
L 1819 4666 
L 2450 4666 
L 2450 531 
L 3481 531 
L 3481 0 
L 794 0 
L 794 531 
z
" id="DejaVuSans-31" transform="scale(0.015625)"/>
        <path d="M 2419 4116 
L 825 1625 
L 2419 1625 
L 2419 4116 
z
M 2253 4666 
L 3047 4666 
L 3047 1625 
L 3713 1625 
L 3713 1100 
L 3047 1100 
L 3047 0 
L 2419 0 
L 2419 1100 
L 313 1100 
L 313 1709 
L 2253 4666 
z
" id="DejaVuSans-34" transform="scale(0.015625)"/>
        <path d="M 3328 2828 
Q 3544 3216 3844 3400 
Q 4144 3584 4550 3584 
Q 5097 3584 5394 3201 
Q 5691 2819 5691 2113 
L 5691 0 
L 5113 0 
L 5113 2094 
Q 5113 2597 4934 2840 
Q 4756 3084 4391 3084 
Q 3944 3084 3684 2787 
Q 3425 2491 3425 1978 
L 3425 0 
L 2847 0 
L 2847 2094 
Q 2847 2600 2669 2842 
Q 2491 3084 2119 3084 
Q 1678 3084 1418 2786 
Q 1159 2488 1159 1978 
L 1159 0 
L 581 0 
L 581 3500 
L 1159 3500 
L 1159 2956 
Q 1356 3278 1631 3431 
Q 1906 3584 2284 3584 
Q 2666 3584 2933 3390 
Q 3200 3197 3328 2828 
z
" id="DejaVuSans-6d" transform="scale(0.015625)"/>
       </defs>
       <use xlink:href="#DejaVuSans-31"/>
       <use x="63.623047" xlink:href="#DejaVuSans-34"/>
       <use x="127.246094" xlink:href="#DejaVuSans-6d"/>
      </g>
     </g>
    </g>
    <g id="xtick_2">
     <g id="line2d_2">
      <g>
       <use style="stroke:#000000;stroke-width:0.8;" x="151.184336" xlink:href="#m3517887f57" y="288.430125"/>
      </g>
     </g>
     <g id="text_2">
      <!-- 22m -->
      <g transform="translate(139.951524 303.028562)scale(0.1 -0.1)">
       <defs>
        <path d="M 1228 531 
L 3431 531 
L 3431 0 
L 469 0 
L 469 531 
Q 828 903 1448 1529 
Q 2069 2156 2228 2338 
Q 2531 2678 2651 2914 
Q 2772 3150 2772 3378 
Q 2772 3750 2511 3984 
Q 2250 4219 1831 4219 
Q 1534 4219 1204 4116 
Q 875 4013 500 3803 
L 500 4441 
Q 881 4594 1212 4672 
Q 1544 4750 1819 4750 
Q 2544 4750 2975 4387 
Q 3406 4025 3406 3419 
Q 3406 3131 3298 2873 
Q 3191 2616 2906 2266 
Q 2828 2175 2409 1742 
Q 1991 1309 1228 531 
z
" id="DejaVuSans-32" transform="scale(0.015625)"/>
       </defs>
       <use xlink:href="#DejaVuSans-32"/>
       <use x="63.623047" xlink:href="#DejaVuSans-32"/>
       <use x="127.246094" xlink:href="#DejaVuSans-6d"/>
      </g>
     </g>
    </g>
    <g id="xtick_3">
     <g id="line2d_3">
      <g>
       <use style="stroke:#000000;stroke-width:0.8;" x="210.212593" xlink:href="#m3517887f57" y="288.430125"/>
      </g>
     </g>
     <g id="text_3">
      <!-- 34m -->
      <g transform="translate(198.979781 303.028562)scale(0.1 -0.1)">
       <defs>
        <path d="M 2597 2516 
Q 3050 2419 3304 2112 
Q 3559 1806 3559 1356 
Q 3559 666 3084 287 
Q 2609 -91 1734 -91 
Q 1441 -91 1130 -33 
Q 819 25 488 141 
L 488 750 
Q 750 597 1062 519 
Q 1375 441 1716 441 
Q 2309 441 2620 675 
Q 2931 909 2931 1356 
Q 2931 1769 2642 2001 
Q 2353 2234 1838 2234 
L 1294 2234 
L 1294 2753 
L 1863 2753 
Q 2328 2753 2575 2939 
Q 2822 3125 2822 3475 
Q 2822 3834 2567 4026 
Q 2313 4219 1838 4219 
Q 1578 4219 1281 4162 
Q 984 4106 628 3988 
L 628 4550 
Q 988 4650 1302 4700 
Q 1616 4750 1894 4750 
Q 2613 4750 3031 4423 
Q 3450 4097 3450 3541 
Q 3450 3153 3228 2886 
Q 3006 2619 2597 2516 
z
" id="DejaVuSans-33" transform="scale(0.015625)"/>
       </defs>
       <use xlink:href="#DejaVuSans-33"/>
       <use x="63.623047" xlink:href="#DejaVuSans-34"/>
       <use x="127.246094" xlink:href="#DejaVuSans-6d"/>
      </g>
     </g>
    </g>
    <g id="xtick_4">
     <g id="line2d_4">
      <g>
       <use style="stroke:#000000;stroke-width:0.8;" x="269.24085" xlink:href="#m3517887f57" y="288.430125"/>
      </g>
     </g>
     <g id="text_4">
      <!-- 51m -->
      <g transform="translate(258.008038 303.028562)scale(0.1 -0.1)">
       <defs>
        <path d="M 691 4666 
L 3169 4666 
L 3169 4134 
L 1269 4134 
L 1269 2991 
Q 1406 3038 1543 3061 
Q 1681 3084 1819 3084 
Q 2600 3084 3056 2656 
Q 3513 2228 3513 1497 
Q 3513 744 3044 326 
Q 2575 -91 1722 -91 
Q 1428 -91 1123 -41 
Q 819 9 494 109 
L 494 744 
Q 775 591 1075 516 
Q 1375 441 1709 441 
Q 2250 441 2565 725 
Q 2881 1009 2881 1497 
Q 2881 1984 2565 2268 
Q 2250 2553 1709 2553 
Q 1456 2553 1204 2497 
Q 953 2441 691 2322 
L 691 4666 
z
" id="DejaVuSans-35" transform="scale(0.015625)"/>
       </defs>
       <use xlink:href="#DejaVuSans-35"/>
       <use x="63.623047" xlink:href="#DejaVuSans-31"/>
       <use x="127.246094" xlink:href="#DejaVuSans-6d"/>
      </g>
     </g>
    </g>
    <g id="xtick_5">
     <g id="line2d_5">
      <g>
       <use style="stroke:#000000;stroke-width:0.8;" x="328.269107" xlink:href="#m3517887f57" y="288.430125"/>
      </g>
     </g>
     <g id="text_5">
      <!-- 1h:17m -->
      <g transform="translate(309.001919 303.028562)scale(0.1 -0.1)">
       <defs>
        <path d="M 3513 2113 
L 3513 0 
L 2938 0 
L 2938 2094 
Q 2938 2591 2744 2837 
Q 2550 3084 2163 3084 
Q 1697 3084 1428 2787 
Q 1159 2491 1159 1978 
L 1159 0 
L 581 0 
L 581 4863 
L 1159 4863 
L 1159 2956 
Q 1366 3272 1645 3428 
Q 1925 3584 2291 3584 
Q 2894 3584 3203 3211 
Q 3513 2838 3513 2113 
z
" id="DejaVuSans-68" transform="scale(0.015625)"/>
        <path d="M 750 794 
L 1409 794 
L 1409 0 
L 750 0 
L 750 794 
z
M 750 3309 
L 1409 3309 
L 1409 2516 
L 750 2516 
L 750 3309 
z
" id="DejaVuSans-3a" transform="scale(0.015625)"/>
        <path d="M 525 4666 
L 3525 4666 
L 3525 4397 
L 1831 0 
L 1172 0 
L 2766 4134 
L 525 4134 
L 525 4666 
z
" id="DejaVuSans-37" transform="scale(0.015625)"/>
       </defs>
       <use xlink:href="#DejaVuSans-31"/>
       <use x="63.623047" xlink:href="#DejaVuSans-68"/>
       <use x="127.001953" xlink:href="#DejaVuSans-3a"/>
       <use x="160.693359" xlink:href="#DejaVuSans-31"/>
       <use x="224.316406" xlink:href="#DejaVuSans-37"/>
       <use x="287.939453" xlink:href="#DejaVuSans-6d"/>
      </g>
     </g>
    </g>
    <g id="xtick_6">
     <g id="line2d_6">
      <g>
       <use style="stroke:#000000;stroke-width:0.8;" x="387.297364" xlink:href="#m3517887f57" y="288.430125"/>
      </g>
     </g>
     <g id="text_6">
      <!-- 1h:57m -->
      <g transform="translate(368.030176 303.028562)scale(0.1 -0.1)">
       <use xlink:href="#DejaVuSans-31"/>
       <use x="63.623047" xlink:href="#DejaVuSans-68"/>
       <use x="127.001953" xlink:href="#DejaVuSans-3a"/>
       <use x="160.693359" xlink:href="#DejaVuSans-35"/>
       <use x="224.316406" xlink:href="#DejaVuSans-37"/>
       <use x="287.939453" xlink:href="#DejaVuSans-6d"/>
      </g>
     </g>
    </g>
    <g id="xtick_7">
     <g id="line2d_7">
      <g>
       <use style="stroke:#000000;stroke-width:0.8;" x="446.325621" xlink:href="#m3517887f57" y="288.430125"/>
      </g>
     </g>
     <g id="text_7">
      <!-- 2h:56m -->
      <g transform="translate(427.058433 303.028562)scale(0.1 -0.1)">
       <defs>
        <path d="M 2113 2584 
Q 1688 2584 1439 2293 
Q 1191 2003 1191 1497 
Q 1191 994 1439 701 
Q 1688 409 2113 409 
Q 2538 409 2786 701 
Q 3034 994 3034 1497 
Q 3034 2003 2786 2293 
Q 2538 2584 2113 2584 
z
M 3366 4563 
L 3366 3988 
Q 3128 4100 2886 4159 
Q 2644 4219 2406 4219 
Q 1781 4219 1451 3797 
Q 1122 3375 1075 2522 
Q 1259 2794 1537 2939 
Q 1816 3084 2150 3084 
Q 2853 3084 3261 2657 
Q 3669 2231 3669 1497 
Q 3669 778 3244 343 
Q 2819 -91 2113 -91 
Q 1303 -91 875 529 
Q 447 1150 447 2328 
Q 447 3434 972 4092 
Q 1497 4750 2381 4750 
Q 2619 4750 2861 4703 
Q 3103 4656 3366 4563 
z
" id="DejaVuSans-36" transform="scale(0.015625)"/>
       </defs>
       <use xlink:href="#DejaVuSans-32"/>
       <use x="63.623047" xlink:href="#DejaVuSans-68"/>
       <use x="127.001953" xlink:href="#DejaVuSans-3a"/>
       <use x="160.693359" xlink:href="#DejaVuSans-35"/>
       <use x="224.316406" xlink:href="#DejaVuSans-36"/>
       <use x="287.939453" xlink:href="#DejaVuSans-6d"/>
      </g>
     </g>
    </g>
    <g id="xtick_8">
     <g id="line2d_8">
      <g>
       <use style="stroke:#000000;stroke-width:0.8;" x="505.353877" xlink:href="#m3517887f57" y="288.430125"/>
      </g>
     </g>
     <g id="text_8">
      <!-- 4h:26m -->
      <g transform="translate(486.08669 303.028562)scale(0.1 -0.1)">
       <use xlink:href="#DejaVuSans-34"/>
       <use x="63.623047" xlink:href="#DejaVuSans-68"/>
       <use x="127.001953" xlink:href="#DejaVuSans-3a"/>
       <use x="160.693359" xlink:href="#DejaVuSans-32"/>
       <use x="224.316406" xlink:href="#DejaVuSans-36"/>
       <use x="287.939453" xlink:href="#DejaVuSans-6d"/>
      </g>
     </g>
    </g>
    <g id="xtick_9">
     <g id="line2d_9">
      <g>
       <use style="stroke:#000000;stroke-width:0.8;" x="564.382134" xlink:href="#m3517887f57" y="288.430125"/>
      </g>
     </g>
     <g id="text_9">
      <!-- 6h:42m -->
      <g transform="translate(545.114947 303.028562)scale(0.1 -0.1)">
       <use xlink:href="#DejaVuSans-36"/>
       <use x="63.623047" xlink:href="#DejaVuSans-68"/>
       <use x="127.001953" xlink:href="#DejaVuSans-3a"/>
       <use x="160.693359" xlink:href="#DejaVuSans-34"/>
       <use x="224.316406" xlink:href="#DejaVuSans-32"/>
       <use x="287.939453" xlink:href="#DejaVuSans-6d"/>
      </g>
     </g>
    </g>
    <g id="xtick_10">
     <g id="line2d_10">
      <g>
       <use style="stroke:#000000;stroke-width:0.8;" x="623.410391" xlink:href="#m3517887f57" y="288.430125"/>
      </g>
     </g>
     <g id="text_10">
      <!-- 10h:6m -->
      <g transform="translate(604.143204 303.028562)scale(0.1 -0.1)">
       <defs>
        <path d="M 2034 4250 
Q 1547 4250 1301 3770 
Q 1056 3291 1056 2328 
Q 1056 1369 1301 889 
Q 1547 409 2034 409 
Q 2525 409 2770 889 
Q 3016 1369 3016 2328 
Q 3016 3291 2770 3770 
Q 2525 4250 2034 4250 
z
M 2034 4750 
Q 2819 4750 3233 4129 
Q 3647 3509 3647 2328 
Q 3647 1150 3233 529 
Q 2819 -91 2034 -91 
Q 1250 -91 836 529 
Q 422 1150 422 2328 
Q 422 3509 836 4129 
Q 1250 4750 2034 4750 
z
" id="DejaVuSans-30" transform="scale(0.015625)"/>
       </defs>
       <use xlink:href="#DejaVuSans-31"/>
       <use x="63.623047" xlink:href="#DejaVuSans-30"/>
       <use x="127.246094" xlink:href="#DejaVuSans-68"/>
       <use x="190.625" xlink:href="#DejaVuSans-3a"/>
       <use x="224.316406" xlink:href="#DejaVuSans-36"/>
       <use x="287.939453" xlink:href="#DejaVuSans-6d"/>
      </g>
     </g>
    </g>
    <g id="xtick_11">
     <g id="line2d_11">
      <g>
       <use style="stroke:#000000;stroke-width:0.8;" x="682.438648" xlink:href="#m3517887f57" y="288.430125"/>
      </g>
     </g>
     <g id="text_11">
      <!-- 15h:14m -->
      <g transform="translate(659.99021 303.028562)scale(0.1 -0.1)">
       <use xlink:href="#DejaVuSans-31"/>
       <use x="63.623047" xlink:href="#DejaVuSans-35"/>
       <use x="127.246094" xlink:href="#DejaVuSans-68"/>
       <use x="190.625" xlink:href="#DejaVuSans-3a"/>
       <use x="224.316406" xlink:href="#DejaVuSans-31"/>
       <use x="287.939453" xlink:href="#DejaVuSans-34"/>
       <use x="351.5625" xlink:href="#DejaVuSans-6d"/>
      </g>
     </g>
    </g>
    <g id="xtick_12">
     <g id="line2d_12">
      <g>
       <use style="stroke:#000000;stroke-width:0.8;" x="741.466905" xlink:href="#m3517887f57" y="288.430125"/>
      </g>
     </g>
     <g id="text_12">
      <!-- 23h -->
      <g transform="translate(731.935655 303.028562)scale(0.1 -0.1)">
       <use xlink:href="#DejaVuSans-32"/>
       <use x="63.623047" xlink:href="#DejaVuSans-33"/>
       <use x="127.246094" xlink:href="#DejaVuSans-68"/>
      </g>
     </g>
    </g>
    <g id="xtick_13">
     <g id="line2d_13">
      <defs>
       <path d="M 0 0 
L 0 2 
" id="m9a40182351" style="stroke:#000000;stroke-width:0.6;"/>
      </defs>
      <g>
       <use style="stroke:#000000;stroke-width:0.6;" x="75.24295" xlink:href="#m9a40182351" y="288.430125"/>
      </g>
     </g>
    </g>
    <g id="xtick_14">
     <g id="line2d_14">
      <g>
       <use style="stroke:#000000;stroke-width:0.6;" x="206.818297" xlink:href="#m9a40182351" y="288.430125"/>
      </g>
     </g>
    </g>
    <g id="xtick_15">
     <g id="line2d_15">
      <g>
       <use style="stroke:#000000;stroke-width:0.6;" x="265.041316" xlink:href="#m9a40182351" y="288.430125"/>
      </g>
     </g>
    </g>
    <g id="xtick_16">
     <g id="line2d_16">
      <g>
       <use style="stroke:#000000;stroke-width:0.6;" x="306.351205" xlink:href="#m9a40182351" y="288.430125"/>
      </g>
     </g>
    </g>
    <g id="xtick_17">
     <g id="line2d_17">
      <g>
       <use style="stroke:#000000;stroke-width:0.6;" x="338.393644" xlink:href="#m9a40182351" y="288.430125"/>
      </g>
     </g>
    </g>
    <g id="xtick_18">
     <g id="line2d_18">
      <g>
       <use style="stroke:#000000;stroke-width:0.6;" x="364.574224" xlink:href="#m9a40182351" y="288.430125"/>
      </g>
     </g>
    </g>
    <g id="xtick_19">
     <g id="line2d_19">
      <g>
       <use style="stroke:#000000;stroke-width:0.6;" x="386.709588" xlink:href="#m9a40182351" y="288.430125"/>
      </g>
     </g>
    </g>
    <g id="xtick_20">
     <g id="line2d_20">
      <g>
       <use style="stroke:#000000;stroke-width:0.6;" x="405.884113" xlink:href="#m9a40182351" y="288.430125"/>
      </g>
     </g>
    </g>
    <g id="xtick_21">
     <g id="line2d_21">
      <g>
       <use style="stroke:#000000;stroke-width:0.6;" x="422.797242" xlink:href="#m9a40182351" y="288.430125"/>
      </g>
     </g>
    </g>
    <g id="xtick_22">
     <g id="line2d_22">
      <g>
       <use style="stroke:#000000;stroke-width:0.6;" x="537.45946" xlink:href="#m9a40182351" y="288.430125"/>
      </g>
     </g>
    </g>
    <g id="xtick_23">
     <g id="line2d_23">
      <g>
       <use style="stroke:#000000;stroke-width:0.6;" x="595.682479" xlink:href="#m9a40182351" y="288.430125"/>
      </g>
     </g>
    </g>
    <g id="xtick_24">
     <g id="line2d_24">
      <g>
       <use style="stroke:#000000;stroke-width:0.6;" x="636.992368" xlink:href="#m9a40182351" y="288.430125"/>
      </g>
     </g>
    </g>
    <g id="xtick_25">
     <g id="line2d_25">
      <g>
       <use style="stroke:#000000;stroke-width:0.6;" x="669.034807" xlink:href="#m9a40182351" y="288.430125"/>
      </g>
     </g>
    </g>
    <g id="xtick_26">
     <g id="line2d_26">
      <g>
       <use style="stroke:#000000;stroke-width:0.6;" x="695.215387" xlink:href="#m9a40182351" y="288.430125"/>
      </g>
     </g>
    </g>
    <g id="xtick_27">
     <g id="line2d_27">
      <g>
       <use style="stroke:#000000;stroke-width:0.6;" x="717.350751" xlink:href="#m9a40182351" y="288.430125"/>
      </g>
     </g>
    </g>
    <g id="xtick_28">
     <g id="line2d_28">
      <g>
       <use style="stroke:#000000;stroke-width:0.6;" x="736.525276" xlink:href="#m9a40182351" y="288.430125"/>
      </g>
     </g>
    </g>
    <g id="xtick_29">
     <g id="line2d_29">
      <g>
       <use style="stroke:#000000;stroke-width:0.6;" x="753.438405" xlink:href="#m9a40182351" y="288.430125"/>
      </g>
     </g>
    </g>
    <g id="text_13">
     <!-- Time (hour:minute) -->
     <g transform="translate(368.403594 316.706687)scale(0.1 -0.1)">
      <defs>
       <path d="M -19 4666 
L 3928 4666 
L 3928 4134 
L 2272 4134 
L 2272 0 
L 1638 0 
L 1638 4134 
L -19 4134 
L -19 4666 
z
" id="DejaVuSans-54" transform="scale(0.015625)"/>
       <path d="M 603 3500 
L 1178 3500 
L 1178 0 
L 603 0 
L 603 3500 
z
M 603 4863 
L 1178 4863 
L 1178 4134 
L 603 4134 
L 603 4863 
z
" id="DejaVuSans-69" transform="scale(0.015625)"/>
       <path d="M 3597 1894 
L 3597 1613 
L 953 1613 
Q 991 1019 1311 708 
Q 1631 397 2203 397 
Q 2534 397 2845 478 
Q 3156 559 3463 722 
L 3463 178 
Q 3153 47 2828 -22 
Q 2503 -91 2169 -91 
Q 1331 -91 842 396 
Q 353 884 353 1716 
Q 353 2575 817 3079 
Q 1281 3584 2069 3584 
Q 2775 3584 3186 3129 
Q 3597 2675 3597 1894 
z
M 3022 2063 
Q 3016 2534 2758 2815 
Q 2500 3097 2075 3097 
Q 1594 3097 1305 2825 
Q 1016 2553 972 2059 
L 3022 2063 
z
" id="DejaVuSans-65" transform="scale(0.015625)"/>
       <path id="DejaVuSans-20" transform="scale(0.015625)"/>
       <path d="M 1984 4856 
Q 1566 4138 1362 3434 
Q 1159 2731 1159 2009 
Q 1159 1288 1364 580 
Q 1569 -128 1984 -844 
L 1484 -844 
Q 1016 -109 783 600 
Q 550 1309 550 2009 
Q 550 2706 781 3412 
Q 1013 4119 1484 4856 
L 1984 4856 
z
" id="DejaVuSans-28" transform="scale(0.015625)"/>
       <path d="M 1959 3097 
Q 1497 3097 1228 2736 
Q 959 2375 959 1747 
Q 959 1119 1226 758 
Q 1494 397 1959 397 
Q 2419 397 2687 759 
Q 2956 1122 2956 1747 
Q 2956 2369 2687 2733 
Q 2419 3097 1959 3097 
z
M 1959 3584 
Q 2709 3584 3137 3096 
Q 3566 2609 3566 1747 
Q 3566 888 3137 398 
Q 2709 -91 1959 -91 
Q 1206 -91 779 398 
Q 353 888 353 1747 
Q 353 2609 779 3096 
Q 1206 3584 1959 3584 
z
" id="DejaVuSans-6f" transform="scale(0.015625)"/>
       <path d="M 544 1381 
L 544 3500 
L 1119 3500 
L 1119 1403 
Q 1119 906 1312 657 
Q 1506 409 1894 409 
Q 2359 409 2629 706 
Q 2900 1003 2900 1516 
L 2900 3500 
L 3475 3500 
L 3475 0 
L 2900 0 
L 2900 538 
Q 2691 219 2414 64 
Q 2138 -91 1772 -91 
Q 1169 -91 856 284 
Q 544 659 544 1381 
z
M 1991 3584 
L 1991 3584 
z
" id="DejaVuSans-75" transform="scale(0.015625)"/>
       <path d="M 2631 2963 
Q 2534 3019 2420 3045 
Q 2306 3072 2169 3072 
Q 1681 3072 1420 2755 
Q 1159 2438 1159 1844 
L 1159 0 
L 581 0 
L 581 3500 
L 1159 3500 
L 1159 2956 
Q 1341 3275 1631 3429 
Q 1922 3584 2338 3584 
Q 2397 3584 2469 3576 
Q 2541 3569 2628 3553 
L 2631 2963 
z
" id="DejaVuSans-72" transform="scale(0.015625)"/>
       <path d="M 3513 2113 
L 3513 0 
L 2938 0 
L 2938 2094 
Q 2938 2591 2744 2837 
Q 2550 3084 2163 3084 
Q 1697 3084 1428 2787 
Q 1159 2491 1159 1978 
L 1159 0 
L 581 0 
L 581 3500 
L 1159 3500 
L 1159 2956 
Q 1366 3272 1645 3428 
Q 1925 3584 2291 3584 
Q 2894 3584 3203 3211 
Q 3513 2838 3513 2113 
z
" id="DejaVuSans-6e" transform="scale(0.015625)"/>
       <path d="M 1172 4494 
L 1172 3500 
L 2356 3500 
L 2356 3053 
L 1172 3053 
L 1172 1153 
Q 1172 725 1289 603 
Q 1406 481 1766 481 
L 2356 481 
L 2356 0 
L 1766 0 
Q 1100 0 847 248 
Q 594 497 594 1153 
L 594 3053 
L 172 3053 
L 172 3500 
L 594 3500 
L 594 4494 
L 1172 4494 
z
" id="DejaVuSans-74" transform="scale(0.015625)"/>
       <path d="M 513 4856 
L 1013 4856 
Q 1481 4119 1714 3412 
Q 1947 2706 1947 2009 
Q 1947 1309 1714 600 
Q 1481 -109 1013 -844 
L 513 -844 
Q 928 -128 1133 580 
Q 1338 1288 1338 2009 
Q 1338 2731 1133 3434 
Q 928 4138 513 4856 
z
" id="DejaVuSans-29" transform="scale(0.015625)"/>
      </defs>
      <use xlink:href="#DejaVuSans-54"/>
      <use x="57.958984" xlink:href="#DejaVuSans-69"/>
      <use x="85.742188" xlink:href="#DejaVuSans-6d"/>
      <use x="183.154297" xlink:href="#DejaVuSans-65"/>
      <use x="244.677734" xlink:href="#DejaVuSans-20"/>
      <use x="276.464844" xlink:href="#DejaVuSans-28"/>
      <use x="315.478516" xlink:href="#DejaVuSans-68"/>
      <use x="378.857422" xlink:href="#DejaVuSans-6f"/>
      <use x="440.039062" xlink:href="#DejaVuSans-75"/>
      <use x="503.417969" xlink:href="#DejaVuSans-72"/>
      <use x="542.78125" xlink:href="#DejaVuSans-3a"/>
      <use x="576.472656" xlink:href="#DejaVuSans-6d"/>
      <use x="673.884766" xlink:href="#DejaVuSans-69"/>
      <use x="701.667969" xlink:href="#DejaVuSans-6e"/>
      <use x="765.046875" xlink:href="#DejaVuSans-75"/>
      <use x="828.425781" xlink:href="#DejaVuSans-74"/>
      <use x="867.634766" xlink:href="#DejaVuSans-65"/>
      <use x="929.158203" xlink:href="#DejaVuSans-29"/>
     </g>
    </g>
   </g>
   <g id="matplotlib.axis_2">
    <g id="ytick_1">
     <g id="line2d_30">
      <defs>
       <path d="M 0 0 
L -3.5 0 
" id="mb7c0053e0e" style="stroke:#000000;stroke-width:0.8;"/>
      </defs>
      <g>
       <use style="stroke:#000000;stroke-width:0.8;" x="59.690625" xlink:href="#mb7c0053e0e" y="256.46076"/>
      </g>
     </g>
     <g id="text_14">
      <!-- 7000 -->
      <g transform="translate(27.240625 260.259979)scale(0.1 -0.1)">
       <use xlink:href="#DejaVuSans-37"/>
       <use x="63.623047" xlink:href="#DejaVuSans-30"/>
       <use x="127.246094" xlink:href="#DejaVuSans-30"/>
       <use x="190.869141" xlink:href="#DejaVuSans-30"/>
      </g>
     </g>
    </g>
    <g id="ytick_2">
     <g id="line2d_31">
      <g>
       <use style="stroke:#000000;stroke-width:0.8;" x="59.690625" xlink:href="#mb7c0053e0e" y="201.863604"/>
      </g>
     </g>
     <g id="text_15">
      <!-- 8000 -->
      <g transform="translate(27.240625 205.662822)scale(0.1 -0.1)">
       <defs>
        <path d="M 2034 2216 
Q 1584 2216 1326 1975 
Q 1069 1734 1069 1313 
Q 1069 891 1326 650 
Q 1584 409 2034 409 
Q 2484 409 2743 651 
Q 3003 894 3003 1313 
Q 3003 1734 2745 1975 
Q 2488 2216 2034 2216 
z
M 1403 2484 
Q 997 2584 770 2862 
Q 544 3141 544 3541 
Q 544 4100 942 4425 
Q 1341 4750 2034 4750 
Q 2731 4750 3128 4425 
Q 3525 4100 3525 3541 
Q 3525 3141 3298 2862 
Q 3072 2584 2669 2484 
Q 3125 2378 3379 2068 
Q 3634 1759 3634 1313 
Q 3634 634 3220 271 
Q 2806 -91 2034 -91 
Q 1263 -91 848 271 
Q 434 634 434 1313 
Q 434 1759 690 2068 
Q 947 2378 1403 2484 
z
M 1172 3481 
Q 1172 3119 1398 2916 
Q 1625 2713 2034 2713 
Q 2441 2713 2670 2916 
Q 2900 3119 2900 3481 
Q 2900 3844 2670 4047 
Q 2441 4250 2034 4250 
Q 1625 4250 1398 4047 
Q 1172 3844 1172 3481 
z
" id="DejaVuSans-38" transform="scale(0.015625)"/>
       </defs>
       <use xlink:href="#DejaVuSans-38"/>
       <use x="63.623047" xlink:href="#DejaVuSans-30"/>
       <use x="127.246094" xlink:href="#DejaVuSans-30"/>
       <use x="190.869141" xlink:href="#DejaVuSans-30"/>
      </g>
     </g>
    </g>
    <g id="ytick_3">
     <g id="line2d_32">
      <g>
       <use style="stroke:#000000;stroke-width:0.8;" x="59.690625" xlink:href="#mb7c0053e0e" y="147.266447"/>
      </g>
     </g>
     <g id="text_16">
      <!-- 9000 -->
      <g transform="translate(27.240625 151.065666)scale(0.1 -0.1)">
       <defs>
        <path d="M 703 97 
L 703 672 
Q 941 559 1184 500 
Q 1428 441 1663 441 
Q 2288 441 2617 861 
Q 2947 1281 2994 2138 
Q 2813 1869 2534 1725 
Q 2256 1581 1919 1581 
Q 1219 1581 811 2004 
Q 403 2428 403 3163 
Q 403 3881 828 4315 
Q 1253 4750 1959 4750 
Q 2769 4750 3195 4129 
Q 3622 3509 3622 2328 
Q 3622 1225 3098 567 
Q 2575 -91 1691 -91 
Q 1453 -91 1209 -44 
Q 966 3 703 97 
z
M 1959 2075 
Q 2384 2075 2632 2365 
Q 2881 2656 2881 3163 
Q 2881 3666 2632 3958 
Q 2384 4250 1959 4250 
Q 1534 4250 1286 3958 
Q 1038 3666 1038 3163 
Q 1038 2656 1286 2365 
Q 1534 2075 1959 2075 
z
" id="DejaVuSans-39" transform="scale(0.015625)"/>
       </defs>
       <use xlink:href="#DejaVuSans-39"/>
       <use x="63.623047" xlink:href="#DejaVuSans-30"/>
       <use x="127.246094" xlink:href="#DejaVuSans-30"/>
       <use x="190.869141" xlink:href="#DejaVuSans-30"/>
      </g>
     </g>
    </g>
    <g id="ytick_4">
     <g id="line2d_33">
      <g>
       <use style="stroke:#000000;stroke-width:0.8;" x="59.690625" xlink:href="#mb7c0053e0e" y="92.669291"/>
      </g>
     </g>
     <g id="text_17">
      <!-- 10000 -->
      <g transform="translate(20.878125 96.46851)scale(0.1 -0.1)">
       <use xlink:href="#DejaVuSans-31"/>
       <use x="63.623047" xlink:href="#DejaVuSans-30"/>
       <use x="127.246094" xlink:href="#DejaVuSans-30"/>
       <use x="190.869141" xlink:href="#DejaVuSans-30"/>
       <use x="254.492188" xlink:href="#DejaVuSans-30"/>
      </g>
     </g>
    </g>
    <g id="ytick_5">
     <g id="line2d_34">
      <g>
       <use style="stroke:#000000;stroke-width:0.8;" x="59.690625" xlink:href="#mb7c0053e0e" y="38.072134"/>
      </g>
     </g>
     <g id="text_18">
      <!-- 11000 -->
      <g transform="translate(20.878125 41.871353)scale(0.1 -0.1)">
       <use xlink:href="#DejaVuSans-31"/>
       <use x="63.623047" xlink:href="#DejaVuSans-31"/>
       <use x="127.246094" xlink:href="#DejaVuSans-30"/>
       <use x="190.869141" xlink:href="#DejaVuSans-30"/>
       <use x="254.492188" xlink:href="#DejaVuSans-30"/>
      </g>
     </g>
    </g>
    <g id="text_19">
     <!-- Code branch coverage -->
     <g transform="translate(14.798438 211.949125)rotate(-90)scale(0.1 -0.1)">
      <defs>
       <path d="M 4122 4306 
L 4122 3641 
Q 3803 3938 3442 4084 
Q 3081 4231 2675 4231 
Q 1875 4231 1450 3742 
Q 1025 3253 1025 2328 
Q 1025 1406 1450 917 
Q 1875 428 2675 428 
Q 3081 428 3442 575 
Q 3803 722 4122 1019 
L 4122 359 
Q 3791 134 3420 21 
Q 3050 -91 2638 -91 
Q 1578 -91 968 557 
Q 359 1206 359 2328 
Q 359 3453 968 4101 
Q 1578 4750 2638 4750 
Q 3056 4750 3426 4639 
Q 3797 4528 4122 4306 
z
" id="DejaVuSans-43" transform="scale(0.015625)"/>
       <path d="M 2906 2969 
L 2906 4863 
L 3481 4863 
L 3481 0 
L 2906 0 
L 2906 525 
Q 2725 213 2448 61 
Q 2172 -91 1784 -91 
Q 1150 -91 751 415 
Q 353 922 353 1747 
Q 353 2572 751 3078 
Q 1150 3584 1784 3584 
Q 2172 3584 2448 3432 
Q 2725 3281 2906 2969 
z
M 947 1747 
Q 947 1113 1208 752 
Q 1469 391 1925 391 
Q 2381 391 2643 752 
Q 2906 1113 2906 1747 
Q 2906 2381 2643 2742 
Q 2381 3103 1925 3103 
Q 1469 3103 1208 2742 
Q 947 2381 947 1747 
z
" id="DejaVuSans-64" transform="scale(0.015625)"/>
       <path d="M 3116 1747 
Q 3116 2381 2855 2742 
Q 2594 3103 2138 3103 
Q 1681 3103 1420 2742 
Q 1159 2381 1159 1747 
Q 1159 1113 1420 752 
Q 1681 391 2138 391 
Q 2594 391 2855 752 
Q 3116 1113 3116 1747 
z
M 1159 2969 
Q 1341 3281 1617 3432 
Q 1894 3584 2278 3584 
Q 2916 3584 3314 3078 
Q 3713 2572 3713 1747 
Q 3713 922 3314 415 
Q 2916 -91 2278 -91 
Q 1894 -91 1617 61 
Q 1341 213 1159 525 
L 1159 0 
L 581 0 
L 581 4863 
L 1159 4863 
L 1159 2969 
z
" id="DejaVuSans-62" transform="scale(0.015625)"/>
       <path d="M 2194 1759 
Q 1497 1759 1228 1600 
Q 959 1441 959 1056 
Q 959 750 1161 570 
Q 1363 391 1709 391 
Q 2188 391 2477 730 
Q 2766 1069 2766 1631 
L 2766 1759 
L 2194 1759 
z
M 3341 1997 
L 3341 0 
L 2766 0 
L 2766 531 
Q 2569 213 2275 61 
Q 1981 -91 1556 -91 
Q 1019 -91 701 211 
Q 384 513 384 1019 
Q 384 1609 779 1909 
Q 1175 2209 1959 2209 
L 2766 2209 
L 2766 2266 
Q 2766 2663 2505 2880 
Q 2244 3097 1772 3097 
Q 1472 3097 1187 3025 
Q 903 2953 641 2809 
L 641 3341 
Q 956 3463 1253 3523 
Q 1550 3584 1831 3584 
Q 2591 3584 2966 3190 
Q 3341 2797 3341 1997 
z
" id="DejaVuSans-61" transform="scale(0.015625)"/>
       <path d="M 3122 3366 
L 3122 2828 
Q 2878 2963 2633 3030 
Q 2388 3097 2138 3097 
Q 1578 3097 1268 2742 
Q 959 2388 959 1747 
Q 959 1106 1268 751 
Q 1578 397 2138 397 
Q 2388 397 2633 464 
Q 2878 531 3122 666 
L 3122 134 
Q 2881 22 2623 -34 
Q 2366 -91 2075 -91 
Q 1284 -91 818 406 
Q 353 903 353 1747 
Q 353 2603 823 3093 
Q 1294 3584 2113 3584 
Q 2378 3584 2631 3529 
Q 2884 3475 3122 3366 
z
" id="DejaVuSans-63" transform="scale(0.015625)"/>
       <path d="M 191 3500 
L 800 3500 
L 1894 563 
L 2988 3500 
L 3597 3500 
L 2284 0 
L 1503 0 
L 191 3500 
z
" id="DejaVuSans-76" transform="scale(0.015625)"/>
       <path d="M 2906 1791 
Q 2906 2416 2648 2759 
Q 2391 3103 1925 3103 
Q 1463 3103 1205 2759 
Q 947 2416 947 1791 
Q 947 1169 1205 825 
Q 1463 481 1925 481 
Q 2391 481 2648 825 
Q 2906 1169 2906 1791 
z
M 3481 434 
Q 3481 -459 3084 -895 
Q 2688 -1331 1869 -1331 
Q 1566 -1331 1297 -1286 
Q 1028 -1241 775 -1147 
L 775 -588 
Q 1028 -725 1275 -790 
Q 1522 -856 1778 -856 
Q 2344 -856 2625 -561 
Q 2906 -266 2906 331 
L 2906 616 
Q 2728 306 2450 153 
Q 2172 0 1784 0 
Q 1141 0 747 490 
Q 353 981 353 1791 
Q 353 2603 747 3093 
Q 1141 3584 1784 3584 
Q 2172 3584 2450 3431 
Q 2728 3278 2906 2969 
L 2906 3500 
L 3481 3500 
L 3481 434 
z
" id="DejaVuSans-67" transform="scale(0.015625)"/>
      </defs>
      <use xlink:href="#DejaVuSans-43"/>
      <use x="69.824219" xlink:href="#DejaVuSans-6f"/>
      <use x="131.005859" xlink:href="#DejaVuSans-64"/>
      <use x="194.482422" xlink:href="#DejaVuSans-65"/>
      <use x="256.005859" xlink:href="#DejaVuSans-20"/>
      <use x="287.792969" xlink:href="#DejaVuSans-62"/>
      <use x="351.269531" xlink:href="#DejaVuSans-72"/>
      <use x="392.382812" xlink:href="#DejaVuSans-61"/>
      <use x="453.662109" xlink:href="#DejaVuSans-6e"/>
      <use x="517.041016" xlink:href="#DejaVuSans-63"/>
      <use x="572.021484" xlink:href="#DejaVuSans-68"/>
      <use x="635.400391" xlink:href="#DejaVuSans-20"/>
      <use x="667.1875" xlink:href="#DejaVuSans-63"/>
      <use x="722.167969" xlink:href="#DejaVuSans-6f"/>
      <use x="783.349609" xlink:href="#DejaVuSans-76"/>
      <use x="842.529297" xlink:href="#DejaVuSans-65"/>
      <use x="904.052734" xlink:href="#DejaVuSans-72"/>
      <use x="945.166016" xlink:href="#DejaVuSans-61"/>
      <use x="1006.445312" xlink:href="#DejaVuSans-67"/>
      <use x="1069.921875" xlink:href="#DejaVuSans-65"/>
     </g>
    </g>
   </g>
   <g id="line2d_35">
    <path clip-path="url(#pbcffd39592)" d="M 92.15608 259.436305 
L 191.688987 220.75422 
L 249.912006 214.666637 
L 291.221895 205.166732 
L 323.264335 197.413935 
L 349.444914 192.663983 
L 371.580278 187.231566 
L 390.754803 183.928438 
L 407.667933 177.786258 
L 422.797242 159.49621 
L 436.483368 155.537916 
L 448.977822 152.098296 
L 460.471605 147.894315 
L 471.113186 143.471945 
L 481.020261 140.250713 
L 490.287711 134.982087 
L 498.993142 132.416021 
L 507.20084 126.219243 
L 514.964657 125.372988 
L 522.33015 124.581329 
L 529.336205 123.59858 
L 536.016276 122.943414 
L 542.399355 115.217916 
L 548.51073 114.590049 
L 554.37259 114.18057 
L 560.004513 108.092988 
L 565.423859 106.018296 
L 570.646094 104.243888 
L 575.685054 101.404836 
L 580.553169 101.104552 
L 585.261644 99.958011 
L 589.820619 91.877632 
L 594.239294 86.718201 
L 598.52605 86.281424 
L 602.688533 86.199528 
L 606.733748 85.981139 
L 610.668121 85.899243 
L 614.497565 83.66076 
L 618.227531 83.196684 
L 621.863058 83.114789 
L 625.408809 82.678011 
L 628.869113 82.350428 
L 632.247989 81.722561 
L 635.549184 81.231187 
L 638.776188 80.958201 
L 641.932263 80.794409 
L 645.02046 80.685215 
L 648.043637 78.419433 
L 651.004477 77.300191 
L 653.905497 77.300191 
L 656.749068 77.300191 
L 659.537421 77.218296 
L 662.272658 77.218296 
L 664.956767 77.054504 
L 667.591623 77.027206 
L 670.179002 76.972608 
L 672.720584 76.836116 
L 675.217962 76.75422 
L 677.672648 76.535831 
L 680.086077 75.170902 
L 682.459612 74.488438 
L 684.794552 74.242751 
L 687.092131 74.078959 
L 689.353527 74.078959 
L 691.57986 74.024362 
L 693.772202 74.024362 
L 695.931576 69.001424 
L 698.058957 63.077632 
L 700.155281 62.449765 
L 702.221441 62.176779 
L 704.258293 49.564836 
L 706.266656 49.537537 
L 708.247317 49.48294 
L 710.201029 49.48294 
L 712.128516 49.455642 
L 714.030473 49.428343 
L 715.907567 49.046163 
L 717.760439 48.991566 
L 719.589708 48.90967 
L 721.395966 47.435547 
L 723.179786 46.916874 
L 724.941717 46.916874 
L 726.682292 46.862277 
L 728.40202 46.862277 
L 730.101397 46.753082 
L 731.780897 46.753082 
L 733.440981 46.753082 
L 735.082091 45.142466 
L 736.704658 43.34076 
L 738.309095 43.231566 
L 739.895804 43.095073 
L 741.46517 42.95858 
" style="fill:none;stroke:#1f77b4;stroke-linecap:square;stroke-width:1.5;"/>
    <defs>
     <path d="M 0 3 
C 0.795609 3 1.55874 2.683901 2.12132 2.12132 
C 2.683901 1.55874 3 0.795609 3 0 
C 3 -0.795609 2.683901 -1.55874 2.12132 -2.12132 
C 1.55874 -2.683901 0.795609 -3 0 -3 
C -0.795609 -3 -1.55874 -2.683901 -2.12132 -2.12132 
C -2.683901 -1.55874 -3 -0.795609 -3 0 
C -3 0.795609 -2.683901 1.55874 -2.12132 2.12132 
C -1.55874 2.683901 -0.795609 3 0 3 
z
" id="m28551ffacf" style="stroke:#ffffff;stroke-width:0.75;"/>
    </defs>
    <g clip-path="url(#pbcffd39592)">
     <use style="fill:#1f77b4;stroke:#ffffff;stroke-width:0.75;" x="92.15608" xlink:href="#m28551ffacf" y="259.436305"/>
     <use style="fill:#1f77b4;stroke:#ffffff;stroke-width:0.75;" x="191.688987" xlink:href="#m28551ffacf" y="220.75422"/>
     <use style="fill:#1f77b4;stroke:#ffffff;stroke-width:0.75;" x="249.912006" xlink:href="#m28551ffacf" y="214.666637"/>
     <use style="fill:#1f77b4;stroke:#ffffff;stroke-width:0.75;" x="291.221895" xlink:href="#m28551ffacf" y="205.166732"/>
     <use style="fill:#1f77b4;stroke:#ffffff;stroke-width:0.75;" x="323.264335" xlink:href="#m28551ffacf" y="197.413935"/>
     <use style="fill:#1f77b4;stroke:#ffffff;stroke-width:0.75;" x="349.444914" xlink:href="#m28551ffacf" y="192.663983"/>
     <use style="fill:#1f77b4;stroke:#ffffff;stroke-width:0.75;" x="371.580278" xlink:href="#m28551ffacf" y="187.231566"/>
     <use style="fill:#1f77b4;stroke:#ffffff;stroke-width:0.75;" x="390.754803" xlink:href="#m28551ffacf" y="183.928438"/>
     <use style="fill:#1f77b4;stroke:#ffffff;stroke-width:0.75;" x="407.667933" xlink:href="#m28551ffacf" y="177.786258"/>
     <use style="fill:#1f77b4;stroke:#ffffff;stroke-width:0.75;" x="422.797242" xlink:href="#m28551ffacf" y="159.49621"/>
     <use style="fill:#1f77b4;stroke:#ffffff;stroke-width:0.75;" x="436.483368" xlink:href="#m28551ffacf" y="155.537916"/>
     <use style="fill:#1f77b4;stroke:#ffffff;stroke-width:0.75;" x="448.977822" xlink:href="#m28551ffacf" y="152.098296"/>
     <use style="fill:#1f77b4;stroke:#ffffff;stroke-width:0.75;" x="460.471605" xlink:href="#m28551ffacf" y="147.894315"/>
     <use style="fill:#1f77b4;stroke:#ffffff;stroke-width:0.75;" x="471.113186" xlink:href="#m28551ffacf" y="143.471945"/>
     <use style="fill:#1f77b4;stroke:#ffffff;stroke-width:0.75;" x="481.020261" xlink:href="#m28551ffacf" y="140.250713"/>
     <use style="fill:#1f77b4;stroke:#ffffff;stroke-width:0.75;" x="490.287711" xlink:href="#m28551ffacf" y="134.982087"/>
     <use style="fill:#1f77b4;stroke:#ffffff;stroke-width:0.75;" x="498.993142" xlink:href="#m28551ffacf" y="132.416021"/>
     <use style="fill:#1f77b4;stroke:#ffffff;stroke-width:0.75;" x="507.20084" xlink:href="#m28551ffacf" y="126.219243"/>
     <use style="fill:#1f77b4;stroke:#ffffff;stroke-width:0.75;" x="514.964657" xlink:href="#m28551ffacf" y="125.372988"/>
     <use style="fill:#1f77b4;stroke:#ffffff;stroke-width:0.75;" x="522.33015" xlink:href="#m28551ffacf" y="124.581329"/>
     <use style="fill:#1f77b4;stroke:#ffffff;stroke-width:0.75;" x="529.336205" xlink:href="#m28551ffacf" y="123.59858"/>
     <use style="fill:#1f77b4;stroke:#ffffff;stroke-width:0.75;" x="536.016276" xlink:href="#m28551ffacf" y="122.943414"/>
     <use style="fill:#1f77b4;stroke:#ffffff;stroke-width:0.75;" x="542.399355" xlink:href="#m28551ffacf" y="115.217916"/>
     <use style="fill:#1f77b4;stroke:#ffffff;stroke-width:0.75;" x="548.51073" xlink:href="#m28551ffacf" y="114.590049"/>
     <use style="fill:#1f77b4;stroke:#ffffff;stroke-width:0.75;" x="554.37259" xlink:href="#m28551ffacf" y="114.18057"/>
     <use style="fill:#1f77b4;stroke:#ffffff;stroke-width:0.75;" x="560.004513" xlink:href="#m28551ffacf" y="108.092988"/>
     <use style="fill:#1f77b4;stroke:#ffffff;stroke-width:0.75;" x="565.423859" xlink:href="#m28551ffacf" y="106.018296"/>
     <use style="fill:#1f77b4;stroke:#ffffff;stroke-width:0.75;" x="570.646094" xlink:href="#m28551ffacf" y="104.243888"/>
     <use style="fill:#1f77b4;stroke:#ffffff;stroke-width:0.75;" x="575.685054" xlink:href="#m28551ffacf" y="101.404836"/>
     <use style="fill:#1f77b4;stroke:#ffffff;stroke-width:0.75;" x="580.553169" xlink:href="#m28551ffacf" y="101.104552"/>
     <use style="fill:#1f77b4;stroke:#ffffff;stroke-width:0.75;" x="585.261644" xlink:href="#m28551ffacf" y="99.958011"/>
     <use style="fill:#1f77b4;stroke:#ffffff;stroke-width:0.75;" x="589.820619" xlink:href="#m28551ffacf" y="91.877632"/>
     <use style="fill:#1f77b4;stroke:#ffffff;stroke-width:0.75;" x="594.239294" xlink:href="#m28551ffacf" y="86.718201"/>
     <use style="fill:#1f77b4;stroke:#ffffff;stroke-width:0.75;" x="598.52605" xlink:href="#m28551ffacf" y="86.281424"/>
     <use style="fill:#1f77b4;stroke:#ffffff;stroke-width:0.75;" x="602.688533" xlink:href="#m28551ffacf" y="86.199528"/>
     <use style="fill:#1f77b4;stroke:#ffffff;stroke-width:0.75;" x="606.733748" xlink:href="#m28551ffacf" y="85.981139"/>
     <use style="fill:#1f77b4;stroke:#ffffff;stroke-width:0.75;" x="610.668121" xlink:href="#m28551ffacf" y="85.899243"/>
     <use style="fill:#1f77b4;stroke:#ffffff;stroke-width:0.75;" x="614.497565" xlink:href="#m28551ffacf" y="83.66076"/>
     <use style="fill:#1f77b4;stroke:#ffffff;stroke-width:0.75;" x="618.227531" xlink:href="#m28551ffacf" y="83.196684"/>
     <use style="fill:#1f77b4;stroke:#ffffff;stroke-width:0.75;" x="621.863058" xlink:href="#m28551ffacf" y="83.114789"/>
     <use style="fill:#1f77b4;stroke:#ffffff;stroke-width:0.75;" x="625.408809" xlink:href="#m28551ffacf" y="82.678011"/>
     <use style="fill:#1f77b4;stroke:#ffffff;stroke-width:0.75;" x="628.869113" xlink:href="#m28551ffacf" y="82.350428"/>
     <use style="fill:#1f77b4;stroke:#ffffff;stroke-width:0.75;" x="632.247989" xlink:href="#m28551ffacf" y="81.722561"/>
     <use style="fill:#1f77b4;stroke:#ffffff;stroke-width:0.75;" x="635.549184" xlink:href="#m28551ffacf" y="81.231187"/>
     <use style="fill:#1f77b4;stroke:#ffffff;stroke-width:0.75;" x="638.776188" xlink:href="#m28551ffacf" y="80.958201"/>
     <use style="fill:#1f77b4;stroke:#ffffff;stroke-width:0.75;" x="641.932263" xlink:href="#m28551ffacf" y="80.794409"/>
     <use style="fill:#1f77b4;stroke:#ffffff;stroke-width:0.75;" x="645.02046" xlink:href="#m28551ffacf" y="80.685215"/>
     <use style="fill:#1f77b4;stroke:#ffffff;stroke-width:0.75;" x="648.043637" xlink:href="#m28551ffacf" y="78.419433"/>
     <use style="fill:#1f77b4;stroke:#ffffff;stroke-width:0.75;" x="651.004477" xlink:href="#m28551ffacf" y="77.300191"/>
     <use style="fill:#1f77b4;stroke:#ffffff;stroke-width:0.75;" x="653.905497" xlink:href="#m28551ffacf" y="77.300191"/>
     <use style="fill:#1f77b4;stroke:#ffffff;stroke-width:0.75;" x="656.749068" xlink:href="#m28551ffacf" y="77.300191"/>
     <use style="fill:#1f77b4;stroke:#ffffff;stroke-width:0.75;" x="659.537421" xlink:href="#m28551ffacf" y="77.218296"/>
     <use style="fill:#1f77b4;stroke:#ffffff;stroke-width:0.75;" x="662.272658" xlink:href="#m28551ffacf" y="77.218296"/>
     <use style="fill:#1f77b4;stroke:#ffffff;stroke-width:0.75;" x="664.956767" xlink:href="#m28551ffacf" y="77.054504"/>
     <use style="fill:#1f77b4;stroke:#ffffff;stroke-width:0.75;" x="667.591623" xlink:href="#m28551ffacf" y="77.027206"/>
     <use style="fill:#1f77b4;stroke:#ffffff;stroke-width:0.75;" x="670.179002" xlink:href="#m28551ffacf" y="76.972608"/>
     <use style="fill:#1f77b4;stroke:#ffffff;stroke-width:0.75;" x="672.720584" xlink:href="#m28551ffacf" y="76.836116"/>
     <use style="fill:#1f77b4;stroke:#ffffff;stroke-width:0.75;" x="675.217962" xlink:href="#m28551ffacf" y="76.75422"/>
     <use style="fill:#1f77b4;stroke:#ffffff;stroke-width:0.75;" x="677.672648" xlink:href="#m28551ffacf" y="76.535831"/>
     <use style="fill:#1f77b4;stroke:#ffffff;stroke-width:0.75;" x="680.086077" xlink:href="#m28551ffacf" y="75.170902"/>
     <use style="fill:#1f77b4;stroke:#ffffff;stroke-width:0.75;" x="682.459612" xlink:href="#m28551ffacf" y="74.488438"/>
     <use style="fill:#1f77b4;stroke:#ffffff;stroke-width:0.75;" x="684.794552" xlink:href="#m28551ffacf" y="74.242751"/>
     <use style="fill:#1f77b4;stroke:#ffffff;stroke-width:0.75;" x="687.092131" xlink:href="#m28551ffacf" y="74.078959"/>
     <use style="fill:#1f77b4;stroke:#ffffff;stroke-width:0.75;" x="689.353527" xlink:href="#m28551ffacf" y="74.078959"/>
     <use style="fill:#1f77b4;stroke:#ffffff;stroke-width:0.75;" x="691.57986" xlink:href="#m28551ffacf" y="74.024362"/>
     <use style="fill:#1f77b4;stroke:#ffffff;stroke-width:0.75;" x="693.772202" xlink:href="#m28551ffacf" y="74.024362"/>
     <use style="fill:#1f77b4;stroke:#ffffff;stroke-width:0.75;" x="695.931576" xlink:href="#m28551ffacf" y="69.001424"/>
     <use style="fill:#1f77b4;stroke:#ffffff;stroke-width:0.75;" x="698.058957" xlink:href="#m28551ffacf" y="63.077632"/>
     <use style="fill:#1f77b4;stroke:#ffffff;stroke-width:0.75;" x="700.155281" xlink:href="#m28551ffacf" y="62.449765"/>
     <use style="fill:#1f77b4;stroke:#ffffff;stroke-width:0.75;" x="702.221441" xlink:href="#m28551ffacf" y="62.176779"/>
     <use style="fill:#1f77b4;stroke:#ffffff;stroke-width:0.75;" x="704.258293" xlink:href="#m28551ffacf" y="49.564836"/>
     <use style="fill:#1f77b4;stroke:#ffffff;stroke-width:0.75;" x="706.266656" xlink:href="#m28551ffacf" y="49.537537"/>
     <use style="fill:#1f77b4;stroke:#ffffff;stroke-width:0.75;" x="708.247317" xlink:href="#m28551ffacf" y="49.48294"/>
     <use style="fill:#1f77b4;stroke:#ffffff;stroke-width:0.75;" x="710.201029" xlink:href="#m28551ffacf" y="49.48294"/>
     <use style="fill:#1f77b4;stroke:#ffffff;stroke-width:0.75;" x="712.128516" xlink:href="#m28551ffacf" y="49.455642"/>
     <use style="fill:#1f77b4;stroke:#ffffff;stroke-width:0.75;" x="714.030473" xlink:href="#m28551ffacf" y="49.428343"/>
     <use style="fill:#1f77b4;stroke:#ffffff;stroke-width:0.75;" x="715.907567" xlink:href="#m28551ffacf" y="49.046163"/>
     <use style="fill:#1f77b4;stroke:#ffffff;stroke-width:0.75;" x="717.760439" xlink:href="#m28551ffacf" y="48.991566"/>
     <use style="fill:#1f77b4;stroke:#ffffff;stroke-width:0.75;" x="719.589708" xlink:href="#m28551ffacf" y="48.90967"/>
     <use style="fill:#1f77b4;stroke:#ffffff;stroke-width:0.75;" x="721.395966" xlink:href="#m28551ffacf" y="47.435547"/>
     <use style="fill:#1f77b4;stroke:#ffffff;stroke-width:0.75;" x="723.179786" xlink:href="#m28551ffacf" y="46.916874"/>
     <use style="fill:#1f77b4;stroke:#ffffff;stroke-width:0.75;" x="724.941717" xlink:href="#m28551ffacf" y="46.916874"/>
     <use style="fill:#1f77b4;stroke:#ffffff;stroke-width:0.75;" x="726.682292" xlink:href="#m28551ffacf" y="46.862277"/>
     <use style="fill:#1f77b4;stroke:#ffffff;stroke-width:0.75;" x="728.40202" xlink:href="#m28551ffacf" y="46.862277"/>
     <use style="fill:#1f77b4;stroke:#ffffff;stroke-width:0.75;" x="730.101397" xlink:href="#m28551ffacf" y="46.753082"/>
     <use style="fill:#1f77b4;stroke:#ffffff;stroke-width:0.75;" x="731.780897" xlink:href="#m28551ffacf" y="46.753082"/>
     <use style="fill:#1f77b4;stroke:#ffffff;stroke-width:0.75;" x="733.440981" xlink:href="#m28551ffacf" y="46.753082"/>
     <use style="fill:#1f77b4;stroke:#ffffff;stroke-width:0.75;" x="735.082091" xlink:href="#m28551ffacf" y="45.142466"/>
     <use style="fill:#1f77b4;stroke:#ffffff;stroke-width:0.75;" x="736.704658" xlink:href="#m28551ffacf" y="43.34076"/>
     <use style="fill:#1f77b4;stroke:#ffffff;stroke-width:0.75;" x="738.309095" xlink:href="#m28551ffacf" y="43.231566"/>
     <use style="fill:#1f77b4;stroke:#ffffff;stroke-width:0.75;" x="739.895804" xlink:href="#m28551ffacf" y="43.095073"/>
     <use style="fill:#1f77b4;stroke:#ffffff;stroke-width:0.75;" x="741.46517" xlink:href="#m28551ffacf" y="42.95858"/>
    </g>
   </g>
   <g id="line2d_36">
    <path clip-path="url(#pbcffd39592)" d="M 92.15608 268.226447 
L 191.688987 255.50531 
L 249.912006 241.801424 
L 291.221895 236.723888 
L 323.264335 233.42076 
L 349.444914 227.251281 
L 371.580278 226.623414 
L 390.754803 226.077443 
L 407.667933 221.354789 
L 422.797242 208.415262 
L 436.483368 205.903793 
L 448.977822 203.692608 
L 460.471605 202.764457 
L 471.113186 201.290334 
L 481.020261 190.643888 
L 490.287711 189.824931 
L 498.993142 189.360855 
L 507.20084 183.682751 
L 514.964657 181.00749 
L 522.33015 179.942845 
L 529.336205 179.779054 
L 536.016276 171.098106 
L 542.399355 170.006163 
L 548.51073 167.549291 
L 554.37259 165.556495 
L 560.004513 164.218864 
L 565.423859 163.5364 
L 570.646094 160.642751 
L 575.685054 160.533556 
L 580.553169 158.322371 
L 585.261644 158.322371 
L 589.820619 158.049386 
L 594.239294 157.749101 
L 598.52605 157.612608 
L 602.688533 157.612608 
L 606.733748 157.612608 
L 610.668121 157.58531 
L 614.497565 157.58531 
L 618.227531 156.957443 
L 621.863058 156.43877 
L 625.408809 154.555168 
L 628.869113 154.364078 
L 632.247989 151.224741 
L 635.549184 150.733367 
L 638.776188 148.904362 
L 641.932263 148.767869 
L 645.02046 148.631376 
L 648.043637 148.604078 
L 651.004477 145.655831 
L 653.905497 145.464741 
L 656.749068 145.273651 
L 659.537421 145.273651 
L 662.272658 145.191755 
L 664.956767 145.191755 
L 667.591623 145.191755 
L 670.179002 145.191755 
L 672.720584 145.191755 
L 675.217962 145.164457 
L 677.672648 145.164457 
L 680.086077 145.082561 
L 682.459612 145.000665 
L 684.794552 145.000665 
L 687.092131 144.536589 
L 689.353527 131.242182 
L 691.57986 131.214883 
L 693.772202 131.214883 
L 695.931576 131.214883 
L 698.058957 130.641613 
L 700.155281 130.641613 
L 702.221441 130.641613 
L 704.258293 130.641613 
L 706.266656 130.641613 
L 708.247317 122.26095 
L 710.201029 122.26095 
L 712.128516 122.151755 
L 714.030473 121.933367 
L 715.907567 121.851471 
L 717.760439 118.712134 
L 719.589708 116.064172 
L 721.395966 116.064172 
L 723.179786 116.064172 
L 724.941717 116.064172 
L 726.682292 116.036874 
L 728.40202 116.036874 
L 730.101397 114.398959 
L 731.780897 113.880286 
L 733.440981 113.880286 
L 735.082091 113.41621 
L 736.704658 113.388912 
L 738.309095 113.197822 
L 739.895804 112.624552 
L 741.46517 112.07858 
" style="fill:none;stroke:#98df8a;stroke-linecap:square;stroke-width:1.5;"/>
    <defs>
     <path d="M -0 3 
L 3 -3 
L -3 -3 
z
" id="mbe4dafaf0f" style="stroke:#ffffff;stroke-linejoin:miter;stroke-width:0.75;"/>
    </defs>
    <g clip-path="url(#pbcffd39592)">
     <use style="fill:#98df8a;stroke:#ffffff;stroke-linejoin:miter;stroke-width:0.75;" x="92.15608" xlink:href="#mbe4dafaf0f" y="268.226447"/>
     <use style="fill:#98df8a;stroke:#ffffff;stroke-linejoin:miter;stroke-width:0.75;" x="191.688987" xlink:href="#mbe4dafaf0f" y="255.50531"/>
     <use style="fill:#98df8a;stroke:#ffffff;stroke-linejoin:miter;stroke-width:0.75;" x="249.912006" xlink:href="#mbe4dafaf0f" y="241.801424"/>
     <use style="fill:#98df8a;stroke:#ffffff;stroke-linejoin:miter;stroke-width:0.75;" x="291.221895" xlink:href="#mbe4dafaf0f" y="236.723888"/>
     <use style="fill:#98df8a;stroke:#ffffff;stroke-linejoin:miter;stroke-width:0.75;" x="323.264335" xlink:href="#mbe4dafaf0f" y="233.42076"/>
     <use style="fill:#98df8a;stroke:#ffffff;stroke-linejoin:miter;stroke-width:0.75;" x="349.444914" xlink:href="#mbe4dafaf0f" y="227.251281"/>
     <use style="fill:#98df8a;stroke:#ffffff;stroke-linejoin:miter;stroke-width:0.75;" x="371.580278" xlink:href="#mbe4dafaf0f" y="226.623414"/>
     <use style="fill:#98df8a;stroke:#ffffff;stroke-linejoin:miter;stroke-width:0.75;" x="390.754803" xlink:href="#mbe4dafaf0f" y="226.077443"/>
     <use style="fill:#98df8a;stroke:#ffffff;stroke-linejoin:miter;stroke-width:0.75;" x="407.667933" xlink:href="#mbe4dafaf0f" y="221.354789"/>
     <use style="fill:#98df8a;stroke:#ffffff;stroke-linejoin:miter;stroke-width:0.75;" x="422.797242" xlink:href="#mbe4dafaf0f" y="208.415262"/>
     <use style="fill:#98df8a;stroke:#ffffff;stroke-linejoin:miter;stroke-width:0.75;" x="436.483368" xlink:href="#mbe4dafaf0f" y="205.903793"/>
     <use style="fill:#98df8a;stroke:#ffffff;stroke-linejoin:miter;stroke-width:0.75;" x="448.977822" xlink:href="#mbe4dafaf0f" y="203.692608"/>
     <use style="fill:#98df8a;stroke:#ffffff;stroke-linejoin:miter;stroke-width:0.75;" x="460.471605" xlink:href="#mbe4dafaf0f" y="202.764457"/>
     <use style="fill:#98df8a;stroke:#ffffff;stroke-linejoin:miter;stroke-width:0.75;" x="471.113186" xlink:href="#mbe4dafaf0f" y="201.290334"/>
     <use style="fill:#98df8a;stroke:#ffffff;stroke-linejoin:miter;stroke-width:0.75;" x="481.020261" xlink:href="#mbe4dafaf0f" y="190.643888"/>
     <use style="fill:#98df8a;stroke:#ffffff;stroke-linejoin:miter;stroke-width:0.75;" x="490.287711" xlink:href="#mbe4dafaf0f" y="189.824931"/>
     <use style="fill:#98df8a;stroke:#ffffff;stroke-linejoin:miter;stroke-width:0.75;" x="498.993142" xlink:href="#mbe4dafaf0f" y="189.360855"/>
     <use style="fill:#98df8a;stroke:#ffffff;stroke-linejoin:miter;stroke-width:0.75;" x="507.20084" xlink:href="#mbe4dafaf0f" y="183.682751"/>
     <use style="fill:#98df8a;stroke:#ffffff;stroke-linejoin:miter;stroke-width:0.75;" x="514.964657" xlink:href="#mbe4dafaf0f" y="181.00749"/>
     <use style="fill:#98df8a;stroke:#ffffff;stroke-linejoin:miter;stroke-width:0.75;" x="522.33015" xlink:href="#mbe4dafaf0f" y="179.942845"/>
     <use style="fill:#98df8a;stroke:#ffffff;stroke-linejoin:miter;stroke-width:0.75;" x="529.336205" xlink:href="#mbe4dafaf0f" y="179.779054"/>
     <use style="fill:#98df8a;stroke:#ffffff;stroke-linejoin:miter;stroke-width:0.75;" x="536.016276" xlink:href="#mbe4dafaf0f" y="171.098106"/>
     <use style="fill:#98df8a;stroke:#ffffff;stroke-linejoin:miter;stroke-width:0.75;" x="542.399355" xlink:href="#mbe4dafaf0f" y="170.006163"/>
     <use style="fill:#98df8a;stroke:#ffffff;stroke-linejoin:miter;stroke-width:0.75;" x="548.51073" xlink:href="#mbe4dafaf0f" y="167.549291"/>
     <use style="fill:#98df8a;stroke:#ffffff;stroke-linejoin:miter;stroke-width:0.75;" x="554.37259" xlink:href="#mbe4dafaf0f" y="165.556495"/>
     <use style="fill:#98df8a;stroke:#ffffff;stroke-linejoin:miter;stroke-width:0.75;" x="560.004513" xlink:href="#mbe4dafaf0f" y="164.218864"/>
     <use style="fill:#98df8a;stroke:#ffffff;stroke-linejoin:miter;stroke-width:0.75;" x="565.423859" xlink:href="#mbe4dafaf0f" y="163.5364"/>
     <use style="fill:#98df8a;stroke:#ffffff;stroke-linejoin:miter;stroke-width:0.75;" x="570.646094" xlink:href="#mbe4dafaf0f" y="160.642751"/>
     <use style="fill:#98df8a;stroke:#ffffff;stroke-linejoin:miter;stroke-width:0.75;" x="575.685054" xlink:href="#mbe4dafaf0f" y="160.533556"/>
     <use style="fill:#98df8a;stroke:#ffffff;stroke-linejoin:miter;stroke-width:0.75;" x="580.553169" xlink:href="#mbe4dafaf0f" y="158.322371"/>
     <use style="fill:#98df8a;stroke:#ffffff;stroke-linejoin:miter;stroke-width:0.75;" x="585.261644" xlink:href="#mbe4dafaf0f" y="158.322371"/>
     <use style="fill:#98df8a;stroke:#ffffff;stroke-linejoin:miter;stroke-width:0.75;" x="589.820619" xlink:href="#mbe4dafaf0f" y="158.049386"/>
     <use style="fill:#98df8a;stroke:#ffffff;stroke-linejoin:miter;stroke-width:0.75;" x="594.239294" xlink:href="#mbe4dafaf0f" y="157.749101"/>
     <use style="fill:#98df8a;stroke:#ffffff;stroke-linejoin:miter;stroke-width:0.75;" x="598.52605" xlink:href="#mbe4dafaf0f" y="157.612608"/>
     <use style="fill:#98df8a;stroke:#ffffff;stroke-linejoin:miter;stroke-width:0.75;" x="602.688533" xlink:href="#mbe4dafaf0f" y="157.612608"/>
     <use style="fill:#98df8a;stroke:#ffffff;stroke-linejoin:miter;stroke-width:0.75;" x="606.733748" xlink:href="#mbe4dafaf0f" y="157.612608"/>
     <use style="fill:#98df8a;stroke:#ffffff;stroke-linejoin:miter;stroke-width:0.75;" x="610.668121" xlink:href="#mbe4dafaf0f" y="157.58531"/>
     <use style="fill:#98df8a;stroke:#ffffff;stroke-linejoin:miter;stroke-width:0.75;" x="614.497565" xlink:href="#mbe4dafaf0f" y="157.58531"/>
     <use style="fill:#98df8a;stroke:#ffffff;stroke-linejoin:miter;stroke-width:0.75;" x="618.227531" xlink:href="#mbe4dafaf0f" y="156.957443"/>
     <use style="fill:#98df8a;stroke:#ffffff;stroke-linejoin:miter;stroke-width:0.75;" x="621.863058" xlink:href="#mbe4dafaf0f" y="156.43877"/>
     <use style="fill:#98df8a;stroke:#ffffff;stroke-linejoin:miter;stroke-width:0.75;" x="625.408809" xlink:href="#mbe4dafaf0f" y="154.555168"/>
     <use style="fill:#98df8a;stroke:#ffffff;stroke-linejoin:miter;stroke-width:0.75;" x="628.869113" xlink:href="#mbe4dafaf0f" y="154.364078"/>
     <use style="fill:#98df8a;stroke:#ffffff;stroke-linejoin:miter;stroke-width:0.75;" x="632.247989" xlink:href="#mbe4dafaf0f" y="151.224741"/>
     <use style="fill:#98df8a;stroke:#ffffff;stroke-linejoin:miter;stroke-width:0.75;" x="635.549184" xlink:href="#mbe4dafaf0f" y="150.733367"/>
     <use style="fill:#98df8a;stroke:#ffffff;stroke-linejoin:miter;stroke-width:0.75;" x="638.776188" xlink:href="#mbe4dafaf0f" y="148.904362"/>
     <use style="fill:#98df8a;stroke:#ffffff;stroke-linejoin:miter;stroke-width:0.75;" x="641.932263" xlink:href="#mbe4dafaf0f" y="148.767869"/>
     <use style="fill:#98df8a;stroke:#ffffff;stroke-linejoin:miter;stroke-width:0.75;" x="645.02046" xlink:href="#mbe4dafaf0f" y="148.631376"/>
     <use style="fill:#98df8a;stroke:#ffffff;stroke-linejoin:miter;stroke-width:0.75;" x="648.043637" xlink:href="#mbe4dafaf0f" y="148.604078"/>
     <use style="fill:#98df8a;stroke:#ffffff;stroke-linejoin:miter;stroke-width:0.75;" x="651.004477" xlink:href="#mbe4dafaf0f" y="145.655831"/>
     <use style="fill:#98df8a;stroke:#ffffff;stroke-linejoin:miter;stroke-width:0.75;" x="653.905497" xlink:href="#mbe4dafaf0f" y="145.464741"/>
     <use style="fill:#98df8a;stroke:#ffffff;stroke-linejoin:miter;stroke-width:0.75;" x="656.749068" xlink:href="#mbe4dafaf0f" y="145.273651"/>
     <use style="fill:#98df8a;stroke:#ffffff;stroke-linejoin:miter;stroke-width:0.75;" x="659.537421" xlink:href="#mbe4dafaf0f" y="145.273651"/>
     <use style="fill:#98df8a;stroke:#ffffff;stroke-linejoin:miter;stroke-width:0.75;" x="662.272658" xlink:href="#mbe4dafaf0f" y="145.191755"/>
     <use style="fill:#98df8a;stroke:#ffffff;stroke-linejoin:miter;stroke-width:0.75;" x="664.956767" xlink:href="#mbe4dafaf0f" y="145.191755"/>
     <use style="fill:#98df8a;stroke:#ffffff;stroke-linejoin:miter;stroke-width:0.75;" x="667.591623" xlink:href="#mbe4dafaf0f" y="145.191755"/>
     <use style="fill:#98df8a;stroke:#ffffff;stroke-linejoin:miter;stroke-width:0.75;" x="670.179002" xlink:href="#mbe4dafaf0f" y="145.191755"/>
     <use style="fill:#98df8a;stroke:#ffffff;stroke-linejoin:miter;stroke-width:0.75;" x="672.720584" xlink:href="#mbe4dafaf0f" y="145.191755"/>
     <use style="fill:#98df8a;stroke:#ffffff;stroke-linejoin:miter;stroke-width:0.75;" x="675.217962" xlink:href="#mbe4dafaf0f" y="145.164457"/>
     <use style="fill:#98df8a;stroke:#ffffff;stroke-linejoin:miter;stroke-width:0.75;" x="677.672648" xlink:href="#mbe4dafaf0f" y="145.164457"/>
     <use style="fill:#98df8a;stroke:#ffffff;stroke-linejoin:miter;stroke-width:0.75;" x="680.086077" xlink:href="#mbe4dafaf0f" y="145.082561"/>
     <use style="fill:#98df8a;stroke:#ffffff;stroke-linejoin:miter;stroke-width:0.75;" x="682.459612" xlink:href="#mbe4dafaf0f" y="145.000665"/>
     <use style="fill:#98df8a;stroke:#ffffff;stroke-linejoin:miter;stroke-width:0.75;" x="684.794552" xlink:href="#mbe4dafaf0f" y="145.000665"/>
     <use style="fill:#98df8a;stroke:#ffffff;stroke-linejoin:miter;stroke-width:0.75;" x="687.092131" xlink:href="#mbe4dafaf0f" y="144.536589"/>
     <use style="fill:#98df8a;stroke:#ffffff;stroke-linejoin:miter;stroke-width:0.75;" x="689.353527" xlink:href="#mbe4dafaf0f" y="131.242182"/>
     <use style="fill:#98df8a;stroke:#ffffff;stroke-linejoin:miter;stroke-width:0.75;" x="691.57986" xlink:href="#mbe4dafaf0f" y="131.214883"/>
     <use style="fill:#98df8a;stroke:#ffffff;stroke-linejoin:miter;stroke-width:0.75;" x="693.772202" xlink:href="#mbe4dafaf0f" y="131.214883"/>
     <use style="fill:#98df8a;stroke:#ffffff;stroke-linejoin:miter;stroke-width:0.75;" x="695.931576" xlink:href="#mbe4dafaf0f" y="131.214883"/>
     <use style="fill:#98df8a;stroke:#ffffff;stroke-linejoin:miter;stroke-width:0.75;" x="698.058957" xlink:href="#mbe4dafaf0f" y="130.641613"/>
     <use style="fill:#98df8a;stroke:#ffffff;stroke-linejoin:miter;stroke-width:0.75;" x="700.155281" xlink:href="#mbe4dafaf0f" y="130.641613"/>
     <use style="fill:#98df8a;stroke:#ffffff;stroke-linejoin:miter;stroke-width:0.75;" x="702.221441" xlink:href="#mbe4dafaf0f" y="130.641613"/>
     <use style="fill:#98df8a;stroke:#ffffff;stroke-linejoin:miter;stroke-width:0.75;" x="704.258293" xlink:href="#mbe4dafaf0f" y="130.641613"/>
     <use style="fill:#98df8a;stroke:#ffffff;stroke-linejoin:miter;stroke-width:0.75;" x="706.266656" xlink:href="#mbe4dafaf0f" y="130.641613"/>
     <use style="fill:#98df8a;stroke:#ffffff;stroke-linejoin:miter;stroke-width:0.75;" x="708.247317" xlink:href="#mbe4dafaf0f" y="122.26095"/>
     <use style="fill:#98df8a;stroke:#ffffff;stroke-linejoin:miter;stroke-width:0.75;" x="710.201029" xlink:href="#mbe4dafaf0f" y="122.26095"/>
     <use style="fill:#98df8a;stroke:#ffffff;stroke-linejoin:miter;stroke-width:0.75;" x="712.128516" xlink:href="#mbe4dafaf0f" y="122.151755"/>
     <use style="fill:#98df8a;stroke:#ffffff;stroke-linejoin:miter;stroke-width:0.75;" x="714.030473" xlink:href="#mbe4dafaf0f" y="121.933367"/>
     <use style="fill:#98df8a;stroke:#ffffff;stroke-linejoin:miter;stroke-width:0.75;" x="715.907567" xlink:href="#mbe4dafaf0f" y="121.851471"/>
     <use style="fill:#98df8a;stroke:#ffffff;stroke-linejoin:miter;stroke-width:0.75;" x="717.760439" xlink:href="#mbe4dafaf0f" y="118.712134"/>
     <use style="fill:#98df8a;stroke:#ffffff;stroke-linejoin:miter;stroke-width:0.75;" x="719.589708" xlink:href="#mbe4dafaf0f" y="116.064172"/>
     <use style="fill:#98df8a;stroke:#ffffff;stroke-linejoin:miter;stroke-width:0.75;" x="721.395966" xlink:href="#mbe4dafaf0f" y="116.064172"/>
     <use style="fill:#98df8a;stroke:#ffffff;stroke-linejoin:miter;stroke-width:0.75;" x="723.179786" xlink:href="#mbe4dafaf0f" y="116.064172"/>
     <use style="fill:#98df8a;stroke:#ffffff;stroke-linejoin:miter;stroke-width:0.75;" x="724.941717" xlink:href="#mbe4dafaf0f" y="116.064172"/>
     <use style="fill:#98df8a;stroke:#ffffff;stroke-linejoin:miter;stroke-width:0.75;" x="726.682292" xlink:href="#mbe4dafaf0f" y="116.036874"/>
     <use style="fill:#98df8a;stroke:#ffffff;stroke-linejoin:miter;stroke-width:0.75;" x="728.40202" xlink:href="#mbe4dafaf0f" y="116.036874"/>
     <use style="fill:#98df8a;stroke:#ffffff;stroke-linejoin:miter;stroke-width:0.75;" x="730.101397" xlink:href="#mbe4dafaf0f" y="114.398959"/>
     <use style="fill:#98df8a;stroke:#ffffff;stroke-linejoin:miter;stroke-width:0.75;" x="731.780897" xlink:href="#mbe4dafaf0f" y="113.880286"/>
     <use style="fill:#98df8a;stroke:#ffffff;stroke-linejoin:miter;stroke-width:0.75;" x="733.440981" xlink:href="#mbe4dafaf0f" y="113.880286"/>
     <use style="fill:#98df8a;stroke:#ffffff;stroke-linejoin:miter;stroke-width:0.75;" x="735.082091" xlink:href="#mbe4dafaf0f" y="113.41621"/>
     <use style="fill:#98df8a;stroke:#ffffff;stroke-linejoin:miter;stroke-width:0.75;" x="736.704658" xlink:href="#mbe4dafaf0f" y="113.388912"/>
     <use style="fill:#98df8a;stroke:#ffffff;stroke-linejoin:miter;stroke-width:0.75;" x="738.309095" xlink:href="#mbe4dafaf0f" y="113.197822"/>
     <use style="fill:#98df8a;stroke:#ffffff;stroke-linejoin:miter;stroke-width:0.75;" x="739.895804" xlink:href="#mbe4dafaf0f" y="112.624552"/>
     <use style="fill:#98df8a;stroke:#ffffff;stroke-linejoin:miter;stroke-width:0.75;" x="741.46517" xlink:href="#mbe4dafaf0f" y="112.07858"/>
    </g>
   </g>
   <g id="line2d_37"/>
   <g id="line2d_38"/>
   <g id="line2d_39">
    <path clip-path="url(#pbcffd39592)" d="M 741.46517 288.430125 
L 741.46517 22.318125 
" style="fill:none;stroke:#ff0000;stroke-linecap:square;stroke-width:1.5;"/>
   </g>
   <g id="patch_3">
    <path d="M 59.690625 256.46076 
L 59.690625 38.072134 
" style="fill:none;stroke:#000000;stroke-linecap:square;stroke-linejoin:miter;stroke-width:0.8;"/>
   </g>
   <g id="patch_4">
    <path d="M 92.15608 288.430125 
L 741.466905 288.430125 
" style="fill:none;stroke:#000000;stroke-linecap:square;stroke-linejoin:miter;stroke-width:0.8;"/>
   </g>
   <g id="text_20">
    <!-- freetype2-2017 (23h, 10 trials/fuzzer) -->
    <g transform="translate(303.597188 16.318125)scale(0.12 -0.12)">
     <defs>
      <path d="M 2375 4863 
L 2375 4384 
L 1825 4384 
Q 1516 4384 1395 4259 
Q 1275 4134 1275 3809 
L 1275 3500 
L 2222 3500 
L 2222 3053 
L 1275 3053 
L 1275 0 
L 697 0 
L 697 3053 
L 147 3053 
L 147 3500 
L 697 3500 
L 697 3744 
Q 697 4328 969 4595 
Q 1241 4863 1831 4863 
L 2375 4863 
z
" id="DejaVuSans-66" transform="scale(0.015625)"/>
      <path d="M 2059 -325 
Q 1816 -950 1584 -1140 
Q 1353 -1331 966 -1331 
L 506 -1331 
L 506 -850 
L 844 -850 
Q 1081 -850 1212 -737 
Q 1344 -625 1503 -206 
L 1606 56 
L 191 3500 
L 800 3500 
L 1894 763 
L 2988 3500 
L 3597 3500 
L 2059 -325 
z
" id="DejaVuSans-79" transform="scale(0.015625)"/>
      <path d="M 1159 525 
L 1159 -1331 
L 581 -1331 
L 581 3500 
L 1159 3500 
L 1159 2969 
Q 1341 3281 1617 3432 
Q 1894 3584 2278 3584 
Q 2916 3584 3314 3078 
Q 3713 2572 3713 1747 
Q 3713 922 3314 415 
Q 2916 -91 2278 -91 
Q 1894 -91 1617 61 
Q 1341 213 1159 525 
z
M 3116 1747 
Q 3116 2381 2855 2742 
Q 2594 3103 2138 3103 
Q 1681 3103 1420 2742 
Q 1159 2381 1159 1747 
Q 1159 1113 1420 752 
Q 1681 391 2138 391 
Q 2594 391 2855 752 
Q 3116 1113 3116 1747 
z
" id="DejaVuSans-70" transform="scale(0.015625)"/>
      <path d="M 313 2009 
L 1997 2009 
L 1997 1497 
L 313 1497 
L 313 2009 
z
" id="DejaVuSans-2d" transform="scale(0.015625)"/>
      <path d="M 750 794 
L 1409 794 
L 1409 256 
L 897 -744 
L 494 -744 
L 750 256 
L 750 794 
z
" id="DejaVuSans-2c" transform="scale(0.015625)"/>
      <path d="M 603 4863 
L 1178 4863 
L 1178 0 
L 603 0 
L 603 4863 
z
" id="DejaVuSans-6c" transform="scale(0.015625)"/>
      <path d="M 2834 3397 
L 2834 2853 
Q 2591 2978 2328 3040 
Q 2066 3103 1784 3103 
Q 1356 3103 1142 2972 
Q 928 2841 928 2578 
Q 928 2378 1081 2264 
Q 1234 2150 1697 2047 
L 1894 2003 
Q 2506 1872 2764 1633 
Q 3022 1394 3022 966 
Q 3022 478 2636 193 
Q 2250 -91 1575 -91 
Q 1294 -91 989 -36 
Q 684 19 347 128 
L 347 722 
Q 666 556 975 473 
Q 1284 391 1588 391 
Q 1994 391 2212 530 
Q 2431 669 2431 922 
Q 2431 1156 2273 1281 
Q 2116 1406 1581 1522 
L 1381 1569 
Q 847 1681 609 1914 
Q 372 2147 372 2553 
Q 372 3047 722 3315 
Q 1072 3584 1716 3584 
Q 2034 3584 2315 3537 
Q 2597 3491 2834 3397 
z
" id="DejaVuSans-73" transform="scale(0.015625)"/>
      <path d="M 1625 4666 
L 2156 4666 
L 531 -594 
L 0 -594 
L 1625 4666 
z
" id="DejaVuSans-2f" transform="scale(0.015625)"/>
      <path d="M 353 3500 
L 3084 3500 
L 3084 2975 
L 922 459 
L 3084 459 
L 3084 0 
L 275 0 
L 275 525 
L 2438 3041 
L 353 3041 
L 353 3500 
z
" id="DejaVuSans-7a" transform="scale(0.015625)"/>
     </defs>
     <use xlink:href="#DejaVuSans-66"/>
     <use x="35.205078" xlink:href="#DejaVuSans-72"/>
     <use x="74.068359" xlink:href="#DejaVuSans-65"/>
     <use x="135.591797" xlink:href="#DejaVuSans-65"/>
     <use x="197.115234" xlink:href="#DejaVuSans-74"/>
     <use x="236.324219" xlink:href="#DejaVuSans-79"/>
     <use x="295.503906" xlink:href="#DejaVuSans-70"/>
     <use x="358.980469" xlink:href="#DejaVuSans-65"/>
     <use x="420.503906" xlink:href="#DejaVuSans-32"/>
     <use x="484.126953" xlink:href="#DejaVuSans-2d"/>
     <use x="520.210938" xlink:href="#DejaVuSans-32"/>
     <use x="583.833984" xlink:href="#DejaVuSans-30"/>
     <use x="647.457031" xlink:href="#DejaVuSans-31"/>
     <use x="711.080078" xlink:href="#DejaVuSans-37"/>
     <use x="774.703125" xlink:href="#DejaVuSans-20"/>
     <use x="806.490234" xlink:href="#DejaVuSans-28"/>
     <use x="845.503906" xlink:href="#DejaVuSans-32"/>
     <use x="909.126953" xlink:href="#DejaVuSans-33"/>
     <use x="972.75" xlink:href="#DejaVuSans-68"/>
     <use x="1036.128906" xlink:href="#DejaVuSans-2c"/>
     <use x="1067.916016" xlink:href="#DejaVuSans-20"/>
     <use x="1099.703125" xlink:href="#DejaVuSans-31"/>
     <use x="1163.326172" xlink:href="#DejaVuSans-30"/>
     <use x="1226.949219" xlink:href="#DejaVuSans-20"/>
     <use x="1258.736328" xlink:href="#DejaVuSans-74"/>
     <use x="1297.945312" xlink:href="#DejaVuSans-72"/>
     <use x="1339.058594" xlink:href="#DejaVuSans-69"/>
     <use x="1366.841797" xlink:href="#DejaVuSans-61"/>
     <use x="1428.121094" xlink:href="#DejaVuSans-6c"/>
     <use x="1455.904297" xlink:href="#DejaVuSans-73"/>
     <use x="1508.003906" xlink:href="#DejaVuSans-2f"/>
     <use x="1541.695312" xlink:href="#DejaVuSans-66"/>
     <use x="1576.900391" xlink:href="#DejaVuSans-75"/>
     <use x="1640.279297" xlink:href="#DejaVuSans-7a"/>
     <use x="1692.769531" xlink:href="#DejaVuSans-7a"/>
     <use x="1745.259766" xlink:href="#DejaVuSans-65"/>
     <use x="1806.783203" xlink:href="#DejaVuSans-72"/>
     <use x="1847.896484" xlink:href="#DejaVuSans-29"/>
    </g>
   </g>
   <g id="legend_1">
    <g id="line2d_40">
     <path d="M 777.930625 30.416563 
L 797.930625 30.416563 
" style="fill:none;stroke:#1f77b4;stroke-linecap:square;stroke-width:1.5;"/>
    </g>
    <g id="line2d_41">
     <defs>
      <path d="M 0 3 
C 0.795609 3 1.55874 2.683901 2.12132 2.12132 
C 2.683901 1.55874 3 0.795609 3 0 
C 3 -0.795609 2.683901 -1.55874 2.12132 -2.12132 
C 1.55874 -2.683901 0.795609 -3 0 -3 
C -0.795609 -3 -1.55874 -2.683901 -2.12132 -2.12132 
C -2.683901 -1.55874 -3 -0.795609 -3 0 
C -3 0.795609 -2.683901 1.55874 -2.12132 2.12132 
C -1.55874 2.683901 -0.795609 3 0 3 
z
" id="m36143b993b" style="stroke:#1f77b4;"/>
     </defs>
     <g>
      <use style="fill:#1f77b4;stroke:#1f77b4;" x="787.930625" xlink:href="#m36143b993b" y="30.416563"/>
     </g>
    </g>
    <g id="text_21">
     <!-- sydr_aflplusplus -->
     <g transform="translate(805.930625 33.916563)scale(0.1 -0.1)">
      <defs>
       <path d="M 3263 -1063 
L 3263 -1509 
L -63 -1509 
L -63 -1063 
L 3263 -1063 
z
" id="DejaVuSans-5f" transform="scale(0.015625)"/>
      </defs>
      <use xlink:href="#DejaVuSans-73"/>
      <use x="52.099609" xlink:href="#DejaVuSans-79"/>
      <use x="111.279297" xlink:href="#DejaVuSans-64"/>
      <use x="174.755859" xlink:href="#DejaVuSans-72"/>
      <use x="215.869141" xlink:href="#DejaVuSans-5f"/>
      <use x="265.869141" xlink:href="#DejaVuSans-61"/>
      <use x="327.148438" xlink:href="#DejaVuSans-66"/>
      <use x="362.353516" xlink:href="#DejaVuSans-6c"/>
      <use x="390.136719" xlink:href="#DejaVuSans-70"/>
      <use x="453.613281" xlink:href="#DejaVuSans-6c"/>
      <use x="481.396484" xlink:href="#DejaVuSans-75"/>
      <use x="544.775391" xlink:href="#DejaVuSans-73"/>
      <use x="596.875" xlink:href="#DejaVuSans-70"/>
      <use x="660.351562" xlink:href="#DejaVuSans-6c"/>
      <use x="688.134766" xlink:href="#DejaVuSans-75"/>
      <use x="751.513672" xlink:href="#DejaVuSans-73"/>
     </g>
    </g>
    <g id="line2d_42">
     <path d="M 777.930625 45.372813 
L 797.930625 45.372813 
" style="fill:none;stroke:#98df8a;stroke-linecap:square;stroke-width:1.5;"/>
    </g>
    <g id="line2d_43">
     <defs>
      <path d="M -0 3 
L 3 -3 
L -3 -3 
z
" id="m835ac6ba75" style="stroke:#98df8a;stroke-linejoin:miter;"/>
     </defs>
     <g>
      <use style="fill:#98df8a;stroke:#98df8a;stroke-linejoin:miter;" x="787.930625" xlink:href="#m835ac6ba75" y="45.372813"/>
     </g>
    </g>
    <g id="text_22">
     <!-- symqemu_aflplusplus -->
     <g transform="translate(805.930625 48.872813)scale(0.1 -0.1)">
      <defs>
       <path d="M 947 1747 
Q 947 1113 1208 752 
Q 1469 391 1925 391 
Q 2381 391 2643 752 
Q 2906 1113 2906 1747 
Q 2906 2381 2643 2742 
Q 2381 3103 1925 3103 
Q 1469 3103 1208 2742 
Q 947 2381 947 1747 
z
M 2906 525 
Q 2725 213 2448 61 
Q 2172 -91 1784 -91 
Q 1150 -91 751 415 
Q 353 922 353 1747 
Q 353 2572 751 3078 
Q 1150 3584 1784 3584 
Q 2172 3584 2448 3432 
Q 2725 3281 2906 2969 
L 2906 3500 
L 3481 3500 
L 3481 -1331 
L 2906 -1331 
L 2906 525 
z
" id="DejaVuSans-71" transform="scale(0.015625)"/>
      </defs>
      <use xlink:href="#DejaVuSans-73"/>
      <use x="52.099609" xlink:href="#DejaVuSans-79"/>
      <use x="111.279297" xlink:href="#DejaVuSans-6d"/>
      <use x="208.691406" xlink:href="#DejaVuSans-71"/>
      <use x="272.167969" xlink:href="#DejaVuSans-65"/>
      <use x="333.691406" xlink:href="#DejaVuSans-6d"/>
      <use x="431.103516" xlink:href="#DejaVuSans-75"/>
      <use x="494.482422" xlink:href="#DejaVuSans-5f"/>
      <use x="544.482422" xlink:href="#DejaVuSans-61"/>
      <use x="605.761719" xlink:href="#DejaVuSans-66"/>
      <use x="640.966797" xlink:href="#DejaVuSans-6c"/>
      <use x="668.75" xlink:href="#DejaVuSans-70"/>
      <use x="732.226562" xlink:href="#DejaVuSans-6c"/>
      <use x="760.009766" xlink:href="#DejaVuSans-75"/>
      <use x="823.388672" xlink:href="#DejaVuSans-73"/>
      <use x="875.488281" xlink:href="#DejaVuSans-70"/>
      <use x="938.964844" xlink:href="#DejaVuSans-6c"/>
      <use x="966.748047" xlink:href="#DejaVuSans-75"/>
      <use x="1030.126953" xlink:href="#DejaVuSans-73"/>
     </g>
    </g>
   </g>
  </g>
 </g>
 <defs>
  <clipPath id="pbcffd39592">
   <rect height="266.112" width="714.24" x="59.690625" y="22.318125"/>
  </clipPath>
 </defs>
</svg>
