<?xml version="1.0" encoding="utf-8" standalone="no"?>
<!DOCTYPE svg PUBLIC "-//W3C//DTD SVG 1.1//EN"
  "http://www.w3.org/Graphics/SVG/1.1/DTD/svg11.dtd">
<svg height="395.733875pt" version="1.1" viewBox="0 0 473.195975 395.733875" width="473.195975pt" xmlns="http://www.w3.org/2000/svg" xmlns:xlink="http://www.w3.org/1999/xlink">
 <metadata>
  <rdf:RDF xmlns:cc="http://creativecommons.org/ns#" xmlns:dc="http://purl.org/dc/elements/1.1/" xmlns:rdf="http://www.w3.org/1999/02/22-rdf-syntax-ns#">
   <cc:Work>
    <dc:type rdf:resource="http://purl.org/dc/dcmitype/StillImage"/>
    <dc:date>2022-08-28T18:58:54.221653</dc:date>
    <dc:format>image/svg+xml</dc:format>
    <dc:creator>
     <cc:Agent>
      <dc:title>Matplotlib v3.4.1, https://matplotlib.org/</dc:title>
     </cc:Agent>
    </dc:creator>
   </cc:Work>
  </rdf:RDF>
 </metadata>
 <defs>
  <style type="text/css">*{stroke-linecap:butt;stroke-linejoin:round;}</style>
 </defs>
 <g id="figure_1">
  <g id="patch_1">
   <path d="M 0 395.733875 
L 473.195975 395.733875 
L 473.195975 0 
L 0 0 
z
" style="fill:#ffffff;"/>
  </g>
  <g id="axes_1">
   <g id="patch_2">
    <path d="M 122.421875 273.312 
L 388.533875 273.312 
L 388.533875 7.2 
L 122.421875 7.2 
z
" style="fill:#ffffff;"/>
   </g>
   <g id="QuadMesh_1">
    <path clip-path="url(#p5425a2e1e2)" d="M 122.421875 7.2 
L 255.477875 7.2 
L 255.477875 140.256 
L 122.421875 140.256 
L 122.421875 7.2 
" style="fill:none;stroke:#808080;stroke-width:0.5;"/>
    <path clip-path="url(#p5425a2e1e2)" d="M 255.477875 7.2 
L 388.533875 7.2 
L 388.533875 140.256 
L 255.477875 140.256 
L 255.477875 7.2 
" style="fill:#fbd7d4;stroke:#808080;stroke-width:0.5;"/>
    <path clip-path="url(#p5425a2e1e2)" d="M 122.421875 140.256 
L 255.477875 140.256 
L 255.477875 273.312 
L 122.421875 273.312 
L 122.421875 140.256 
" style="fill:#fbd7d4;stroke:#808080;stroke-width:0.5;"/>
    <path clip-path="url(#p5425a2e1e2)" d="M 255.477875 140.256 
L 388.533875 140.256 
L 388.533875 273.312 
L 255.477875 273.312 
L 255.477875 140.256 
" style="fill:none;stroke:#808080;stroke-width:0.5;"/>
   </g>
   <g id="matplotlib.axis_1">
    <g id="xtick_1">
     <g id="line2d_1">
      <defs>
       <path d="M 0 0 
L 0 3.5 
" id="mf9364a951b" style="stroke:#000000;stroke-width:0.8;"/>
      </defs>
      <g>
       <use style="stroke:#000000;stroke-width:0.8;" x="188.949875" xlink:href="#mf9364a951b" y="273.312"/>
      </g>
     </g>
     <g id="text_1">
      <!-- sydr_aflplusplus -->
      <g transform="translate(181.351438 280.312)rotate(-270)scale(0.1 -0.1)">
       <defs>
        <path d="M 2834 3397 
L 2834 2853 
Q 2591 2978 2328 3040 
Q 2066 3103 1784 3103 
Q 1356 3103 1142 2972 
Q 928 2841 928 2578 
Q 928 2378 1081 2264 
Q 1234 2150 1697 2047 
L 1894 2003 
Q 2506 1872 2764 1633 
Q 3022 1394 3022 966 
Q 3022 478 2636 193 
Q 2250 -91 1575 -91 
Q 1294 -91 989 -36 
Q 684 19 347 128 
L 347 722 
Q 666 556 975 473 
Q 1284 391 1588 391 
Q 1994 391 2212 530 
Q 2431 669 2431 922 
Q 2431 1156 2273 1281 
Q 2116 1406 1581 1522 
L 1381 1569 
Q 847 1681 609 1914 
Q 372 2147 372 2553 
Q 372 3047 722 3315 
Q 1072 3584 1716 3584 
Q 2034 3584 2315 3537 
Q 2597 3491 2834 3397 
z
" id="DejaVuSans-73" transform="scale(0.015625)"/>
        <path d="M 2059 -325 
Q 1816 -950 1584 -1140 
Q 1353 -1331 966 -1331 
L 506 -1331 
L 506 -850 
L 844 -850 
Q 1081 -850 1212 -737 
Q 1344 -625 1503 -206 
L 1606 56 
L 191 3500 
L 800 3500 
L 1894 763 
L 2988 3500 
L 3597 3500 
L 2059 -325 
z
" id="DejaVuSans-79" transform="scale(0.015625)"/>
        <path d="M 2906 2969 
L 2906 4863 
L 3481 4863 
L 3481 0 
L 2906 0 
L 2906 525 
Q 2725 213 2448 61 
Q 2172 -91 1784 -91 
Q 1150 -91 751 415 
Q 353 922 353 1747 
Q 353 2572 751 3078 
Q 1150 3584 1784 3584 
Q 2172 3584 2448 3432 
Q 2725 3281 2906 2969 
z
M 947 1747 
Q 947 1113 1208 752 
Q 1469 391 1925 391 
Q 2381 391 2643 752 
Q 2906 1113 2906 1747 
Q 2906 2381 2643 2742 
Q 2381 3103 1925 3103 
Q 1469 3103 1208 2742 
Q 947 2381 947 1747 
z
" id="DejaVuSans-64" transform="scale(0.015625)"/>
        <path d="M 2631 2963 
Q 2534 3019 2420 3045 
Q 2306 3072 2169 3072 
Q 1681 3072 1420 2755 
Q 1159 2438 1159 1844 
L 1159 0 
L 581 0 
L 581 3500 
L 1159 3500 
L 1159 2956 
Q 1341 3275 1631 3429 
Q 1922 3584 2338 3584 
Q 2397 3584 2469 3576 
Q 2541 3569 2628 3553 
L 2631 2963 
z
" id="DejaVuSans-72" transform="scale(0.015625)"/>
        <path d="M 3263 -1063 
L 3263 -1509 
L -63 -1509 
L -63 -1063 
L 3263 -1063 
z
" id="DejaVuSans-5f" transform="scale(0.015625)"/>
        <path d="M 2194 1759 
Q 1497 1759 1228 1600 
Q 959 1441 959 1056 
Q 959 750 1161 570 
Q 1363 391 1709 391 
Q 2188 391 2477 730 
Q 2766 1069 2766 1631 
L 2766 1759 
L 2194 1759 
z
M 3341 1997 
L 3341 0 
L 2766 0 
L 2766 531 
Q 2569 213 2275 61 
Q 1981 -91 1556 -91 
Q 1019 -91 701 211 
Q 384 513 384 1019 
Q 384 1609 779 1909 
Q 1175 2209 1959 2209 
L 2766 2209 
L 2766 2266 
Q 2766 2663 2505 2880 
Q 2244 3097 1772 3097 
Q 1472 3097 1187 3025 
Q 903 2953 641 2809 
L 641 3341 
Q 956 3463 1253 3523 
Q 1550 3584 1831 3584 
Q 2591 3584 2966 3190 
Q 3341 2797 3341 1997 
z
" id="DejaVuSans-61" transform="scale(0.015625)"/>
        <path d="M 2375 4863 
L 2375 4384 
L 1825 4384 
Q 1516 4384 1395 4259 
Q 1275 4134 1275 3809 
L 1275 3500 
L 2222 3500 
L 2222 3053 
L 1275 3053 
L 1275 0 
L 697 0 
L 697 3053 
L 147 3053 
L 147 3500 
L 697 3500 
L 697 3744 
Q 697 4328 969 4595 
Q 1241 4863 1831 4863 
L 2375 4863 
z
" id="DejaVuSans-66" transform="scale(0.015625)"/>
        <path d="M 603 4863 
L 1178 4863 
L 1178 0 
L 603 0 
L 603 4863 
z
" id="DejaVuSans-6c" transform="scale(0.015625)"/>
        <path d="M 1159 525 
L 1159 -1331 
L 581 -1331 
L 581 3500 
L 1159 3500 
L 1159 2969 
Q 1341 3281 1617 3432 
Q 1894 3584 2278 3584 
Q 2916 3584 3314 3078 
Q 3713 2572 3713 1747 
Q 3713 922 3314 415 
Q 2916 -91 2278 -91 
Q 1894 -91 1617 61 
Q 1341 213 1159 525 
z
M 3116 1747 
Q 3116 2381 2855 2742 
Q 2594 3103 2138 3103 
Q 1681 3103 1420 2742 
Q 1159 2381 1159 1747 
Q 1159 1113 1420 752 
Q 1681 391 2138 391 
Q 2594 391 2855 752 
Q 3116 1113 3116 1747 
z
" id="DejaVuSans-70" transform="scale(0.015625)"/>
        <path d="M 544 1381 
L 544 3500 
L 1119 3500 
L 1119 1403 
Q 1119 906 1312 657 
Q 1506 409 1894 409 
Q 2359 409 2629 706 
Q 2900 1003 2900 1516 
L 2900 3500 
L 3475 3500 
L 3475 0 
L 2900 0 
L 2900 538 
Q 2691 219 2414 64 
Q 2138 -91 1772 -91 
Q 1169 -91 856 284 
Q 544 659 544 1381 
z
M 1991 3584 
L 1991 3584 
z
" id="DejaVuSans-75" transform="scale(0.015625)"/>
       </defs>
       <use xlink:href="#DejaVuSans-73"/>
       <use x="52.099609" xlink:href="#DejaVuSans-79"/>
       <use x="111.279297" xlink:href="#DejaVuSans-64"/>
       <use x="174.755859" xlink:href="#DejaVuSans-72"/>
       <use x="215.869141" xlink:href="#DejaVuSans-5f"/>
       <use x="265.869141" xlink:href="#DejaVuSans-61"/>
       <use x="327.148438" xlink:href="#DejaVuSans-66"/>
       <use x="362.353516" xlink:href="#DejaVuSans-6c"/>
       <use x="390.136719" xlink:href="#DejaVuSans-70"/>
       <use x="453.613281" xlink:href="#DejaVuSans-6c"/>
       <use x="481.396484" xlink:href="#DejaVuSans-75"/>
       <use x="544.775391" xlink:href="#DejaVuSans-73"/>
       <use x="596.875" xlink:href="#DejaVuSans-70"/>
       <use x="660.351562" xlink:href="#DejaVuSans-6c"/>
       <use x="688.134766" xlink:href="#DejaVuSans-75"/>
       <use x="751.513672" xlink:href="#DejaVuSans-73"/>
      </g>
     </g>
    </g>
    <g id="xtick_2">
     <g id="line2d_2">
      <g>
       <use style="stroke:#000000;stroke-width:0.8;" x="322.005875" xlink:href="#mf9364a951b" y="273.312"/>
      </g>
     </g>
     <g id="text_2">
      <!-- symqemu_aflplusplus -->
      <g transform="translate(314.407438 280.312)rotate(-270)scale(0.1 -0.1)">
       <defs>
        <path d="M 3328 2828 
Q 3544 3216 3844 3400 
Q 4144 3584 4550 3584 
Q 5097 3584 5394 3201 
Q 5691 2819 5691 2113 
L 5691 0 
L 5113 0 
L 5113 2094 
Q 5113 2597 4934 2840 
Q 4756 3084 4391 3084 
Q 3944 3084 3684 2787 
Q 3425 2491 3425 1978 
L 3425 0 
L 2847 0 
L 2847 2094 
Q 2847 2600 2669 2842 
Q 2491 3084 2119 3084 
Q 1678 3084 1418 2786 
Q 1159 2488 1159 1978 
L 1159 0 
L 581 0 
L 581 3500 
L 1159 3500 
L 1159 2956 
Q 1356 3278 1631 3431 
Q 1906 3584 2284 3584 
Q 2666 3584 2933 3390 
Q 3200 3197 3328 2828 
z
" id="DejaVuSans-6d" transform="scale(0.015625)"/>
        <path d="M 947 1747 
Q 947 1113 1208 752 
Q 1469 391 1925 391 
Q 2381 391 2643 752 
Q 2906 1113 2906 1747 
Q 2906 2381 2643 2742 
Q 2381 3103 1925 3103 
Q 1469 3103 1208 2742 
Q 947 2381 947 1747 
z
M 2906 525 
Q 2725 213 2448 61 
Q 2172 -91 1784 -91 
Q 1150 -91 751 415 
Q 353 922 353 1747 
Q 353 2572 751 3078 
Q 1150 3584 1784 3584 
Q 2172 3584 2448 3432 
Q 2725 3281 2906 2969 
L 2906 3500 
L 3481 3500 
L 3481 -1331 
L 2906 -1331 
L 2906 525 
z
" id="DejaVuSans-71" transform="scale(0.015625)"/>
        <path d="M 3597 1894 
L 3597 1613 
L 953 1613 
Q 991 1019 1311 708 
Q 1631 397 2203 397 
Q 2534 397 2845 478 
Q 3156 559 3463 722 
L 3463 178 
Q 3153 47 2828 -22 
Q 2503 -91 2169 -91 
Q 1331 -91 842 396 
Q 353 884 353 1716 
Q 353 2575 817 3079 
Q 1281 3584 2069 3584 
Q 2775 3584 3186 3129 
Q 3597 2675 3597 1894 
z
M 3022 2063 
Q 3016 2534 2758 2815 
Q 2500 3097 2075 3097 
Q 1594 3097 1305 2825 
Q 1016 2553 972 2059 
L 3022 2063 
z
" id="DejaVuSans-65" transform="scale(0.015625)"/>
       </defs>
       <use xlink:href="#DejaVuSans-73"/>
       <use x="52.099609" xlink:href="#DejaVuSans-79"/>
       <use x="111.279297" xlink:href="#DejaVuSans-6d"/>
       <use x="208.691406" xlink:href="#DejaVuSans-71"/>
       <use x="272.167969" xlink:href="#DejaVuSans-65"/>
       <use x="333.691406" xlink:href="#DejaVuSans-6d"/>
       <use x="431.103516" xlink:href="#DejaVuSans-75"/>
       <use x="494.482422" xlink:href="#DejaVuSans-5f"/>
       <use x="544.482422" xlink:href="#DejaVuSans-61"/>
       <use x="605.761719" xlink:href="#DejaVuSans-66"/>
       <use x="640.966797" xlink:href="#DejaVuSans-6c"/>
       <use x="668.75" xlink:href="#DejaVuSans-70"/>
       <use x="732.226562" xlink:href="#DejaVuSans-6c"/>
       <use x="760.009766" xlink:href="#DejaVuSans-75"/>
       <use x="823.388672" xlink:href="#DejaVuSans-73"/>
       <use x="875.488281" xlink:href="#DejaVuSans-70"/>
       <use x="938.964844" xlink:href="#DejaVuSans-6c"/>
       <use x="966.748047" xlink:href="#DejaVuSans-75"/>
       <use x="1030.126953" xlink:href="#DejaVuSans-73"/>
      </g>
     </g>
    </g>
   </g>
   <g id="matplotlib.axis_2">
    <g id="ytick_1">
     <g id="line2d_3">
      <defs>
       <path d="M 0 0 
L -3.5 0 
" id="m67e713429c" style="stroke:#000000;stroke-width:0.8;"/>
      </defs>
      <g>
       <use style="stroke:#000000;stroke-width:0.8;" x="122.421875" xlink:href="#m67e713429c" y="73.728"/>
      </g>
     </g>
     <g id="text_3">
      <!-- sydr_aflplusplus -->
      <g transform="translate(35.060938 77.527219)scale(0.1 -0.1)">
       <use xlink:href="#DejaVuSans-73"/>
       <use x="52.099609" xlink:href="#DejaVuSans-79"/>
       <use x="111.279297" xlink:href="#DejaVuSans-64"/>
       <use x="174.755859" xlink:href="#DejaVuSans-72"/>
       <use x="215.869141" xlink:href="#DejaVuSans-5f"/>
       <use x="265.869141" xlink:href="#DejaVuSans-61"/>
       <use x="327.148438" xlink:href="#DejaVuSans-66"/>
       <use x="362.353516" xlink:href="#DejaVuSans-6c"/>
       <use x="390.136719" xlink:href="#DejaVuSans-70"/>
       <use x="453.613281" xlink:href="#DejaVuSans-6c"/>
       <use x="481.396484" xlink:href="#DejaVuSans-75"/>
       <use x="544.775391" xlink:href="#DejaVuSans-73"/>
       <use x="596.875" xlink:href="#DejaVuSans-70"/>
       <use x="660.351562" xlink:href="#DejaVuSans-6c"/>
       <use x="688.134766" xlink:href="#DejaVuSans-75"/>
       <use x="751.513672" xlink:href="#DejaVuSans-73"/>
      </g>
     </g>
    </g>
    <g id="ytick_2">
     <g id="line2d_4">
      <g>
       <use style="stroke:#000000;stroke-width:0.8;" x="122.421875" xlink:href="#m67e713429c" y="206.784"/>
      </g>
     </g>
     <g id="text_4">
      <!-- symqemu_aflplusplus -->
      <g transform="translate(7.2 210.583219)scale(0.1 -0.1)">
       <use xlink:href="#DejaVuSans-73"/>
       <use x="52.099609" xlink:href="#DejaVuSans-79"/>
       <use x="111.279297" xlink:href="#DejaVuSans-6d"/>
       <use x="208.691406" xlink:href="#DejaVuSans-71"/>
       <use x="272.167969" xlink:href="#DejaVuSans-65"/>
       <use x="333.691406" xlink:href="#DejaVuSans-6d"/>
       <use x="431.103516" xlink:href="#DejaVuSans-75"/>
       <use x="494.482422" xlink:href="#DejaVuSans-5f"/>
       <use x="544.482422" xlink:href="#DejaVuSans-61"/>
       <use x="605.761719" xlink:href="#DejaVuSans-66"/>
       <use x="640.966797" xlink:href="#DejaVuSans-6c"/>
       <use x="668.75" xlink:href="#DejaVuSans-70"/>
       <use x="732.226562" xlink:href="#DejaVuSans-6c"/>
       <use x="760.009766" xlink:href="#DejaVuSans-75"/>
       <use x="823.388672" xlink:href="#DejaVuSans-73"/>
       <use x="875.488281" xlink:href="#DejaVuSans-70"/>
       <use x="938.964844" xlink:href="#DejaVuSans-6c"/>
       <use x="966.748047" xlink:href="#DejaVuSans-75"/>
       <use x="1030.126953" xlink:href="#DejaVuSans-73"/>
      </g>
     </g>
    </g>
   </g>
  </g>
  <g id="axes_2">
   <g id="patch_3">
    <path d="M 406.389875 204.192 
L 412.783475 204.192 
L 412.783475 76.32 
L 406.389875 76.32 
z
" style="fill:#ffffff;"/>
   </g>
   <g id="patch_4">
    <path clip-path="url(#pf912467304)" d="M 406.389875 204.192 
L 406.389875 161.568 
L 406.389875 118.944 
L 406.389875 76.32 
L 412.783475 76.32 
L 412.783475 118.944 
L 412.783475 161.568 
L 412.783475 204.192 
L 412.783475 204.192 
z
" style="fill:#ffffff;stroke:#ffffff;stroke-linejoin:miter;stroke-width:0.01;"/>
   </g>
   <g id="QuadMesh_2">
    <path clip-path="url(#pf912467304)" d="M 406.389875 204.192 
L 412.783475 204.192 
L 412.783475 161.568 
L 406.389875 161.568 
L 406.389875 204.192 
" style="fill:#005a32;"/>
    <path clip-path="url(#pf912467304)" d="M 406.389875 161.568 
L 412.783475 161.568 
L 412.783475 118.944 
L 406.389875 118.944 
L 406.389875 161.568 
" style="fill:#238b45;"/>
    <path clip-path="url(#pf912467304)" d="M 406.389875 118.944 
L 412.783475 118.944 
L 412.783475 76.32 
L 406.389875 76.32 
L 406.389875 118.944 
" style="fill:#fbd7d4;"/>
   </g>
   <g id="matplotlib.axis_3"/>
   <g id="matplotlib.axis_4">
    <g id="ytick_3">
     <g id="line2d_5"/>
     <g id="text_5">
      <!-- p &lt; 0.001 -->
      <g transform="translate(416.283475 186.679219)scale(0.1 -0.1)">
       <defs>
        <path id="DejaVuSans-20" transform="scale(0.015625)"/>
        <path d="M 4684 3150 
L 1459 2003 
L 4684 863 
L 4684 294 
L 678 1747 
L 678 2266 
L 4684 3719 
L 4684 3150 
z
" id="DejaVuSans-3c" transform="scale(0.015625)"/>
        <path d="M 2034 4250 
Q 1547 4250 1301 3770 
Q 1056 3291 1056 2328 
Q 1056 1369 1301 889 
Q 1547 409 2034 409 
Q 2525 409 2770 889 
Q 3016 1369 3016 2328 
Q 3016 3291 2770 3770 
Q 2525 4250 2034 4250 
z
M 2034 4750 
Q 2819 4750 3233 4129 
Q 3647 3509 3647 2328 
Q 3647 1150 3233 529 
Q 2819 -91 2034 -91 
Q 1250 -91 836 529 
Q 422 1150 422 2328 
Q 422 3509 836 4129 
Q 1250 4750 2034 4750 
z
" id="DejaVuSans-30" transform="scale(0.015625)"/>
        <path d="M 684 794 
L 1344 794 
L 1344 0 
L 684 0 
L 684 794 
z
" id="DejaVuSans-2e" transform="scale(0.015625)"/>
        <path d="M 794 531 
L 1825 531 
L 1825 4091 
L 703 3866 
L 703 4441 
L 1819 4666 
L 2450 4666 
L 2450 531 
L 3481 531 
L 3481 0 
L 794 0 
L 794 531 
z
" id="DejaVuSans-31" transform="scale(0.015625)"/>
       </defs>
       <use xlink:href="#DejaVuSans-70"/>
       <use x="63.476562" xlink:href="#DejaVuSans-20"/>
       <use x="95.263672" xlink:href="#DejaVuSans-3c"/>
       <use x="179.052734" xlink:href="#DejaVuSans-20"/>
       <use x="210.839844" xlink:href="#DejaVuSans-30"/>
       <use x="274.462891" xlink:href="#DejaVuSans-2e"/>
       <use x="306.25" xlink:href="#DejaVuSans-30"/>
       <use x="369.873047" xlink:href="#DejaVuSans-30"/>
       <use x="433.496094" xlink:href="#DejaVuSans-31"/>
      </g>
     </g>
    </g>
    <g id="ytick_4">
     <g id="line2d_6"/>
     <g id="text_6">
      <!-- p &lt; 0.01 -->
      <g transform="translate(416.283475 146.423219)scale(0.1 -0.1)">
       <use xlink:href="#DejaVuSans-70"/>
       <use x="63.476562" xlink:href="#DejaVuSans-20"/>
       <use x="95.263672" xlink:href="#DejaVuSans-3c"/>
       <use x="179.052734" xlink:href="#DejaVuSans-20"/>
       <use x="210.839844" xlink:href="#DejaVuSans-30"/>
       <use x="274.462891" xlink:href="#DejaVuSans-2e"/>
       <use x="306.25" xlink:href="#DejaVuSans-30"/>
       <use x="369.873047" xlink:href="#DejaVuSans-31"/>
      </g>
     </g>
    </g>
    <g id="ytick_5">
     <g id="line2d_7"/>
     <g id="text_7">
      <!-- p &lt; 0.05 -->
      <g transform="translate(416.283475 101.431219)scale(0.1 -0.1)">
       <defs>
        <path d="M 691 4666 
L 3169 4666 
L 3169 4134 
L 1269 4134 
L 1269 2991 
Q 1406 3038 1543 3061 
Q 1681 3084 1819 3084 
Q 2600 3084 3056 2656 
Q 3513 2228 3513 1497 
Q 3513 744 3044 326 
Q 2575 -91 1722 -91 
Q 1428 -91 1123 -41 
Q 819 9 494 109 
L 494 744 
Q 775 591 1075 516 
Q 1375 441 1709 441 
Q 2250 441 2565 725 
Q 2881 1009 2881 1497 
Q 2881 1984 2565 2268 
Q 2250 2553 1709 2553 
Q 1456 2553 1204 2497 
Q 953 2441 691 2322 
L 691 4666 
z
" id="DejaVuSans-35" transform="scale(0.015625)"/>
       </defs>
       <use xlink:href="#DejaVuSans-70"/>
       <use x="63.476562" xlink:href="#DejaVuSans-20"/>
       <use x="95.263672" xlink:href="#DejaVuSans-3c"/>
       <use x="179.052734" xlink:href="#DejaVuSans-20"/>
       <use x="210.839844" xlink:href="#DejaVuSans-30"/>
       <use x="274.462891" xlink:href="#DejaVuSans-2e"/>
       <use x="306.25" xlink:href="#DejaVuSans-30"/>
       <use x="369.873047" xlink:href="#DejaVuSans-35"/>
      </g>
     </g>
    </g>
   </g>
   <g id="LineCollection_1"/>
   <g id="patch_5">
    <path d="M 406.389875 204.192 
L 406.389875 161.568 
L 406.389875 118.944 
L 406.389875 76.32 
L 412.783475 76.32 
L 412.783475 118.944 
L 412.783475 161.568 
L 412.783475 204.192 
z
" style="fill:none;stroke:#808080;stroke-linecap:square;stroke-linejoin:miter;"/>
   </g>
  </g>
 </g>
 <defs>
  <clipPath id="p5425a2e1e2">
   <rect height="266.112" width="266.112" x="122.421875" y="7.2"/>
  </clipPath>
  <clipPath id="pf912467304">
   <rect height="127.872" width="6.3936" x="406.389875" y="76.32"/>
  </clipPath>
 </defs>
</svg>
