<?xml version="1.0" encoding="utf-8" standalone="no"?>
<!DOCTYPE svg PUBLIC "-//W3C//DTD SVG 1.1//EN"
  "http://www.w3.org/Graphics/SVG/1.1/DTD/svg11.dtd">
<svg height="325.986375pt" version="1.1" viewBox="0 0 925.3525 325.986375" width="925.3525pt" xmlns="http://www.w3.org/2000/svg" xmlns:xlink="http://www.w3.org/1999/xlink">
 <metadata>
  <rdf:RDF xmlns:cc="http://creativecommons.org/ns#" xmlns:dc="http://purl.org/dc/elements/1.1/" xmlns:rdf="http://www.w3.org/1999/02/22-rdf-syntax-ns#">
   <cc:Work>
    <dc:type rdf:resource="http://purl.org/dc/dcmitype/StillImage"/>
    <dc:date>2022-08-28T18:59:53.073132</dc:date>
    <dc:format>image/svg+xml</dc:format>
    <dc:creator>
     <cc:Agent>
      <dc:title>Matplotlib v3.4.1, https://matplotlib.org/</dc:title>
     </cc:Agent>
    </dc:creator>
   </cc:Work>
  </rdf:RDF>
 </metadata>
 <defs>
  <style type="text/css">*{stroke-linecap:butt;stroke-linejoin:round;}</style>
 </defs>
 <g id="figure_1">
  <g id="patch_1">
   <path d="M 0 325.986375 
L 925.3525 325.986375 
L 925.3525 0 
L 0 0 
z
" style="fill:#ffffff;"/>
  </g>
  <g id="axes_1">
   <g id="patch_2">
    <path d="M 59.690625 288.430125 
L 773.930625 288.430125 
L 773.930625 22.318125 
L 59.690625 22.318125 
z
" style="fill:#ffffff;"/>
   </g>
   <g id="PolyCollection_1">
    <defs>
     <path d="M 92.15608 -87.165503 
L 92.15608 -63.578033 
L 191.688987 -78.259479 
L 249.912006 -89.783334 
L 291.221895 -96.584298 
L 323.264335 -98.230563 
L 349.444914 -102.440684 
L 371.580278 -104.680684 
L 390.754803 -108.566949 
L 407.667933 -114.61225 
L 422.797242 -115.637792 
L 436.483368 -117.661889 
L 448.977822 -118.95731 
L 460.471605 -121.278274 
L 471.113186 -125.893214 
L 481.020261 -130.805021 
L 490.287711 -131.695623 
L 498.993142 -132.559238 
L 507.20084 -143.003575 
L 514.964657 -143.73225 
L 522.33015 -144.757792 
L 529.336205 -145.783334 
L 536.016276 -146.053214 
L 542.399355 -146.673937 
L 548.51073 -149.480684 
L 554.37259 -151.288877 
L 560.004513 -152.55731 
L 565.423859 -152.746226 
L 570.646094 -153.960684 
L 575.685054 -155.930804 
L 580.553169 -156.308636 
L 585.261644 -156.875383 
L 589.820619 -157.846949 
L 594.239294 -161.571286 
L 598.52605 -162.138033 
L 602.688533 -162.272973 
L 606.733748 -163.082611 
L 610.668121 -166.051286 
L 614.497565 -175.820925 
L 618.227531 -183.458515 
L 621.863058 -186.805021 
L 625.408809 -188.66719 
L 628.869113 -192.445503 
L 632.247989 -193.390081 
L 635.549184 -195.144298 
L 638.776188 -196.088877 
L 641.932263 -198.328877 
L 645.02046 -198.868636 
L 648.043637 -199.381407 
L 651.004477 -201.513455 
L 653.905497 -202.053214 
L 656.749068 -203.726467 
L 659.537421 -204.07731 
L 662.272658 -211.768877 
L 664.956767 -213.334178 
L 667.591623 -213.496105 
L 670.179002 -214.548636 
L 672.720584 -215.520202 
L 675.217962 -216.140925 
L 677.672648 -216.626708 
L 680.086077 -216.707672 
L 682.459612 -217.409358 
L 684.794552 -217.625262 
L 687.092131 -217.733214 
L 689.353527 -217.78719 
L 691.57986 -217.949117 
L 693.772202 -218.326949 
L 695.931576 -218.677792 
L 698.058957 -219.217551 
L 700.155281 -220.593937 
L 702.221441 -222.321166 
L 704.258293 -222.941889 
L 706.266656 -223.130804 
L 708.247317 -223.45466 
L 710.201029 -223.697551 
L 712.128516 -223.832491 
L 714.030473 -224.156346 
L 715.907567 -226.720202 
L 717.760439 -228.71731 
L 719.589708 -232.630563 
L 721.395966 -233.791045 
L 723.179786 -238.028154 
L 724.941717 -243.776587 
L 726.682292 -245.773696 
L 728.40202 -247.258033 
L 730.101397 -248.121648 
L 731.780897 -248.364539 
L 733.440981 -249.336105 
L 735.082091 -251.684057 
L 736.704658 -253.006467 
L 738.309095 -253.600202 
L 739.895804 -254.085985 
L 741.46517 -254.463816 
L 741.46517 -291.57225 
L 741.46517 -291.57225 
L 739.895804 -290.141889 
L 738.309095 -289.952973 
L 736.704658 -289.791045 
L 735.082091 -289.629117 
L 733.440981 -288.900443 
L 731.780897 -288.27972 
L 730.101397 -286.606467 
L 728.40202 -286.17466 
L 726.682292 -285.445985 
L 724.941717 -285.068154 
L 723.179786 -284.285503 
L 721.395966 -283.071045 
L 719.589708 -282.990081 
L 717.760439 -282.74719 
L 715.907567 -282.018515 
L 714.030473 -280.938997 
L 712.128516 -279.805503 
L 710.201029 -278.860925 
L 708.247317 -277.376587 
L 706.266656 -276.728877 
L 704.258293 -274.084057 
L 702.221441 -273.409358 
L 700.155281 -272.653696 
L 698.058957 -271.41225 
L 695.931576 -268.335623 
L 693.772202 -267.256105 
L 691.57986 -265.339961 
L 689.353527 -260.967913 
L 687.092131 -259.321648 
L 684.794552 -257.270563 
L 682.459612 -254.490804 
L 680.086077 -253.276346 
L 677.672648 -251.980925 
L 675.217962 -251.657069 
L 672.720584 -251.11731 
L 670.179002 -249.14719 
L 667.591623 -247.581889 
L 664.956767 -246.745262 
L 662.272658 -245.692732 
L 659.537421 -245.125985 
L 656.749068 -244.289358 
L 653.905497 -244.181407 
L 651.004477 -243.965503 
L 648.043637 -243.695623 
L 645.02046 -242.751045 
L 641.932263 -242.130322 
L 638.776188 -240.592009 
L 635.549184 -239.836346 
L 632.247989 -239.107672 
L 628.869113 -238.217069 
L 625.408809 -236.921648 
L 621.863058 -236.408877 
L 618.227531 -235.167431 
L 614.497565 -234.735623 
L 610.668121 -233.413214 
L 606.733748 -229.634901 
L 602.688533 -227.259961 
L 598.52605 -225.856587 
L 594.239294 -224.210322 
L 589.820619 -222.240202 
L 585.261644 -220.80984 
L 580.553169 -217.78719 
L 575.685054 -212.767431 
L 570.646094 -204.590081 
L 565.423859 -195.818997 
L 560.004513 -188.775142 
L 554.37259 -188.559238 
L 548.51073 -186.912973 
L 542.399355 -185.779479 
L 536.016276 -185.536587 
L 529.336205 -183.242611 
L 522.33015 -181.785262 
L 514.964657 -180.273937 
L 507.20084 -177.305262 
L 498.993142 -174.903334 
L 490.287711 -173.634901 
L 481.020261 -170.504298 
L 471.113186 -164.081166 
L 460.471605 -158.332732 
L 448.977822 -156.146708 
L 436.483368 -152.881166 
L 422.797242 -149.26478 
L 407.667933 -142.40984 
L 390.754803 -136.418515 
L 371.580278 -131.884539 
L 349.444914 -121.925985 
L 323.264335 -118.012732 
L 291.221895 -113.478756 
L 249.912006 -111.292732 
L 191.688987 -107.919238 
L 92.15608 -87.165503 
z
" id="m1c874ba748" style="stroke:#98df8a;stroke-opacity:0.2;"/>
    </defs>
    <g clip-path="url(#p1dbd7f5394)">
     <use style="fill:#98df8a;fill-opacity:0.2;stroke:#98df8a;stroke-opacity:0.2;" x="0" xlink:href="#m1c874ba748" y="325.986375"/>
    </g>
   </g>
   <g id="PolyCollection_2">
    <defs>
     <path d="M 92.15608 -62.093696 
L 92.15608 -49.65225 
L 191.688987 -61.661889 
L 249.912006 -69.461407 
L 291.221895 -78.961166 
L 323.264335 -82.145744 
L 349.444914 -91.051768 
L 371.580278 -95.558756 
L 390.754803 -104.437792 
L 407.667933 -103.695623 
L 422.797242 -110.968877 
L 436.483368 -117.715864 
L 448.977822 -123.356346 
L 460.471605 -127.593455 
L 471.113186 -130.643093 
L 481.020261 -131.182852 
L 490.287711 -137.821889 
L 498.993142 -138.98237 
L 507.20084 -140.64213 
L 514.964657 -146.404057 
L 522.33015 -147.401262 
L 529.336205 -146.093696 
L 536.016276 -153.110563 
L 542.399355 -155.552973 
L 548.51073 -153.825744 
L 554.37259 -158.953455 
L 560.004513 -159.358274 
L 565.423859 -159.452732 
L 570.646094 -162.030081 
L 575.685054 -162.677792 
L 580.553169 -164.863816 
L 585.261644 -166.051286 
L 589.820619 -168.210322 
L 594.239294 -169.991527 
L 598.52605 -170.369358 
L 602.688533 -172.069599 
L 606.733748 -172.528395 
L 610.668121 -173.041166 
L 614.497565 -172.811768 
L 618.227531 -173.459479 
L 621.863058 -174.525503 
L 625.408809 -174.633455 
L 628.869113 -175.173214 
L 632.247989 -176.387672 
L 635.549184 -181.002611 
L 638.776188 -182.08213 
L 641.932263 -188.805166 
L 645.02046 -192.418515 
L 648.043637 -194.280684 
L 651.004477 -195.25225 
L 653.905497 -195.872973 
L 656.749068 -197.681166 
L 659.537421 -198.463816 
L 662.272658 -200.703816 
L 664.956767 -205.561648 
L 667.591623 -207.623527 
L 670.179002 -208.179479 
L 672.720584 -210.79731 
L 675.217962 -212.821407 
L 677.672648 -213.361166 
L 680.086077 -214.238274 
L 682.459612 -214.831672 
L 684.794552 -213.077792 
L 687.092131 -216.302852 
L 689.353527 -217.287913 
L 691.57986 -219.055623 
L 693.772202 -219.245551 
L 695.931576 -217.328395 
L 698.058957 -220.081166 
L 700.155281 -221.972009 
L 702.221441 -224.196828 
L 704.258293 -223.414178 
L 706.266656 -225.033455 
L 708.247317 -224.601648 
L 710.201029 -231.950804 
L 712.128516 -226.423334 
L 714.030473 -232.899093 
L 715.907567 -232.803961 
L 717.760439 -234.033937 
L 719.589708 -230.120684 
L 721.395966 -231.982852 
L 723.179786 -234.978515 
L 724.941717 -234.924539 
L 726.682292 -235.086467 
L 728.40202 -235.869117 
L 730.101397 -237.426997 
L 731.780897 -237.785262 
L 733.440981 -233.952973 
L 735.082091 -239.620443 
L 736.704658 -240.079238 
L 738.309095 -241.698515 
L 739.895804 -242.02237 
L 741.46517 -243.074901 
L 741.46517 -275.433455 
L 741.46517 -275.433455 
L 739.895804 -274.866708 
L 738.309095 -273.69037 
L 736.704658 -273.301407 
L 735.082091 -271.952009 
L 733.440981 -271.358274 
L 731.780897 -270.305744 
L 730.101397 -269.339913 
L 728.40202 -269.199238 
L 726.682292 -268.281648 
L 724.941717 -268.11972 
L 723.179786 -266.716346 
L 721.395966 -265.043093 
L 719.589708 -264.723623 
L 717.760439 -264.071527 
L 715.907567 -263.482178 
L 714.030473 -262.344298 
L 712.128516 -260.455142 
L 710.201029 -260.104298 
L 708.247317 -258.88984 
L 706.266656 -256.64984 
L 704.258293 -255.624298 
L 702.221441 -254.760684 
L 700.155281 -253.276346 
L 698.058957 -252.196828 
L 695.931576 -250.06478 
L 693.772202 -249.444057 
L 691.57986 -249.363093 
L 689.353527 -248.445503 
L 687.092131 -246.90719 
L 684.794552 -247.285021 
L 682.459612 -246.448395 
L 680.086077 -245.557792 
L 677.672648 -241.725503 
L 675.217962 -240.18719 
L 672.720584 -238.702852 
L 670.179002 -237.272491 
L 667.591623 -236.975623 
L 664.956767 -236.435864 
L 662.272658 -235.869117 
L 659.537421 -235.194419 
L 656.749068 -234.978515 
L 653.905497 -234.465744 
L 651.004477 -233.791045 
L 648.043637 -229.351527 
L 645.02046 -226.855142 
L 641.932263 -227.340925 
L 638.776188 -223.400684 
L 635.549184 -222.483093 
L 632.247989 -221.268636 
L 628.869113 -222.698997 
L 625.408809 -217.544298 
L 621.863058 -213.550081 
L 618.227531 -212.713455 
L 614.497565 -209.420925 
L 610.668121 -208.341407 
L 606.733748 -201.425069 
L 602.688533 -197.924057 
L 598.52605 -196.115864 
L 594.239294 -196.16984 
L 589.820619 -192.715383 
L 585.261644 -187.514467 
L 580.553169 -185.590563 
L 575.685054 -183.701407 
L 570.646094 -184.32213 
L 565.423859 -180.637262 
L 560.004513 -181.366949 
L 554.37259 -178.38478 
L 548.51073 -181.596346 
L 542.399355 -179.032491 
L 536.016276 -174.458033 
L 529.336205 -173.459479 
L 522.33015 -170.936105 
L 514.964657 -169.154901 
L 507.20084 -168.021407 
L 498.993142 -166.725985 
L 490.287711 -163.676346 
L 481.020261 -158.602611 
L 471.113186 -157.523093 
L 460.471605 -152.96213 
L 448.977822 -149.723575 
L 436.483368 -148.239238 
L 422.797242 -146.323093 
L 407.667933 -138.280684 
L 390.754803 -134.518901 
L 371.580278 -129.792973 
L 349.444914 -124.516828 
L 323.264335 -117.891286 
L 291.221895 -108.958274 
L 249.912006 -97.318708 
L 191.688987 -81.659961 
L 92.15608 -62.093696 
z
" id="m98a493df72" style="stroke:#1f77b4;stroke-opacity:0.2;"/>
    </defs>
    <g clip-path="url(#p1dbd7f5394)">
     <use style="fill:#1f77b4;fill-opacity:0.2;stroke:#1f77b4;stroke-opacity:0.2;" x="0" xlink:href="#m98a493df72" y="325.986375"/>
    </g>
   </g>
   <g id="matplotlib.axis_1">
    <g id="xtick_1">
     <g id="line2d_1">
      <defs>
       <path d="M 0 0 
L 0 3.5 
" id="m6a9555ab21" style="stroke:#000000;stroke-width:0.8;"/>
      </defs>
      <g>
       <use style="stroke:#000000;stroke-width:0.8;" x="92.15608" xlink:href="#m6a9555ab21" y="288.430125"/>
      </g>
     </g>
     <g id="text_1">
      <!-- 14m -->
      <g transform="translate(80.923267 303.028562)scale(0.1 -0.1)">
       <defs>
        <path d="M 794 531 
L 1825 531 
L 1825 4091 
L 703 3866 
L 703 4441 
L 1819 4666 
L 2450 4666 
L 2450 531 
L 3481 531 
L 3481 0 
L 794 0 
L 794 531 
z
" id="DejaVuSans-31" transform="scale(0.015625)"/>
        <path d="M 2419 4116 
L 825 1625 
L 2419 1625 
L 2419 4116 
z
M 2253 4666 
L 3047 4666 
L 3047 1625 
L 3713 1625 
L 3713 1100 
L 3047 1100 
L 3047 0 
L 2419 0 
L 2419 1100 
L 313 1100 
L 313 1709 
L 2253 4666 
z
" id="DejaVuSans-34" transform="scale(0.015625)"/>
        <path d="M 3328 2828 
Q 3544 3216 3844 3400 
Q 4144 3584 4550 3584 
Q 5097 3584 5394 3201 
Q 5691 2819 5691 2113 
L 5691 0 
L 5113 0 
L 5113 2094 
Q 5113 2597 4934 2840 
Q 4756 3084 4391 3084 
Q 3944 3084 3684 2787 
Q 3425 2491 3425 1978 
L 3425 0 
L 2847 0 
L 2847 2094 
Q 2847 2600 2669 2842 
Q 2491 3084 2119 3084 
Q 1678 3084 1418 2786 
Q 1159 2488 1159 1978 
L 1159 0 
L 581 0 
L 581 3500 
L 1159 3500 
L 1159 2956 
Q 1356 3278 1631 3431 
Q 1906 3584 2284 3584 
Q 2666 3584 2933 3390 
Q 3200 3197 3328 2828 
z
" id="DejaVuSans-6d" transform="scale(0.015625)"/>
       </defs>
       <use xlink:href="#DejaVuSans-31"/>
       <use x="63.623047" xlink:href="#DejaVuSans-34"/>
       <use x="127.246094" xlink:href="#DejaVuSans-6d"/>
      </g>
     </g>
    </g>
    <g id="xtick_2">
     <g id="line2d_2">
      <g>
       <use style="stroke:#000000;stroke-width:0.8;" x="151.184336" xlink:href="#m6a9555ab21" y="288.430125"/>
      </g>
     </g>
     <g id="text_2">
      <!-- 22m -->
      <g transform="translate(139.951524 303.028562)scale(0.1 -0.1)">
       <defs>
        <path d="M 1228 531 
L 3431 531 
L 3431 0 
L 469 0 
L 469 531 
Q 828 903 1448 1529 
Q 2069 2156 2228 2338 
Q 2531 2678 2651 2914 
Q 2772 3150 2772 3378 
Q 2772 3750 2511 3984 
Q 2250 4219 1831 4219 
Q 1534 4219 1204 4116 
Q 875 4013 500 3803 
L 500 4441 
Q 881 4594 1212 4672 
Q 1544 4750 1819 4750 
Q 2544 4750 2975 4387 
Q 3406 4025 3406 3419 
Q 3406 3131 3298 2873 
Q 3191 2616 2906 2266 
Q 2828 2175 2409 1742 
Q 1991 1309 1228 531 
z
" id="DejaVuSans-32" transform="scale(0.015625)"/>
       </defs>
       <use xlink:href="#DejaVuSans-32"/>
       <use x="63.623047" xlink:href="#DejaVuSans-32"/>
       <use x="127.246094" xlink:href="#DejaVuSans-6d"/>
      </g>
     </g>
    </g>
    <g id="xtick_3">
     <g id="line2d_3">
      <g>
       <use style="stroke:#000000;stroke-width:0.8;" x="210.212593" xlink:href="#m6a9555ab21" y="288.430125"/>
      </g>
     </g>
     <g id="text_3">
      <!-- 34m -->
      <g transform="translate(198.979781 303.028562)scale(0.1 -0.1)">
       <defs>
        <path d="M 2597 2516 
Q 3050 2419 3304 2112 
Q 3559 1806 3559 1356 
Q 3559 666 3084 287 
Q 2609 -91 1734 -91 
Q 1441 -91 1130 -33 
Q 819 25 488 141 
L 488 750 
Q 750 597 1062 519 
Q 1375 441 1716 441 
Q 2309 441 2620 675 
Q 2931 909 2931 1356 
Q 2931 1769 2642 2001 
Q 2353 2234 1838 2234 
L 1294 2234 
L 1294 2753 
L 1863 2753 
Q 2328 2753 2575 2939 
Q 2822 3125 2822 3475 
Q 2822 3834 2567 4026 
Q 2313 4219 1838 4219 
Q 1578 4219 1281 4162 
Q 984 4106 628 3988 
L 628 4550 
Q 988 4650 1302 4700 
Q 1616 4750 1894 4750 
Q 2613 4750 3031 4423 
Q 3450 4097 3450 3541 
Q 3450 3153 3228 2886 
Q 3006 2619 2597 2516 
z
" id="DejaVuSans-33" transform="scale(0.015625)"/>
       </defs>
       <use xlink:href="#DejaVuSans-33"/>
       <use x="63.623047" xlink:href="#DejaVuSans-34"/>
       <use x="127.246094" xlink:href="#DejaVuSans-6d"/>
      </g>
     </g>
    </g>
    <g id="xtick_4">
     <g id="line2d_4">
      <g>
       <use style="stroke:#000000;stroke-width:0.8;" x="269.24085" xlink:href="#m6a9555ab21" y="288.430125"/>
      </g>
     </g>
     <g id="text_4">
      <!-- 51m -->
      <g transform="translate(258.008038 303.028562)scale(0.1 -0.1)">
       <defs>
        <path d="M 691 4666 
L 3169 4666 
L 3169 4134 
L 1269 4134 
L 1269 2991 
Q 1406 3038 1543 3061 
Q 1681 3084 1819 3084 
Q 2600 3084 3056 2656 
Q 3513 2228 3513 1497 
Q 3513 744 3044 326 
Q 2575 -91 1722 -91 
Q 1428 -91 1123 -41 
Q 819 9 494 109 
L 494 744 
Q 775 591 1075 516 
Q 1375 441 1709 441 
Q 2250 441 2565 725 
Q 2881 1009 2881 1497 
Q 2881 1984 2565 2268 
Q 2250 2553 1709 2553 
Q 1456 2553 1204 2497 
Q 953 2441 691 2322 
L 691 4666 
z
" id="DejaVuSans-35" transform="scale(0.015625)"/>
       </defs>
       <use xlink:href="#DejaVuSans-35"/>
       <use x="63.623047" xlink:href="#DejaVuSans-31"/>
       <use x="127.246094" xlink:href="#DejaVuSans-6d"/>
      </g>
     </g>
    </g>
    <g id="xtick_5">
     <g id="line2d_5">
      <g>
       <use style="stroke:#000000;stroke-width:0.8;" x="328.269107" xlink:href="#m6a9555ab21" y="288.430125"/>
      </g>
     </g>
     <g id="text_5">
      <!-- 1h:17m -->
      <g transform="translate(309.001919 303.028562)scale(0.1 -0.1)">
       <defs>
        <path d="M 3513 2113 
L 3513 0 
L 2938 0 
L 2938 2094 
Q 2938 2591 2744 2837 
Q 2550 3084 2163 3084 
Q 1697 3084 1428 2787 
Q 1159 2491 1159 1978 
L 1159 0 
L 581 0 
L 581 4863 
L 1159 4863 
L 1159 2956 
Q 1366 3272 1645 3428 
Q 1925 3584 2291 3584 
Q 2894 3584 3203 3211 
Q 3513 2838 3513 2113 
z
" id="DejaVuSans-68" transform="scale(0.015625)"/>
        <path d="M 750 794 
L 1409 794 
L 1409 0 
L 750 0 
L 750 794 
z
M 750 3309 
L 1409 3309 
L 1409 2516 
L 750 2516 
L 750 3309 
z
" id="DejaVuSans-3a" transform="scale(0.015625)"/>
        <path d="M 525 4666 
L 3525 4666 
L 3525 4397 
L 1831 0 
L 1172 0 
L 2766 4134 
L 525 4134 
L 525 4666 
z
" id="DejaVuSans-37" transform="scale(0.015625)"/>
       </defs>
       <use xlink:href="#DejaVuSans-31"/>
       <use x="63.623047" xlink:href="#DejaVuSans-68"/>
       <use x="127.001953" xlink:href="#DejaVuSans-3a"/>
       <use x="160.693359" xlink:href="#DejaVuSans-31"/>
       <use x="224.316406" xlink:href="#DejaVuSans-37"/>
       <use x="287.939453" xlink:href="#DejaVuSans-6d"/>
      </g>
     </g>
    </g>
    <g id="xtick_6">
     <g id="line2d_6">
      <g>
       <use style="stroke:#000000;stroke-width:0.8;" x="387.297364" xlink:href="#m6a9555ab21" y="288.430125"/>
      </g>
     </g>
     <g id="text_6">
      <!-- 1h:57m -->
      <g transform="translate(368.030176 303.028562)scale(0.1 -0.1)">
       <use xlink:href="#DejaVuSans-31"/>
       <use x="63.623047" xlink:href="#DejaVuSans-68"/>
       <use x="127.001953" xlink:href="#DejaVuSans-3a"/>
       <use x="160.693359" xlink:href="#DejaVuSans-35"/>
       <use x="224.316406" xlink:href="#DejaVuSans-37"/>
       <use x="287.939453" xlink:href="#DejaVuSans-6d"/>
      </g>
     </g>
    </g>
    <g id="xtick_7">
     <g id="line2d_7">
      <g>
       <use style="stroke:#000000;stroke-width:0.8;" x="446.325621" xlink:href="#m6a9555ab21" y="288.430125"/>
      </g>
     </g>
     <g id="text_7">
      <!-- 2h:56m -->
      <g transform="translate(427.058433 303.028562)scale(0.1 -0.1)">
       <defs>
        <path d="M 2113 2584 
Q 1688 2584 1439 2293 
Q 1191 2003 1191 1497 
Q 1191 994 1439 701 
Q 1688 409 2113 409 
Q 2538 409 2786 701 
Q 3034 994 3034 1497 
Q 3034 2003 2786 2293 
Q 2538 2584 2113 2584 
z
M 3366 4563 
L 3366 3988 
Q 3128 4100 2886 4159 
Q 2644 4219 2406 4219 
Q 1781 4219 1451 3797 
Q 1122 3375 1075 2522 
Q 1259 2794 1537 2939 
Q 1816 3084 2150 3084 
Q 2853 3084 3261 2657 
Q 3669 2231 3669 1497 
Q 3669 778 3244 343 
Q 2819 -91 2113 -91 
Q 1303 -91 875 529 
Q 447 1150 447 2328 
Q 447 3434 972 4092 
Q 1497 4750 2381 4750 
Q 2619 4750 2861 4703 
Q 3103 4656 3366 4563 
z
" id="DejaVuSans-36" transform="scale(0.015625)"/>
       </defs>
       <use xlink:href="#DejaVuSans-32"/>
       <use x="63.623047" xlink:href="#DejaVuSans-68"/>
       <use x="127.001953" xlink:href="#DejaVuSans-3a"/>
       <use x="160.693359" xlink:href="#DejaVuSans-35"/>
       <use x="224.316406" xlink:href="#DejaVuSans-36"/>
       <use x="287.939453" xlink:href="#DejaVuSans-6d"/>
      </g>
     </g>
    </g>
    <g id="xtick_8">
     <g id="line2d_8">
      <g>
       <use style="stroke:#000000;stroke-width:0.8;" x="505.353877" xlink:href="#m6a9555ab21" y="288.430125"/>
      </g>
     </g>
     <g id="text_8">
      <!-- 4h:26m -->
      <g transform="translate(486.08669 303.028562)scale(0.1 -0.1)">
       <use xlink:href="#DejaVuSans-34"/>
       <use x="63.623047" xlink:href="#DejaVuSans-68"/>
       <use x="127.001953" xlink:href="#DejaVuSans-3a"/>
       <use x="160.693359" xlink:href="#DejaVuSans-32"/>
       <use x="224.316406" xlink:href="#DejaVuSans-36"/>
       <use x="287.939453" xlink:href="#DejaVuSans-6d"/>
      </g>
     </g>
    </g>
    <g id="xtick_9">
     <g id="line2d_9">
      <g>
       <use style="stroke:#000000;stroke-width:0.8;" x="564.382134" xlink:href="#m6a9555ab21" y="288.430125"/>
      </g>
     </g>
     <g id="text_9">
      <!-- 6h:42m -->
      <g transform="translate(545.114947 303.028562)scale(0.1 -0.1)">
       <use xlink:href="#DejaVuSans-36"/>
       <use x="63.623047" xlink:href="#DejaVuSans-68"/>
       <use x="127.001953" xlink:href="#DejaVuSans-3a"/>
       <use x="160.693359" xlink:href="#DejaVuSans-34"/>
       <use x="224.316406" xlink:href="#DejaVuSans-32"/>
       <use x="287.939453" xlink:href="#DejaVuSans-6d"/>
      </g>
     </g>
    </g>
    <g id="xtick_10">
     <g id="line2d_10">
      <g>
       <use style="stroke:#000000;stroke-width:0.8;" x="623.410391" xlink:href="#m6a9555ab21" y="288.430125"/>
      </g>
     </g>
     <g id="text_10">
      <!-- 10h:6m -->
      <g transform="translate(604.143204 303.028562)scale(0.1 -0.1)">
       <defs>
        <path d="M 2034 4250 
Q 1547 4250 1301 3770 
Q 1056 3291 1056 2328 
Q 1056 1369 1301 889 
Q 1547 409 2034 409 
Q 2525 409 2770 889 
Q 3016 1369 3016 2328 
Q 3016 3291 2770 3770 
Q 2525 4250 2034 4250 
z
M 2034 4750 
Q 2819 4750 3233 4129 
Q 3647 3509 3647 2328 
Q 3647 1150 3233 529 
Q 2819 -91 2034 -91 
Q 1250 -91 836 529 
Q 422 1150 422 2328 
Q 422 3509 836 4129 
Q 1250 4750 2034 4750 
z
" id="DejaVuSans-30" transform="scale(0.015625)"/>
       </defs>
       <use xlink:href="#DejaVuSans-31"/>
       <use x="63.623047" xlink:href="#DejaVuSans-30"/>
       <use x="127.246094" xlink:href="#DejaVuSans-68"/>
       <use x="190.625" xlink:href="#DejaVuSans-3a"/>
       <use x="224.316406" xlink:href="#DejaVuSans-36"/>
       <use x="287.939453" xlink:href="#DejaVuSans-6d"/>
      </g>
     </g>
    </g>
    <g id="xtick_11">
     <g id="line2d_11">
      <g>
       <use style="stroke:#000000;stroke-width:0.8;" x="682.438648" xlink:href="#m6a9555ab21" y="288.430125"/>
      </g>
     </g>
     <g id="text_11">
      <!-- 15h:14m -->
      <g transform="translate(659.99021 303.028562)scale(0.1 -0.1)">
       <use xlink:href="#DejaVuSans-31"/>
       <use x="63.623047" xlink:href="#DejaVuSans-35"/>
       <use x="127.246094" xlink:href="#DejaVuSans-68"/>
       <use x="190.625" xlink:href="#DejaVuSans-3a"/>
       <use x="224.316406" xlink:href="#DejaVuSans-31"/>
       <use x="287.939453" xlink:href="#DejaVuSans-34"/>
       <use x="351.5625" xlink:href="#DejaVuSans-6d"/>
      </g>
     </g>
    </g>
    <g id="xtick_12">
     <g id="line2d_12">
      <g>
       <use style="stroke:#000000;stroke-width:0.8;" x="741.466905" xlink:href="#m6a9555ab21" y="288.430125"/>
      </g>
     </g>
     <g id="text_12">
      <!-- 23h -->
      <g transform="translate(731.935655 303.028562)scale(0.1 -0.1)">
       <use xlink:href="#DejaVuSans-32"/>
       <use x="63.623047" xlink:href="#DejaVuSans-33"/>
       <use x="127.246094" xlink:href="#DejaVuSans-68"/>
      </g>
     </g>
    </g>
    <g id="xtick_13">
     <g id="line2d_13">
      <defs>
       <path d="M 0 0 
L 0 2 
" id="m4810365d9b" style="stroke:#000000;stroke-width:0.6;"/>
      </defs>
      <g>
       <use style="stroke:#000000;stroke-width:0.6;" x="75.24295" xlink:href="#m4810365d9b" y="288.430125"/>
      </g>
     </g>
    </g>
    <g id="xtick_14">
     <g id="line2d_14">
      <g>
       <use style="stroke:#000000;stroke-width:0.6;" x="206.818297" xlink:href="#m4810365d9b" y="288.430125"/>
      </g>
     </g>
    </g>
    <g id="xtick_15">
     <g id="line2d_15">
      <g>
       <use style="stroke:#000000;stroke-width:0.6;" x="265.041316" xlink:href="#m4810365d9b" y="288.430125"/>
      </g>
     </g>
    </g>
    <g id="xtick_16">
     <g id="line2d_16">
      <g>
       <use style="stroke:#000000;stroke-width:0.6;" x="306.351205" xlink:href="#m4810365d9b" y="288.430125"/>
      </g>
     </g>
    </g>
    <g id="xtick_17">
     <g id="line2d_17">
      <g>
       <use style="stroke:#000000;stroke-width:0.6;" x="338.393644" xlink:href="#m4810365d9b" y="288.430125"/>
      </g>
     </g>
    </g>
    <g id="xtick_18">
     <g id="line2d_18">
      <g>
       <use style="stroke:#000000;stroke-width:0.6;" x="364.574224" xlink:href="#m4810365d9b" y="288.430125"/>
      </g>
     </g>
    </g>
    <g id="xtick_19">
     <g id="line2d_19">
      <g>
       <use style="stroke:#000000;stroke-width:0.6;" x="386.709588" xlink:href="#m4810365d9b" y="288.430125"/>
      </g>
     </g>
    </g>
    <g id="xtick_20">
     <g id="line2d_20">
      <g>
       <use style="stroke:#000000;stroke-width:0.6;" x="405.884113" xlink:href="#m4810365d9b" y="288.430125"/>
      </g>
     </g>
    </g>
    <g id="xtick_21">
     <g id="line2d_21">
      <g>
       <use style="stroke:#000000;stroke-width:0.6;" x="422.797242" xlink:href="#m4810365d9b" y="288.430125"/>
      </g>
     </g>
    </g>
    <g id="xtick_22">
     <g id="line2d_22">
      <g>
       <use style="stroke:#000000;stroke-width:0.6;" x="537.45946" xlink:href="#m4810365d9b" y="288.430125"/>
      </g>
     </g>
    </g>
    <g id="xtick_23">
     <g id="line2d_23">
      <g>
       <use style="stroke:#000000;stroke-width:0.6;" x="595.682479" xlink:href="#m4810365d9b" y="288.430125"/>
      </g>
     </g>
    </g>
    <g id="xtick_24">
     <g id="line2d_24">
      <g>
       <use style="stroke:#000000;stroke-width:0.6;" x="636.992368" xlink:href="#m4810365d9b" y="288.430125"/>
      </g>
     </g>
    </g>
    <g id="xtick_25">
     <g id="line2d_25">
      <g>
       <use style="stroke:#000000;stroke-width:0.6;" x="669.034807" xlink:href="#m4810365d9b" y="288.430125"/>
      </g>
     </g>
    </g>
    <g id="xtick_26">
     <g id="line2d_26">
      <g>
       <use style="stroke:#000000;stroke-width:0.6;" x="695.215387" xlink:href="#m4810365d9b" y="288.430125"/>
      </g>
     </g>
    </g>
    <g id="xtick_27">
     <g id="line2d_27">
      <g>
       <use style="stroke:#000000;stroke-width:0.6;" x="717.350751" xlink:href="#m4810365d9b" y="288.430125"/>
      </g>
     </g>
    </g>
    <g id="xtick_28">
     <g id="line2d_28">
      <g>
       <use style="stroke:#000000;stroke-width:0.6;" x="736.525276" xlink:href="#m4810365d9b" y="288.430125"/>
      </g>
     </g>
    </g>
    <g id="xtick_29">
     <g id="line2d_29">
      <g>
       <use style="stroke:#000000;stroke-width:0.6;" x="753.438405" xlink:href="#m4810365d9b" y="288.430125"/>
      </g>
     </g>
    </g>
    <g id="text_13">
     <!-- Time (hour:minute) -->
     <g transform="translate(368.403594 316.706687)scale(0.1 -0.1)">
      <defs>
       <path d="M -19 4666 
L 3928 4666 
L 3928 4134 
L 2272 4134 
L 2272 0 
L 1638 0 
L 1638 4134 
L -19 4134 
L -19 4666 
z
" id="DejaVuSans-54" transform="scale(0.015625)"/>
       <path d="M 603 3500 
L 1178 3500 
L 1178 0 
L 603 0 
L 603 3500 
z
M 603 4863 
L 1178 4863 
L 1178 4134 
L 603 4134 
L 603 4863 
z
" id="DejaVuSans-69" transform="scale(0.015625)"/>
       <path d="M 3597 1894 
L 3597 1613 
L 953 1613 
Q 991 1019 1311 708 
Q 1631 397 2203 397 
Q 2534 397 2845 478 
Q 3156 559 3463 722 
L 3463 178 
Q 3153 47 2828 -22 
Q 2503 -91 2169 -91 
Q 1331 -91 842 396 
Q 353 884 353 1716 
Q 353 2575 817 3079 
Q 1281 3584 2069 3584 
Q 2775 3584 3186 3129 
Q 3597 2675 3597 1894 
z
M 3022 2063 
Q 3016 2534 2758 2815 
Q 2500 3097 2075 3097 
Q 1594 3097 1305 2825 
Q 1016 2553 972 2059 
L 3022 2063 
z
" id="DejaVuSans-65" transform="scale(0.015625)"/>
       <path id="DejaVuSans-20" transform="scale(0.015625)"/>
       <path d="M 1984 4856 
Q 1566 4138 1362 3434 
Q 1159 2731 1159 2009 
Q 1159 1288 1364 580 
Q 1569 -128 1984 -844 
L 1484 -844 
Q 1016 -109 783 600 
Q 550 1309 550 2009 
Q 550 2706 781 3412 
Q 1013 4119 1484 4856 
L 1984 4856 
z
" id="DejaVuSans-28" transform="scale(0.015625)"/>
       <path d="M 1959 3097 
Q 1497 3097 1228 2736 
Q 959 2375 959 1747 
Q 959 1119 1226 758 
Q 1494 397 1959 397 
Q 2419 397 2687 759 
Q 2956 1122 2956 1747 
Q 2956 2369 2687 2733 
Q 2419 3097 1959 3097 
z
M 1959 3584 
Q 2709 3584 3137 3096 
Q 3566 2609 3566 1747 
Q 3566 888 3137 398 
Q 2709 -91 1959 -91 
Q 1206 -91 779 398 
Q 353 888 353 1747 
Q 353 2609 779 3096 
Q 1206 3584 1959 3584 
z
" id="DejaVuSans-6f" transform="scale(0.015625)"/>
       <path d="M 544 1381 
L 544 3500 
L 1119 3500 
L 1119 1403 
Q 1119 906 1312 657 
Q 1506 409 1894 409 
Q 2359 409 2629 706 
Q 2900 1003 2900 1516 
L 2900 3500 
L 3475 3500 
L 3475 0 
L 2900 0 
L 2900 538 
Q 2691 219 2414 64 
Q 2138 -91 1772 -91 
Q 1169 -91 856 284 
Q 544 659 544 1381 
z
M 1991 3584 
L 1991 3584 
z
" id="DejaVuSans-75" transform="scale(0.015625)"/>
       <path d="M 2631 2963 
Q 2534 3019 2420 3045 
Q 2306 3072 2169 3072 
Q 1681 3072 1420 2755 
Q 1159 2438 1159 1844 
L 1159 0 
L 581 0 
L 581 3500 
L 1159 3500 
L 1159 2956 
Q 1341 3275 1631 3429 
Q 1922 3584 2338 3584 
Q 2397 3584 2469 3576 
Q 2541 3569 2628 3553 
L 2631 2963 
z
" id="DejaVuSans-72" transform="scale(0.015625)"/>
       <path d="M 3513 2113 
L 3513 0 
L 2938 0 
L 2938 2094 
Q 2938 2591 2744 2837 
Q 2550 3084 2163 3084 
Q 1697 3084 1428 2787 
Q 1159 2491 1159 1978 
L 1159 0 
L 581 0 
L 581 3500 
L 1159 3500 
L 1159 2956 
Q 1366 3272 1645 3428 
Q 1925 3584 2291 3584 
Q 2894 3584 3203 3211 
Q 3513 2838 3513 2113 
z
" id="DejaVuSans-6e" transform="scale(0.015625)"/>
       <path d="M 1172 4494 
L 1172 3500 
L 2356 3500 
L 2356 3053 
L 1172 3053 
L 1172 1153 
Q 1172 725 1289 603 
Q 1406 481 1766 481 
L 2356 481 
L 2356 0 
L 1766 0 
Q 1100 0 847 248 
Q 594 497 594 1153 
L 594 3053 
L 172 3053 
L 172 3500 
L 594 3500 
L 594 4494 
L 1172 4494 
z
" id="DejaVuSans-74" transform="scale(0.015625)"/>
       <path d="M 513 4856 
L 1013 4856 
Q 1481 4119 1714 3412 
Q 1947 2706 1947 2009 
Q 1947 1309 1714 600 
Q 1481 -109 1013 -844 
L 513 -844 
Q 928 -128 1133 580 
Q 1338 1288 1338 2009 
Q 1338 2731 1133 3434 
Q 928 4138 513 4856 
z
" id="DejaVuSans-29" transform="scale(0.015625)"/>
      </defs>
      <use xlink:href="#DejaVuSans-54"/>
      <use x="57.958984" xlink:href="#DejaVuSans-69"/>
      <use x="85.742188" xlink:href="#DejaVuSans-6d"/>
      <use x="183.154297" xlink:href="#DejaVuSans-65"/>
      <use x="244.677734" xlink:href="#DejaVuSans-20"/>
      <use x="276.464844" xlink:href="#DejaVuSans-28"/>
      <use x="315.478516" xlink:href="#DejaVuSans-68"/>
      <use x="378.857422" xlink:href="#DejaVuSans-6f"/>
      <use x="440.039062" xlink:href="#DejaVuSans-75"/>
      <use x="503.417969" xlink:href="#DejaVuSans-72"/>
      <use x="542.78125" xlink:href="#DejaVuSans-3a"/>
      <use x="576.472656" xlink:href="#DejaVuSans-6d"/>
      <use x="673.884766" xlink:href="#DejaVuSans-69"/>
      <use x="701.667969" xlink:href="#DejaVuSans-6e"/>
      <use x="765.046875" xlink:href="#DejaVuSans-75"/>
      <use x="828.425781" xlink:href="#DejaVuSans-74"/>
      <use x="867.634766" xlink:href="#DejaVuSans-65"/>
      <use x="929.158203" xlink:href="#DejaVuSans-29"/>
     </g>
    </g>
   </g>
   <g id="matplotlib.axis_2">
    <g id="ytick_1">
     <g id="line2d_30">
      <defs>
       <path d="M 0 0 
L -3.5 0 
" id="mf23e5e8d48" style="stroke:#000000;stroke-width:0.8;"/>
      </defs>
      <g>
       <use style="stroke:#000000;stroke-width:0.8;" x="59.690625" xlink:href="#mf23e5e8d48" y="238.038221"/>
      </g>
     </g>
     <g id="text_14">
      <!-- 12000 -->
      <g transform="translate(20.878125 241.83744)scale(0.1 -0.1)">
       <use xlink:href="#DejaVuSans-31"/>
       <use x="63.623047" xlink:href="#DejaVuSans-32"/>
       <use x="127.246094" xlink:href="#DejaVuSans-30"/>
       <use x="190.869141" xlink:href="#DejaVuSans-30"/>
       <use x="254.492188" xlink:href="#DejaVuSans-30"/>
      </g>
     </g>
    </g>
    <g id="ytick_2">
     <g id="line2d_31">
      <g>
       <use style="stroke:#000000;stroke-width:0.8;" x="59.690625" xlink:href="#mf23e5e8d48" y="184.062318"/>
      </g>
     </g>
     <g id="text_15">
      <!-- 14000 -->
      <g transform="translate(20.878125 187.861537)scale(0.1 -0.1)">
       <use xlink:href="#DejaVuSans-31"/>
       <use x="63.623047" xlink:href="#DejaVuSans-34"/>
       <use x="127.246094" xlink:href="#DejaVuSans-30"/>
       <use x="190.869141" xlink:href="#DejaVuSans-30"/>
       <use x="254.492188" xlink:href="#DejaVuSans-30"/>
      </g>
     </g>
    </g>
    <g id="ytick_3">
     <g id="line2d_32">
      <g>
       <use style="stroke:#000000;stroke-width:0.8;" x="59.690625" xlink:href="#mf23e5e8d48" y="130.086414"/>
      </g>
     </g>
     <g id="text_16">
      <!-- 16000 -->
      <g transform="translate(20.878125 133.885633)scale(0.1 -0.1)">
       <use xlink:href="#DejaVuSans-31"/>
       <use x="63.623047" xlink:href="#DejaVuSans-36"/>
       <use x="127.246094" xlink:href="#DejaVuSans-30"/>
       <use x="190.869141" xlink:href="#DejaVuSans-30"/>
       <use x="254.492188" xlink:href="#DejaVuSans-30"/>
      </g>
     </g>
    </g>
    <g id="ytick_4">
     <g id="line2d_33">
      <g>
       <use style="stroke:#000000;stroke-width:0.8;" x="59.690625" xlink:href="#mf23e5e8d48" y="76.110511"/>
      </g>
     </g>
     <g id="text_17">
      <!-- 18000 -->
      <g transform="translate(20.878125 79.909729)scale(0.1 -0.1)">
       <defs>
        <path d="M 2034 2216 
Q 1584 2216 1326 1975 
Q 1069 1734 1069 1313 
Q 1069 891 1326 650 
Q 1584 409 2034 409 
Q 2484 409 2743 651 
Q 3003 894 3003 1313 
Q 3003 1734 2745 1975 
Q 2488 2216 2034 2216 
z
M 1403 2484 
Q 997 2584 770 2862 
Q 544 3141 544 3541 
Q 544 4100 942 4425 
Q 1341 4750 2034 4750 
Q 2731 4750 3128 4425 
Q 3525 4100 3525 3541 
Q 3525 3141 3298 2862 
Q 3072 2584 2669 2484 
Q 3125 2378 3379 2068 
Q 3634 1759 3634 1313 
Q 3634 634 3220 271 
Q 2806 -91 2034 -91 
Q 1263 -91 848 271 
Q 434 634 434 1313 
Q 434 1759 690 2068 
Q 947 2378 1403 2484 
z
M 1172 3481 
Q 1172 3119 1398 2916 
Q 1625 2713 2034 2713 
Q 2441 2713 2670 2916 
Q 2900 3119 2900 3481 
Q 2900 3844 2670 4047 
Q 2441 4250 2034 4250 
Q 1625 4250 1398 4047 
Q 1172 3844 1172 3481 
z
" id="DejaVuSans-38" transform="scale(0.015625)"/>
       </defs>
       <use xlink:href="#DejaVuSans-31"/>
       <use x="63.623047" xlink:href="#DejaVuSans-38"/>
       <use x="127.246094" xlink:href="#DejaVuSans-30"/>
       <use x="190.869141" xlink:href="#DejaVuSans-30"/>
       <use x="254.492188" xlink:href="#DejaVuSans-30"/>
      </g>
     </g>
    </g>
    <g id="text_18">
     <!-- Code branch coverage -->
     <g transform="translate(14.798438 211.949125)rotate(-90)scale(0.1 -0.1)">
      <defs>
       <path d="M 4122 4306 
L 4122 3641 
Q 3803 3938 3442 4084 
Q 3081 4231 2675 4231 
Q 1875 4231 1450 3742 
Q 1025 3253 1025 2328 
Q 1025 1406 1450 917 
Q 1875 428 2675 428 
Q 3081 428 3442 575 
Q 3803 722 4122 1019 
L 4122 359 
Q 3791 134 3420 21 
Q 3050 -91 2638 -91 
Q 1578 -91 968 557 
Q 359 1206 359 2328 
Q 359 3453 968 4101 
Q 1578 4750 2638 4750 
Q 3056 4750 3426 4639 
Q 3797 4528 4122 4306 
z
" id="DejaVuSans-43" transform="scale(0.015625)"/>
       <path d="M 2906 2969 
L 2906 4863 
L 3481 4863 
L 3481 0 
L 2906 0 
L 2906 525 
Q 2725 213 2448 61 
Q 2172 -91 1784 -91 
Q 1150 -91 751 415 
Q 353 922 353 1747 
Q 353 2572 751 3078 
Q 1150 3584 1784 3584 
Q 2172 3584 2448 3432 
Q 2725 3281 2906 2969 
z
M 947 1747 
Q 947 1113 1208 752 
Q 1469 391 1925 391 
Q 2381 391 2643 752 
Q 2906 1113 2906 1747 
Q 2906 2381 2643 2742 
Q 2381 3103 1925 3103 
Q 1469 3103 1208 2742 
Q 947 2381 947 1747 
z
" id="DejaVuSans-64" transform="scale(0.015625)"/>
       <path d="M 3116 1747 
Q 3116 2381 2855 2742 
Q 2594 3103 2138 3103 
Q 1681 3103 1420 2742 
Q 1159 2381 1159 1747 
Q 1159 1113 1420 752 
Q 1681 391 2138 391 
Q 2594 391 2855 752 
Q 3116 1113 3116 1747 
z
M 1159 2969 
Q 1341 3281 1617 3432 
Q 1894 3584 2278 3584 
Q 2916 3584 3314 3078 
Q 3713 2572 3713 1747 
Q 3713 922 3314 415 
Q 2916 -91 2278 -91 
Q 1894 -91 1617 61 
Q 1341 213 1159 525 
L 1159 0 
L 581 0 
L 581 4863 
L 1159 4863 
L 1159 2969 
z
" id="DejaVuSans-62" transform="scale(0.015625)"/>
       <path d="M 2194 1759 
Q 1497 1759 1228 1600 
Q 959 1441 959 1056 
Q 959 750 1161 570 
Q 1363 391 1709 391 
Q 2188 391 2477 730 
Q 2766 1069 2766 1631 
L 2766 1759 
L 2194 1759 
z
M 3341 1997 
L 3341 0 
L 2766 0 
L 2766 531 
Q 2569 213 2275 61 
Q 1981 -91 1556 -91 
Q 1019 -91 701 211 
Q 384 513 384 1019 
Q 384 1609 779 1909 
Q 1175 2209 1959 2209 
L 2766 2209 
L 2766 2266 
Q 2766 2663 2505 2880 
Q 2244 3097 1772 3097 
Q 1472 3097 1187 3025 
Q 903 2953 641 2809 
L 641 3341 
Q 956 3463 1253 3523 
Q 1550 3584 1831 3584 
Q 2591 3584 2966 3190 
Q 3341 2797 3341 1997 
z
" id="DejaVuSans-61" transform="scale(0.015625)"/>
       <path d="M 3122 3366 
L 3122 2828 
Q 2878 2963 2633 3030 
Q 2388 3097 2138 3097 
Q 1578 3097 1268 2742 
Q 959 2388 959 1747 
Q 959 1106 1268 751 
Q 1578 397 2138 397 
Q 2388 397 2633 464 
Q 2878 531 3122 666 
L 3122 134 
Q 2881 22 2623 -34 
Q 2366 -91 2075 -91 
Q 1284 -91 818 406 
Q 353 903 353 1747 
Q 353 2603 823 3093 
Q 1294 3584 2113 3584 
Q 2378 3584 2631 3529 
Q 2884 3475 3122 3366 
z
" id="DejaVuSans-63" transform="scale(0.015625)"/>
       <path d="M 191 3500 
L 800 3500 
L 1894 563 
L 2988 3500 
L 3597 3500 
L 2284 0 
L 1503 0 
L 191 3500 
z
" id="DejaVuSans-76" transform="scale(0.015625)"/>
       <path d="M 2906 1791 
Q 2906 2416 2648 2759 
Q 2391 3103 1925 3103 
Q 1463 3103 1205 2759 
Q 947 2416 947 1791 
Q 947 1169 1205 825 
Q 1463 481 1925 481 
Q 2391 481 2648 825 
Q 2906 1169 2906 1791 
z
M 3481 434 
Q 3481 -459 3084 -895 
Q 2688 -1331 1869 -1331 
Q 1566 -1331 1297 -1286 
Q 1028 -1241 775 -1147 
L 775 -588 
Q 1028 -725 1275 -790 
Q 1522 -856 1778 -856 
Q 2344 -856 2625 -561 
Q 2906 -266 2906 331 
L 2906 616 
Q 2728 306 2450 153 
Q 2172 0 1784 0 
Q 1141 0 747 490 
Q 353 981 353 1791 
Q 353 2603 747 3093 
Q 1141 3584 1784 3584 
Q 2172 3584 2450 3431 
Q 2728 3278 2906 2969 
L 2906 3500 
L 3481 3500 
L 3481 434 
z
" id="DejaVuSans-67" transform="scale(0.015625)"/>
      </defs>
      <use xlink:href="#DejaVuSans-43"/>
      <use x="69.824219" xlink:href="#DejaVuSans-6f"/>
      <use x="131.005859" xlink:href="#DejaVuSans-64"/>
      <use x="194.482422" xlink:href="#DejaVuSans-65"/>
      <use x="256.005859" xlink:href="#DejaVuSans-20"/>
      <use x="287.792969" xlink:href="#DejaVuSans-62"/>
      <use x="351.269531" xlink:href="#DejaVuSans-72"/>
      <use x="392.382812" xlink:href="#DejaVuSans-61"/>
      <use x="453.662109" xlink:href="#DejaVuSans-6e"/>
      <use x="517.041016" xlink:href="#DejaVuSans-63"/>
      <use x="572.021484" xlink:href="#DejaVuSans-68"/>
      <use x="635.400391" xlink:href="#DejaVuSans-20"/>
      <use x="667.1875" xlink:href="#DejaVuSans-63"/>
      <use x="722.167969" xlink:href="#DejaVuSans-6f"/>
      <use x="783.349609" xlink:href="#DejaVuSans-76"/>
      <use x="842.529297" xlink:href="#DejaVuSans-65"/>
      <use x="904.052734" xlink:href="#DejaVuSans-72"/>
      <use x="945.166016" xlink:href="#DejaVuSans-61"/>
      <use x="1006.445312" xlink:href="#DejaVuSans-67"/>
      <use x="1069.921875" xlink:href="#DejaVuSans-65"/>
     </g>
    </g>
   </g>
   <g id="line2d_34">
    <path clip-path="url(#p1dbd7f5394)" d="M 92.15608 251.10039 
L 191.688987 230.535571 
L 249.912006 224.692679 
L 291.221895 218.660872 
L 323.264335 214.126896 
L 349.444914 209.430992 
L 371.580278 204.303282 
L 390.754803 193.77798 
L 407.667933 188.65027 
L 422.797242 181.417498 
L 436.483368 181.201595 
L 448.977822 180.688824 
L 460.471605 177.288342 
L 471.113186 171.7828 
L 481.020261 167.464727 
L 490.287711 166.277258 
L 498.993142 165.656535 
L 507.20084 165.548583 
L 514.964657 163.848342 
L 522.33015 161.392438 
L 529.336205 159.341354 
L 536.016276 158.612679 
L 542.399355 157.560149 
L 548.51073 157.317258 
L 554.37259 155.185209 
L 560.004513 151.595812 
L 565.423859 150.354366 
L 570.646094 149.706655 
L 575.685054 148.708101 
L 580.553169 146.225209 
L 585.261644 140.800631 
L 589.820619 136.72545 
L 594.239294 133.594848 
L 598.52605 128.494125 
L 602.688533 123.55533 
L 606.733748 121.666173 
L 610.668121 120.289788 
L 614.497565 118.80545 
L 618.227531 116.592438 
L 621.863058 111.707619 
L 625.408809 107.794366 
L 628.869113 105.959185 
L 632.247989 105.419426 
L 635.549184 104.798703 
L 638.776188 103.908101 
L 641.932263 102.531715 
L 645.02046 101.830029 
L 648.043637 100.993402 
L 651.004477 99.940872 
L 653.905497 99.428101 
L 656.749068 97.781836 
L 659.537421 96.40545 
L 662.272658 95.137017 
L 664.956767 93.922559 
L 667.591623 91.1428 
L 670.179002 90.225209 
L 672.720584 88.9028 
L 675.217962 88.012197 
L 677.672648 87.553402 
L 680.086077 87.067619 
L 682.459612 86.52786 
L 684.794552 85.880149 
L 687.092131 83.586173 
L 689.353527 82.911474 
L 691.57986 81.319185 
L 693.772202 80.914366 
L 695.931576 77.324968 
L 698.058957 72.656053 
L 700.155281 71.846414 
L 702.221441 67.771233 
L 704.258293 65.612197 
L 706.266656 64.802559 
L 708.247317 64.073884 
L 710.201029 62.265691 
L 712.128516 60.781354 
L 714.030473 59.944727 
L 715.907567 59.350992 
L 717.760439 52.954848 
L 719.589708 52.415089 
L 721.395966 49.554366 
L 723.179786 48.44786 
L 724.941717 47.854125 
L 726.682292 46.396776 
L 728.40202 45.371233 
L 730.101397 44.372679 
L 731.780897 43.023282 
L 733.440981 42.942318 
L 735.082091 42.510511 
L 736.704658 42.375571 
L 738.309095 42.105691 
L 739.895804 41.377017 
L 741.46517 41.188101 
" style="fill:none;stroke:#98df8a;stroke-linecap:square;stroke-width:1.5;"/>
    <defs>
     <path d="M -0 3 
L 3 -3 
L -3 -3 
z
" id="mc94be0b5fb" style="stroke:#ffffff;stroke-linejoin:miter;stroke-width:0.75;"/>
    </defs>
    <g clip-path="url(#p1dbd7f5394)">
     <use style="fill:#98df8a;stroke:#ffffff;stroke-linejoin:miter;stroke-width:0.75;" x="92.15608" xlink:href="#mc94be0b5fb" y="251.10039"/>
     <use style="fill:#98df8a;stroke:#ffffff;stroke-linejoin:miter;stroke-width:0.75;" x="191.688987" xlink:href="#mc94be0b5fb" y="230.535571"/>
     <use style="fill:#98df8a;stroke:#ffffff;stroke-linejoin:miter;stroke-width:0.75;" x="249.912006" xlink:href="#mc94be0b5fb" y="224.692679"/>
     <use style="fill:#98df8a;stroke:#ffffff;stroke-linejoin:miter;stroke-width:0.75;" x="291.221895" xlink:href="#mc94be0b5fb" y="218.660872"/>
     <use style="fill:#98df8a;stroke:#ffffff;stroke-linejoin:miter;stroke-width:0.75;" x="323.264335" xlink:href="#mc94be0b5fb" y="214.126896"/>
     <use style="fill:#98df8a;stroke:#ffffff;stroke-linejoin:miter;stroke-width:0.75;" x="349.444914" xlink:href="#mc94be0b5fb" y="209.430992"/>
     <use style="fill:#98df8a;stroke:#ffffff;stroke-linejoin:miter;stroke-width:0.75;" x="371.580278" xlink:href="#mc94be0b5fb" y="204.303282"/>
     <use style="fill:#98df8a;stroke:#ffffff;stroke-linejoin:miter;stroke-width:0.75;" x="390.754803" xlink:href="#mc94be0b5fb" y="193.77798"/>
     <use style="fill:#98df8a;stroke:#ffffff;stroke-linejoin:miter;stroke-width:0.75;" x="407.667933" xlink:href="#mc94be0b5fb" y="188.65027"/>
     <use style="fill:#98df8a;stroke:#ffffff;stroke-linejoin:miter;stroke-width:0.75;" x="422.797242" xlink:href="#mc94be0b5fb" y="181.417498"/>
     <use style="fill:#98df8a;stroke:#ffffff;stroke-linejoin:miter;stroke-width:0.75;" x="436.483368" xlink:href="#mc94be0b5fb" y="181.201595"/>
     <use style="fill:#98df8a;stroke:#ffffff;stroke-linejoin:miter;stroke-width:0.75;" x="448.977822" xlink:href="#mc94be0b5fb" y="180.688824"/>
     <use style="fill:#98df8a;stroke:#ffffff;stroke-linejoin:miter;stroke-width:0.75;" x="460.471605" xlink:href="#mc94be0b5fb" y="177.288342"/>
     <use style="fill:#98df8a;stroke:#ffffff;stroke-linejoin:miter;stroke-width:0.75;" x="471.113186" xlink:href="#mc94be0b5fb" y="171.7828"/>
     <use style="fill:#98df8a;stroke:#ffffff;stroke-linejoin:miter;stroke-width:0.75;" x="481.020261" xlink:href="#mc94be0b5fb" y="167.464727"/>
     <use style="fill:#98df8a;stroke:#ffffff;stroke-linejoin:miter;stroke-width:0.75;" x="490.287711" xlink:href="#mc94be0b5fb" y="166.277258"/>
     <use style="fill:#98df8a;stroke:#ffffff;stroke-linejoin:miter;stroke-width:0.75;" x="498.993142" xlink:href="#mc94be0b5fb" y="165.656535"/>
     <use style="fill:#98df8a;stroke:#ffffff;stroke-linejoin:miter;stroke-width:0.75;" x="507.20084" xlink:href="#mc94be0b5fb" y="165.548583"/>
     <use style="fill:#98df8a;stroke:#ffffff;stroke-linejoin:miter;stroke-width:0.75;" x="514.964657" xlink:href="#mc94be0b5fb" y="163.848342"/>
     <use style="fill:#98df8a;stroke:#ffffff;stroke-linejoin:miter;stroke-width:0.75;" x="522.33015" xlink:href="#mc94be0b5fb" y="161.392438"/>
     <use style="fill:#98df8a;stroke:#ffffff;stroke-linejoin:miter;stroke-width:0.75;" x="529.336205" xlink:href="#mc94be0b5fb" y="159.341354"/>
     <use style="fill:#98df8a;stroke:#ffffff;stroke-linejoin:miter;stroke-width:0.75;" x="536.016276" xlink:href="#mc94be0b5fb" y="158.612679"/>
     <use style="fill:#98df8a;stroke:#ffffff;stroke-linejoin:miter;stroke-width:0.75;" x="542.399355" xlink:href="#mc94be0b5fb" y="157.560149"/>
     <use style="fill:#98df8a;stroke:#ffffff;stroke-linejoin:miter;stroke-width:0.75;" x="548.51073" xlink:href="#mc94be0b5fb" y="157.317258"/>
     <use style="fill:#98df8a;stroke:#ffffff;stroke-linejoin:miter;stroke-width:0.75;" x="554.37259" xlink:href="#mc94be0b5fb" y="155.185209"/>
     <use style="fill:#98df8a;stroke:#ffffff;stroke-linejoin:miter;stroke-width:0.75;" x="560.004513" xlink:href="#mc94be0b5fb" y="151.595812"/>
     <use style="fill:#98df8a;stroke:#ffffff;stroke-linejoin:miter;stroke-width:0.75;" x="565.423859" xlink:href="#mc94be0b5fb" y="150.354366"/>
     <use style="fill:#98df8a;stroke:#ffffff;stroke-linejoin:miter;stroke-width:0.75;" x="570.646094" xlink:href="#mc94be0b5fb" y="149.706655"/>
     <use style="fill:#98df8a;stroke:#ffffff;stroke-linejoin:miter;stroke-width:0.75;" x="575.685054" xlink:href="#mc94be0b5fb" y="148.708101"/>
     <use style="fill:#98df8a;stroke:#ffffff;stroke-linejoin:miter;stroke-width:0.75;" x="580.553169" xlink:href="#mc94be0b5fb" y="146.225209"/>
     <use style="fill:#98df8a;stroke:#ffffff;stroke-linejoin:miter;stroke-width:0.75;" x="585.261644" xlink:href="#mc94be0b5fb" y="140.800631"/>
     <use style="fill:#98df8a;stroke:#ffffff;stroke-linejoin:miter;stroke-width:0.75;" x="589.820619" xlink:href="#mc94be0b5fb" y="136.72545"/>
     <use style="fill:#98df8a;stroke:#ffffff;stroke-linejoin:miter;stroke-width:0.75;" x="594.239294" xlink:href="#mc94be0b5fb" y="133.594848"/>
     <use style="fill:#98df8a;stroke:#ffffff;stroke-linejoin:miter;stroke-width:0.75;" x="598.52605" xlink:href="#mc94be0b5fb" y="128.494125"/>
     <use style="fill:#98df8a;stroke:#ffffff;stroke-linejoin:miter;stroke-width:0.75;" x="602.688533" xlink:href="#mc94be0b5fb" y="123.55533"/>
     <use style="fill:#98df8a;stroke:#ffffff;stroke-linejoin:miter;stroke-width:0.75;" x="606.733748" xlink:href="#mc94be0b5fb" y="121.666173"/>
     <use style="fill:#98df8a;stroke:#ffffff;stroke-linejoin:miter;stroke-width:0.75;" x="610.668121" xlink:href="#mc94be0b5fb" y="120.289788"/>
     <use style="fill:#98df8a;stroke:#ffffff;stroke-linejoin:miter;stroke-width:0.75;" x="614.497565" xlink:href="#mc94be0b5fb" y="118.80545"/>
     <use style="fill:#98df8a;stroke:#ffffff;stroke-linejoin:miter;stroke-width:0.75;" x="618.227531" xlink:href="#mc94be0b5fb" y="116.592438"/>
     <use style="fill:#98df8a;stroke:#ffffff;stroke-linejoin:miter;stroke-width:0.75;" x="621.863058" xlink:href="#mc94be0b5fb" y="111.707619"/>
     <use style="fill:#98df8a;stroke:#ffffff;stroke-linejoin:miter;stroke-width:0.75;" x="625.408809" xlink:href="#mc94be0b5fb" y="107.794366"/>
     <use style="fill:#98df8a;stroke:#ffffff;stroke-linejoin:miter;stroke-width:0.75;" x="628.869113" xlink:href="#mc94be0b5fb" y="105.959185"/>
     <use style="fill:#98df8a;stroke:#ffffff;stroke-linejoin:miter;stroke-width:0.75;" x="632.247989" xlink:href="#mc94be0b5fb" y="105.419426"/>
     <use style="fill:#98df8a;stroke:#ffffff;stroke-linejoin:miter;stroke-width:0.75;" x="635.549184" xlink:href="#mc94be0b5fb" y="104.798703"/>
     <use style="fill:#98df8a;stroke:#ffffff;stroke-linejoin:miter;stroke-width:0.75;" x="638.776188" xlink:href="#mc94be0b5fb" y="103.908101"/>
     <use style="fill:#98df8a;stroke:#ffffff;stroke-linejoin:miter;stroke-width:0.75;" x="641.932263" xlink:href="#mc94be0b5fb" y="102.531715"/>
     <use style="fill:#98df8a;stroke:#ffffff;stroke-linejoin:miter;stroke-width:0.75;" x="645.02046" xlink:href="#mc94be0b5fb" y="101.830029"/>
     <use style="fill:#98df8a;stroke:#ffffff;stroke-linejoin:miter;stroke-width:0.75;" x="648.043637" xlink:href="#mc94be0b5fb" y="100.993402"/>
     <use style="fill:#98df8a;stroke:#ffffff;stroke-linejoin:miter;stroke-width:0.75;" x="651.004477" xlink:href="#mc94be0b5fb" y="99.940872"/>
     <use style="fill:#98df8a;stroke:#ffffff;stroke-linejoin:miter;stroke-width:0.75;" x="653.905497" xlink:href="#mc94be0b5fb" y="99.428101"/>
     <use style="fill:#98df8a;stroke:#ffffff;stroke-linejoin:miter;stroke-width:0.75;" x="656.749068" xlink:href="#mc94be0b5fb" y="97.781836"/>
     <use style="fill:#98df8a;stroke:#ffffff;stroke-linejoin:miter;stroke-width:0.75;" x="659.537421" xlink:href="#mc94be0b5fb" y="96.40545"/>
     <use style="fill:#98df8a;stroke:#ffffff;stroke-linejoin:miter;stroke-width:0.75;" x="662.272658" xlink:href="#mc94be0b5fb" y="95.137017"/>
     <use style="fill:#98df8a;stroke:#ffffff;stroke-linejoin:miter;stroke-width:0.75;" x="664.956767" xlink:href="#mc94be0b5fb" y="93.922559"/>
     <use style="fill:#98df8a;stroke:#ffffff;stroke-linejoin:miter;stroke-width:0.75;" x="667.591623" xlink:href="#mc94be0b5fb" y="91.1428"/>
     <use style="fill:#98df8a;stroke:#ffffff;stroke-linejoin:miter;stroke-width:0.75;" x="670.179002" xlink:href="#mc94be0b5fb" y="90.225209"/>
     <use style="fill:#98df8a;stroke:#ffffff;stroke-linejoin:miter;stroke-width:0.75;" x="672.720584" xlink:href="#mc94be0b5fb" y="88.9028"/>
     <use style="fill:#98df8a;stroke:#ffffff;stroke-linejoin:miter;stroke-width:0.75;" x="675.217962" xlink:href="#mc94be0b5fb" y="88.012197"/>
     <use style="fill:#98df8a;stroke:#ffffff;stroke-linejoin:miter;stroke-width:0.75;" x="677.672648" xlink:href="#mc94be0b5fb" y="87.553402"/>
     <use style="fill:#98df8a;stroke:#ffffff;stroke-linejoin:miter;stroke-width:0.75;" x="680.086077" xlink:href="#mc94be0b5fb" y="87.067619"/>
     <use style="fill:#98df8a;stroke:#ffffff;stroke-linejoin:miter;stroke-width:0.75;" x="682.459612" xlink:href="#mc94be0b5fb" y="86.52786"/>
     <use style="fill:#98df8a;stroke:#ffffff;stroke-linejoin:miter;stroke-width:0.75;" x="684.794552" xlink:href="#mc94be0b5fb" y="85.880149"/>
     <use style="fill:#98df8a;stroke:#ffffff;stroke-linejoin:miter;stroke-width:0.75;" x="687.092131" xlink:href="#mc94be0b5fb" y="83.586173"/>
     <use style="fill:#98df8a;stroke:#ffffff;stroke-linejoin:miter;stroke-width:0.75;" x="689.353527" xlink:href="#mc94be0b5fb" y="82.911474"/>
     <use style="fill:#98df8a;stroke:#ffffff;stroke-linejoin:miter;stroke-width:0.75;" x="691.57986" xlink:href="#mc94be0b5fb" y="81.319185"/>
     <use style="fill:#98df8a;stroke:#ffffff;stroke-linejoin:miter;stroke-width:0.75;" x="693.772202" xlink:href="#mc94be0b5fb" y="80.914366"/>
     <use style="fill:#98df8a;stroke:#ffffff;stroke-linejoin:miter;stroke-width:0.75;" x="695.931576" xlink:href="#mc94be0b5fb" y="77.324968"/>
     <use style="fill:#98df8a;stroke:#ffffff;stroke-linejoin:miter;stroke-width:0.75;" x="698.058957" xlink:href="#mc94be0b5fb" y="72.656053"/>
     <use style="fill:#98df8a;stroke:#ffffff;stroke-linejoin:miter;stroke-width:0.75;" x="700.155281" xlink:href="#mc94be0b5fb" y="71.846414"/>
     <use style="fill:#98df8a;stroke:#ffffff;stroke-linejoin:miter;stroke-width:0.75;" x="702.221441" xlink:href="#mc94be0b5fb" y="67.771233"/>
     <use style="fill:#98df8a;stroke:#ffffff;stroke-linejoin:miter;stroke-width:0.75;" x="704.258293" xlink:href="#mc94be0b5fb" y="65.612197"/>
     <use style="fill:#98df8a;stroke:#ffffff;stroke-linejoin:miter;stroke-width:0.75;" x="706.266656" xlink:href="#mc94be0b5fb" y="64.802559"/>
     <use style="fill:#98df8a;stroke:#ffffff;stroke-linejoin:miter;stroke-width:0.75;" x="708.247317" xlink:href="#mc94be0b5fb" y="64.073884"/>
     <use style="fill:#98df8a;stroke:#ffffff;stroke-linejoin:miter;stroke-width:0.75;" x="710.201029" xlink:href="#mc94be0b5fb" y="62.265691"/>
     <use style="fill:#98df8a;stroke:#ffffff;stroke-linejoin:miter;stroke-width:0.75;" x="712.128516" xlink:href="#mc94be0b5fb" y="60.781354"/>
     <use style="fill:#98df8a;stroke:#ffffff;stroke-linejoin:miter;stroke-width:0.75;" x="714.030473" xlink:href="#mc94be0b5fb" y="59.944727"/>
     <use style="fill:#98df8a;stroke:#ffffff;stroke-linejoin:miter;stroke-width:0.75;" x="715.907567" xlink:href="#mc94be0b5fb" y="59.350992"/>
     <use style="fill:#98df8a;stroke:#ffffff;stroke-linejoin:miter;stroke-width:0.75;" x="717.760439" xlink:href="#mc94be0b5fb" y="52.954848"/>
     <use style="fill:#98df8a;stroke:#ffffff;stroke-linejoin:miter;stroke-width:0.75;" x="719.589708" xlink:href="#mc94be0b5fb" y="52.415089"/>
     <use style="fill:#98df8a;stroke:#ffffff;stroke-linejoin:miter;stroke-width:0.75;" x="721.395966" xlink:href="#mc94be0b5fb" y="49.554366"/>
     <use style="fill:#98df8a;stroke:#ffffff;stroke-linejoin:miter;stroke-width:0.75;" x="723.179786" xlink:href="#mc94be0b5fb" y="48.44786"/>
     <use style="fill:#98df8a;stroke:#ffffff;stroke-linejoin:miter;stroke-width:0.75;" x="724.941717" xlink:href="#mc94be0b5fb" y="47.854125"/>
     <use style="fill:#98df8a;stroke:#ffffff;stroke-linejoin:miter;stroke-width:0.75;" x="726.682292" xlink:href="#mc94be0b5fb" y="46.396776"/>
     <use style="fill:#98df8a;stroke:#ffffff;stroke-linejoin:miter;stroke-width:0.75;" x="728.40202" xlink:href="#mc94be0b5fb" y="45.371233"/>
     <use style="fill:#98df8a;stroke:#ffffff;stroke-linejoin:miter;stroke-width:0.75;" x="730.101397" xlink:href="#mc94be0b5fb" y="44.372679"/>
     <use style="fill:#98df8a;stroke:#ffffff;stroke-linejoin:miter;stroke-width:0.75;" x="731.780897" xlink:href="#mc94be0b5fb" y="43.023282"/>
     <use style="fill:#98df8a;stroke:#ffffff;stroke-linejoin:miter;stroke-width:0.75;" x="733.440981" xlink:href="#mc94be0b5fb" y="42.942318"/>
     <use style="fill:#98df8a;stroke:#ffffff;stroke-linejoin:miter;stroke-width:0.75;" x="735.082091" xlink:href="#mc94be0b5fb" y="42.510511"/>
     <use style="fill:#98df8a;stroke:#ffffff;stroke-linejoin:miter;stroke-width:0.75;" x="736.704658" xlink:href="#mc94be0b5fb" y="42.375571"/>
     <use style="fill:#98df8a;stroke:#ffffff;stroke-linejoin:miter;stroke-width:0.75;" x="738.309095" xlink:href="#mc94be0b5fb" y="42.105691"/>
     <use style="fill:#98df8a;stroke:#ffffff;stroke-linejoin:miter;stroke-width:0.75;" x="739.895804" xlink:href="#mc94be0b5fb" y="41.377017"/>
     <use style="fill:#98df8a;stroke:#ffffff;stroke-linejoin:miter;stroke-width:0.75;" x="741.46517" xlink:href="#mc94be0b5fb" y="41.188101"/>
    </g>
   </g>
   <g id="line2d_35">
    <path clip-path="url(#p1dbd7f5394)" d="M 92.15608 273.055089 
L 191.688987 250.04786 
L 249.912006 239.428101 
L 291.221895 233.099426 
L 323.264335 222.142318 
L 349.444914 214.720631 
L 371.580278 205.625691 
L 390.754803 200.160631 
L 407.667933 196.611715 
L 422.797242 192.361113 
L 436.483368 186.477739 
L 448.977822 183.83292 
L 460.471605 181.741354 
L 471.113186 179.21798 
L 481.020261 177.504245 
L 490.287711 175.911956 
L 498.993142 173.968824 
L 507.20084 172.76786 
L 514.964657 168.125932 
L 522.33015 161.63533 
L 529.336205 159.989065 
L 536.016276 159.206414 
L 542.399355 158.963523 
L 548.51073 158.045932 
L 554.37259 155.023282 
L 560.004513 153.984245 
L 565.423859 152.459426 
L 570.646094 151.825209 
L 575.685054 150.259908 
L 580.553169 146.576053 
L 585.261644 145.874366 
L 589.820619 144.592438 
L 594.239294 142.338944 
L 598.52605 139.113884 
L 602.688533 136.99533 
L 606.733748 135.551474 
L 610.668121 133.014607 
L 614.497565 130.653161 
L 618.227531 125.377017 
L 621.863058 124.837258 
L 625.408809 123.137017 
L 628.869113 121.220872 
L 632.247989 118.387137 
L 635.549184 115.728824 
L 638.776188 113.380872 
L 641.932263 111.990992 
L 645.02046 109.508101 
L 648.043637 107.092679 
L 651.004477 106.107619 
L 653.905497 105.29798 
L 656.749068 103.840631 
L 659.537421 102.018944 
L 662.272658 101.114848 
L 664.956767 99.495571 
L 667.591623 98.64545 
L 670.179002 97.822318 
L 672.720584 96.54039 
L 675.217962 95.609306 
L 677.672648 95.190992 
L 680.086077 94.853643 
L 682.459612 93.760631 
L 684.794552 93.166896 
L 687.092131 92.384245 
L 689.353527 91.871474 
L 691.57986 91.277739 
L 693.772202 90.346655 
L 695.931576 89.941836 
L 698.058957 88.83533 
L 700.155281 87.135089 
L 702.221441 85.596776 
L 704.258293 85.110992 
L 706.266656 84.935571 
L 708.247317 84.800631 
L 710.201029 84.341836 
L 712.128516 82.803523 
L 714.030473 81.804968 
L 715.907567 81.359667 
L 717.760439 79.295089 
L 719.589708 78.903764 
L 721.395966 78.48545 
L 723.179786 77.959185 
L 724.941717 77.230511 
L 726.682292 76.24545 
L 728.40202 74.909547 
L 730.101397 72.359185 
L 731.780897 70.254125 
L 733.440981 68.567378 
L 735.082091 66.16545 
L 736.704658 63.952438 
L 738.309095 62.630029 
L 739.895804 62.0228 
L 741.46517 60.943282 
" style="fill:none;stroke:#1f77b4;stroke-linecap:square;stroke-width:1.5;"/>
    <defs>
     <path d="M 0 3 
C 0.795609 3 1.55874 2.683901 2.12132 2.12132 
C 2.683901 1.55874 3 0.795609 3 0 
C 3 -0.795609 2.683901 -1.55874 2.12132 -2.12132 
C 1.55874 -2.683901 0.795609 -3 0 -3 
C -0.795609 -3 -1.55874 -2.683901 -2.12132 -2.12132 
C -2.683901 -1.55874 -3 -0.795609 -3 0 
C -3 0.795609 -2.683901 1.55874 -2.12132 2.12132 
C -1.55874 2.683901 -0.795609 3 0 3 
z
" id="m793491386a" style="stroke:#ffffff;stroke-width:0.75;"/>
    </defs>
    <g clip-path="url(#p1dbd7f5394)">
     <use style="fill:#1f77b4;stroke:#ffffff;stroke-width:0.75;" x="92.15608" xlink:href="#m793491386a" y="273.055089"/>
     <use style="fill:#1f77b4;stroke:#ffffff;stroke-width:0.75;" x="191.688987" xlink:href="#m793491386a" y="250.04786"/>
     <use style="fill:#1f77b4;stroke:#ffffff;stroke-width:0.75;" x="249.912006" xlink:href="#m793491386a" y="239.428101"/>
     <use style="fill:#1f77b4;stroke:#ffffff;stroke-width:0.75;" x="291.221895" xlink:href="#m793491386a" y="233.099426"/>
     <use style="fill:#1f77b4;stroke:#ffffff;stroke-width:0.75;" x="323.264335" xlink:href="#m793491386a" y="222.142318"/>
     <use style="fill:#1f77b4;stroke:#ffffff;stroke-width:0.75;" x="349.444914" xlink:href="#m793491386a" y="214.720631"/>
     <use style="fill:#1f77b4;stroke:#ffffff;stroke-width:0.75;" x="371.580278" xlink:href="#m793491386a" y="205.625691"/>
     <use style="fill:#1f77b4;stroke:#ffffff;stroke-width:0.75;" x="390.754803" xlink:href="#m793491386a" y="200.160631"/>
     <use style="fill:#1f77b4;stroke:#ffffff;stroke-width:0.75;" x="407.667933" xlink:href="#m793491386a" y="196.611715"/>
     <use style="fill:#1f77b4;stroke:#ffffff;stroke-width:0.75;" x="422.797242" xlink:href="#m793491386a" y="192.361113"/>
     <use style="fill:#1f77b4;stroke:#ffffff;stroke-width:0.75;" x="436.483368" xlink:href="#m793491386a" y="186.477739"/>
     <use style="fill:#1f77b4;stroke:#ffffff;stroke-width:0.75;" x="448.977822" xlink:href="#m793491386a" y="183.83292"/>
     <use style="fill:#1f77b4;stroke:#ffffff;stroke-width:0.75;" x="460.471605" xlink:href="#m793491386a" y="181.741354"/>
     <use style="fill:#1f77b4;stroke:#ffffff;stroke-width:0.75;" x="471.113186" xlink:href="#m793491386a" y="179.21798"/>
     <use style="fill:#1f77b4;stroke:#ffffff;stroke-width:0.75;" x="481.020261" xlink:href="#m793491386a" y="177.504245"/>
     <use style="fill:#1f77b4;stroke:#ffffff;stroke-width:0.75;" x="490.287711" xlink:href="#m793491386a" y="175.911956"/>
     <use style="fill:#1f77b4;stroke:#ffffff;stroke-width:0.75;" x="498.993142" xlink:href="#m793491386a" y="173.968824"/>
     <use style="fill:#1f77b4;stroke:#ffffff;stroke-width:0.75;" x="507.20084" xlink:href="#m793491386a" y="172.76786"/>
     <use style="fill:#1f77b4;stroke:#ffffff;stroke-width:0.75;" x="514.964657" xlink:href="#m793491386a" y="168.125932"/>
     <use style="fill:#1f77b4;stroke:#ffffff;stroke-width:0.75;" x="522.33015" xlink:href="#m793491386a" y="161.63533"/>
     <use style="fill:#1f77b4;stroke:#ffffff;stroke-width:0.75;" x="529.336205" xlink:href="#m793491386a" y="159.989065"/>
     <use style="fill:#1f77b4;stroke:#ffffff;stroke-width:0.75;" x="536.016276" xlink:href="#m793491386a" y="159.206414"/>
     <use style="fill:#1f77b4;stroke:#ffffff;stroke-width:0.75;" x="542.399355" xlink:href="#m793491386a" y="158.963523"/>
     <use style="fill:#1f77b4;stroke:#ffffff;stroke-width:0.75;" x="548.51073" xlink:href="#m793491386a" y="158.045932"/>
     <use style="fill:#1f77b4;stroke:#ffffff;stroke-width:0.75;" x="554.37259" xlink:href="#m793491386a" y="155.023282"/>
     <use style="fill:#1f77b4;stroke:#ffffff;stroke-width:0.75;" x="560.004513" xlink:href="#m793491386a" y="153.984245"/>
     <use style="fill:#1f77b4;stroke:#ffffff;stroke-width:0.75;" x="565.423859" xlink:href="#m793491386a" y="152.459426"/>
     <use style="fill:#1f77b4;stroke:#ffffff;stroke-width:0.75;" x="570.646094" xlink:href="#m793491386a" y="151.825209"/>
     <use style="fill:#1f77b4;stroke:#ffffff;stroke-width:0.75;" x="575.685054" xlink:href="#m793491386a" y="150.259908"/>
     <use style="fill:#1f77b4;stroke:#ffffff;stroke-width:0.75;" x="580.553169" xlink:href="#m793491386a" y="146.576053"/>
     <use style="fill:#1f77b4;stroke:#ffffff;stroke-width:0.75;" x="585.261644" xlink:href="#m793491386a" y="145.874366"/>
     <use style="fill:#1f77b4;stroke:#ffffff;stroke-width:0.75;" x="589.820619" xlink:href="#m793491386a" y="144.592438"/>
     <use style="fill:#1f77b4;stroke:#ffffff;stroke-width:0.75;" x="594.239294" xlink:href="#m793491386a" y="142.338944"/>
     <use style="fill:#1f77b4;stroke:#ffffff;stroke-width:0.75;" x="598.52605" xlink:href="#m793491386a" y="139.113884"/>
     <use style="fill:#1f77b4;stroke:#ffffff;stroke-width:0.75;" x="602.688533" xlink:href="#m793491386a" y="136.99533"/>
     <use style="fill:#1f77b4;stroke:#ffffff;stroke-width:0.75;" x="606.733748" xlink:href="#m793491386a" y="135.551474"/>
     <use style="fill:#1f77b4;stroke:#ffffff;stroke-width:0.75;" x="610.668121" xlink:href="#m793491386a" y="133.014607"/>
     <use style="fill:#1f77b4;stroke:#ffffff;stroke-width:0.75;" x="614.497565" xlink:href="#m793491386a" y="130.653161"/>
     <use style="fill:#1f77b4;stroke:#ffffff;stroke-width:0.75;" x="618.227531" xlink:href="#m793491386a" y="125.377017"/>
     <use style="fill:#1f77b4;stroke:#ffffff;stroke-width:0.75;" x="621.863058" xlink:href="#m793491386a" y="124.837258"/>
     <use style="fill:#1f77b4;stroke:#ffffff;stroke-width:0.75;" x="625.408809" xlink:href="#m793491386a" y="123.137017"/>
     <use style="fill:#1f77b4;stroke:#ffffff;stroke-width:0.75;" x="628.869113" xlink:href="#m793491386a" y="121.220872"/>
     <use style="fill:#1f77b4;stroke:#ffffff;stroke-width:0.75;" x="632.247989" xlink:href="#m793491386a" y="118.387137"/>
     <use style="fill:#1f77b4;stroke:#ffffff;stroke-width:0.75;" x="635.549184" xlink:href="#m793491386a" y="115.728824"/>
     <use style="fill:#1f77b4;stroke:#ffffff;stroke-width:0.75;" x="638.776188" xlink:href="#m793491386a" y="113.380872"/>
     <use style="fill:#1f77b4;stroke:#ffffff;stroke-width:0.75;" x="641.932263" xlink:href="#m793491386a" y="111.990992"/>
     <use style="fill:#1f77b4;stroke:#ffffff;stroke-width:0.75;" x="645.02046" xlink:href="#m793491386a" y="109.508101"/>
     <use style="fill:#1f77b4;stroke:#ffffff;stroke-width:0.75;" x="648.043637" xlink:href="#m793491386a" y="107.092679"/>
     <use style="fill:#1f77b4;stroke:#ffffff;stroke-width:0.75;" x="651.004477" xlink:href="#m793491386a" y="106.107619"/>
     <use style="fill:#1f77b4;stroke:#ffffff;stroke-width:0.75;" x="653.905497" xlink:href="#m793491386a" y="105.29798"/>
     <use style="fill:#1f77b4;stroke:#ffffff;stroke-width:0.75;" x="656.749068" xlink:href="#m793491386a" y="103.840631"/>
     <use style="fill:#1f77b4;stroke:#ffffff;stroke-width:0.75;" x="659.537421" xlink:href="#m793491386a" y="102.018944"/>
     <use style="fill:#1f77b4;stroke:#ffffff;stroke-width:0.75;" x="662.272658" xlink:href="#m793491386a" y="101.114848"/>
     <use style="fill:#1f77b4;stroke:#ffffff;stroke-width:0.75;" x="664.956767" xlink:href="#m793491386a" y="99.495571"/>
     <use style="fill:#1f77b4;stroke:#ffffff;stroke-width:0.75;" x="667.591623" xlink:href="#m793491386a" y="98.64545"/>
     <use style="fill:#1f77b4;stroke:#ffffff;stroke-width:0.75;" x="670.179002" xlink:href="#m793491386a" y="97.822318"/>
     <use style="fill:#1f77b4;stroke:#ffffff;stroke-width:0.75;" x="672.720584" xlink:href="#m793491386a" y="96.54039"/>
     <use style="fill:#1f77b4;stroke:#ffffff;stroke-width:0.75;" x="675.217962" xlink:href="#m793491386a" y="95.609306"/>
     <use style="fill:#1f77b4;stroke:#ffffff;stroke-width:0.75;" x="677.672648" xlink:href="#m793491386a" y="95.190992"/>
     <use style="fill:#1f77b4;stroke:#ffffff;stroke-width:0.75;" x="680.086077" xlink:href="#m793491386a" y="94.853643"/>
     <use style="fill:#1f77b4;stroke:#ffffff;stroke-width:0.75;" x="682.459612" xlink:href="#m793491386a" y="93.760631"/>
     <use style="fill:#1f77b4;stroke:#ffffff;stroke-width:0.75;" x="684.794552" xlink:href="#m793491386a" y="93.166896"/>
     <use style="fill:#1f77b4;stroke:#ffffff;stroke-width:0.75;" x="687.092131" xlink:href="#m793491386a" y="92.384245"/>
     <use style="fill:#1f77b4;stroke:#ffffff;stroke-width:0.75;" x="689.353527" xlink:href="#m793491386a" y="91.871474"/>
     <use style="fill:#1f77b4;stroke:#ffffff;stroke-width:0.75;" x="691.57986" xlink:href="#m793491386a" y="91.277739"/>
     <use style="fill:#1f77b4;stroke:#ffffff;stroke-width:0.75;" x="693.772202" xlink:href="#m793491386a" y="90.346655"/>
     <use style="fill:#1f77b4;stroke:#ffffff;stroke-width:0.75;" x="695.931576" xlink:href="#m793491386a" y="89.941836"/>
     <use style="fill:#1f77b4;stroke:#ffffff;stroke-width:0.75;" x="698.058957" xlink:href="#m793491386a" y="88.83533"/>
     <use style="fill:#1f77b4;stroke:#ffffff;stroke-width:0.75;" x="700.155281" xlink:href="#m793491386a" y="87.135089"/>
     <use style="fill:#1f77b4;stroke:#ffffff;stroke-width:0.75;" x="702.221441" xlink:href="#m793491386a" y="85.596776"/>
     <use style="fill:#1f77b4;stroke:#ffffff;stroke-width:0.75;" x="704.258293" xlink:href="#m793491386a" y="85.110992"/>
     <use style="fill:#1f77b4;stroke:#ffffff;stroke-width:0.75;" x="706.266656" xlink:href="#m793491386a" y="84.935571"/>
     <use style="fill:#1f77b4;stroke:#ffffff;stroke-width:0.75;" x="708.247317" xlink:href="#m793491386a" y="84.800631"/>
     <use style="fill:#1f77b4;stroke:#ffffff;stroke-width:0.75;" x="710.201029" xlink:href="#m793491386a" y="84.341836"/>
     <use style="fill:#1f77b4;stroke:#ffffff;stroke-width:0.75;" x="712.128516" xlink:href="#m793491386a" y="82.803523"/>
     <use style="fill:#1f77b4;stroke:#ffffff;stroke-width:0.75;" x="714.030473" xlink:href="#m793491386a" y="81.804968"/>
     <use style="fill:#1f77b4;stroke:#ffffff;stroke-width:0.75;" x="715.907567" xlink:href="#m793491386a" y="81.359667"/>
     <use style="fill:#1f77b4;stroke:#ffffff;stroke-width:0.75;" x="717.760439" xlink:href="#m793491386a" y="79.295089"/>
     <use style="fill:#1f77b4;stroke:#ffffff;stroke-width:0.75;" x="719.589708" xlink:href="#m793491386a" y="78.903764"/>
     <use style="fill:#1f77b4;stroke:#ffffff;stroke-width:0.75;" x="721.395966" xlink:href="#m793491386a" y="78.48545"/>
     <use style="fill:#1f77b4;stroke:#ffffff;stroke-width:0.75;" x="723.179786" xlink:href="#m793491386a" y="77.959185"/>
     <use style="fill:#1f77b4;stroke:#ffffff;stroke-width:0.75;" x="724.941717" xlink:href="#m793491386a" y="77.230511"/>
     <use style="fill:#1f77b4;stroke:#ffffff;stroke-width:0.75;" x="726.682292" xlink:href="#m793491386a" y="76.24545"/>
     <use style="fill:#1f77b4;stroke:#ffffff;stroke-width:0.75;" x="728.40202" xlink:href="#m793491386a" y="74.909547"/>
     <use style="fill:#1f77b4;stroke:#ffffff;stroke-width:0.75;" x="730.101397" xlink:href="#m793491386a" y="72.359185"/>
     <use style="fill:#1f77b4;stroke:#ffffff;stroke-width:0.75;" x="731.780897" xlink:href="#m793491386a" y="70.254125"/>
     <use style="fill:#1f77b4;stroke:#ffffff;stroke-width:0.75;" x="733.440981" xlink:href="#m793491386a" y="68.567378"/>
     <use style="fill:#1f77b4;stroke:#ffffff;stroke-width:0.75;" x="735.082091" xlink:href="#m793491386a" y="66.16545"/>
     <use style="fill:#1f77b4;stroke:#ffffff;stroke-width:0.75;" x="736.704658" xlink:href="#m793491386a" y="63.952438"/>
     <use style="fill:#1f77b4;stroke:#ffffff;stroke-width:0.75;" x="738.309095" xlink:href="#m793491386a" y="62.630029"/>
     <use style="fill:#1f77b4;stroke:#ffffff;stroke-width:0.75;" x="739.895804" xlink:href="#m793491386a" y="62.0228"/>
     <use style="fill:#1f77b4;stroke:#ffffff;stroke-width:0.75;" x="741.46517" xlink:href="#m793491386a" y="60.943282"/>
    </g>
   </g>
   <g id="line2d_36"/>
   <g id="line2d_37"/>
   <g id="line2d_38">
    <path clip-path="url(#p1dbd7f5394)" d="M 741.46517 288.430125 
L 741.46517 22.318125 
" style="fill:none;stroke:#ff0000;stroke-linecap:square;stroke-width:1.5;"/>
   </g>
   <g id="patch_3">
    <path d="M 59.690625 238.038221 
L 59.690625 76.110511 
" style="fill:none;stroke:#000000;stroke-linecap:square;stroke-linejoin:miter;stroke-width:0.8;"/>
   </g>
   <g id="patch_4">
    <path d="M 92.15608 288.430125 
L 741.466905 288.430125 
" style="fill:none;stroke:#000000;stroke-linecap:square;stroke-linejoin:miter;stroke-width:0.8;"/>
   </g>
   <g id="text_19">
    <!-- sqlite3_ossfuzz (23h, 5 trials/fuzzer) -->
    <g transform="translate(308.633438 16.318125)scale(0.12 -0.12)">
     <defs>
      <path d="M 2834 3397 
L 2834 2853 
Q 2591 2978 2328 3040 
Q 2066 3103 1784 3103 
Q 1356 3103 1142 2972 
Q 928 2841 928 2578 
Q 928 2378 1081 2264 
Q 1234 2150 1697 2047 
L 1894 2003 
Q 2506 1872 2764 1633 
Q 3022 1394 3022 966 
Q 3022 478 2636 193 
Q 2250 -91 1575 -91 
Q 1294 -91 989 -36 
Q 684 19 347 128 
L 347 722 
Q 666 556 975 473 
Q 1284 391 1588 391 
Q 1994 391 2212 530 
Q 2431 669 2431 922 
Q 2431 1156 2273 1281 
Q 2116 1406 1581 1522 
L 1381 1569 
Q 847 1681 609 1914 
Q 372 2147 372 2553 
Q 372 3047 722 3315 
Q 1072 3584 1716 3584 
Q 2034 3584 2315 3537 
Q 2597 3491 2834 3397 
z
" id="DejaVuSans-73" transform="scale(0.015625)"/>
      <path d="M 947 1747 
Q 947 1113 1208 752 
Q 1469 391 1925 391 
Q 2381 391 2643 752 
Q 2906 1113 2906 1747 
Q 2906 2381 2643 2742 
Q 2381 3103 1925 3103 
Q 1469 3103 1208 2742 
Q 947 2381 947 1747 
z
M 2906 525 
Q 2725 213 2448 61 
Q 2172 -91 1784 -91 
Q 1150 -91 751 415 
Q 353 922 353 1747 
Q 353 2572 751 3078 
Q 1150 3584 1784 3584 
Q 2172 3584 2448 3432 
Q 2725 3281 2906 2969 
L 2906 3500 
L 3481 3500 
L 3481 -1331 
L 2906 -1331 
L 2906 525 
z
" id="DejaVuSans-71" transform="scale(0.015625)"/>
      <path d="M 603 4863 
L 1178 4863 
L 1178 0 
L 603 0 
L 603 4863 
z
" id="DejaVuSans-6c" transform="scale(0.015625)"/>
      <path d="M 3263 -1063 
L 3263 -1509 
L -63 -1509 
L -63 -1063 
L 3263 -1063 
z
" id="DejaVuSans-5f" transform="scale(0.015625)"/>
      <path d="M 2375 4863 
L 2375 4384 
L 1825 4384 
Q 1516 4384 1395 4259 
Q 1275 4134 1275 3809 
L 1275 3500 
L 2222 3500 
L 2222 3053 
L 1275 3053 
L 1275 0 
L 697 0 
L 697 3053 
L 147 3053 
L 147 3500 
L 697 3500 
L 697 3744 
Q 697 4328 969 4595 
Q 1241 4863 1831 4863 
L 2375 4863 
z
" id="DejaVuSans-66" transform="scale(0.015625)"/>
      <path d="M 353 3500 
L 3084 3500 
L 3084 2975 
L 922 459 
L 3084 459 
L 3084 0 
L 275 0 
L 275 525 
L 2438 3041 
L 353 3041 
L 353 3500 
z
" id="DejaVuSans-7a" transform="scale(0.015625)"/>
      <path d="M 750 794 
L 1409 794 
L 1409 256 
L 897 -744 
L 494 -744 
L 750 256 
L 750 794 
z
" id="DejaVuSans-2c" transform="scale(0.015625)"/>
      <path d="M 1625 4666 
L 2156 4666 
L 531 -594 
L 0 -594 
L 1625 4666 
z
" id="DejaVuSans-2f" transform="scale(0.015625)"/>
     </defs>
     <use xlink:href="#DejaVuSans-73"/>
     <use x="52.099609" xlink:href="#DejaVuSans-71"/>
     <use x="115.576172" xlink:href="#DejaVuSans-6c"/>
     <use x="143.359375" xlink:href="#DejaVuSans-69"/>
     <use x="171.142578" xlink:href="#DejaVuSans-74"/>
     <use x="210.351562" xlink:href="#DejaVuSans-65"/>
     <use x="271.875" xlink:href="#DejaVuSans-33"/>
     <use x="335.498047" xlink:href="#DejaVuSans-5f"/>
     <use x="385.498047" xlink:href="#DejaVuSans-6f"/>
     <use x="446.679688" xlink:href="#DejaVuSans-73"/>
     <use x="498.779297" xlink:href="#DejaVuSans-73"/>
     <use x="550.878906" xlink:href="#DejaVuSans-66"/>
     <use x="586.083984" xlink:href="#DejaVuSans-75"/>
     <use x="649.462891" xlink:href="#DejaVuSans-7a"/>
     <use x="701.953125" xlink:href="#DejaVuSans-7a"/>
     <use x="754.443359" xlink:href="#DejaVuSans-20"/>
     <use x="786.230469" xlink:href="#DejaVuSans-28"/>
     <use x="825.244141" xlink:href="#DejaVuSans-32"/>
     <use x="888.867188" xlink:href="#DejaVuSans-33"/>
     <use x="952.490234" xlink:href="#DejaVuSans-68"/>
     <use x="1015.869141" xlink:href="#DejaVuSans-2c"/>
     <use x="1047.65625" xlink:href="#DejaVuSans-20"/>
     <use x="1079.443359" xlink:href="#DejaVuSans-35"/>
     <use x="1143.066406" xlink:href="#DejaVuSans-20"/>
     <use x="1174.853516" xlink:href="#DejaVuSans-74"/>
     <use x="1214.0625" xlink:href="#DejaVuSans-72"/>
     <use x="1255.175781" xlink:href="#DejaVuSans-69"/>
     <use x="1282.958984" xlink:href="#DejaVuSans-61"/>
     <use x="1344.238281" xlink:href="#DejaVuSans-6c"/>
     <use x="1372.021484" xlink:href="#DejaVuSans-73"/>
     <use x="1424.121094" xlink:href="#DejaVuSans-2f"/>
     <use x="1457.8125" xlink:href="#DejaVuSans-66"/>
     <use x="1493.017578" xlink:href="#DejaVuSans-75"/>
     <use x="1556.396484" xlink:href="#DejaVuSans-7a"/>
     <use x="1608.886719" xlink:href="#DejaVuSans-7a"/>
     <use x="1661.376953" xlink:href="#DejaVuSans-65"/>
     <use x="1722.900391" xlink:href="#DejaVuSans-72"/>
     <use x="1764.013672" xlink:href="#DejaVuSans-29"/>
    </g>
   </g>
   <g id="legend_1">
    <g id="line2d_39">
     <path d="M 777.930625 30.416563 
L 797.930625 30.416563 
" style="fill:none;stroke:#98df8a;stroke-linecap:square;stroke-width:1.5;"/>
    </g>
    <g id="line2d_40">
     <defs>
      <path d="M -0 3 
L 3 -3 
L -3 -3 
z
" id="m0d8bb0a6cd" style="stroke:#98df8a;stroke-linejoin:miter;"/>
     </defs>
     <g>
      <use style="fill:#98df8a;stroke:#98df8a;stroke-linejoin:miter;" x="787.930625" xlink:href="#m0d8bb0a6cd" y="30.416563"/>
     </g>
    </g>
    <g id="text_20">
     <!-- symqemu_aflplusplus -->
     <g transform="translate(805.930625 33.916563)scale(0.1 -0.1)">
      <defs>
       <path d="M 2059 -325 
Q 1816 -950 1584 -1140 
Q 1353 -1331 966 -1331 
L 506 -1331 
L 506 -850 
L 844 -850 
Q 1081 -850 1212 -737 
Q 1344 -625 1503 -206 
L 1606 56 
L 191 3500 
L 800 3500 
L 1894 763 
L 2988 3500 
L 3597 3500 
L 2059 -325 
z
" id="DejaVuSans-79" transform="scale(0.015625)"/>
       <path d="M 1159 525 
L 1159 -1331 
L 581 -1331 
L 581 3500 
L 1159 3500 
L 1159 2969 
Q 1341 3281 1617 3432 
Q 1894 3584 2278 3584 
Q 2916 3584 3314 3078 
Q 3713 2572 3713 1747 
Q 3713 922 3314 415 
Q 2916 -91 2278 -91 
Q 1894 -91 1617 61 
Q 1341 213 1159 525 
z
M 3116 1747 
Q 3116 2381 2855 2742 
Q 2594 3103 2138 3103 
Q 1681 3103 1420 2742 
Q 1159 2381 1159 1747 
Q 1159 1113 1420 752 
Q 1681 391 2138 391 
Q 2594 391 2855 752 
Q 3116 1113 3116 1747 
z
" id="DejaVuSans-70" transform="scale(0.015625)"/>
      </defs>
      <use xlink:href="#DejaVuSans-73"/>
      <use x="52.099609" xlink:href="#DejaVuSans-79"/>
      <use x="111.279297" xlink:href="#DejaVuSans-6d"/>
      <use x="208.691406" xlink:href="#DejaVuSans-71"/>
      <use x="272.167969" xlink:href="#DejaVuSans-65"/>
      <use x="333.691406" xlink:href="#DejaVuSans-6d"/>
      <use x="431.103516" xlink:href="#DejaVuSans-75"/>
      <use x="494.482422" xlink:href="#DejaVuSans-5f"/>
      <use x="544.482422" xlink:href="#DejaVuSans-61"/>
      <use x="605.761719" xlink:href="#DejaVuSans-66"/>
      <use x="640.966797" xlink:href="#DejaVuSans-6c"/>
      <use x="668.75" xlink:href="#DejaVuSans-70"/>
      <use x="732.226562" xlink:href="#DejaVuSans-6c"/>
      <use x="760.009766" xlink:href="#DejaVuSans-75"/>
      <use x="823.388672" xlink:href="#DejaVuSans-73"/>
      <use x="875.488281" xlink:href="#DejaVuSans-70"/>
      <use x="938.964844" xlink:href="#DejaVuSans-6c"/>
      <use x="966.748047" xlink:href="#DejaVuSans-75"/>
      <use x="1030.126953" xlink:href="#DejaVuSans-73"/>
     </g>
    </g>
    <g id="line2d_41">
     <path d="M 777.930625 45.372813 
L 797.930625 45.372813 
" style="fill:none;stroke:#1f77b4;stroke-linecap:square;stroke-width:1.5;"/>
    </g>
    <g id="line2d_42">
     <defs>
      <path d="M 0 3 
C 0.795609 3 1.55874 2.683901 2.12132 2.12132 
C 2.683901 1.55874 3 0.795609 3 0 
C 3 -0.795609 2.683901 -1.55874 2.12132 -2.12132 
C 1.55874 -2.683901 0.795609 -3 0 -3 
C -0.795609 -3 -1.55874 -2.683901 -2.12132 -2.12132 
C -2.683901 -1.55874 -3 -0.795609 -3 0 
C -3 0.795609 -2.683901 1.55874 -2.12132 2.12132 
C -1.55874 2.683901 -0.795609 3 0 3 
z
" id="mb00932b7f4" style="stroke:#1f77b4;"/>
     </defs>
     <g>
      <use style="fill:#1f77b4;stroke:#1f77b4;" x="787.930625" xlink:href="#mb00932b7f4" y="45.372813"/>
     </g>
    </g>
    <g id="text_21">
     <!-- sydr_aflplusplus -->
     <g transform="translate(805.930625 48.872813)scale(0.1 -0.1)">
      <use xlink:href="#DejaVuSans-73"/>
      <use x="52.099609" xlink:href="#DejaVuSans-79"/>
      <use x="111.279297" xlink:href="#DejaVuSans-64"/>
      <use x="174.755859" xlink:href="#DejaVuSans-72"/>
      <use x="215.869141" xlink:href="#DejaVuSans-5f"/>
      <use x="265.869141" xlink:href="#DejaVuSans-61"/>
      <use x="327.148438" xlink:href="#DejaVuSans-66"/>
      <use x="362.353516" xlink:href="#DejaVuSans-6c"/>
      <use x="390.136719" xlink:href="#DejaVuSans-70"/>
      <use x="453.613281" xlink:href="#DejaVuSans-6c"/>
      <use x="481.396484" xlink:href="#DejaVuSans-75"/>
      <use x="544.775391" xlink:href="#DejaVuSans-73"/>
      <use x="596.875" xlink:href="#DejaVuSans-70"/>
      <use x="660.351562" xlink:href="#DejaVuSans-6c"/>
      <use x="688.134766" xlink:href="#DejaVuSans-75"/>
      <use x="751.513672" xlink:href="#DejaVuSans-73"/>
     </g>
    </g>
   </g>
  </g>
 </g>
 <defs>
  <clipPath id="p1dbd7f5394">
   <rect height="266.112" width="714.24" x="59.690625" y="22.318125"/>
  </clipPath>
 </defs>
</svg>
