<?xml version="1.0" encoding="utf-8" standalone="no"?>
<!DOCTYPE svg PUBLIC "-//W3C//DTD SVG 1.1//EN"
  "http://www.w3.org/Graphics/SVG/1.1/DTD/svg11.dtd">
<svg height="325.986375pt" version="1.1" viewBox="0 0 918.99 325.986375" width="918.99pt" xmlns="http://www.w3.org/2000/svg" xmlns:xlink="http://www.w3.org/1999/xlink">
 <metadata>
  <rdf:RDF xmlns:cc="http://creativecommons.org/ns#" xmlns:dc="http://purl.org/dc/elements/1.1/" xmlns:rdf="http://www.w3.org/1999/02/22-rdf-syntax-ns#">
   <cc:Work>
    <dc:type rdf:resource="http://purl.org/dc/dcmitype/StillImage"/>
    <dc:date>2022-09-11T14:49:31.317608</dc:date>
    <dc:format>image/svg+xml</dc:format>
    <dc:creator>
     <cc:Agent>
      <dc:title>Matplotlib v3.4.1, https://matplotlib.org/</dc:title>
     </cc:Agent>
    </dc:creator>
   </cc:Work>
  </rdf:RDF>
 </metadata>
 <defs>
  <style type="text/css">*{stroke-linecap:butt;stroke-linejoin:round;}</style>
 </defs>
 <g id="figure_1">
  <g id="patch_1">
   <path d="M 0 325.986375 
L 918.99 325.986375 
L 918.99 0 
L 0 0 
z
" style="fill:#ffffff;"/>
  </g>
  <g id="axes_1">
   <g id="patch_2">
    <path d="M 53.328125 288.430125 
L 767.568125 288.430125 
L 767.568125 22.318125 
L 53.328125 22.318125 
z
" style="fill:#ffffff;"/>
   </g>
   <g id="PolyCollection_1">
    <defs>
     <path d="M 85.79358 -97.090099 
L 85.79358 -61.120741 
L 92.928844 -83.015133 
L 100.064109 -97.090099 
L 107.199374 -106.994705 
L 114.334638 -114.292836 
L 121.469903 -132.538163 
L 128.605168 -137.751113 
L 135.740433 -143.446262 
L 142.875697 -146.091834 
L 150.010962 -155.99644 
L 157.146227 -157.834005 
L 164.281492 -164.676003 
L 171.416756 -165.901046 
L 178.552021 -174.763062 
L 185.687286 -165.379751 
L 192.822551 -179.976012 
L 199.957815 -174.241767 
L 207.09308 -176.326947 
L 214.228345 -181.018602 
L 221.36361 -181.018602 
L 228.498874 -181.018602 
L 235.634139 -181.018602 
L 242.769404 -181.018602 
L 249.904668 -185.188963 
L 257.039933 -187.274143 
L 264.175198 -199.785224 
L 271.310463 -204.998175 
L 278.445727 -212.296305 
L 285.580992 -210.73242 
L 292.716257 -211.77501 
L 299.851522 -212.244176 
L 306.986786 -216.466666 
L 314.122051 -219.073141 
L 321.257316 -221.679616 
L 328.392581 -221.679616 
L 335.527845 -226.892567 
L 342.66311 -222.722206 
L 349.798375 -226.892567 
L 356.933639 -227.935157 
L 364.068904 -228.977747 
L 371.204169 -228.977747 
L 378.339434 -228.977747 
L 385.474698 -228.977747 
L 392.609963 -230.541632 
L 399.745228 -235.233288 
L 406.880493 -235.233288 
L 414.015757 -243.052713 
L 421.151022 -243.052713 
L 428.286287 -247.744369 
L 435.421552 -245.659189 
L 442.556816 -248.786959 
L 449.692081 -248.786959 
L 456.827346 -248.786959 
L 463.962611 -251.914729 
L 471.097875 -248.786959 
L 478.23314 -248.265664 
L 485.368405 -252.957319 
L 492.503669 -252.957319 
L 499.638934 -252.957319 
L 506.774199 -252.957319 
L 513.909464 -252.957319 
L 521.044728 -253.478614 
L 528.179993 -253.986877 
L 535.315258 -253.999909 
L 542.450523 -258.17027 
L 549.585787 -259.734155 
L 556.721052 -261.819335 
L 563.856317 -263.38322 
L 570.991582 -263.38322 
L 578.126846 -263.38322 
L 585.262111 -263.38322 
L 592.397376 -263.38322 
L 599.53264 -263.38322 
L 606.667905 -263.38322 
L 613.80317 -263.38322 
L 620.938435 -266.471893 
L 628.073699 -266.510991 
L 635.208964 -267.032286 
L 642.344229 -267.032286 
L 649.479494 -267.553581 
L 656.614758 -267.553581 
L 663.750023 -267.553581 
L 670.885288 -267.553581 
L 678.020553 -267.553581 
L 685.155817 -267.553581 
L 692.291082 -270.681351 
L 699.426347 -268.074876 
L 706.561612 -268.583138 
L 713.696876 -270.681351 
L 720.832141 -273.730927 
L 727.967406 -270.681351 
L 735.10267 -268.596171 
L 735.10267 -291.57225 
L 735.10267 -291.57225 
L 727.967406 -290.516628 
L 720.832141 -290.490563 
L 713.696876 -290.490563 
L 706.561612 -290.490563 
L 699.426347 -290.490563 
L 692.291082 -290.490563 
L 685.155817 -289.447973 
L 678.020553 -289.461005 
L 670.885288 -289.969268 
L 663.750023 -289.447973 
L 656.614758 -289.969268 
L 649.479494 -289.447973 
L 642.344229 -289.969268 
L 635.208964 -286.841497 
L 628.073699 -287.884088 
L 620.938435 -280.064662 
L 613.80317 -284.756317 
L 606.667905 -279.022072 
L 599.53264 -285.798907 
L 592.397376 -279.022072 
L 585.262111 -283.739792 
L 578.126846 -283.713727 
L 570.991582 -279.126331 
L 563.856317 -284.756317 
L 556.721052 -284.756317 
L 549.585787 -285.798907 
L 542.450523 -283.713727 
L 535.315258 -283.192432 
L 528.179993 -282.162874 
L 521.044728 -281.628547 
L 513.909464 -280.103759 
L 506.774199 -282.149842 
L 499.638934 -279.022072 
L 492.503669 -280.064662 
L 485.368405 -278.500777 
L 478.23314 -277.979482 
L 471.097875 -278.031611 
L 463.962611 -277.979482 
L 456.827346 -269.156563 
L 449.692081 -269.117466 
L 442.556816 -269.117466 
L 435.421552 -270.681351 
L 428.286287 -269.117466 
L 421.151022 -269.117466 
L 414.015757 -268.596171 
L 406.880493 -268.596171 
L 399.745228 -269.117466 
L 392.609963 -268.596171 
L 385.474698 -267.553581 
L 378.339434 -267.553581 
L 371.204169 -267.553581 
L 364.068904 -267.553581 
L 356.933639 -267.553581 
L 349.798375 -267.553581 
L 342.66311 -267.553581 
L 335.527845 -267.553581 
L 328.392581 -266.510991 
L 321.257316 -265.4684 
L 314.122051 -257.205874 
L 306.986786 -257.12768 
L 299.851522 -255.042499 
L 292.716257 -257.12768 
L 285.580992 -255.042499 
L 278.445727 -255.042499 
L 271.310463 -255.042499 
L 264.175198 -251.914729 
L 257.039933 -251.914729 
L 249.904668 -250.872139 
L 242.769404 -247.223074 
L 235.634139 -243.613105 
L 228.498874 -239.507907 
L 221.36361 -239.403648 
L 214.228345 -240.446238 
L 207.09308 -236.275878 
L 199.957815 -233.148107 
L 192.822551 -228.977747 
L 185.687286 -216.466666 
L 178.552021 -199.954645 
L 171.416756 -202.912994 
L 164.281492 -198.742634 
L 157.146227 -197.700044 
L 150.010962 -195.70609 
L 142.875697 -187.80847 
L 135.740433 -186.231553 
L 128.605168 -185.188963 
L 121.469903 -185.188963 
L 114.334638 -168.507521 
L 107.199374 -162.773276 
L 100.064109 -146.091834 
L 92.928844 -121.630064 
L 85.79358 -97.090099 
z
" id="m9e62fb5573" style="stroke:#98df8a;stroke-opacity:0.2;"/>
    </defs>
    <g clip-path="url(#p7589668b24)">
     <use style="fill:#98df8a;fill-opacity:0.2;stroke:#98df8a;stroke-opacity:0.2;" x="0" xlink:href="#m9e62fb5573" y="325.986375"/>
    </g>
   </g>
   <g id="PolyCollection_2">
    <defs>
     <path d="M 85.79358 -69.982757 
L 85.79358 -49.65225 
L 92.928844 -76.238298 
L 100.064109 -93.441034 
L 107.199374 -107.946069 
L 114.334638 -112.207656 
L 121.469903 -128.889097 
L 128.605168 -130.974278 
L 135.740433 -143.485359 
L 142.875697 -143.485359 
L 150.010962 -143.485359 
L 157.146227 -144.527949 
L 164.281492 -166.943636 
L 171.416756 -167.464931 
L 178.552021 -167.464931 
L 185.687286 -177.890832 
L 192.822551 -178.907357 
L 199.957815 -178.933422 
L 207.09308 -179.976012 
L 214.228345 -179.976012 
L 221.36361 -178.933422 
L 228.498874 -181.018602 
L 235.634139 -181.018602 
L 242.769404 -192.487094 
L 249.904668 -196.657454 
L 257.039933 -196.657454 
L 264.175198 -196.657454 
L 271.310463 -200.827814 
L 278.445727 -212.296305 
L 285.580992 -212.296305 
L 292.716257 -214.902781 
L 299.851522 -214.902781 
L 306.986786 -214.902781 
L 314.122051 -214.902781 
L 321.257316 -214.902781 
L 328.392581 -214.889748 
L 335.527845 -218.551846 
L 342.66311 -218.551846 
L 349.798375 -218.551846 
L 356.933639 -218.551846 
L 364.068904 -218.030551 
L 371.204169 -218.551846 
L 378.339434 -218.551846 
L 385.474698 -218.551846 
L 392.609963 -218.551846 
L 399.745228 -227.935157 
L 406.880493 -227.413862 
L 414.015757 -227.935157 
L 421.151022 -227.935157 
L 428.286287 -228.977747 
L 435.421552 -230.020337 
L 442.556816 -233.148107 
L 449.692081 -239.403648 
L 456.827346 -235.233288 
L 463.962611 -245.659189 
L 471.097875 -245.659189 
L 478.23314 -237.318468 
L 485.368405 -239.924943 
L 492.503669 -250.872139 
L 499.638934 -246.701779 
L 506.774199 -246.701779 
L 513.909464 -251.888664 
L 521.044728 -247.223074 
L 528.179993 -240.967533 
L 535.315258 -246.701779 
L 542.450523 -247.223074 
L 549.585787 -252.344798 
L 556.721052 -248.63057 
L 563.856317 -252.957319 
L 570.991582 -252.957319 
L 578.126846 -252.957319 
L 585.262111 -257.12768 
L 592.397376 -257.12768 
L 599.53264 -258.11814 
L 606.667905 -265.4684 
L 613.80317 -266.510991 
L 620.938435 -266.510991 
L 628.073699 -265.4684 
L 635.208964 -266.510991 
L 642.344229 -266.484926 
L 649.479494 -266.510991 
L 656.614758 -270.681351 
L 663.750023 -270.655286 
L 670.885288 -270.681351 
L 678.020553 -270.681351 
L 685.155817 -269.638761 
L 692.291082 -271.723941 
L 699.426347 -271.723941 
L 706.561612 -271.723941 
L 713.696876 -271.723941 
L 720.832141 -271.723941 
L 727.967406 -273.287826 
L 735.10267 -273.287826 
L 735.10267 -290.490563 
L 735.10267 -290.490563 
L 727.967406 -290.490563 
L 720.832141 -290.490563 
L 713.696876 -290.490563 
L 706.561612 -290.490563 
L 699.426347 -290.490563 
L 692.291082 -290.490563 
L 685.155817 -291.533153 
L 678.020553 -290.490563 
L 670.885288 -287.362792 
L 663.750023 -288.405383 
L 656.614758 -288.405383 
L 649.479494 -286.841497 
L 642.344229 -286.320202 
L 635.208964 -286.320202 
L 628.073699 -285.798907 
L 620.938435 -284.235022 
L 613.80317 -286.320202 
L 606.667905 -284.756317 
L 599.53264 -284.235022 
L 592.397376 -284.235022 
L 585.262111 -284.235022 
L 578.126846 -284.235022 
L 570.991582 -284.235022 
L 563.856317 -284.235022 
L 556.721052 -284.235022 
L 549.585787 -284.235022 
L 542.450523 -284.235022 
L 535.315258 -284.235022 
L 528.179993 -283.192432 
L 521.044728 -282.149842 
L 513.909464 -282.671137 
L 506.774199 -282.149842 
L 499.638934 -275.894301 
L 492.503669 -275.894301 
L 485.368405 -275.894301 
L 478.23314 -275.894301 
L 471.097875 -274.330416 
L 463.962611 -274.330416 
L 456.827346 -274.330416 
L 449.692081 -271.723941 
L 442.556816 -270.746513 
L 435.421552 -266.602217 
L 428.286287 -268.596171 
L 421.151022 -267.032286 
L 414.015757 -268.596171 
L 406.880493 -266.510991 
L 399.745228 -266.510991 
L 392.609963 -262.34063 
L 385.474698 -262.34063 
L 378.339434 -256.08509 
L 371.204169 -256.606385 
L 364.068904 -256.606385 
L 356.933639 -256.08509 
L 349.798375 -256.08509 
L 342.66311 -256.08509 
L 335.527845 -255.042499 
L 328.392581 -255.042499 
L 321.257316 -255.042499 
L 314.122051 -253.999909 
L 306.986786 -253.999909 
L 299.851522 -252.957319 
L 292.716257 -252.957319 
L 285.580992 -248.786959 
L 278.445727 -247.744369 
L 271.310463 -247.744369 
L 264.175198 -247.744369 
L 257.039933 -247.744369 
L 249.904668 -246.701779 
L 242.769404 -246.701779 
L 235.634139 -238.37409 
L 228.498874 -237.318468 
L 221.36361 -239.924943 
L 214.228345 -235.754583 
L 207.09308 -235.819744 
L 199.957815 -233.174172 
L 192.822551 -233.148107 
L 185.687286 -231.062927 
L 178.552021 -217.509256 
L 171.416756 -217.509256 
L 164.281492 -216.466666 
L 157.146227 -204.998175 
L 150.010962 -193.529684 
L 142.875697 -190.401913 
L 135.740433 -187.795438 
L 128.605168 -170.592701 
L 121.469903 -182.582488 
L 114.334638 -159.12421 
L 107.199374 -150.78349 
L 100.064109 -140.357589 
L 92.928844 -102.824345 
L 85.79358 -69.982757 
z
" id="me69337a4b5" style="stroke:#1f77b4;stroke-opacity:0.2;"/>
    </defs>
    <g clip-path="url(#p7589668b24)">
     <use style="fill:#1f77b4;fill-opacity:0.2;stroke:#1f77b4;stroke-opacity:0.2;" x="0" xlink:href="#me69337a4b5" y="325.986375"/>
    </g>
   </g>
   <g id="matplotlib.axis_1">
    <g id="xtick_1">
     <g id="line2d_1">
      <defs>
       <path d="M 0 0 
L 0 3.5 
" id="m959e57843b" style="stroke:#000000;stroke-width:0.8;"/>
      </defs>
      <g>
       <use style="stroke:#000000;stroke-width:0.8;" x="85.79358" xlink:href="#m959e57843b" y="288.430125"/>
      </g>
     </g>
     <g id="text_1">
      <!-- 15m -->
      <g transform="translate(74.560767 303.028562)scale(0.1 -0.1)">
       <defs>
        <path d="M 794 531 
L 1825 531 
L 1825 4091 
L 703 3866 
L 703 4441 
L 1819 4666 
L 2450 4666 
L 2450 531 
L 3481 531 
L 3481 0 
L 794 0 
L 794 531 
z
" id="DejaVuSans-31" transform="scale(0.015625)"/>
        <path d="M 691 4666 
L 3169 4666 
L 3169 4134 
L 1269 4134 
L 1269 2991 
Q 1406 3038 1543 3061 
Q 1681 3084 1819 3084 
Q 2600 3084 3056 2656 
Q 3513 2228 3513 1497 
Q 3513 744 3044 326 
Q 2575 -91 1722 -91 
Q 1428 -91 1123 -41 
Q 819 9 494 109 
L 494 744 
Q 775 591 1075 516 
Q 1375 441 1709 441 
Q 2250 441 2565 725 
Q 2881 1009 2881 1497 
Q 2881 1984 2565 2268 
Q 2250 2553 1709 2553 
Q 1456 2553 1204 2497 
Q 953 2441 691 2322 
L 691 4666 
z
" id="DejaVuSans-35" transform="scale(0.015625)"/>
        <path d="M 3328 2828 
Q 3544 3216 3844 3400 
Q 4144 3584 4550 3584 
Q 5097 3584 5394 3201 
Q 5691 2819 5691 2113 
L 5691 0 
L 5113 0 
L 5113 2094 
Q 5113 2597 4934 2840 
Q 4756 3084 4391 3084 
Q 3944 3084 3684 2787 
Q 3425 2491 3425 1978 
L 3425 0 
L 2847 0 
L 2847 2094 
Q 2847 2600 2669 2842 
Q 2491 3084 2119 3084 
Q 1678 3084 1418 2786 
Q 1159 2488 1159 1978 
L 1159 0 
L 581 0 
L 581 3500 
L 1159 3500 
L 1159 2956 
Q 1356 3278 1631 3431 
Q 1906 3584 2284 3584 
Q 2666 3584 2933 3390 
Q 3200 3197 3328 2828 
z
" id="DejaVuSans-6d" transform="scale(0.015625)"/>
       </defs>
       <use xlink:href="#DejaVuSans-31"/>
       <use x="63.623047" xlink:href="#DejaVuSans-35"/>
       <use x="127.246094" xlink:href="#DejaVuSans-6d"/>
      </g>
     </g>
    </g>
    <g id="xtick_2">
     <g id="line2d_2">
      <g>
       <use style="stroke:#000000;stroke-width:0.8;" x="140.497276" xlink:href="#m959e57843b" y="288.430125"/>
      </g>
     </g>
     <g id="text_2">
      <!-- 2h:10m -->
      <g transform="translate(121.230088 303.028562)scale(0.1 -0.1)">
       <defs>
        <path d="M 1228 531 
L 3431 531 
L 3431 0 
L 469 0 
L 469 531 
Q 828 903 1448 1529 
Q 2069 2156 2228 2338 
Q 2531 2678 2651 2914 
Q 2772 3150 2772 3378 
Q 2772 3750 2511 3984 
Q 2250 4219 1831 4219 
Q 1534 4219 1204 4116 
Q 875 4013 500 3803 
L 500 4441 
Q 881 4594 1212 4672 
Q 1544 4750 1819 4750 
Q 2544 4750 2975 4387 
Q 3406 4025 3406 3419 
Q 3406 3131 3298 2873 
Q 3191 2616 2906 2266 
Q 2828 2175 2409 1742 
Q 1991 1309 1228 531 
z
" id="DejaVuSans-32" transform="scale(0.015625)"/>
        <path d="M 3513 2113 
L 3513 0 
L 2938 0 
L 2938 2094 
Q 2938 2591 2744 2837 
Q 2550 3084 2163 3084 
Q 1697 3084 1428 2787 
Q 1159 2491 1159 1978 
L 1159 0 
L 581 0 
L 581 4863 
L 1159 4863 
L 1159 2956 
Q 1366 3272 1645 3428 
Q 1925 3584 2291 3584 
Q 2894 3584 3203 3211 
Q 3513 2838 3513 2113 
z
" id="DejaVuSans-68" transform="scale(0.015625)"/>
        <path d="M 750 794 
L 1409 794 
L 1409 0 
L 750 0 
L 750 794 
z
M 750 3309 
L 1409 3309 
L 1409 2516 
L 750 2516 
L 750 3309 
z
" id="DejaVuSans-3a" transform="scale(0.015625)"/>
        <path d="M 2034 4250 
Q 1547 4250 1301 3770 
Q 1056 3291 1056 2328 
Q 1056 1369 1301 889 
Q 1547 409 2034 409 
Q 2525 409 2770 889 
Q 3016 1369 3016 2328 
Q 3016 3291 2770 3770 
Q 2525 4250 2034 4250 
z
M 2034 4750 
Q 2819 4750 3233 4129 
Q 3647 3509 3647 2328 
Q 3647 1150 3233 529 
Q 2819 -91 2034 -91 
Q 1250 -91 836 529 
Q 422 1150 422 2328 
Q 422 3509 836 4129 
Q 1250 4750 2034 4750 
z
" id="DejaVuSans-30" transform="scale(0.015625)"/>
       </defs>
       <use xlink:href="#DejaVuSans-32"/>
       <use x="63.623047" xlink:href="#DejaVuSans-68"/>
       <use x="127.001953" xlink:href="#DejaVuSans-3a"/>
       <use x="160.693359" xlink:href="#DejaVuSans-31"/>
       <use x="224.316406" xlink:href="#DejaVuSans-30"/>
       <use x="287.939453" xlink:href="#DejaVuSans-6d"/>
      </g>
     </g>
    </g>
    <g id="xtick_3">
     <g id="line2d_3">
      <g>
       <use style="stroke:#000000;stroke-width:0.8;" x="195.200972" xlink:href="#m959e57843b" y="288.430125"/>
      </g>
     </g>
     <g id="text_3">
      <!-- 4h:5m -->
      <g transform="translate(179.115035 303.028562)scale(0.1 -0.1)">
       <defs>
        <path d="M 2419 4116 
L 825 1625 
L 2419 1625 
L 2419 4116 
z
M 2253 4666 
L 3047 4666 
L 3047 1625 
L 3713 1625 
L 3713 1100 
L 3047 1100 
L 3047 0 
L 2419 0 
L 2419 1100 
L 313 1100 
L 313 1709 
L 2253 4666 
z
" id="DejaVuSans-34" transform="scale(0.015625)"/>
       </defs>
       <use xlink:href="#DejaVuSans-34"/>
       <use x="63.623047" xlink:href="#DejaVuSans-68"/>
       <use x="127.001953" xlink:href="#DejaVuSans-3a"/>
       <use x="160.693359" xlink:href="#DejaVuSans-35"/>
       <use x="224.316406" xlink:href="#DejaVuSans-6d"/>
      </g>
     </g>
    </g>
    <g id="xtick_4">
     <g id="line2d_4">
      <g>
       <use style="stroke:#000000;stroke-width:0.8;" x="249.904668" xlink:href="#m959e57843b" y="288.430125"/>
      </g>
     </g>
     <g id="text_4">
      <!-- 6h -->
      <g transform="translate(243.554668 303.028562)scale(0.1 -0.1)">
       <defs>
        <path d="M 2113 2584 
Q 1688 2584 1439 2293 
Q 1191 2003 1191 1497 
Q 1191 994 1439 701 
Q 1688 409 2113 409 
Q 2538 409 2786 701 
Q 3034 994 3034 1497 
Q 3034 2003 2786 2293 
Q 2538 2584 2113 2584 
z
M 3366 4563 
L 3366 3988 
Q 3128 4100 2886 4159 
Q 2644 4219 2406 4219 
Q 1781 4219 1451 3797 
Q 1122 3375 1075 2522 
Q 1259 2794 1537 2939 
Q 1816 3084 2150 3084 
Q 2853 3084 3261 2657 
Q 3669 2231 3669 1497 
Q 3669 778 3244 343 
Q 2819 -91 2113 -91 
Q 1303 -91 875 529 
Q 447 1150 447 2328 
Q 447 3434 972 4092 
Q 1497 4750 2381 4750 
Q 2619 4750 2861 4703 
Q 3103 4656 3366 4563 
z
" id="DejaVuSans-36" transform="scale(0.015625)"/>
       </defs>
       <use xlink:href="#DejaVuSans-36"/>
       <use x="63.623047" xlink:href="#DejaVuSans-68"/>
      </g>
     </g>
    </g>
    <g id="xtick_5">
     <g id="line2d_5">
      <g>
       <use style="stroke:#000000;stroke-width:0.8;" x="304.608365" xlink:href="#m959e57843b" y="288.430125"/>
      </g>
     </g>
     <g id="text_5">
      <!-- 7h:55m -->
      <g transform="translate(285.341177 303.028562)scale(0.1 -0.1)">
       <defs>
        <path d="M 525 4666 
L 3525 4666 
L 3525 4397 
L 1831 0 
L 1172 0 
L 2766 4134 
L 525 4134 
L 525 4666 
z
" id="DejaVuSans-37" transform="scale(0.015625)"/>
       </defs>
       <use xlink:href="#DejaVuSans-37"/>
       <use x="63.623047" xlink:href="#DejaVuSans-68"/>
       <use x="127.001953" xlink:href="#DejaVuSans-3a"/>
       <use x="160.693359" xlink:href="#DejaVuSans-35"/>
       <use x="224.316406" xlink:href="#DejaVuSans-35"/>
       <use x="287.939453" xlink:href="#DejaVuSans-6d"/>
      </g>
     </g>
    </g>
    <g id="xtick_6">
     <g id="line2d_6">
      <g>
       <use style="stroke:#000000;stroke-width:0.8;" x="359.312061" xlink:href="#m959e57843b" y="288.430125"/>
      </g>
     </g>
     <g id="text_6">
      <!-- 9h:50m -->
      <g transform="translate(340.044874 303.028562)scale(0.1 -0.1)">
       <defs>
        <path d="M 703 97 
L 703 672 
Q 941 559 1184 500 
Q 1428 441 1663 441 
Q 2288 441 2617 861 
Q 2947 1281 2994 2138 
Q 2813 1869 2534 1725 
Q 2256 1581 1919 1581 
Q 1219 1581 811 2004 
Q 403 2428 403 3163 
Q 403 3881 828 4315 
Q 1253 4750 1959 4750 
Q 2769 4750 3195 4129 
Q 3622 3509 3622 2328 
Q 3622 1225 3098 567 
Q 2575 -91 1691 -91 
Q 1453 -91 1209 -44 
Q 966 3 703 97 
z
M 1959 2075 
Q 2384 2075 2632 2365 
Q 2881 2656 2881 3163 
Q 2881 3666 2632 3958 
Q 2384 4250 1959 4250 
Q 1534 4250 1286 3958 
Q 1038 3666 1038 3163 
Q 1038 2656 1286 2365 
Q 1534 2075 1959 2075 
z
" id="DejaVuSans-39" transform="scale(0.015625)"/>
       </defs>
       <use xlink:href="#DejaVuSans-39"/>
       <use x="63.623047" xlink:href="#DejaVuSans-68"/>
       <use x="127.001953" xlink:href="#DejaVuSans-3a"/>
       <use x="160.693359" xlink:href="#DejaVuSans-35"/>
       <use x="224.316406" xlink:href="#DejaVuSans-30"/>
       <use x="287.939453" xlink:href="#DejaVuSans-6d"/>
      </g>
     </g>
    </g>
    <g id="xtick_7">
     <g id="line2d_7">
      <g>
       <use style="stroke:#000000;stroke-width:0.8;" x="414.015757" xlink:href="#m959e57843b" y="288.430125"/>
      </g>
     </g>
     <g id="text_7">
      <!-- 11h:45m -->
      <g transform="translate(391.56732 303.028562)scale(0.1 -0.1)">
       <use xlink:href="#DejaVuSans-31"/>
       <use x="63.623047" xlink:href="#DejaVuSans-31"/>
       <use x="127.246094" xlink:href="#DejaVuSans-68"/>
       <use x="190.625" xlink:href="#DejaVuSans-3a"/>
       <use x="224.316406" xlink:href="#DejaVuSans-34"/>
       <use x="287.939453" xlink:href="#DejaVuSans-35"/>
       <use x="351.5625" xlink:href="#DejaVuSans-6d"/>
      </g>
     </g>
    </g>
    <g id="xtick_8">
     <g id="line2d_8">
      <g>
       <use style="stroke:#000000;stroke-width:0.8;" x="468.719454" xlink:href="#m959e57843b" y="288.430125"/>
      </g>
     </g>
     <g id="text_8">
      <!-- 13h:40m -->
      <g transform="translate(446.271016 303.028562)scale(0.1 -0.1)">
       <defs>
        <path d="M 2597 2516 
Q 3050 2419 3304 2112 
Q 3559 1806 3559 1356 
Q 3559 666 3084 287 
Q 2609 -91 1734 -91 
Q 1441 -91 1130 -33 
Q 819 25 488 141 
L 488 750 
Q 750 597 1062 519 
Q 1375 441 1716 441 
Q 2309 441 2620 675 
Q 2931 909 2931 1356 
Q 2931 1769 2642 2001 
Q 2353 2234 1838 2234 
L 1294 2234 
L 1294 2753 
L 1863 2753 
Q 2328 2753 2575 2939 
Q 2822 3125 2822 3475 
Q 2822 3834 2567 4026 
Q 2313 4219 1838 4219 
Q 1578 4219 1281 4162 
Q 984 4106 628 3988 
L 628 4550 
Q 988 4650 1302 4700 
Q 1616 4750 1894 4750 
Q 2613 4750 3031 4423 
Q 3450 4097 3450 3541 
Q 3450 3153 3228 2886 
Q 3006 2619 2597 2516 
z
" id="DejaVuSans-33" transform="scale(0.015625)"/>
       </defs>
       <use xlink:href="#DejaVuSans-31"/>
       <use x="63.623047" xlink:href="#DejaVuSans-33"/>
       <use x="127.246094" xlink:href="#DejaVuSans-68"/>
       <use x="190.625" xlink:href="#DejaVuSans-3a"/>
       <use x="224.316406" xlink:href="#DejaVuSans-34"/>
       <use x="287.939453" xlink:href="#DejaVuSans-30"/>
       <use x="351.5625" xlink:href="#DejaVuSans-6d"/>
      </g>
     </g>
    </g>
    <g id="xtick_9">
     <g id="line2d_9">
      <g>
       <use style="stroke:#000000;stroke-width:0.8;" x="523.42315" xlink:href="#m959e57843b" y="288.430125"/>
      </g>
     </g>
     <g id="text_9">
      <!-- 15h:35m -->
      <g transform="translate(500.974712 303.028562)scale(0.1 -0.1)">
       <use xlink:href="#DejaVuSans-31"/>
       <use x="63.623047" xlink:href="#DejaVuSans-35"/>
       <use x="127.246094" xlink:href="#DejaVuSans-68"/>
       <use x="190.625" xlink:href="#DejaVuSans-3a"/>
       <use x="224.316406" xlink:href="#DejaVuSans-33"/>
       <use x="287.939453" xlink:href="#DejaVuSans-35"/>
       <use x="351.5625" xlink:href="#DejaVuSans-6d"/>
      </g>
     </g>
    </g>
    <g id="xtick_10">
     <g id="line2d_10">
      <g>
       <use style="stroke:#000000;stroke-width:0.8;" x="578.126846" xlink:href="#m959e57843b" y="288.430125"/>
      </g>
     </g>
     <g id="text_10">
      <!-- 17h:30m -->
      <g transform="translate(555.678409 303.028562)scale(0.1 -0.1)">
       <use xlink:href="#DejaVuSans-31"/>
       <use x="63.623047" xlink:href="#DejaVuSans-37"/>
       <use x="127.246094" xlink:href="#DejaVuSans-68"/>
       <use x="190.625" xlink:href="#DejaVuSans-3a"/>
       <use x="224.316406" xlink:href="#DejaVuSans-33"/>
       <use x="287.939453" xlink:href="#DejaVuSans-30"/>
       <use x="351.5625" xlink:href="#DejaVuSans-6d"/>
      </g>
     </g>
    </g>
    <g id="xtick_11">
     <g id="line2d_11">
      <g>
       <use style="stroke:#000000;stroke-width:0.8;" x="632.830543" xlink:href="#m959e57843b" y="288.430125"/>
      </g>
     </g>
     <g id="text_11">
      <!-- 19h:25m -->
      <g transform="translate(610.382105 303.028562)scale(0.1 -0.1)">
       <use xlink:href="#DejaVuSans-31"/>
       <use x="63.623047" xlink:href="#DejaVuSans-39"/>
       <use x="127.246094" xlink:href="#DejaVuSans-68"/>
       <use x="190.625" xlink:href="#DejaVuSans-3a"/>
       <use x="224.316406" xlink:href="#DejaVuSans-32"/>
       <use x="287.939453" xlink:href="#DejaVuSans-35"/>
       <use x="351.5625" xlink:href="#DejaVuSans-6d"/>
      </g>
     </g>
    </g>
    <g id="xtick_12">
     <g id="line2d_12">
      <g>
       <use style="stroke:#000000;stroke-width:0.8;" x="687.534239" xlink:href="#m959e57843b" y="288.430125"/>
      </g>
     </g>
     <g id="text_12">
      <!-- 21h:20m -->
      <g transform="translate(665.085801 303.028562)scale(0.1 -0.1)">
       <use xlink:href="#DejaVuSans-32"/>
       <use x="63.623047" xlink:href="#DejaVuSans-31"/>
       <use x="127.246094" xlink:href="#DejaVuSans-68"/>
       <use x="190.625" xlink:href="#DejaVuSans-3a"/>
       <use x="224.316406" xlink:href="#DejaVuSans-32"/>
       <use x="287.939453" xlink:href="#DejaVuSans-30"/>
       <use x="351.5625" xlink:href="#DejaVuSans-6d"/>
      </g>
     </g>
    </g>
    <g id="text_13">
     <!-- Time (hour:minute) -->
     <g transform="translate(362.041094 316.706687)scale(0.1 -0.1)">
      <defs>
       <path d="M -19 4666 
L 3928 4666 
L 3928 4134 
L 2272 4134 
L 2272 0 
L 1638 0 
L 1638 4134 
L -19 4134 
L -19 4666 
z
" id="DejaVuSans-54" transform="scale(0.015625)"/>
       <path d="M 603 3500 
L 1178 3500 
L 1178 0 
L 603 0 
L 603 3500 
z
M 603 4863 
L 1178 4863 
L 1178 4134 
L 603 4134 
L 603 4863 
z
" id="DejaVuSans-69" transform="scale(0.015625)"/>
       <path d="M 3597 1894 
L 3597 1613 
L 953 1613 
Q 991 1019 1311 708 
Q 1631 397 2203 397 
Q 2534 397 2845 478 
Q 3156 559 3463 722 
L 3463 178 
Q 3153 47 2828 -22 
Q 2503 -91 2169 -91 
Q 1331 -91 842 396 
Q 353 884 353 1716 
Q 353 2575 817 3079 
Q 1281 3584 2069 3584 
Q 2775 3584 3186 3129 
Q 3597 2675 3597 1894 
z
M 3022 2063 
Q 3016 2534 2758 2815 
Q 2500 3097 2075 3097 
Q 1594 3097 1305 2825 
Q 1016 2553 972 2059 
L 3022 2063 
z
" id="DejaVuSans-65" transform="scale(0.015625)"/>
       <path id="DejaVuSans-20" transform="scale(0.015625)"/>
       <path d="M 1984 4856 
Q 1566 4138 1362 3434 
Q 1159 2731 1159 2009 
Q 1159 1288 1364 580 
Q 1569 -128 1984 -844 
L 1484 -844 
Q 1016 -109 783 600 
Q 550 1309 550 2009 
Q 550 2706 781 3412 
Q 1013 4119 1484 4856 
L 1984 4856 
z
" id="DejaVuSans-28" transform="scale(0.015625)"/>
       <path d="M 1959 3097 
Q 1497 3097 1228 2736 
Q 959 2375 959 1747 
Q 959 1119 1226 758 
Q 1494 397 1959 397 
Q 2419 397 2687 759 
Q 2956 1122 2956 1747 
Q 2956 2369 2687 2733 
Q 2419 3097 1959 3097 
z
M 1959 3584 
Q 2709 3584 3137 3096 
Q 3566 2609 3566 1747 
Q 3566 888 3137 398 
Q 2709 -91 1959 -91 
Q 1206 -91 779 398 
Q 353 888 353 1747 
Q 353 2609 779 3096 
Q 1206 3584 1959 3584 
z
" id="DejaVuSans-6f" transform="scale(0.015625)"/>
       <path d="M 544 1381 
L 544 3500 
L 1119 3500 
L 1119 1403 
Q 1119 906 1312 657 
Q 1506 409 1894 409 
Q 2359 409 2629 706 
Q 2900 1003 2900 1516 
L 2900 3500 
L 3475 3500 
L 3475 0 
L 2900 0 
L 2900 538 
Q 2691 219 2414 64 
Q 2138 -91 1772 -91 
Q 1169 -91 856 284 
Q 544 659 544 1381 
z
M 1991 3584 
L 1991 3584 
z
" id="DejaVuSans-75" transform="scale(0.015625)"/>
       <path d="M 2631 2963 
Q 2534 3019 2420 3045 
Q 2306 3072 2169 3072 
Q 1681 3072 1420 2755 
Q 1159 2438 1159 1844 
L 1159 0 
L 581 0 
L 581 3500 
L 1159 3500 
L 1159 2956 
Q 1341 3275 1631 3429 
Q 1922 3584 2338 3584 
Q 2397 3584 2469 3576 
Q 2541 3569 2628 3553 
L 2631 2963 
z
" id="DejaVuSans-72" transform="scale(0.015625)"/>
       <path d="M 3513 2113 
L 3513 0 
L 2938 0 
L 2938 2094 
Q 2938 2591 2744 2837 
Q 2550 3084 2163 3084 
Q 1697 3084 1428 2787 
Q 1159 2491 1159 1978 
L 1159 0 
L 581 0 
L 581 3500 
L 1159 3500 
L 1159 2956 
Q 1366 3272 1645 3428 
Q 1925 3584 2291 3584 
Q 2894 3584 3203 3211 
Q 3513 2838 3513 2113 
z
" id="DejaVuSans-6e" transform="scale(0.015625)"/>
       <path d="M 1172 4494 
L 1172 3500 
L 2356 3500 
L 2356 3053 
L 1172 3053 
L 1172 1153 
Q 1172 725 1289 603 
Q 1406 481 1766 481 
L 2356 481 
L 2356 0 
L 1766 0 
Q 1100 0 847 248 
Q 594 497 594 1153 
L 594 3053 
L 172 3053 
L 172 3500 
L 594 3500 
L 594 4494 
L 1172 4494 
z
" id="DejaVuSans-74" transform="scale(0.015625)"/>
       <path d="M 513 4856 
L 1013 4856 
Q 1481 4119 1714 3412 
Q 1947 2706 1947 2009 
Q 1947 1309 1714 600 
Q 1481 -109 1013 -844 
L 513 -844 
Q 928 -128 1133 580 
Q 1338 1288 1338 2009 
Q 1338 2731 1133 3434 
Q 928 4138 513 4856 
z
" id="DejaVuSans-29" transform="scale(0.015625)"/>
      </defs>
      <use xlink:href="#DejaVuSans-54"/>
      <use x="57.958984" xlink:href="#DejaVuSans-69"/>
      <use x="85.742188" xlink:href="#DejaVuSans-6d"/>
      <use x="183.154297" xlink:href="#DejaVuSans-65"/>
      <use x="244.677734" xlink:href="#DejaVuSans-20"/>
      <use x="276.464844" xlink:href="#DejaVuSans-28"/>
      <use x="315.478516" xlink:href="#DejaVuSans-68"/>
      <use x="378.857422" xlink:href="#DejaVuSans-6f"/>
      <use x="440.039062" xlink:href="#DejaVuSans-75"/>
      <use x="503.417969" xlink:href="#DejaVuSans-72"/>
      <use x="542.78125" xlink:href="#DejaVuSans-3a"/>
      <use x="576.472656" xlink:href="#DejaVuSans-6d"/>
      <use x="673.884766" xlink:href="#DejaVuSans-69"/>
      <use x="701.667969" xlink:href="#DejaVuSans-6e"/>
      <use x="765.046875" xlink:href="#DejaVuSans-75"/>
      <use x="828.425781" xlink:href="#DejaVuSans-74"/>
      <use x="867.634766" xlink:href="#DejaVuSans-65"/>
      <use x="929.158203" xlink:href="#DejaVuSans-29"/>
     </g>
    </g>
   </g>
   <g id="matplotlib.axis_2">
    <g id="ytick_1">
     <g id="line2d_13">
      <defs>
       <path d="M 0 0 
L -3.5 0 
" id="m3bb357d345" style="stroke:#000000;stroke-width:0.8;"/>
      </defs>
      <g>
       <use style="stroke:#000000;stroke-width:0.8;" x="53.328125" xlink:href="#m3bb357d345" y="245.056422"/>
      </g>
     </g>
     <g id="text_14">
      <!-- 2350 -->
      <g transform="translate(20.878125 248.855641)scale(0.1 -0.1)">
       <use xlink:href="#DejaVuSans-32"/>
       <use x="63.623047" xlink:href="#DejaVuSans-33"/>
       <use x="127.246094" xlink:href="#DejaVuSans-35"/>
       <use x="190.869141" xlink:href="#DejaVuSans-30"/>
      </g>
     </g>
    </g>
    <g id="ytick_2">
     <g id="line2d_14">
      <g>
       <use style="stroke:#000000;stroke-width:0.8;" x="53.328125" xlink:href="#m3bb357d345" y="192.926917"/>
      </g>
     </g>
     <g id="text_15">
      <!-- 2400 -->
      <g transform="translate(20.878125 196.726136)scale(0.1 -0.1)">
       <use xlink:href="#DejaVuSans-32"/>
       <use x="63.623047" xlink:href="#DejaVuSans-34"/>
       <use x="127.246094" xlink:href="#DejaVuSans-30"/>
       <use x="190.869141" xlink:href="#DejaVuSans-30"/>
      </g>
     </g>
    </g>
    <g id="ytick_3">
     <g id="line2d_15">
      <g>
       <use style="stroke:#000000;stroke-width:0.8;" x="53.328125" xlink:href="#m3bb357d345" y="140.797412"/>
      </g>
     </g>
     <g id="text_16">
      <!-- 2450 -->
      <g transform="translate(20.878125 144.596631)scale(0.1 -0.1)">
       <use xlink:href="#DejaVuSans-32"/>
       <use x="63.623047" xlink:href="#DejaVuSans-34"/>
       <use x="127.246094" xlink:href="#DejaVuSans-35"/>
       <use x="190.869141" xlink:href="#DejaVuSans-30"/>
      </g>
     </g>
    </g>
    <g id="ytick_4">
     <g id="line2d_16">
      <g>
       <use style="stroke:#000000;stroke-width:0.8;" x="53.328125" xlink:href="#m3bb357d345" y="88.667907"/>
      </g>
     </g>
     <g id="text_17">
      <!-- 2500 -->
      <g transform="translate(20.878125 92.467126)scale(0.1 -0.1)">
       <use xlink:href="#DejaVuSans-32"/>
       <use x="63.623047" xlink:href="#DejaVuSans-35"/>
       <use x="127.246094" xlink:href="#DejaVuSans-30"/>
       <use x="190.869141" xlink:href="#DejaVuSans-30"/>
      </g>
     </g>
    </g>
    <g id="ytick_5">
     <g id="line2d_17">
      <g>
       <use style="stroke:#000000;stroke-width:0.8;" x="53.328125" xlink:href="#m3bb357d345" y="36.538402"/>
      </g>
     </g>
     <g id="text_18">
      <!-- 2550 -->
      <g transform="translate(20.878125 40.337621)scale(0.1 -0.1)">
       <use xlink:href="#DejaVuSans-32"/>
       <use x="63.623047" xlink:href="#DejaVuSans-35"/>
       <use x="127.246094" xlink:href="#DejaVuSans-35"/>
       <use x="190.869141" xlink:href="#DejaVuSans-30"/>
      </g>
     </g>
    </g>
    <g id="text_19">
     <!-- Code branch coverage -->
     <g transform="translate(14.798438 211.949125)rotate(-90)scale(0.1 -0.1)">
      <defs>
       <path d="M 4122 4306 
L 4122 3641 
Q 3803 3938 3442 4084 
Q 3081 4231 2675 4231 
Q 1875 4231 1450 3742 
Q 1025 3253 1025 2328 
Q 1025 1406 1450 917 
Q 1875 428 2675 428 
Q 3081 428 3442 575 
Q 3803 722 4122 1019 
L 4122 359 
Q 3791 134 3420 21 
Q 3050 -91 2638 -91 
Q 1578 -91 968 557 
Q 359 1206 359 2328 
Q 359 3453 968 4101 
Q 1578 4750 2638 4750 
Q 3056 4750 3426 4639 
Q 3797 4528 4122 4306 
z
" id="DejaVuSans-43" transform="scale(0.015625)"/>
       <path d="M 2906 2969 
L 2906 4863 
L 3481 4863 
L 3481 0 
L 2906 0 
L 2906 525 
Q 2725 213 2448 61 
Q 2172 -91 1784 -91 
Q 1150 -91 751 415 
Q 353 922 353 1747 
Q 353 2572 751 3078 
Q 1150 3584 1784 3584 
Q 2172 3584 2448 3432 
Q 2725 3281 2906 2969 
z
M 947 1747 
Q 947 1113 1208 752 
Q 1469 391 1925 391 
Q 2381 391 2643 752 
Q 2906 1113 2906 1747 
Q 2906 2381 2643 2742 
Q 2381 3103 1925 3103 
Q 1469 3103 1208 2742 
Q 947 2381 947 1747 
z
" id="DejaVuSans-64" transform="scale(0.015625)"/>
       <path d="M 3116 1747 
Q 3116 2381 2855 2742 
Q 2594 3103 2138 3103 
Q 1681 3103 1420 2742 
Q 1159 2381 1159 1747 
Q 1159 1113 1420 752 
Q 1681 391 2138 391 
Q 2594 391 2855 752 
Q 3116 1113 3116 1747 
z
M 1159 2969 
Q 1341 3281 1617 3432 
Q 1894 3584 2278 3584 
Q 2916 3584 3314 3078 
Q 3713 2572 3713 1747 
Q 3713 922 3314 415 
Q 2916 -91 2278 -91 
Q 1894 -91 1617 61 
Q 1341 213 1159 525 
L 1159 0 
L 581 0 
L 581 4863 
L 1159 4863 
L 1159 2969 
z
" id="DejaVuSans-62" transform="scale(0.015625)"/>
       <path d="M 2194 1759 
Q 1497 1759 1228 1600 
Q 959 1441 959 1056 
Q 959 750 1161 570 
Q 1363 391 1709 391 
Q 2188 391 2477 730 
Q 2766 1069 2766 1631 
L 2766 1759 
L 2194 1759 
z
M 3341 1997 
L 3341 0 
L 2766 0 
L 2766 531 
Q 2569 213 2275 61 
Q 1981 -91 1556 -91 
Q 1019 -91 701 211 
Q 384 513 384 1019 
Q 384 1609 779 1909 
Q 1175 2209 1959 2209 
L 2766 2209 
L 2766 2266 
Q 2766 2663 2505 2880 
Q 2244 3097 1772 3097 
Q 1472 3097 1187 3025 
Q 903 2953 641 2809 
L 641 3341 
Q 956 3463 1253 3523 
Q 1550 3584 1831 3584 
Q 2591 3584 2966 3190 
Q 3341 2797 3341 1997 
z
" id="DejaVuSans-61" transform="scale(0.015625)"/>
       <path d="M 3122 3366 
L 3122 2828 
Q 2878 2963 2633 3030 
Q 2388 3097 2138 3097 
Q 1578 3097 1268 2742 
Q 959 2388 959 1747 
Q 959 1106 1268 751 
Q 1578 397 2138 397 
Q 2388 397 2633 464 
Q 2878 531 3122 666 
L 3122 134 
Q 2881 22 2623 -34 
Q 2366 -91 2075 -91 
Q 1284 -91 818 406 
Q 353 903 353 1747 
Q 353 2603 823 3093 
Q 1294 3584 2113 3584 
Q 2378 3584 2631 3529 
Q 2884 3475 3122 3366 
z
" id="DejaVuSans-63" transform="scale(0.015625)"/>
       <path d="M 191 3500 
L 800 3500 
L 1894 563 
L 2988 3500 
L 3597 3500 
L 2284 0 
L 1503 0 
L 191 3500 
z
" id="DejaVuSans-76" transform="scale(0.015625)"/>
       <path d="M 2906 1791 
Q 2906 2416 2648 2759 
Q 2391 3103 1925 3103 
Q 1463 3103 1205 2759 
Q 947 2416 947 1791 
Q 947 1169 1205 825 
Q 1463 481 1925 481 
Q 2391 481 2648 825 
Q 2906 1169 2906 1791 
z
M 3481 434 
Q 3481 -459 3084 -895 
Q 2688 -1331 1869 -1331 
Q 1566 -1331 1297 -1286 
Q 1028 -1241 775 -1147 
L 775 -588 
Q 1028 -725 1275 -790 
Q 1522 -856 1778 -856 
Q 2344 -856 2625 -561 
Q 2906 -266 2906 331 
L 2906 616 
Q 2728 306 2450 153 
Q 2172 0 1784 0 
Q 1141 0 747 490 
Q 353 981 353 1791 
Q 353 2603 747 3093 
Q 1141 3584 1784 3584 
Q 2172 3584 2450 3431 
Q 2728 3278 2906 2969 
L 2906 3500 
L 3481 3500 
L 3481 434 
z
" id="DejaVuSans-67" transform="scale(0.015625)"/>
      </defs>
      <use xlink:href="#DejaVuSans-43"/>
      <use x="69.824219" xlink:href="#DejaVuSans-6f"/>
      <use x="131.005859" xlink:href="#DejaVuSans-64"/>
      <use x="194.482422" xlink:href="#DejaVuSans-65"/>
      <use x="256.005859" xlink:href="#DejaVuSans-20"/>
      <use x="287.792969" xlink:href="#DejaVuSans-62"/>
      <use x="351.269531" xlink:href="#DejaVuSans-72"/>
      <use x="392.382812" xlink:href="#DejaVuSans-61"/>
      <use x="453.662109" xlink:href="#DejaVuSans-6e"/>
      <use x="517.041016" xlink:href="#DejaVuSans-63"/>
      <use x="572.021484" xlink:href="#DejaVuSans-68"/>
      <use x="635.400391" xlink:href="#DejaVuSans-20"/>
      <use x="667.1875" xlink:href="#DejaVuSans-63"/>
      <use x="722.167969" xlink:href="#DejaVuSans-6f"/>
      <use x="783.349609" xlink:href="#DejaVuSans-76"/>
      <use x="842.529297" xlink:href="#DejaVuSans-65"/>
      <use x="904.052734" xlink:href="#DejaVuSans-72"/>
      <use x="945.166016" xlink:href="#DejaVuSans-61"/>
      <use x="1006.445312" xlink:href="#DejaVuSans-67"/>
      <use x="1069.921875" xlink:href="#DejaVuSans-65"/>
     </g>
    </g>
   </g>
   <g id="line2d_18">
    <path clip-path="url(#p7589668b24)" d="M 85.79358 253.918438 
L 92.928844 227.853685 
L 100.064109 202.831523 
L 107.199374 185.107491 
L 114.334638 180.937131 
L 121.469903 176.766771 
L 128.605168 164.255689 
L 135.740433 162.170509 
L 142.875697 151.744608 
L 150.010962 146.010363 
L 157.146227 144.446478 
L 164.281492 140.276117 
L 171.416756 138.190937 
L 178.552021 136.105757 
L 185.687286 130.892806 
L 192.822551 128.807626 
L 199.957815 128.807626 
L 207.09308 118.90302 
L 214.228345 118.381725 
L 221.36361 114.73266 
L 228.498874 112.126184 
L 235.634139 111.083594 
L 242.769404 111.083594 
L 249.904668 103.785464 
L 257.039933 102.742874 
L 264.175198 102.742874 
L 271.310463 101.178988 
L 278.445727 94.923448 
L 285.580992 94.923448 
L 292.716257 94.923448 
L 299.851522 94.402153 
L 306.986786 93.880858 
L 314.122051 88.667907 
L 321.257316 77.199416 
L 328.392581 77.199416 
L 335.527845 75.114236 
L 342.66311 75.114236 
L 349.798375 73.029056 
L 356.933639 70.943876 
L 364.068904 70.943876 
L 371.204169 70.943876 
L 378.339434 68.858695 
L 385.474698 68.3374 
L 392.609963 68.3374 
L 399.745228 67.29481 
L 406.880493 67.29481 
L 414.015757 67.29481 
L 421.151022 67.29481 
L 428.286287 66.773515 
L 435.421552 66.773515 
L 442.556816 66.773515 
L 449.692081 63.12445 
L 456.827346 60.517975 
L 463.962611 58.954089 
L 471.097875 58.954089 
L 478.23314 58.954089 
L 485.368405 58.432794 
L 492.503669 56.868909 
L 499.638934 56.868909 
L 506.774199 55.826319 
L 513.909464 55.826319 
L 521.044728 55.826319 
L 528.179993 53.741139 
L 535.315258 53.219844 
L 542.450523 53.219844 
L 549.585787 51.655959 
L 556.721052 51.655959 
L 563.856317 51.655959 
L 570.991582 51.655959 
L 578.126846 51.655959 
L 585.262111 51.655959 
L 592.397376 51.655959 
L 599.53264 51.655959 
L 606.667905 51.655959 
L 613.80317 51.134664 
L 620.938435 51.134664 
L 628.073699 51.134664 
L 635.208964 51.134664 
L 642.344229 51.134664 
L 649.479494 49.049484 
L 656.614758 46.964303 
L 663.750023 46.964303 
L 670.885288 46.964303 
L 678.020553 46.964303 
L 685.155817 46.964303 
L 692.291082 46.964303 
L 699.426347 46.964303 
L 706.561612 46.964303 
L 713.696876 46.964303 
L 720.832141 46.964303 
L 727.967406 46.964303 
L 735.10267 46.964303 
" style="fill:none;stroke:#98df8a;stroke-linecap:square;stroke-width:1.5;"/>
    <defs>
     <path d="M -0 3 
L 3 -3 
L -3 -3 
z
" id="m3642625777" style="stroke:#ffffff;stroke-linejoin:miter;stroke-width:0.75;"/>
    </defs>
    <g clip-path="url(#p7589668b24)">
     <use style="fill:#98df8a;stroke:#ffffff;stroke-linejoin:miter;stroke-width:0.75;" x="85.79358" xlink:href="#m3642625777" y="253.918438"/>
     <use style="fill:#98df8a;stroke:#ffffff;stroke-linejoin:miter;stroke-width:0.75;" x="92.928844" xlink:href="#m3642625777" y="227.853685"/>
     <use style="fill:#98df8a;stroke:#ffffff;stroke-linejoin:miter;stroke-width:0.75;" x="100.064109" xlink:href="#m3642625777" y="202.831523"/>
     <use style="fill:#98df8a;stroke:#ffffff;stroke-linejoin:miter;stroke-width:0.75;" x="107.199374" xlink:href="#m3642625777" y="185.107491"/>
     <use style="fill:#98df8a;stroke:#ffffff;stroke-linejoin:miter;stroke-width:0.75;" x="114.334638" xlink:href="#m3642625777" y="180.937131"/>
     <use style="fill:#98df8a;stroke:#ffffff;stroke-linejoin:miter;stroke-width:0.75;" x="121.469903" xlink:href="#m3642625777" y="176.766771"/>
     <use style="fill:#98df8a;stroke:#ffffff;stroke-linejoin:miter;stroke-width:0.75;" x="128.605168" xlink:href="#m3642625777" y="164.255689"/>
     <use style="fill:#98df8a;stroke:#ffffff;stroke-linejoin:miter;stroke-width:0.75;" x="135.740433" xlink:href="#m3642625777" y="162.170509"/>
     <use style="fill:#98df8a;stroke:#ffffff;stroke-linejoin:miter;stroke-width:0.75;" x="142.875697" xlink:href="#m3642625777" y="151.744608"/>
     <use style="fill:#98df8a;stroke:#ffffff;stroke-linejoin:miter;stroke-width:0.75;" x="150.010962" xlink:href="#m3642625777" y="146.010363"/>
     <use style="fill:#98df8a;stroke:#ffffff;stroke-linejoin:miter;stroke-width:0.75;" x="157.146227" xlink:href="#m3642625777" y="144.446478"/>
     <use style="fill:#98df8a;stroke:#ffffff;stroke-linejoin:miter;stroke-width:0.75;" x="164.281492" xlink:href="#m3642625777" y="140.276117"/>
     <use style="fill:#98df8a;stroke:#ffffff;stroke-linejoin:miter;stroke-width:0.75;" x="171.416756" xlink:href="#m3642625777" y="138.190937"/>
     <use style="fill:#98df8a;stroke:#ffffff;stroke-linejoin:miter;stroke-width:0.75;" x="178.552021" xlink:href="#m3642625777" y="136.105757"/>
     <use style="fill:#98df8a;stroke:#ffffff;stroke-linejoin:miter;stroke-width:0.75;" x="185.687286" xlink:href="#m3642625777" y="130.892806"/>
     <use style="fill:#98df8a;stroke:#ffffff;stroke-linejoin:miter;stroke-width:0.75;" x="192.822551" xlink:href="#m3642625777" y="128.807626"/>
     <use style="fill:#98df8a;stroke:#ffffff;stroke-linejoin:miter;stroke-width:0.75;" x="199.957815" xlink:href="#m3642625777" y="128.807626"/>
     <use style="fill:#98df8a;stroke:#ffffff;stroke-linejoin:miter;stroke-width:0.75;" x="207.09308" xlink:href="#m3642625777" y="118.90302"/>
     <use style="fill:#98df8a;stroke:#ffffff;stroke-linejoin:miter;stroke-width:0.75;" x="214.228345" xlink:href="#m3642625777" y="118.381725"/>
     <use style="fill:#98df8a;stroke:#ffffff;stroke-linejoin:miter;stroke-width:0.75;" x="221.36361" xlink:href="#m3642625777" y="114.73266"/>
     <use style="fill:#98df8a;stroke:#ffffff;stroke-linejoin:miter;stroke-width:0.75;" x="228.498874" xlink:href="#m3642625777" y="112.126184"/>
     <use style="fill:#98df8a;stroke:#ffffff;stroke-linejoin:miter;stroke-width:0.75;" x="235.634139" xlink:href="#m3642625777" y="111.083594"/>
     <use style="fill:#98df8a;stroke:#ffffff;stroke-linejoin:miter;stroke-width:0.75;" x="242.769404" xlink:href="#m3642625777" y="111.083594"/>
     <use style="fill:#98df8a;stroke:#ffffff;stroke-linejoin:miter;stroke-width:0.75;" x="249.904668" xlink:href="#m3642625777" y="103.785464"/>
     <use style="fill:#98df8a;stroke:#ffffff;stroke-linejoin:miter;stroke-width:0.75;" x="257.039933" xlink:href="#m3642625777" y="102.742874"/>
     <use style="fill:#98df8a;stroke:#ffffff;stroke-linejoin:miter;stroke-width:0.75;" x="264.175198" xlink:href="#m3642625777" y="102.742874"/>
     <use style="fill:#98df8a;stroke:#ffffff;stroke-linejoin:miter;stroke-width:0.75;" x="271.310463" xlink:href="#m3642625777" y="101.178988"/>
     <use style="fill:#98df8a;stroke:#ffffff;stroke-linejoin:miter;stroke-width:0.75;" x="278.445727" xlink:href="#m3642625777" y="94.923448"/>
     <use style="fill:#98df8a;stroke:#ffffff;stroke-linejoin:miter;stroke-width:0.75;" x="285.580992" xlink:href="#m3642625777" y="94.923448"/>
     <use style="fill:#98df8a;stroke:#ffffff;stroke-linejoin:miter;stroke-width:0.75;" x="292.716257" xlink:href="#m3642625777" y="94.923448"/>
     <use style="fill:#98df8a;stroke:#ffffff;stroke-linejoin:miter;stroke-width:0.75;" x="299.851522" xlink:href="#m3642625777" y="94.402153"/>
     <use style="fill:#98df8a;stroke:#ffffff;stroke-linejoin:miter;stroke-width:0.75;" x="306.986786" xlink:href="#m3642625777" y="93.880858"/>
     <use style="fill:#98df8a;stroke:#ffffff;stroke-linejoin:miter;stroke-width:0.75;" x="314.122051" xlink:href="#m3642625777" y="88.667907"/>
     <use style="fill:#98df8a;stroke:#ffffff;stroke-linejoin:miter;stroke-width:0.75;" x="321.257316" xlink:href="#m3642625777" y="77.199416"/>
     <use style="fill:#98df8a;stroke:#ffffff;stroke-linejoin:miter;stroke-width:0.75;" x="328.392581" xlink:href="#m3642625777" y="77.199416"/>
     <use style="fill:#98df8a;stroke:#ffffff;stroke-linejoin:miter;stroke-width:0.75;" x="335.527845" xlink:href="#m3642625777" y="75.114236"/>
     <use style="fill:#98df8a;stroke:#ffffff;stroke-linejoin:miter;stroke-width:0.75;" x="342.66311" xlink:href="#m3642625777" y="75.114236"/>
     <use style="fill:#98df8a;stroke:#ffffff;stroke-linejoin:miter;stroke-width:0.75;" x="349.798375" xlink:href="#m3642625777" y="73.029056"/>
     <use style="fill:#98df8a;stroke:#ffffff;stroke-linejoin:miter;stroke-width:0.75;" x="356.933639" xlink:href="#m3642625777" y="70.943876"/>
     <use style="fill:#98df8a;stroke:#ffffff;stroke-linejoin:miter;stroke-width:0.75;" x="364.068904" xlink:href="#m3642625777" y="70.943876"/>
     <use style="fill:#98df8a;stroke:#ffffff;stroke-linejoin:miter;stroke-width:0.75;" x="371.204169" xlink:href="#m3642625777" y="70.943876"/>
     <use style="fill:#98df8a;stroke:#ffffff;stroke-linejoin:miter;stroke-width:0.75;" x="378.339434" xlink:href="#m3642625777" y="68.858695"/>
     <use style="fill:#98df8a;stroke:#ffffff;stroke-linejoin:miter;stroke-width:0.75;" x="385.474698" xlink:href="#m3642625777" y="68.3374"/>
     <use style="fill:#98df8a;stroke:#ffffff;stroke-linejoin:miter;stroke-width:0.75;" x="392.609963" xlink:href="#m3642625777" y="68.3374"/>
     <use style="fill:#98df8a;stroke:#ffffff;stroke-linejoin:miter;stroke-width:0.75;" x="399.745228" xlink:href="#m3642625777" y="67.29481"/>
     <use style="fill:#98df8a;stroke:#ffffff;stroke-linejoin:miter;stroke-width:0.75;" x="406.880493" xlink:href="#m3642625777" y="67.29481"/>
     <use style="fill:#98df8a;stroke:#ffffff;stroke-linejoin:miter;stroke-width:0.75;" x="414.015757" xlink:href="#m3642625777" y="67.29481"/>
     <use style="fill:#98df8a;stroke:#ffffff;stroke-linejoin:miter;stroke-width:0.75;" x="421.151022" xlink:href="#m3642625777" y="67.29481"/>
     <use style="fill:#98df8a;stroke:#ffffff;stroke-linejoin:miter;stroke-width:0.75;" x="428.286287" xlink:href="#m3642625777" y="66.773515"/>
     <use style="fill:#98df8a;stroke:#ffffff;stroke-linejoin:miter;stroke-width:0.75;" x="435.421552" xlink:href="#m3642625777" y="66.773515"/>
     <use style="fill:#98df8a;stroke:#ffffff;stroke-linejoin:miter;stroke-width:0.75;" x="442.556816" xlink:href="#m3642625777" y="66.773515"/>
     <use style="fill:#98df8a;stroke:#ffffff;stroke-linejoin:miter;stroke-width:0.75;" x="449.692081" xlink:href="#m3642625777" y="63.12445"/>
     <use style="fill:#98df8a;stroke:#ffffff;stroke-linejoin:miter;stroke-width:0.75;" x="456.827346" xlink:href="#m3642625777" y="60.517975"/>
     <use style="fill:#98df8a;stroke:#ffffff;stroke-linejoin:miter;stroke-width:0.75;" x="463.962611" xlink:href="#m3642625777" y="58.954089"/>
     <use style="fill:#98df8a;stroke:#ffffff;stroke-linejoin:miter;stroke-width:0.75;" x="471.097875" xlink:href="#m3642625777" y="58.954089"/>
     <use style="fill:#98df8a;stroke:#ffffff;stroke-linejoin:miter;stroke-width:0.75;" x="478.23314" xlink:href="#m3642625777" y="58.954089"/>
     <use style="fill:#98df8a;stroke:#ffffff;stroke-linejoin:miter;stroke-width:0.75;" x="485.368405" xlink:href="#m3642625777" y="58.432794"/>
     <use style="fill:#98df8a;stroke:#ffffff;stroke-linejoin:miter;stroke-width:0.75;" x="492.503669" xlink:href="#m3642625777" y="56.868909"/>
     <use style="fill:#98df8a;stroke:#ffffff;stroke-linejoin:miter;stroke-width:0.75;" x="499.638934" xlink:href="#m3642625777" y="56.868909"/>
     <use style="fill:#98df8a;stroke:#ffffff;stroke-linejoin:miter;stroke-width:0.75;" x="506.774199" xlink:href="#m3642625777" y="55.826319"/>
     <use style="fill:#98df8a;stroke:#ffffff;stroke-linejoin:miter;stroke-width:0.75;" x="513.909464" xlink:href="#m3642625777" y="55.826319"/>
     <use style="fill:#98df8a;stroke:#ffffff;stroke-linejoin:miter;stroke-width:0.75;" x="521.044728" xlink:href="#m3642625777" y="55.826319"/>
     <use style="fill:#98df8a;stroke:#ffffff;stroke-linejoin:miter;stroke-width:0.75;" x="528.179993" xlink:href="#m3642625777" y="53.741139"/>
     <use style="fill:#98df8a;stroke:#ffffff;stroke-linejoin:miter;stroke-width:0.75;" x="535.315258" xlink:href="#m3642625777" y="53.219844"/>
     <use style="fill:#98df8a;stroke:#ffffff;stroke-linejoin:miter;stroke-width:0.75;" x="542.450523" xlink:href="#m3642625777" y="53.219844"/>
     <use style="fill:#98df8a;stroke:#ffffff;stroke-linejoin:miter;stroke-width:0.75;" x="549.585787" xlink:href="#m3642625777" y="51.655959"/>
     <use style="fill:#98df8a;stroke:#ffffff;stroke-linejoin:miter;stroke-width:0.75;" x="556.721052" xlink:href="#m3642625777" y="51.655959"/>
     <use style="fill:#98df8a;stroke:#ffffff;stroke-linejoin:miter;stroke-width:0.75;" x="563.856317" xlink:href="#m3642625777" y="51.655959"/>
     <use style="fill:#98df8a;stroke:#ffffff;stroke-linejoin:miter;stroke-width:0.75;" x="570.991582" xlink:href="#m3642625777" y="51.655959"/>
     <use style="fill:#98df8a;stroke:#ffffff;stroke-linejoin:miter;stroke-width:0.75;" x="578.126846" xlink:href="#m3642625777" y="51.655959"/>
     <use style="fill:#98df8a;stroke:#ffffff;stroke-linejoin:miter;stroke-width:0.75;" x="585.262111" xlink:href="#m3642625777" y="51.655959"/>
     <use style="fill:#98df8a;stroke:#ffffff;stroke-linejoin:miter;stroke-width:0.75;" x="592.397376" xlink:href="#m3642625777" y="51.655959"/>
     <use style="fill:#98df8a;stroke:#ffffff;stroke-linejoin:miter;stroke-width:0.75;" x="599.53264" xlink:href="#m3642625777" y="51.655959"/>
     <use style="fill:#98df8a;stroke:#ffffff;stroke-linejoin:miter;stroke-width:0.75;" x="606.667905" xlink:href="#m3642625777" y="51.655959"/>
     <use style="fill:#98df8a;stroke:#ffffff;stroke-linejoin:miter;stroke-width:0.75;" x="613.80317" xlink:href="#m3642625777" y="51.134664"/>
     <use style="fill:#98df8a;stroke:#ffffff;stroke-linejoin:miter;stroke-width:0.75;" x="620.938435" xlink:href="#m3642625777" y="51.134664"/>
     <use style="fill:#98df8a;stroke:#ffffff;stroke-linejoin:miter;stroke-width:0.75;" x="628.073699" xlink:href="#m3642625777" y="51.134664"/>
     <use style="fill:#98df8a;stroke:#ffffff;stroke-linejoin:miter;stroke-width:0.75;" x="635.208964" xlink:href="#m3642625777" y="51.134664"/>
     <use style="fill:#98df8a;stroke:#ffffff;stroke-linejoin:miter;stroke-width:0.75;" x="642.344229" xlink:href="#m3642625777" y="51.134664"/>
     <use style="fill:#98df8a;stroke:#ffffff;stroke-linejoin:miter;stroke-width:0.75;" x="649.479494" xlink:href="#m3642625777" y="49.049484"/>
     <use style="fill:#98df8a;stroke:#ffffff;stroke-linejoin:miter;stroke-width:0.75;" x="656.614758" xlink:href="#m3642625777" y="46.964303"/>
     <use style="fill:#98df8a;stroke:#ffffff;stroke-linejoin:miter;stroke-width:0.75;" x="663.750023" xlink:href="#m3642625777" y="46.964303"/>
     <use style="fill:#98df8a;stroke:#ffffff;stroke-linejoin:miter;stroke-width:0.75;" x="670.885288" xlink:href="#m3642625777" y="46.964303"/>
     <use style="fill:#98df8a;stroke:#ffffff;stroke-linejoin:miter;stroke-width:0.75;" x="678.020553" xlink:href="#m3642625777" y="46.964303"/>
     <use style="fill:#98df8a;stroke:#ffffff;stroke-linejoin:miter;stroke-width:0.75;" x="685.155817" xlink:href="#m3642625777" y="46.964303"/>
     <use style="fill:#98df8a;stroke:#ffffff;stroke-linejoin:miter;stroke-width:0.75;" x="692.291082" xlink:href="#m3642625777" y="46.964303"/>
     <use style="fill:#98df8a;stroke:#ffffff;stroke-linejoin:miter;stroke-width:0.75;" x="699.426347" xlink:href="#m3642625777" y="46.964303"/>
     <use style="fill:#98df8a;stroke:#ffffff;stroke-linejoin:miter;stroke-width:0.75;" x="706.561612" xlink:href="#m3642625777" y="46.964303"/>
     <use style="fill:#98df8a;stroke:#ffffff;stroke-linejoin:miter;stroke-width:0.75;" x="713.696876" xlink:href="#m3642625777" y="46.964303"/>
     <use style="fill:#98df8a;stroke:#ffffff;stroke-linejoin:miter;stroke-width:0.75;" x="720.832141" xlink:href="#m3642625777" y="46.964303"/>
     <use style="fill:#98df8a;stroke:#ffffff;stroke-linejoin:miter;stroke-width:0.75;" x="727.967406" xlink:href="#m3642625777" y="46.964303"/>
     <use style="fill:#98df8a;stroke:#ffffff;stroke-linejoin:miter;stroke-width:0.75;" x="735.10267" xlink:href="#m3642625777" y="46.964303"/>
    </g>
   </g>
   <g id="line2d_19">
    <path clip-path="url(#p7589668b24)" d="M 85.79358 265.386929 
L 92.928844 235.673111 
L 100.064109 212.736129 
L 107.199374 184.064901 
L 114.334638 172.075115 
L 121.469903 168.42605 
L 128.605168 159.564034 
L 135.740433 159.042739 
L 142.875697 156.957559 
L 150.010962 150.180723 
L 157.146227 142.882592 
L 164.281492 142.361297 
L 171.416756 142.361297 
L 178.552021 142.361297 
L 185.687286 130.371511 
L 192.822551 125.679856 
L 199.957815 125.679856 
L 207.09308 125.158561 
L 214.228345 123.073381 
L 221.36361 117.86043 
L 228.498874 113.69007 
L 235.634139 112.64748 
L 242.769404 110.562299 
L 249.904668 107.955824 
L 257.039933 103.264169 
L 264.175198 103.264169 
L 271.310463 103.264169 
L 278.445727 103.264169 
L 285.580992 103.264169 
L 292.716257 102.742874 
L 299.851522 101.700283 
L 306.986786 94.402153 
L 314.122051 93.880858 
L 321.257316 93.880858 
L 328.392581 93.359563 
L 335.527845 86.061432 
L 342.66311 83.976252 
L 349.798375 83.976252 
L 356.933639 83.454957 
L 364.068904 81.891072 
L 371.204169 81.891072 
L 378.339434 80.327186 
L 385.474698 80.327186 
L 392.609963 79.805891 
L 399.745228 77.199416 
L 406.880493 76.678121 
L 414.015757 71.465171 
L 421.151022 71.465171 
L 428.286287 71.465171 
L 435.421552 69.37999 
L 442.556816 68.858695 
L 449.692081 68.3374 
L 456.827346 66.773515 
L 463.962611 62.603155 
L 471.097875 62.603155 
L 478.23314 62.603155 
L 485.368405 62.603155 
L 492.503669 60.517975 
L 499.638934 59.99668 
L 506.774199 56.868909 
L 513.909464 56.868909 
L 521.044728 56.868909 
L 528.179993 56.868909 
L 535.315258 56.868909 
L 542.450523 56.868909 
L 549.585787 56.868909 
L 556.721052 56.868909 
L 563.856317 56.868909 
L 570.991582 56.868909 
L 578.126846 56.347614 
L 585.262111 56.347614 
L 592.397376 53.741139 
L 599.53264 53.741139 
L 606.667905 53.741139 
L 613.80317 51.655959 
L 620.938435 50.092074 
L 628.073699 48.528188 
L 635.208964 46.443008 
L 642.344229 46.443008 
L 649.479494 46.443008 
L 656.614758 46.443008 
L 663.750023 46.443008 
L 670.885288 46.443008 
L 678.020553 43.836533 
L 685.155817 43.836533 
L 692.291082 42.793943 
L 699.426347 42.793943 
L 706.561612 42.793943 
L 713.696876 42.793943 
L 720.832141 42.793943 
L 727.967406 42.793943 
L 735.10267 42.793943 
" style="fill:none;stroke:#1f77b4;stroke-linecap:square;stroke-width:1.5;"/>
    <defs>
     <path d="M 0 3 
C 0.795609 3 1.55874 2.683901 2.12132 2.12132 
C 2.683901 1.55874 3 0.795609 3 0 
C 3 -0.795609 2.683901 -1.55874 2.12132 -2.12132 
C 1.55874 -2.683901 0.795609 -3 0 -3 
C -0.795609 -3 -1.55874 -2.683901 -2.12132 -2.12132 
C -2.683901 -1.55874 -3 -0.795609 -3 0 
C -3 0.795609 -2.683901 1.55874 -2.12132 2.12132 
C -1.55874 2.683901 -0.795609 3 0 3 
z
" id="m1785e0cf00" style="stroke:#ffffff;stroke-width:0.75;"/>
    </defs>
    <g clip-path="url(#p7589668b24)">
     <use style="fill:#1f77b4;stroke:#ffffff;stroke-width:0.75;" x="85.79358" xlink:href="#m1785e0cf00" y="265.386929"/>
     <use style="fill:#1f77b4;stroke:#ffffff;stroke-width:0.75;" x="92.928844" xlink:href="#m1785e0cf00" y="235.673111"/>
     <use style="fill:#1f77b4;stroke:#ffffff;stroke-width:0.75;" x="100.064109" xlink:href="#m1785e0cf00" y="212.736129"/>
     <use style="fill:#1f77b4;stroke:#ffffff;stroke-width:0.75;" x="107.199374" xlink:href="#m1785e0cf00" y="184.064901"/>
     <use style="fill:#1f77b4;stroke:#ffffff;stroke-width:0.75;" x="114.334638" xlink:href="#m1785e0cf00" y="172.075115"/>
     <use style="fill:#1f77b4;stroke:#ffffff;stroke-width:0.75;" x="121.469903" xlink:href="#m1785e0cf00" y="168.42605"/>
     <use style="fill:#1f77b4;stroke:#ffffff;stroke-width:0.75;" x="128.605168" xlink:href="#m1785e0cf00" y="159.564034"/>
     <use style="fill:#1f77b4;stroke:#ffffff;stroke-width:0.75;" x="135.740433" xlink:href="#m1785e0cf00" y="159.042739"/>
     <use style="fill:#1f77b4;stroke:#ffffff;stroke-width:0.75;" x="142.875697" xlink:href="#m1785e0cf00" y="156.957559"/>
     <use style="fill:#1f77b4;stroke:#ffffff;stroke-width:0.75;" x="150.010962" xlink:href="#m1785e0cf00" y="150.180723"/>
     <use style="fill:#1f77b4;stroke:#ffffff;stroke-width:0.75;" x="157.146227" xlink:href="#m1785e0cf00" y="142.882592"/>
     <use style="fill:#1f77b4;stroke:#ffffff;stroke-width:0.75;" x="164.281492" xlink:href="#m1785e0cf00" y="142.361297"/>
     <use style="fill:#1f77b4;stroke:#ffffff;stroke-width:0.75;" x="171.416756" xlink:href="#m1785e0cf00" y="142.361297"/>
     <use style="fill:#1f77b4;stroke:#ffffff;stroke-width:0.75;" x="178.552021" xlink:href="#m1785e0cf00" y="142.361297"/>
     <use style="fill:#1f77b4;stroke:#ffffff;stroke-width:0.75;" x="185.687286" xlink:href="#m1785e0cf00" y="130.371511"/>
     <use style="fill:#1f77b4;stroke:#ffffff;stroke-width:0.75;" x="192.822551" xlink:href="#m1785e0cf00" y="125.679856"/>
     <use style="fill:#1f77b4;stroke:#ffffff;stroke-width:0.75;" x="199.957815" xlink:href="#m1785e0cf00" y="125.679856"/>
     <use style="fill:#1f77b4;stroke:#ffffff;stroke-width:0.75;" x="207.09308" xlink:href="#m1785e0cf00" y="125.158561"/>
     <use style="fill:#1f77b4;stroke:#ffffff;stroke-width:0.75;" x="214.228345" xlink:href="#m1785e0cf00" y="123.073381"/>
     <use style="fill:#1f77b4;stroke:#ffffff;stroke-width:0.75;" x="221.36361" xlink:href="#m1785e0cf00" y="117.86043"/>
     <use style="fill:#1f77b4;stroke:#ffffff;stroke-width:0.75;" x="228.498874" xlink:href="#m1785e0cf00" y="113.69007"/>
     <use style="fill:#1f77b4;stroke:#ffffff;stroke-width:0.75;" x="235.634139" xlink:href="#m1785e0cf00" y="112.64748"/>
     <use style="fill:#1f77b4;stroke:#ffffff;stroke-width:0.75;" x="242.769404" xlink:href="#m1785e0cf00" y="110.562299"/>
     <use style="fill:#1f77b4;stroke:#ffffff;stroke-width:0.75;" x="249.904668" xlink:href="#m1785e0cf00" y="107.955824"/>
     <use style="fill:#1f77b4;stroke:#ffffff;stroke-width:0.75;" x="257.039933" xlink:href="#m1785e0cf00" y="103.264169"/>
     <use style="fill:#1f77b4;stroke:#ffffff;stroke-width:0.75;" x="264.175198" xlink:href="#m1785e0cf00" y="103.264169"/>
     <use style="fill:#1f77b4;stroke:#ffffff;stroke-width:0.75;" x="271.310463" xlink:href="#m1785e0cf00" y="103.264169"/>
     <use style="fill:#1f77b4;stroke:#ffffff;stroke-width:0.75;" x="278.445727" xlink:href="#m1785e0cf00" y="103.264169"/>
     <use style="fill:#1f77b4;stroke:#ffffff;stroke-width:0.75;" x="285.580992" xlink:href="#m1785e0cf00" y="103.264169"/>
     <use style="fill:#1f77b4;stroke:#ffffff;stroke-width:0.75;" x="292.716257" xlink:href="#m1785e0cf00" y="102.742874"/>
     <use style="fill:#1f77b4;stroke:#ffffff;stroke-width:0.75;" x="299.851522" xlink:href="#m1785e0cf00" y="101.700283"/>
     <use style="fill:#1f77b4;stroke:#ffffff;stroke-width:0.75;" x="306.986786" xlink:href="#m1785e0cf00" y="94.402153"/>
     <use style="fill:#1f77b4;stroke:#ffffff;stroke-width:0.75;" x="314.122051" xlink:href="#m1785e0cf00" y="93.880858"/>
     <use style="fill:#1f77b4;stroke:#ffffff;stroke-width:0.75;" x="321.257316" xlink:href="#m1785e0cf00" y="93.880858"/>
     <use style="fill:#1f77b4;stroke:#ffffff;stroke-width:0.75;" x="328.392581" xlink:href="#m1785e0cf00" y="93.359563"/>
     <use style="fill:#1f77b4;stroke:#ffffff;stroke-width:0.75;" x="335.527845" xlink:href="#m1785e0cf00" y="86.061432"/>
     <use style="fill:#1f77b4;stroke:#ffffff;stroke-width:0.75;" x="342.66311" xlink:href="#m1785e0cf00" y="83.976252"/>
     <use style="fill:#1f77b4;stroke:#ffffff;stroke-width:0.75;" x="349.798375" xlink:href="#m1785e0cf00" y="83.976252"/>
     <use style="fill:#1f77b4;stroke:#ffffff;stroke-width:0.75;" x="356.933639" xlink:href="#m1785e0cf00" y="83.454957"/>
     <use style="fill:#1f77b4;stroke:#ffffff;stroke-width:0.75;" x="364.068904" xlink:href="#m1785e0cf00" y="81.891072"/>
     <use style="fill:#1f77b4;stroke:#ffffff;stroke-width:0.75;" x="371.204169" xlink:href="#m1785e0cf00" y="81.891072"/>
     <use style="fill:#1f77b4;stroke:#ffffff;stroke-width:0.75;" x="378.339434" xlink:href="#m1785e0cf00" y="80.327186"/>
     <use style="fill:#1f77b4;stroke:#ffffff;stroke-width:0.75;" x="385.474698" xlink:href="#m1785e0cf00" y="80.327186"/>
     <use style="fill:#1f77b4;stroke:#ffffff;stroke-width:0.75;" x="392.609963" xlink:href="#m1785e0cf00" y="79.805891"/>
     <use style="fill:#1f77b4;stroke:#ffffff;stroke-width:0.75;" x="399.745228" xlink:href="#m1785e0cf00" y="77.199416"/>
     <use style="fill:#1f77b4;stroke:#ffffff;stroke-width:0.75;" x="406.880493" xlink:href="#m1785e0cf00" y="76.678121"/>
     <use style="fill:#1f77b4;stroke:#ffffff;stroke-width:0.75;" x="414.015757" xlink:href="#m1785e0cf00" y="71.465171"/>
     <use style="fill:#1f77b4;stroke:#ffffff;stroke-width:0.75;" x="421.151022" xlink:href="#m1785e0cf00" y="71.465171"/>
     <use style="fill:#1f77b4;stroke:#ffffff;stroke-width:0.75;" x="428.286287" xlink:href="#m1785e0cf00" y="71.465171"/>
     <use style="fill:#1f77b4;stroke:#ffffff;stroke-width:0.75;" x="435.421552" xlink:href="#m1785e0cf00" y="69.37999"/>
     <use style="fill:#1f77b4;stroke:#ffffff;stroke-width:0.75;" x="442.556816" xlink:href="#m1785e0cf00" y="68.858695"/>
     <use style="fill:#1f77b4;stroke:#ffffff;stroke-width:0.75;" x="449.692081" xlink:href="#m1785e0cf00" y="68.3374"/>
     <use style="fill:#1f77b4;stroke:#ffffff;stroke-width:0.75;" x="456.827346" xlink:href="#m1785e0cf00" y="66.773515"/>
     <use style="fill:#1f77b4;stroke:#ffffff;stroke-width:0.75;" x="463.962611" xlink:href="#m1785e0cf00" y="62.603155"/>
     <use style="fill:#1f77b4;stroke:#ffffff;stroke-width:0.75;" x="471.097875" xlink:href="#m1785e0cf00" y="62.603155"/>
     <use style="fill:#1f77b4;stroke:#ffffff;stroke-width:0.75;" x="478.23314" xlink:href="#m1785e0cf00" y="62.603155"/>
     <use style="fill:#1f77b4;stroke:#ffffff;stroke-width:0.75;" x="485.368405" xlink:href="#m1785e0cf00" y="62.603155"/>
     <use style="fill:#1f77b4;stroke:#ffffff;stroke-width:0.75;" x="492.503669" xlink:href="#m1785e0cf00" y="60.517975"/>
     <use style="fill:#1f77b4;stroke:#ffffff;stroke-width:0.75;" x="499.638934" xlink:href="#m1785e0cf00" y="59.99668"/>
     <use style="fill:#1f77b4;stroke:#ffffff;stroke-width:0.75;" x="506.774199" xlink:href="#m1785e0cf00" y="56.868909"/>
     <use style="fill:#1f77b4;stroke:#ffffff;stroke-width:0.75;" x="513.909464" xlink:href="#m1785e0cf00" y="56.868909"/>
     <use style="fill:#1f77b4;stroke:#ffffff;stroke-width:0.75;" x="521.044728" xlink:href="#m1785e0cf00" y="56.868909"/>
     <use style="fill:#1f77b4;stroke:#ffffff;stroke-width:0.75;" x="528.179993" xlink:href="#m1785e0cf00" y="56.868909"/>
     <use style="fill:#1f77b4;stroke:#ffffff;stroke-width:0.75;" x="535.315258" xlink:href="#m1785e0cf00" y="56.868909"/>
     <use style="fill:#1f77b4;stroke:#ffffff;stroke-width:0.75;" x="542.450523" xlink:href="#m1785e0cf00" y="56.868909"/>
     <use style="fill:#1f77b4;stroke:#ffffff;stroke-width:0.75;" x="549.585787" xlink:href="#m1785e0cf00" y="56.868909"/>
     <use style="fill:#1f77b4;stroke:#ffffff;stroke-width:0.75;" x="556.721052" xlink:href="#m1785e0cf00" y="56.868909"/>
     <use style="fill:#1f77b4;stroke:#ffffff;stroke-width:0.75;" x="563.856317" xlink:href="#m1785e0cf00" y="56.868909"/>
     <use style="fill:#1f77b4;stroke:#ffffff;stroke-width:0.75;" x="570.991582" xlink:href="#m1785e0cf00" y="56.868909"/>
     <use style="fill:#1f77b4;stroke:#ffffff;stroke-width:0.75;" x="578.126846" xlink:href="#m1785e0cf00" y="56.347614"/>
     <use style="fill:#1f77b4;stroke:#ffffff;stroke-width:0.75;" x="585.262111" xlink:href="#m1785e0cf00" y="56.347614"/>
     <use style="fill:#1f77b4;stroke:#ffffff;stroke-width:0.75;" x="592.397376" xlink:href="#m1785e0cf00" y="53.741139"/>
     <use style="fill:#1f77b4;stroke:#ffffff;stroke-width:0.75;" x="599.53264" xlink:href="#m1785e0cf00" y="53.741139"/>
     <use style="fill:#1f77b4;stroke:#ffffff;stroke-width:0.75;" x="606.667905" xlink:href="#m1785e0cf00" y="53.741139"/>
     <use style="fill:#1f77b4;stroke:#ffffff;stroke-width:0.75;" x="613.80317" xlink:href="#m1785e0cf00" y="51.655959"/>
     <use style="fill:#1f77b4;stroke:#ffffff;stroke-width:0.75;" x="620.938435" xlink:href="#m1785e0cf00" y="50.092074"/>
     <use style="fill:#1f77b4;stroke:#ffffff;stroke-width:0.75;" x="628.073699" xlink:href="#m1785e0cf00" y="48.528188"/>
     <use style="fill:#1f77b4;stroke:#ffffff;stroke-width:0.75;" x="635.208964" xlink:href="#m1785e0cf00" y="46.443008"/>
     <use style="fill:#1f77b4;stroke:#ffffff;stroke-width:0.75;" x="642.344229" xlink:href="#m1785e0cf00" y="46.443008"/>
     <use style="fill:#1f77b4;stroke:#ffffff;stroke-width:0.75;" x="649.479494" xlink:href="#m1785e0cf00" y="46.443008"/>
     <use style="fill:#1f77b4;stroke:#ffffff;stroke-width:0.75;" x="656.614758" xlink:href="#m1785e0cf00" y="46.443008"/>
     <use style="fill:#1f77b4;stroke:#ffffff;stroke-width:0.75;" x="663.750023" xlink:href="#m1785e0cf00" y="46.443008"/>
     <use style="fill:#1f77b4;stroke:#ffffff;stroke-width:0.75;" x="670.885288" xlink:href="#m1785e0cf00" y="46.443008"/>
     <use style="fill:#1f77b4;stroke:#ffffff;stroke-width:0.75;" x="678.020553" xlink:href="#m1785e0cf00" y="43.836533"/>
     <use style="fill:#1f77b4;stroke:#ffffff;stroke-width:0.75;" x="685.155817" xlink:href="#m1785e0cf00" y="43.836533"/>
     <use style="fill:#1f77b4;stroke:#ffffff;stroke-width:0.75;" x="692.291082" xlink:href="#m1785e0cf00" y="42.793943"/>
     <use style="fill:#1f77b4;stroke:#ffffff;stroke-width:0.75;" x="699.426347" xlink:href="#m1785e0cf00" y="42.793943"/>
     <use style="fill:#1f77b4;stroke:#ffffff;stroke-width:0.75;" x="706.561612" xlink:href="#m1785e0cf00" y="42.793943"/>
     <use style="fill:#1f77b4;stroke:#ffffff;stroke-width:0.75;" x="713.696876" xlink:href="#m1785e0cf00" y="42.793943"/>
     <use style="fill:#1f77b4;stroke:#ffffff;stroke-width:0.75;" x="720.832141" xlink:href="#m1785e0cf00" y="42.793943"/>
     <use style="fill:#1f77b4;stroke:#ffffff;stroke-width:0.75;" x="727.967406" xlink:href="#m1785e0cf00" y="42.793943"/>
     <use style="fill:#1f77b4;stroke:#ffffff;stroke-width:0.75;" x="735.10267" xlink:href="#m1785e0cf00" y="42.793943"/>
    </g>
   </g>
   <g id="line2d_20"/>
   <g id="line2d_21"/>
   <g id="line2d_22">
    <path clip-path="url(#p7589668b24)" d="M 735.10267 288.430125 
L 735.10267 22.318125 
" style="fill:none;stroke:#ff0000;stroke-linecap:square;stroke-width:1.5;"/>
   </g>
   <g id="patch_3">
    <path d="M 53.328125 245.056422 
L 53.328125 36.538402 
" style="fill:none;stroke:#000000;stroke-linecap:square;stroke-linejoin:miter;stroke-width:0.8;"/>
   </g>
   <g id="patch_4">
    <path d="M 85.79358 288.430125 
L 687.534239 288.430125 
" style="fill:none;stroke:#000000;stroke-linecap:square;stroke-linejoin:miter;stroke-width:0.8;"/>
   </g>
   <g id="text_20">
    <!-- mbedtls_fuzz_dtlsclient (23h, 10 trials/fuzzer) -->
    <g transform="translate(273.77375 16.318125)scale(0.12 -0.12)">
     <defs>
      <path d="M 603 4863 
L 1178 4863 
L 1178 0 
L 603 0 
L 603 4863 
z
" id="DejaVuSans-6c" transform="scale(0.015625)"/>
      <path d="M 2834 3397 
L 2834 2853 
Q 2591 2978 2328 3040 
Q 2066 3103 1784 3103 
Q 1356 3103 1142 2972 
Q 928 2841 928 2578 
Q 928 2378 1081 2264 
Q 1234 2150 1697 2047 
L 1894 2003 
Q 2506 1872 2764 1633 
Q 3022 1394 3022 966 
Q 3022 478 2636 193 
Q 2250 -91 1575 -91 
Q 1294 -91 989 -36 
Q 684 19 347 128 
L 347 722 
Q 666 556 975 473 
Q 1284 391 1588 391 
Q 1994 391 2212 530 
Q 2431 669 2431 922 
Q 2431 1156 2273 1281 
Q 2116 1406 1581 1522 
L 1381 1569 
Q 847 1681 609 1914 
Q 372 2147 372 2553 
Q 372 3047 722 3315 
Q 1072 3584 1716 3584 
Q 2034 3584 2315 3537 
Q 2597 3491 2834 3397 
z
" id="DejaVuSans-73" transform="scale(0.015625)"/>
      <path d="M 3263 -1063 
L 3263 -1509 
L -63 -1509 
L -63 -1063 
L 3263 -1063 
z
" id="DejaVuSans-5f" transform="scale(0.015625)"/>
      <path d="M 2375 4863 
L 2375 4384 
L 1825 4384 
Q 1516 4384 1395 4259 
Q 1275 4134 1275 3809 
L 1275 3500 
L 2222 3500 
L 2222 3053 
L 1275 3053 
L 1275 0 
L 697 0 
L 697 3053 
L 147 3053 
L 147 3500 
L 697 3500 
L 697 3744 
Q 697 4328 969 4595 
Q 1241 4863 1831 4863 
L 2375 4863 
z
" id="DejaVuSans-66" transform="scale(0.015625)"/>
      <path d="M 353 3500 
L 3084 3500 
L 3084 2975 
L 922 459 
L 3084 459 
L 3084 0 
L 275 0 
L 275 525 
L 2438 3041 
L 353 3041 
L 353 3500 
z
" id="DejaVuSans-7a" transform="scale(0.015625)"/>
      <path d="M 750 794 
L 1409 794 
L 1409 256 
L 897 -744 
L 494 -744 
L 750 256 
L 750 794 
z
" id="DejaVuSans-2c" transform="scale(0.015625)"/>
      <path d="M 1625 4666 
L 2156 4666 
L 531 -594 
L 0 -594 
L 1625 4666 
z
" id="DejaVuSans-2f" transform="scale(0.015625)"/>
     </defs>
     <use xlink:href="#DejaVuSans-6d"/>
     <use x="97.412109" xlink:href="#DejaVuSans-62"/>
     <use x="160.888672" xlink:href="#DejaVuSans-65"/>
     <use x="222.412109" xlink:href="#DejaVuSans-64"/>
     <use x="285.888672" xlink:href="#DejaVuSans-74"/>
     <use x="325.097656" xlink:href="#DejaVuSans-6c"/>
     <use x="352.880859" xlink:href="#DejaVuSans-73"/>
     <use x="404.980469" xlink:href="#DejaVuSans-5f"/>
     <use x="454.980469" xlink:href="#DejaVuSans-66"/>
     <use x="490.185547" xlink:href="#DejaVuSans-75"/>
     <use x="553.564453" xlink:href="#DejaVuSans-7a"/>
     <use x="606.054688" xlink:href="#DejaVuSans-7a"/>
     <use x="658.544922" xlink:href="#DejaVuSans-5f"/>
     <use x="708.544922" xlink:href="#DejaVuSans-64"/>
     <use x="772.021484" xlink:href="#DejaVuSans-74"/>
     <use x="811.230469" xlink:href="#DejaVuSans-6c"/>
     <use x="839.013672" xlink:href="#DejaVuSans-73"/>
     <use x="891.113281" xlink:href="#DejaVuSans-63"/>
     <use x="946.09375" xlink:href="#DejaVuSans-6c"/>
     <use x="973.876953" xlink:href="#DejaVuSans-69"/>
     <use x="1001.660156" xlink:href="#DejaVuSans-65"/>
     <use x="1063.183594" xlink:href="#DejaVuSans-6e"/>
     <use x="1126.5625" xlink:href="#DejaVuSans-74"/>
     <use x="1165.771484" xlink:href="#DejaVuSans-20"/>
     <use x="1197.558594" xlink:href="#DejaVuSans-28"/>
     <use x="1236.572266" xlink:href="#DejaVuSans-32"/>
     <use x="1300.195312" xlink:href="#DejaVuSans-33"/>
     <use x="1363.818359" xlink:href="#DejaVuSans-68"/>
     <use x="1427.197266" xlink:href="#DejaVuSans-2c"/>
     <use x="1458.984375" xlink:href="#DejaVuSans-20"/>
     <use x="1490.771484" xlink:href="#DejaVuSans-31"/>
     <use x="1554.394531" xlink:href="#DejaVuSans-30"/>
     <use x="1618.017578" xlink:href="#DejaVuSans-20"/>
     <use x="1649.804688" xlink:href="#DejaVuSans-74"/>
     <use x="1689.013672" xlink:href="#DejaVuSans-72"/>
     <use x="1730.126953" xlink:href="#DejaVuSans-69"/>
     <use x="1757.910156" xlink:href="#DejaVuSans-61"/>
     <use x="1819.189453" xlink:href="#DejaVuSans-6c"/>
     <use x="1846.972656" xlink:href="#DejaVuSans-73"/>
     <use x="1899.072266" xlink:href="#DejaVuSans-2f"/>
     <use x="1932.763672" xlink:href="#DejaVuSans-66"/>
     <use x="1967.96875" xlink:href="#DejaVuSans-75"/>
     <use x="2031.347656" xlink:href="#DejaVuSans-7a"/>
     <use x="2083.837891" xlink:href="#DejaVuSans-7a"/>
     <use x="2136.328125" xlink:href="#DejaVuSans-65"/>
     <use x="2197.851562" xlink:href="#DejaVuSans-72"/>
     <use x="2238.964844" xlink:href="#DejaVuSans-29"/>
    </g>
   </g>
   <g id="legend_1">
    <g id="line2d_23">
     <path d="M 771.568125 30.416563 
L 791.568125 30.416563 
" style="fill:none;stroke:#98df8a;stroke-linecap:square;stroke-width:1.5;"/>
    </g>
    <g id="line2d_24">
     <defs>
      <path d="M -0 3 
L 3 -3 
L -3 -3 
z
" id="m2b87d4e2a2" style="stroke:#98df8a;stroke-linejoin:miter;"/>
     </defs>
     <g>
      <use style="fill:#98df8a;stroke:#98df8a;stroke-linejoin:miter;" x="781.568125" xlink:href="#m2b87d4e2a2" y="30.416563"/>
     </g>
    </g>
    <g id="text_21">
     <!-- symqemu_aflplusplus -->
     <g transform="translate(799.568125 33.916563)scale(0.1 -0.1)">
      <defs>
       <path d="M 2059 -325 
Q 1816 -950 1584 -1140 
Q 1353 -1331 966 -1331 
L 506 -1331 
L 506 -850 
L 844 -850 
Q 1081 -850 1212 -737 
Q 1344 -625 1503 -206 
L 1606 56 
L 191 3500 
L 800 3500 
L 1894 763 
L 2988 3500 
L 3597 3500 
L 2059 -325 
z
" id="DejaVuSans-79" transform="scale(0.015625)"/>
       <path d="M 947 1747 
Q 947 1113 1208 752 
Q 1469 391 1925 391 
Q 2381 391 2643 752 
Q 2906 1113 2906 1747 
Q 2906 2381 2643 2742 
Q 2381 3103 1925 3103 
Q 1469 3103 1208 2742 
Q 947 2381 947 1747 
z
M 2906 525 
Q 2725 213 2448 61 
Q 2172 -91 1784 -91 
Q 1150 -91 751 415 
Q 353 922 353 1747 
Q 353 2572 751 3078 
Q 1150 3584 1784 3584 
Q 2172 3584 2448 3432 
Q 2725 3281 2906 2969 
L 2906 3500 
L 3481 3500 
L 3481 -1331 
L 2906 -1331 
L 2906 525 
z
" id="DejaVuSans-71" transform="scale(0.015625)"/>
       <path d="M 1159 525 
L 1159 -1331 
L 581 -1331 
L 581 3500 
L 1159 3500 
L 1159 2969 
Q 1341 3281 1617 3432 
Q 1894 3584 2278 3584 
Q 2916 3584 3314 3078 
Q 3713 2572 3713 1747 
Q 3713 922 3314 415 
Q 2916 -91 2278 -91 
Q 1894 -91 1617 61 
Q 1341 213 1159 525 
z
M 3116 1747 
Q 3116 2381 2855 2742 
Q 2594 3103 2138 3103 
Q 1681 3103 1420 2742 
Q 1159 2381 1159 1747 
Q 1159 1113 1420 752 
Q 1681 391 2138 391 
Q 2594 391 2855 752 
Q 3116 1113 3116 1747 
z
" id="DejaVuSans-70" transform="scale(0.015625)"/>
      </defs>
      <use xlink:href="#DejaVuSans-73"/>
      <use x="52.099609" xlink:href="#DejaVuSans-79"/>
      <use x="111.279297" xlink:href="#DejaVuSans-6d"/>
      <use x="208.691406" xlink:href="#DejaVuSans-71"/>
      <use x="272.167969" xlink:href="#DejaVuSans-65"/>
      <use x="333.691406" xlink:href="#DejaVuSans-6d"/>
      <use x="431.103516" xlink:href="#DejaVuSans-75"/>
      <use x="494.482422" xlink:href="#DejaVuSans-5f"/>
      <use x="544.482422" xlink:href="#DejaVuSans-61"/>
      <use x="605.761719" xlink:href="#DejaVuSans-66"/>
      <use x="640.966797" xlink:href="#DejaVuSans-6c"/>
      <use x="668.75" xlink:href="#DejaVuSans-70"/>
      <use x="732.226562" xlink:href="#DejaVuSans-6c"/>
      <use x="760.009766" xlink:href="#DejaVuSans-75"/>
      <use x="823.388672" xlink:href="#DejaVuSans-73"/>
      <use x="875.488281" xlink:href="#DejaVuSans-70"/>
      <use x="938.964844" xlink:href="#DejaVuSans-6c"/>
      <use x="966.748047" xlink:href="#DejaVuSans-75"/>
      <use x="1030.126953" xlink:href="#DejaVuSans-73"/>
     </g>
    </g>
    <g id="line2d_25">
     <path d="M 771.568125 45.372813 
L 791.568125 45.372813 
" style="fill:none;stroke:#1f77b4;stroke-linecap:square;stroke-width:1.5;"/>
    </g>
    <g id="line2d_26">
     <defs>
      <path d="M 0 3 
C 0.795609 3 1.55874 2.683901 2.12132 2.12132 
C 2.683901 1.55874 3 0.795609 3 0 
C 3 -0.795609 2.683901 -1.55874 2.12132 -2.12132 
C 1.55874 -2.683901 0.795609 -3 0 -3 
C -0.795609 -3 -1.55874 -2.683901 -2.12132 -2.12132 
C -2.683901 -1.55874 -3 -0.795609 -3 0 
C -3 0.795609 -2.683901 1.55874 -2.12132 2.12132 
C -1.55874 2.683901 -0.795609 3 0 3 
z
" id="m341da2108e" style="stroke:#1f77b4;"/>
     </defs>
     <g>
      <use style="fill:#1f77b4;stroke:#1f77b4;" x="781.568125" xlink:href="#m341da2108e" y="45.372813"/>
     </g>
    </g>
    <g id="text_22">
     <!-- sydr_aflplusplus -->
     <g transform="translate(799.568125 48.872813)scale(0.1 -0.1)">
      <use xlink:href="#DejaVuSans-73"/>
      <use x="52.099609" xlink:href="#DejaVuSans-79"/>
      <use x="111.279297" xlink:href="#DejaVuSans-64"/>
      <use x="174.755859" xlink:href="#DejaVuSans-72"/>
      <use x="215.869141" xlink:href="#DejaVuSans-5f"/>
      <use x="265.869141" xlink:href="#DejaVuSans-61"/>
      <use x="327.148438" xlink:href="#DejaVuSans-66"/>
      <use x="362.353516" xlink:href="#DejaVuSans-6c"/>
      <use x="390.136719" xlink:href="#DejaVuSans-70"/>
      <use x="453.613281" xlink:href="#DejaVuSans-6c"/>
      <use x="481.396484" xlink:href="#DejaVuSans-75"/>
      <use x="544.775391" xlink:href="#DejaVuSans-73"/>
      <use x="596.875" xlink:href="#DejaVuSans-70"/>
      <use x="660.351562" xlink:href="#DejaVuSans-6c"/>
      <use x="688.134766" xlink:href="#DejaVuSans-75"/>
      <use x="751.513672" xlink:href="#DejaVuSans-73"/>
     </g>
    </g>
   </g>
  </g>
 </g>
 <defs>
  <clipPath id="p7589668b24">
   <rect height="266.112" width="714.24" x="53.328125" y="22.318125"/>
  </clipPath>
 </defs>
</svg>
