<?xml version="1.0" encoding="utf-8" standalone="no"?>
<!DOCTYPE svg PUBLIC "-//W3C//DTD SVG 1.1//EN"
  "http://www.w3.org/Graphics/SVG/1.1/DTD/svg11.dtd">
<svg height="325.986375pt" version="1.1" viewBox="0 0 927.180625 325.986375" width="927.180625pt" xmlns="http://www.w3.org/2000/svg" xmlns:xlink="http://www.w3.org/1999/xlink">
 <metadata>
  <rdf:RDF xmlns:cc="http://creativecommons.org/ns#" xmlns:dc="http://purl.org/dc/elements/1.1/" xmlns:rdf="http://www.w3.org/1999/02/22-rdf-syntax-ns#">
   <cc:Work>
    <dc:type rdf:resource="http://purl.org/dc/dcmitype/StillImage"/>
    <dc:date>2022-08-18T12:10:52.042171</dc:date>
    <dc:format>image/svg+xml</dc:format>
    <dc:creator>
     <cc:Agent>
      <dc:title>Matplotlib v3.4.1, https://matplotlib.org/</dc:title>
     </cc:Agent>
    </dc:creator>
   </cc:Work>
  </rdf:RDF>
 </metadata>
 <defs>
  <style type="text/css">*{stroke-linecap:butt;stroke-linejoin:round;}</style>
 </defs>
 <g id="figure_1">
  <g id="patch_1">
   <path d="M 0 325.986375 
L 927.180625 325.986375 
L 927.180625 0 
L 0 0 
z
" style="fill:#ffffff;"/>
  </g>
  <g id="axes_1">
   <g id="patch_2">
    <path d="M 59.690625 288.430125 
L 773.930625 288.430125 
L 773.930625 22.318125 
L 59.690625 22.318125 
z
" style="fill:#ffffff;"/>
   </g>
   <g id="PolyCollection_1">
    <defs>
     <path d="M 92.15608 -67.238293 
L 92.15608 -57.901703 
L 191.688987 -71.394994 
L 249.912006 -82.841909 
L 291.221895 -94.224875 
L 323.264335 -104.137008 
L 349.444914 -114.407257 
L 371.580278 -119.659888 
L 390.754803 -121.403305 
L 407.667933 -124.504843 
L 422.797242 -137.110838 
L 436.483368 -143.465795 
L 448.977822 -138.261125 
L 460.471605 -142.93022 
L 471.113186 -146.855105 
L 481.020261 -143.337896 
L 490.287711 -155.947888 
L 498.993142 -157.310807 
L 507.20084 -162.426746 
L 514.964657 -162.842417 
L 522.33015 -164.153376 
L 529.336205 -168.864837 
L 536.016276 -168.214153 
L 542.399355 -173.17022 
L 548.51073 -177.138271 
L 554.37259 -179.309348 
L 560.004513 -188.645938 
L 565.423859 -189.828999 
L 570.646094 -197.438959 
L 575.685054 -191.555628 
L 580.553169 -201.466962 
L 585.261644 -193.825827 
L 589.820619 -194.465319 
L 594.239294 -202.140827 
L 598.52605 -194.784266 
L 602.688533 -195.072837 
L 606.733748 -203.642036 
L 610.668121 -197.566857 
L 614.497565 -201.883432 
L 618.227531 -204.281528 
L 621.863058 -202.043305 
L 625.408809 -202.682797 
L 628.869113 -205.304716 
L 632.247989 -203.130442 
L 635.549184 -203.642036 
L 638.776188 -208.630077 
L 641.932263 -208.694026 
L 645.02046 -212.850727 
L 648.043637 -204.025731 
L 651.004477 -204.057706 
L 653.905497 -204.227171 
L 656.749068 -217.007428 
L 659.537421 -206.64765 
L 662.272658 -217.646921 
L 664.956767 -217.646921 
L 667.591623 -207.54294 
L 670.179002 -207.574915 
L 672.720584 -210.292758 
L 675.217962 -211.124098 
L 677.672648 -211.635692 
L 680.086077 -212.24321 
L 682.459612 -218.511834 
L 684.794552 -211.315945 
L 687.092131 -218.734058 
L 689.353527 -218.734058 
L 691.57986 -213.106524 
L 693.772202 -218.734058 
L 695.931576 -218.925906 
L 698.058957 -213.170474 
L 700.155281 -213.458245 
L 702.221441 -213.49022 
L 704.258293 -220.844383 
L 706.266656 -215.536596 
L 708.247317 -221.164129 
L 710.201029 -221.300821 
L 712.128516 -216.943479 
L 714.030473 -221.684516 
L 715.907567 -217.231251 
L 717.760439 -217.231251 
L 719.589708 -223.849998 
L 721.395966 -217.71087 
L 723.179786 -217.742845 
L 724.941717 -217.742845 
L 726.682292 -224.041846 
L 728.40202 -217.966667 
L 730.101397 -215.952266 
L 731.780897 -224.393566 
L 733.440981 -226.407968 
L 735.082091 -226.727714 
L 736.704658 -226.791663 
L 738.309095 -226.911568 
L 739.895804 -226.791663 
L 741.46517 -227.239308 
L 741.46517 -291.540275 
L 741.46517 -291.540275 
L 739.895804 -291.060656 
L 738.309095 -290.996707 
L 736.704658 -291.57225 
L 735.082091 -290.373202 
L 733.440981 -290.357214 
L 731.780897 -290.357214 
L 730.101397 -290.293265 
L 728.40202 -290.165367 
L 726.682292 -290.624202 
L 724.941717 -289.90957 
L 723.179786 -290.037468 
L 721.395966 -289.84562 
L 719.589708 -289.84562 
L 717.760439 -289.484307 
L 715.907567 -289.461925 
L 714.030473 -288.822432 
L 712.128516 -288.630585 
L 710.201029 -289.078229 
L 708.247317 -288.662559 
L 706.266656 -288.662559 
L 704.258293 -288.502686 
L 702.221441 -286.584209 
L 700.155281 -286.264463 
L 698.058957 -286.008666 
L 695.931576 -285.944716 
L 693.772202 -285.113376 
L 691.57986 -284.985478 
L 689.353527 -284.602581 
L 687.092131 -283.89834 
L 684.794552 -280.892726 
L 682.459612 -280.413106 
L 680.086077 -277.631314 
L 677.672648 -277.381113 
L 675.217962 -277.123717 
L 672.720584 -276.096532 
L 670.179002 -274.753598 
L 667.591623 -273.794359 
L 664.956767 -270.916643 
L 662.272658 -270.532948 
L 659.537421 -269.637658 
L 656.749068 -268.998166 
L 653.905497 -267.079689 
L 651.004477 -265.992551 
L 648.043637 -262.123622 
L 645.02046 -261.132409 
L 641.932263 -260.492916 
L 638.776188 -258.574439 
L 635.549184 -255.898163 
L 632.247989 -255.408951 
L 628.869113 -253.874169 
L 625.408809 -246.168285 
L 621.863058 -246.775803 
L 618.227531 -242.523178 
L 614.497565 -237.790934 
L 610.668121 -236.959593 
L 606.733748 -236.201795 
L 602.688533 -235.680608 
L 598.52605 -235.680608 
L 594.239294 -233.82608 
L 589.820619 -232.355248 
L 585.261644 -231.396009 
L 580.553169 -230.948364 
L 575.685054 -231.26811 
L 570.646094 -228.742115 
L 565.423859 -225.033059 
L 560.004513 -223.402353 
L 554.37259 -217.742845 
L 548.51073 -215.98424 
L 542.399355 -209.333519 
L 536.016276 -208.885874 
L 529.336205 -202.363051 
L 522.33015 -201.467761 
L 514.964657 -200.092853 
L 507.20084 -198.142401 
L 498.993142 -194.81704 
L 490.287711 -186.151917 
L 481.020261 -179.852916 
L 471.113186 -176.335708 
L 460.471605 -170.452377 
L 448.977822 -168.150204 
L 436.483368 -159.890359 
L 422.797242 -159.453106 
L 407.667933 -149.029379 
L 390.754803 -143.793535 
L 371.580278 -139.948586 
L 349.444914 -133.185154 
L 323.264335 -127.478483 
L 291.221895 -116.127492 
L 249.912006 -94.25685 
L 191.688987 -83.673249 
L 92.15608 -67.238293 
z
" id="m4b7037b004" style="stroke:#98df8a;stroke-opacity:0.2;"/>
    </defs>
    <g clip-path="url(#peca10b9bfd)">
     <use style="fill:#98df8a;fill-opacity:0.2;stroke:#98df8a;stroke-opacity:0.2;" x="0" xlink:href="#m4b7037b004" y="325.986375"/>
    </g>
   </g>
   <g id="PolyCollection_2">
    <defs>
     <path d="M 92.15608 -64.916136 
L 92.15608 -49.65225 
L 191.688987 -70.723527 
L 249.912006 -76.894629 
L 291.221895 -88.655695 
L 323.264335 -93.201687 
L 349.444914 -99.468713 
L 371.580278 -104.137008 
L 390.754803 -108.997151 
L 407.667933 -112.386461 
L 422.797242 -113.089903 
L 436.483368 -123.219463 
L 448.977822 -125.141938 
L 460.471605 -124.728666 
L 471.113186 -127.094788 
L 481.020261 -127.478483 
L 490.287711 -127.73428 
L 498.993142 -128.62957 
L 507.20084 -129.780656 
L 514.964657 -132.914169 
L 522.33015 -133.233915 
L 529.336205 -134.001306 
L 536.016276 -135.024494 
L 542.399355 -135.088443 
L 548.51073 -139.692789 
L 554.37259 -142.18681 
L 560.004513 -142.762353 
L 565.423859 -143.401846 
L 570.646094 -145.192424 
L 575.685054 -145.672044 
L 580.553169 -147.65447 
L 585.261644 -148.581735 
L 589.820619 -150.596136 
L 594.239294 -151.395501 
L 598.52605 -155.807999 
L 602.688533 -156.725671 
L 606.733748 -155.45468 
L 610.668121 -155.805601 
L 614.497565 -157.278832 
L 618.227531 -157.598578 
L 621.863058 -159.796834 
L 625.408809 -160.092599 
L 628.869113 -161.03585 
L 632.247989 -163.41796 
L 635.549184 -163.545858 
L 638.776188 -165.272488 
L 641.932263 -165.848031 
L 645.02046 -166.295676 
L 648.043637 -168.064672 
L 651.004477 -167.830458 
L 653.905497 -168.374026 
L 656.749068 -169.876834 
L 659.537421 -173.841687 
L 662.272658 -173.969585 
L 664.956767 -175.056723 
L 667.591623 -176.783352 
L 670.179002 -177.870489 
L 672.720584 -175.920037 
L 675.217962 -178.446033 
L 677.672648 -178.765779 
L 680.086077 -179.213424 
L 682.459612 -179.405271 
L 684.794552 -179.597119 
L 687.092131 -179.725018 
L 689.353527 -179.725018 
L 691.57986 -180.428459 
L 693.772202 -181.771394 
L 695.931576 -181.899292 
L 698.058957 -182.09114 
L 700.155281 -182.09114 
L 702.221441 -182.794581 
L 704.258293 -183.242226 
L 706.266656 -183.561972 
L 708.247317 -184.457262 
L 710.201029 -189.317405 
L 712.128516 -190.276643 
L 714.030473 -190.404542 
L 715.907567 -190.980085 
L 717.760439 -191.555628 
L 719.589708 -192.035248 
L 721.395966 -189.445303 
L 723.179786 -192.319022 
L 724.941717 -192.418943 
L 726.682292 -193.218309 
L 728.40202 -189.924922 
L 730.101397 -192.930537 
L 731.780897 -193.186334 
L 733.440981 -193.410156 
L 735.082091 -193.65716 
L 736.704658 -199.741132 
L 738.309095 -194.625192 
L 739.895804 -194.785065 
L 741.46517 -202.682797 
L 741.46517 -216.04819 
L 741.46517 -216.04819 
L 739.895804 -215.088951 
L 738.309095 -215.025002 
L 736.704658 -214.129712 
L 735.082091 -214.129712 
L 733.440981 -214.129712 
L 731.780897 -214.129712 
L 730.101397 -214.129712 
L 728.40202 -214.129712 
L 726.682292 -214.129712 
L 724.941717 -214.111327 
L 723.179786 -213.809966 
L 721.395966 -213.298372 
L 719.589708 -212.49421 
L 717.760439 -212.403083 
L 715.907567 -212.147286 
L 714.030473 -212.311156 
L 712.128516 -211.261589 
L 710.201029 -209.717214 
L 708.247317 -203.32229 
L 706.266656 -205.912234 
L 704.258293 -208.885874 
L 702.221441 -206.679625 
L 700.155281 -205.976183 
L 698.058957 -205.112869 
L 695.931576 -202.427 
L 693.772202 -202.171203 
L 691.57986 -202.299102 
L 689.353527 -201.979355 
L 687.092131 -201.531711 
L 684.794552 -200.508523 
L 682.459612 -199.357436 
L 680.086077 -198.909792 
L 677.672648 -198.781893 
L 675.217962 -197.694756 
L 672.720584 -196.799466 
L 670.179002 -196.287873 
L 667.591623 -194.369395 
L 664.956767 -195.584431 
L 662.272658 -195.077633 
L 659.537421 -192.514867 
L 656.749068 -190.372567 
L 653.905497 -189.637151 
L 651.004477 -187.912919 
L 648.043637 -186.759435 
L 645.02046 -186.407714 
L 641.932263 -185.512424 
L 638.776188 -184.872932 
L 635.549184 -183.37572 
L 632.247989 -183.242226 
L 628.869113 -180.684256 
L 625.408809 -181.139095 
L 621.863058 -180.290968 
L 618.227531 -180.236612 
L 614.497565 -178.957627 
L 610.668121 -180.624304 
L 606.733748 -177.870489 
L 602.688533 -176.911251 
L 598.52605 -176.175834 
L 594.239294 -174.736976 
L 589.820619 -173.266144 
L 585.261644 -172.242956 
L 580.553169 -168.853646 
L 575.685054 -165.784082 
L 570.646094 -159.989481 
L 565.423859 -156.433903 
L 560.004513 -152.898309 
L 554.37259 -151.139704 
L 548.51073 -150.44026 
L 542.399355 -149.349125 
L 536.016276 -148.581735 
L 529.336205 -147.142876 
L 522.33015 -145.831917 
L 514.964657 -145.128475 
L 507.20084 -144.68083 
L 498.993142 -142.506556 
L 490.287711 -140.843876 
L 481.020261 -140.204383 
L 471.113186 -139.436992 
L 460.471605 -138.285906 
L 448.977822 -137.390616 
L 436.483368 -135.161985 
L 422.797242 -129.46091 
L 407.667933 -122.074772 
L 390.754803 -118.909284 
L 371.580278 -115.647873 
L 349.444914 -110.851679 
L 323.264335 -105.543892 
L 291.221895 -102.346429 
L 249.912006 -93.457484 
L 191.688987 -81.172034 
L 92.15608 -64.916136 
z
" id="mf79a40cd8b" style="stroke:#1f77b4;stroke-opacity:0.2;"/>
    </defs>
    <g clip-path="url(#peca10b9bfd)">
     <use style="fill:#1f77b4;fill-opacity:0.2;stroke:#1f77b4;stroke-opacity:0.2;" x="0" xlink:href="#mf79a40cd8b" y="325.986375"/>
    </g>
   </g>
   <g id="matplotlib.axis_1">
    <g id="xtick_1">
     <g id="line2d_1">
      <defs>
       <path d="M 0 0 
L 0 3.5 
" id="mc61f4dda51" style="stroke:#000000;stroke-width:0.8;"/>
      </defs>
      <g>
       <use style="stroke:#000000;stroke-width:0.8;" x="92.15608" xlink:href="#mc61f4dda51" y="288.430125"/>
      </g>
     </g>
     <g id="text_1">
      <!-- 14m -->
      <g transform="translate(80.923267 303.028562)scale(0.1 -0.1)">
       <defs>
        <path d="M 794 531 
L 1825 531 
L 1825 4091 
L 703 3866 
L 703 4441 
L 1819 4666 
L 2450 4666 
L 2450 531 
L 3481 531 
L 3481 0 
L 794 0 
L 794 531 
z
" id="DejaVuSans-31" transform="scale(0.015625)"/>
        <path d="M 2419 4116 
L 825 1625 
L 2419 1625 
L 2419 4116 
z
M 2253 4666 
L 3047 4666 
L 3047 1625 
L 3713 1625 
L 3713 1100 
L 3047 1100 
L 3047 0 
L 2419 0 
L 2419 1100 
L 313 1100 
L 313 1709 
L 2253 4666 
z
" id="DejaVuSans-34" transform="scale(0.015625)"/>
        <path d="M 3328 2828 
Q 3544 3216 3844 3400 
Q 4144 3584 4550 3584 
Q 5097 3584 5394 3201 
Q 5691 2819 5691 2113 
L 5691 0 
L 5113 0 
L 5113 2094 
Q 5113 2597 4934 2840 
Q 4756 3084 4391 3084 
Q 3944 3084 3684 2787 
Q 3425 2491 3425 1978 
L 3425 0 
L 2847 0 
L 2847 2094 
Q 2847 2600 2669 2842 
Q 2491 3084 2119 3084 
Q 1678 3084 1418 2786 
Q 1159 2488 1159 1978 
L 1159 0 
L 581 0 
L 581 3500 
L 1159 3500 
L 1159 2956 
Q 1356 3278 1631 3431 
Q 1906 3584 2284 3584 
Q 2666 3584 2933 3390 
Q 3200 3197 3328 2828 
z
" id="DejaVuSans-6d" transform="scale(0.015625)"/>
       </defs>
       <use xlink:href="#DejaVuSans-31"/>
       <use x="63.623047" xlink:href="#DejaVuSans-34"/>
       <use x="127.246094" xlink:href="#DejaVuSans-6d"/>
      </g>
     </g>
    </g>
    <g id="xtick_2">
     <g id="line2d_2">
      <g>
       <use style="stroke:#000000;stroke-width:0.8;" x="151.184336" xlink:href="#mc61f4dda51" y="288.430125"/>
      </g>
     </g>
     <g id="text_2">
      <!-- 22m -->
      <g transform="translate(139.951524 303.028562)scale(0.1 -0.1)">
       <defs>
        <path d="M 1228 531 
L 3431 531 
L 3431 0 
L 469 0 
L 469 531 
Q 828 903 1448 1529 
Q 2069 2156 2228 2338 
Q 2531 2678 2651 2914 
Q 2772 3150 2772 3378 
Q 2772 3750 2511 3984 
Q 2250 4219 1831 4219 
Q 1534 4219 1204 4116 
Q 875 4013 500 3803 
L 500 4441 
Q 881 4594 1212 4672 
Q 1544 4750 1819 4750 
Q 2544 4750 2975 4387 
Q 3406 4025 3406 3419 
Q 3406 3131 3298 2873 
Q 3191 2616 2906 2266 
Q 2828 2175 2409 1742 
Q 1991 1309 1228 531 
z
" id="DejaVuSans-32" transform="scale(0.015625)"/>
       </defs>
       <use xlink:href="#DejaVuSans-32"/>
       <use x="63.623047" xlink:href="#DejaVuSans-32"/>
       <use x="127.246094" xlink:href="#DejaVuSans-6d"/>
      </g>
     </g>
    </g>
    <g id="xtick_3">
     <g id="line2d_3">
      <g>
       <use style="stroke:#000000;stroke-width:0.8;" x="210.212593" xlink:href="#mc61f4dda51" y="288.430125"/>
      </g>
     </g>
     <g id="text_3">
      <!-- 34m -->
      <g transform="translate(198.979781 303.028562)scale(0.1 -0.1)">
       <defs>
        <path d="M 2597 2516 
Q 3050 2419 3304 2112 
Q 3559 1806 3559 1356 
Q 3559 666 3084 287 
Q 2609 -91 1734 -91 
Q 1441 -91 1130 -33 
Q 819 25 488 141 
L 488 750 
Q 750 597 1062 519 
Q 1375 441 1716 441 
Q 2309 441 2620 675 
Q 2931 909 2931 1356 
Q 2931 1769 2642 2001 
Q 2353 2234 1838 2234 
L 1294 2234 
L 1294 2753 
L 1863 2753 
Q 2328 2753 2575 2939 
Q 2822 3125 2822 3475 
Q 2822 3834 2567 4026 
Q 2313 4219 1838 4219 
Q 1578 4219 1281 4162 
Q 984 4106 628 3988 
L 628 4550 
Q 988 4650 1302 4700 
Q 1616 4750 1894 4750 
Q 2613 4750 3031 4423 
Q 3450 4097 3450 3541 
Q 3450 3153 3228 2886 
Q 3006 2619 2597 2516 
z
" id="DejaVuSans-33" transform="scale(0.015625)"/>
       </defs>
       <use xlink:href="#DejaVuSans-33"/>
       <use x="63.623047" xlink:href="#DejaVuSans-34"/>
       <use x="127.246094" xlink:href="#DejaVuSans-6d"/>
      </g>
     </g>
    </g>
    <g id="xtick_4">
     <g id="line2d_4">
      <g>
       <use style="stroke:#000000;stroke-width:0.8;" x="269.24085" xlink:href="#mc61f4dda51" y="288.430125"/>
      </g>
     </g>
     <g id="text_4">
      <!-- 51m -->
      <g transform="translate(258.008038 303.028562)scale(0.1 -0.1)">
       <defs>
        <path d="M 691 4666 
L 3169 4666 
L 3169 4134 
L 1269 4134 
L 1269 2991 
Q 1406 3038 1543 3061 
Q 1681 3084 1819 3084 
Q 2600 3084 3056 2656 
Q 3513 2228 3513 1497 
Q 3513 744 3044 326 
Q 2575 -91 1722 -91 
Q 1428 -91 1123 -41 
Q 819 9 494 109 
L 494 744 
Q 775 591 1075 516 
Q 1375 441 1709 441 
Q 2250 441 2565 725 
Q 2881 1009 2881 1497 
Q 2881 1984 2565 2268 
Q 2250 2553 1709 2553 
Q 1456 2553 1204 2497 
Q 953 2441 691 2322 
L 691 4666 
z
" id="DejaVuSans-35" transform="scale(0.015625)"/>
       </defs>
       <use xlink:href="#DejaVuSans-35"/>
       <use x="63.623047" xlink:href="#DejaVuSans-31"/>
       <use x="127.246094" xlink:href="#DejaVuSans-6d"/>
      </g>
     </g>
    </g>
    <g id="xtick_5">
     <g id="line2d_5">
      <g>
       <use style="stroke:#000000;stroke-width:0.8;" x="328.269107" xlink:href="#mc61f4dda51" y="288.430125"/>
      </g>
     </g>
     <g id="text_5">
      <!-- 1h:17m -->
      <g transform="translate(309.001919 303.028562)scale(0.1 -0.1)">
       <defs>
        <path d="M 3513 2113 
L 3513 0 
L 2938 0 
L 2938 2094 
Q 2938 2591 2744 2837 
Q 2550 3084 2163 3084 
Q 1697 3084 1428 2787 
Q 1159 2491 1159 1978 
L 1159 0 
L 581 0 
L 581 4863 
L 1159 4863 
L 1159 2956 
Q 1366 3272 1645 3428 
Q 1925 3584 2291 3584 
Q 2894 3584 3203 3211 
Q 3513 2838 3513 2113 
z
" id="DejaVuSans-68" transform="scale(0.015625)"/>
        <path d="M 750 794 
L 1409 794 
L 1409 0 
L 750 0 
L 750 794 
z
M 750 3309 
L 1409 3309 
L 1409 2516 
L 750 2516 
L 750 3309 
z
" id="DejaVuSans-3a" transform="scale(0.015625)"/>
        <path d="M 525 4666 
L 3525 4666 
L 3525 4397 
L 1831 0 
L 1172 0 
L 2766 4134 
L 525 4134 
L 525 4666 
z
" id="DejaVuSans-37" transform="scale(0.015625)"/>
       </defs>
       <use xlink:href="#DejaVuSans-31"/>
       <use x="63.623047" xlink:href="#DejaVuSans-68"/>
       <use x="127.001953" xlink:href="#DejaVuSans-3a"/>
       <use x="160.693359" xlink:href="#DejaVuSans-31"/>
       <use x="224.316406" xlink:href="#DejaVuSans-37"/>
       <use x="287.939453" xlink:href="#DejaVuSans-6d"/>
      </g>
     </g>
    </g>
    <g id="xtick_6">
     <g id="line2d_6">
      <g>
       <use style="stroke:#000000;stroke-width:0.8;" x="387.297364" xlink:href="#mc61f4dda51" y="288.430125"/>
      </g>
     </g>
     <g id="text_6">
      <!-- 1h:57m -->
      <g transform="translate(368.030176 303.028562)scale(0.1 -0.1)">
       <use xlink:href="#DejaVuSans-31"/>
       <use x="63.623047" xlink:href="#DejaVuSans-68"/>
       <use x="127.001953" xlink:href="#DejaVuSans-3a"/>
       <use x="160.693359" xlink:href="#DejaVuSans-35"/>
       <use x="224.316406" xlink:href="#DejaVuSans-37"/>
       <use x="287.939453" xlink:href="#DejaVuSans-6d"/>
      </g>
     </g>
    </g>
    <g id="xtick_7">
     <g id="line2d_7">
      <g>
       <use style="stroke:#000000;stroke-width:0.8;" x="446.325621" xlink:href="#mc61f4dda51" y="288.430125"/>
      </g>
     </g>
     <g id="text_7">
      <!-- 2h:56m -->
      <g transform="translate(427.058433 303.028562)scale(0.1 -0.1)">
       <defs>
        <path d="M 2113 2584 
Q 1688 2584 1439 2293 
Q 1191 2003 1191 1497 
Q 1191 994 1439 701 
Q 1688 409 2113 409 
Q 2538 409 2786 701 
Q 3034 994 3034 1497 
Q 3034 2003 2786 2293 
Q 2538 2584 2113 2584 
z
M 3366 4563 
L 3366 3988 
Q 3128 4100 2886 4159 
Q 2644 4219 2406 4219 
Q 1781 4219 1451 3797 
Q 1122 3375 1075 2522 
Q 1259 2794 1537 2939 
Q 1816 3084 2150 3084 
Q 2853 3084 3261 2657 
Q 3669 2231 3669 1497 
Q 3669 778 3244 343 
Q 2819 -91 2113 -91 
Q 1303 -91 875 529 
Q 447 1150 447 2328 
Q 447 3434 972 4092 
Q 1497 4750 2381 4750 
Q 2619 4750 2861 4703 
Q 3103 4656 3366 4563 
z
" id="DejaVuSans-36" transform="scale(0.015625)"/>
       </defs>
       <use xlink:href="#DejaVuSans-32"/>
       <use x="63.623047" xlink:href="#DejaVuSans-68"/>
       <use x="127.001953" xlink:href="#DejaVuSans-3a"/>
       <use x="160.693359" xlink:href="#DejaVuSans-35"/>
       <use x="224.316406" xlink:href="#DejaVuSans-36"/>
       <use x="287.939453" xlink:href="#DejaVuSans-6d"/>
      </g>
     </g>
    </g>
    <g id="xtick_8">
     <g id="line2d_8">
      <g>
       <use style="stroke:#000000;stroke-width:0.8;" x="505.353877" xlink:href="#mc61f4dda51" y="288.430125"/>
      </g>
     </g>
     <g id="text_8">
      <!-- 4h:26m -->
      <g transform="translate(486.08669 303.028562)scale(0.1 -0.1)">
       <use xlink:href="#DejaVuSans-34"/>
       <use x="63.623047" xlink:href="#DejaVuSans-68"/>
       <use x="127.001953" xlink:href="#DejaVuSans-3a"/>
       <use x="160.693359" xlink:href="#DejaVuSans-32"/>
       <use x="224.316406" xlink:href="#DejaVuSans-36"/>
       <use x="287.939453" xlink:href="#DejaVuSans-6d"/>
      </g>
     </g>
    </g>
    <g id="xtick_9">
     <g id="line2d_9">
      <g>
       <use style="stroke:#000000;stroke-width:0.8;" x="564.382134" xlink:href="#mc61f4dda51" y="288.430125"/>
      </g>
     </g>
     <g id="text_9">
      <!-- 6h:42m -->
      <g transform="translate(545.114947 303.028562)scale(0.1 -0.1)">
       <use xlink:href="#DejaVuSans-36"/>
       <use x="63.623047" xlink:href="#DejaVuSans-68"/>
       <use x="127.001953" xlink:href="#DejaVuSans-3a"/>
       <use x="160.693359" xlink:href="#DejaVuSans-34"/>
       <use x="224.316406" xlink:href="#DejaVuSans-32"/>
       <use x="287.939453" xlink:href="#DejaVuSans-6d"/>
      </g>
     </g>
    </g>
    <g id="xtick_10">
     <g id="line2d_10">
      <g>
       <use style="stroke:#000000;stroke-width:0.8;" x="623.410391" xlink:href="#mc61f4dda51" y="288.430125"/>
      </g>
     </g>
     <g id="text_10">
      <!-- 10h:6m -->
      <g transform="translate(604.143204 303.028562)scale(0.1 -0.1)">
       <defs>
        <path d="M 2034 4250 
Q 1547 4250 1301 3770 
Q 1056 3291 1056 2328 
Q 1056 1369 1301 889 
Q 1547 409 2034 409 
Q 2525 409 2770 889 
Q 3016 1369 3016 2328 
Q 3016 3291 2770 3770 
Q 2525 4250 2034 4250 
z
M 2034 4750 
Q 2819 4750 3233 4129 
Q 3647 3509 3647 2328 
Q 3647 1150 3233 529 
Q 2819 -91 2034 -91 
Q 1250 -91 836 529 
Q 422 1150 422 2328 
Q 422 3509 836 4129 
Q 1250 4750 2034 4750 
z
" id="DejaVuSans-30" transform="scale(0.015625)"/>
       </defs>
       <use xlink:href="#DejaVuSans-31"/>
       <use x="63.623047" xlink:href="#DejaVuSans-30"/>
       <use x="127.246094" xlink:href="#DejaVuSans-68"/>
       <use x="190.625" xlink:href="#DejaVuSans-3a"/>
       <use x="224.316406" xlink:href="#DejaVuSans-36"/>
       <use x="287.939453" xlink:href="#DejaVuSans-6d"/>
      </g>
     </g>
    </g>
    <g id="xtick_11">
     <g id="line2d_11">
      <g>
       <use style="stroke:#000000;stroke-width:0.8;" x="682.438648" xlink:href="#mc61f4dda51" y="288.430125"/>
      </g>
     </g>
     <g id="text_11">
      <!-- 15h:14m -->
      <g transform="translate(659.99021 303.028562)scale(0.1 -0.1)">
       <use xlink:href="#DejaVuSans-31"/>
       <use x="63.623047" xlink:href="#DejaVuSans-35"/>
       <use x="127.246094" xlink:href="#DejaVuSans-68"/>
       <use x="190.625" xlink:href="#DejaVuSans-3a"/>
       <use x="224.316406" xlink:href="#DejaVuSans-31"/>
       <use x="287.939453" xlink:href="#DejaVuSans-34"/>
       <use x="351.5625" xlink:href="#DejaVuSans-6d"/>
      </g>
     </g>
    </g>
    <g id="xtick_12">
     <g id="line2d_12">
      <g>
       <use style="stroke:#000000;stroke-width:0.8;" x="741.466905" xlink:href="#mc61f4dda51" y="288.430125"/>
      </g>
     </g>
     <g id="text_12">
      <!-- 23h -->
      <g transform="translate(731.935655 303.028562)scale(0.1 -0.1)">
       <use xlink:href="#DejaVuSans-32"/>
       <use x="63.623047" xlink:href="#DejaVuSans-33"/>
       <use x="127.246094" xlink:href="#DejaVuSans-68"/>
      </g>
     </g>
    </g>
    <g id="xtick_13">
     <g id="line2d_13">
      <defs>
       <path d="M 0 0 
L 0 2 
" id="m039b31fa23" style="stroke:#000000;stroke-width:0.6;"/>
      </defs>
      <g>
       <use style="stroke:#000000;stroke-width:0.6;" x="75.24295" xlink:href="#m039b31fa23" y="288.430125"/>
      </g>
     </g>
    </g>
    <g id="xtick_14">
     <g id="line2d_14">
      <g>
       <use style="stroke:#000000;stroke-width:0.6;" x="206.818297" xlink:href="#m039b31fa23" y="288.430125"/>
      </g>
     </g>
    </g>
    <g id="xtick_15">
     <g id="line2d_15">
      <g>
       <use style="stroke:#000000;stroke-width:0.6;" x="265.041316" xlink:href="#m039b31fa23" y="288.430125"/>
      </g>
     </g>
    </g>
    <g id="xtick_16">
     <g id="line2d_16">
      <g>
       <use style="stroke:#000000;stroke-width:0.6;" x="306.351205" xlink:href="#m039b31fa23" y="288.430125"/>
      </g>
     </g>
    </g>
    <g id="xtick_17">
     <g id="line2d_17">
      <g>
       <use style="stroke:#000000;stroke-width:0.6;" x="338.393644" xlink:href="#m039b31fa23" y="288.430125"/>
      </g>
     </g>
    </g>
    <g id="xtick_18">
     <g id="line2d_18">
      <g>
       <use style="stroke:#000000;stroke-width:0.6;" x="364.574224" xlink:href="#m039b31fa23" y="288.430125"/>
      </g>
     </g>
    </g>
    <g id="xtick_19">
     <g id="line2d_19">
      <g>
       <use style="stroke:#000000;stroke-width:0.6;" x="386.709588" xlink:href="#m039b31fa23" y="288.430125"/>
      </g>
     </g>
    </g>
    <g id="xtick_20">
     <g id="line2d_20">
      <g>
       <use style="stroke:#000000;stroke-width:0.6;" x="405.884113" xlink:href="#m039b31fa23" y="288.430125"/>
      </g>
     </g>
    </g>
    <g id="xtick_21">
     <g id="line2d_21">
      <g>
       <use style="stroke:#000000;stroke-width:0.6;" x="422.797242" xlink:href="#m039b31fa23" y="288.430125"/>
      </g>
     </g>
    </g>
    <g id="xtick_22">
     <g id="line2d_22">
      <g>
       <use style="stroke:#000000;stroke-width:0.6;" x="537.45946" xlink:href="#m039b31fa23" y="288.430125"/>
      </g>
     </g>
    </g>
    <g id="xtick_23">
     <g id="line2d_23">
      <g>
       <use style="stroke:#000000;stroke-width:0.6;" x="595.682479" xlink:href="#m039b31fa23" y="288.430125"/>
      </g>
     </g>
    </g>
    <g id="xtick_24">
     <g id="line2d_24">
      <g>
       <use style="stroke:#000000;stroke-width:0.6;" x="636.992368" xlink:href="#m039b31fa23" y="288.430125"/>
      </g>
     </g>
    </g>
    <g id="xtick_25">
     <g id="line2d_25">
      <g>
       <use style="stroke:#000000;stroke-width:0.6;" x="669.034807" xlink:href="#m039b31fa23" y="288.430125"/>
      </g>
     </g>
    </g>
    <g id="xtick_26">
     <g id="line2d_26">
      <g>
       <use style="stroke:#000000;stroke-width:0.6;" x="695.215387" xlink:href="#m039b31fa23" y="288.430125"/>
      </g>
     </g>
    </g>
    <g id="xtick_27">
     <g id="line2d_27">
      <g>
       <use style="stroke:#000000;stroke-width:0.6;" x="717.350751" xlink:href="#m039b31fa23" y="288.430125"/>
      </g>
     </g>
    </g>
    <g id="xtick_28">
     <g id="line2d_28">
      <g>
       <use style="stroke:#000000;stroke-width:0.6;" x="736.525276" xlink:href="#m039b31fa23" y="288.430125"/>
      </g>
     </g>
    </g>
    <g id="xtick_29">
     <g id="line2d_29">
      <g>
       <use style="stroke:#000000;stroke-width:0.6;" x="753.438405" xlink:href="#m039b31fa23" y="288.430125"/>
      </g>
     </g>
    </g>
    <g id="text_13">
     <!-- Time (hour:minute) -->
     <g transform="translate(368.403594 316.706687)scale(0.1 -0.1)">
      <defs>
       <path d="M -19 4666 
L 3928 4666 
L 3928 4134 
L 2272 4134 
L 2272 0 
L 1638 0 
L 1638 4134 
L -19 4134 
L -19 4666 
z
" id="DejaVuSans-54" transform="scale(0.015625)"/>
       <path d="M 603 3500 
L 1178 3500 
L 1178 0 
L 603 0 
L 603 3500 
z
M 603 4863 
L 1178 4863 
L 1178 4134 
L 603 4134 
L 603 4863 
z
" id="DejaVuSans-69" transform="scale(0.015625)"/>
       <path d="M 3597 1894 
L 3597 1613 
L 953 1613 
Q 991 1019 1311 708 
Q 1631 397 2203 397 
Q 2534 397 2845 478 
Q 3156 559 3463 722 
L 3463 178 
Q 3153 47 2828 -22 
Q 2503 -91 2169 -91 
Q 1331 -91 842 396 
Q 353 884 353 1716 
Q 353 2575 817 3079 
Q 1281 3584 2069 3584 
Q 2775 3584 3186 3129 
Q 3597 2675 3597 1894 
z
M 3022 2063 
Q 3016 2534 2758 2815 
Q 2500 3097 2075 3097 
Q 1594 3097 1305 2825 
Q 1016 2553 972 2059 
L 3022 2063 
z
" id="DejaVuSans-65" transform="scale(0.015625)"/>
       <path id="DejaVuSans-20" transform="scale(0.015625)"/>
       <path d="M 1984 4856 
Q 1566 4138 1362 3434 
Q 1159 2731 1159 2009 
Q 1159 1288 1364 580 
Q 1569 -128 1984 -844 
L 1484 -844 
Q 1016 -109 783 600 
Q 550 1309 550 2009 
Q 550 2706 781 3412 
Q 1013 4119 1484 4856 
L 1984 4856 
z
" id="DejaVuSans-28" transform="scale(0.015625)"/>
       <path d="M 1959 3097 
Q 1497 3097 1228 2736 
Q 959 2375 959 1747 
Q 959 1119 1226 758 
Q 1494 397 1959 397 
Q 2419 397 2687 759 
Q 2956 1122 2956 1747 
Q 2956 2369 2687 2733 
Q 2419 3097 1959 3097 
z
M 1959 3584 
Q 2709 3584 3137 3096 
Q 3566 2609 3566 1747 
Q 3566 888 3137 398 
Q 2709 -91 1959 -91 
Q 1206 -91 779 398 
Q 353 888 353 1747 
Q 353 2609 779 3096 
Q 1206 3584 1959 3584 
z
" id="DejaVuSans-6f" transform="scale(0.015625)"/>
       <path d="M 544 1381 
L 544 3500 
L 1119 3500 
L 1119 1403 
Q 1119 906 1312 657 
Q 1506 409 1894 409 
Q 2359 409 2629 706 
Q 2900 1003 2900 1516 
L 2900 3500 
L 3475 3500 
L 3475 0 
L 2900 0 
L 2900 538 
Q 2691 219 2414 64 
Q 2138 -91 1772 -91 
Q 1169 -91 856 284 
Q 544 659 544 1381 
z
M 1991 3584 
L 1991 3584 
z
" id="DejaVuSans-75" transform="scale(0.015625)"/>
       <path d="M 2631 2963 
Q 2534 3019 2420 3045 
Q 2306 3072 2169 3072 
Q 1681 3072 1420 2755 
Q 1159 2438 1159 1844 
L 1159 0 
L 581 0 
L 581 3500 
L 1159 3500 
L 1159 2956 
Q 1341 3275 1631 3429 
Q 1922 3584 2338 3584 
Q 2397 3584 2469 3576 
Q 2541 3569 2628 3553 
L 2631 2963 
z
" id="DejaVuSans-72" transform="scale(0.015625)"/>
       <path d="M 3513 2113 
L 3513 0 
L 2938 0 
L 2938 2094 
Q 2938 2591 2744 2837 
Q 2550 3084 2163 3084 
Q 1697 3084 1428 2787 
Q 1159 2491 1159 1978 
L 1159 0 
L 581 0 
L 581 3500 
L 1159 3500 
L 1159 2956 
Q 1366 3272 1645 3428 
Q 1925 3584 2291 3584 
Q 2894 3584 3203 3211 
Q 3513 2838 3513 2113 
z
" id="DejaVuSans-6e" transform="scale(0.015625)"/>
       <path d="M 1172 4494 
L 1172 3500 
L 2356 3500 
L 2356 3053 
L 1172 3053 
L 1172 1153 
Q 1172 725 1289 603 
Q 1406 481 1766 481 
L 2356 481 
L 2356 0 
L 1766 0 
Q 1100 0 847 248 
Q 594 497 594 1153 
L 594 3053 
L 172 3053 
L 172 3500 
L 594 3500 
L 594 4494 
L 1172 4494 
z
" id="DejaVuSans-74" transform="scale(0.015625)"/>
       <path d="M 513 4856 
L 1013 4856 
Q 1481 4119 1714 3412 
Q 1947 2706 1947 2009 
Q 1947 1309 1714 600 
Q 1481 -109 1013 -844 
L 513 -844 
Q 928 -128 1133 580 
Q 1338 1288 1338 2009 
Q 1338 2731 1133 3434 
Q 928 4138 513 4856 
z
" id="DejaVuSans-29" transform="scale(0.015625)"/>
      </defs>
      <use xlink:href="#DejaVuSans-54"/>
      <use x="57.958984" xlink:href="#DejaVuSans-69"/>
      <use x="85.742188" xlink:href="#DejaVuSans-6d"/>
      <use x="183.154297" xlink:href="#DejaVuSans-65"/>
      <use x="244.677734" xlink:href="#DejaVuSans-20"/>
      <use x="276.464844" xlink:href="#DejaVuSans-28"/>
      <use x="315.478516" xlink:href="#DejaVuSans-68"/>
      <use x="378.857422" xlink:href="#DejaVuSans-6f"/>
      <use x="440.039062" xlink:href="#DejaVuSans-75"/>
      <use x="503.417969" xlink:href="#DejaVuSans-72"/>
      <use x="542.78125" xlink:href="#DejaVuSans-3a"/>
      <use x="576.472656" xlink:href="#DejaVuSans-6d"/>
      <use x="673.884766" xlink:href="#DejaVuSans-69"/>
      <use x="701.667969" xlink:href="#DejaVuSans-6e"/>
      <use x="765.046875" xlink:href="#DejaVuSans-75"/>
      <use x="828.425781" xlink:href="#DejaVuSans-74"/>
      <use x="867.634766" xlink:href="#DejaVuSans-65"/>
      <use x="929.158203" xlink:href="#DejaVuSans-29"/>
     </g>
    </g>
   </g>
   <g id="matplotlib.axis_2">
    <g id="ytick_1">
     <g id="line2d_30">
      <defs>
       <path d="M 0 0 
L -3.5 0 
" id="m46c72b5d97" style="stroke:#000000;stroke-width:0.8;"/>
      </defs>
      <g>
       <use style="stroke:#000000;stroke-width:0.8;" x="59.690625" xlink:href="#m46c72b5d97" y="274.159851"/>
      </g>
     </g>
     <g id="text_14">
      <!-- 7000 -->
      <g transform="translate(27.240625 277.959069)scale(0.1 -0.1)">
       <use xlink:href="#DejaVuSans-37"/>
       <use x="63.623047" xlink:href="#DejaVuSans-30"/>
       <use x="127.246094" xlink:href="#DejaVuSans-30"/>
       <use x="190.869141" xlink:href="#DejaVuSans-30"/>
      </g>
     </g>
    </g>
    <g id="ytick_2">
     <g id="line2d_31">
      <g>
       <use style="stroke:#000000;stroke-width:0.8;" x="59.690625" xlink:href="#m46c72b5d97" y="242.185227"/>
      </g>
     </g>
     <g id="text_15">
      <!-- 7500 -->
      <g transform="translate(27.240625 245.984446)scale(0.1 -0.1)">
       <use xlink:href="#DejaVuSans-37"/>
       <use x="63.623047" xlink:href="#DejaVuSans-35"/>
       <use x="127.246094" xlink:href="#DejaVuSans-30"/>
       <use x="190.869141" xlink:href="#DejaVuSans-30"/>
      </g>
     </g>
    </g>
    <g id="ytick_3">
     <g id="line2d_32">
      <g>
       <use style="stroke:#000000;stroke-width:0.8;" x="59.690625" xlink:href="#m46c72b5d97" y="210.210604"/>
      </g>
     </g>
     <g id="text_16">
      <!-- 8000 -->
      <g transform="translate(27.240625 214.009823)scale(0.1 -0.1)">
       <defs>
        <path d="M 2034 2216 
Q 1584 2216 1326 1975 
Q 1069 1734 1069 1313 
Q 1069 891 1326 650 
Q 1584 409 2034 409 
Q 2484 409 2743 651 
Q 3003 894 3003 1313 
Q 3003 1734 2745 1975 
Q 2488 2216 2034 2216 
z
M 1403 2484 
Q 997 2584 770 2862 
Q 544 3141 544 3541 
Q 544 4100 942 4425 
Q 1341 4750 2034 4750 
Q 2731 4750 3128 4425 
Q 3525 4100 3525 3541 
Q 3525 3141 3298 2862 
Q 3072 2584 2669 2484 
Q 3125 2378 3379 2068 
Q 3634 1759 3634 1313 
Q 3634 634 3220 271 
Q 2806 -91 2034 -91 
Q 1263 -91 848 271 
Q 434 634 434 1313 
Q 434 1759 690 2068 
Q 947 2378 1403 2484 
z
M 1172 3481 
Q 1172 3119 1398 2916 
Q 1625 2713 2034 2713 
Q 2441 2713 2670 2916 
Q 2900 3119 2900 3481 
Q 2900 3844 2670 4047 
Q 2441 4250 2034 4250 
Q 1625 4250 1398 4047 
Q 1172 3844 1172 3481 
z
" id="DejaVuSans-38" transform="scale(0.015625)"/>
       </defs>
       <use xlink:href="#DejaVuSans-38"/>
       <use x="63.623047" xlink:href="#DejaVuSans-30"/>
       <use x="127.246094" xlink:href="#DejaVuSans-30"/>
       <use x="190.869141" xlink:href="#DejaVuSans-30"/>
      </g>
     </g>
    </g>
    <g id="ytick_4">
     <g id="line2d_33">
      <g>
       <use style="stroke:#000000;stroke-width:0.8;" x="59.690625" xlink:href="#m46c72b5d97" y="178.235981"/>
      </g>
     </g>
     <g id="text_17">
      <!-- 8500 -->
      <g transform="translate(27.240625 182.035199)scale(0.1 -0.1)">
       <use xlink:href="#DejaVuSans-38"/>
       <use x="63.623047" xlink:href="#DejaVuSans-35"/>
       <use x="127.246094" xlink:href="#DejaVuSans-30"/>
       <use x="190.869141" xlink:href="#DejaVuSans-30"/>
      </g>
     </g>
    </g>
    <g id="ytick_5">
     <g id="line2d_34">
      <g>
       <use style="stroke:#000000;stroke-width:0.8;" x="59.690625" xlink:href="#m46c72b5d97" y="146.261357"/>
      </g>
     </g>
     <g id="text_18">
      <!-- 9000 -->
      <g transform="translate(27.240625 150.060576)scale(0.1 -0.1)">
       <defs>
        <path d="M 703 97 
L 703 672 
Q 941 559 1184 500 
Q 1428 441 1663 441 
Q 2288 441 2617 861 
Q 2947 1281 2994 2138 
Q 2813 1869 2534 1725 
Q 2256 1581 1919 1581 
Q 1219 1581 811 2004 
Q 403 2428 403 3163 
Q 403 3881 828 4315 
Q 1253 4750 1959 4750 
Q 2769 4750 3195 4129 
Q 3622 3509 3622 2328 
Q 3622 1225 3098 567 
Q 2575 -91 1691 -91 
Q 1453 -91 1209 -44 
Q 966 3 703 97 
z
M 1959 2075 
Q 2384 2075 2632 2365 
Q 2881 2656 2881 3163 
Q 2881 3666 2632 3958 
Q 2384 4250 1959 4250 
Q 1534 4250 1286 3958 
Q 1038 3666 1038 3163 
Q 1038 2656 1286 2365 
Q 1534 2075 1959 2075 
z
" id="DejaVuSans-39" transform="scale(0.015625)"/>
       </defs>
       <use xlink:href="#DejaVuSans-39"/>
       <use x="63.623047" xlink:href="#DejaVuSans-30"/>
       <use x="127.246094" xlink:href="#DejaVuSans-30"/>
       <use x="190.869141" xlink:href="#DejaVuSans-30"/>
      </g>
     </g>
    </g>
    <g id="ytick_6">
     <g id="line2d_35">
      <g>
       <use style="stroke:#000000;stroke-width:0.8;" x="59.690625" xlink:href="#m46c72b5d97" y="114.286734"/>
      </g>
     </g>
     <g id="text_19">
      <!-- 9500 -->
      <g transform="translate(27.240625 118.085953)scale(0.1 -0.1)">
       <use xlink:href="#DejaVuSans-39"/>
       <use x="63.623047" xlink:href="#DejaVuSans-35"/>
       <use x="127.246094" xlink:href="#DejaVuSans-30"/>
       <use x="190.869141" xlink:href="#DejaVuSans-30"/>
      </g>
     </g>
    </g>
    <g id="ytick_7">
     <g id="line2d_36">
      <g>
       <use style="stroke:#000000;stroke-width:0.8;" x="59.690625" xlink:href="#m46c72b5d97" y="82.312111"/>
      </g>
     </g>
     <g id="text_20">
      <!-- 10000 -->
      <g transform="translate(20.878125 86.111329)scale(0.1 -0.1)">
       <use xlink:href="#DejaVuSans-31"/>
       <use x="63.623047" xlink:href="#DejaVuSans-30"/>
       <use x="127.246094" xlink:href="#DejaVuSans-30"/>
       <use x="190.869141" xlink:href="#DejaVuSans-30"/>
       <use x="254.492188" xlink:href="#DejaVuSans-30"/>
      </g>
     </g>
    </g>
    <g id="ytick_8">
     <g id="line2d_37">
      <g>
       <use style="stroke:#000000;stroke-width:0.8;" x="59.690625" xlink:href="#m46c72b5d97" y="50.337487"/>
      </g>
     </g>
     <g id="text_21">
      <!-- 10500 -->
      <g transform="translate(20.878125 54.136706)scale(0.1 -0.1)">
       <use xlink:href="#DejaVuSans-31"/>
       <use x="63.623047" xlink:href="#DejaVuSans-30"/>
       <use x="127.246094" xlink:href="#DejaVuSans-35"/>
       <use x="190.869141" xlink:href="#DejaVuSans-30"/>
       <use x="254.492188" xlink:href="#DejaVuSans-30"/>
      </g>
     </g>
    </g>
    <g id="text_22">
     <!-- Code branch coverage -->
     <g transform="translate(14.798438 211.949125)rotate(-90)scale(0.1 -0.1)">
      <defs>
       <path d="M 4122 4306 
L 4122 3641 
Q 3803 3938 3442 4084 
Q 3081 4231 2675 4231 
Q 1875 4231 1450 3742 
Q 1025 3253 1025 2328 
Q 1025 1406 1450 917 
Q 1875 428 2675 428 
Q 3081 428 3442 575 
Q 3803 722 4122 1019 
L 4122 359 
Q 3791 134 3420 21 
Q 3050 -91 2638 -91 
Q 1578 -91 968 557 
Q 359 1206 359 2328 
Q 359 3453 968 4101 
Q 1578 4750 2638 4750 
Q 3056 4750 3426 4639 
Q 3797 4528 4122 4306 
z
" id="DejaVuSans-43" transform="scale(0.015625)"/>
       <path d="M 2906 2969 
L 2906 4863 
L 3481 4863 
L 3481 0 
L 2906 0 
L 2906 525 
Q 2725 213 2448 61 
Q 2172 -91 1784 -91 
Q 1150 -91 751 415 
Q 353 922 353 1747 
Q 353 2572 751 3078 
Q 1150 3584 1784 3584 
Q 2172 3584 2448 3432 
Q 2725 3281 2906 2969 
z
M 947 1747 
Q 947 1113 1208 752 
Q 1469 391 1925 391 
Q 2381 391 2643 752 
Q 2906 1113 2906 1747 
Q 2906 2381 2643 2742 
Q 2381 3103 1925 3103 
Q 1469 3103 1208 2742 
Q 947 2381 947 1747 
z
" id="DejaVuSans-64" transform="scale(0.015625)"/>
       <path d="M 3116 1747 
Q 3116 2381 2855 2742 
Q 2594 3103 2138 3103 
Q 1681 3103 1420 2742 
Q 1159 2381 1159 1747 
Q 1159 1113 1420 752 
Q 1681 391 2138 391 
Q 2594 391 2855 752 
Q 3116 1113 3116 1747 
z
M 1159 2969 
Q 1341 3281 1617 3432 
Q 1894 3584 2278 3584 
Q 2916 3584 3314 3078 
Q 3713 2572 3713 1747 
Q 3713 922 3314 415 
Q 2916 -91 2278 -91 
Q 1894 -91 1617 61 
Q 1341 213 1159 525 
L 1159 0 
L 581 0 
L 581 4863 
L 1159 4863 
L 1159 2969 
z
" id="DejaVuSans-62" transform="scale(0.015625)"/>
       <path d="M 2194 1759 
Q 1497 1759 1228 1600 
Q 959 1441 959 1056 
Q 959 750 1161 570 
Q 1363 391 1709 391 
Q 2188 391 2477 730 
Q 2766 1069 2766 1631 
L 2766 1759 
L 2194 1759 
z
M 3341 1997 
L 3341 0 
L 2766 0 
L 2766 531 
Q 2569 213 2275 61 
Q 1981 -91 1556 -91 
Q 1019 -91 701 211 
Q 384 513 384 1019 
Q 384 1609 779 1909 
Q 1175 2209 1959 2209 
L 2766 2209 
L 2766 2266 
Q 2766 2663 2505 2880 
Q 2244 3097 1772 3097 
Q 1472 3097 1187 3025 
Q 903 2953 641 2809 
L 641 3341 
Q 956 3463 1253 3523 
Q 1550 3584 1831 3584 
Q 2591 3584 2966 3190 
Q 3341 2797 3341 1997 
z
" id="DejaVuSans-61" transform="scale(0.015625)"/>
       <path d="M 3122 3366 
L 3122 2828 
Q 2878 2963 2633 3030 
Q 2388 3097 2138 3097 
Q 1578 3097 1268 2742 
Q 959 2388 959 1747 
Q 959 1106 1268 751 
Q 1578 397 2138 397 
Q 2388 397 2633 464 
Q 2878 531 3122 666 
L 3122 134 
Q 2881 22 2623 -34 
Q 2366 -91 2075 -91 
Q 1284 -91 818 406 
Q 353 903 353 1747 
Q 353 2603 823 3093 
Q 1294 3584 2113 3584 
Q 2378 3584 2631 3529 
Q 2884 3475 3122 3366 
z
" id="DejaVuSans-63" transform="scale(0.015625)"/>
       <path d="M 191 3500 
L 800 3500 
L 1894 563 
L 2988 3500 
L 3597 3500 
L 2284 0 
L 1503 0 
L 191 3500 
z
" id="DejaVuSans-76" transform="scale(0.015625)"/>
       <path d="M 2906 1791 
Q 2906 2416 2648 2759 
Q 2391 3103 1925 3103 
Q 1463 3103 1205 2759 
Q 947 2416 947 1791 
Q 947 1169 1205 825 
Q 1463 481 1925 481 
Q 2391 481 2648 825 
Q 2906 1169 2906 1791 
z
M 3481 434 
Q 3481 -459 3084 -895 
Q 2688 -1331 1869 -1331 
Q 1566 -1331 1297 -1286 
Q 1028 -1241 775 -1147 
L 775 -588 
Q 1028 -725 1275 -790 
Q 1522 -856 1778 -856 
Q 2344 -856 2625 -561 
Q 2906 -266 2906 331 
L 2906 616 
Q 2728 306 2450 153 
Q 2172 0 1784 0 
Q 1141 0 747 490 
Q 353 981 353 1791 
Q 353 2603 747 3093 
Q 1141 3584 1784 3584 
Q 2172 3584 2450 3431 
Q 2728 3278 2906 2969 
L 2906 3500 
L 3481 3500 
L 3481 434 
z
" id="DejaVuSans-67" transform="scale(0.015625)"/>
      </defs>
      <use xlink:href="#DejaVuSans-43"/>
      <use x="69.824219" xlink:href="#DejaVuSans-6f"/>
      <use x="131.005859" xlink:href="#DejaVuSans-64"/>
      <use x="194.482422" xlink:href="#DejaVuSans-65"/>
      <use x="256.005859" xlink:href="#DejaVuSans-20"/>
      <use x="287.792969" xlink:href="#DejaVuSans-62"/>
      <use x="351.269531" xlink:href="#DejaVuSans-72"/>
      <use x="392.382812" xlink:href="#DejaVuSans-61"/>
      <use x="453.662109" xlink:href="#DejaVuSans-6e"/>
      <use x="517.041016" xlink:href="#DejaVuSans-63"/>
      <use x="572.021484" xlink:href="#DejaVuSans-68"/>
      <use x="635.400391" xlink:href="#DejaVuSans-20"/>
      <use x="667.1875" xlink:href="#DejaVuSans-63"/>
      <use x="722.167969" xlink:href="#DejaVuSans-6f"/>
      <use x="783.349609" xlink:href="#DejaVuSans-76"/>
      <use x="842.529297" xlink:href="#DejaVuSans-65"/>
      <use x="904.052734" xlink:href="#DejaVuSans-72"/>
      <use x="945.166016" xlink:href="#DejaVuSans-61"/>
      <use x="1006.445312" xlink:href="#DejaVuSans-67"/>
      <use x="1069.921875" xlink:href="#DejaVuSans-65"/>
     </g>
    </g>
   </g>
   <g id="line2d_38">
    <path clip-path="url(#peca10b9bfd)" d="M 92.15608 263.192555 
L 191.688987 244.96702 
L 249.912006 234.383419 
L 291.221895 225.110778 
L 323.264335 212.225005 
L 349.444914 203.527908 
L 371.580278 198.923562 
L 390.754803 192.240866 
L 407.667933 187.860342 
L 422.797242 180.761976 
L 436.483368 175.198391 
L 448.977822 169.698756 
L 460.471605 164.199121 
L 471.113186 160.969684 
L 481.020261 158.827384 
L 490.287711 149.810541 
L 498.993142 144.822499 
L 507.20084 139.898407 
L 514.964657 138.171778 
L 522.33015 136.413173 
L 529.336205 133.407559 
L 536.016276 126.564989 
L 542.399355 123.687273 
L 548.51073 122.728035 
L 554.37259 121.736821 
L 560.004513 120.681659 
L 565.423859 117.963816 
L 570.646094 115.597694 
L 575.685054 114.67043 
L 580.553169 111.121246 
L 585.261644 109.298693 
L 589.820619 108.531302 
L 594.239294 107.572063 
L 598.52605 107.380215 
L 602.688533 106.58085 
L 606.733748 105.429763 
L 610.668121 104.726322 
L 614.497565 100.058027 
L 618.227531 96.636742 
L 621.863058 94.974062 
L 625.408809 94.846163 
L 628.869113 94.302594 
L 632.247989 93.695077 
L 635.549184 93.663102 
L 638.776188 86.980406 
L 641.932263 86.244989 
L 645.02046 85.029954 
L 648.043637 82.727781 
L 651.004477 80.809303 
L 653.905497 80.329684 
L 656.749068 80.201786 
L 659.537421 80.201786 
L 662.272658 79.434395 
L 664.956767 78.98675 
L 667.591623 78.507131 
L 670.179002 72.048257 
L 672.720584 71.888384 
L 675.217962 71.760485 
L 677.672648 71.760485 
L 680.086077 71.664561 
L 682.459612 71.632587 
L 684.794552 71.568637 
L 687.092131 71.248891 
L 689.353527 70.545449 
L 691.57986 69.138566 
L 693.772202 68.786845 
L 695.931576 68.563023 
L 698.058957 67.699708 
L 700.155281 67.571809 
L 702.221441 67.411936 
L 704.258293 67.124165 
L 706.266656 66.67652 
L 708.247317 66.67652 
L 710.201029 66.644545 
L 712.128516 65.749256 
L 714.030473 65.621357 
L 715.907567 63.543007 
L 717.760439 63.415108 
L 719.589708 62.935489 
L 721.395966 61.080961 
L 723.179786 60.633316 
L 724.941717 60.505418 
L 726.682292 60.281595 
L 728.40202 58.58694 
L 730.101397 58.427067 
L 731.780897 58.427067 
L 733.440981 57.915473 
L 735.082091 57.787575 
L 736.704658 57.787575 
L 738.309095 57.148082 
L 739.895804 57.148082 
L 741.46517 57.148082 
" style="fill:none;stroke:#98df8a;stroke-linecap:square;stroke-width:1.5;"/>
    <defs>
     <path d="M -0 3 
L 3 -3 
L -3 -3 
z
" id="mf2df35243c" style="stroke:#ffffff;stroke-linejoin:miter;stroke-width:0.75;"/>
    </defs>
    <g clip-path="url(#peca10b9bfd)">
     <use style="fill:#98df8a;stroke:#ffffff;stroke-linejoin:miter;stroke-width:0.75;" x="92.15608" xlink:href="#mf2df35243c" y="263.192555"/>
     <use style="fill:#98df8a;stroke:#ffffff;stroke-linejoin:miter;stroke-width:0.75;" x="191.688987" xlink:href="#mf2df35243c" y="244.96702"/>
     <use style="fill:#98df8a;stroke:#ffffff;stroke-linejoin:miter;stroke-width:0.75;" x="249.912006" xlink:href="#mf2df35243c" y="234.383419"/>
     <use style="fill:#98df8a;stroke:#ffffff;stroke-linejoin:miter;stroke-width:0.75;" x="291.221895" xlink:href="#mf2df35243c" y="225.110778"/>
     <use style="fill:#98df8a;stroke:#ffffff;stroke-linejoin:miter;stroke-width:0.75;" x="323.264335" xlink:href="#mf2df35243c" y="212.225005"/>
     <use style="fill:#98df8a;stroke:#ffffff;stroke-linejoin:miter;stroke-width:0.75;" x="349.444914" xlink:href="#mf2df35243c" y="203.527908"/>
     <use style="fill:#98df8a;stroke:#ffffff;stroke-linejoin:miter;stroke-width:0.75;" x="371.580278" xlink:href="#mf2df35243c" y="198.923562"/>
     <use style="fill:#98df8a;stroke:#ffffff;stroke-linejoin:miter;stroke-width:0.75;" x="390.754803" xlink:href="#mf2df35243c" y="192.240866"/>
     <use style="fill:#98df8a;stroke:#ffffff;stroke-linejoin:miter;stroke-width:0.75;" x="407.667933" xlink:href="#mf2df35243c" y="187.860342"/>
     <use style="fill:#98df8a;stroke:#ffffff;stroke-linejoin:miter;stroke-width:0.75;" x="422.797242" xlink:href="#mf2df35243c" y="180.761976"/>
     <use style="fill:#98df8a;stroke:#ffffff;stroke-linejoin:miter;stroke-width:0.75;" x="436.483368" xlink:href="#mf2df35243c" y="175.198391"/>
     <use style="fill:#98df8a;stroke:#ffffff;stroke-linejoin:miter;stroke-width:0.75;" x="448.977822" xlink:href="#mf2df35243c" y="169.698756"/>
     <use style="fill:#98df8a;stroke:#ffffff;stroke-linejoin:miter;stroke-width:0.75;" x="460.471605" xlink:href="#mf2df35243c" y="164.199121"/>
     <use style="fill:#98df8a;stroke:#ffffff;stroke-linejoin:miter;stroke-width:0.75;" x="471.113186" xlink:href="#mf2df35243c" y="160.969684"/>
     <use style="fill:#98df8a;stroke:#ffffff;stroke-linejoin:miter;stroke-width:0.75;" x="481.020261" xlink:href="#mf2df35243c" y="158.827384"/>
     <use style="fill:#98df8a;stroke:#ffffff;stroke-linejoin:miter;stroke-width:0.75;" x="490.287711" xlink:href="#mf2df35243c" y="149.810541"/>
     <use style="fill:#98df8a;stroke:#ffffff;stroke-linejoin:miter;stroke-width:0.75;" x="498.993142" xlink:href="#mf2df35243c" y="144.822499"/>
     <use style="fill:#98df8a;stroke:#ffffff;stroke-linejoin:miter;stroke-width:0.75;" x="507.20084" xlink:href="#mf2df35243c" y="139.898407"/>
     <use style="fill:#98df8a;stroke:#ffffff;stroke-linejoin:miter;stroke-width:0.75;" x="514.964657" xlink:href="#mf2df35243c" y="138.171778"/>
     <use style="fill:#98df8a;stroke:#ffffff;stroke-linejoin:miter;stroke-width:0.75;" x="522.33015" xlink:href="#mf2df35243c" y="136.413173"/>
     <use style="fill:#98df8a;stroke:#ffffff;stroke-linejoin:miter;stroke-width:0.75;" x="529.336205" xlink:href="#mf2df35243c" y="133.407559"/>
     <use style="fill:#98df8a;stroke:#ffffff;stroke-linejoin:miter;stroke-width:0.75;" x="536.016276" xlink:href="#mf2df35243c" y="126.564989"/>
     <use style="fill:#98df8a;stroke:#ffffff;stroke-linejoin:miter;stroke-width:0.75;" x="542.399355" xlink:href="#mf2df35243c" y="123.687273"/>
     <use style="fill:#98df8a;stroke:#ffffff;stroke-linejoin:miter;stroke-width:0.75;" x="548.51073" xlink:href="#mf2df35243c" y="122.728035"/>
     <use style="fill:#98df8a;stroke:#ffffff;stroke-linejoin:miter;stroke-width:0.75;" x="554.37259" xlink:href="#mf2df35243c" y="121.736821"/>
     <use style="fill:#98df8a;stroke:#ffffff;stroke-linejoin:miter;stroke-width:0.75;" x="560.004513" xlink:href="#mf2df35243c" y="120.681659"/>
     <use style="fill:#98df8a;stroke:#ffffff;stroke-linejoin:miter;stroke-width:0.75;" x="565.423859" xlink:href="#mf2df35243c" y="117.963816"/>
     <use style="fill:#98df8a;stroke:#ffffff;stroke-linejoin:miter;stroke-width:0.75;" x="570.646094" xlink:href="#mf2df35243c" y="115.597694"/>
     <use style="fill:#98df8a;stroke:#ffffff;stroke-linejoin:miter;stroke-width:0.75;" x="575.685054" xlink:href="#mf2df35243c" y="114.67043"/>
     <use style="fill:#98df8a;stroke:#ffffff;stroke-linejoin:miter;stroke-width:0.75;" x="580.553169" xlink:href="#mf2df35243c" y="111.121246"/>
     <use style="fill:#98df8a;stroke:#ffffff;stroke-linejoin:miter;stroke-width:0.75;" x="585.261644" xlink:href="#mf2df35243c" y="109.298693"/>
     <use style="fill:#98df8a;stroke:#ffffff;stroke-linejoin:miter;stroke-width:0.75;" x="589.820619" xlink:href="#mf2df35243c" y="108.531302"/>
     <use style="fill:#98df8a;stroke:#ffffff;stroke-linejoin:miter;stroke-width:0.75;" x="594.239294" xlink:href="#mf2df35243c" y="107.572063"/>
     <use style="fill:#98df8a;stroke:#ffffff;stroke-linejoin:miter;stroke-width:0.75;" x="598.52605" xlink:href="#mf2df35243c" y="107.380215"/>
     <use style="fill:#98df8a;stroke:#ffffff;stroke-linejoin:miter;stroke-width:0.75;" x="602.688533" xlink:href="#mf2df35243c" y="106.58085"/>
     <use style="fill:#98df8a;stroke:#ffffff;stroke-linejoin:miter;stroke-width:0.75;" x="606.733748" xlink:href="#mf2df35243c" y="105.429763"/>
     <use style="fill:#98df8a;stroke:#ffffff;stroke-linejoin:miter;stroke-width:0.75;" x="610.668121" xlink:href="#mf2df35243c" y="104.726322"/>
     <use style="fill:#98df8a;stroke:#ffffff;stroke-linejoin:miter;stroke-width:0.75;" x="614.497565" xlink:href="#mf2df35243c" y="100.058027"/>
     <use style="fill:#98df8a;stroke:#ffffff;stroke-linejoin:miter;stroke-width:0.75;" x="618.227531" xlink:href="#mf2df35243c" y="96.636742"/>
     <use style="fill:#98df8a;stroke:#ffffff;stroke-linejoin:miter;stroke-width:0.75;" x="621.863058" xlink:href="#mf2df35243c" y="94.974062"/>
     <use style="fill:#98df8a;stroke:#ffffff;stroke-linejoin:miter;stroke-width:0.75;" x="625.408809" xlink:href="#mf2df35243c" y="94.846163"/>
     <use style="fill:#98df8a;stroke:#ffffff;stroke-linejoin:miter;stroke-width:0.75;" x="628.869113" xlink:href="#mf2df35243c" y="94.302594"/>
     <use style="fill:#98df8a;stroke:#ffffff;stroke-linejoin:miter;stroke-width:0.75;" x="632.247989" xlink:href="#mf2df35243c" y="93.695077"/>
     <use style="fill:#98df8a;stroke:#ffffff;stroke-linejoin:miter;stroke-width:0.75;" x="635.549184" xlink:href="#mf2df35243c" y="93.663102"/>
     <use style="fill:#98df8a;stroke:#ffffff;stroke-linejoin:miter;stroke-width:0.75;" x="638.776188" xlink:href="#mf2df35243c" y="86.980406"/>
     <use style="fill:#98df8a;stroke:#ffffff;stroke-linejoin:miter;stroke-width:0.75;" x="641.932263" xlink:href="#mf2df35243c" y="86.244989"/>
     <use style="fill:#98df8a;stroke:#ffffff;stroke-linejoin:miter;stroke-width:0.75;" x="645.02046" xlink:href="#mf2df35243c" y="85.029954"/>
     <use style="fill:#98df8a;stroke:#ffffff;stroke-linejoin:miter;stroke-width:0.75;" x="648.043637" xlink:href="#mf2df35243c" y="82.727781"/>
     <use style="fill:#98df8a;stroke:#ffffff;stroke-linejoin:miter;stroke-width:0.75;" x="651.004477" xlink:href="#mf2df35243c" y="80.809303"/>
     <use style="fill:#98df8a;stroke:#ffffff;stroke-linejoin:miter;stroke-width:0.75;" x="653.905497" xlink:href="#mf2df35243c" y="80.329684"/>
     <use style="fill:#98df8a;stroke:#ffffff;stroke-linejoin:miter;stroke-width:0.75;" x="656.749068" xlink:href="#mf2df35243c" y="80.201786"/>
     <use style="fill:#98df8a;stroke:#ffffff;stroke-linejoin:miter;stroke-width:0.75;" x="659.537421" xlink:href="#mf2df35243c" y="80.201786"/>
     <use style="fill:#98df8a;stroke:#ffffff;stroke-linejoin:miter;stroke-width:0.75;" x="662.272658" xlink:href="#mf2df35243c" y="79.434395"/>
     <use style="fill:#98df8a;stroke:#ffffff;stroke-linejoin:miter;stroke-width:0.75;" x="664.956767" xlink:href="#mf2df35243c" y="78.98675"/>
     <use style="fill:#98df8a;stroke:#ffffff;stroke-linejoin:miter;stroke-width:0.75;" x="667.591623" xlink:href="#mf2df35243c" y="78.507131"/>
     <use style="fill:#98df8a;stroke:#ffffff;stroke-linejoin:miter;stroke-width:0.75;" x="670.179002" xlink:href="#mf2df35243c" y="72.048257"/>
     <use style="fill:#98df8a;stroke:#ffffff;stroke-linejoin:miter;stroke-width:0.75;" x="672.720584" xlink:href="#mf2df35243c" y="71.888384"/>
     <use style="fill:#98df8a;stroke:#ffffff;stroke-linejoin:miter;stroke-width:0.75;" x="675.217962" xlink:href="#mf2df35243c" y="71.760485"/>
     <use style="fill:#98df8a;stroke:#ffffff;stroke-linejoin:miter;stroke-width:0.75;" x="677.672648" xlink:href="#mf2df35243c" y="71.760485"/>
     <use style="fill:#98df8a;stroke:#ffffff;stroke-linejoin:miter;stroke-width:0.75;" x="680.086077" xlink:href="#mf2df35243c" y="71.664561"/>
     <use style="fill:#98df8a;stroke:#ffffff;stroke-linejoin:miter;stroke-width:0.75;" x="682.459612" xlink:href="#mf2df35243c" y="71.632587"/>
     <use style="fill:#98df8a;stroke:#ffffff;stroke-linejoin:miter;stroke-width:0.75;" x="684.794552" xlink:href="#mf2df35243c" y="71.568637"/>
     <use style="fill:#98df8a;stroke:#ffffff;stroke-linejoin:miter;stroke-width:0.75;" x="687.092131" xlink:href="#mf2df35243c" y="71.248891"/>
     <use style="fill:#98df8a;stroke:#ffffff;stroke-linejoin:miter;stroke-width:0.75;" x="689.353527" xlink:href="#mf2df35243c" y="70.545449"/>
     <use style="fill:#98df8a;stroke:#ffffff;stroke-linejoin:miter;stroke-width:0.75;" x="691.57986" xlink:href="#mf2df35243c" y="69.138566"/>
     <use style="fill:#98df8a;stroke:#ffffff;stroke-linejoin:miter;stroke-width:0.75;" x="693.772202" xlink:href="#mf2df35243c" y="68.786845"/>
     <use style="fill:#98df8a;stroke:#ffffff;stroke-linejoin:miter;stroke-width:0.75;" x="695.931576" xlink:href="#mf2df35243c" y="68.563023"/>
     <use style="fill:#98df8a;stroke:#ffffff;stroke-linejoin:miter;stroke-width:0.75;" x="698.058957" xlink:href="#mf2df35243c" y="67.699708"/>
     <use style="fill:#98df8a;stroke:#ffffff;stroke-linejoin:miter;stroke-width:0.75;" x="700.155281" xlink:href="#mf2df35243c" y="67.571809"/>
     <use style="fill:#98df8a;stroke:#ffffff;stroke-linejoin:miter;stroke-width:0.75;" x="702.221441" xlink:href="#mf2df35243c" y="67.411936"/>
     <use style="fill:#98df8a;stroke:#ffffff;stroke-linejoin:miter;stroke-width:0.75;" x="704.258293" xlink:href="#mf2df35243c" y="67.124165"/>
     <use style="fill:#98df8a;stroke:#ffffff;stroke-linejoin:miter;stroke-width:0.75;" x="706.266656" xlink:href="#mf2df35243c" y="66.67652"/>
     <use style="fill:#98df8a;stroke:#ffffff;stroke-linejoin:miter;stroke-width:0.75;" x="708.247317" xlink:href="#mf2df35243c" y="66.67652"/>
     <use style="fill:#98df8a;stroke:#ffffff;stroke-linejoin:miter;stroke-width:0.75;" x="710.201029" xlink:href="#mf2df35243c" y="66.644545"/>
     <use style="fill:#98df8a;stroke:#ffffff;stroke-linejoin:miter;stroke-width:0.75;" x="712.128516" xlink:href="#mf2df35243c" y="65.749256"/>
     <use style="fill:#98df8a;stroke:#ffffff;stroke-linejoin:miter;stroke-width:0.75;" x="714.030473" xlink:href="#mf2df35243c" y="65.621357"/>
     <use style="fill:#98df8a;stroke:#ffffff;stroke-linejoin:miter;stroke-width:0.75;" x="715.907567" xlink:href="#mf2df35243c" y="63.543007"/>
     <use style="fill:#98df8a;stroke:#ffffff;stroke-linejoin:miter;stroke-width:0.75;" x="717.760439" xlink:href="#mf2df35243c" y="63.415108"/>
     <use style="fill:#98df8a;stroke:#ffffff;stroke-linejoin:miter;stroke-width:0.75;" x="719.589708" xlink:href="#mf2df35243c" y="62.935489"/>
     <use style="fill:#98df8a;stroke:#ffffff;stroke-linejoin:miter;stroke-width:0.75;" x="721.395966" xlink:href="#mf2df35243c" y="61.080961"/>
     <use style="fill:#98df8a;stroke:#ffffff;stroke-linejoin:miter;stroke-width:0.75;" x="723.179786" xlink:href="#mf2df35243c" y="60.633316"/>
     <use style="fill:#98df8a;stroke:#ffffff;stroke-linejoin:miter;stroke-width:0.75;" x="724.941717" xlink:href="#mf2df35243c" y="60.505418"/>
     <use style="fill:#98df8a;stroke:#ffffff;stroke-linejoin:miter;stroke-width:0.75;" x="726.682292" xlink:href="#mf2df35243c" y="60.281595"/>
     <use style="fill:#98df8a;stroke:#ffffff;stroke-linejoin:miter;stroke-width:0.75;" x="728.40202" xlink:href="#mf2df35243c" y="58.58694"/>
     <use style="fill:#98df8a;stroke:#ffffff;stroke-linejoin:miter;stroke-width:0.75;" x="730.101397" xlink:href="#mf2df35243c" y="58.427067"/>
     <use style="fill:#98df8a;stroke:#ffffff;stroke-linejoin:miter;stroke-width:0.75;" x="731.780897" xlink:href="#mf2df35243c" y="58.427067"/>
     <use style="fill:#98df8a;stroke:#ffffff;stroke-linejoin:miter;stroke-width:0.75;" x="733.440981" xlink:href="#mf2df35243c" y="57.915473"/>
     <use style="fill:#98df8a;stroke:#ffffff;stroke-linejoin:miter;stroke-width:0.75;" x="735.082091" xlink:href="#mf2df35243c" y="57.787575"/>
     <use style="fill:#98df8a;stroke:#ffffff;stroke-linejoin:miter;stroke-width:0.75;" x="736.704658" xlink:href="#mf2df35243c" y="57.787575"/>
     <use style="fill:#98df8a;stroke:#ffffff;stroke-linejoin:miter;stroke-width:0.75;" x="738.309095" xlink:href="#mf2df35243c" y="57.148082"/>
     <use style="fill:#98df8a;stroke:#ffffff;stroke-linejoin:miter;stroke-width:0.75;" x="739.895804" xlink:href="#mf2df35243c" y="57.148082"/>
     <use style="fill:#98df8a;stroke:#ffffff;stroke-linejoin:miter;stroke-width:0.75;" x="741.46517" xlink:href="#mf2df35243c" y="57.148082"/>
    </g>
   </g>
   <g id="line2d_39">
    <path clip-path="url(#peca10b9bfd)" d="M 92.15608 267.988748 
L 191.688987 250.754426 
L 249.912006 241.641659 
L 291.221895 232.560866 
L 323.264335 226.613586 
L 349.444914 219.323372 
L 371.580278 214.782975 
L 390.754803 210.11468 
L 407.667933 207.268939 
L 422.797242 204.103451 
L 436.483368 199.53108 
L 448.977822 193.935521 
L 460.471605 192.464688 
L 471.113186 190.738058 
L 481.020261 189.459073 
L 490.287711 188.46786 
L 498.993142 187.572571 
L 507.20084 186.357535 
L 514.964657 185.142499 
L 522.33015 184.694855 
L 529.336205 181.625291 
L 536.016276 179.642864 
L 542.399355 178.779549 
L 548.51073 177.532539 
L 554.37259 176.541326 
L 560.004513 175.933808 
L 565.423859 175.646036 
L 570.646094 174.590874 
L 575.685054 174.07928 
L 580.553169 172.864244 
L 585.261644 171.233538 
L 589.820619 170.018502 
L 594.239294 168.643594 
L 598.52605 166.437345 
L 602.688533 165.382182 
L 606.733748 165.09441 
L 610.668121 164.614791 
L 614.497565 164.26307 
L 618.227531 164.071223 
L 621.863058 159.115156 
L 625.408809 154.958455 
L 628.869113 154.159089 
L 632.247989 153.071952 
L 635.549184 147.924038 
L 638.776188 145.493966 
L 641.932263 143.575489 
L 645.02046 142.999946 
L 648.043637 142.008732 
L 651.004477 141.561088 
L 653.905497 140.154204 
L 656.749068 138.683372 
L 659.537421 137.915981 
L 662.272658 137.212539 
L 664.956767 136.860818 
L 667.591623 136.73292 
L 670.179002 136.189351 
L 672.720584 135.709732 
L 675.217962 135.645782 
L 677.672648 135.549859 
L 680.086077 135.00629 
L 682.459612 134.878391 
L 684.794552 134.814442 
L 687.092131 134.814442 
L 689.353527 134.750493 
L 691.57986 134.59062 
L 693.772202 134.462721 
L 695.931576 134.142975 
L 698.058957 133.983102 
L 700.155281 133.503483 
L 702.221441 133.023863 
L 704.258293 132.064625 
L 706.266656 131.297234 
L 708.247317 129.314807 
L 710.201029 129.186909 
L 712.128516 128.547416 
L 714.030473 127.843974 
L 715.907567 127.076583 
L 717.760439 126.533015 
L 719.589708 126.181294 
L 721.395966 125.989446 
L 723.179786 125.797598 
L 724.941717 125.733649 
L 726.682292 125.573776 
L 728.40202 125.509827 
L 730.101397 125.509827 
L 731.780897 124.614537 
L 733.440981 124.582563 
L 735.082091 124.486639 
L 736.704658 123.207654 
L 738.309095 123.11173 
L 739.895804 122.664085 
L 741.46517 122.024593 
" style="fill:none;stroke:#1f77b4;stroke-linecap:square;stroke-width:1.5;"/>
    <defs>
     <path d="M 0 3 
C 0.795609 3 1.55874 2.683901 2.12132 2.12132 
C 2.683901 1.55874 3 0.795609 3 0 
C 3 -0.795609 2.683901 -1.55874 2.12132 -2.12132 
C 1.55874 -2.683901 0.795609 -3 0 -3 
C -0.795609 -3 -1.55874 -2.683901 -2.12132 -2.12132 
C -2.683901 -1.55874 -3 -0.795609 -3 0 
C -3 0.795609 -2.683901 1.55874 -2.12132 2.12132 
C -1.55874 2.683901 -0.795609 3 0 3 
z
" id="meab308f8b4" style="stroke:#ffffff;stroke-width:0.75;"/>
    </defs>
    <g clip-path="url(#peca10b9bfd)">
     <use style="fill:#1f77b4;stroke:#ffffff;stroke-width:0.75;" x="92.15608" xlink:href="#meab308f8b4" y="267.988748"/>
     <use style="fill:#1f77b4;stroke:#ffffff;stroke-width:0.75;" x="191.688987" xlink:href="#meab308f8b4" y="250.754426"/>
     <use style="fill:#1f77b4;stroke:#ffffff;stroke-width:0.75;" x="249.912006" xlink:href="#meab308f8b4" y="241.641659"/>
     <use style="fill:#1f77b4;stroke:#ffffff;stroke-width:0.75;" x="291.221895" xlink:href="#meab308f8b4" y="232.560866"/>
     <use style="fill:#1f77b4;stroke:#ffffff;stroke-width:0.75;" x="323.264335" xlink:href="#meab308f8b4" y="226.613586"/>
     <use style="fill:#1f77b4;stroke:#ffffff;stroke-width:0.75;" x="349.444914" xlink:href="#meab308f8b4" y="219.323372"/>
     <use style="fill:#1f77b4;stroke:#ffffff;stroke-width:0.75;" x="371.580278" xlink:href="#meab308f8b4" y="214.782975"/>
     <use style="fill:#1f77b4;stroke:#ffffff;stroke-width:0.75;" x="390.754803" xlink:href="#meab308f8b4" y="210.11468"/>
     <use style="fill:#1f77b4;stroke:#ffffff;stroke-width:0.75;" x="407.667933" xlink:href="#meab308f8b4" y="207.268939"/>
     <use style="fill:#1f77b4;stroke:#ffffff;stroke-width:0.75;" x="422.797242" xlink:href="#meab308f8b4" y="204.103451"/>
     <use style="fill:#1f77b4;stroke:#ffffff;stroke-width:0.75;" x="436.483368" xlink:href="#meab308f8b4" y="199.53108"/>
     <use style="fill:#1f77b4;stroke:#ffffff;stroke-width:0.75;" x="448.977822" xlink:href="#meab308f8b4" y="193.935521"/>
     <use style="fill:#1f77b4;stroke:#ffffff;stroke-width:0.75;" x="460.471605" xlink:href="#meab308f8b4" y="192.464688"/>
     <use style="fill:#1f77b4;stroke:#ffffff;stroke-width:0.75;" x="471.113186" xlink:href="#meab308f8b4" y="190.738058"/>
     <use style="fill:#1f77b4;stroke:#ffffff;stroke-width:0.75;" x="481.020261" xlink:href="#meab308f8b4" y="189.459073"/>
     <use style="fill:#1f77b4;stroke:#ffffff;stroke-width:0.75;" x="490.287711" xlink:href="#meab308f8b4" y="188.46786"/>
     <use style="fill:#1f77b4;stroke:#ffffff;stroke-width:0.75;" x="498.993142" xlink:href="#meab308f8b4" y="187.572571"/>
     <use style="fill:#1f77b4;stroke:#ffffff;stroke-width:0.75;" x="507.20084" xlink:href="#meab308f8b4" y="186.357535"/>
     <use style="fill:#1f77b4;stroke:#ffffff;stroke-width:0.75;" x="514.964657" xlink:href="#meab308f8b4" y="185.142499"/>
     <use style="fill:#1f77b4;stroke:#ffffff;stroke-width:0.75;" x="522.33015" xlink:href="#meab308f8b4" y="184.694855"/>
     <use style="fill:#1f77b4;stroke:#ffffff;stroke-width:0.75;" x="529.336205" xlink:href="#meab308f8b4" y="181.625291"/>
     <use style="fill:#1f77b4;stroke:#ffffff;stroke-width:0.75;" x="536.016276" xlink:href="#meab308f8b4" y="179.642864"/>
     <use style="fill:#1f77b4;stroke:#ffffff;stroke-width:0.75;" x="542.399355" xlink:href="#meab308f8b4" y="178.779549"/>
     <use style="fill:#1f77b4;stroke:#ffffff;stroke-width:0.75;" x="548.51073" xlink:href="#meab308f8b4" y="177.532539"/>
     <use style="fill:#1f77b4;stroke:#ffffff;stroke-width:0.75;" x="554.37259" xlink:href="#meab308f8b4" y="176.541326"/>
     <use style="fill:#1f77b4;stroke:#ffffff;stroke-width:0.75;" x="560.004513" xlink:href="#meab308f8b4" y="175.933808"/>
     <use style="fill:#1f77b4;stroke:#ffffff;stroke-width:0.75;" x="565.423859" xlink:href="#meab308f8b4" y="175.646036"/>
     <use style="fill:#1f77b4;stroke:#ffffff;stroke-width:0.75;" x="570.646094" xlink:href="#meab308f8b4" y="174.590874"/>
     <use style="fill:#1f77b4;stroke:#ffffff;stroke-width:0.75;" x="575.685054" xlink:href="#meab308f8b4" y="174.07928"/>
     <use style="fill:#1f77b4;stroke:#ffffff;stroke-width:0.75;" x="580.553169" xlink:href="#meab308f8b4" y="172.864244"/>
     <use style="fill:#1f77b4;stroke:#ffffff;stroke-width:0.75;" x="585.261644" xlink:href="#meab308f8b4" y="171.233538"/>
     <use style="fill:#1f77b4;stroke:#ffffff;stroke-width:0.75;" x="589.820619" xlink:href="#meab308f8b4" y="170.018502"/>
     <use style="fill:#1f77b4;stroke:#ffffff;stroke-width:0.75;" x="594.239294" xlink:href="#meab308f8b4" y="168.643594"/>
     <use style="fill:#1f77b4;stroke:#ffffff;stroke-width:0.75;" x="598.52605" xlink:href="#meab308f8b4" y="166.437345"/>
     <use style="fill:#1f77b4;stroke:#ffffff;stroke-width:0.75;" x="602.688533" xlink:href="#meab308f8b4" y="165.382182"/>
     <use style="fill:#1f77b4;stroke:#ffffff;stroke-width:0.75;" x="606.733748" xlink:href="#meab308f8b4" y="165.09441"/>
     <use style="fill:#1f77b4;stroke:#ffffff;stroke-width:0.75;" x="610.668121" xlink:href="#meab308f8b4" y="164.614791"/>
     <use style="fill:#1f77b4;stroke:#ffffff;stroke-width:0.75;" x="614.497565" xlink:href="#meab308f8b4" y="164.26307"/>
     <use style="fill:#1f77b4;stroke:#ffffff;stroke-width:0.75;" x="618.227531" xlink:href="#meab308f8b4" y="164.071223"/>
     <use style="fill:#1f77b4;stroke:#ffffff;stroke-width:0.75;" x="621.863058" xlink:href="#meab308f8b4" y="159.115156"/>
     <use style="fill:#1f77b4;stroke:#ffffff;stroke-width:0.75;" x="625.408809" xlink:href="#meab308f8b4" y="154.958455"/>
     <use style="fill:#1f77b4;stroke:#ffffff;stroke-width:0.75;" x="628.869113" xlink:href="#meab308f8b4" y="154.159089"/>
     <use style="fill:#1f77b4;stroke:#ffffff;stroke-width:0.75;" x="632.247989" xlink:href="#meab308f8b4" y="153.071952"/>
     <use style="fill:#1f77b4;stroke:#ffffff;stroke-width:0.75;" x="635.549184" xlink:href="#meab308f8b4" y="147.924038"/>
     <use style="fill:#1f77b4;stroke:#ffffff;stroke-width:0.75;" x="638.776188" xlink:href="#meab308f8b4" y="145.493966"/>
     <use style="fill:#1f77b4;stroke:#ffffff;stroke-width:0.75;" x="641.932263" xlink:href="#meab308f8b4" y="143.575489"/>
     <use style="fill:#1f77b4;stroke:#ffffff;stroke-width:0.75;" x="645.02046" xlink:href="#meab308f8b4" y="142.999946"/>
     <use style="fill:#1f77b4;stroke:#ffffff;stroke-width:0.75;" x="648.043637" xlink:href="#meab308f8b4" y="142.008732"/>
     <use style="fill:#1f77b4;stroke:#ffffff;stroke-width:0.75;" x="651.004477" xlink:href="#meab308f8b4" y="141.561088"/>
     <use style="fill:#1f77b4;stroke:#ffffff;stroke-width:0.75;" x="653.905497" xlink:href="#meab308f8b4" y="140.154204"/>
     <use style="fill:#1f77b4;stroke:#ffffff;stroke-width:0.75;" x="656.749068" xlink:href="#meab308f8b4" y="138.683372"/>
     <use style="fill:#1f77b4;stroke:#ffffff;stroke-width:0.75;" x="659.537421" xlink:href="#meab308f8b4" y="137.915981"/>
     <use style="fill:#1f77b4;stroke:#ffffff;stroke-width:0.75;" x="662.272658" xlink:href="#meab308f8b4" y="137.212539"/>
     <use style="fill:#1f77b4;stroke:#ffffff;stroke-width:0.75;" x="664.956767" xlink:href="#meab308f8b4" y="136.860818"/>
     <use style="fill:#1f77b4;stroke:#ffffff;stroke-width:0.75;" x="667.591623" xlink:href="#meab308f8b4" y="136.73292"/>
     <use style="fill:#1f77b4;stroke:#ffffff;stroke-width:0.75;" x="670.179002" xlink:href="#meab308f8b4" y="136.189351"/>
     <use style="fill:#1f77b4;stroke:#ffffff;stroke-width:0.75;" x="672.720584" xlink:href="#meab308f8b4" y="135.709732"/>
     <use style="fill:#1f77b4;stroke:#ffffff;stroke-width:0.75;" x="675.217962" xlink:href="#meab308f8b4" y="135.645782"/>
     <use style="fill:#1f77b4;stroke:#ffffff;stroke-width:0.75;" x="677.672648" xlink:href="#meab308f8b4" y="135.549859"/>
     <use style="fill:#1f77b4;stroke:#ffffff;stroke-width:0.75;" x="680.086077" xlink:href="#meab308f8b4" y="135.00629"/>
     <use style="fill:#1f77b4;stroke:#ffffff;stroke-width:0.75;" x="682.459612" xlink:href="#meab308f8b4" y="134.878391"/>
     <use style="fill:#1f77b4;stroke:#ffffff;stroke-width:0.75;" x="684.794552" xlink:href="#meab308f8b4" y="134.814442"/>
     <use style="fill:#1f77b4;stroke:#ffffff;stroke-width:0.75;" x="687.092131" xlink:href="#meab308f8b4" y="134.814442"/>
     <use style="fill:#1f77b4;stroke:#ffffff;stroke-width:0.75;" x="689.353527" xlink:href="#meab308f8b4" y="134.750493"/>
     <use style="fill:#1f77b4;stroke:#ffffff;stroke-width:0.75;" x="691.57986" xlink:href="#meab308f8b4" y="134.59062"/>
     <use style="fill:#1f77b4;stroke:#ffffff;stroke-width:0.75;" x="693.772202" xlink:href="#meab308f8b4" y="134.462721"/>
     <use style="fill:#1f77b4;stroke:#ffffff;stroke-width:0.75;" x="695.931576" xlink:href="#meab308f8b4" y="134.142975"/>
     <use style="fill:#1f77b4;stroke:#ffffff;stroke-width:0.75;" x="698.058957" xlink:href="#meab308f8b4" y="133.983102"/>
     <use style="fill:#1f77b4;stroke:#ffffff;stroke-width:0.75;" x="700.155281" xlink:href="#meab308f8b4" y="133.503483"/>
     <use style="fill:#1f77b4;stroke:#ffffff;stroke-width:0.75;" x="702.221441" xlink:href="#meab308f8b4" y="133.023863"/>
     <use style="fill:#1f77b4;stroke:#ffffff;stroke-width:0.75;" x="704.258293" xlink:href="#meab308f8b4" y="132.064625"/>
     <use style="fill:#1f77b4;stroke:#ffffff;stroke-width:0.75;" x="706.266656" xlink:href="#meab308f8b4" y="131.297234"/>
     <use style="fill:#1f77b4;stroke:#ffffff;stroke-width:0.75;" x="708.247317" xlink:href="#meab308f8b4" y="129.314807"/>
     <use style="fill:#1f77b4;stroke:#ffffff;stroke-width:0.75;" x="710.201029" xlink:href="#meab308f8b4" y="129.186909"/>
     <use style="fill:#1f77b4;stroke:#ffffff;stroke-width:0.75;" x="712.128516" xlink:href="#meab308f8b4" y="128.547416"/>
     <use style="fill:#1f77b4;stroke:#ffffff;stroke-width:0.75;" x="714.030473" xlink:href="#meab308f8b4" y="127.843974"/>
     <use style="fill:#1f77b4;stroke:#ffffff;stroke-width:0.75;" x="715.907567" xlink:href="#meab308f8b4" y="127.076583"/>
     <use style="fill:#1f77b4;stroke:#ffffff;stroke-width:0.75;" x="717.760439" xlink:href="#meab308f8b4" y="126.533015"/>
     <use style="fill:#1f77b4;stroke:#ffffff;stroke-width:0.75;" x="719.589708" xlink:href="#meab308f8b4" y="126.181294"/>
     <use style="fill:#1f77b4;stroke:#ffffff;stroke-width:0.75;" x="721.395966" xlink:href="#meab308f8b4" y="125.989446"/>
     <use style="fill:#1f77b4;stroke:#ffffff;stroke-width:0.75;" x="723.179786" xlink:href="#meab308f8b4" y="125.797598"/>
     <use style="fill:#1f77b4;stroke:#ffffff;stroke-width:0.75;" x="724.941717" xlink:href="#meab308f8b4" y="125.733649"/>
     <use style="fill:#1f77b4;stroke:#ffffff;stroke-width:0.75;" x="726.682292" xlink:href="#meab308f8b4" y="125.573776"/>
     <use style="fill:#1f77b4;stroke:#ffffff;stroke-width:0.75;" x="728.40202" xlink:href="#meab308f8b4" y="125.509827"/>
     <use style="fill:#1f77b4;stroke:#ffffff;stroke-width:0.75;" x="730.101397" xlink:href="#meab308f8b4" y="125.509827"/>
     <use style="fill:#1f77b4;stroke:#ffffff;stroke-width:0.75;" x="731.780897" xlink:href="#meab308f8b4" y="124.614537"/>
     <use style="fill:#1f77b4;stroke:#ffffff;stroke-width:0.75;" x="733.440981" xlink:href="#meab308f8b4" y="124.582563"/>
     <use style="fill:#1f77b4;stroke:#ffffff;stroke-width:0.75;" x="735.082091" xlink:href="#meab308f8b4" y="124.486639"/>
     <use style="fill:#1f77b4;stroke:#ffffff;stroke-width:0.75;" x="736.704658" xlink:href="#meab308f8b4" y="123.207654"/>
     <use style="fill:#1f77b4;stroke:#ffffff;stroke-width:0.75;" x="738.309095" xlink:href="#meab308f8b4" y="123.11173"/>
     <use style="fill:#1f77b4;stroke:#ffffff;stroke-width:0.75;" x="739.895804" xlink:href="#meab308f8b4" y="122.664085"/>
     <use style="fill:#1f77b4;stroke:#ffffff;stroke-width:0.75;" x="741.46517" xlink:href="#meab308f8b4" y="122.024593"/>
    </g>
   </g>
   <g id="line2d_40"/>
   <g id="line2d_41"/>
   <g id="line2d_42">
    <path clip-path="url(#peca10b9bfd)" d="M 741.46517 288.430125 
L 741.46517 22.318125 
" style="fill:none;stroke:#ff0000;stroke-linecap:square;stroke-width:1.5;"/>
   </g>
   <g id="patch_3">
    <path d="M 59.690625 274.159851 
L 59.690625 50.337487 
" style="fill:none;stroke:#000000;stroke-linecap:square;stroke-linejoin:miter;stroke-width:0.8;"/>
   </g>
   <g id="patch_4">
    <path d="M 92.15608 288.430125 
L 741.466905 288.430125 
" style="fill:none;stroke:#000000;stroke-linecap:square;stroke-linejoin:miter;stroke-width:0.8;"/>
   </g>
   <g id="text_23">
    <!-- freetype2-2017 (23h, 10 trials/fuzzer) -->
    <g transform="translate(303.597188 16.318125)scale(0.12 -0.12)">
     <defs>
      <path d="M 2375 4863 
L 2375 4384 
L 1825 4384 
Q 1516 4384 1395 4259 
Q 1275 4134 1275 3809 
L 1275 3500 
L 2222 3500 
L 2222 3053 
L 1275 3053 
L 1275 0 
L 697 0 
L 697 3053 
L 147 3053 
L 147 3500 
L 697 3500 
L 697 3744 
Q 697 4328 969 4595 
Q 1241 4863 1831 4863 
L 2375 4863 
z
" id="DejaVuSans-66" transform="scale(0.015625)"/>
      <path d="M 2059 -325 
Q 1816 -950 1584 -1140 
Q 1353 -1331 966 -1331 
L 506 -1331 
L 506 -850 
L 844 -850 
Q 1081 -850 1212 -737 
Q 1344 -625 1503 -206 
L 1606 56 
L 191 3500 
L 800 3500 
L 1894 763 
L 2988 3500 
L 3597 3500 
L 2059 -325 
z
" id="DejaVuSans-79" transform="scale(0.015625)"/>
      <path d="M 1159 525 
L 1159 -1331 
L 581 -1331 
L 581 3500 
L 1159 3500 
L 1159 2969 
Q 1341 3281 1617 3432 
Q 1894 3584 2278 3584 
Q 2916 3584 3314 3078 
Q 3713 2572 3713 1747 
Q 3713 922 3314 415 
Q 2916 -91 2278 -91 
Q 1894 -91 1617 61 
Q 1341 213 1159 525 
z
M 3116 1747 
Q 3116 2381 2855 2742 
Q 2594 3103 2138 3103 
Q 1681 3103 1420 2742 
Q 1159 2381 1159 1747 
Q 1159 1113 1420 752 
Q 1681 391 2138 391 
Q 2594 391 2855 752 
Q 3116 1113 3116 1747 
z
" id="DejaVuSans-70" transform="scale(0.015625)"/>
      <path d="M 313 2009 
L 1997 2009 
L 1997 1497 
L 313 1497 
L 313 2009 
z
" id="DejaVuSans-2d" transform="scale(0.015625)"/>
      <path d="M 750 794 
L 1409 794 
L 1409 256 
L 897 -744 
L 494 -744 
L 750 256 
L 750 794 
z
" id="DejaVuSans-2c" transform="scale(0.015625)"/>
      <path d="M 603 4863 
L 1178 4863 
L 1178 0 
L 603 0 
L 603 4863 
z
" id="DejaVuSans-6c" transform="scale(0.015625)"/>
      <path d="M 2834 3397 
L 2834 2853 
Q 2591 2978 2328 3040 
Q 2066 3103 1784 3103 
Q 1356 3103 1142 2972 
Q 928 2841 928 2578 
Q 928 2378 1081 2264 
Q 1234 2150 1697 2047 
L 1894 2003 
Q 2506 1872 2764 1633 
Q 3022 1394 3022 966 
Q 3022 478 2636 193 
Q 2250 -91 1575 -91 
Q 1294 -91 989 -36 
Q 684 19 347 128 
L 347 722 
Q 666 556 975 473 
Q 1284 391 1588 391 
Q 1994 391 2212 530 
Q 2431 669 2431 922 
Q 2431 1156 2273 1281 
Q 2116 1406 1581 1522 
L 1381 1569 
Q 847 1681 609 1914 
Q 372 2147 372 2553 
Q 372 3047 722 3315 
Q 1072 3584 1716 3584 
Q 2034 3584 2315 3537 
Q 2597 3491 2834 3397 
z
" id="DejaVuSans-73" transform="scale(0.015625)"/>
      <path d="M 1625 4666 
L 2156 4666 
L 531 -594 
L 0 -594 
L 1625 4666 
z
" id="DejaVuSans-2f" transform="scale(0.015625)"/>
      <path d="M 353 3500 
L 3084 3500 
L 3084 2975 
L 922 459 
L 3084 459 
L 3084 0 
L 275 0 
L 275 525 
L 2438 3041 
L 353 3041 
L 353 3500 
z
" id="DejaVuSans-7a" transform="scale(0.015625)"/>
     </defs>
     <use xlink:href="#DejaVuSans-66"/>
     <use x="35.205078" xlink:href="#DejaVuSans-72"/>
     <use x="74.068359" xlink:href="#DejaVuSans-65"/>
     <use x="135.591797" xlink:href="#DejaVuSans-65"/>
     <use x="197.115234" xlink:href="#DejaVuSans-74"/>
     <use x="236.324219" xlink:href="#DejaVuSans-79"/>
     <use x="295.503906" xlink:href="#DejaVuSans-70"/>
     <use x="358.980469" xlink:href="#DejaVuSans-65"/>
     <use x="420.503906" xlink:href="#DejaVuSans-32"/>
     <use x="484.126953" xlink:href="#DejaVuSans-2d"/>
     <use x="520.210938" xlink:href="#DejaVuSans-32"/>
     <use x="583.833984" xlink:href="#DejaVuSans-30"/>
     <use x="647.457031" xlink:href="#DejaVuSans-31"/>
     <use x="711.080078" xlink:href="#DejaVuSans-37"/>
     <use x="774.703125" xlink:href="#DejaVuSans-20"/>
     <use x="806.490234" xlink:href="#DejaVuSans-28"/>
     <use x="845.503906" xlink:href="#DejaVuSans-32"/>
     <use x="909.126953" xlink:href="#DejaVuSans-33"/>
     <use x="972.75" xlink:href="#DejaVuSans-68"/>
     <use x="1036.128906" xlink:href="#DejaVuSans-2c"/>
     <use x="1067.916016" xlink:href="#DejaVuSans-20"/>
     <use x="1099.703125" xlink:href="#DejaVuSans-31"/>
     <use x="1163.326172" xlink:href="#DejaVuSans-30"/>
     <use x="1226.949219" xlink:href="#DejaVuSans-20"/>
     <use x="1258.736328" xlink:href="#DejaVuSans-74"/>
     <use x="1297.945312" xlink:href="#DejaVuSans-72"/>
     <use x="1339.058594" xlink:href="#DejaVuSans-69"/>
     <use x="1366.841797" xlink:href="#DejaVuSans-61"/>
     <use x="1428.121094" xlink:href="#DejaVuSans-6c"/>
     <use x="1455.904297" xlink:href="#DejaVuSans-73"/>
     <use x="1508.003906" xlink:href="#DejaVuSans-2f"/>
     <use x="1541.695312" xlink:href="#DejaVuSans-66"/>
     <use x="1576.900391" xlink:href="#DejaVuSans-75"/>
     <use x="1640.279297" xlink:href="#DejaVuSans-7a"/>
     <use x="1692.769531" xlink:href="#DejaVuSans-7a"/>
     <use x="1745.259766" xlink:href="#DejaVuSans-65"/>
     <use x="1806.783203" xlink:href="#DejaVuSans-72"/>
     <use x="1847.896484" xlink:href="#DejaVuSans-29"/>
    </g>
   </g>
   <g id="legend_1">
    <g id="line2d_43">
     <path d="M 777.930625 30.416563 
L 797.930625 30.416563 
" style="fill:none;stroke:#98df8a;stroke-linecap:square;stroke-width:1.5;"/>
    </g>
    <g id="line2d_44">
     <defs>
      <path d="M -0 3 
L 3 -3 
L -3 -3 
z
" id="ma67fd55d8d" style="stroke:#98df8a;stroke-linejoin:miter;"/>
     </defs>
     <g>
      <use style="fill:#98df8a;stroke:#98df8a;stroke-linejoin:miter;" x="787.930625" xlink:href="#ma67fd55d8d" y="30.416563"/>
     </g>
    </g>
    <g id="text_24">
     <!-- sydr_libfuzzer -->
     <g transform="translate(805.930625 33.916563)scale(0.1 -0.1)">
      <defs>
       <path d="M 3263 -1063 
L 3263 -1509 
L -63 -1509 
L -63 -1063 
L 3263 -1063 
z
" id="DejaVuSans-5f" transform="scale(0.015625)"/>
      </defs>
      <use xlink:href="#DejaVuSans-73"/>
      <use x="52.099609" xlink:href="#DejaVuSans-79"/>
      <use x="111.279297" xlink:href="#DejaVuSans-64"/>
      <use x="174.755859" xlink:href="#DejaVuSans-72"/>
      <use x="215.869141" xlink:href="#DejaVuSans-5f"/>
      <use x="265.869141" xlink:href="#DejaVuSans-6c"/>
      <use x="293.652344" xlink:href="#DejaVuSans-69"/>
      <use x="321.435547" xlink:href="#DejaVuSans-62"/>
      <use x="384.912109" xlink:href="#DejaVuSans-66"/>
      <use x="420.117188" xlink:href="#DejaVuSans-75"/>
      <use x="483.496094" xlink:href="#DejaVuSans-7a"/>
      <use x="535.986328" xlink:href="#DejaVuSans-7a"/>
      <use x="588.476562" xlink:href="#DejaVuSans-65"/>
      <use x="650" xlink:href="#DejaVuSans-72"/>
     </g>
    </g>
    <g id="line2d_45">
     <path d="M 777.930625 45.372813 
L 797.930625 45.372813 
" style="fill:none;stroke:#1f77b4;stroke-linecap:square;stroke-width:1.5;"/>
    </g>
    <g id="line2d_46">
     <defs>
      <path d="M 0 3 
C 0.795609 3 1.55874 2.683901 2.12132 2.12132 
C 2.683901 1.55874 3 0.795609 3 0 
C 3 -0.795609 2.683901 -1.55874 2.12132 -2.12132 
C 1.55874 -2.683901 0.795609 -3 0 -3 
C -0.795609 -3 -1.55874 -2.683901 -2.12132 -2.12132 
C -2.683901 -1.55874 -3 -0.795609 -3 0 
C -3 0.795609 -2.683901 1.55874 -2.12132 2.12132 
C -1.55874 2.683901 -0.795609 3 0 3 
z
" id="mbc331523e1" style="stroke:#1f77b4;"/>
     </defs>
     <g>
      <use style="fill:#1f77b4;stroke:#1f77b4;" x="787.930625" xlink:href="#mbc331523e1" y="45.372813"/>
     </g>
    </g>
    <g id="text_25">
     <!-- libfuzzer_two_workers -->
     <g transform="translate(805.930625 48.872813)scale(0.1 -0.1)">
      <defs>
       <path d="M 269 3500 
L 844 3500 
L 1563 769 
L 2278 3500 
L 2956 3500 
L 3675 769 
L 4391 3500 
L 4966 3500 
L 4050 0 
L 3372 0 
L 2619 2869 
L 1863 0 
L 1184 0 
L 269 3500 
z
" id="DejaVuSans-77" transform="scale(0.015625)"/>
       <path d="M 581 4863 
L 1159 4863 
L 1159 1991 
L 2875 3500 
L 3609 3500 
L 1753 1863 
L 3688 0 
L 2938 0 
L 1159 1709 
L 1159 0 
L 581 0 
L 581 4863 
z
" id="DejaVuSans-6b" transform="scale(0.015625)"/>
      </defs>
      <use xlink:href="#DejaVuSans-6c"/>
      <use x="27.783203" xlink:href="#DejaVuSans-69"/>
      <use x="55.566406" xlink:href="#DejaVuSans-62"/>
      <use x="119.042969" xlink:href="#DejaVuSans-66"/>
      <use x="154.248047" xlink:href="#DejaVuSans-75"/>
      <use x="217.626953" xlink:href="#DejaVuSans-7a"/>
      <use x="270.117188" xlink:href="#DejaVuSans-7a"/>
      <use x="322.607422" xlink:href="#DejaVuSans-65"/>
      <use x="384.130859" xlink:href="#DejaVuSans-72"/>
      <use x="425.244141" xlink:href="#DejaVuSans-5f"/>
      <use x="475.244141" xlink:href="#DejaVuSans-74"/>
      <use x="514.453125" xlink:href="#DejaVuSans-77"/>
      <use x="596.240234" xlink:href="#DejaVuSans-6f"/>
      <use x="657.421875" xlink:href="#DejaVuSans-5f"/>
      <use x="707.421875" xlink:href="#DejaVuSans-77"/>
      <use x="789.208984" xlink:href="#DejaVuSans-6f"/>
      <use x="850.390625" xlink:href="#DejaVuSans-72"/>
      <use x="891.503906" xlink:href="#DejaVuSans-6b"/>
      <use x="945.789062" xlink:href="#DejaVuSans-65"/>
      <use x="1007.3125" xlink:href="#DejaVuSans-72"/>
      <use x="1048.425781" xlink:href="#DejaVuSans-73"/>
     </g>
    </g>
   </g>
  </g>
 </g>
 <defs>
  <clipPath id="peca10b9bfd">
   <rect height="266.112" width="714.24" x="59.690625" y="22.318125"/>
  </clipPath>
 </defs>
</svg>
