<?xml version="1.0" encoding="utf-8" standalone="no"?>
<!DOCTYPE svg PUBLIC "-//W3C//DTD SVG 1.1//EN"
  "http://www.w3.org/Graphics/SVG/1.1/DTD/svg11.dtd">
<svg height="325.986375pt" version="1.1" viewBox="0 0 920.818125 325.986375" width="920.818125pt" xmlns="http://www.w3.org/2000/svg" xmlns:xlink="http://www.w3.org/1999/xlink">
 <metadata>
  <rdf:RDF xmlns:cc="http://creativecommons.org/ns#" xmlns:dc="http://purl.org/dc/elements/1.1/" xmlns:rdf="http://www.w3.org/1999/02/22-rdf-syntax-ns#">
   <cc:Work>
    <dc:type rdf:resource="http://purl.org/dc/dcmitype/StillImage"/>
    <dc:date>2022-08-18T12:11:12.078624</dc:date>
    <dc:format>image/svg+xml</dc:format>
    <dc:creator>
     <cc:Agent>
      <dc:title>Matplotlib v3.4.1, https://matplotlib.org/</dc:title>
     </cc:Agent>
    </dc:creator>
   </cc:Work>
  </rdf:RDF>
 </metadata>
 <defs>
  <style type="text/css">*{stroke-linecap:butt;stroke-linejoin:round;}</style>
 </defs>
 <g id="figure_1">
  <g id="patch_1">
   <path d="M 0 325.986375 
L 920.818125 325.986375 
L 920.818125 0 
L 0 0 
z
" style="fill:#ffffff;"/>
  </g>
  <g id="axes_1">
   <g id="patch_2">
    <path d="M 53.328125 288.430125 
L 767.568125 288.430125 
L 767.568125 22.318125 
L 53.328125 22.318125 
z
" style="fill:#ffffff;"/>
   </g>
   <g id="PolyCollection_1">
    <defs>
     <path d="M 85.79358 -72.084088 
L 85.79358 -49.65225 
L 185.326487 -85.53091 
L 243.549506 -101.392839 
L 284.859395 -117.438971 
L 316.901835 -129.555438 
L 343.082414 -142.081245 
L 365.217778 -147.893874 
L 384.392303 -153.379032 
L 401.305433 -157.472433 
L 416.434742 -163.36693 
L 430.120868 -166.641651 
L 442.615322 -169.97982 
L 454.109105 -171.881204 
L 464.750686 -173.764169 
L 474.657761 -176.957022 
L 483.925211 -182.933387 
L 492.630642 -185.309606 
L 500.83834 -185.143824 
L 508.602157 -186.94492 
L 515.96765 -190.383377 
L 522.973705 -190.628981 
L 529.653776 -190.792717 
L 536.036855 -190.956453 
L 542.14823 -193.085022 
L 548.01009 -196.03227 
L 553.642013 -199.798199 
L 559.061359 -199.306991 
L 564.283594 -200.453143 
L 569.322554 -200.438816 
L 574.190669 -201.43556 
L 578.899144 -202.090504 
L 583.458119 -202.745448 
L 587.876794 -202.745448 
L 592.16355 -203.400392 
L 596.326033 -204.055336 
L 600.371248 -203.645996 
L 604.305621 -205.856433 
L 608.135065 -206.183905 
L 611.865031 -206.675113 
L 615.500558 -206.347641 
L 619.046309 -207.985001 
L 622.506613 -207.985001 
L 625.885489 -207.985001 
L 629.186684 -207.968628 
L 632.413688 -208.312473 
L 635.569763 -208.639945 
L 638.65796 -216.171803 
L 641.681137 -216.663011 
L 644.641977 -216.990484 
L 647.542997 -218.136636 
L 650.386568 -218.136636 
L 653.174921 -218.300372 
L 655.910158 -219.855864 
L 658.594267 -220.592676 
L 661.229123 -219.937732 
L 663.816502 -221.247621 
L 666.358084 -221.493225 
L 668.855462 -221.493225 
L 671.310148 -221.44001 
L 673.723577 -222.475641 
L 676.097112 -223.513318 
L 678.432052 -225.122025 
L 680.729631 -223.785529 
L 682.991027 -225.995966 
L 685.21736 -227.46959 
L 687.409702 -232.064433 
L 689.569076 -232.144254 
L 691.696457 -226.077834 
L 693.792781 -225.177286 
L 695.858941 -226.697984 
L 697.895793 -233.200352 
L 699.904156 -234.33627 
L 701.884817 -234.51024 
L 703.838529 -227.633326 
L 705.766016 -227.633326 
L 707.667973 -232.463539 
L 709.545067 -232.872879 
L 711.397939 -232.872879 
L 713.227208 -239.586057 
L 715.033466 -239.586057 
L 716.817286 -233.118484 
L 718.579217 -239.586057 
L 720.319792 -234.346504 
L 722.03952 -239.522609 
L 723.738897 -238.439905 
L 725.418397 -240.568473 
L 727.078481 -240.895945 
L 728.719591 -240.895945 
L 730.342158 -240.895945 
L 731.946595 -241.059681 
L 733.533304 -243.515722 
L 735.10267 -243.843194 
L 735.10267 -291.57225 
L 735.10267 -291.57225 
L 733.533304 -291.490382 
L 731.946595 -291.326646 
L 730.342158 -291.326646 
L 728.719591 -291.081042 
L 727.078481 -290.532526 
L 725.418397 -289.443681 
L 723.738897 -268.567336 
L 722.03952 -290.016758 
L 720.319792 -288.625001 
L 718.579217 -276.383686 
L 716.817286 -288.215661 
L 715.033466 -288.952473 
L 713.227208 -266.864481 
L 711.397939 -287.151377 
L 709.545067 -287.724453 
L 707.667973 -288.543133 
L 705.766016 -287.970057 
L 703.838529 -286.250829 
L 701.884817 -287.315113 
L 699.904156 -287.233245 
L 697.895793 -285.841489 
L 695.858941 -286.332697 
L 693.792781 -286.905773 
L 691.696457 -280.603982 
L 689.569076 -263.190654 
L 687.409702 -283.395681 
L 685.21736 -282.4849 
L 682.991027 -281.911824 
L 680.729631 -277.409082 
L 678.432052 -272.660737 
L 676.097112 -272.169529 
L 673.723577 -263.409651 
L 671.310148 -258.579438 
L 668.855462 -258.08823 
L 666.358084 -258.170098 
L 663.816502 -256.123397 
L 661.229123 -255.468453 
L 658.594267 -255.468453 
L 655.910158 -255.468453 
L 653.174921 -255.468453 
L 650.386568 -255.468453 
L 647.542997 -255.468453 
L 644.641977 -253.831093 
L 641.681137 -252.848676 
L 638.65796 -251.375052 
L 635.569763 -251.04758 
L 632.413688 -251.04758 
L 629.186684 -250.720108 
L 625.885489 -250.556372 
L 622.506613 -244.334402 
L 619.046309 -243.351986 
L 615.500558 -243.351986 
L 611.865031 -242.533306 
L 608.135065 -242.36957 
L 604.305621 -241.039214 
L 600.371248 -239.831661 
L 596.326033 -238.603641 
L 592.16355 -237.130016 
L 587.876794 -230.601042 
L 583.458119 -227.715194 
L 578.899144 -222.884981 
L 574.190669 -220.42894 
L 569.322554 -219.937732 
L 564.283594 -219.61026 
L 559.061359 -216.171803 
L 553.642013 -213.400571 
L 548.01009 -212.56961 
L 542.14823 -211.587194 
L 536.036855 -210.768514 
L 529.653776 -209.949834 
L 522.973705 -204.910857 
L 515.96765 -204.382808 
L 508.602157 -203.727864 
L 500.83834 -200.944352 
L 492.630642 -199.061387 
L 483.925211 -198.160839 
L 474.657761 -195.868534 
L 464.750686 -195.049854 
L 454.109105 -192.757549 
L 442.615322 -191.283925 
L 430.120868 -188.827885 
L 416.434742 -187.026788 
L 401.305433 -177.550565 
L 384.392303 -171.471864 
L 365.217778 -168.688352 
L 343.082414 -163.557273 
L 316.901835 -152.969692 
L 284.859395 -140.19828 
L 243.549506 -131.847742 
L 185.326487 -109.252169 
L 85.79358 -72.084088 
z
" id="m397bde49cc" style="stroke:#98df8a;stroke-opacity:0.2;"/>
    </defs>
    <g clip-path="url(#pbed81c7978)">
     <use style="fill:#98df8a;fill-opacity:0.2;stroke:#98df8a;stroke-opacity:0.2;" x="0" xlink:href="#m397bde49cc" y="325.986375"/>
    </g>
   </g>
   <g id="PolyCollection_2">
    <defs>
     <path d="M 85.79358 -89.276372 
L 85.79358 -57.184108 
L 185.326487 -89.194504 
L 243.549506 -105.977448 
L 284.859395 -116.292819 
L 316.901835 -125.625773 
L 343.082414 -135.941143 
L 365.217778 -150.286467 
L 384.392303 -150.922991 
L 401.305433 -157.636169 
L 416.434742 -166.723519 
L 430.120868 -166.477915 
L 442.615322 -170.980656 
L 454.109105 -174.359759 
L 464.750686 -174.910321 
L 474.657761 -176.543588 
L 483.925211 -179.49493 
L 492.630642 -182.114707 
L 500.83834 -183.178991 
L 508.602157 -192.102605 
L 515.96765 -196.359742 
L 522.973705 -196.523478 
L 529.653776 -198.815783 
L 536.036855 -199.798199 
L 542.14823 -200.289407 
L 548.01009 -200.453143 
L 553.642013 -202.090504 
L 559.061359 -202.745448 
L 564.283594 -202.909184 
L 569.322554 -202.909184 
L 574.190669 -204.055336 
L 578.899144 -204.108551 
L 583.458119 -204.874016 
L 587.876794 -204.874016 
L 592.16355 -204.874016 
L 596.326033 -206.347641 
L 600.371248 -208.148737 
L 604.305621 -208.476209 
L 608.135065 -208.476209 
L 611.865031 -210.768514 
L 615.500558 -210.768514 
L 619.046309 -210.768514 
L 622.506613 -210.936343 
L 625.885489 -211.095986 
L 629.186684 -211.095986 
L 632.413688 -211.423458 
L 635.569763 -206.756981 
L 638.65796 -211.423458 
L 641.681137 -220.592676 
L 644.641977 -222.721245 
L 647.542997 -223.867397 
L 650.386568 -226.896514 
L 653.174921 -225.42289 
L 655.910158 -227.633326 
L 658.594267 -228.228916 
L 661.229123 -233.527824 
L 663.816502 -231.562991 
L 666.358084 -232.054199 
L 668.855462 -232.545407 
L 671.310148 -234.837712 
L 673.723577 -233.036615 
L 676.097112 -232.217935 
L 678.432052 -233.937164 
L 680.729631 -234.346504 
L 682.991027 -234.346504 
L 685.21736 -234.837712 
L 687.409702 -237.211885 
L 689.569076 -237.391994 
L 691.696457 -237.391994 
L 693.792781 -235.410788 
L 695.858941 -236.475072 
L 697.895793 -243.18825 
L 699.904156 -245.398687 
L 701.884817 -247.281651 
L 703.838529 -249.082747 
L 705.766016 -249.082747 
L 707.667973 -249.573956 
L 709.545067 -250.380356 
L 711.397939 -250.147032 
L 713.227208 -250.392636 
L 715.033466 -250.392636 
L 716.817286 -250.392636 
L 718.579217 -250.556372 
L 720.319792 -250.720108 
L 722.03952 -251.04758 
L 723.738897 -251.04758 
L 725.418397 -250.965712 
L 727.078481 -252.2756 
L 728.719591 -252.357468 
L 730.342158 -252.521204 
L 731.946595 -252.603072 
L 733.533304 -252.603072 
L 735.10267 -253.258016 
L 735.10267 -265.94756 
L 735.10267 -265.94756 
L 733.533304 -266.275032 
L 731.946595 -266.275032 
L 730.342158 -266.193164 
L 728.719591 -265.292615 
L 727.078481 -264.637671 
L 725.418397 -266.193164 
L 723.738897 -266.193164 
L 722.03952 -264.146463 
L 720.319792 -265.865692 
L 718.579217 -264.015474 
L 716.817286 -263.982727 
L 715.033466 -263.374857 
L 713.227208 -262.036315 
L 711.397939 -263.655255 
L 709.545067 -261.362951 
L 707.667973 -262.509103 
L 705.766016 -257.760758 
L 703.838529 -261.854159 
L 701.884817 -257.629769 
L 699.904156 -261.199214 
L 697.895793 -261.039572 
L 695.858941 -257.597022 
L 693.792781 -261.117346 
L 691.696457 -260.462402 
L 689.569076 -260.380534 
L 687.409702 -258.450496 
L 685.21736 -259.807458 
L 682.991027 -259.807458 
L 680.729631 -257.67889 
L 678.432052 -259.479986 
L 676.097112 -259.152514 
L 673.723577 -256.450869 
L 671.310148 -256.123397 
L 668.855462 -256.123397 
L 666.358084 -255.959661 
L 663.816502 -255.795925 
L 661.229123 -255.632189 
L 658.594267 -255.468453 
L 655.910158 -255.304717 
L 653.174921 -254.567905 
L 650.386568 -254.322301 
L 647.542997 -253.994829 
L 644.641977 -253.339885 
L 641.681137 -253.176148 
L 638.65796 -252.357468 
L 635.569763 -251.549022 
L 632.413688 -251.784392 
L 629.186684 -251.293184 
L 625.885489 -250.971852 
L 622.506613 -248.100331 
L 619.046309 -250.556372 
L 615.500558 -250.392636 
L 611.865031 -249.000879 
L 608.135065 -247.036047 
L 604.305621 -245.562423 
L 600.371248 -244.661874 
L 596.326033 -244.334402 
L 592.16355 -242.860778 
L 587.876794 -242.042098 
L 583.458119 -241.469022 
L 578.899144 -241.223418 
L 574.190669 -239.258585 
L 569.322554 -239.995397 
L 564.283594 -236.96628 
L 559.061359 -234.371064 
L 553.642013 -234.700583 
L 548.01009 -233.445956 
L 542.14823 -231.562991 
L 536.036855 -232.381671 
L 529.653776 -230.908047 
L 522.973705 -228.452006 
L 515.96765 -226.487174 
L 508.602157 -225.177286 
L 500.83834 -223.867397 
L 492.630642 -221.820697 
L 483.925211 -219.119052 
L 474.657761 -216.171803 
L 464.750686 -216.008067 
L 454.109105 -213.142687 
L 442.615322 -209.458626 
L 430.120868 -205.692697 
L 416.434742 -199.634463 
L 401.305433 -195.62293 
L 384.392303 -193.085022 
L 365.217778 -185.225692 
L 343.082414 -172.781753 
L 316.901835 -164.922423 
L 284.859395 -151.659803 
L 243.549506 -138.888392 
L 185.326487 -127.590605 
L 85.79358 -89.276372 
z
" id="m31f3bae792" style="stroke:#1f77b4;stroke-opacity:0.2;"/>
    </defs>
    <g clip-path="url(#pbed81c7978)">
     <use style="fill:#1f77b4;fill-opacity:0.2;stroke:#1f77b4;stroke-opacity:0.2;" x="0" xlink:href="#m31f3bae792" y="325.986375"/>
    </g>
   </g>
   <g id="matplotlib.axis_1">
    <g id="xtick_1">
     <g id="line2d_1">
      <defs>
       <path d="M 0 0 
L 0 3.5 
" id="mc12a28a701" style="stroke:#000000;stroke-width:0.8;"/>
      </defs>
      <g>
       <use style="stroke:#000000;stroke-width:0.8;" x="85.79358" xlink:href="#mc12a28a701" y="288.430125"/>
      </g>
     </g>
     <g id="text_1">
      <!-- 14m -->
      <g transform="translate(74.560767 303.028562)scale(0.1 -0.1)">
       <defs>
        <path d="M 794 531 
L 1825 531 
L 1825 4091 
L 703 3866 
L 703 4441 
L 1819 4666 
L 2450 4666 
L 2450 531 
L 3481 531 
L 3481 0 
L 794 0 
L 794 531 
z
" id="DejaVuSans-31" transform="scale(0.015625)"/>
        <path d="M 2419 4116 
L 825 1625 
L 2419 1625 
L 2419 4116 
z
M 2253 4666 
L 3047 4666 
L 3047 1625 
L 3713 1625 
L 3713 1100 
L 3047 1100 
L 3047 0 
L 2419 0 
L 2419 1100 
L 313 1100 
L 313 1709 
L 2253 4666 
z
" id="DejaVuSans-34" transform="scale(0.015625)"/>
        <path d="M 3328 2828 
Q 3544 3216 3844 3400 
Q 4144 3584 4550 3584 
Q 5097 3584 5394 3201 
Q 5691 2819 5691 2113 
L 5691 0 
L 5113 0 
L 5113 2094 
Q 5113 2597 4934 2840 
Q 4756 3084 4391 3084 
Q 3944 3084 3684 2787 
Q 3425 2491 3425 1978 
L 3425 0 
L 2847 0 
L 2847 2094 
Q 2847 2600 2669 2842 
Q 2491 3084 2119 3084 
Q 1678 3084 1418 2786 
Q 1159 2488 1159 1978 
L 1159 0 
L 581 0 
L 581 3500 
L 1159 3500 
L 1159 2956 
Q 1356 3278 1631 3431 
Q 1906 3584 2284 3584 
Q 2666 3584 2933 3390 
Q 3200 3197 3328 2828 
z
" id="DejaVuSans-6d" transform="scale(0.015625)"/>
       </defs>
       <use xlink:href="#DejaVuSans-31"/>
       <use x="63.623047" xlink:href="#DejaVuSans-34"/>
       <use x="127.246094" xlink:href="#DejaVuSans-6d"/>
      </g>
     </g>
    </g>
    <g id="xtick_2">
     <g id="line2d_2">
      <g>
       <use style="stroke:#000000;stroke-width:0.8;" x="144.821836" xlink:href="#mc12a28a701" y="288.430125"/>
      </g>
     </g>
     <g id="text_2">
      <!-- 22m -->
      <g transform="translate(133.589024 303.028562)scale(0.1 -0.1)">
       <defs>
        <path d="M 1228 531 
L 3431 531 
L 3431 0 
L 469 0 
L 469 531 
Q 828 903 1448 1529 
Q 2069 2156 2228 2338 
Q 2531 2678 2651 2914 
Q 2772 3150 2772 3378 
Q 2772 3750 2511 3984 
Q 2250 4219 1831 4219 
Q 1534 4219 1204 4116 
Q 875 4013 500 3803 
L 500 4441 
Q 881 4594 1212 4672 
Q 1544 4750 1819 4750 
Q 2544 4750 2975 4387 
Q 3406 4025 3406 3419 
Q 3406 3131 3298 2873 
Q 3191 2616 2906 2266 
Q 2828 2175 2409 1742 
Q 1991 1309 1228 531 
z
" id="DejaVuSans-32" transform="scale(0.015625)"/>
       </defs>
       <use xlink:href="#DejaVuSans-32"/>
       <use x="63.623047" xlink:href="#DejaVuSans-32"/>
       <use x="127.246094" xlink:href="#DejaVuSans-6d"/>
      </g>
     </g>
    </g>
    <g id="xtick_3">
     <g id="line2d_3">
      <g>
       <use style="stroke:#000000;stroke-width:0.8;" x="203.850093" xlink:href="#mc12a28a701" y="288.430125"/>
      </g>
     </g>
     <g id="text_3">
      <!-- 34m -->
      <g transform="translate(192.617281 303.028562)scale(0.1 -0.1)">
       <defs>
        <path d="M 2597 2516 
Q 3050 2419 3304 2112 
Q 3559 1806 3559 1356 
Q 3559 666 3084 287 
Q 2609 -91 1734 -91 
Q 1441 -91 1130 -33 
Q 819 25 488 141 
L 488 750 
Q 750 597 1062 519 
Q 1375 441 1716 441 
Q 2309 441 2620 675 
Q 2931 909 2931 1356 
Q 2931 1769 2642 2001 
Q 2353 2234 1838 2234 
L 1294 2234 
L 1294 2753 
L 1863 2753 
Q 2328 2753 2575 2939 
Q 2822 3125 2822 3475 
Q 2822 3834 2567 4026 
Q 2313 4219 1838 4219 
Q 1578 4219 1281 4162 
Q 984 4106 628 3988 
L 628 4550 
Q 988 4650 1302 4700 
Q 1616 4750 1894 4750 
Q 2613 4750 3031 4423 
Q 3450 4097 3450 3541 
Q 3450 3153 3228 2886 
Q 3006 2619 2597 2516 
z
" id="DejaVuSans-33" transform="scale(0.015625)"/>
       </defs>
       <use xlink:href="#DejaVuSans-33"/>
       <use x="63.623047" xlink:href="#DejaVuSans-34"/>
       <use x="127.246094" xlink:href="#DejaVuSans-6d"/>
      </g>
     </g>
    </g>
    <g id="xtick_4">
     <g id="line2d_4">
      <g>
       <use style="stroke:#000000;stroke-width:0.8;" x="262.87835" xlink:href="#mc12a28a701" y="288.430125"/>
      </g>
     </g>
     <g id="text_4">
      <!-- 51m -->
      <g transform="translate(251.645538 303.028562)scale(0.1 -0.1)">
       <defs>
        <path d="M 691 4666 
L 3169 4666 
L 3169 4134 
L 1269 4134 
L 1269 2991 
Q 1406 3038 1543 3061 
Q 1681 3084 1819 3084 
Q 2600 3084 3056 2656 
Q 3513 2228 3513 1497 
Q 3513 744 3044 326 
Q 2575 -91 1722 -91 
Q 1428 -91 1123 -41 
Q 819 9 494 109 
L 494 744 
Q 775 591 1075 516 
Q 1375 441 1709 441 
Q 2250 441 2565 725 
Q 2881 1009 2881 1497 
Q 2881 1984 2565 2268 
Q 2250 2553 1709 2553 
Q 1456 2553 1204 2497 
Q 953 2441 691 2322 
L 691 4666 
z
" id="DejaVuSans-35" transform="scale(0.015625)"/>
       </defs>
       <use xlink:href="#DejaVuSans-35"/>
       <use x="63.623047" xlink:href="#DejaVuSans-31"/>
       <use x="127.246094" xlink:href="#DejaVuSans-6d"/>
      </g>
     </g>
    </g>
    <g id="xtick_5">
     <g id="line2d_5">
      <g>
       <use style="stroke:#000000;stroke-width:0.8;" x="321.906607" xlink:href="#mc12a28a701" y="288.430125"/>
      </g>
     </g>
     <g id="text_5">
      <!-- 1h:17m -->
      <g transform="translate(302.639419 303.028562)scale(0.1 -0.1)">
       <defs>
        <path d="M 3513 2113 
L 3513 0 
L 2938 0 
L 2938 2094 
Q 2938 2591 2744 2837 
Q 2550 3084 2163 3084 
Q 1697 3084 1428 2787 
Q 1159 2491 1159 1978 
L 1159 0 
L 581 0 
L 581 4863 
L 1159 4863 
L 1159 2956 
Q 1366 3272 1645 3428 
Q 1925 3584 2291 3584 
Q 2894 3584 3203 3211 
Q 3513 2838 3513 2113 
z
" id="DejaVuSans-68" transform="scale(0.015625)"/>
        <path d="M 750 794 
L 1409 794 
L 1409 0 
L 750 0 
L 750 794 
z
M 750 3309 
L 1409 3309 
L 1409 2516 
L 750 2516 
L 750 3309 
z
" id="DejaVuSans-3a" transform="scale(0.015625)"/>
        <path d="M 525 4666 
L 3525 4666 
L 3525 4397 
L 1831 0 
L 1172 0 
L 2766 4134 
L 525 4134 
L 525 4666 
z
" id="DejaVuSans-37" transform="scale(0.015625)"/>
       </defs>
       <use xlink:href="#DejaVuSans-31"/>
       <use x="63.623047" xlink:href="#DejaVuSans-68"/>
       <use x="127.001953" xlink:href="#DejaVuSans-3a"/>
       <use x="160.693359" xlink:href="#DejaVuSans-31"/>
       <use x="224.316406" xlink:href="#DejaVuSans-37"/>
       <use x="287.939453" xlink:href="#DejaVuSans-6d"/>
      </g>
     </g>
    </g>
    <g id="xtick_6">
     <g id="line2d_6">
      <g>
       <use style="stroke:#000000;stroke-width:0.8;" x="380.934864" xlink:href="#mc12a28a701" y="288.430125"/>
      </g>
     </g>
     <g id="text_6">
      <!-- 1h:57m -->
      <g transform="translate(361.667676 303.028562)scale(0.1 -0.1)">
       <use xlink:href="#DejaVuSans-31"/>
       <use x="63.623047" xlink:href="#DejaVuSans-68"/>
       <use x="127.001953" xlink:href="#DejaVuSans-3a"/>
       <use x="160.693359" xlink:href="#DejaVuSans-35"/>
       <use x="224.316406" xlink:href="#DejaVuSans-37"/>
       <use x="287.939453" xlink:href="#DejaVuSans-6d"/>
      </g>
     </g>
    </g>
    <g id="xtick_7">
     <g id="line2d_7">
      <g>
       <use style="stroke:#000000;stroke-width:0.8;" x="439.963121" xlink:href="#mc12a28a701" y="288.430125"/>
      </g>
     </g>
     <g id="text_7">
      <!-- 2h:56m -->
      <g transform="translate(420.695933 303.028562)scale(0.1 -0.1)">
       <defs>
        <path d="M 2113 2584 
Q 1688 2584 1439 2293 
Q 1191 2003 1191 1497 
Q 1191 994 1439 701 
Q 1688 409 2113 409 
Q 2538 409 2786 701 
Q 3034 994 3034 1497 
Q 3034 2003 2786 2293 
Q 2538 2584 2113 2584 
z
M 3366 4563 
L 3366 3988 
Q 3128 4100 2886 4159 
Q 2644 4219 2406 4219 
Q 1781 4219 1451 3797 
Q 1122 3375 1075 2522 
Q 1259 2794 1537 2939 
Q 1816 3084 2150 3084 
Q 2853 3084 3261 2657 
Q 3669 2231 3669 1497 
Q 3669 778 3244 343 
Q 2819 -91 2113 -91 
Q 1303 -91 875 529 
Q 447 1150 447 2328 
Q 447 3434 972 4092 
Q 1497 4750 2381 4750 
Q 2619 4750 2861 4703 
Q 3103 4656 3366 4563 
z
" id="DejaVuSans-36" transform="scale(0.015625)"/>
       </defs>
       <use xlink:href="#DejaVuSans-32"/>
       <use x="63.623047" xlink:href="#DejaVuSans-68"/>
       <use x="127.001953" xlink:href="#DejaVuSans-3a"/>
       <use x="160.693359" xlink:href="#DejaVuSans-35"/>
       <use x="224.316406" xlink:href="#DejaVuSans-36"/>
       <use x="287.939453" xlink:href="#DejaVuSans-6d"/>
      </g>
     </g>
    </g>
    <g id="xtick_8">
     <g id="line2d_8">
      <g>
       <use style="stroke:#000000;stroke-width:0.8;" x="498.991377" xlink:href="#mc12a28a701" y="288.430125"/>
      </g>
     </g>
     <g id="text_8">
      <!-- 4h:26m -->
      <g transform="translate(479.72419 303.028562)scale(0.1 -0.1)">
       <use xlink:href="#DejaVuSans-34"/>
       <use x="63.623047" xlink:href="#DejaVuSans-68"/>
       <use x="127.001953" xlink:href="#DejaVuSans-3a"/>
       <use x="160.693359" xlink:href="#DejaVuSans-32"/>
       <use x="224.316406" xlink:href="#DejaVuSans-36"/>
       <use x="287.939453" xlink:href="#DejaVuSans-6d"/>
      </g>
     </g>
    </g>
    <g id="xtick_9">
     <g id="line2d_9">
      <g>
       <use style="stroke:#000000;stroke-width:0.8;" x="558.019634" xlink:href="#mc12a28a701" y="288.430125"/>
      </g>
     </g>
     <g id="text_9">
      <!-- 6h:42m -->
      <g transform="translate(538.752447 303.028562)scale(0.1 -0.1)">
       <use xlink:href="#DejaVuSans-36"/>
       <use x="63.623047" xlink:href="#DejaVuSans-68"/>
       <use x="127.001953" xlink:href="#DejaVuSans-3a"/>
       <use x="160.693359" xlink:href="#DejaVuSans-34"/>
       <use x="224.316406" xlink:href="#DejaVuSans-32"/>
       <use x="287.939453" xlink:href="#DejaVuSans-6d"/>
      </g>
     </g>
    </g>
    <g id="xtick_10">
     <g id="line2d_10">
      <g>
       <use style="stroke:#000000;stroke-width:0.8;" x="617.047891" xlink:href="#mc12a28a701" y="288.430125"/>
      </g>
     </g>
     <g id="text_10">
      <!-- 10h:6m -->
      <g transform="translate(597.780704 303.028562)scale(0.1 -0.1)">
       <defs>
        <path d="M 2034 4250 
Q 1547 4250 1301 3770 
Q 1056 3291 1056 2328 
Q 1056 1369 1301 889 
Q 1547 409 2034 409 
Q 2525 409 2770 889 
Q 3016 1369 3016 2328 
Q 3016 3291 2770 3770 
Q 2525 4250 2034 4250 
z
M 2034 4750 
Q 2819 4750 3233 4129 
Q 3647 3509 3647 2328 
Q 3647 1150 3233 529 
Q 2819 -91 2034 -91 
Q 1250 -91 836 529 
Q 422 1150 422 2328 
Q 422 3509 836 4129 
Q 1250 4750 2034 4750 
z
" id="DejaVuSans-30" transform="scale(0.015625)"/>
       </defs>
       <use xlink:href="#DejaVuSans-31"/>
       <use x="63.623047" xlink:href="#DejaVuSans-30"/>
       <use x="127.246094" xlink:href="#DejaVuSans-68"/>
       <use x="190.625" xlink:href="#DejaVuSans-3a"/>
       <use x="224.316406" xlink:href="#DejaVuSans-36"/>
       <use x="287.939453" xlink:href="#DejaVuSans-6d"/>
      </g>
     </g>
    </g>
    <g id="xtick_11">
     <g id="line2d_11">
      <g>
       <use style="stroke:#000000;stroke-width:0.8;" x="676.076148" xlink:href="#mc12a28a701" y="288.430125"/>
      </g>
     </g>
     <g id="text_11">
      <!-- 15h:14m -->
      <g transform="translate(653.62771 303.028562)scale(0.1 -0.1)">
       <use xlink:href="#DejaVuSans-31"/>
       <use x="63.623047" xlink:href="#DejaVuSans-35"/>
       <use x="127.246094" xlink:href="#DejaVuSans-68"/>
       <use x="190.625" xlink:href="#DejaVuSans-3a"/>
       <use x="224.316406" xlink:href="#DejaVuSans-31"/>
       <use x="287.939453" xlink:href="#DejaVuSans-34"/>
       <use x="351.5625" xlink:href="#DejaVuSans-6d"/>
      </g>
     </g>
    </g>
    <g id="xtick_12">
     <g id="line2d_12">
      <g>
       <use style="stroke:#000000;stroke-width:0.8;" x="735.104405" xlink:href="#mc12a28a701" y="288.430125"/>
      </g>
     </g>
     <g id="text_12">
      <!-- 23h -->
      <g transform="translate(725.573155 303.028562)scale(0.1 -0.1)">
       <use xlink:href="#DejaVuSans-32"/>
       <use x="63.623047" xlink:href="#DejaVuSans-33"/>
       <use x="127.246094" xlink:href="#DejaVuSans-68"/>
      </g>
     </g>
    </g>
    <g id="xtick_13">
     <g id="line2d_13">
      <defs>
       <path d="M 0 0 
L 0 2 
" id="mf10d26796e" style="stroke:#000000;stroke-width:0.6;"/>
      </defs>
      <g>
       <use style="stroke:#000000;stroke-width:0.6;" x="68.88045" xlink:href="#mf10d26796e" y="288.430125"/>
      </g>
     </g>
    </g>
    <g id="xtick_14">
     <g id="line2d_14">
      <g>
       <use style="stroke:#000000;stroke-width:0.6;" x="200.455797" xlink:href="#mf10d26796e" y="288.430125"/>
      </g>
     </g>
    </g>
    <g id="xtick_15">
     <g id="line2d_15">
      <g>
       <use style="stroke:#000000;stroke-width:0.6;" x="258.678816" xlink:href="#mf10d26796e" y="288.430125"/>
      </g>
     </g>
    </g>
    <g id="xtick_16">
     <g id="line2d_16">
      <g>
       <use style="stroke:#000000;stroke-width:0.6;" x="299.988705" xlink:href="#mf10d26796e" y="288.430125"/>
      </g>
     </g>
    </g>
    <g id="xtick_17">
     <g id="line2d_17">
      <g>
       <use style="stroke:#000000;stroke-width:0.6;" x="332.031144" xlink:href="#mf10d26796e" y="288.430125"/>
      </g>
     </g>
    </g>
    <g id="xtick_18">
     <g id="line2d_18">
      <g>
       <use style="stroke:#000000;stroke-width:0.6;" x="358.211724" xlink:href="#mf10d26796e" y="288.430125"/>
      </g>
     </g>
    </g>
    <g id="xtick_19">
     <g id="line2d_19">
      <g>
       <use style="stroke:#000000;stroke-width:0.6;" x="380.347088" xlink:href="#mf10d26796e" y="288.430125"/>
      </g>
     </g>
    </g>
    <g id="xtick_20">
     <g id="line2d_20">
      <g>
       <use style="stroke:#000000;stroke-width:0.6;" x="399.521613" xlink:href="#mf10d26796e" y="288.430125"/>
      </g>
     </g>
    </g>
    <g id="xtick_21">
     <g id="line2d_21">
      <g>
       <use style="stroke:#000000;stroke-width:0.6;" x="416.434742" xlink:href="#mf10d26796e" y="288.430125"/>
      </g>
     </g>
    </g>
    <g id="xtick_22">
     <g id="line2d_22">
      <g>
       <use style="stroke:#000000;stroke-width:0.6;" x="531.09696" xlink:href="#mf10d26796e" y="288.430125"/>
      </g>
     </g>
    </g>
    <g id="xtick_23">
     <g id="line2d_23">
      <g>
       <use style="stroke:#000000;stroke-width:0.6;" x="589.319979" xlink:href="#mf10d26796e" y="288.430125"/>
      </g>
     </g>
    </g>
    <g id="xtick_24">
     <g id="line2d_24">
      <g>
       <use style="stroke:#000000;stroke-width:0.6;" x="630.629868" xlink:href="#mf10d26796e" y="288.430125"/>
      </g>
     </g>
    </g>
    <g id="xtick_25">
     <g id="line2d_25">
      <g>
       <use style="stroke:#000000;stroke-width:0.6;" x="662.672307" xlink:href="#mf10d26796e" y="288.430125"/>
      </g>
     </g>
    </g>
    <g id="xtick_26">
     <g id="line2d_26">
      <g>
       <use style="stroke:#000000;stroke-width:0.6;" x="688.852887" xlink:href="#mf10d26796e" y="288.430125"/>
      </g>
     </g>
    </g>
    <g id="xtick_27">
     <g id="line2d_27">
      <g>
       <use style="stroke:#000000;stroke-width:0.6;" x="710.988251" xlink:href="#mf10d26796e" y="288.430125"/>
      </g>
     </g>
    </g>
    <g id="xtick_28">
     <g id="line2d_28">
      <g>
       <use style="stroke:#000000;stroke-width:0.6;" x="730.162776" xlink:href="#mf10d26796e" y="288.430125"/>
      </g>
     </g>
    </g>
    <g id="xtick_29">
     <g id="line2d_29">
      <g>
       <use style="stroke:#000000;stroke-width:0.6;" x="747.075905" xlink:href="#mf10d26796e" y="288.430125"/>
      </g>
     </g>
    </g>
    <g id="text_13">
     <!-- Time (hour:minute) -->
     <g transform="translate(362.041094 316.706687)scale(0.1 -0.1)">
      <defs>
       <path d="M -19 4666 
L 3928 4666 
L 3928 4134 
L 2272 4134 
L 2272 0 
L 1638 0 
L 1638 4134 
L -19 4134 
L -19 4666 
z
" id="DejaVuSans-54" transform="scale(0.015625)"/>
       <path d="M 603 3500 
L 1178 3500 
L 1178 0 
L 603 0 
L 603 3500 
z
M 603 4863 
L 1178 4863 
L 1178 4134 
L 603 4134 
L 603 4863 
z
" id="DejaVuSans-69" transform="scale(0.015625)"/>
       <path d="M 3597 1894 
L 3597 1613 
L 953 1613 
Q 991 1019 1311 708 
Q 1631 397 2203 397 
Q 2534 397 2845 478 
Q 3156 559 3463 722 
L 3463 178 
Q 3153 47 2828 -22 
Q 2503 -91 2169 -91 
Q 1331 -91 842 396 
Q 353 884 353 1716 
Q 353 2575 817 3079 
Q 1281 3584 2069 3584 
Q 2775 3584 3186 3129 
Q 3597 2675 3597 1894 
z
M 3022 2063 
Q 3016 2534 2758 2815 
Q 2500 3097 2075 3097 
Q 1594 3097 1305 2825 
Q 1016 2553 972 2059 
L 3022 2063 
z
" id="DejaVuSans-65" transform="scale(0.015625)"/>
       <path id="DejaVuSans-20" transform="scale(0.015625)"/>
       <path d="M 1984 4856 
Q 1566 4138 1362 3434 
Q 1159 2731 1159 2009 
Q 1159 1288 1364 580 
Q 1569 -128 1984 -844 
L 1484 -844 
Q 1016 -109 783 600 
Q 550 1309 550 2009 
Q 550 2706 781 3412 
Q 1013 4119 1484 4856 
L 1984 4856 
z
" id="DejaVuSans-28" transform="scale(0.015625)"/>
       <path d="M 1959 3097 
Q 1497 3097 1228 2736 
Q 959 2375 959 1747 
Q 959 1119 1226 758 
Q 1494 397 1959 397 
Q 2419 397 2687 759 
Q 2956 1122 2956 1747 
Q 2956 2369 2687 2733 
Q 2419 3097 1959 3097 
z
M 1959 3584 
Q 2709 3584 3137 3096 
Q 3566 2609 3566 1747 
Q 3566 888 3137 398 
Q 2709 -91 1959 -91 
Q 1206 -91 779 398 
Q 353 888 353 1747 
Q 353 2609 779 3096 
Q 1206 3584 1959 3584 
z
" id="DejaVuSans-6f" transform="scale(0.015625)"/>
       <path d="M 544 1381 
L 544 3500 
L 1119 3500 
L 1119 1403 
Q 1119 906 1312 657 
Q 1506 409 1894 409 
Q 2359 409 2629 706 
Q 2900 1003 2900 1516 
L 2900 3500 
L 3475 3500 
L 3475 0 
L 2900 0 
L 2900 538 
Q 2691 219 2414 64 
Q 2138 -91 1772 -91 
Q 1169 -91 856 284 
Q 544 659 544 1381 
z
M 1991 3584 
L 1991 3584 
z
" id="DejaVuSans-75" transform="scale(0.015625)"/>
       <path d="M 2631 2963 
Q 2534 3019 2420 3045 
Q 2306 3072 2169 3072 
Q 1681 3072 1420 2755 
Q 1159 2438 1159 1844 
L 1159 0 
L 581 0 
L 581 3500 
L 1159 3500 
L 1159 2956 
Q 1341 3275 1631 3429 
Q 1922 3584 2338 3584 
Q 2397 3584 2469 3576 
Q 2541 3569 2628 3553 
L 2631 2963 
z
" id="DejaVuSans-72" transform="scale(0.015625)"/>
       <path d="M 3513 2113 
L 3513 0 
L 2938 0 
L 2938 2094 
Q 2938 2591 2744 2837 
Q 2550 3084 2163 3084 
Q 1697 3084 1428 2787 
Q 1159 2491 1159 1978 
L 1159 0 
L 581 0 
L 581 3500 
L 1159 3500 
L 1159 2956 
Q 1366 3272 1645 3428 
Q 1925 3584 2291 3584 
Q 2894 3584 3203 3211 
Q 3513 2838 3513 2113 
z
" id="DejaVuSans-6e" transform="scale(0.015625)"/>
       <path d="M 1172 4494 
L 1172 3500 
L 2356 3500 
L 2356 3053 
L 1172 3053 
L 1172 1153 
Q 1172 725 1289 603 
Q 1406 481 1766 481 
L 2356 481 
L 2356 0 
L 1766 0 
Q 1100 0 847 248 
Q 594 497 594 1153 
L 594 3053 
L 172 3053 
L 172 3500 
L 594 3500 
L 594 4494 
L 1172 4494 
z
" id="DejaVuSans-74" transform="scale(0.015625)"/>
       <path d="M 513 4856 
L 1013 4856 
Q 1481 4119 1714 3412 
Q 1947 2706 1947 2009 
Q 1947 1309 1714 600 
Q 1481 -109 1013 -844 
L 513 -844 
Q 928 -128 1133 580 
Q 1338 1288 1338 2009 
Q 1338 2731 1133 3434 
Q 928 4138 513 4856 
z
" id="DejaVuSans-29" transform="scale(0.015625)"/>
      </defs>
      <use xlink:href="#DejaVuSans-54"/>
      <use x="57.958984" xlink:href="#DejaVuSans-69"/>
      <use x="85.742188" xlink:href="#DejaVuSans-6d"/>
      <use x="183.154297" xlink:href="#DejaVuSans-65"/>
      <use x="244.677734" xlink:href="#DejaVuSans-20"/>
      <use x="276.464844" xlink:href="#DejaVuSans-28"/>
      <use x="315.478516" xlink:href="#DejaVuSans-68"/>
      <use x="378.857422" xlink:href="#DejaVuSans-6f"/>
      <use x="440.039062" xlink:href="#DejaVuSans-75"/>
      <use x="503.417969" xlink:href="#DejaVuSans-72"/>
      <use x="542.78125" xlink:href="#DejaVuSans-3a"/>
      <use x="576.472656" xlink:href="#DejaVuSans-6d"/>
      <use x="673.884766" xlink:href="#DejaVuSans-69"/>
      <use x="701.667969" xlink:href="#DejaVuSans-6e"/>
      <use x="765.046875" xlink:href="#DejaVuSans-75"/>
      <use x="828.425781" xlink:href="#DejaVuSans-74"/>
      <use x="867.634766" xlink:href="#DejaVuSans-65"/>
      <use x="929.158203" xlink:href="#DejaVuSans-29"/>
     </g>
    </g>
   </g>
   <g id="matplotlib.axis_2">
    <g id="ytick_1">
     <g id="line2d_30">
      <defs>
       <path d="M 0 0 
L -3.5 0 
" id="m23050e67aa" style="stroke:#000000;stroke-width:0.8;"/>
      </defs>
      <g>
       <use style="stroke:#000000;stroke-width:0.8;" x="53.328125" xlink:href="#m23050e67aa" y="256.358328"/>
      </g>
     </g>
     <g id="text_14">
      <!-- 6400 -->
      <g transform="translate(20.878125 260.157547)scale(0.1 -0.1)">
       <use xlink:href="#DejaVuSans-36"/>
       <use x="63.623047" xlink:href="#DejaVuSans-34"/>
       <use x="127.246094" xlink:href="#DejaVuSans-30"/>
       <use x="190.869141" xlink:href="#DejaVuSans-30"/>
      </g>
     </g>
    </g>
    <g id="ytick_2">
     <g id="line2d_31">
      <g>
       <use style="stroke:#000000;stroke-width:0.8;" x="53.328125" xlink:href="#m23050e67aa" y="223.61112"/>
      </g>
     </g>
     <g id="text_15">
      <!-- 6600 -->
      <g transform="translate(20.878125 227.410339)scale(0.1 -0.1)">
       <use xlink:href="#DejaVuSans-36"/>
       <use x="63.623047" xlink:href="#DejaVuSans-36"/>
       <use x="127.246094" xlink:href="#DejaVuSans-30"/>
       <use x="190.869141" xlink:href="#DejaVuSans-30"/>
      </g>
     </g>
    </g>
    <g id="ytick_3">
     <g id="line2d_32">
      <g>
       <use style="stroke:#000000;stroke-width:0.8;" x="53.328125" xlink:href="#m23050e67aa" y="190.863912"/>
      </g>
     </g>
     <g id="text_16">
      <!-- 6800 -->
      <g transform="translate(20.878125 194.663131)scale(0.1 -0.1)">
       <defs>
        <path d="M 2034 2216 
Q 1584 2216 1326 1975 
Q 1069 1734 1069 1313 
Q 1069 891 1326 650 
Q 1584 409 2034 409 
Q 2484 409 2743 651 
Q 3003 894 3003 1313 
Q 3003 1734 2745 1975 
Q 2488 2216 2034 2216 
z
M 1403 2484 
Q 997 2584 770 2862 
Q 544 3141 544 3541 
Q 544 4100 942 4425 
Q 1341 4750 2034 4750 
Q 2731 4750 3128 4425 
Q 3525 4100 3525 3541 
Q 3525 3141 3298 2862 
Q 3072 2584 2669 2484 
Q 3125 2378 3379 2068 
Q 3634 1759 3634 1313 
Q 3634 634 3220 271 
Q 2806 -91 2034 -91 
Q 1263 -91 848 271 
Q 434 634 434 1313 
Q 434 1759 690 2068 
Q 947 2378 1403 2484 
z
M 1172 3481 
Q 1172 3119 1398 2916 
Q 1625 2713 2034 2713 
Q 2441 2713 2670 2916 
Q 2900 3119 2900 3481 
Q 2900 3844 2670 4047 
Q 2441 4250 2034 4250 
Q 1625 4250 1398 4047 
Q 1172 3844 1172 3481 
z
" id="DejaVuSans-38" transform="scale(0.015625)"/>
       </defs>
       <use xlink:href="#DejaVuSans-36"/>
       <use x="63.623047" xlink:href="#DejaVuSans-38"/>
       <use x="127.246094" xlink:href="#DejaVuSans-30"/>
       <use x="190.869141" xlink:href="#DejaVuSans-30"/>
      </g>
     </g>
    </g>
    <g id="ytick_4">
     <g id="line2d_33">
      <g>
       <use style="stroke:#000000;stroke-width:0.8;" x="53.328125" xlink:href="#m23050e67aa" y="158.116704"/>
      </g>
     </g>
     <g id="text_17">
      <!-- 7000 -->
      <g transform="translate(20.878125 161.915922)scale(0.1 -0.1)">
       <use xlink:href="#DejaVuSans-37"/>
       <use x="63.623047" xlink:href="#DejaVuSans-30"/>
       <use x="127.246094" xlink:href="#DejaVuSans-30"/>
       <use x="190.869141" xlink:href="#DejaVuSans-30"/>
      </g>
     </g>
    </g>
    <g id="ytick_5">
     <g id="line2d_34">
      <g>
       <use style="stroke:#000000;stroke-width:0.8;" x="53.328125" xlink:href="#m23050e67aa" y="125.369496"/>
      </g>
     </g>
     <g id="text_18">
      <!-- 7200 -->
      <g transform="translate(20.878125 129.168714)scale(0.1 -0.1)">
       <use xlink:href="#DejaVuSans-37"/>
       <use x="63.623047" xlink:href="#DejaVuSans-32"/>
       <use x="127.246094" xlink:href="#DejaVuSans-30"/>
       <use x="190.869141" xlink:href="#DejaVuSans-30"/>
      </g>
     </g>
    </g>
    <g id="ytick_6">
     <g id="line2d_35">
      <g>
       <use style="stroke:#000000;stroke-width:0.8;" x="53.328125" xlink:href="#m23050e67aa" y="92.622287"/>
      </g>
     </g>
     <g id="text_19">
      <!-- 7400 -->
      <g transform="translate(20.878125 96.421506)scale(0.1 -0.1)">
       <use xlink:href="#DejaVuSans-37"/>
       <use x="63.623047" xlink:href="#DejaVuSans-34"/>
       <use x="127.246094" xlink:href="#DejaVuSans-30"/>
       <use x="190.869141" xlink:href="#DejaVuSans-30"/>
      </g>
     </g>
    </g>
    <g id="ytick_7">
     <g id="line2d_36">
      <g>
       <use style="stroke:#000000;stroke-width:0.8;" x="53.328125" xlink:href="#m23050e67aa" y="59.875079"/>
      </g>
     </g>
     <g id="text_20">
      <!-- 7600 -->
      <g transform="translate(20.878125 63.674298)scale(0.1 -0.1)">
       <use xlink:href="#DejaVuSans-37"/>
       <use x="63.623047" xlink:href="#DejaVuSans-36"/>
       <use x="127.246094" xlink:href="#DejaVuSans-30"/>
       <use x="190.869141" xlink:href="#DejaVuSans-30"/>
      </g>
     </g>
    </g>
    <g id="ytick_8">
     <g id="line2d_37">
      <g>
       <use style="stroke:#000000;stroke-width:0.8;" x="53.328125" xlink:href="#m23050e67aa" y="27.127871"/>
      </g>
     </g>
     <g id="text_21">
      <!-- 7800 -->
      <g transform="translate(20.878125 30.92709)scale(0.1 -0.1)">
       <use xlink:href="#DejaVuSans-37"/>
       <use x="63.623047" xlink:href="#DejaVuSans-38"/>
       <use x="127.246094" xlink:href="#DejaVuSans-30"/>
       <use x="190.869141" xlink:href="#DejaVuSans-30"/>
      </g>
     </g>
    </g>
    <g id="text_22">
     <!-- Code branch coverage -->
     <g transform="translate(14.798438 211.949125)rotate(-90)scale(0.1 -0.1)">
      <defs>
       <path d="M 4122 4306 
L 4122 3641 
Q 3803 3938 3442 4084 
Q 3081 4231 2675 4231 
Q 1875 4231 1450 3742 
Q 1025 3253 1025 2328 
Q 1025 1406 1450 917 
Q 1875 428 2675 428 
Q 3081 428 3442 575 
Q 3803 722 4122 1019 
L 4122 359 
Q 3791 134 3420 21 
Q 3050 -91 2638 -91 
Q 1578 -91 968 557 
Q 359 1206 359 2328 
Q 359 3453 968 4101 
Q 1578 4750 2638 4750 
Q 3056 4750 3426 4639 
Q 3797 4528 4122 4306 
z
" id="DejaVuSans-43" transform="scale(0.015625)"/>
       <path d="M 2906 2969 
L 2906 4863 
L 3481 4863 
L 3481 0 
L 2906 0 
L 2906 525 
Q 2725 213 2448 61 
Q 2172 -91 1784 -91 
Q 1150 -91 751 415 
Q 353 922 353 1747 
Q 353 2572 751 3078 
Q 1150 3584 1784 3584 
Q 2172 3584 2448 3432 
Q 2725 3281 2906 2969 
z
M 947 1747 
Q 947 1113 1208 752 
Q 1469 391 1925 391 
Q 2381 391 2643 752 
Q 2906 1113 2906 1747 
Q 2906 2381 2643 2742 
Q 2381 3103 1925 3103 
Q 1469 3103 1208 2742 
Q 947 2381 947 1747 
z
" id="DejaVuSans-64" transform="scale(0.015625)"/>
       <path d="M 3116 1747 
Q 3116 2381 2855 2742 
Q 2594 3103 2138 3103 
Q 1681 3103 1420 2742 
Q 1159 2381 1159 1747 
Q 1159 1113 1420 752 
Q 1681 391 2138 391 
Q 2594 391 2855 752 
Q 3116 1113 3116 1747 
z
M 1159 2969 
Q 1341 3281 1617 3432 
Q 1894 3584 2278 3584 
Q 2916 3584 3314 3078 
Q 3713 2572 3713 1747 
Q 3713 922 3314 415 
Q 2916 -91 2278 -91 
Q 1894 -91 1617 61 
Q 1341 213 1159 525 
L 1159 0 
L 581 0 
L 581 4863 
L 1159 4863 
L 1159 2969 
z
" id="DejaVuSans-62" transform="scale(0.015625)"/>
       <path d="M 2194 1759 
Q 1497 1759 1228 1600 
Q 959 1441 959 1056 
Q 959 750 1161 570 
Q 1363 391 1709 391 
Q 2188 391 2477 730 
Q 2766 1069 2766 1631 
L 2766 1759 
L 2194 1759 
z
M 3341 1997 
L 3341 0 
L 2766 0 
L 2766 531 
Q 2569 213 2275 61 
Q 1981 -91 1556 -91 
Q 1019 -91 701 211 
Q 384 513 384 1019 
Q 384 1609 779 1909 
Q 1175 2209 1959 2209 
L 2766 2209 
L 2766 2266 
Q 2766 2663 2505 2880 
Q 2244 3097 1772 3097 
Q 1472 3097 1187 3025 
Q 903 2953 641 2809 
L 641 3341 
Q 956 3463 1253 3523 
Q 1550 3584 1831 3584 
Q 2591 3584 2966 3190 
Q 3341 2797 3341 1997 
z
" id="DejaVuSans-61" transform="scale(0.015625)"/>
       <path d="M 3122 3366 
L 3122 2828 
Q 2878 2963 2633 3030 
Q 2388 3097 2138 3097 
Q 1578 3097 1268 2742 
Q 959 2388 959 1747 
Q 959 1106 1268 751 
Q 1578 397 2138 397 
Q 2388 397 2633 464 
Q 2878 531 3122 666 
L 3122 134 
Q 2881 22 2623 -34 
Q 2366 -91 2075 -91 
Q 1284 -91 818 406 
Q 353 903 353 1747 
Q 353 2603 823 3093 
Q 1294 3584 2113 3584 
Q 2378 3584 2631 3529 
Q 2884 3475 3122 3366 
z
" id="DejaVuSans-63" transform="scale(0.015625)"/>
       <path d="M 191 3500 
L 800 3500 
L 1894 563 
L 2988 3500 
L 3597 3500 
L 2284 0 
L 1503 0 
L 191 3500 
z
" id="DejaVuSans-76" transform="scale(0.015625)"/>
       <path d="M 2906 1791 
Q 2906 2416 2648 2759 
Q 2391 3103 1925 3103 
Q 1463 3103 1205 2759 
Q 947 2416 947 1791 
Q 947 1169 1205 825 
Q 1463 481 1925 481 
Q 2391 481 2648 825 
Q 2906 1169 2906 1791 
z
M 3481 434 
Q 3481 -459 3084 -895 
Q 2688 -1331 1869 -1331 
Q 1566 -1331 1297 -1286 
Q 1028 -1241 775 -1147 
L 775 -588 
Q 1028 -725 1275 -790 
Q 1522 -856 1778 -856 
Q 2344 -856 2625 -561 
Q 2906 -266 2906 331 
L 2906 616 
Q 2728 306 2450 153 
Q 2172 0 1784 0 
Q 1141 0 747 490 
Q 353 981 353 1791 
Q 353 2603 747 3093 
Q 1141 3584 1784 3584 
Q 2172 3584 2450 3431 
Q 2728 3278 2906 2969 
L 2906 3500 
L 3481 3500 
L 3481 434 
z
" id="DejaVuSans-67" transform="scale(0.015625)"/>
      </defs>
      <use xlink:href="#DejaVuSans-43"/>
      <use x="69.824219" xlink:href="#DejaVuSans-6f"/>
      <use x="131.005859" xlink:href="#DejaVuSans-64"/>
      <use x="194.482422" xlink:href="#DejaVuSans-65"/>
      <use x="256.005859" xlink:href="#DejaVuSans-20"/>
      <use x="287.792969" xlink:href="#DejaVuSans-62"/>
      <use x="351.269531" xlink:href="#DejaVuSans-72"/>
      <use x="392.382812" xlink:href="#DejaVuSans-61"/>
      <use x="453.662109" xlink:href="#DejaVuSans-6e"/>
      <use x="517.041016" xlink:href="#DejaVuSans-63"/>
      <use x="572.021484" xlink:href="#DejaVuSans-68"/>
      <use x="635.400391" xlink:href="#DejaVuSans-20"/>
      <use x="667.1875" xlink:href="#DejaVuSans-63"/>
      <use x="722.167969" xlink:href="#DejaVuSans-6f"/>
      <use x="783.349609" xlink:href="#DejaVuSans-76"/>
      <use x="842.529297" xlink:href="#DejaVuSans-65"/>
      <use x="904.052734" xlink:href="#DejaVuSans-72"/>
      <use x="945.166016" xlink:href="#DejaVuSans-61"/>
      <use x="1006.445312" xlink:href="#DejaVuSans-67"/>
      <use x="1069.921875" xlink:href="#DejaVuSans-65"/>
     </g>
    </g>
   </g>
   <g id="line2d_38">
    <path clip-path="url(#pbed81c7978)" d="M 85.79358 266.428095 
L 185.326487 226.067161 
L 243.549506 207.155648 
L 284.859395 191.846328 
L 316.901835 179.811729 
L 343.082414 170.069435 
L 365.217778 162.046369 
L 384.392303 159.262856 
L 401.305433 153.941435 
L 416.434742 149.929902 
L 430.120868 145.099688 
L 442.615322 143.626064 
L 454.109105 141.415628 
L 464.750686 139.450795 
L 474.657761 134.374978 
L 483.925211 131.591465 
L 492.630642 128.398612 
L 500.83834 126.761252 
L 508.602157 124.550815 
L 515.96765 122.995323 
L 522.973705 121.357963 
L 529.653776 119.474998 
L 536.036855 117.182694 
L 542.14823 117.100826 
L 548.01009 115.709069 
L 553.642013 114.808521 
L 559.061359 113.580501 
L 564.283594 113.416765 
L 569.322554 110.223912 
L 574.190669 106.949191 
L 578.899144 105.311831 
L 583.458119 102.610186 
L 587.876794 101.791506 
L 592.16355 101.545902 
L 596.326033 100.563485 
L 600.371248 99.826673 
L 604.305621 99.417333 
L 608.135065 98.353049 
L 611.865031 97.861841 
L 615.500558 97.288765 
L 619.046309 96.797556 
L 622.506613 96.060744 
L 625.885489 95.733272 
L 629.186684 95.733272 
L 632.413688 95.651404 
L 635.569763 95.651404 
L 638.65796 95.4058 
L 641.681137 94.832724 
L 644.641977 94.505252 
L 647.542997 94.341516 
L 650.386568 93.850308 
L 653.174921 93.850308 
L 655.910158 93.76844 
L 658.594267 90.821191 
L 661.229123 90.411851 
L 663.816502 89.838775 
L 666.358084 89.838775 
L 668.855462 89.756907 
L 671.310148 89.429435 
L 673.723577 78.213516 
L 676.097112 77.804176 
L 678.432052 77.64044 
L 680.729631 77.64044 
L 682.991027 77.312968 
L 685.21736 76.084947 
L 687.409702 71.336602 
L 689.569076 71.254734 
L 691.696457 71.090998 
L 693.792781 70.436054 
L 695.858941 69.699242 
L 697.895793 69.289902 
L 699.904156 68.389353 
L 701.884817 68.389353 
L 703.838529 68.143749 
L 705.766016 68.061881 
L 707.667973 68.061881 
L 709.545067 67.406937 
L 711.397939 67.406937 
L 713.227208 67.406937 
L 715.033466 66.833861 
L 716.817286 66.260785 
L 718.579217 65.851445 
L 720.319792 65.851445 
L 722.03952 65.687709 
L 723.738897 65.605841 
L 725.418397 65.523973 
L 727.078481 65.523973 
L 728.719591 65.523973 
L 730.342158 65.523973 
L 731.946595 65.442105 
L 733.533304 65.442105 
L 735.10267 65.360237 
" style="fill:none;stroke:#98df8a;stroke-linecap:square;stroke-width:1.5;"/>
    <defs>
     <path d="M -0 3 
L 3 -3 
L -3 -3 
z
" id="m2d73d7c6ee" style="stroke:#ffffff;stroke-linejoin:miter;stroke-width:0.75;"/>
    </defs>
    <g clip-path="url(#pbed81c7978)">
     <use style="fill:#98df8a;stroke:#ffffff;stroke-linejoin:miter;stroke-width:0.75;" x="85.79358" xlink:href="#m2d73d7c6ee" y="266.428095"/>
     <use style="fill:#98df8a;stroke:#ffffff;stroke-linejoin:miter;stroke-width:0.75;" x="185.326487" xlink:href="#m2d73d7c6ee" y="226.067161"/>
     <use style="fill:#98df8a;stroke:#ffffff;stroke-linejoin:miter;stroke-width:0.75;" x="243.549506" xlink:href="#m2d73d7c6ee" y="207.155648"/>
     <use style="fill:#98df8a;stroke:#ffffff;stroke-linejoin:miter;stroke-width:0.75;" x="284.859395" xlink:href="#m2d73d7c6ee" y="191.846328"/>
     <use style="fill:#98df8a;stroke:#ffffff;stroke-linejoin:miter;stroke-width:0.75;" x="316.901835" xlink:href="#m2d73d7c6ee" y="179.811729"/>
     <use style="fill:#98df8a;stroke:#ffffff;stroke-linejoin:miter;stroke-width:0.75;" x="343.082414" xlink:href="#m2d73d7c6ee" y="170.069435"/>
     <use style="fill:#98df8a;stroke:#ffffff;stroke-linejoin:miter;stroke-width:0.75;" x="365.217778" xlink:href="#m2d73d7c6ee" y="162.046369"/>
     <use style="fill:#98df8a;stroke:#ffffff;stroke-linejoin:miter;stroke-width:0.75;" x="384.392303" xlink:href="#m2d73d7c6ee" y="159.262856"/>
     <use style="fill:#98df8a;stroke:#ffffff;stroke-linejoin:miter;stroke-width:0.75;" x="401.305433" xlink:href="#m2d73d7c6ee" y="153.941435"/>
     <use style="fill:#98df8a;stroke:#ffffff;stroke-linejoin:miter;stroke-width:0.75;" x="416.434742" xlink:href="#m2d73d7c6ee" y="149.929902"/>
     <use style="fill:#98df8a;stroke:#ffffff;stroke-linejoin:miter;stroke-width:0.75;" x="430.120868" xlink:href="#m2d73d7c6ee" y="145.099688"/>
     <use style="fill:#98df8a;stroke:#ffffff;stroke-linejoin:miter;stroke-width:0.75;" x="442.615322" xlink:href="#m2d73d7c6ee" y="143.626064"/>
     <use style="fill:#98df8a;stroke:#ffffff;stroke-linejoin:miter;stroke-width:0.75;" x="454.109105" xlink:href="#m2d73d7c6ee" y="141.415628"/>
     <use style="fill:#98df8a;stroke:#ffffff;stroke-linejoin:miter;stroke-width:0.75;" x="464.750686" xlink:href="#m2d73d7c6ee" y="139.450795"/>
     <use style="fill:#98df8a;stroke:#ffffff;stroke-linejoin:miter;stroke-width:0.75;" x="474.657761" xlink:href="#m2d73d7c6ee" y="134.374978"/>
     <use style="fill:#98df8a;stroke:#ffffff;stroke-linejoin:miter;stroke-width:0.75;" x="483.925211" xlink:href="#m2d73d7c6ee" y="131.591465"/>
     <use style="fill:#98df8a;stroke:#ffffff;stroke-linejoin:miter;stroke-width:0.75;" x="492.630642" xlink:href="#m2d73d7c6ee" y="128.398612"/>
     <use style="fill:#98df8a;stroke:#ffffff;stroke-linejoin:miter;stroke-width:0.75;" x="500.83834" xlink:href="#m2d73d7c6ee" y="126.761252"/>
     <use style="fill:#98df8a;stroke:#ffffff;stroke-linejoin:miter;stroke-width:0.75;" x="508.602157" xlink:href="#m2d73d7c6ee" y="124.550815"/>
     <use style="fill:#98df8a;stroke:#ffffff;stroke-linejoin:miter;stroke-width:0.75;" x="515.96765" xlink:href="#m2d73d7c6ee" y="122.995323"/>
     <use style="fill:#98df8a;stroke:#ffffff;stroke-linejoin:miter;stroke-width:0.75;" x="522.973705" xlink:href="#m2d73d7c6ee" y="121.357963"/>
     <use style="fill:#98df8a;stroke:#ffffff;stroke-linejoin:miter;stroke-width:0.75;" x="529.653776" xlink:href="#m2d73d7c6ee" y="119.474998"/>
     <use style="fill:#98df8a;stroke:#ffffff;stroke-linejoin:miter;stroke-width:0.75;" x="536.036855" xlink:href="#m2d73d7c6ee" y="117.182694"/>
     <use style="fill:#98df8a;stroke:#ffffff;stroke-linejoin:miter;stroke-width:0.75;" x="542.14823" xlink:href="#m2d73d7c6ee" y="117.100826"/>
     <use style="fill:#98df8a;stroke:#ffffff;stroke-linejoin:miter;stroke-width:0.75;" x="548.01009" xlink:href="#m2d73d7c6ee" y="115.709069"/>
     <use style="fill:#98df8a;stroke:#ffffff;stroke-linejoin:miter;stroke-width:0.75;" x="553.642013" xlink:href="#m2d73d7c6ee" y="114.808521"/>
     <use style="fill:#98df8a;stroke:#ffffff;stroke-linejoin:miter;stroke-width:0.75;" x="559.061359" xlink:href="#m2d73d7c6ee" y="113.580501"/>
     <use style="fill:#98df8a;stroke:#ffffff;stroke-linejoin:miter;stroke-width:0.75;" x="564.283594" xlink:href="#m2d73d7c6ee" y="113.416765"/>
     <use style="fill:#98df8a;stroke:#ffffff;stroke-linejoin:miter;stroke-width:0.75;" x="569.322554" xlink:href="#m2d73d7c6ee" y="110.223912"/>
     <use style="fill:#98df8a;stroke:#ffffff;stroke-linejoin:miter;stroke-width:0.75;" x="574.190669" xlink:href="#m2d73d7c6ee" y="106.949191"/>
     <use style="fill:#98df8a;stroke:#ffffff;stroke-linejoin:miter;stroke-width:0.75;" x="578.899144" xlink:href="#m2d73d7c6ee" y="105.311831"/>
     <use style="fill:#98df8a;stroke:#ffffff;stroke-linejoin:miter;stroke-width:0.75;" x="583.458119" xlink:href="#m2d73d7c6ee" y="102.610186"/>
     <use style="fill:#98df8a;stroke:#ffffff;stroke-linejoin:miter;stroke-width:0.75;" x="587.876794" xlink:href="#m2d73d7c6ee" y="101.791506"/>
     <use style="fill:#98df8a;stroke:#ffffff;stroke-linejoin:miter;stroke-width:0.75;" x="592.16355" xlink:href="#m2d73d7c6ee" y="101.545902"/>
     <use style="fill:#98df8a;stroke:#ffffff;stroke-linejoin:miter;stroke-width:0.75;" x="596.326033" xlink:href="#m2d73d7c6ee" y="100.563485"/>
     <use style="fill:#98df8a;stroke:#ffffff;stroke-linejoin:miter;stroke-width:0.75;" x="600.371248" xlink:href="#m2d73d7c6ee" y="99.826673"/>
     <use style="fill:#98df8a;stroke:#ffffff;stroke-linejoin:miter;stroke-width:0.75;" x="604.305621" xlink:href="#m2d73d7c6ee" y="99.417333"/>
     <use style="fill:#98df8a;stroke:#ffffff;stroke-linejoin:miter;stroke-width:0.75;" x="608.135065" xlink:href="#m2d73d7c6ee" y="98.353049"/>
     <use style="fill:#98df8a;stroke:#ffffff;stroke-linejoin:miter;stroke-width:0.75;" x="611.865031" xlink:href="#m2d73d7c6ee" y="97.861841"/>
     <use style="fill:#98df8a;stroke:#ffffff;stroke-linejoin:miter;stroke-width:0.75;" x="615.500558" xlink:href="#m2d73d7c6ee" y="97.288765"/>
     <use style="fill:#98df8a;stroke:#ffffff;stroke-linejoin:miter;stroke-width:0.75;" x="619.046309" xlink:href="#m2d73d7c6ee" y="96.797556"/>
     <use style="fill:#98df8a;stroke:#ffffff;stroke-linejoin:miter;stroke-width:0.75;" x="622.506613" xlink:href="#m2d73d7c6ee" y="96.060744"/>
     <use style="fill:#98df8a;stroke:#ffffff;stroke-linejoin:miter;stroke-width:0.75;" x="625.885489" xlink:href="#m2d73d7c6ee" y="95.733272"/>
     <use style="fill:#98df8a;stroke:#ffffff;stroke-linejoin:miter;stroke-width:0.75;" x="629.186684" xlink:href="#m2d73d7c6ee" y="95.733272"/>
     <use style="fill:#98df8a;stroke:#ffffff;stroke-linejoin:miter;stroke-width:0.75;" x="632.413688" xlink:href="#m2d73d7c6ee" y="95.651404"/>
     <use style="fill:#98df8a;stroke:#ffffff;stroke-linejoin:miter;stroke-width:0.75;" x="635.569763" xlink:href="#m2d73d7c6ee" y="95.651404"/>
     <use style="fill:#98df8a;stroke:#ffffff;stroke-linejoin:miter;stroke-width:0.75;" x="638.65796" xlink:href="#m2d73d7c6ee" y="95.4058"/>
     <use style="fill:#98df8a;stroke:#ffffff;stroke-linejoin:miter;stroke-width:0.75;" x="641.681137" xlink:href="#m2d73d7c6ee" y="94.832724"/>
     <use style="fill:#98df8a;stroke:#ffffff;stroke-linejoin:miter;stroke-width:0.75;" x="644.641977" xlink:href="#m2d73d7c6ee" y="94.505252"/>
     <use style="fill:#98df8a;stroke:#ffffff;stroke-linejoin:miter;stroke-width:0.75;" x="647.542997" xlink:href="#m2d73d7c6ee" y="94.341516"/>
     <use style="fill:#98df8a;stroke:#ffffff;stroke-linejoin:miter;stroke-width:0.75;" x="650.386568" xlink:href="#m2d73d7c6ee" y="93.850308"/>
     <use style="fill:#98df8a;stroke:#ffffff;stroke-linejoin:miter;stroke-width:0.75;" x="653.174921" xlink:href="#m2d73d7c6ee" y="93.850308"/>
     <use style="fill:#98df8a;stroke:#ffffff;stroke-linejoin:miter;stroke-width:0.75;" x="655.910158" xlink:href="#m2d73d7c6ee" y="93.76844"/>
     <use style="fill:#98df8a;stroke:#ffffff;stroke-linejoin:miter;stroke-width:0.75;" x="658.594267" xlink:href="#m2d73d7c6ee" y="90.821191"/>
     <use style="fill:#98df8a;stroke:#ffffff;stroke-linejoin:miter;stroke-width:0.75;" x="661.229123" xlink:href="#m2d73d7c6ee" y="90.411851"/>
     <use style="fill:#98df8a;stroke:#ffffff;stroke-linejoin:miter;stroke-width:0.75;" x="663.816502" xlink:href="#m2d73d7c6ee" y="89.838775"/>
     <use style="fill:#98df8a;stroke:#ffffff;stroke-linejoin:miter;stroke-width:0.75;" x="666.358084" xlink:href="#m2d73d7c6ee" y="89.838775"/>
     <use style="fill:#98df8a;stroke:#ffffff;stroke-linejoin:miter;stroke-width:0.75;" x="668.855462" xlink:href="#m2d73d7c6ee" y="89.756907"/>
     <use style="fill:#98df8a;stroke:#ffffff;stroke-linejoin:miter;stroke-width:0.75;" x="671.310148" xlink:href="#m2d73d7c6ee" y="89.429435"/>
     <use style="fill:#98df8a;stroke:#ffffff;stroke-linejoin:miter;stroke-width:0.75;" x="673.723577" xlink:href="#m2d73d7c6ee" y="78.213516"/>
     <use style="fill:#98df8a;stroke:#ffffff;stroke-linejoin:miter;stroke-width:0.75;" x="676.097112" xlink:href="#m2d73d7c6ee" y="77.804176"/>
     <use style="fill:#98df8a;stroke:#ffffff;stroke-linejoin:miter;stroke-width:0.75;" x="678.432052" xlink:href="#m2d73d7c6ee" y="77.64044"/>
     <use style="fill:#98df8a;stroke:#ffffff;stroke-linejoin:miter;stroke-width:0.75;" x="680.729631" xlink:href="#m2d73d7c6ee" y="77.64044"/>
     <use style="fill:#98df8a;stroke:#ffffff;stroke-linejoin:miter;stroke-width:0.75;" x="682.991027" xlink:href="#m2d73d7c6ee" y="77.312968"/>
     <use style="fill:#98df8a;stroke:#ffffff;stroke-linejoin:miter;stroke-width:0.75;" x="685.21736" xlink:href="#m2d73d7c6ee" y="76.084947"/>
     <use style="fill:#98df8a;stroke:#ffffff;stroke-linejoin:miter;stroke-width:0.75;" x="687.409702" xlink:href="#m2d73d7c6ee" y="71.336602"/>
     <use style="fill:#98df8a;stroke:#ffffff;stroke-linejoin:miter;stroke-width:0.75;" x="689.569076" xlink:href="#m2d73d7c6ee" y="71.254734"/>
     <use style="fill:#98df8a;stroke:#ffffff;stroke-linejoin:miter;stroke-width:0.75;" x="691.696457" xlink:href="#m2d73d7c6ee" y="71.090998"/>
     <use style="fill:#98df8a;stroke:#ffffff;stroke-linejoin:miter;stroke-width:0.75;" x="693.792781" xlink:href="#m2d73d7c6ee" y="70.436054"/>
     <use style="fill:#98df8a;stroke:#ffffff;stroke-linejoin:miter;stroke-width:0.75;" x="695.858941" xlink:href="#m2d73d7c6ee" y="69.699242"/>
     <use style="fill:#98df8a;stroke:#ffffff;stroke-linejoin:miter;stroke-width:0.75;" x="697.895793" xlink:href="#m2d73d7c6ee" y="69.289902"/>
     <use style="fill:#98df8a;stroke:#ffffff;stroke-linejoin:miter;stroke-width:0.75;" x="699.904156" xlink:href="#m2d73d7c6ee" y="68.389353"/>
     <use style="fill:#98df8a;stroke:#ffffff;stroke-linejoin:miter;stroke-width:0.75;" x="701.884817" xlink:href="#m2d73d7c6ee" y="68.389353"/>
     <use style="fill:#98df8a;stroke:#ffffff;stroke-linejoin:miter;stroke-width:0.75;" x="703.838529" xlink:href="#m2d73d7c6ee" y="68.143749"/>
     <use style="fill:#98df8a;stroke:#ffffff;stroke-linejoin:miter;stroke-width:0.75;" x="705.766016" xlink:href="#m2d73d7c6ee" y="68.061881"/>
     <use style="fill:#98df8a;stroke:#ffffff;stroke-linejoin:miter;stroke-width:0.75;" x="707.667973" xlink:href="#m2d73d7c6ee" y="68.061881"/>
     <use style="fill:#98df8a;stroke:#ffffff;stroke-linejoin:miter;stroke-width:0.75;" x="709.545067" xlink:href="#m2d73d7c6ee" y="67.406937"/>
     <use style="fill:#98df8a;stroke:#ffffff;stroke-linejoin:miter;stroke-width:0.75;" x="711.397939" xlink:href="#m2d73d7c6ee" y="67.406937"/>
     <use style="fill:#98df8a;stroke:#ffffff;stroke-linejoin:miter;stroke-width:0.75;" x="713.227208" xlink:href="#m2d73d7c6ee" y="67.406937"/>
     <use style="fill:#98df8a;stroke:#ffffff;stroke-linejoin:miter;stroke-width:0.75;" x="715.033466" xlink:href="#m2d73d7c6ee" y="66.833861"/>
     <use style="fill:#98df8a;stroke:#ffffff;stroke-linejoin:miter;stroke-width:0.75;" x="716.817286" xlink:href="#m2d73d7c6ee" y="66.260785"/>
     <use style="fill:#98df8a;stroke:#ffffff;stroke-linejoin:miter;stroke-width:0.75;" x="718.579217" xlink:href="#m2d73d7c6ee" y="65.851445"/>
     <use style="fill:#98df8a;stroke:#ffffff;stroke-linejoin:miter;stroke-width:0.75;" x="720.319792" xlink:href="#m2d73d7c6ee" y="65.851445"/>
     <use style="fill:#98df8a;stroke:#ffffff;stroke-linejoin:miter;stroke-width:0.75;" x="722.03952" xlink:href="#m2d73d7c6ee" y="65.687709"/>
     <use style="fill:#98df8a;stroke:#ffffff;stroke-linejoin:miter;stroke-width:0.75;" x="723.738897" xlink:href="#m2d73d7c6ee" y="65.605841"/>
     <use style="fill:#98df8a;stroke:#ffffff;stroke-linejoin:miter;stroke-width:0.75;" x="725.418397" xlink:href="#m2d73d7c6ee" y="65.523973"/>
     <use style="fill:#98df8a;stroke:#ffffff;stroke-linejoin:miter;stroke-width:0.75;" x="727.078481" xlink:href="#m2d73d7c6ee" y="65.523973"/>
     <use style="fill:#98df8a;stroke:#ffffff;stroke-linejoin:miter;stroke-width:0.75;" x="728.719591" xlink:href="#m2d73d7c6ee" y="65.523973"/>
     <use style="fill:#98df8a;stroke:#ffffff;stroke-linejoin:miter;stroke-width:0.75;" x="730.342158" xlink:href="#m2d73d7c6ee" y="65.523973"/>
     <use style="fill:#98df8a;stroke:#ffffff;stroke-linejoin:miter;stroke-width:0.75;" x="731.946595" xlink:href="#m2d73d7c6ee" y="65.442105"/>
     <use style="fill:#98df8a;stroke:#ffffff;stroke-linejoin:miter;stroke-width:0.75;" x="733.533304" xlink:href="#m2d73d7c6ee" y="65.442105"/>
     <use style="fill:#98df8a;stroke:#ffffff;stroke-linejoin:miter;stroke-width:0.75;" x="735.10267" xlink:href="#m2d73d7c6ee" y="65.360237"/>
    </g>
   </g>
   <g id="line2d_39">
    <path clip-path="url(#pbed81c7978)" d="M 85.79358 245.142409 
L 185.326487 214.851242 
L 243.549506 198.068298 
L 284.859395 184.150734 
L 316.901835 172.443607 
L 343.082414 164.011201 
L 365.217778 154.678247 
L 384.392303 147.146389 
L 401.305433 141.7431 
L 416.434742 137.240359 
L 430.120868 125.696968 
L 442.615322 122.831587 
L 454.109105 120.129942 
L 464.750686 118.820054 
L 474.657761 116.773353 
L 483.925211 111.779404 
L 492.630642 110.633252 
L 500.83834 107.031059 
L 508.602157 105.884907 
L 515.96765 104.49315 
L 522.973705 102.692054 
L 529.653776 101.136562 
L 536.036855 99.499201 
L 542.14823 99.335465 
L 548.01009 98.434917 
L 553.642013 98.189313 
L 559.061359 97.943709 
L 564.283594 96.715688 
L 569.322554 91.967343 
L 574.190669 89.920643 
L 578.899144 89.183831 
L 583.458119 88.283282 
L 587.876794 87.710206 
L 592.16355 87.055262 
L 596.326033 86.809658 
L 600.371248 86.72779 
L 604.305621 86.154714 
L 608.135065 85.49977 
L 611.865031 84.844826 
L 615.500558 84.271749 
L 619.046309 83.371201 
L 622.506613 82.879993 
L 625.885489 82.634389 
L 629.186684 82.225049 
L 632.413688 81.897577 
L 635.569763 81.160765 
L 638.65796 80.669556 
L 641.681137 80.669556 
L 644.641977 80.50582 
L 647.542997 80.260216 
L 650.386568 79.2778 
L 653.174921 79.032196 
L 655.910158 78.540988 
L 658.594267 78.213516 
L 661.229123 78.131648 
L 663.816502 78.04978 
L 666.358084 77.967912 
L 668.855462 77.886044 
L 671.310148 77.886044 
L 673.723577 77.2311 
L 676.097112 76.985496 
L 678.432052 76.739891 
L 680.729631 76.412419 
L 682.991027 76.003079 
L 685.21736 75.348135 
L 687.409702 75.348135 
L 689.569076 75.020663 
L 691.696457 74.938795 
L 693.792781 74.611323 
L 695.858941 74.447587 
L 697.895793 72.319018 
L 699.904156 72.155282 
L 701.884817 71.664074 
L 703.838529 71.336602 
L 705.766016 71.254734 
L 707.667973 71.172866 
L 709.545067 71.172866 
L 711.397939 71.090998 
L 713.227208 71.090998 
L 715.033466 70.517922 
L 716.817286 70.436054 
L 718.579217 69.862978 
L 720.319792 69.862978 
L 722.03952 69.699242 
L 723.738897 69.453638 
L 725.418397 69.453638 
L 727.078481 69.453638 
L 728.719591 69.37177 
L 730.342158 68.716826 
L 731.946595 68.143749 
L 733.533304 67.980013 
L 735.10267 67.898145 
" style="fill:none;stroke:#1f77b4;stroke-linecap:square;stroke-width:1.5;"/>
    <defs>
     <path d="M 0 3 
C 0.795609 3 1.55874 2.683901 2.12132 2.12132 
C 2.683901 1.55874 3 0.795609 3 0 
C 3 -0.795609 2.683901 -1.55874 2.12132 -2.12132 
C 1.55874 -2.683901 0.795609 -3 0 -3 
C -0.795609 -3 -1.55874 -2.683901 -2.12132 -2.12132 
C -2.683901 -1.55874 -3 -0.795609 -3 0 
C -3 0.795609 -2.683901 1.55874 -2.12132 2.12132 
C -1.55874 2.683901 -0.795609 3 0 3 
z
" id="mc6e1626210" style="stroke:#ffffff;stroke-width:0.75;"/>
    </defs>
    <g clip-path="url(#pbed81c7978)">
     <use style="fill:#1f77b4;stroke:#ffffff;stroke-width:0.75;" x="85.79358" xlink:href="#mc6e1626210" y="245.142409"/>
     <use style="fill:#1f77b4;stroke:#ffffff;stroke-width:0.75;" x="185.326487" xlink:href="#mc6e1626210" y="214.851242"/>
     <use style="fill:#1f77b4;stroke:#ffffff;stroke-width:0.75;" x="243.549506" xlink:href="#mc6e1626210" y="198.068298"/>
     <use style="fill:#1f77b4;stroke:#ffffff;stroke-width:0.75;" x="284.859395" xlink:href="#mc6e1626210" y="184.150734"/>
     <use style="fill:#1f77b4;stroke:#ffffff;stroke-width:0.75;" x="316.901835" xlink:href="#mc6e1626210" y="172.443607"/>
     <use style="fill:#1f77b4;stroke:#ffffff;stroke-width:0.75;" x="343.082414" xlink:href="#mc6e1626210" y="164.011201"/>
     <use style="fill:#1f77b4;stroke:#ffffff;stroke-width:0.75;" x="365.217778" xlink:href="#mc6e1626210" y="154.678247"/>
     <use style="fill:#1f77b4;stroke:#ffffff;stroke-width:0.75;" x="384.392303" xlink:href="#mc6e1626210" y="147.146389"/>
     <use style="fill:#1f77b4;stroke:#ffffff;stroke-width:0.75;" x="401.305433" xlink:href="#mc6e1626210" y="141.7431"/>
     <use style="fill:#1f77b4;stroke:#ffffff;stroke-width:0.75;" x="416.434742" xlink:href="#mc6e1626210" y="137.240359"/>
     <use style="fill:#1f77b4;stroke:#ffffff;stroke-width:0.75;" x="430.120868" xlink:href="#mc6e1626210" y="125.696968"/>
     <use style="fill:#1f77b4;stroke:#ffffff;stroke-width:0.75;" x="442.615322" xlink:href="#mc6e1626210" y="122.831587"/>
     <use style="fill:#1f77b4;stroke:#ffffff;stroke-width:0.75;" x="454.109105" xlink:href="#mc6e1626210" y="120.129942"/>
     <use style="fill:#1f77b4;stroke:#ffffff;stroke-width:0.75;" x="464.750686" xlink:href="#mc6e1626210" y="118.820054"/>
     <use style="fill:#1f77b4;stroke:#ffffff;stroke-width:0.75;" x="474.657761" xlink:href="#mc6e1626210" y="116.773353"/>
     <use style="fill:#1f77b4;stroke:#ffffff;stroke-width:0.75;" x="483.925211" xlink:href="#mc6e1626210" y="111.779404"/>
     <use style="fill:#1f77b4;stroke:#ffffff;stroke-width:0.75;" x="492.630642" xlink:href="#mc6e1626210" y="110.633252"/>
     <use style="fill:#1f77b4;stroke:#ffffff;stroke-width:0.75;" x="500.83834" xlink:href="#mc6e1626210" y="107.031059"/>
     <use style="fill:#1f77b4;stroke:#ffffff;stroke-width:0.75;" x="508.602157" xlink:href="#mc6e1626210" y="105.884907"/>
     <use style="fill:#1f77b4;stroke:#ffffff;stroke-width:0.75;" x="515.96765" xlink:href="#mc6e1626210" y="104.49315"/>
     <use style="fill:#1f77b4;stroke:#ffffff;stroke-width:0.75;" x="522.973705" xlink:href="#mc6e1626210" y="102.692054"/>
     <use style="fill:#1f77b4;stroke:#ffffff;stroke-width:0.75;" x="529.653776" xlink:href="#mc6e1626210" y="101.136562"/>
     <use style="fill:#1f77b4;stroke:#ffffff;stroke-width:0.75;" x="536.036855" xlink:href="#mc6e1626210" y="99.499201"/>
     <use style="fill:#1f77b4;stroke:#ffffff;stroke-width:0.75;" x="542.14823" xlink:href="#mc6e1626210" y="99.335465"/>
     <use style="fill:#1f77b4;stroke:#ffffff;stroke-width:0.75;" x="548.01009" xlink:href="#mc6e1626210" y="98.434917"/>
     <use style="fill:#1f77b4;stroke:#ffffff;stroke-width:0.75;" x="553.642013" xlink:href="#mc6e1626210" y="98.189313"/>
     <use style="fill:#1f77b4;stroke:#ffffff;stroke-width:0.75;" x="559.061359" xlink:href="#mc6e1626210" y="97.943709"/>
     <use style="fill:#1f77b4;stroke:#ffffff;stroke-width:0.75;" x="564.283594" xlink:href="#mc6e1626210" y="96.715688"/>
     <use style="fill:#1f77b4;stroke:#ffffff;stroke-width:0.75;" x="569.322554" xlink:href="#mc6e1626210" y="91.967343"/>
     <use style="fill:#1f77b4;stroke:#ffffff;stroke-width:0.75;" x="574.190669" xlink:href="#mc6e1626210" y="89.920643"/>
     <use style="fill:#1f77b4;stroke:#ffffff;stroke-width:0.75;" x="578.899144" xlink:href="#mc6e1626210" y="89.183831"/>
     <use style="fill:#1f77b4;stroke:#ffffff;stroke-width:0.75;" x="583.458119" xlink:href="#mc6e1626210" y="88.283282"/>
     <use style="fill:#1f77b4;stroke:#ffffff;stroke-width:0.75;" x="587.876794" xlink:href="#mc6e1626210" y="87.710206"/>
     <use style="fill:#1f77b4;stroke:#ffffff;stroke-width:0.75;" x="592.16355" xlink:href="#mc6e1626210" y="87.055262"/>
     <use style="fill:#1f77b4;stroke:#ffffff;stroke-width:0.75;" x="596.326033" xlink:href="#mc6e1626210" y="86.809658"/>
     <use style="fill:#1f77b4;stroke:#ffffff;stroke-width:0.75;" x="600.371248" xlink:href="#mc6e1626210" y="86.72779"/>
     <use style="fill:#1f77b4;stroke:#ffffff;stroke-width:0.75;" x="604.305621" xlink:href="#mc6e1626210" y="86.154714"/>
     <use style="fill:#1f77b4;stroke:#ffffff;stroke-width:0.75;" x="608.135065" xlink:href="#mc6e1626210" y="85.49977"/>
     <use style="fill:#1f77b4;stroke:#ffffff;stroke-width:0.75;" x="611.865031" xlink:href="#mc6e1626210" y="84.844826"/>
     <use style="fill:#1f77b4;stroke:#ffffff;stroke-width:0.75;" x="615.500558" xlink:href="#mc6e1626210" y="84.271749"/>
     <use style="fill:#1f77b4;stroke:#ffffff;stroke-width:0.75;" x="619.046309" xlink:href="#mc6e1626210" y="83.371201"/>
     <use style="fill:#1f77b4;stroke:#ffffff;stroke-width:0.75;" x="622.506613" xlink:href="#mc6e1626210" y="82.879993"/>
     <use style="fill:#1f77b4;stroke:#ffffff;stroke-width:0.75;" x="625.885489" xlink:href="#mc6e1626210" y="82.634389"/>
     <use style="fill:#1f77b4;stroke:#ffffff;stroke-width:0.75;" x="629.186684" xlink:href="#mc6e1626210" y="82.225049"/>
     <use style="fill:#1f77b4;stroke:#ffffff;stroke-width:0.75;" x="632.413688" xlink:href="#mc6e1626210" y="81.897577"/>
     <use style="fill:#1f77b4;stroke:#ffffff;stroke-width:0.75;" x="635.569763" xlink:href="#mc6e1626210" y="81.160765"/>
     <use style="fill:#1f77b4;stroke:#ffffff;stroke-width:0.75;" x="638.65796" xlink:href="#mc6e1626210" y="80.669556"/>
     <use style="fill:#1f77b4;stroke:#ffffff;stroke-width:0.75;" x="641.681137" xlink:href="#mc6e1626210" y="80.669556"/>
     <use style="fill:#1f77b4;stroke:#ffffff;stroke-width:0.75;" x="644.641977" xlink:href="#mc6e1626210" y="80.50582"/>
     <use style="fill:#1f77b4;stroke:#ffffff;stroke-width:0.75;" x="647.542997" xlink:href="#mc6e1626210" y="80.260216"/>
     <use style="fill:#1f77b4;stroke:#ffffff;stroke-width:0.75;" x="650.386568" xlink:href="#mc6e1626210" y="79.2778"/>
     <use style="fill:#1f77b4;stroke:#ffffff;stroke-width:0.75;" x="653.174921" xlink:href="#mc6e1626210" y="79.032196"/>
     <use style="fill:#1f77b4;stroke:#ffffff;stroke-width:0.75;" x="655.910158" xlink:href="#mc6e1626210" y="78.540988"/>
     <use style="fill:#1f77b4;stroke:#ffffff;stroke-width:0.75;" x="658.594267" xlink:href="#mc6e1626210" y="78.213516"/>
     <use style="fill:#1f77b4;stroke:#ffffff;stroke-width:0.75;" x="661.229123" xlink:href="#mc6e1626210" y="78.131648"/>
     <use style="fill:#1f77b4;stroke:#ffffff;stroke-width:0.75;" x="663.816502" xlink:href="#mc6e1626210" y="78.04978"/>
     <use style="fill:#1f77b4;stroke:#ffffff;stroke-width:0.75;" x="666.358084" xlink:href="#mc6e1626210" y="77.967912"/>
     <use style="fill:#1f77b4;stroke:#ffffff;stroke-width:0.75;" x="668.855462" xlink:href="#mc6e1626210" y="77.886044"/>
     <use style="fill:#1f77b4;stroke:#ffffff;stroke-width:0.75;" x="671.310148" xlink:href="#mc6e1626210" y="77.886044"/>
     <use style="fill:#1f77b4;stroke:#ffffff;stroke-width:0.75;" x="673.723577" xlink:href="#mc6e1626210" y="77.2311"/>
     <use style="fill:#1f77b4;stroke:#ffffff;stroke-width:0.75;" x="676.097112" xlink:href="#mc6e1626210" y="76.985496"/>
     <use style="fill:#1f77b4;stroke:#ffffff;stroke-width:0.75;" x="678.432052" xlink:href="#mc6e1626210" y="76.739891"/>
     <use style="fill:#1f77b4;stroke:#ffffff;stroke-width:0.75;" x="680.729631" xlink:href="#mc6e1626210" y="76.412419"/>
     <use style="fill:#1f77b4;stroke:#ffffff;stroke-width:0.75;" x="682.991027" xlink:href="#mc6e1626210" y="76.003079"/>
     <use style="fill:#1f77b4;stroke:#ffffff;stroke-width:0.75;" x="685.21736" xlink:href="#mc6e1626210" y="75.348135"/>
     <use style="fill:#1f77b4;stroke:#ffffff;stroke-width:0.75;" x="687.409702" xlink:href="#mc6e1626210" y="75.348135"/>
     <use style="fill:#1f77b4;stroke:#ffffff;stroke-width:0.75;" x="689.569076" xlink:href="#mc6e1626210" y="75.020663"/>
     <use style="fill:#1f77b4;stroke:#ffffff;stroke-width:0.75;" x="691.696457" xlink:href="#mc6e1626210" y="74.938795"/>
     <use style="fill:#1f77b4;stroke:#ffffff;stroke-width:0.75;" x="693.792781" xlink:href="#mc6e1626210" y="74.611323"/>
     <use style="fill:#1f77b4;stroke:#ffffff;stroke-width:0.75;" x="695.858941" xlink:href="#mc6e1626210" y="74.447587"/>
     <use style="fill:#1f77b4;stroke:#ffffff;stroke-width:0.75;" x="697.895793" xlink:href="#mc6e1626210" y="72.319018"/>
     <use style="fill:#1f77b4;stroke:#ffffff;stroke-width:0.75;" x="699.904156" xlink:href="#mc6e1626210" y="72.155282"/>
     <use style="fill:#1f77b4;stroke:#ffffff;stroke-width:0.75;" x="701.884817" xlink:href="#mc6e1626210" y="71.664074"/>
     <use style="fill:#1f77b4;stroke:#ffffff;stroke-width:0.75;" x="703.838529" xlink:href="#mc6e1626210" y="71.336602"/>
     <use style="fill:#1f77b4;stroke:#ffffff;stroke-width:0.75;" x="705.766016" xlink:href="#mc6e1626210" y="71.254734"/>
     <use style="fill:#1f77b4;stroke:#ffffff;stroke-width:0.75;" x="707.667973" xlink:href="#mc6e1626210" y="71.172866"/>
     <use style="fill:#1f77b4;stroke:#ffffff;stroke-width:0.75;" x="709.545067" xlink:href="#mc6e1626210" y="71.172866"/>
     <use style="fill:#1f77b4;stroke:#ffffff;stroke-width:0.75;" x="711.397939" xlink:href="#mc6e1626210" y="71.090998"/>
     <use style="fill:#1f77b4;stroke:#ffffff;stroke-width:0.75;" x="713.227208" xlink:href="#mc6e1626210" y="71.090998"/>
     <use style="fill:#1f77b4;stroke:#ffffff;stroke-width:0.75;" x="715.033466" xlink:href="#mc6e1626210" y="70.517922"/>
     <use style="fill:#1f77b4;stroke:#ffffff;stroke-width:0.75;" x="716.817286" xlink:href="#mc6e1626210" y="70.436054"/>
     <use style="fill:#1f77b4;stroke:#ffffff;stroke-width:0.75;" x="718.579217" xlink:href="#mc6e1626210" y="69.862978"/>
     <use style="fill:#1f77b4;stroke:#ffffff;stroke-width:0.75;" x="720.319792" xlink:href="#mc6e1626210" y="69.862978"/>
     <use style="fill:#1f77b4;stroke:#ffffff;stroke-width:0.75;" x="722.03952" xlink:href="#mc6e1626210" y="69.699242"/>
     <use style="fill:#1f77b4;stroke:#ffffff;stroke-width:0.75;" x="723.738897" xlink:href="#mc6e1626210" y="69.453638"/>
     <use style="fill:#1f77b4;stroke:#ffffff;stroke-width:0.75;" x="725.418397" xlink:href="#mc6e1626210" y="69.453638"/>
     <use style="fill:#1f77b4;stroke:#ffffff;stroke-width:0.75;" x="727.078481" xlink:href="#mc6e1626210" y="69.453638"/>
     <use style="fill:#1f77b4;stroke:#ffffff;stroke-width:0.75;" x="728.719591" xlink:href="#mc6e1626210" y="69.37177"/>
     <use style="fill:#1f77b4;stroke:#ffffff;stroke-width:0.75;" x="730.342158" xlink:href="#mc6e1626210" y="68.716826"/>
     <use style="fill:#1f77b4;stroke:#ffffff;stroke-width:0.75;" x="731.946595" xlink:href="#mc6e1626210" y="68.143749"/>
     <use style="fill:#1f77b4;stroke:#ffffff;stroke-width:0.75;" x="733.533304" xlink:href="#mc6e1626210" y="67.980013"/>
     <use style="fill:#1f77b4;stroke:#ffffff;stroke-width:0.75;" x="735.10267" xlink:href="#mc6e1626210" y="67.898145"/>
    </g>
   </g>
   <g id="line2d_40"/>
   <g id="line2d_41"/>
   <g id="line2d_42">
    <path clip-path="url(#pbed81c7978)" d="M 735.10267 288.430125 
L 735.10267 22.318125 
" style="fill:none;stroke:#ff0000;stroke-linecap:square;stroke-width:1.5;"/>
   </g>
   <g id="patch_3">
    <path d="M 53.328125 256.358328 
L 53.328125 27.127871 
" style="fill:none;stroke:#000000;stroke-linecap:square;stroke-linejoin:miter;stroke-width:0.8;"/>
   </g>
   <g id="patch_4">
    <path d="M 85.79358 288.430125 
L 735.104405 288.430125 
" style="fill:none;stroke:#000000;stroke-linecap:square;stroke-linejoin:miter;stroke-width:0.8;"/>
   </g>
   <g id="text_23">
    <!-- harfbuzz-1.3.2 (23h, 10 trials/fuzzer) -->
    <g transform="translate(300.32 16.318125)scale(0.12 -0.12)">
     <defs>
      <path d="M 2375 4863 
L 2375 4384 
L 1825 4384 
Q 1516 4384 1395 4259 
Q 1275 4134 1275 3809 
L 1275 3500 
L 2222 3500 
L 2222 3053 
L 1275 3053 
L 1275 0 
L 697 0 
L 697 3053 
L 147 3053 
L 147 3500 
L 697 3500 
L 697 3744 
Q 697 4328 969 4595 
Q 1241 4863 1831 4863 
L 2375 4863 
z
" id="DejaVuSans-66" transform="scale(0.015625)"/>
      <path d="M 353 3500 
L 3084 3500 
L 3084 2975 
L 922 459 
L 3084 459 
L 3084 0 
L 275 0 
L 275 525 
L 2438 3041 
L 353 3041 
L 353 3500 
z
" id="DejaVuSans-7a" transform="scale(0.015625)"/>
      <path d="M 313 2009 
L 1997 2009 
L 1997 1497 
L 313 1497 
L 313 2009 
z
" id="DejaVuSans-2d" transform="scale(0.015625)"/>
      <path d="M 684 794 
L 1344 794 
L 1344 0 
L 684 0 
L 684 794 
z
" id="DejaVuSans-2e" transform="scale(0.015625)"/>
      <path d="M 750 794 
L 1409 794 
L 1409 256 
L 897 -744 
L 494 -744 
L 750 256 
L 750 794 
z
" id="DejaVuSans-2c" transform="scale(0.015625)"/>
      <path d="M 603 4863 
L 1178 4863 
L 1178 0 
L 603 0 
L 603 4863 
z
" id="DejaVuSans-6c" transform="scale(0.015625)"/>
      <path d="M 2834 3397 
L 2834 2853 
Q 2591 2978 2328 3040 
Q 2066 3103 1784 3103 
Q 1356 3103 1142 2972 
Q 928 2841 928 2578 
Q 928 2378 1081 2264 
Q 1234 2150 1697 2047 
L 1894 2003 
Q 2506 1872 2764 1633 
Q 3022 1394 3022 966 
Q 3022 478 2636 193 
Q 2250 -91 1575 -91 
Q 1294 -91 989 -36 
Q 684 19 347 128 
L 347 722 
Q 666 556 975 473 
Q 1284 391 1588 391 
Q 1994 391 2212 530 
Q 2431 669 2431 922 
Q 2431 1156 2273 1281 
Q 2116 1406 1581 1522 
L 1381 1569 
Q 847 1681 609 1914 
Q 372 2147 372 2553 
Q 372 3047 722 3315 
Q 1072 3584 1716 3584 
Q 2034 3584 2315 3537 
Q 2597 3491 2834 3397 
z
" id="DejaVuSans-73" transform="scale(0.015625)"/>
      <path d="M 1625 4666 
L 2156 4666 
L 531 -594 
L 0 -594 
L 1625 4666 
z
" id="DejaVuSans-2f" transform="scale(0.015625)"/>
     </defs>
     <use xlink:href="#DejaVuSans-68"/>
     <use x="63.378906" xlink:href="#DejaVuSans-61"/>
     <use x="124.658203" xlink:href="#DejaVuSans-72"/>
     <use x="165.771484" xlink:href="#DejaVuSans-66"/>
     <use x="200.976562" xlink:href="#DejaVuSans-62"/>
     <use x="264.453125" xlink:href="#DejaVuSans-75"/>
     <use x="327.832031" xlink:href="#DejaVuSans-7a"/>
     <use x="380.322266" xlink:href="#DejaVuSans-7a"/>
     <use x="432.8125" xlink:href="#DejaVuSans-2d"/>
     <use x="468.896484" xlink:href="#DejaVuSans-31"/>
     <use x="532.519531" xlink:href="#DejaVuSans-2e"/>
     <use x="564.306641" xlink:href="#DejaVuSans-33"/>
     <use x="627.929688" xlink:href="#DejaVuSans-2e"/>
     <use x="659.716797" xlink:href="#DejaVuSans-32"/>
     <use x="723.339844" xlink:href="#DejaVuSans-20"/>
     <use x="755.126953" xlink:href="#DejaVuSans-28"/>
     <use x="794.140625" xlink:href="#DejaVuSans-32"/>
     <use x="857.763672" xlink:href="#DejaVuSans-33"/>
     <use x="921.386719" xlink:href="#DejaVuSans-68"/>
     <use x="984.765625" xlink:href="#DejaVuSans-2c"/>
     <use x="1016.552734" xlink:href="#DejaVuSans-20"/>
     <use x="1048.339844" xlink:href="#DejaVuSans-31"/>
     <use x="1111.962891" xlink:href="#DejaVuSans-30"/>
     <use x="1175.585938" xlink:href="#DejaVuSans-20"/>
     <use x="1207.373047" xlink:href="#DejaVuSans-74"/>
     <use x="1246.582031" xlink:href="#DejaVuSans-72"/>
     <use x="1287.695312" xlink:href="#DejaVuSans-69"/>
     <use x="1315.478516" xlink:href="#DejaVuSans-61"/>
     <use x="1376.757812" xlink:href="#DejaVuSans-6c"/>
     <use x="1404.541016" xlink:href="#DejaVuSans-73"/>
     <use x="1456.640625" xlink:href="#DejaVuSans-2f"/>
     <use x="1490.332031" xlink:href="#DejaVuSans-66"/>
     <use x="1525.537109" xlink:href="#DejaVuSans-75"/>
     <use x="1588.916016" xlink:href="#DejaVuSans-7a"/>
     <use x="1641.40625" xlink:href="#DejaVuSans-7a"/>
     <use x="1693.896484" xlink:href="#DejaVuSans-65"/>
     <use x="1755.419922" xlink:href="#DejaVuSans-72"/>
     <use x="1796.533203" xlink:href="#DejaVuSans-29"/>
    </g>
   </g>
   <g id="legend_1">
    <g id="line2d_43">
     <path d="M 771.568125 30.416563 
L 791.568125 30.416563 
" style="fill:none;stroke:#98df8a;stroke-linecap:square;stroke-width:1.5;"/>
    </g>
    <g id="line2d_44">
     <defs>
      <path d="M -0 3 
L 3 -3 
L -3 -3 
z
" id="m8b7ef76ded" style="stroke:#98df8a;stroke-linejoin:miter;"/>
     </defs>
     <g>
      <use style="fill:#98df8a;stroke:#98df8a;stroke-linejoin:miter;" x="781.568125" xlink:href="#m8b7ef76ded" y="30.416563"/>
     </g>
    </g>
    <g id="text_24">
     <!-- sydr_libfuzzer -->
     <g transform="translate(799.568125 33.916563)scale(0.1 -0.1)">
      <defs>
       <path d="M 2059 -325 
Q 1816 -950 1584 -1140 
Q 1353 -1331 966 -1331 
L 506 -1331 
L 506 -850 
L 844 -850 
Q 1081 -850 1212 -737 
Q 1344 -625 1503 -206 
L 1606 56 
L 191 3500 
L 800 3500 
L 1894 763 
L 2988 3500 
L 3597 3500 
L 2059 -325 
z
" id="DejaVuSans-79" transform="scale(0.015625)"/>
       <path d="M 3263 -1063 
L 3263 -1509 
L -63 -1509 
L -63 -1063 
L 3263 -1063 
z
" id="DejaVuSans-5f" transform="scale(0.015625)"/>
      </defs>
      <use xlink:href="#DejaVuSans-73"/>
      <use x="52.099609" xlink:href="#DejaVuSans-79"/>
      <use x="111.279297" xlink:href="#DejaVuSans-64"/>
      <use x="174.755859" xlink:href="#DejaVuSans-72"/>
      <use x="215.869141" xlink:href="#DejaVuSans-5f"/>
      <use x="265.869141" xlink:href="#DejaVuSans-6c"/>
      <use x="293.652344" xlink:href="#DejaVuSans-69"/>
      <use x="321.435547" xlink:href="#DejaVuSans-62"/>
      <use x="384.912109" xlink:href="#DejaVuSans-66"/>
      <use x="420.117188" xlink:href="#DejaVuSans-75"/>
      <use x="483.496094" xlink:href="#DejaVuSans-7a"/>
      <use x="535.986328" xlink:href="#DejaVuSans-7a"/>
      <use x="588.476562" xlink:href="#DejaVuSans-65"/>
      <use x="650" xlink:href="#DejaVuSans-72"/>
     </g>
    </g>
    <g id="line2d_45">
     <path d="M 771.568125 45.372813 
L 791.568125 45.372813 
" style="fill:none;stroke:#1f77b4;stroke-linecap:square;stroke-width:1.5;"/>
    </g>
    <g id="line2d_46">
     <defs>
      <path d="M 0 3 
C 0.795609 3 1.55874 2.683901 2.12132 2.12132 
C 2.683901 1.55874 3 0.795609 3 0 
C 3 -0.795609 2.683901 -1.55874 2.12132 -2.12132 
C 1.55874 -2.683901 0.795609 -3 0 -3 
C -0.795609 -3 -1.55874 -2.683901 -2.12132 -2.12132 
C -2.683901 -1.55874 -3 -0.795609 -3 0 
C -3 0.795609 -2.683901 1.55874 -2.12132 2.12132 
C -1.55874 2.683901 -0.795609 3 0 3 
z
" id="mb28d9d91f7" style="stroke:#1f77b4;"/>
     </defs>
     <g>
      <use style="fill:#1f77b4;stroke:#1f77b4;" x="781.568125" xlink:href="#mb28d9d91f7" y="45.372813"/>
     </g>
    </g>
    <g id="text_25">
     <!-- libfuzzer_two_workers -->
     <g transform="translate(799.568125 48.872813)scale(0.1 -0.1)">
      <defs>
       <path d="M 269 3500 
L 844 3500 
L 1563 769 
L 2278 3500 
L 2956 3500 
L 3675 769 
L 4391 3500 
L 4966 3500 
L 4050 0 
L 3372 0 
L 2619 2869 
L 1863 0 
L 1184 0 
L 269 3500 
z
" id="DejaVuSans-77" transform="scale(0.015625)"/>
       <path d="M 581 4863 
L 1159 4863 
L 1159 1991 
L 2875 3500 
L 3609 3500 
L 1753 1863 
L 3688 0 
L 2938 0 
L 1159 1709 
L 1159 0 
L 581 0 
L 581 4863 
z
" id="DejaVuSans-6b" transform="scale(0.015625)"/>
      </defs>
      <use xlink:href="#DejaVuSans-6c"/>
      <use x="27.783203" xlink:href="#DejaVuSans-69"/>
      <use x="55.566406" xlink:href="#DejaVuSans-62"/>
      <use x="119.042969" xlink:href="#DejaVuSans-66"/>
      <use x="154.248047" xlink:href="#DejaVuSans-75"/>
      <use x="217.626953" xlink:href="#DejaVuSans-7a"/>
      <use x="270.117188" xlink:href="#DejaVuSans-7a"/>
      <use x="322.607422" xlink:href="#DejaVuSans-65"/>
      <use x="384.130859" xlink:href="#DejaVuSans-72"/>
      <use x="425.244141" xlink:href="#DejaVuSans-5f"/>
      <use x="475.244141" xlink:href="#DejaVuSans-74"/>
      <use x="514.453125" xlink:href="#DejaVuSans-77"/>
      <use x="596.240234" xlink:href="#DejaVuSans-6f"/>
      <use x="657.421875" xlink:href="#DejaVuSans-5f"/>
      <use x="707.421875" xlink:href="#DejaVuSans-77"/>
      <use x="789.208984" xlink:href="#DejaVuSans-6f"/>
      <use x="850.390625" xlink:href="#DejaVuSans-72"/>
      <use x="891.503906" xlink:href="#DejaVuSans-6b"/>
      <use x="945.789062" xlink:href="#DejaVuSans-65"/>
      <use x="1007.3125" xlink:href="#DejaVuSans-72"/>
      <use x="1048.425781" xlink:href="#DejaVuSans-73"/>
     </g>
    </g>
   </g>
  </g>
 </g>
 <defs>
  <clipPath id="pbed81c7978">
   <rect height="266.112" width="714.24" x="53.328125" y="22.318125"/>
  </clipPath>
 </defs>
</svg>
