<?xml version="1.0" encoding="utf-8" standalone="no"?>
<!DOCTYPE svg PUBLIC "-//W3C//DTD SVG 1.1//EN"
  "http://www.w3.org/Graphics/SVG/1.1/DTD/svg11.dtd">
<svg height="325.986375pt" version="1.1" viewBox="0 0 920.818125 325.986375" width="920.818125pt" xmlns="http://www.w3.org/2000/svg" xmlns:xlink="http://www.w3.org/1999/xlink">
 <metadata>
  <rdf:RDF xmlns:cc="http://creativecommons.org/ns#" xmlns:dc="http://purl.org/dc/elements/1.1/" xmlns:rdf="http://www.w3.org/1999/02/22-rdf-syntax-ns#">
   <cc:Work>
    <dc:type rdf:resource="http://purl.org/dc/dcmitype/StillImage"/>
    <dc:date>2022-08-18T12:11:02.400551</dc:date>
    <dc:format>image/svg+xml</dc:format>
    <dc:creator>
     <cc:Agent>
      <dc:title>Matplotlib v3.4.1, https://matplotlib.org/</dc:title>
     </cc:Agent>
    </dc:creator>
   </cc:Work>
  </rdf:RDF>
 </metadata>
 <defs>
  <style type="text/css">*{stroke-linecap:butt;stroke-linejoin:round;}</style>
 </defs>
 <g id="figure_1">
  <g id="patch_1">
   <path d="M 0 325.986375 
L 920.818125 325.986375 
L 920.818125 0 
L 0 0 
z
" style="fill:#ffffff;"/>
  </g>
  <g id="axes_1">
   <g id="patch_2">
    <path d="M 53.328125 288.430125 
L 767.568125 288.430125 
L 767.568125 22.318125 
L 53.328125 22.318125 
z
" style="fill:#ffffff;"/>
   </g>
   <g id="PolyCollection_1">
    <defs>
     <path d="M 85.79358 -73.63958 
L 85.79358 -49.65225 
L 92.928844 -78.797265 
L 100.064109 -101.392839 
L 107.199374 -117.438971 
L 114.334638 -126.608189 
L 121.469903 -139.707072 
L 128.605168 -147.893874 
L 135.740433 -151.987275 
L 142.875697 -155.589468 
L 150.010962 -160.992758 
L 157.146227 -167.214727 
L 164.281492 -169.255288 
L 171.416756 -175.401529 
L 178.552021 -173.764169 
L 185.687286 -178.839986 
L 192.822551 -182.933387 
L 199.957815 -182.184295 
L 207.09308 -185.143824 
L 214.228345 -186.94492 
L 221.36361 -190.463198 
L 228.498874 -190.628981 
L 235.634139 -190.792717 
L 242.769404 -191.120189 
L 249.904668 -193.085022 
L 257.039933 -196.03227 
L 264.175198 -199.798199 
L 271.310463 -200.289407 
L 278.445727 -200.453143 
L 285.580992 -200.453143 
L 292.716257 -201.43556 
L 299.851522 -202.090504 
L 306.986786 -202.745448 
L 314.122051 -202.745448 
L 321.257316 -203.07292 
L 328.392581 -204.055336 
L 335.527845 -204.055336 
L 342.66311 -205.856433 
L 349.798375 -206.183905 
L 356.933639 -206.675113 
L 364.068904 -206.675113 
L 371.204169 -207.985001 
L 378.339434 -207.985001 
L 385.474698 -207.985001 
L 392.609963 -207.985001 
L 399.745228 -208.312473 
L 406.880493 -208.639945 
L 414.015757 -216.171803 
L 421.151022 -216.663011 
L 428.286287 -216.976157 
L 435.421552 -218.136636 
L 442.556816 -218.136636 
L 449.692081 -218.300372 
L 456.827346 -220.175149 
L 463.962611 -219.937732 
L 471.097875 -219.937732 
L 478.23314 -221.247621 
L 485.368405 -222.051974 
L 492.503669 -222.148169 
L 499.638934 -221.493225 
L 506.774199 -222.475641 
L 513.909464 -222.475641 
L 521.044728 -225.122025 
L 528.179993 -225.341022 
L 535.315258 -225.995966 
L 542.450523 -226.077834 
L 549.585787 -226.077834 
L 556.721052 -226.077834 
L 563.856317 -224.767945 
L 570.991582 -226.24157 
L 578.126846 -232.559734 
L 585.262111 -226.978382 
L 592.397376 -227.551458 
L 599.53264 -234.33627 
L 606.667905 -227.612859 
L 613.80317 -227.633326 
L 620.938435 -239.248352 
L 628.073699 -232.872879 
L 635.208964 -239.586057 
L 642.344229 -239.586057 
L 649.479494 -239.586057 
L 656.614758 -233.118484 
L 663.750023 -234.019032 
L 670.885288 -234.346504 
L 678.020553 -239.522609 
L 685.155817 -238.439905 
L 692.291082 -240.568473 
L 699.426347 -240.895945 
L 706.561612 -239.504189 
L 713.696876 -240.895945 
L 720.832141 -241.022841 
L 727.967406 -243.515722 
L 735.10267 -243.843194 
L 735.10267 -291.57225 
L 735.10267 -291.57225 
L 727.967406 -290.13342 
L 720.832141 -289.93489 
L 713.696876 -291.326646 
L 706.561612 -291.081042 
L 699.426347 -290.507966 
L 692.291082 -290.213241 
L 685.155817 -290.180494 
L 678.020553 -289.116209 
L 670.885288 -289.93489 
L 663.750023 -276.590402 
L 656.614758 -266.602504 
L 649.479494 -289.443681 
L 642.344229 -287.233245 
L 635.208964 -287.151377 
L 628.073699 -287.085882 
L 620.938435 -287.724453 
L 613.80317 -286.365444 
L 606.667905 -287.396981 
L 599.53264 -287.315113 
L 592.397376 -287.233245 
L 585.262111 -285.841489 
L 578.126846 -263.911093 
L 570.991582 -286.905773 
L 563.856317 -263.655255 
L 556.721052 -283.385448 
L 549.585787 -262.509103 
L 542.450523 -261.453005 
L 535.315258 -271.056124 
L 528.179993 -277.409082 
L 521.044728 -272.660737 
L 513.909464 -272.169529 
L 506.774199 -261.403885 
L 499.638934 -258.251966 
L 492.503669 -256.123397 
L 485.368405 -256.123397 
L 478.23314 -256.123397 
L 471.097875 -255.468453 
L 463.962611 -255.468453 
L 456.827346 -255.468453 
L 449.692081 -255.468453 
L 442.556816 -255.468453 
L 435.421552 -254.158565 
L 428.286287 -255.304717 
L 421.151022 -252.848676 
L 414.015757 -251.375052 
L 406.880493 -251.04758 
L 399.745228 -251.04758 
L 392.609963 -250.720108 
L 385.474698 -250.556372 
L 378.339434 -244.334402 
L 371.204169 -243.679458 
L 364.068904 -243.351986 
L 356.933639 -245.234951 
L 349.798375 -242.36957 
L 342.66311 -240.895945 
L 335.527845 -239.831661 
L 328.392581 -238.603641 
L 321.257316 -237.130016 
L 314.122051 -231.399255 
L 306.986786 -226.757338 
L 299.851522 -222.884981 
L 292.716257 -220.42894 
L 285.580992 -219.937732 
L 278.445727 -219.61026 
L 271.310463 -216.008067 
L 264.175198 -213.879499 
L 257.039933 -213.306423 
L 249.904668 -211.595381 
L 242.769404 -210.768514 
L 235.634139 -209.949834 
L 228.498874 -206.347641 
L 221.36361 -204.546544 
L 214.228345 -203.48226 
L 207.09308 -200.944352 
L 199.957815 -199.225123 
L 192.822551 -198.160839 
L 185.687286 -196.687214 
L 178.552021 -195.049854 
L 171.416756 -192.757549 
L 164.281492 -191.283925 
L 157.146227 -189.646565 
L 150.010962 -188.418544 
L 142.875697 -178.839986 
L 135.740433 -170.735052 
L 128.605168 -168.688352 
L 121.469903 -164.594951 
L 114.334638 -153.297164 
L 107.199374 -139.870808 
L 100.064109 -131.847742 
L 92.928844 -109.252169 
L 85.79358 -73.63958 
z
" id="mf18590e03c" style="stroke:#98df8a;stroke-opacity:0.2;"/>
    </defs>
    <g clip-path="url(#p6cb0f10418)">
     <use style="fill:#98df8a;fill-opacity:0.2;stroke:#98df8a;stroke-opacity:0.2;" x="0" xlink:href="#mf18590e03c" y="325.986375"/>
    </g>
   </g>
   <g id="PolyCollection_2">
    <defs>
     <path d="M 85.79358 -89.276372 
L 85.79358 -57.184108 
L 92.928844 -89.685712 
L 100.064109 -105.977448 
L 107.199374 -116.292819 
L 114.334638 -128.736758 
L 121.469903 -135.941143 
L 128.605168 -143.145529 
L 135.740433 -152.842796 
L 142.875697 -157.636169 
L 150.010962 -166.723519 
L 157.146227 -170.325712 
L 164.281492 -170.980656 
L 171.416756 -174.419113 
L 178.552021 -174.910321 
L 185.687286 -176.547681 
L 192.822551 -179.49493 
L 199.957815 -182.114707 
L 207.09308 -184.243275 
L 214.228345 -188.091072 
L 221.36361 -195.704798 
L 228.498874 -196.523478 
L 235.634139 -198.815783 
L 242.769404 -199.798199 
L 249.904668 -200.289407 
L 257.039933 -193.98557 
L 264.175198 -202.090504 
L 271.310463 -202.745448 
L 278.445727 -202.909184 
L 285.580992 -202.909184 
L 292.716257 -204.055336 
L 299.851522 -204.219072 
L 306.986786 -204.874016 
L 314.122051 -204.874016 
L 321.257316 -204.874016 
L 328.392581 -206.347641 
L 335.527845 -208.148737 
L 342.66311 -208.476209 
L 349.798375 -208.476209 
L 356.933639 -210.768514 
L 364.068904 -210.768514 
L 371.204169 -210.768514 
L 378.339434 -211.095986 
L 385.474698 -211.095986 
L 392.609963 -211.095986 
L 399.745228 -211.423458 
L 406.880493 -211.423458 
L 414.015757 -211.423458 
L 421.151022 -220.592676 
L 428.286287 -222.496108 
L 435.421552 -225.013549 
L 442.556816 -224.931681 
L 449.692081 -225.42289 
L 456.827346 -225.490431 
L 463.962611 -225.776969 
L 471.097875 -233.527824 
L 478.23314 -231.562991 
L 485.368405 -237.621225 
L 492.503669 -232.545407 
L 499.638934 -234.780404 
L 506.774199 -233.036615 
L 513.909464 -233.364088 
L 521.044728 -236.065732 
L 528.179993 -236.475072 
L 535.315258 -236.882366 
L 542.450523 -234.428372 
L 549.585787 -234.837712 
L 556.721052 -234.837712 
L 563.856317 -234.837712 
L 570.991582 -238.194301 
L 578.126846 -238.767377 
L 585.262111 -245.116242 
L 592.397376 -247.936595 
L 599.53264 -248.591539 
L 606.667905 -248.100331 
L 613.80317 -249.082747 
L 620.938435 -249.573956 
L 628.073699 -250.392636 
L 635.208964 -250.392636 
L 642.344229 -250.392636 
L 649.479494 -250.392636 
L 656.614758 -250.392636 
L 663.750023 -250.556372 
L 670.885288 -250.720108 
L 678.020553 -251.04758 
L 685.155817 -250.801976 
L 692.291082 -251.045533 
L 699.426347 -252.357468 
L 706.561612 -252.357468 
L 713.696876 -252.521204 
L 720.832141 -252.603072 
L 727.967406 -252.762715 
L 735.10267 -253.09428 
L 735.10267 -266.275032 
L 735.10267 -266.275032 
L 727.967406 -266.275032 
L 720.832141 -265.94756 
L 713.696876 -265.794057 
L 706.561612 -266.193164 
L 699.426347 -266.193164 
L 692.291082 -266.275032 
L 685.155817 -264.197631 
L 678.020553 -264.146463 
L 670.885288 -264.146463 
L 663.750023 -265.292615 
L 656.614758 -263.982727 
L 649.479494 -265.53822 
L 642.344229 -262.793594 
L 635.208964 -261.854159 
L 628.073699 -263.164047 
L 620.938435 -261.362951 
L 613.80317 -261.854159 
L 606.667905 -257.601115 
L 599.53264 -261.362951 
L 592.397376 -257.625675 
L 585.262111 -261.199214 
L 578.126846 -258.964218 
L 570.991582 -261.117346 
L 563.856317 -260.495149 
L 556.721052 -260.380534 
L 549.585787 -259.807458 
L 542.450523 -258.415702 
L 535.315258 -258.006362 
L 528.179993 -259.561854 
L 521.044728 -259.479986 
L 513.909464 -259.152514 
L 506.774199 -256.123397 
L 499.638934 -256.123397 
L 492.503669 -256.123397 
L 485.368405 -255.959661 
L 478.23314 -255.795925 
L 471.097875 -255.632189 
L 463.962611 -255.468453 
L 456.827346 -255.304717 
L 449.692081 -254.567905 
L 442.556816 -254.322301 
L 435.421552 -253.994829 
L 428.286287 -253.393099 
L 421.151022 -253.176148 
L 414.015757 -252.357468 
L 406.880493 -251.538788 
L 399.745228 -251.784392 
L 392.609963 -251.297277 
L 385.474698 -251.211316 
L 378.339434 -246.135499 
L 371.204169 -250.63824 
L 364.068904 -245.838727 
L 356.933639 -249.000879 
L 349.798375 -247.036047 
L 342.66311 -245.480555 
L 335.527845 -244.661874 
L 328.392581 -244.334402 
L 321.257316 -242.860778 
L 314.122051 -242.050285 
L 306.986786 -241.469022 
L 299.851522 -241.223418 
L 292.716257 -240.406784 
L 285.580992 -239.749793 
L 278.445727 -234.673976 
L 271.310463 -235.32892 
L 264.175198 -234.594155 
L 257.039933 -233.445956 
L 249.904668 -231.403348 
L 242.769404 -230.908047 
L 235.634139 -230.908047 
L 228.498874 -228.452006 
L 221.36361 -226.487174 
L 214.228345 -225.177286 
L 207.09308 -223.867397 
L 199.957815 -222.475641 
L 192.822551 -219.119052 
L 185.687286 -217.9729 
L 178.552021 -215.598727 
L 171.416756 -213.142687 
L 164.281492 -209.458626 
L 157.146227 -205.692697 
L 150.010962 -199.634463 
L 142.875697 -195.62293 
L 135.740433 -195.295458 
L 128.605168 -185.225692 
L 121.469903 -172.781753 
L 114.334638 -164.922423 
L 107.199374 -153.05156 
L 100.064109 -138.888392 
L 92.928844 -127.590605 
L 85.79358 -89.276372 
z
" id="mc998000c57" style="stroke:#1f77b4;stroke-opacity:0.2;"/>
    </defs>
    <g clip-path="url(#p6cb0f10418)">
     <use style="fill:#1f77b4;fill-opacity:0.2;stroke:#1f77b4;stroke-opacity:0.2;" x="0" xlink:href="#mc998000c57" y="325.986375"/>
    </g>
   </g>
   <g id="matplotlib.axis_1">
    <g id="xtick_1">
     <g id="line2d_1">
      <defs>
       <path d="M 0 0 
L 0 3.5 
" id="md99055d2a4" style="stroke:#000000;stroke-width:0.8;"/>
      </defs>
      <g>
       <use style="stroke:#000000;stroke-width:0.8;" x="85.79358" xlink:href="#md99055d2a4" y="288.430125"/>
      </g>
     </g>
     <g id="text_1">
      <!-- 15m -->
      <g transform="translate(74.560767 303.028562)scale(0.1 -0.1)">
       <defs>
        <path d="M 794 531 
L 1825 531 
L 1825 4091 
L 703 3866 
L 703 4441 
L 1819 4666 
L 2450 4666 
L 2450 531 
L 3481 531 
L 3481 0 
L 794 0 
L 794 531 
z
" id="DejaVuSans-31" transform="scale(0.015625)"/>
        <path d="M 691 4666 
L 3169 4666 
L 3169 4134 
L 1269 4134 
L 1269 2991 
Q 1406 3038 1543 3061 
Q 1681 3084 1819 3084 
Q 2600 3084 3056 2656 
Q 3513 2228 3513 1497 
Q 3513 744 3044 326 
Q 2575 -91 1722 -91 
Q 1428 -91 1123 -41 
Q 819 9 494 109 
L 494 744 
Q 775 591 1075 516 
Q 1375 441 1709 441 
Q 2250 441 2565 725 
Q 2881 1009 2881 1497 
Q 2881 1984 2565 2268 
Q 2250 2553 1709 2553 
Q 1456 2553 1204 2497 
Q 953 2441 691 2322 
L 691 4666 
z
" id="DejaVuSans-35" transform="scale(0.015625)"/>
        <path d="M 3328 2828 
Q 3544 3216 3844 3400 
Q 4144 3584 4550 3584 
Q 5097 3584 5394 3201 
Q 5691 2819 5691 2113 
L 5691 0 
L 5113 0 
L 5113 2094 
Q 5113 2597 4934 2840 
Q 4756 3084 4391 3084 
Q 3944 3084 3684 2787 
Q 3425 2491 3425 1978 
L 3425 0 
L 2847 0 
L 2847 2094 
Q 2847 2600 2669 2842 
Q 2491 3084 2119 3084 
Q 1678 3084 1418 2786 
Q 1159 2488 1159 1978 
L 1159 0 
L 581 0 
L 581 3500 
L 1159 3500 
L 1159 2956 
Q 1356 3278 1631 3431 
Q 1906 3584 2284 3584 
Q 2666 3584 2933 3390 
Q 3200 3197 3328 2828 
z
" id="DejaVuSans-6d" transform="scale(0.015625)"/>
       </defs>
       <use xlink:href="#DejaVuSans-31"/>
       <use x="63.623047" xlink:href="#DejaVuSans-35"/>
       <use x="127.246094" xlink:href="#DejaVuSans-6d"/>
      </g>
     </g>
    </g>
    <g id="xtick_2">
     <g id="line2d_2">
      <g>
       <use style="stroke:#000000;stroke-width:0.8;" x="140.497276" xlink:href="#md99055d2a4" y="288.430125"/>
      </g>
     </g>
     <g id="text_2">
      <!-- 2h:10m -->
      <g transform="translate(121.230088 303.028562)scale(0.1 -0.1)">
       <defs>
        <path d="M 1228 531 
L 3431 531 
L 3431 0 
L 469 0 
L 469 531 
Q 828 903 1448 1529 
Q 2069 2156 2228 2338 
Q 2531 2678 2651 2914 
Q 2772 3150 2772 3378 
Q 2772 3750 2511 3984 
Q 2250 4219 1831 4219 
Q 1534 4219 1204 4116 
Q 875 4013 500 3803 
L 500 4441 
Q 881 4594 1212 4672 
Q 1544 4750 1819 4750 
Q 2544 4750 2975 4387 
Q 3406 4025 3406 3419 
Q 3406 3131 3298 2873 
Q 3191 2616 2906 2266 
Q 2828 2175 2409 1742 
Q 1991 1309 1228 531 
z
" id="DejaVuSans-32" transform="scale(0.015625)"/>
        <path d="M 3513 2113 
L 3513 0 
L 2938 0 
L 2938 2094 
Q 2938 2591 2744 2837 
Q 2550 3084 2163 3084 
Q 1697 3084 1428 2787 
Q 1159 2491 1159 1978 
L 1159 0 
L 581 0 
L 581 4863 
L 1159 4863 
L 1159 2956 
Q 1366 3272 1645 3428 
Q 1925 3584 2291 3584 
Q 2894 3584 3203 3211 
Q 3513 2838 3513 2113 
z
" id="DejaVuSans-68" transform="scale(0.015625)"/>
        <path d="M 750 794 
L 1409 794 
L 1409 0 
L 750 0 
L 750 794 
z
M 750 3309 
L 1409 3309 
L 1409 2516 
L 750 2516 
L 750 3309 
z
" id="DejaVuSans-3a" transform="scale(0.015625)"/>
        <path d="M 2034 4250 
Q 1547 4250 1301 3770 
Q 1056 3291 1056 2328 
Q 1056 1369 1301 889 
Q 1547 409 2034 409 
Q 2525 409 2770 889 
Q 3016 1369 3016 2328 
Q 3016 3291 2770 3770 
Q 2525 4250 2034 4250 
z
M 2034 4750 
Q 2819 4750 3233 4129 
Q 3647 3509 3647 2328 
Q 3647 1150 3233 529 
Q 2819 -91 2034 -91 
Q 1250 -91 836 529 
Q 422 1150 422 2328 
Q 422 3509 836 4129 
Q 1250 4750 2034 4750 
z
" id="DejaVuSans-30" transform="scale(0.015625)"/>
       </defs>
       <use xlink:href="#DejaVuSans-32"/>
       <use x="63.623047" xlink:href="#DejaVuSans-68"/>
       <use x="127.001953" xlink:href="#DejaVuSans-3a"/>
       <use x="160.693359" xlink:href="#DejaVuSans-31"/>
       <use x="224.316406" xlink:href="#DejaVuSans-30"/>
       <use x="287.939453" xlink:href="#DejaVuSans-6d"/>
      </g>
     </g>
    </g>
    <g id="xtick_3">
     <g id="line2d_3">
      <g>
       <use style="stroke:#000000;stroke-width:0.8;" x="195.200972" xlink:href="#md99055d2a4" y="288.430125"/>
      </g>
     </g>
     <g id="text_3">
      <!-- 4h:5m -->
      <g transform="translate(179.115035 303.028562)scale(0.1 -0.1)">
       <defs>
        <path d="M 2419 4116 
L 825 1625 
L 2419 1625 
L 2419 4116 
z
M 2253 4666 
L 3047 4666 
L 3047 1625 
L 3713 1625 
L 3713 1100 
L 3047 1100 
L 3047 0 
L 2419 0 
L 2419 1100 
L 313 1100 
L 313 1709 
L 2253 4666 
z
" id="DejaVuSans-34" transform="scale(0.015625)"/>
       </defs>
       <use xlink:href="#DejaVuSans-34"/>
       <use x="63.623047" xlink:href="#DejaVuSans-68"/>
       <use x="127.001953" xlink:href="#DejaVuSans-3a"/>
       <use x="160.693359" xlink:href="#DejaVuSans-35"/>
       <use x="224.316406" xlink:href="#DejaVuSans-6d"/>
      </g>
     </g>
    </g>
    <g id="xtick_4">
     <g id="line2d_4">
      <g>
       <use style="stroke:#000000;stroke-width:0.8;" x="249.904668" xlink:href="#md99055d2a4" y="288.430125"/>
      </g>
     </g>
     <g id="text_4">
      <!-- 6h -->
      <g transform="translate(243.554668 303.028562)scale(0.1 -0.1)">
       <defs>
        <path d="M 2113 2584 
Q 1688 2584 1439 2293 
Q 1191 2003 1191 1497 
Q 1191 994 1439 701 
Q 1688 409 2113 409 
Q 2538 409 2786 701 
Q 3034 994 3034 1497 
Q 3034 2003 2786 2293 
Q 2538 2584 2113 2584 
z
M 3366 4563 
L 3366 3988 
Q 3128 4100 2886 4159 
Q 2644 4219 2406 4219 
Q 1781 4219 1451 3797 
Q 1122 3375 1075 2522 
Q 1259 2794 1537 2939 
Q 1816 3084 2150 3084 
Q 2853 3084 3261 2657 
Q 3669 2231 3669 1497 
Q 3669 778 3244 343 
Q 2819 -91 2113 -91 
Q 1303 -91 875 529 
Q 447 1150 447 2328 
Q 447 3434 972 4092 
Q 1497 4750 2381 4750 
Q 2619 4750 2861 4703 
Q 3103 4656 3366 4563 
z
" id="DejaVuSans-36" transform="scale(0.015625)"/>
       </defs>
       <use xlink:href="#DejaVuSans-36"/>
       <use x="63.623047" xlink:href="#DejaVuSans-68"/>
      </g>
     </g>
    </g>
    <g id="xtick_5">
     <g id="line2d_5">
      <g>
       <use style="stroke:#000000;stroke-width:0.8;" x="304.608365" xlink:href="#md99055d2a4" y="288.430125"/>
      </g>
     </g>
     <g id="text_5">
      <!-- 7h:55m -->
      <g transform="translate(285.341177 303.028562)scale(0.1 -0.1)">
       <defs>
        <path d="M 525 4666 
L 3525 4666 
L 3525 4397 
L 1831 0 
L 1172 0 
L 2766 4134 
L 525 4134 
L 525 4666 
z
" id="DejaVuSans-37" transform="scale(0.015625)"/>
       </defs>
       <use xlink:href="#DejaVuSans-37"/>
       <use x="63.623047" xlink:href="#DejaVuSans-68"/>
       <use x="127.001953" xlink:href="#DejaVuSans-3a"/>
       <use x="160.693359" xlink:href="#DejaVuSans-35"/>
       <use x="224.316406" xlink:href="#DejaVuSans-35"/>
       <use x="287.939453" xlink:href="#DejaVuSans-6d"/>
      </g>
     </g>
    </g>
    <g id="xtick_6">
     <g id="line2d_6">
      <g>
       <use style="stroke:#000000;stroke-width:0.8;" x="359.312061" xlink:href="#md99055d2a4" y="288.430125"/>
      </g>
     </g>
     <g id="text_6">
      <!-- 9h:50m -->
      <g transform="translate(340.044874 303.028562)scale(0.1 -0.1)">
       <defs>
        <path d="M 703 97 
L 703 672 
Q 941 559 1184 500 
Q 1428 441 1663 441 
Q 2288 441 2617 861 
Q 2947 1281 2994 2138 
Q 2813 1869 2534 1725 
Q 2256 1581 1919 1581 
Q 1219 1581 811 2004 
Q 403 2428 403 3163 
Q 403 3881 828 4315 
Q 1253 4750 1959 4750 
Q 2769 4750 3195 4129 
Q 3622 3509 3622 2328 
Q 3622 1225 3098 567 
Q 2575 -91 1691 -91 
Q 1453 -91 1209 -44 
Q 966 3 703 97 
z
M 1959 2075 
Q 2384 2075 2632 2365 
Q 2881 2656 2881 3163 
Q 2881 3666 2632 3958 
Q 2384 4250 1959 4250 
Q 1534 4250 1286 3958 
Q 1038 3666 1038 3163 
Q 1038 2656 1286 2365 
Q 1534 2075 1959 2075 
z
" id="DejaVuSans-39" transform="scale(0.015625)"/>
       </defs>
       <use xlink:href="#DejaVuSans-39"/>
       <use x="63.623047" xlink:href="#DejaVuSans-68"/>
       <use x="127.001953" xlink:href="#DejaVuSans-3a"/>
       <use x="160.693359" xlink:href="#DejaVuSans-35"/>
       <use x="224.316406" xlink:href="#DejaVuSans-30"/>
       <use x="287.939453" xlink:href="#DejaVuSans-6d"/>
      </g>
     </g>
    </g>
    <g id="xtick_7">
     <g id="line2d_7">
      <g>
       <use style="stroke:#000000;stroke-width:0.8;" x="414.015757" xlink:href="#md99055d2a4" y="288.430125"/>
      </g>
     </g>
     <g id="text_7">
      <!-- 11h:45m -->
      <g transform="translate(391.56732 303.028562)scale(0.1 -0.1)">
       <use xlink:href="#DejaVuSans-31"/>
       <use x="63.623047" xlink:href="#DejaVuSans-31"/>
       <use x="127.246094" xlink:href="#DejaVuSans-68"/>
       <use x="190.625" xlink:href="#DejaVuSans-3a"/>
       <use x="224.316406" xlink:href="#DejaVuSans-34"/>
       <use x="287.939453" xlink:href="#DejaVuSans-35"/>
       <use x="351.5625" xlink:href="#DejaVuSans-6d"/>
      </g>
     </g>
    </g>
    <g id="xtick_8">
     <g id="line2d_8">
      <g>
       <use style="stroke:#000000;stroke-width:0.8;" x="468.719454" xlink:href="#md99055d2a4" y="288.430125"/>
      </g>
     </g>
     <g id="text_8">
      <!-- 13h:40m -->
      <g transform="translate(446.271016 303.028562)scale(0.1 -0.1)">
       <defs>
        <path d="M 2597 2516 
Q 3050 2419 3304 2112 
Q 3559 1806 3559 1356 
Q 3559 666 3084 287 
Q 2609 -91 1734 -91 
Q 1441 -91 1130 -33 
Q 819 25 488 141 
L 488 750 
Q 750 597 1062 519 
Q 1375 441 1716 441 
Q 2309 441 2620 675 
Q 2931 909 2931 1356 
Q 2931 1769 2642 2001 
Q 2353 2234 1838 2234 
L 1294 2234 
L 1294 2753 
L 1863 2753 
Q 2328 2753 2575 2939 
Q 2822 3125 2822 3475 
Q 2822 3834 2567 4026 
Q 2313 4219 1838 4219 
Q 1578 4219 1281 4162 
Q 984 4106 628 3988 
L 628 4550 
Q 988 4650 1302 4700 
Q 1616 4750 1894 4750 
Q 2613 4750 3031 4423 
Q 3450 4097 3450 3541 
Q 3450 3153 3228 2886 
Q 3006 2619 2597 2516 
z
" id="DejaVuSans-33" transform="scale(0.015625)"/>
       </defs>
       <use xlink:href="#DejaVuSans-31"/>
       <use x="63.623047" xlink:href="#DejaVuSans-33"/>
       <use x="127.246094" xlink:href="#DejaVuSans-68"/>
       <use x="190.625" xlink:href="#DejaVuSans-3a"/>
       <use x="224.316406" xlink:href="#DejaVuSans-34"/>
       <use x="287.939453" xlink:href="#DejaVuSans-30"/>
       <use x="351.5625" xlink:href="#DejaVuSans-6d"/>
      </g>
     </g>
    </g>
    <g id="xtick_9">
     <g id="line2d_9">
      <g>
       <use style="stroke:#000000;stroke-width:0.8;" x="523.42315" xlink:href="#md99055d2a4" y="288.430125"/>
      </g>
     </g>
     <g id="text_9">
      <!-- 15h:35m -->
      <g transform="translate(500.974712 303.028562)scale(0.1 -0.1)">
       <use xlink:href="#DejaVuSans-31"/>
       <use x="63.623047" xlink:href="#DejaVuSans-35"/>
       <use x="127.246094" xlink:href="#DejaVuSans-68"/>
       <use x="190.625" xlink:href="#DejaVuSans-3a"/>
       <use x="224.316406" xlink:href="#DejaVuSans-33"/>
       <use x="287.939453" xlink:href="#DejaVuSans-35"/>
       <use x="351.5625" xlink:href="#DejaVuSans-6d"/>
      </g>
     </g>
    </g>
    <g id="xtick_10">
     <g id="line2d_10">
      <g>
       <use style="stroke:#000000;stroke-width:0.8;" x="578.126846" xlink:href="#md99055d2a4" y="288.430125"/>
      </g>
     </g>
     <g id="text_10">
      <!-- 17h:30m -->
      <g transform="translate(555.678409 303.028562)scale(0.1 -0.1)">
       <use xlink:href="#DejaVuSans-31"/>
       <use x="63.623047" xlink:href="#DejaVuSans-37"/>
       <use x="127.246094" xlink:href="#DejaVuSans-68"/>
       <use x="190.625" xlink:href="#DejaVuSans-3a"/>
       <use x="224.316406" xlink:href="#DejaVuSans-33"/>
       <use x="287.939453" xlink:href="#DejaVuSans-30"/>
       <use x="351.5625" xlink:href="#DejaVuSans-6d"/>
      </g>
     </g>
    </g>
    <g id="xtick_11">
     <g id="line2d_11">
      <g>
       <use style="stroke:#000000;stroke-width:0.8;" x="632.830543" xlink:href="#md99055d2a4" y="288.430125"/>
      </g>
     </g>
     <g id="text_11">
      <!-- 19h:25m -->
      <g transform="translate(610.382105 303.028562)scale(0.1 -0.1)">
       <use xlink:href="#DejaVuSans-31"/>
       <use x="63.623047" xlink:href="#DejaVuSans-39"/>
       <use x="127.246094" xlink:href="#DejaVuSans-68"/>
       <use x="190.625" xlink:href="#DejaVuSans-3a"/>
       <use x="224.316406" xlink:href="#DejaVuSans-32"/>
       <use x="287.939453" xlink:href="#DejaVuSans-35"/>
       <use x="351.5625" xlink:href="#DejaVuSans-6d"/>
      </g>
     </g>
    </g>
    <g id="xtick_12">
     <g id="line2d_12">
      <g>
       <use style="stroke:#000000;stroke-width:0.8;" x="687.534239" xlink:href="#md99055d2a4" y="288.430125"/>
      </g>
     </g>
     <g id="text_12">
      <!-- 21h:20m -->
      <g transform="translate(665.085801 303.028562)scale(0.1 -0.1)">
       <use xlink:href="#DejaVuSans-32"/>
       <use x="63.623047" xlink:href="#DejaVuSans-31"/>
       <use x="127.246094" xlink:href="#DejaVuSans-68"/>
       <use x="190.625" xlink:href="#DejaVuSans-3a"/>
       <use x="224.316406" xlink:href="#DejaVuSans-32"/>
       <use x="287.939453" xlink:href="#DejaVuSans-30"/>
       <use x="351.5625" xlink:href="#DejaVuSans-6d"/>
      </g>
     </g>
    </g>
    <g id="text_13">
     <!-- Time (hour:minute) -->
     <g transform="translate(362.041094 316.706687)scale(0.1 -0.1)">
      <defs>
       <path d="M -19 4666 
L 3928 4666 
L 3928 4134 
L 2272 4134 
L 2272 0 
L 1638 0 
L 1638 4134 
L -19 4134 
L -19 4666 
z
" id="DejaVuSans-54" transform="scale(0.015625)"/>
       <path d="M 603 3500 
L 1178 3500 
L 1178 0 
L 603 0 
L 603 3500 
z
M 603 4863 
L 1178 4863 
L 1178 4134 
L 603 4134 
L 603 4863 
z
" id="DejaVuSans-69" transform="scale(0.015625)"/>
       <path d="M 3597 1894 
L 3597 1613 
L 953 1613 
Q 991 1019 1311 708 
Q 1631 397 2203 397 
Q 2534 397 2845 478 
Q 3156 559 3463 722 
L 3463 178 
Q 3153 47 2828 -22 
Q 2503 -91 2169 -91 
Q 1331 -91 842 396 
Q 353 884 353 1716 
Q 353 2575 817 3079 
Q 1281 3584 2069 3584 
Q 2775 3584 3186 3129 
Q 3597 2675 3597 1894 
z
M 3022 2063 
Q 3016 2534 2758 2815 
Q 2500 3097 2075 3097 
Q 1594 3097 1305 2825 
Q 1016 2553 972 2059 
L 3022 2063 
z
" id="DejaVuSans-65" transform="scale(0.015625)"/>
       <path id="DejaVuSans-20" transform="scale(0.015625)"/>
       <path d="M 1984 4856 
Q 1566 4138 1362 3434 
Q 1159 2731 1159 2009 
Q 1159 1288 1364 580 
Q 1569 -128 1984 -844 
L 1484 -844 
Q 1016 -109 783 600 
Q 550 1309 550 2009 
Q 550 2706 781 3412 
Q 1013 4119 1484 4856 
L 1984 4856 
z
" id="DejaVuSans-28" transform="scale(0.015625)"/>
       <path d="M 1959 3097 
Q 1497 3097 1228 2736 
Q 959 2375 959 1747 
Q 959 1119 1226 758 
Q 1494 397 1959 397 
Q 2419 397 2687 759 
Q 2956 1122 2956 1747 
Q 2956 2369 2687 2733 
Q 2419 3097 1959 3097 
z
M 1959 3584 
Q 2709 3584 3137 3096 
Q 3566 2609 3566 1747 
Q 3566 888 3137 398 
Q 2709 -91 1959 -91 
Q 1206 -91 779 398 
Q 353 888 353 1747 
Q 353 2609 779 3096 
Q 1206 3584 1959 3584 
z
" id="DejaVuSans-6f" transform="scale(0.015625)"/>
       <path d="M 544 1381 
L 544 3500 
L 1119 3500 
L 1119 1403 
Q 1119 906 1312 657 
Q 1506 409 1894 409 
Q 2359 409 2629 706 
Q 2900 1003 2900 1516 
L 2900 3500 
L 3475 3500 
L 3475 0 
L 2900 0 
L 2900 538 
Q 2691 219 2414 64 
Q 2138 -91 1772 -91 
Q 1169 -91 856 284 
Q 544 659 544 1381 
z
M 1991 3584 
L 1991 3584 
z
" id="DejaVuSans-75" transform="scale(0.015625)"/>
       <path d="M 2631 2963 
Q 2534 3019 2420 3045 
Q 2306 3072 2169 3072 
Q 1681 3072 1420 2755 
Q 1159 2438 1159 1844 
L 1159 0 
L 581 0 
L 581 3500 
L 1159 3500 
L 1159 2956 
Q 1341 3275 1631 3429 
Q 1922 3584 2338 3584 
Q 2397 3584 2469 3576 
Q 2541 3569 2628 3553 
L 2631 2963 
z
" id="DejaVuSans-72" transform="scale(0.015625)"/>
       <path d="M 3513 2113 
L 3513 0 
L 2938 0 
L 2938 2094 
Q 2938 2591 2744 2837 
Q 2550 3084 2163 3084 
Q 1697 3084 1428 2787 
Q 1159 2491 1159 1978 
L 1159 0 
L 581 0 
L 581 3500 
L 1159 3500 
L 1159 2956 
Q 1366 3272 1645 3428 
Q 1925 3584 2291 3584 
Q 2894 3584 3203 3211 
Q 3513 2838 3513 2113 
z
" id="DejaVuSans-6e" transform="scale(0.015625)"/>
       <path d="M 1172 4494 
L 1172 3500 
L 2356 3500 
L 2356 3053 
L 1172 3053 
L 1172 1153 
Q 1172 725 1289 603 
Q 1406 481 1766 481 
L 2356 481 
L 2356 0 
L 1766 0 
Q 1100 0 847 248 
Q 594 497 594 1153 
L 594 3053 
L 172 3053 
L 172 3500 
L 594 3500 
L 594 4494 
L 1172 4494 
z
" id="DejaVuSans-74" transform="scale(0.015625)"/>
       <path d="M 513 4856 
L 1013 4856 
Q 1481 4119 1714 3412 
Q 1947 2706 1947 2009 
Q 1947 1309 1714 600 
Q 1481 -109 1013 -844 
L 513 -844 
Q 928 -128 1133 580 
Q 1338 1288 1338 2009 
Q 1338 2731 1133 3434 
Q 928 4138 513 4856 
z
" id="DejaVuSans-29" transform="scale(0.015625)"/>
      </defs>
      <use xlink:href="#DejaVuSans-54"/>
      <use x="57.958984" xlink:href="#DejaVuSans-69"/>
      <use x="85.742188" xlink:href="#DejaVuSans-6d"/>
      <use x="183.154297" xlink:href="#DejaVuSans-65"/>
      <use x="244.677734" xlink:href="#DejaVuSans-20"/>
      <use x="276.464844" xlink:href="#DejaVuSans-28"/>
      <use x="315.478516" xlink:href="#DejaVuSans-68"/>
      <use x="378.857422" xlink:href="#DejaVuSans-6f"/>
      <use x="440.039062" xlink:href="#DejaVuSans-75"/>
      <use x="503.417969" xlink:href="#DejaVuSans-72"/>
      <use x="542.78125" xlink:href="#DejaVuSans-3a"/>
      <use x="576.472656" xlink:href="#DejaVuSans-6d"/>
      <use x="673.884766" xlink:href="#DejaVuSans-69"/>
      <use x="701.667969" xlink:href="#DejaVuSans-6e"/>
      <use x="765.046875" xlink:href="#DejaVuSans-75"/>
      <use x="828.425781" xlink:href="#DejaVuSans-74"/>
      <use x="867.634766" xlink:href="#DejaVuSans-65"/>
      <use x="929.158203" xlink:href="#DejaVuSans-29"/>
     </g>
    </g>
   </g>
   <g id="matplotlib.axis_2">
    <g id="ytick_1">
     <g id="line2d_13">
      <defs>
       <path d="M 0 0 
L -3.5 0 
" id="mdac321fbac" style="stroke:#000000;stroke-width:0.8;"/>
      </defs>
      <g>
       <use style="stroke:#000000;stroke-width:0.8;" x="53.328125" xlink:href="#mdac321fbac" y="256.358328"/>
      </g>
     </g>
     <g id="text_14">
      <!-- 6400 -->
      <g transform="translate(20.878125 260.157547)scale(0.1 -0.1)">
       <use xlink:href="#DejaVuSans-36"/>
       <use x="63.623047" xlink:href="#DejaVuSans-34"/>
       <use x="127.246094" xlink:href="#DejaVuSans-30"/>
       <use x="190.869141" xlink:href="#DejaVuSans-30"/>
      </g>
     </g>
    </g>
    <g id="ytick_2">
     <g id="line2d_14">
      <g>
       <use style="stroke:#000000;stroke-width:0.8;" x="53.328125" xlink:href="#mdac321fbac" y="223.61112"/>
      </g>
     </g>
     <g id="text_15">
      <!-- 6600 -->
      <g transform="translate(20.878125 227.410339)scale(0.1 -0.1)">
       <use xlink:href="#DejaVuSans-36"/>
       <use x="63.623047" xlink:href="#DejaVuSans-36"/>
       <use x="127.246094" xlink:href="#DejaVuSans-30"/>
       <use x="190.869141" xlink:href="#DejaVuSans-30"/>
      </g>
     </g>
    </g>
    <g id="ytick_3">
     <g id="line2d_15">
      <g>
       <use style="stroke:#000000;stroke-width:0.8;" x="53.328125" xlink:href="#mdac321fbac" y="190.863912"/>
      </g>
     </g>
     <g id="text_16">
      <!-- 6800 -->
      <g transform="translate(20.878125 194.663131)scale(0.1 -0.1)">
       <defs>
        <path d="M 2034 2216 
Q 1584 2216 1326 1975 
Q 1069 1734 1069 1313 
Q 1069 891 1326 650 
Q 1584 409 2034 409 
Q 2484 409 2743 651 
Q 3003 894 3003 1313 
Q 3003 1734 2745 1975 
Q 2488 2216 2034 2216 
z
M 1403 2484 
Q 997 2584 770 2862 
Q 544 3141 544 3541 
Q 544 4100 942 4425 
Q 1341 4750 2034 4750 
Q 2731 4750 3128 4425 
Q 3525 4100 3525 3541 
Q 3525 3141 3298 2862 
Q 3072 2584 2669 2484 
Q 3125 2378 3379 2068 
Q 3634 1759 3634 1313 
Q 3634 634 3220 271 
Q 2806 -91 2034 -91 
Q 1263 -91 848 271 
Q 434 634 434 1313 
Q 434 1759 690 2068 
Q 947 2378 1403 2484 
z
M 1172 3481 
Q 1172 3119 1398 2916 
Q 1625 2713 2034 2713 
Q 2441 2713 2670 2916 
Q 2900 3119 2900 3481 
Q 2900 3844 2670 4047 
Q 2441 4250 2034 4250 
Q 1625 4250 1398 4047 
Q 1172 3844 1172 3481 
z
" id="DejaVuSans-38" transform="scale(0.015625)"/>
       </defs>
       <use xlink:href="#DejaVuSans-36"/>
       <use x="63.623047" xlink:href="#DejaVuSans-38"/>
       <use x="127.246094" xlink:href="#DejaVuSans-30"/>
       <use x="190.869141" xlink:href="#DejaVuSans-30"/>
      </g>
     </g>
    </g>
    <g id="ytick_4">
     <g id="line2d_16">
      <g>
       <use style="stroke:#000000;stroke-width:0.8;" x="53.328125" xlink:href="#mdac321fbac" y="158.116704"/>
      </g>
     </g>
     <g id="text_17">
      <!-- 7000 -->
      <g transform="translate(20.878125 161.915922)scale(0.1 -0.1)">
       <use xlink:href="#DejaVuSans-37"/>
       <use x="63.623047" xlink:href="#DejaVuSans-30"/>
       <use x="127.246094" xlink:href="#DejaVuSans-30"/>
       <use x="190.869141" xlink:href="#DejaVuSans-30"/>
      </g>
     </g>
    </g>
    <g id="ytick_5">
     <g id="line2d_17">
      <g>
       <use style="stroke:#000000;stroke-width:0.8;" x="53.328125" xlink:href="#mdac321fbac" y="125.369496"/>
      </g>
     </g>
     <g id="text_18">
      <!-- 7200 -->
      <g transform="translate(20.878125 129.168714)scale(0.1 -0.1)">
       <use xlink:href="#DejaVuSans-37"/>
       <use x="63.623047" xlink:href="#DejaVuSans-32"/>
       <use x="127.246094" xlink:href="#DejaVuSans-30"/>
       <use x="190.869141" xlink:href="#DejaVuSans-30"/>
      </g>
     </g>
    </g>
    <g id="ytick_6">
     <g id="line2d_18">
      <g>
       <use style="stroke:#000000;stroke-width:0.8;" x="53.328125" xlink:href="#mdac321fbac" y="92.622287"/>
      </g>
     </g>
     <g id="text_19">
      <!-- 7400 -->
      <g transform="translate(20.878125 96.421506)scale(0.1 -0.1)">
       <use xlink:href="#DejaVuSans-37"/>
       <use x="63.623047" xlink:href="#DejaVuSans-34"/>
       <use x="127.246094" xlink:href="#DejaVuSans-30"/>
       <use x="190.869141" xlink:href="#DejaVuSans-30"/>
      </g>
     </g>
    </g>
    <g id="ytick_7">
     <g id="line2d_19">
      <g>
       <use style="stroke:#000000;stroke-width:0.8;" x="53.328125" xlink:href="#mdac321fbac" y="59.875079"/>
      </g>
     </g>
     <g id="text_20">
      <!-- 7600 -->
      <g transform="translate(20.878125 63.674298)scale(0.1 -0.1)">
       <use xlink:href="#DejaVuSans-37"/>
       <use x="63.623047" xlink:href="#DejaVuSans-36"/>
       <use x="127.246094" xlink:href="#DejaVuSans-30"/>
       <use x="190.869141" xlink:href="#DejaVuSans-30"/>
      </g>
     </g>
    </g>
    <g id="ytick_8">
     <g id="line2d_20">
      <g>
       <use style="stroke:#000000;stroke-width:0.8;" x="53.328125" xlink:href="#mdac321fbac" y="27.127871"/>
      </g>
     </g>
     <g id="text_21">
      <!-- 7800 -->
      <g transform="translate(20.878125 30.92709)scale(0.1 -0.1)">
       <use xlink:href="#DejaVuSans-37"/>
       <use x="63.623047" xlink:href="#DejaVuSans-38"/>
       <use x="127.246094" xlink:href="#DejaVuSans-30"/>
       <use x="190.869141" xlink:href="#DejaVuSans-30"/>
      </g>
     </g>
    </g>
    <g id="text_22">
     <!-- Code branch coverage -->
     <g transform="translate(14.798438 211.949125)rotate(-90)scale(0.1 -0.1)">
      <defs>
       <path d="M 4122 4306 
L 4122 3641 
Q 3803 3938 3442 4084 
Q 3081 4231 2675 4231 
Q 1875 4231 1450 3742 
Q 1025 3253 1025 2328 
Q 1025 1406 1450 917 
Q 1875 428 2675 428 
Q 3081 428 3442 575 
Q 3803 722 4122 1019 
L 4122 359 
Q 3791 134 3420 21 
Q 3050 -91 2638 -91 
Q 1578 -91 968 557 
Q 359 1206 359 2328 
Q 359 3453 968 4101 
Q 1578 4750 2638 4750 
Q 3056 4750 3426 4639 
Q 3797 4528 4122 4306 
z
" id="DejaVuSans-43" transform="scale(0.015625)"/>
       <path d="M 2906 2969 
L 2906 4863 
L 3481 4863 
L 3481 0 
L 2906 0 
L 2906 525 
Q 2725 213 2448 61 
Q 2172 -91 1784 -91 
Q 1150 -91 751 415 
Q 353 922 353 1747 
Q 353 2572 751 3078 
Q 1150 3584 1784 3584 
Q 2172 3584 2448 3432 
Q 2725 3281 2906 2969 
z
M 947 1747 
Q 947 1113 1208 752 
Q 1469 391 1925 391 
Q 2381 391 2643 752 
Q 2906 1113 2906 1747 
Q 2906 2381 2643 2742 
Q 2381 3103 1925 3103 
Q 1469 3103 1208 2742 
Q 947 2381 947 1747 
z
" id="DejaVuSans-64" transform="scale(0.015625)"/>
       <path d="M 3116 1747 
Q 3116 2381 2855 2742 
Q 2594 3103 2138 3103 
Q 1681 3103 1420 2742 
Q 1159 2381 1159 1747 
Q 1159 1113 1420 752 
Q 1681 391 2138 391 
Q 2594 391 2855 752 
Q 3116 1113 3116 1747 
z
M 1159 2969 
Q 1341 3281 1617 3432 
Q 1894 3584 2278 3584 
Q 2916 3584 3314 3078 
Q 3713 2572 3713 1747 
Q 3713 922 3314 415 
Q 2916 -91 2278 -91 
Q 1894 -91 1617 61 
Q 1341 213 1159 525 
L 1159 0 
L 581 0 
L 581 4863 
L 1159 4863 
L 1159 2969 
z
" id="DejaVuSans-62" transform="scale(0.015625)"/>
       <path d="M 2194 1759 
Q 1497 1759 1228 1600 
Q 959 1441 959 1056 
Q 959 750 1161 570 
Q 1363 391 1709 391 
Q 2188 391 2477 730 
Q 2766 1069 2766 1631 
L 2766 1759 
L 2194 1759 
z
M 3341 1997 
L 3341 0 
L 2766 0 
L 2766 531 
Q 2569 213 2275 61 
Q 1981 -91 1556 -91 
Q 1019 -91 701 211 
Q 384 513 384 1019 
Q 384 1609 779 1909 
Q 1175 2209 1959 2209 
L 2766 2209 
L 2766 2266 
Q 2766 2663 2505 2880 
Q 2244 3097 1772 3097 
Q 1472 3097 1187 3025 
Q 903 2953 641 2809 
L 641 3341 
Q 956 3463 1253 3523 
Q 1550 3584 1831 3584 
Q 2591 3584 2966 3190 
Q 3341 2797 3341 1997 
z
" id="DejaVuSans-61" transform="scale(0.015625)"/>
       <path d="M 3122 3366 
L 3122 2828 
Q 2878 2963 2633 3030 
Q 2388 3097 2138 3097 
Q 1578 3097 1268 2742 
Q 959 2388 959 1747 
Q 959 1106 1268 751 
Q 1578 397 2138 397 
Q 2388 397 2633 464 
Q 2878 531 3122 666 
L 3122 134 
Q 2881 22 2623 -34 
Q 2366 -91 2075 -91 
Q 1284 -91 818 406 
Q 353 903 353 1747 
Q 353 2603 823 3093 
Q 1294 3584 2113 3584 
Q 2378 3584 2631 3529 
Q 2884 3475 3122 3366 
z
" id="DejaVuSans-63" transform="scale(0.015625)"/>
       <path d="M 191 3500 
L 800 3500 
L 1894 563 
L 2988 3500 
L 3597 3500 
L 2284 0 
L 1503 0 
L 191 3500 
z
" id="DejaVuSans-76" transform="scale(0.015625)"/>
       <path d="M 2906 1791 
Q 2906 2416 2648 2759 
Q 2391 3103 1925 3103 
Q 1463 3103 1205 2759 
Q 947 2416 947 1791 
Q 947 1169 1205 825 
Q 1463 481 1925 481 
Q 2391 481 2648 825 
Q 2906 1169 2906 1791 
z
M 3481 434 
Q 3481 -459 3084 -895 
Q 2688 -1331 1869 -1331 
Q 1566 -1331 1297 -1286 
Q 1028 -1241 775 -1147 
L 775 -588 
Q 1028 -725 1275 -790 
Q 1522 -856 1778 -856 
Q 2344 -856 2625 -561 
Q 2906 -266 2906 331 
L 2906 616 
Q 2728 306 2450 153 
Q 2172 0 1784 0 
Q 1141 0 747 490 
Q 353 981 353 1791 
Q 353 2603 747 3093 
Q 1141 3584 1784 3584 
Q 2172 3584 2450 3431 
Q 2728 3278 2906 2969 
L 2906 3500 
L 3481 3500 
L 3481 434 
z
" id="DejaVuSans-67" transform="scale(0.015625)"/>
      </defs>
      <use xlink:href="#DejaVuSans-43"/>
      <use x="69.824219" xlink:href="#DejaVuSans-6f"/>
      <use x="131.005859" xlink:href="#DejaVuSans-64"/>
      <use x="194.482422" xlink:href="#DejaVuSans-65"/>
      <use x="256.005859" xlink:href="#DejaVuSans-20"/>
      <use x="287.792969" xlink:href="#DejaVuSans-62"/>
      <use x="351.269531" xlink:href="#DejaVuSans-72"/>
      <use x="392.382812" xlink:href="#DejaVuSans-61"/>
      <use x="453.662109" xlink:href="#DejaVuSans-6e"/>
      <use x="517.041016" xlink:href="#DejaVuSans-63"/>
      <use x="572.021484" xlink:href="#DejaVuSans-68"/>
      <use x="635.400391" xlink:href="#DejaVuSans-20"/>
      <use x="667.1875" xlink:href="#DejaVuSans-63"/>
      <use x="722.167969" xlink:href="#DejaVuSans-6f"/>
      <use x="783.349609" xlink:href="#DejaVuSans-76"/>
      <use x="842.529297" xlink:href="#DejaVuSans-65"/>
      <use x="904.052734" xlink:href="#DejaVuSans-72"/>
      <use x="945.166016" xlink:href="#DejaVuSans-61"/>
      <use x="1006.445312" xlink:href="#DejaVuSans-67"/>
      <use x="1069.921875" xlink:href="#DejaVuSans-65"/>
     </g>
    </g>
   </g>
   <g id="line2d_21">
    <path clip-path="url(#p6cb0f10418)" d="M 85.79358 266.428095 
L 92.928844 226.067161 
L 100.064109 207.155648 
L 107.199374 191.846328 
L 114.334638 179.811729 
L 121.469903 170.069435 
L 128.605168 162.046369 
L 135.740433 159.262856 
L 142.875697 153.941435 
L 150.010962 149.929902 
L 157.146227 145.099688 
L 164.281492 143.626064 
L 171.416756 141.415628 
L 178.552021 139.450795 
L 185.687286 134.374978 
L 192.822551 131.591465 
L 199.957815 128.398612 
L 207.09308 126.761252 
L 214.228345 124.550815 
L 221.36361 122.995323 
L 228.498874 121.357963 
L 235.634139 119.474998 
L 242.769404 117.182694 
L 249.904668 117.100826 
L 257.039933 115.709069 
L 264.175198 114.808521 
L 271.310463 113.580501 
L 278.445727 113.416765 
L 285.580992 110.223912 
L 292.716257 106.949191 
L 299.851522 105.311831 
L 306.986786 102.610186 
L 314.122051 101.791506 
L 321.257316 101.545902 
L 328.392581 100.563485 
L 335.527845 99.826673 
L 342.66311 99.417333 
L 349.798375 98.353049 
L 356.933639 97.861841 
L 364.068904 97.288765 
L 371.204169 96.797556 
L 378.339434 96.060744 
L 385.474698 95.733272 
L 392.609963 95.733272 
L 399.745228 95.651404 
L 406.880493 95.651404 
L 414.015757 95.4058 
L 421.151022 94.832724 
L 428.286287 94.505252 
L 435.421552 94.341516 
L 442.556816 93.850308 
L 449.692081 93.850308 
L 456.827346 93.76844 
L 463.962611 90.821191 
L 471.097875 90.411851 
L 478.23314 89.838775 
L 485.368405 89.838775 
L 492.503669 89.756907 
L 499.638934 89.429435 
L 506.774199 78.213516 
L 513.909464 77.804176 
L 521.044728 77.64044 
L 528.179993 77.64044 
L 535.315258 77.312968 
L 542.450523 76.084947 
L 549.585787 71.336602 
L 556.721052 71.254734 
L 563.856317 71.090998 
L 570.991582 70.436054 
L 578.126846 69.699242 
L 585.262111 69.289902 
L 592.397376 68.389353 
L 599.53264 68.389353 
L 606.667905 68.143749 
L 613.80317 68.061881 
L 620.938435 68.061881 
L 628.073699 67.406937 
L 635.208964 67.406937 
L 642.344229 67.406937 
L 649.479494 66.833861 
L 656.614758 66.260785 
L 663.750023 65.851445 
L 670.885288 65.851445 
L 678.020553 65.687709 
L 685.155817 65.605841 
L 692.291082 65.523973 
L 699.426347 65.523973 
L 706.561612 65.523973 
L 713.696876 65.523973 
L 720.832141 65.442105 
L 727.967406 65.442105 
L 735.10267 65.360237 
" style="fill:none;stroke:#98df8a;stroke-linecap:square;stroke-width:1.5;"/>
    <defs>
     <path d="M -0 3 
L 3 -3 
L -3 -3 
z
" id="meded6cc02c" style="stroke:#ffffff;stroke-linejoin:miter;stroke-width:0.75;"/>
    </defs>
    <g clip-path="url(#p6cb0f10418)">
     <use style="fill:#98df8a;stroke:#ffffff;stroke-linejoin:miter;stroke-width:0.75;" x="85.79358" xlink:href="#meded6cc02c" y="266.428095"/>
     <use style="fill:#98df8a;stroke:#ffffff;stroke-linejoin:miter;stroke-width:0.75;" x="92.928844" xlink:href="#meded6cc02c" y="226.067161"/>
     <use style="fill:#98df8a;stroke:#ffffff;stroke-linejoin:miter;stroke-width:0.75;" x="100.064109" xlink:href="#meded6cc02c" y="207.155648"/>
     <use style="fill:#98df8a;stroke:#ffffff;stroke-linejoin:miter;stroke-width:0.75;" x="107.199374" xlink:href="#meded6cc02c" y="191.846328"/>
     <use style="fill:#98df8a;stroke:#ffffff;stroke-linejoin:miter;stroke-width:0.75;" x="114.334638" xlink:href="#meded6cc02c" y="179.811729"/>
     <use style="fill:#98df8a;stroke:#ffffff;stroke-linejoin:miter;stroke-width:0.75;" x="121.469903" xlink:href="#meded6cc02c" y="170.069435"/>
     <use style="fill:#98df8a;stroke:#ffffff;stroke-linejoin:miter;stroke-width:0.75;" x="128.605168" xlink:href="#meded6cc02c" y="162.046369"/>
     <use style="fill:#98df8a;stroke:#ffffff;stroke-linejoin:miter;stroke-width:0.75;" x="135.740433" xlink:href="#meded6cc02c" y="159.262856"/>
     <use style="fill:#98df8a;stroke:#ffffff;stroke-linejoin:miter;stroke-width:0.75;" x="142.875697" xlink:href="#meded6cc02c" y="153.941435"/>
     <use style="fill:#98df8a;stroke:#ffffff;stroke-linejoin:miter;stroke-width:0.75;" x="150.010962" xlink:href="#meded6cc02c" y="149.929902"/>
     <use style="fill:#98df8a;stroke:#ffffff;stroke-linejoin:miter;stroke-width:0.75;" x="157.146227" xlink:href="#meded6cc02c" y="145.099688"/>
     <use style="fill:#98df8a;stroke:#ffffff;stroke-linejoin:miter;stroke-width:0.75;" x="164.281492" xlink:href="#meded6cc02c" y="143.626064"/>
     <use style="fill:#98df8a;stroke:#ffffff;stroke-linejoin:miter;stroke-width:0.75;" x="171.416756" xlink:href="#meded6cc02c" y="141.415628"/>
     <use style="fill:#98df8a;stroke:#ffffff;stroke-linejoin:miter;stroke-width:0.75;" x="178.552021" xlink:href="#meded6cc02c" y="139.450795"/>
     <use style="fill:#98df8a;stroke:#ffffff;stroke-linejoin:miter;stroke-width:0.75;" x="185.687286" xlink:href="#meded6cc02c" y="134.374978"/>
     <use style="fill:#98df8a;stroke:#ffffff;stroke-linejoin:miter;stroke-width:0.75;" x="192.822551" xlink:href="#meded6cc02c" y="131.591465"/>
     <use style="fill:#98df8a;stroke:#ffffff;stroke-linejoin:miter;stroke-width:0.75;" x="199.957815" xlink:href="#meded6cc02c" y="128.398612"/>
     <use style="fill:#98df8a;stroke:#ffffff;stroke-linejoin:miter;stroke-width:0.75;" x="207.09308" xlink:href="#meded6cc02c" y="126.761252"/>
     <use style="fill:#98df8a;stroke:#ffffff;stroke-linejoin:miter;stroke-width:0.75;" x="214.228345" xlink:href="#meded6cc02c" y="124.550815"/>
     <use style="fill:#98df8a;stroke:#ffffff;stroke-linejoin:miter;stroke-width:0.75;" x="221.36361" xlink:href="#meded6cc02c" y="122.995323"/>
     <use style="fill:#98df8a;stroke:#ffffff;stroke-linejoin:miter;stroke-width:0.75;" x="228.498874" xlink:href="#meded6cc02c" y="121.357963"/>
     <use style="fill:#98df8a;stroke:#ffffff;stroke-linejoin:miter;stroke-width:0.75;" x="235.634139" xlink:href="#meded6cc02c" y="119.474998"/>
     <use style="fill:#98df8a;stroke:#ffffff;stroke-linejoin:miter;stroke-width:0.75;" x="242.769404" xlink:href="#meded6cc02c" y="117.182694"/>
     <use style="fill:#98df8a;stroke:#ffffff;stroke-linejoin:miter;stroke-width:0.75;" x="249.904668" xlink:href="#meded6cc02c" y="117.100826"/>
     <use style="fill:#98df8a;stroke:#ffffff;stroke-linejoin:miter;stroke-width:0.75;" x="257.039933" xlink:href="#meded6cc02c" y="115.709069"/>
     <use style="fill:#98df8a;stroke:#ffffff;stroke-linejoin:miter;stroke-width:0.75;" x="264.175198" xlink:href="#meded6cc02c" y="114.808521"/>
     <use style="fill:#98df8a;stroke:#ffffff;stroke-linejoin:miter;stroke-width:0.75;" x="271.310463" xlink:href="#meded6cc02c" y="113.580501"/>
     <use style="fill:#98df8a;stroke:#ffffff;stroke-linejoin:miter;stroke-width:0.75;" x="278.445727" xlink:href="#meded6cc02c" y="113.416765"/>
     <use style="fill:#98df8a;stroke:#ffffff;stroke-linejoin:miter;stroke-width:0.75;" x="285.580992" xlink:href="#meded6cc02c" y="110.223912"/>
     <use style="fill:#98df8a;stroke:#ffffff;stroke-linejoin:miter;stroke-width:0.75;" x="292.716257" xlink:href="#meded6cc02c" y="106.949191"/>
     <use style="fill:#98df8a;stroke:#ffffff;stroke-linejoin:miter;stroke-width:0.75;" x="299.851522" xlink:href="#meded6cc02c" y="105.311831"/>
     <use style="fill:#98df8a;stroke:#ffffff;stroke-linejoin:miter;stroke-width:0.75;" x="306.986786" xlink:href="#meded6cc02c" y="102.610186"/>
     <use style="fill:#98df8a;stroke:#ffffff;stroke-linejoin:miter;stroke-width:0.75;" x="314.122051" xlink:href="#meded6cc02c" y="101.791506"/>
     <use style="fill:#98df8a;stroke:#ffffff;stroke-linejoin:miter;stroke-width:0.75;" x="321.257316" xlink:href="#meded6cc02c" y="101.545902"/>
     <use style="fill:#98df8a;stroke:#ffffff;stroke-linejoin:miter;stroke-width:0.75;" x="328.392581" xlink:href="#meded6cc02c" y="100.563485"/>
     <use style="fill:#98df8a;stroke:#ffffff;stroke-linejoin:miter;stroke-width:0.75;" x="335.527845" xlink:href="#meded6cc02c" y="99.826673"/>
     <use style="fill:#98df8a;stroke:#ffffff;stroke-linejoin:miter;stroke-width:0.75;" x="342.66311" xlink:href="#meded6cc02c" y="99.417333"/>
     <use style="fill:#98df8a;stroke:#ffffff;stroke-linejoin:miter;stroke-width:0.75;" x="349.798375" xlink:href="#meded6cc02c" y="98.353049"/>
     <use style="fill:#98df8a;stroke:#ffffff;stroke-linejoin:miter;stroke-width:0.75;" x="356.933639" xlink:href="#meded6cc02c" y="97.861841"/>
     <use style="fill:#98df8a;stroke:#ffffff;stroke-linejoin:miter;stroke-width:0.75;" x="364.068904" xlink:href="#meded6cc02c" y="97.288765"/>
     <use style="fill:#98df8a;stroke:#ffffff;stroke-linejoin:miter;stroke-width:0.75;" x="371.204169" xlink:href="#meded6cc02c" y="96.797556"/>
     <use style="fill:#98df8a;stroke:#ffffff;stroke-linejoin:miter;stroke-width:0.75;" x="378.339434" xlink:href="#meded6cc02c" y="96.060744"/>
     <use style="fill:#98df8a;stroke:#ffffff;stroke-linejoin:miter;stroke-width:0.75;" x="385.474698" xlink:href="#meded6cc02c" y="95.733272"/>
     <use style="fill:#98df8a;stroke:#ffffff;stroke-linejoin:miter;stroke-width:0.75;" x="392.609963" xlink:href="#meded6cc02c" y="95.733272"/>
     <use style="fill:#98df8a;stroke:#ffffff;stroke-linejoin:miter;stroke-width:0.75;" x="399.745228" xlink:href="#meded6cc02c" y="95.651404"/>
     <use style="fill:#98df8a;stroke:#ffffff;stroke-linejoin:miter;stroke-width:0.75;" x="406.880493" xlink:href="#meded6cc02c" y="95.651404"/>
     <use style="fill:#98df8a;stroke:#ffffff;stroke-linejoin:miter;stroke-width:0.75;" x="414.015757" xlink:href="#meded6cc02c" y="95.4058"/>
     <use style="fill:#98df8a;stroke:#ffffff;stroke-linejoin:miter;stroke-width:0.75;" x="421.151022" xlink:href="#meded6cc02c" y="94.832724"/>
     <use style="fill:#98df8a;stroke:#ffffff;stroke-linejoin:miter;stroke-width:0.75;" x="428.286287" xlink:href="#meded6cc02c" y="94.505252"/>
     <use style="fill:#98df8a;stroke:#ffffff;stroke-linejoin:miter;stroke-width:0.75;" x="435.421552" xlink:href="#meded6cc02c" y="94.341516"/>
     <use style="fill:#98df8a;stroke:#ffffff;stroke-linejoin:miter;stroke-width:0.75;" x="442.556816" xlink:href="#meded6cc02c" y="93.850308"/>
     <use style="fill:#98df8a;stroke:#ffffff;stroke-linejoin:miter;stroke-width:0.75;" x="449.692081" xlink:href="#meded6cc02c" y="93.850308"/>
     <use style="fill:#98df8a;stroke:#ffffff;stroke-linejoin:miter;stroke-width:0.75;" x="456.827346" xlink:href="#meded6cc02c" y="93.76844"/>
     <use style="fill:#98df8a;stroke:#ffffff;stroke-linejoin:miter;stroke-width:0.75;" x="463.962611" xlink:href="#meded6cc02c" y="90.821191"/>
     <use style="fill:#98df8a;stroke:#ffffff;stroke-linejoin:miter;stroke-width:0.75;" x="471.097875" xlink:href="#meded6cc02c" y="90.411851"/>
     <use style="fill:#98df8a;stroke:#ffffff;stroke-linejoin:miter;stroke-width:0.75;" x="478.23314" xlink:href="#meded6cc02c" y="89.838775"/>
     <use style="fill:#98df8a;stroke:#ffffff;stroke-linejoin:miter;stroke-width:0.75;" x="485.368405" xlink:href="#meded6cc02c" y="89.838775"/>
     <use style="fill:#98df8a;stroke:#ffffff;stroke-linejoin:miter;stroke-width:0.75;" x="492.503669" xlink:href="#meded6cc02c" y="89.756907"/>
     <use style="fill:#98df8a;stroke:#ffffff;stroke-linejoin:miter;stroke-width:0.75;" x="499.638934" xlink:href="#meded6cc02c" y="89.429435"/>
     <use style="fill:#98df8a;stroke:#ffffff;stroke-linejoin:miter;stroke-width:0.75;" x="506.774199" xlink:href="#meded6cc02c" y="78.213516"/>
     <use style="fill:#98df8a;stroke:#ffffff;stroke-linejoin:miter;stroke-width:0.75;" x="513.909464" xlink:href="#meded6cc02c" y="77.804176"/>
     <use style="fill:#98df8a;stroke:#ffffff;stroke-linejoin:miter;stroke-width:0.75;" x="521.044728" xlink:href="#meded6cc02c" y="77.64044"/>
     <use style="fill:#98df8a;stroke:#ffffff;stroke-linejoin:miter;stroke-width:0.75;" x="528.179993" xlink:href="#meded6cc02c" y="77.64044"/>
     <use style="fill:#98df8a;stroke:#ffffff;stroke-linejoin:miter;stroke-width:0.75;" x="535.315258" xlink:href="#meded6cc02c" y="77.312968"/>
     <use style="fill:#98df8a;stroke:#ffffff;stroke-linejoin:miter;stroke-width:0.75;" x="542.450523" xlink:href="#meded6cc02c" y="76.084947"/>
     <use style="fill:#98df8a;stroke:#ffffff;stroke-linejoin:miter;stroke-width:0.75;" x="549.585787" xlink:href="#meded6cc02c" y="71.336602"/>
     <use style="fill:#98df8a;stroke:#ffffff;stroke-linejoin:miter;stroke-width:0.75;" x="556.721052" xlink:href="#meded6cc02c" y="71.254734"/>
     <use style="fill:#98df8a;stroke:#ffffff;stroke-linejoin:miter;stroke-width:0.75;" x="563.856317" xlink:href="#meded6cc02c" y="71.090998"/>
     <use style="fill:#98df8a;stroke:#ffffff;stroke-linejoin:miter;stroke-width:0.75;" x="570.991582" xlink:href="#meded6cc02c" y="70.436054"/>
     <use style="fill:#98df8a;stroke:#ffffff;stroke-linejoin:miter;stroke-width:0.75;" x="578.126846" xlink:href="#meded6cc02c" y="69.699242"/>
     <use style="fill:#98df8a;stroke:#ffffff;stroke-linejoin:miter;stroke-width:0.75;" x="585.262111" xlink:href="#meded6cc02c" y="69.289902"/>
     <use style="fill:#98df8a;stroke:#ffffff;stroke-linejoin:miter;stroke-width:0.75;" x="592.397376" xlink:href="#meded6cc02c" y="68.389353"/>
     <use style="fill:#98df8a;stroke:#ffffff;stroke-linejoin:miter;stroke-width:0.75;" x="599.53264" xlink:href="#meded6cc02c" y="68.389353"/>
     <use style="fill:#98df8a;stroke:#ffffff;stroke-linejoin:miter;stroke-width:0.75;" x="606.667905" xlink:href="#meded6cc02c" y="68.143749"/>
     <use style="fill:#98df8a;stroke:#ffffff;stroke-linejoin:miter;stroke-width:0.75;" x="613.80317" xlink:href="#meded6cc02c" y="68.061881"/>
     <use style="fill:#98df8a;stroke:#ffffff;stroke-linejoin:miter;stroke-width:0.75;" x="620.938435" xlink:href="#meded6cc02c" y="68.061881"/>
     <use style="fill:#98df8a;stroke:#ffffff;stroke-linejoin:miter;stroke-width:0.75;" x="628.073699" xlink:href="#meded6cc02c" y="67.406937"/>
     <use style="fill:#98df8a;stroke:#ffffff;stroke-linejoin:miter;stroke-width:0.75;" x="635.208964" xlink:href="#meded6cc02c" y="67.406937"/>
     <use style="fill:#98df8a;stroke:#ffffff;stroke-linejoin:miter;stroke-width:0.75;" x="642.344229" xlink:href="#meded6cc02c" y="67.406937"/>
     <use style="fill:#98df8a;stroke:#ffffff;stroke-linejoin:miter;stroke-width:0.75;" x="649.479494" xlink:href="#meded6cc02c" y="66.833861"/>
     <use style="fill:#98df8a;stroke:#ffffff;stroke-linejoin:miter;stroke-width:0.75;" x="656.614758" xlink:href="#meded6cc02c" y="66.260785"/>
     <use style="fill:#98df8a;stroke:#ffffff;stroke-linejoin:miter;stroke-width:0.75;" x="663.750023" xlink:href="#meded6cc02c" y="65.851445"/>
     <use style="fill:#98df8a;stroke:#ffffff;stroke-linejoin:miter;stroke-width:0.75;" x="670.885288" xlink:href="#meded6cc02c" y="65.851445"/>
     <use style="fill:#98df8a;stroke:#ffffff;stroke-linejoin:miter;stroke-width:0.75;" x="678.020553" xlink:href="#meded6cc02c" y="65.687709"/>
     <use style="fill:#98df8a;stroke:#ffffff;stroke-linejoin:miter;stroke-width:0.75;" x="685.155817" xlink:href="#meded6cc02c" y="65.605841"/>
     <use style="fill:#98df8a;stroke:#ffffff;stroke-linejoin:miter;stroke-width:0.75;" x="692.291082" xlink:href="#meded6cc02c" y="65.523973"/>
     <use style="fill:#98df8a;stroke:#ffffff;stroke-linejoin:miter;stroke-width:0.75;" x="699.426347" xlink:href="#meded6cc02c" y="65.523973"/>
     <use style="fill:#98df8a;stroke:#ffffff;stroke-linejoin:miter;stroke-width:0.75;" x="706.561612" xlink:href="#meded6cc02c" y="65.523973"/>
     <use style="fill:#98df8a;stroke:#ffffff;stroke-linejoin:miter;stroke-width:0.75;" x="713.696876" xlink:href="#meded6cc02c" y="65.523973"/>
     <use style="fill:#98df8a;stroke:#ffffff;stroke-linejoin:miter;stroke-width:0.75;" x="720.832141" xlink:href="#meded6cc02c" y="65.442105"/>
     <use style="fill:#98df8a;stroke:#ffffff;stroke-linejoin:miter;stroke-width:0.75;" x="727.967406" xlink:href="#meded6cc02c" y="65.442105"/>
     <use style="fill:#98df8a;stroke:#ffffff;stroke-linejoin:miter;stroke-width:0.75;" x="735.10267" xlink:href="#meded6cc02c" y="65.360237"/>
    </g>
   </g>
   <g id="line2d_22">
    <path clip-path="url(#p6cb0f10418)" d="M 85.79358 245.142409 
L 92.928844 214.851242 
L 100.064109 198.068298 
L 107.199374 184.150734 
L 114.334638 172.443607 
L 121.469903 164.011201 
L 128.605168 154.678247 
L 135.740433 147.146389 
L 142.875697 141.7431 
L 150.010962 137.240359 
L 157.146227 125.696968 
L 164.281492 122.831587 
L 171.416756 120.129942 
L 178.552021 118.820054 
L 185.687286 116.773353 
L 192.822551 111.779404 
L 199.957815 110.633252 
L 207.09308 107.031059 
L 214.228345 105.884907 
L 221.36361 104.49315 
L 228.498874 102.692054 
L 235.634139 101.136562 
L 242.769404 99.499201 
L 249.904668 99.335465 
L 257.039933 98.434917 
L 264.175198 98.189313 
L 271.310463 97.943709 
L 278.445727 96.715688 
L 285.580992 91.967343 
L 292.716257 89.920643 
L 299.851522 89.183831 
L 306.986786 88.283282 
L 314.122051 87.710206 
L 321.257316 87.055262 
L 328.392581 86.809658 
L 335.527845 86.72779 
L 342.66311 86.154714 
L 349.798375 85.49977 
L 356.933639 84.844826 
L 364.068904 84.271749 
L 371.204169 83.371201 
L 378.339434 82.879993 
L 385.474698 82.634389 
L 392.609963 82.225049 
L 399.745228 81.897577 
L 406.880493 81.160765 
L 414.015757 80.669556 
L 421.151022 80.669556 
L 428.286287 80.50582 
L 435.421552 80.260216 
L 442.556816 79.2778 
L 449.692081 79.032196 
L 456.827346 78.540988 
L 463.962611 78.213516 
L 471.097875 78.131648 
L 478.23314 78.04978 
L 485.368405 77.967912 
L 492.503669 77.886044 
L 499.638934 77.886044 
L 506.774199 77.2311 
L 513.909464 76.985496 
L 521.044728 76.739891 
L 528.179993 76.412419 
L 535.315258 76.003079 
L 542.450523 75.348135 
L 549.585787 75.348135 
L 556.721052 75.020663 
L 563.856317 74.938795 
L 570.991582 74.611323 
L 578.126846 74.447587 
L 585.262111 72.319018 
L 592.397376 72.155282 
L 599.53264 71.664074 
L 606.667905 71.336602 
L 613.80317 71.254734 
L 620.938435 71.172866 
L 628.073699 71.172866 
L 635.208964 71.090998 
L 642.344229 71.090998 
L 649.479494 70.517922 
L 656.614758 70.436054 
L 663.750023 69.862978 
L 670.885288 69.862978 
L 678.020553 69.699242 
L 685.155817 69.453638 
L 692.291082 69.453638 
L 699.426347 69.453638 
L 706.561612 69.37177 
L 713.696876 68.716826 
L 720.832141 68.143749 
L 727.967406 67.980013 
L 735.10267 67.898145 
" style="fill:none;stroke:#1f77b4;stroke-linecap:square;stroke-width:1.5;"/>
    <defs>
     <path d="M 0 3 
C 0.795609 3 1.55874 2.683901 2.12132 2.12132 
C 2.683901 1.55874 3 0.795609 3 0 
C 3 -0.795609 2.683901 -1.55874 2.12132 -2.12132 
C 1.55874 -2.683901 0.795609 -3 0 -3 
C -0.795609 -3 -1.55874 -2.683901 -2.12132 -2.12132 
C -2.683901 -1.55874 -3 -0.795609 -3 0 
C -3 0.795609 -2.683901 1.55874 -2.12132 2.12132 
C -1.55874 2.683901 -0.795609 3 0 3 
z
" id="m67d6e52fb0" style="stroke:#ffffff;stroke-width:0.75;"/>
    </defs>
    <g clip-path="url(#p6cb0f10418)">
     <use style="fill:#1f77b4;stroke:#ffffff;stroke-width:0.75;" x="85.79358" xlink:href="#m67d6e52fb0" y="245.142409"/>
     <use style="fill:#1f77b4;stroke:#ffffff;stroke-width:0.75;" x="92.928844" xlink:href="#m67d6e52fb0" y="214.851242"/>
     <use style="fill:#1f77b4;stroke:#ffffff;stroke-width:0.75;" x="100.064109" xlink:href="#m67d6e52fb0" y="198.068298"/>
     <use style="fill:#1f77b4;stroke:#ffffff;stroke-width:0.75;" x="107.199374" xlink:href="#m67d6e52fb0" y="184.150734"/>
     <use style="fill:#1f77b4;stroke:#ffffff;stroke-width:0.75;" x="114.334638" xlink:href="#m67d6e52fb0" y="172.443607"/>
     <use style="fill:#1f77b4;stroke:#ffffff;stroke-width:0.75;" x="121.469903" xlink:href="#m67d6e52fb0" y="164.011201"/>
     <use style="fill:#1f77b4;stroke:#ffffff;stroke-width:0.75;" x="128.605168" xlink:href="#m67d6e52fb0" y="154.678247"/>
     <use style="fill:#1f77b4;stroke:#ffffff;stroke-width:0.75;" x="135.740433" xlink:href="#m67d6e52fb0" y="147.146389"/>
     <use style="fill:#1f77b4;stroke:#ffffff;stroke-width:0.75;" x="142.875697" xlink:href="#m67d6e52fb0" y="141.7431"/>
     <use style="fill:#1f77b4;stroke:#ffffff;stroke-width:0.75;" x="150.010962" xlink:href="#m67d6e52fb0" y="137.240359"/>
     <use style="fill:#1f77b4;stroke:#ffffff;stroke-width:0.75;" x="157.146227" xlink:href="#m67d6e52fb0" y="125.696968"/>
     <use style="fill:#1f77b4;stroke:#ffffff;stroke-width:0.75;" x="164.281492" xlink:href="#m67d6e52fb0" y="122.831587"/>
     <use style="fill:#1f77b4;stroke:#ffffff;stroke-width:0.75;" x="171.416756" xlink:href="#m67d6e52fb0" y="120.129942"/>
     <use style="fill:#1f77b4;stroke:#ffffff;stroke-width:0.75;" x="178.552021" xlink:href="#m67d6e52fb0" y="118.820054"/>
     <use style="fill:#1f77b4;stroke:#ffffff;stroke-width:0.75;" x="185.687286" xlink:href="#m67d6e52fb0" y="116.773353"/>
     <use style="fill:#1f77b4;stroke:#ffffff;stroke-width:0.75;" x="192.822551" xlink:href="#m67d6e52fb0" y="111.779404"/>
     <use style="fill:#1f77b4;stroke:#ffffff;stroke-width:0.75;" x="199.957815" xlink:href="#m67d6e52fb0" y="110.633252"/>
     <use style="fill:#1f77b4;stroke:#ffffff;stroke-width:0.75;" x="207.09308" xlink:href="#m67d6e52fb0" y="107.031059"/>
     <use style="fill:#1f77b4;stroke:#ffffff;stroke-width:0.75;" x="214.228345" xlink:href="#m67d6e52fb0" y="105.884907"/>
     <use style="fill:#1f77b4;stroke:#ffffff;stroke-width:0.75;" x="221.36361" xlink:href="#m67d6e52fb0" y="104.49315"/>
     <use style="fill:#1f77b4;stroke:#ffffff;stroke-width:0.75;" x="228.498874" xlink:href="#m67d6e52fb0" y="102.692054"/>
     <use style="fill:#1f77b4;stroke:#ffffff;stroke-width:0.75;" x="235.634139" xlink:href="#m67d6e52fb0" y="101.136562"/>
     <use style="fill:#1f77b4;stroke:#ffffff;stroke-width:0.75;" x="242.769404" xlink:href="#m67d6e52fb0" y="99.499201"/>
     <use style="fill:#1f77b4;stroke:#ffffff;stroke-width:0.75;" x="249.904668" xlink:href="#m67d6e52fb0" y="99.335465"/>
     <use style="fill:#1f77b4;stroke:#ffffff;stroke-width:0.75;" x="257.039933" xlink:href="#m67d6e52fb0" y="98.434917"/>
     <use style="fill:#1f77b4;stroke:#ffffff;stroke-width:0.75;" x="264.175198" xlink:href="#m67d6e52fb0" y="98.189313"/>
     <use style="fill:#1f77b4;stroke:#ffffff;stroke-width:0.75;" x="271.310463" xlink:href="#m67d6e52fb0" y="97.943709"/>
     <use style="fill:#1f77b4;stroke:#ffffff;stroke-width:0.75;" x="278.445727" xlink:href="#m67d6e52fb0" y="96.715688"/>
     <use style="fill:#1f77b4;stroke:#ffffff;stroke-width:0.75;" x="285.580992" xlink:href="#m67d6e52fb0" y="91.967343"/>
     <use style="fill:#1f77b4;stroke:#ffffff;stroke-width:0.75;" x="292.716257" xlink:href="#m67d6e52fb0" y="89.920643"/>
     <use style="fill:#1f77b4;stroke:#ffffff;stroke-width:0.75;" x="299.851522" xlink:href="#m67d6e52fb0" y="89.183831"/>
     <use style="fill:#1f77b4;stroke:#ffffff;stroke-width:0.75;" x="306.986786" xlink:href="#m67d6e52fb0" y="88.283282"/>
     <use style="fill:#1f77b4;stroke:#ffffff;stroke-width:0.75;" x="314.122051" xlink:href="#m67d6e52fb0" y="87.710206"/>
     <use style="fill:#1f77b4;stroke:#ffffff;stroke-width:0.75;" x="321.257316" xlink:href="#m67d6e52fb0" y="87.055262"/>
     <use style="fill:#1f77b4;stroke:#ffffff;stroke-width:0.75;" x="328.392581" xlink:href="#m67d6e52fb0" y="86.809658"/>
     <use style="fill:#1f77b4;stroke:#ffffff;stroke-width:0.75;" x="335.527845" xlink:href="#m67d6e52fb0" y="86.72779"/>
     <use style="fill:#1f77b4;stroke:#ffffff;stroke-width:0.75;" x="342.66311" xlink:href="#m67d6e52fb0" y="86.154714"/>
     <use style="fill:#1f77b4;stroke:#ffffff;stroke-width:0.75;" x="349.798375" xlink:href="#m67d6e52fb0" y="85.49977"/>
     <use style="fill:#1f77b4;stroke:#ffffff;stroke-width:0.75;" x="356.933639" xlink:href="#m67d6e52fb0" y="84.844826"/>
     <use style="fill:#1f77b4;stroke:#ffffff;stroke-width:0.75;" x="364.068904" xlink:href="#m67d6e52fb0" y="84.271749"/>
     <use style="fill:#1f77b4;stroke:#ffffff;stroke-width:0.75;" x="371.204169" xlink:href="#m67d6e52fb0" y="83.371201"/>
     <use style="fill:#1f77b4;stroke:#ffffff;stroke-width:0.75;" x="378.339434" xlink:href="#m67d6e52fb0" y="82.879993"/>
     <use style="fill:#1f77b4;stroke:#ffffff;stroke-width:0.75;" x="385.474698" xlink:href="#m67d6e52fb0" y="82.634389"/>
     <use style="fill:#1f77b4;stroke:#ffffff;stroke-width:0.75;" x="392.609963" xlink:href="#m67d6e52fb0" y="82.225049"/>
     <use style="fill:#1f77b4;stroke:#ffffff;stroke-width:0.75;" x="399.745228" xlink:href="#m67d6e52fb0" y="81.897577"/>
     <use style="fill:#1f77b4;stroke:#ffffff;stroke-width:0.75;" x="406.880493" xlink:href="#m67d6e52fb0" y="81.160765"/>
     <use style="fill:#1f77b4;stroke:#ffffff;stroke-width:0.75;" x="414.015757" xlink:href="#m67d6e52fb0" y="80.669556"/>
     <use style="fill:#1f77b4;stroke:#ffffff;stroke-width:0.75;" x="421.151022" xlink:href="#m67d6e52fb0" y="80.669556"/>
     <use style="fill:#1f77b4;stroke:#ffffff;stroke-width:0.75;" x="428.286287" xlink:href="#m67d6e52fb0" y="80.50582"/>
     <use style="fill:#1f77b4;stroke:#ffffff;stroke-width:0.75;" x="435.421552" xlink:href="#m67d6e52fb0" y="80.260216"/>
     <use style="fill:#1f77b4;stroke:#ffffff;stroke-width:0.75;" x="442.556816" xlink:href="#m67d6e52fb0" y="79.2778"/>
     <use style="fill:#1f77b4;stroke:#ffffff;stroke-width:0.75;" x="449.692081" xlink:href="#m67d6e52fb0" y="79.032196"/>
     <use style="fill:#1f77b4;stroke:#ffffff;stroke-width:0.75;" x="456.827346" xlink:href="#m67d6e52fb0" y="78.540988"/>
     <use style="fill:#1f77b4;stroke:#ffffff;stroke-width:0.75;" x="463.962611" xlink:href="#m67d6e52fb0" y="78.213516"/>
     <use style="fill:#1f77b4;stroke:#ffffff;stroke-width:0.75;" x="471.097875" xlink:href="#m67d6e52fb0" y="78.131648"/>
     <use style="fill:#1f77b4;stroke:#ffffff;stroke-width:0.75;" x="478.23314" xlink:href="#m67d6e52fb0" y="78.04978"/>
     <use style="fill:#1f77b4;stroke:#ffffff;stroke-width:0.75;" x="485.368405" xlink:href="#m67d6e52fb0" y="77.967912"/>
     <use style="fill:#1f77b4;stroke:#ffffff;stroke-width:0.75;" x="492.503669" xlink:href="#m67d6e52fb0" y="77.886044"/>
     <use style="fill:#1f77b4;stroke:#ffffff;stroke-width:0.75;" x="499.638934" xlink:href="#m67d6e52fb0" y="77.886044"/>
     <use style="fill:#1f77b4;stroke:#ffffff;stroke-width:0.75;" x="506.774199" xlink:href="#m67d6e52fb0" y="77.2311"/>
     <use style="fill:#1f77b4;stroke:#ffffff;stroke-width:0.75;" x="513.909464" xlink:href="#m67d6e52fb0" y="76.985496"/>
     <use style="fill:#1f77b4;stroke:#ffffff;stroke-width:0.75;" x="521.044728" xlink:href="#m67d6e52fb0" y="76.739891"/>
     <use style="fill:#1f77b4;stroke:#ffffff;stroke-width:0.75;" x="528.179993" xlink:href="#m67d6e52fb0" y="76.412419"/>
     <use style="fill:#1f77b4;stroke:#ffffff;stroke-width:0.75;" x="535.315258" xlink:href="#m67d6e52fb0" y="76.003079"/>
     <use style="fill:#1f77b4;stroke:#ffffff;stroke-width:0.75;" x="542.450523" xlink:href="#m67d6e52fb0" y="75.348135"/>
     <use style="fill:#1f77b4;stroke:#ffffff;stroke-width:0.75;" x="549.585787" xlink:href="#m67d6e52fb0" y="75.348135"/>
     <use style="fill:#1f77b4;stroke:#ffffff;stroke-width:0.75;" x="556.721052" xlink:href="#m67d6e52fb0" y="75.020663"/>
     <use style="fill:#1f77b4;stroke:#ffffff;stroke-width:0.75;" x="563.856317" xlink:href="#m67d6e52fb0" y="74.938795"/>
     <use style="fill:#1f77b4;stroke:#ffffff;stroke-width:0.75;" x="570.991582" xlink:href="#m67d6e52fb0" y="74.611323"/>
     <use style="fill:#1f77b4;stroke:#ffffff;stroke-width:0.75;" x="578.126846" xlink:href="#m67d6e52fb0" y="74.447587"/>
     <use style="fill:#1f77b4;stroke:#ffffff;stroke-width:0.75;" x="585.262111" xlink:href="#m67d6e52fb0" y="72.319018"/>
     <use style="fill:#1f77b4;stroke:#ffffff;stroke-width:0.75;" x="592.397376" xlink:href="#m67d6e52fb0" y="72.155282"/>
     <use style="fill:#1f77b4;stroke:#ffffff;stroke-width:0.75;" x="599.53264" xlink:href="#m67d6e52fb0" y="71.664074"/>
     <use style="fill:#1f77b4;stroke:#ffffff;stroke-width:0.75;" x="606.667905" xlink:href="#m67d6e52fb0" y="71.336602"/>
     <use style="fill:#1f77b4;stroke:#ffffff;stroke-width:0.75;" x="613.80317" xlink:href="#m67d6e52fb0" y="71.254734"/>
     <use style="fill:#1f77b4;stroke:#ffffff;stroke-width:0.75;" x="620.938435" xlink:href="#m67d6e52fb0" y="71.172866"/>
     <use style="fill:#1f77b4;stroke:#ffffff;stroke-width:0.75;" x="628.073699" xlink:href="#m67d6e52fb0" y="71.172866"/>
     <use style="fill:#1f77b4;stroke:#ffffff;stroke-width:0.75;" x="635.208964" xlink:href="#m67d6e52fb0" y="71.090998"/>
     <use style="fill:#1f77b4;stroke:#ffffff;stroke-width:0.75;" x="642.344229" xlink:href="#m67d6e52fb0" y="71.090998"/>
     <use style="fill:#1f77b4;stroke:#ffffff;stroke-width:0.75;" x="649.479494" xlink:href="#m67d6e52fb0" y="70.517922"/>
     <use style="fill:#1f77b4;stroke:#ffffff;stroke-width:0.75;" x="656.614758" xlink:href="#m67d6e52fb0" y="70.436054"/>
     <use style="fill:#1f77b4;stroke:#ffffff;stroke-width:0.75;" x="663.750023" xlink:href="#m67d6e52fb0" y="69.862978"/>
     <use style="fill:#1f77b4;stroke:#ffffff;stroke-width:0.75;" x="670.885288" xlink:href="#m67d6e52fb0" y="69.862978"/>
     <use style="fill:#1f77b4;stroke:#ffffff;stroke-width:0.75;" x="678.020553" xlink:href="#m67d6e52fb0" y="69.699242"/>
     <use style="fill:#1f77b4;stroke:#ffffff;stroke-width:0.75;" x="685.155817" xlink:href="#m67d6e52fb0" y="69.453638"/>
     <use style="fill:#1f77b4;stroke:#ffffff;stroke-width:0.75;" x="692.291082" xlink:href="#m67d6e52fb0" y="69.453638"/>
     <use style="fill:#1f77b4;stroke:#ffffff;stroke-width:0.75;" x="699.426347" xlink:href="#m67d6e52fb0" y="69.453638"/>
     <use style="fill:#1f77b4;stroke:#ffffff;stroke-width:0.75;" x="706.561612" xlink:href="#m67d6e52fb0" y="69.37177"/>
     <use style="fill:#1f77b4;stroke:#ffffff;stroke-width:0.75;" x="713.696876" xlink:href="#m67d6e52fb0" y="68.716826"/>
     <use style="fill:#1f77b4;stroke:#ffffff;stroke-width:0.75;" x="720.832141" xlink:href="#m67d6e52fb0" y="68.143749"/>
     <use style="fill:#1f77b4;stroke:#ffffff;stroke-width:0.75;" x="727.967406" xlink:href="#m67d6e52fb0" y="67.980013"/>
     <use style="fill:#1f77b4;stroke:#ffffff;stroke-width:0.75;" x="735.10267" xlink:href="#m67d6e52fb0" y="67.898145"/>
    </g>
   </g>
   <g id="line2d_23"/>
   <g id="line2d_24"/>
   <g id="line2d_25">
    <path clip-path="url(#p6cb0f10418)" d="M 735.10267 288.430125 
L 735.10267 22.318125 
" style="fill:none;stroke:#ff0000;stroke-linecap:square;stroke-width:1.5;"/>
   </g>
   <g id="patch_3">
    <path d="M 53.328125 256.358328 
L 53.328125 27.127871 
" style="fill:none;stroke:#000000;stroke-linecap:square;stroke-linejoin:miter;stroke-width:0.8;"/>
   </g>
   <g id="patch_4">
    <path d="M 85.79358 288.430125 
L 687.534239 288.430125 
" style="fill:none;stroke:#000000;stroke-linecap:square;stroke-linejoin:miter;stroke-width:0.8;"/>
   </g>
   <g id="text_23">
    <!-- harfbuzz-1.3.2 (23h, 10 trials/fuzzer) -->
    <g transform="translate(300.32 16.318125)scale(0.12 -0.12)">
     <defs>
      <path d="M 2375 4863 
L 2375 4384 
L 1825 4384 
Q 1516 4384 1395 4259 
Q 1275 4134 1275 3809 
L 1275 3500 
L 2222 3500 
L 2222 3053 
L 1275 3053 
L 1275 0 
L 697 0 
L 697 3053 
L 147 3053 
L 147 3500 
L 697 3500 
L 697 3744 
Q 697 4328 969 4595 
Q 1241 4863 1831 4863 
L 2375 4863 
z
" id="DejaVuSans-66" transform="scale(0.015625)"/>
      <path d="M 353 3500 
L 3084 3500 
L 3084 2975 
L 922 459 
L 3084 459 
L 3084 0 
L 275 0 
L 275 525 
L 2438 3041 
L 353 3041 
L 353 3500 
z
" id="DejaVuSans-7a" transform="scale(0.015625)"/>
      <path d="M 313 2009 
L 1997 2009 
L 1997 1497 
L 313 1497 
L 313 2009 
z
" id="DejaVuSans-2d" transform="scale(0.015625)"/>
      <path d="M 684 794 
L 1344 794 
L 1344 0 
L 684 0 
L 684 794 
z
" id="DejaVuSans-2e" transform="scale(0.015625)"/>
      <path d="M 750 794 
L 1409 794 
L 1409 256 
L 897 -744 
L 494 -744 
L 750 256 
L 750 794 
z
" id="DejaVuSans-2c" transform="scale(0.015625)"/>
      <path d="M 603 4863 
L 1178 4863 
L 1178 0 
L 603 0 
L 603 4863 
z
" id="DejaVuSans-6c" transform="scale(0.015625)"/>
      <path d="M 2834 3397 
L 2834 2853 
Q 2591 2978 2328 3040 
Q 2066 3103 1784 3103 
Q 1356 3103 1142 2972 
Q 928 2841 928 2578 
Q 928 2378 1081 2264 
Q 1234 2150 1697 2047 
L 1894 2003 
Q 2506 1872 2764 1633 
Q 3022 1394 3022 966 
Q 3022 478 2636 193 
Q 2250 -91 1575 -91 
Q 1294 -91 989 -36 
Q 684 19 347 128 
L 347 722 
Q 666 556 975 473 
Q 1284 391 1588 391 
Q 1994 391 2212 530 
Q 2431 669 2431 922 
Q 2431 1156 2273 1281 
Q 2116 1406 1581 1522 
L 1381 1569 
Q 847 1681 609 1914 
Q 372 2147 372 2553 
Q 372 3047 722 3315 
Q 1072 3584 1716 3584 
Q 2034 3584 2315 3537 
Q 2597 3491 2834 3397 
z
" id="DejaVuSans-73" transform="scale(0.015625)"/>
      <path d="M 1625 4666 
L 2156 4666 
L 531 -594 
L 0 -594 
L 1625 4666 
z
" id="DejaVuSans-2f" transform="scale(0.015625)"/>
     </defs>
     <use xlink:href="#DejaVuSans-68"/>
     <use x="63.378906" xlink:href="#DejaVuSans-61"/>
     <use x="124.658203" xlink:href="#DejaVuSans-72"/>
     <use x="165.771484" xlink:href="#DejaVuSans-66"/>
     <use x="200.976562" xlink:href="#DejaVuSans-62"/>
     <use x="264.453125" xlink:href="#DejaVuSans-75"/>
     <use x="327.832031" xlink:href="#DejaVuSans-7a"/>
     <use x="380.322266" xlink:href="#DejaVuSans-7a"/>
     <use x="432.8125" xlink:href="#DejaVuSans-2d"/>
     <use x="468.896484" xlink:href="#DejaVuSans-31"/>
     <use x="532.519531" xlink:href="#DejaVuSans-2e"/>
     <use x="564.306641" xlink:href="#DejaVuSans-33"/>
     <use x="627.929688" xlink:href="#DejaVuSans-2e"/>
     <use x="659.716797" xlink:href="#DejaVuSans-32"/>
     <use x="723.339844" xlink:href="#DejaVuSans-20"/>
     <use x="755.126953" xlink:href="#DejaVuSans-28"/>
     <use x="794.140625" xlink:href="#DejaVuSans-32"/>
     <use x="857.763672" xlink:href="#DejaVuSans-33"/>
     <use x="921.386719" xlink:href="#DejaVuSans-68"/>
     <use x="984.765625" xlink:href="#DejaVuSans-2c"/>
     <use x="1016.552734" xlink:href="#DejaVuSans-20"/>
     <use x="1048.339844" xlink:href="#DejaVuSans-31"/>
     <use x="1111.962891" xlink:href="#DejaVuSans-30"/>
     <use x="1175.585938" xlink:href="#DejaVuSans-20"/>
     <use x="1207.373047" xlink:href="#DejaVuSans-74"/>
     <use x="1246.582031" xlink:href="#DejaVuSans-72"/>
     <use x="1287.695312" xlink:href="#DejaVuSans-69"/>
     <use x="1315.478516" xlink:href="#DejaVuSans-61"/>
     <use x="1376.757812" xlink:href="#DejaVuSans-6c"/>
     <use x="1404.541016" xlink:href="#DejaVuSans-73"/>
     <use x="1456.640625" xlink:href="#DejaVuSans-2f"/>
     <use x="1490.332031" xlink:href="#DejaVuSans-66"/>
     <use x="1525.537109" xlink:href="#DejaVuSans-75"/>
     <use x="1588.916016" xlink:href="#DejaVuSans-7a"/>
     <use x="1641.40625" xlink:href="#DejaVuSans-7a"/>
     <use x="1693.896484" xlink:href="#DejaVuSans-65"/>
     <use x="1755.419922" xlink:href="#DejaVuSans-72"/>
     <use x="1796.533203" xlink:href="#DejaVuSans-29"/>
    </g>
   </g>
   <g id="legend_1">
    <g id="line2d_26">
     <path d="M 771.568125 30.416563 
L 791.568125 30.416563 
" style="fill:none;stroke:#98df8a;stroke-linecap:square;stroke-width:1.5;"/>
    </g>
    <g id="line2d_27">
     <defs>
      <path d="M -0 3 
L 3 -3 
L -3 -3 
z
" id="mc70c929c44" style="stroke:#98df8a;stroke-linejoin:miter;"/>
     </defs>
     <g>
      <use style="fill:#98df8a;stroke:#98df8a;stroke-linejoin:miter;" x="781.568125" xlink:href="#mc70c929c44" y="30.416563"/>
     </g>
    </g>
    <g id="text_24">
     <!-- sydr_libfuzzer -->
     <g transform="translate(799.568125 33.916563)scale(0.1 -0.1)">
      <defs>
       <path d="M 2059 -325 
Q 1816 -950 1584 -1140 
Q 1353 -1331 966 -1331 
L 506 -1331 
L 506 -850 
L 844 -850 
Q 1081 -850 1212 -737 
Q 1344 -625 1503 -206 
L 1606 56 
L 191 3500 
L 800 3500 
L 1894 763 
L 2988 3500 
L 3597 3500 
L 2059 -325 
z
" id="DejaVuSans-79" transform="scale(0.015625)"/>
       <path d="M 3263 -1063 
L 3263 -1509 
L -63 -1509 
L -63 -1063 
L 3263 -1063 
z
" id="DejaVuSans-5f" transform="scale(0.015625)"/>
      </defs>
      <use xlink:href="#DejaVuSans-73"/>
      <use x="52.099609" xlink:href="#DejaVuSans-79"/>
      <use x="111.279297" xlink:href="#DejaVuSans-64"/>
      <use x="174.755859" xlink:href="#DejaVuSans-72"/>
      <use x="215.869141" xlink:href="#DejaVuSans-5f"/>
      <use x="265.869141" xlink:href="#DejaVuSans-6c"/>
      <use x="293.652344" xlink:href="#DejaVuSans-69"/>
      <use x="321.435547" xlink:href="#DejaVuSans-62"/>
      <use x="384.912109" xlink:href="#DejaVuSans-66"/>
      <use x="420.117188" xlink:href="#DejaVuSans-75"/>
      <use x="483.496094" xlink:href="#DejaVuSans-7a"/>
      <use x="535.986328" xlink:href="#DejaVuSans-7a"/>
      <use x="588.476562" xlink:href="#DejaVuSans-65"/>
      <use x="650" xlink:href="#DejaVuSans-72"/>
     </g>
    </g>
    <g id="line2d_28">
     <path d="M 771.568125 45.372813 
L 791.568125 45.372813 
" style="fill:none;stroke:#1f77b4;stroke-linecap:square;stroke-width:1.5;"/>
    </g>
    <g id="line2d_29">
     <defs>
      <path d="M 0 3 
C 0.795609 3 1.55874 2.683901 2.12132 2.12132 
C 2.683901 1.55874 3 0.795609 3 0 
C 3 -0.795609 2.683901 -1.55874 2.12132 -2.12132 
C 1.55874 -2.683901 0.795609 -3 0 -3 
C -0.795609 -3 -1.55874 -2.683901 -2.12132 -2.12132 
C -2.683901 -1.55874 -3 -0.795609 -3 0 
C -3 0.795609 -2.683901 1.55874 -2.12132 2.12132 
C -1.55874 2.683901 -0.795609 3 0 3 
z
" id="m581147bf14" style="stroke:#1f77b4;"/>
     </defs>
     <g>
      <use style="fill:#1f77b4;stroke:#1f77b4;" x="781.568125" xlink:href="#m581147bf14" y="45.372813"/>
     </g>
    </g>
    <g id="text_25">
     <!-- libfuzzer_two_workers -->
     <g transform="translate(799.568125 48.872813)scale(0.1 -0.1)">
      <defs>
       <path d="M 269 3500 
L 844 3500 
L 1563 769 
L 2278 3500 
L 2956 3500 
L 3675 769 
L 4391 3500 
L 4966 3500 
L 4050 0 
L 3372 0 
L 2619 2869 
L 1863 0 
L 1184 0 
L 269 3500 
z
" id="DejaVuSans-77" transform="scale(0.015625)"/>
       <path d="M 581 4863 
L 1159 4863 
L 1159 1991 
L 2875 3500 
L 3609 3500 
L 1753 1863 
L 3688 0 
L 2938 0 
L 1159 1709 
L 1159 0 
L 581 0 
L 581 4863 
z
" id="DejaVuSans-6b" transform="scale(0.015625)"/>
      </defs>
      <use xlink:href="#DejaVuSans-6c"/>
      <use x="27.783203" xlink:href="#DejaVuSans-69"/>
      <use x="55.566406" xlink:href="#DejaVuSans-62"/>
      <use x="119.042969" xlink:href="#DejaVuSans-66"/>
      <use x="154.248047" xlink:href="#DejaVuSans-75"/>
      <use x="217.626953" xlink:href="#DejaVuSans-7a"/>
      <use x="270.117188" xlink:href="#DejaVuSans-7a"/>
      <use x="322.607422" xlink:href="#DejaVuSans-65"/>
      <use x="384.130859" xlink:href="#DejaVuSans-72"/>
      <use x="425.244141" xlink:href="#DejaVuSans-5f"/>
      <use x="475.244141" xlink:href="#DejaVuSans-74"/>
      <use x="514.453125" xlink:href="#DejaVuSans-77"/>
      <use x="596.240234" xlink:href="#DejaVuSans-6f"/>
      <use x="657.421875" xlink:href="#DejaVuSans-5f"/>
      <use x="707.421875" xlink:href="#DejaVuSans-77"/>
      <use x="789.208984" xlink:href="#DejaVuSans-6f"/>
      <use x="850.390625" xlink:href="#DejaVuSans-72"/>
      <use x="891.503906" xlink:href="#DejaVuSans-6b"/>
      <use x="945.789062" xlink:href="#DejaVuSans-65"/>
      <use x="1007.3125" xlink:href="#DejaVuSans-72"/>
      <use x="1048.425781" xlink:href="#DejaVuSans-73"/>
     </g>
    </g>
   </g>
  </g>
 </g>
 <defs>
  <clipPath id="p6cb0f10418">
   <rect height="266.112" width="714.24" x="53.328125" y="22.318125"/>
  </clipPath>
 </defs>
</svg>
