<?xml version="1.0" encoding="utf-8" standalone="no"?>
<!DOCTYPE svg PUBLIC "-//W3C//DTD SVG 1.1//EN"
  "http://www.w3.org/Graphics/SVG/1.1/DTD/svg11.dtd">
<svg height="325.986375pt" version="1.1" viewBox="0 0 927.180625 325.986375" width="927.180625pt" xmlns="http://www.w3.org/2000/svg" xmlns:xlink="http://www.w3.org/1999/xlink">
 <metadata>
  <rdf:RDF xmlns:cc="http://creativecommons.org/ns#" xmlns:dc="http://purl.org/dc/elements/1.1/" xmlns:rdf="http://www.w3.org/1999/02/22-rdf-syntax-ns#">
   <cc:Work>
    <dc:type rdf:resource="http://purl.org/dc/dcmitype/StillImage"/>
    <dc:date>2022-08-18T12:12:02.628261</dc:date>
    <dc:format>image/svg+xml</dc:format>
    <dc:creator>
     <cc:Agent>
      <dc:title>Matplotlib v3.4.1, https://matplotlib.org/</dc:title>
     </cc:Agent>
    </dc:creator>
   </cc:Work>
  </rdf:RDF>
 </metadata>
 <defs>
  <style type="text/css">*{stroke-linecap:butt;stroke-linejoin:round;}</style>
 </defs>
 <g id="figure_1">
  <g id="patch_1">
   <path d="M 0 325.986375 
L 927.180625 325.986375 
L 927.180625 0 
L 0 0 
z
" style="fill:#ffffff;"/>
  </g>
  <g id="axes_1">
   <g id="patch_2">
    <path d="M 59.690625 288.430125 
L 773.930625 288.430125 
L 773.930625 22.318125 
L 59.690625 22.318125 
z
" style="fill:#ffffff;"/>
   </g>
   <g id="PolyCollection_1">
    <defs>
     <path d="M 92.15608 -104.485636 
L 92.15608 -81.49099 
L 99.291344 -115.095148 
L 106.426609 -128.568785 
L 113.561874 -131.017919 
L 120.697138 -145.807967 
L 127.832403 -154.148628 
L 134.967668 -159.591148 
L 142.102933 -163.673037 
L 149.238197 -168.163116 
L 156.373462 -170.476187 
L 163.508727 -181.905478 
L 170.643992 -185.715242 
L 177.779256 -193.062644 
L 184.914521 -190.205321 
L 192.049786 -192.518392 
L 199.185051 -194.967526 
L 206.320315 -196.314549 
L 213.45558 -197.416659 
L 220.590845 -196.600281 
L 227.72611 -199.049415 
L 234.861374 -199.457604 
L 241.996639 -200.682171 
L 249.131904 -200.682171 
L 256.267168 -201.770675 
L 263.402433 -202.314927 
L 270.537698 -206.396817 
L 277.672963 -208.573825 
L 284.808227 -208.301699 
L 291.943492 -210.61477 
L 299.078757 -210.886896 
L 306.214022 -212.247526 
L 313.349286 -212.247526 
L 320.484551 -212.791778 
L 327.619816 -214.016344 
L 334.755081 -215.240911 
L 341.890345 -217.281856 
L 349.02561 -217.281856 
L 356.160875 -219.050675 
L 363.296139 -220.139179 
L 370.431404 -220.683431 
L 377.566669 -221.09162 
L 384.701934 -222.180124 
L 391.837198 -224.357132 
L 398.972463 -227.190644 
L 406.107728 -226.53414 
L 413.242993 -228.939053 
L 420.378257 -227.758707 
L 427.513522 -229.224785 
L 434.648787 -229.2554 
L 441.784052 -232.112722 
L 448.919316 -235.772817 
L 456.054581 -233.881541 
L 463.189846 -240.086014 
L 470.325111 -236.330675 
L 477.460375 -236.466738 
L 484.59564 -239.847904 
L 491.730905 -239.051935 
L 498.866169 -242.861699 
L 506.001434 -243.133825 
L 513.136699 -245.038707 
L 520.271964 -245.446896 
L 527.407228 -245.71562 
L 534.542493 -245.855085 
L 541.677758 -248.001478 
L 548.813023 -247.487841 
L 555.948287 -248.032093 
L 563.083552 -249.120596 
L 570.218817 -249.110392 
L 577.354082 -248.712407 
L 584.489346 -249.110392 
L 591.624611 -249.382518 
L 598.759876 -249.392722 
L 605.89514 -251.297604 
L 613.030405 -251.56973 
L 620.16567 -251.297604 
L 627.300935 -251.433667 
L 634.436199 -252.096974 
L 641.571464 -250.753352 
L 648.706729 -251.161541 
L 655.841994 -252.386108 
L 662.977258 -252.113982 
L 670.112523 -252.658234 
L 677.247788 -253.746738 
L 684.383053 -253.066423 
L 691.518317 -254.018864 
L 698.653582 -254.018864 
L 705.788847 -252.522171 
L 712.924112 -254.154927 
L 720.059376 -254.154927 
L 727.194641 -254.563116 
L 734.329906 -254.563116 
L 741.46517 -254.835242 
L 741.46517 -283.003683 
L 741.46517 -283.003683 
L 734.329906 -273.611935 
L 727.194641 -273.55751 
L 720.059376 -286.673982 
L 712.924112 -286.537919 
L 705.788847 -282.728156 
L 698.653582 -289.803431 
L 691.518317 -285.857604 
L 684.383053 -285.857604 
L 677.247788 -285.721541 
L 670.112523 -281.911778 
L 662.977258 -281.911778 
L 655.841994 -281.911778 
L 648.706729 -281.639652 
L 641.571464 -284.905163 
L 634.436199 -288.578864 
L 627.300935 -271.979179 
L 620.16567 -272.19688 
L 613.030405 -283.680596 
L 605.89514 -280.142959 
L 598.759876 -283.544533 
L 591.624611 -279.43203 
L 584.489346 -283.544533 
L 577.354082 -283.136344 
L 570.218817 -282.183904 
L 563.083552 -278.918392 
L 555.948287 -276.469258 
L 548.813023 -280.551148 
L 541.677758 -280.551148 
L 534.542493 -263.543274 
L 527.407228 -262.999022 
L 520.271964 -278.782329 
L 513.136699 -274.428313 
L 506.001434 -278.646266 
L 498.866169 -277.829888 
L 491.730905 -270.890675 
L 484.59564 -270.482486 
L 477.460375 -274.29225 
L 470.325111 -274.29225 
L 463.189846 -270.975715 
L 456.054581 -267.645573 
L 448.919316 -272.795557 
L 441.784052 -265.448156 
L 434.648787 -265.750896 
L 427.513522 -265.063778 
L 420.378257 -265.063778 
L 413.242993 -270.074297 
L 406.107728 -261.811872 
L 398.972463 -269.393982 
L 391.837198 -251.025478 
L 384.701934 -268.713667 
L 377.566669 -268.577604 
L 370.431404 -266.944848 
L 363.296139 -257.01225 
L 356.160875 -266.400596 
L 349.02561 -265.039967 
L 341.890345 -264.359652 
L 334.755081 -259.325321 
L 327.619816 -264.767841 
L 320.484551 -257.100691 
L 313.349286 -244.110077 
L 306.214022 -259.053195 
L 299.078757 -256.331935 
L 291.943492 -248.984533 
L 284.808227 -256.195872 
L 277.672963 -251.841856 
L 270.537698 -240.684691 
L 263.402433 -247.351778 
L 256.267168 -246.127211 
L 249.131904 -242.181384 
L 241.996639 -237.419179 
L 234.861374 -229.2554 
L 227.72611 -228.755368 
L 220.590845 -229.663589 
L 213.45558 -226.262014 
L 206.320315 -225.17351 
L 199.185051 -223.268628 
L 192.049786 -223.268628 
L 184.914521 -212.791778 
L 177.779256 -206.941069 
L 170.643992 -205.580439 
L 163.508727 -202.45099 
L 156.373462 -200.9611 
L 149.238197 -199.72973 
L 142.102933 -195.783904 
L 134.967668 -190.341384 
L 127.832403 -185.034927 
L 120.697138 -172.925321 
L 113.561874 -162.44847 
L 106.426609 -155.101069 
L 99.291344 -141.902959 
L 92.15608 -104.485636 
z
" id="md511a4dbae" style="stroke:#1f77b4;stroke-opacity:0.2;"/>
    </defs>
    <g clip-path="url(#pb61af1ddc1)">
     <use style="fill:#1f77b4;fill-opacity:0.2;stroke:#1f77b4;stroke-opacity:0.2;" x="0" xlink:href="#md511a4dbae" y="325.986375"/>
    </g>
   </g>
   <g id="PolyCollection_2">
    <defs>
     <path d="M 92.15608 -80.133762 
L 92.15608 -49.65225 
L 99.291344 -95.641541 
L 106.426609 -115.234612 
L 113.561874 -123.942644 
L 120.697138 -128.296659 
L 127.832403 -137.821069 
L 134.967668 -141.766896 
L 142.102933 -145.032407 
L 149.238197 -152.243746 
L 156.373462 -154.420754 
L 163.508727 -166.666423 
L 170.643992 -167.074612 
L 177.779256 -172.843683 
L 184.914521 -171.700754 
L 192.049786 -177.143274 
L 199.185051 -178.187557 
L 206.320315 -181.633352 
L 213.45558 -178.639967 
L 220.590845 -180.816974 
L 227.72611 -184.354612 
L 234.861374 -185.17099 
L 241.996639 -188.708628 
L 249.131904 -189.25288 
L 256.267168 -190.069258 
L 263.402433 -196.872407 
L 270.537698 -193.606896 
L 277.672963 -193.742959 
L 284.808227 -198.096974 
L 291.943492 -198.222833 
L 299.078757 -202.042801 
L 306.214022 -202.042801 
L 313.349286 -200.137919 
L 320.484551 -201.362486 
L 327.619816 -206.124691 
L 334.755081 -203.131305 
L 341.890345 -206.941069 
L 349.02561 -206.53288 
L 356.160875 -206.941069 
L 363.296139 -207.349258 
L 370.431404 -209.934455 
L 377.566669 -210.206581 
L 384.701934 -212.111463 
L 391.837198 -213.472093 
L 398.972463 -210.070518 
L 406.107728 -214.016344 
L 413.242993 -211.295085 
L 420.378257 -215.104848 
L 427.513522 -215.6491 
L 434.648787 -212.655715 
L 441.784052 -212.655715 
L 448.919316 -213.063904 
L 456.054581 -217.553982 
L 463.189846 -217.553982 
L 470.325111 -217.826108 
L 477.460375 -218.506423 
L 484.59564 -218.914612 
L 491.730905 -220.003116 
L 498.866169 -220.275242 
L 506.001434 -220.275242 
L 513.136699 -227.265478 
L 520.271964 -227.622644 
L 527.407228 -227.622644 
L 534.542493 -227.622644 
L 541.677758 -225.717762 
L 548.813023 -227.89477 
L 555.948287 -228.166896 
L 563.083552 -229.2554 
L 570.218817 -230.071778 
L 577.354082 -234.153667 
L 584.489346 -234.609478 
L 591.624611 -235.786423 
L 598.759876 -235.786423 
L 605.89514 -231.160281 
L 613.030405 -234.425793 
L 620.16567 -234.697919 
L 627.300935 -234.970045 
L 634.436199 -235.378234 
L 641.571464 -237.902203 
L 648.706729 -237.963431 
L 655.841994 -233.201226 
L 662.977258 -236.058549 
L 670.112523 -236.058549 
L 677.247788 -234.561856 
L 684.383053 -239.640407 
L 691.518317 -240.048596 
L 698.653582 -237.01099 
L 705.788847 -237.555242 
L 712.924112 -237.827368 
L 720.059376 -236.466738 
L 727.194641 -242.181384 
L 734.329906 -238.507683 
L 741.46517 -242.36847 
L 741.46517 -291.57225 
L 741.46517 -291.57225 
L 734.329906 -289.939494 
L 727.194641 -289.123116 
L 720.059376 -288.034612 
L 712.924112 -287.218234 
L 705.788847 -287.218234 
L 698.653582 -287.218234 
L 691.518317 -286.12973 
L 684.383053 -286.12973 
L 677.247788 -281.503589 
L 670.112523 -281.503589 
L 662.977258 -280.959337 
L 655.841994 -280.415085 
L 648.706729 -274.156187 
L 641.571464 -274.156187 
L 634.436199 -273.747998 
L 627.300935 -279.190518 
L 620.16567 -271.979179 
L 613.030405 -271.979179 
L 605.89514 -271.707053 
L 598.759876 -277.965951 
L 591.624611 -270.890675 
L 584.489346 -270.890675 
L 577.354082 -270.890675 
L 570.218817 -270.890675 
L 563.083552 -270.074297 
L 555.948287 -270.074297 
L 548.813023 -269.802171 
L 541.677758 -269.802171 
L 534.542493 -269.530045 
L 527.407228 -269.530045 
L 520.271964 -269.257919 
L 513.136699 -269.383778 
L 506.001434 -268.713667 
L 498.866169 -268.557195 
L 491.730905 -267.897289 
L 484.59564 -267.999337 
L 477.460375 -266.536659 
L 470.325111 -266.264533 
L 463.189846 -266.264533 
L 456.054581 -265.992407 
L 448.919316 -265.448156 
L 441.784052 -265.448156 
L 434.648787 -264.903904 
L 427.513522 -264.631778 
L 420.378257 -264.359652 
L 413.242993 -263.8154 
L 406.107728 -263.8154 
L 398.972463 -263.543274 
L 391.837198 -262.999022 
L 384.701934 -262.45477 
L 377.566669 -261.910518 
L 370.431404 -261.638392 
L 363.296139 -261.638392 
L 356.160875 -261.366266 
L 349.02561 -259.73351 
L 341.890345 -258.141573 
L 334.755081 -259.053195 
L 327.619816 -257.828628 
L 320.484551 -255.923746 
L 313.349286 -255.65162 
L 306.214022 -255.65162 
L 299.078757 -255.107368 
L 291.943492 -254.069888 
L 284.808227 -255.923746 
L 277.672963 -252.113982 
L 270.537698 -251.841856 
L 263.402433 -254.018864 
L 256.267168 -249.120596 
L 249.131904 -250.481226 
L 241.996639 -246.943589 
L 234.861374 -246.127211 
L 227.72611 -240.140439 
L 220.590845 -236.058549 
L 213.45558 -235.514297 
L 206.320315 -231.976659 
L 199.185051 -229.2554 
L 192.049786 -223.676817 
L 184.914521 -222.180124 
L 177.779256 -220.819494 
L 170.643992 -224.629258 
L 163.508727 -216.193352 
L 156.373462 -214.560596 
L 149.238197 -210.750833 
L 142.102933 -205.308313 
L 134.967668 -199.865793 
L 127.832403 -195.239652 
L 120.697138 -187.075872 
L 113.561874 -172.653195 
L 106.426609 -157.142014 
L 99.291344 -130.065478 
L 92.15608 -80.133762 
z
" id="m972eb57c9e" style="stroke:#98df8a;stroke-opacity:0.2;"/>
    </defs>
    <g clip-path="url(#pb61af1ddc1)">
     <use style="fill:#98df8a;fill-opacity:0.2;stroke:#98df8a;stroke-opacity:0.2;" x="0" xlink:href="#m972eb57c9e" y="325.986375"/>
    </g>
   </g>
   <g id="matplotlib.axis_1">
    <g id="xtick_1">
     <g id="line2d_1">
      <defs>
       <path d="M 0 0 
L 0 3.5 
" id="ma813dc4cf4" style="stroke:#000000;stroke-width:0.8;"/>
      </defs>
      <g>
       <use style="stroke:#000000;stroke-width:0.8;" x="92.15608" xlink:href="#ma813dc4cf4" y="288.430125"/>
      </g>
     </g>
     <g id="text_1">
      <!-- 15m -->
      <g transform="translate(80.923267 303.028562)scale(0.1 -0.1)">
       <defs>
        <path d="M 794 531 
L 1825 531 
L 1825 4091 
L 703 3866 
L 703 4441 
L 1819 4666 
L 2450 4666 
L 2450 531 
L 3481 531 
L 3481 0 
L 794 0 
L 794 531 
z
" id="DejaVuSans-31" transform="scale(0.015625)"/>
        <path d="M 691 4666 
L 3169 4666 
L 3169 4134 
L 1269 4134 
L 1269 2991 
Q 1406 3038 1543 3061 
Q 1681 3084 1819 3084 
Q 2600 3084 3056 2656 
Q 3513 2228 3513 1497 
Q 3513 744 3044 326 
Q 2575 -91 1722 -91 
Q 1428 -91 1123 -41 
Q 819 9 494 109 
L 494 744 
Q 775 591 1075 516 
Q 1375 441 1709 441 
Q 2250 441 2565 725 
Q 2881 1009 2881 1497 
Q 2881 1984 2565 2268 
Q 2250 2553 1709 2553 
Q 1456 2553 1204 2497 
Q 953 2441 691 2322 
L 691 4666 
z
" id="DejaVuSans-35" transform="scale(0.015625)"/>
        <path d="M 3328 2828 
Q 3544 3216 3844 3400 
Q 4144 3584 4550 3584 
Q 5097 3584 5394 3201 
Q 5691 2819 5691 2113 
L 5691 0 
L 5113 0 
L 5113 2094 
Q 5113 2597 4934 2840 
Q 4756 3084 4391 3084 
Q 3944 3084 3684 2787 
Q 3425 2491 3425 1978 
L 3425 0 
L 2847 0 
L 2847 2094 
Q 2847 2600 2669 2842 
Q 2491 3084 2119 3084 
Q 1678 3084 1418 2786 
Q 1159 2488 1159 1978 
L 1159 0 
L 581 0 
L 581 3500 
L 1159 3500 
L 1159 2956 
Q 1356 3278 1631 3431 
Q 1906 3584 2284 3584 
Q 2666 3584 2933 3390 
Q 3200 3197 3328 2828 
z
" id="DejaVuSans-6d" transform="scale(0.015625)"/>
       </defs>
       <use xlink:href="#DejaVuSans-31"/>
       <use x="63.623047" xlink:href="#DejaVuSans-35"/>
       <use x="127.246094" xlink:href="#DejaVuSans-6d"/>
      </g>
     </g>
    </g>
    <g id="xtick_2">
     <g id="line2d_2">
      <g>
       <use style="stroke:#000000;stroke-width:0.8;" x="146.859776" xlink:href="#ma813dc4cf4" y="288.430125"/>
      </g>
     </g>
     <g id="text_2">
      <!-- 2h:10m -->
      <g transform="translate(127.592588 303.028562)scale(0.1 -0.1)">
       <defs>
        <path d="M 1228 531 
L 3431 531 
L 3431 0 
L 469 0 
L 469 531 
Q 828 903 1448 1529 
Q 2069 2156 2228 2338 
Q 2531 2678 2651 2914 
Q 2772 3150 2772 3378 
Q 2772 3750 2511 3984 
Q 2250 4219 1831 4219 
Q 1534 4219 1204 4116 
Q 875 4013 500 3803 
L 500 4441 
Q 881 4594 1212 4672 
Q 1544 4750 1819 4750 
Q 2544 4750 2975 4387 
Q 3406 4025 3406 3419 
Q 3406 3131 3298 2873 
Q 3191 2616 2906 2266 
Q 2828 2175 2409 1742 
Q 1991 1309 1228 531 
z
" id="DejaVuSans-32" transform="scale(0.015625)"/>
        <path d="M 3513 2113 
L 3513 0 
L 2938 0 
L 2938 2094 
Q 2938 2591 2744 2837 
Q 2550 3084 2163 3084 
Q 1697 3084 1428 2787 
Q 1159 2491 1159 1978 
L 1159 0 
L 581 0 
L 581 4863 
L 1159 4863 
L 1159 2956 
Q 1366 3272 1645 3428 
Q 1925 3584 2291 3584 
Q 2894 3584 3203 3211 
Q 3513 2838 3513 2113 
z
" id="DejaVuSans-68" transform="scale(0.015625)"/>
        <path d="M 750 794 
L 1409 794 
L 1409 0 
L 750 0 
L 750 794 
z
M 750 3309 
L 1409 3309 
L 1409 2516 
L 750 2516 
L 750 3309 
z
" id="DejaVuSans-3a" transform="scale(0.015625)"/>
        <path d="M 2034 4250 
Q 1547 4250 1301 3770 
Q 1056 3291 1056 2328 
Q 1056 1369 1301 889 
Q 1547 409 2034 409 
Q 2525 409 2770 889 
Q 3016 1369 3016 2328 
Q 3016 3291 2770 3770 
Q 2525 4250 2034 4250 
z
M 2034 4750 
Q 2819 4750 3233 4129 
Q 3647 3509 3647 2328 
Q 3647 1150 3233 529 
Q 2819 -91 2034 -91 
Q 1250 -91 836 529 
Q 422 1150 422 2328 
Q 422 3509 836 4129 
Q 1250 4750 2034 4750 
z
" id="DejaVuSans-30" transform="scale(0.015625)"/>
       </defs>
       <use xlink:href="#DejaVuSans-32"/>
       <use x="63.623047" xlink:href="#DejaVuSans-68"/>
       <use x="127.001953" xlink:href="#DejaVuSans-3a"/>
       <use x="160.693359" xlink:href="#DejaVuSans-31"/>
       <use x="224.316406" xlink:href="#DejaVuSans-30"/>
       <use x="287.939453" xlink:href="#DejaVuSans-6d"/>
      </g>
     </g>
    </g>
    <g id="xtick_3">
     <g id="line2d_3">
      <g>
       <use style="stroke:#000000;stroke-width:0.8;" x="201.563472" xlink:href="#ma813dc4cf4" y="288.430125"/>
      </g>
     </g>
     <g id="text_3">
      <!-- 4h:5m -->
      <g transform="translate(185.477535 303.028562)scale(0.1 -0.1)">
       <defs>
        <path d="M 2419 4116 
L 825 1625 
L 2419 1625 
L 2419 4116 
z
M 2253 4666 
L 3047 4666 
L 3047 1625 
L 3713 1625 
L 3713 1100 
L 3047 1100 
L 3047 0 
L 2419 0 
L 2419 1100 
L 313 1100 
L 313 1709 
L 2253 4666 
z
" id="DejaVuSans-34" transform="scale(0.015625)"/>
       </defs>
       <use xlink:href="#DejaVuSans-34"/>
       <use x="63.623047" xlink:href="#DejaVuSans-68"/>
       <use x="127.001953" xlink:href="#DejaVuSans-3a"/>
       <use x="160.693359" xlink:href="#DejaVuSans-35"/>
       <use x="224.316406" xlink:href="#DejaVuSans-6d"/>
      </g>
     </g>
    </g>
    <g id="xtick_4">
     <g id="line2d_4">
      <g>
       <use style="stroke:#000000;stroke-width:0.8;" x="256.267168" xlink:href="#ma813dc4cf4" y="288.430125"/>
      </g>
     </g>
     <g id="text_4">
      <!-- 6h -->
      <g transform="translate(249.917168 303.028562)scale(0.1 -0.1)">
       <defs>
        <path d="M 2113 2584 
Q 1688 2584 1439 2293 
Q 1191 2003 1191 1497 
Q 1191 994 1439 701 
Q 1688 409 2113 409 
Q 2538 409 2786 701 
Q 3034 994 3034 1497 
Q 3034 2003 2786 2293 
Q 2538 2584 2113 2584 
z
M 3366 4563 
L 3366 3988 
Q 3128 4100 2886 4159 
Q 2644 4219 2406 4219 
Q 1781 4219 1451 3797 
Q 1122 3375 1075 2522 
Q 1259 2794 1537 2939 
Q 1816 3084 2150 3084 
Q 2853 3084 3261 2657 
Q 3669 2231 3669 1497 
Q 3669 778 3244 343 
Q 2819 -91 2113 -91 
Q 1303 -91 875 529 
Q 447 1150 447 2328 
Q 447 3434 972 4092 
Q 1497 4750 2381 4750 
Q 2619 4750 2861 4703 
Q 3103 4656 3366 4563 
z
" id="DejaVuSans-36" transform="scale(0.015625)"/>
       </defs>
       <use xlink:href="#DejaVuSans-36"/>
       <use x="63.623047" xlink:href="#DejaVuSans-68"/>
      </g>
     </g>
    </g>
    <g id="xtick_5">
     <g id="line2d_5">
      <g>
       <use style="stroke:#000000;stroke-width:0.8;" x="310.970865" xlink:href="#ma813dc4cf4" y="288.430125"/>
      </g>
     </g>
     <g id="text_5">
      <!-- 7h:55m -->
      <g transform="translate(291.703677 303.028562)scale(0.1 -0.1)">
       <defs>
        <path d="M 525 4666 
L 3525 4666 
L 3525 4397 
L 1831 0 
L 1172 0 
L 2766 4134 
L 525 4134 
L 525 4666 
z
" id="DejaVuSans-37" transform="scale(0.015625)"/>
       </defs>
       <use xlink:href="#DejaVuSans-37"/>
       <use x="63.623047" xlink:href="#DejaVuSans-68"/>
       <use x="127.001953" xlink:href="#DejaVuSans-3a"/>
       <use x="160.693359" xlink:href="#DejaVuSans-35"/>
       <use x="224.316406" xlink:href="#DejaVuSans-35"/>
       <use x="287.939453" xlink:href="#DejaVuSans-6d"/>
      </g>
     </g>
    </g>
    <g id="xtick_6">
     <g id="line2d_6">
      <g>
       <use style="stroke:#000000;stroke-width:0.8;" x="365.674561" xlink:href="#ma813dc4cf4" y="288.430125"/>
      </g>
     </g>
     <g id="text_6">
      <!-- 9h:50m -->
      <g transform="translate(346.407374 303.028562)scale(0.1 -0.1)">
       <defs>
        <path d="M 703 97 
L 703 672 
Q 941 559 1184 500 
Q 1428 441 1663 441 
Q 2288 441 2617 861 
Q 2947 1281 2994 2138 
Q 2813 1869 2534 1725 
Q 2256 1581 1919 1581 
Q 1219 1581 811 2004 
Q 403 2428 403 3163 
Q 403 3881 828 4315 
Q 1253 4750 1959 4750 
Q 2769 4750 3195 4129 
Q 3622 3509 3622 2328 
Q 3622 1225 3098 567 
Q 2575 -91 1691 -91 
Q 1453 -91 1209 -44 
Q 966 3 703 97 
z
M 1959 2075 
Q 2384 2075 2632 2365 
Q 2881 2656 2881 3163 
Q 2881 3666 2632 3958 
Q 2384 4250 1959 4250 
Q 1534 4250 1286 3958 
Q 1038 3666 1038 3163 
Q 1038 2656 1286 2365 
Q 1534 2075 1959 2075 
z
" id="DejaVuSans-39" transform="scale(0.015625)"/>
       </defs>
       <use xlink:href="#DejaVuSans-39"/>
       <use x="63.623047" xlink:href="#DejaVuSans-68"/>
       <use x="127.001953" xlink:href="#DejaVuSans-3a"/>
       <use x="160.693359" xlink:href="#DejaVuSans-35"/>
       <use x="224.316406" xlink:href="#DejaVuSans-30"/>
       <use x="287.939453" xlink:href="#DejaVuSans-6d"/>
      </g>
     </g>
    </g>
    <g id="xtick_7">
     <g id="line2d_7">
      <g>
       <use style="stroke:#000000;stroke-width:0.8;" x="420.378257" xlink:href="#ma813dc4cf4" y="288.430125"/>
      </g>
     </g>
     <g id="text_7">
      <!-- 11h:45m -->
      <g transform="translate(397.92982 303.028562)scale(0.1 -0.1)">
       <use xlink:href="#DejaVuSans-31"/>
       <use x="63.623047" xlink:href="#DejaVuSans-31"/>
       <use x="127.246094" xlink:href="#DejaVuSans-68"/>
       <use x="190.625" xlink:href="#DejaVuSans-3a"/>
       <use x="224.316406" xlink:href="#DejaVuSans-34"/>
       <use x="287.939453" xlink:href="#DejaVuSans-35"/>
       <use x="351.5625" xlink:href="#DejaVuSans-6d"/>
      </g>
     </g>
    </g>
    <g id="xtick_8">
     <g id="line2d_8">
      <g>
       <use style="stroke:#000000;stroke-width:0.8;" x="475.081954" xlink:href="#ma813dc4cf4" y="288.430125"/>
      </g>
     </g>
     <g id="text_8">
      <!-- 13h:40m -->
      <g transform="translate(452.633516 303.028562)scale(0.1 -0.1)">
       <defs>
        <path d="M 2597 2516 
Q 3050 2419 3304 2112 
Q 3559 1806 3559 1356 
Q 3559 666 3084 287 
Q 2609 -91 1734 -91 
Q 1441 -91 1130 -33 
Q 819 25 488 141 
L 488 750 
Q 750 597 1062 519 
Q 1375 441 1716 441 
Q 2309 441 2620 675 
Q 2931 909 2931 1356 
Q 2931 1769 2642 2001 
Q 2353 2234 1838 2234 
L 1294 2234 
L 1294 2753 
L 1863 2753 
Q 2328 2753 2575 2939 
Q 2822 3125 2822 3475 
Q 2822 3834 2567 4026 
Q 2313 4219 1838 4219 
Q 1578 4219 1281 4162 
Q 984 4106 628 3988 
L 628 4550 
Q 988 4650 1302 4700 
Q 1616 4750 1894 4750 
Q 2613 4750 3031 4423 
Q 3450 4097 3450 3541 
Q 3450 3153 3228 2886 
Q 3006 2619 2597 2516 
z
" id="DejaVuSans-33" transform="scale(0.015625)"/>
       </defs>
       <use xlink:href="#DejaVuSans-31"/>
       <use x="63.623047" xlink:href="#DejaVuSans-33"/>
       <use x="127.246094" xlink:href="#DejaVuSans-68"/>
       <use x="190.625" xlink:href="#DejaVuSans-3a"/>
       <use x="224.316406" xlink:href="#DejaVuSans-34"/>
       <use x="287.939453" xlink:href="#DejaVuSans-30"/>
       <use x="351.5625" xlink:href="#DejaVuSans-6d"/>
      </g>
     </g>
    </g>
    <g id="xtick_9">
     <g id="line2d_9">
      <g>
       <use style="stroke:#000000;stroke-width:0.8;" x="529.78565" xlink:href="#ma813dc4cf4" y="288.430125"/>
      </g>
     </g>
     <g id="text_9">
      <!-- 15h:35m -->
      <g transform="translate(507.337212 303.028562)scale(0.1 -0.1)">
       <use xlink:href="#DejaVuSans-31"/>
       <use x="63.623047" xlink:href="#DejaVuSans-35"/>
       <use x="127.246094" xlink:href="#DejaVuSans-68"/>
       <use x="190.625" xlink:href="#DejaVuSans-3a"/>
       <use x="224.316406" xlink:href="#DejaVuSans-33"/>
       <use x="287.939453" xlink:href="#DejaVuSans-35"/>
       <use x="351.5625" xlink:href="#DejaVuSans-6d"/>
      </g>
     </g>
    </g>
    <g id="xtick_10">
     <g id="line2d_10">
      <g>
       <use style="stroke:#000000;stroke-width:0.8;" x="584.489346" xlink:href="#ma813dc4cf4" y="288.430125"/>
      </g>
     </g>
     <g id="text_10">
      <!-- 17h:30m -->
      <g transform="translate(562.040909 303.028562)scale(0.1 -0.1)">
       <use xlink:href="#DejaVuSans-31"/>
       <use x="63.623047" xlink:href="#DejaVuSans-37"/>
       <use x="127.246094" xlink:href="#DejaVuSans-68"/>
       <use x="190.625" xlink:href="#DejaVuSans-3a"/>
       <use x="224.316406" xlink:href="#DejaVuSans-33"/>
       <use x="287.939453" xlink:href="#DejaVuSans-30"/>
       <use x="351.5625" xlink:href="#DejaVuSans-6d"/>
      </g>
     </g>
    </g>
    <g id="xtick_11">
     <g id="line2d_11">
      <g>
       <use style="stroke:#000000;stroke-width:0.8;" x="639.193043" xlink:href="#ma813dc4cf4" y="288.430125"/>
      </g>
     </g>
     <g id="text_11">
      <!-- 19h:25m -->
      <g transform="translate(616.744605 303.028562)scale(0.1 -0.1)">
       <use xlink:href="#DejaVuSans-31"/>
       <use x="63.623047" xlink:href="#DejaVuSans-39"/>
       <use x="127.246094" xlink:href="#DejaVuSans-68"/>
       <use x="190.625" xlink:href="#DejaVuSans-3a"/>
       <use x="224.316406" xlink:href="#DejaVuSans-32"/>
       <use x="287.939453" xlink:href="#DejaVuSans-35"/>
       <use x="351.5625" xlink:href="#DejaVuSans-6d"/>
      </g>
     </g>
    </g>
    <g id="xtick_12">
     <g id="line2d_12">
      <g>
       <use style="stroke:#000000;stroke-width:0.8;" x="693.896739" xlink:href="#ma813dc4cf4" y="288.430125"/>
      </g>
     </g>
     <g id="text_12">
      <!-- 21h:20m -->
      <g transform="translate(671.448301 303.028562)scale(0.1 -0.1)">
       <use xlink:href="#DejaVuSans-32"/>
       <use x="63.623047" xlink:href="#DejaVuSans-31"/>
       <use x="127.246094" xlink:href="#DejaVuSans-68"/>
       <use x="190.625" xlink:href="#DejaVuSans-3a"/>
       <use x="224.316406" xlink:href="#DejaVuSans-32"/>
       <use x="287.939453" xlink:href="#DejaVuSans-30"/>
       <use x="351.5625" xlink:href="#DejaVuSans-6d"/>
      </g>
     </g>
    </g>
    <g id="text_13">
     <!-- Time (hour:minute) -->
     <g transform="translate(368.403594 316.706687)scale(0.1 -0.1)">
      <defs>
       <path d="M -19 4666 
L 3928 4666 
L 3928 4134 
L 2272 4134 
L 2272 0 
L 1638 0 
L 1638 4134 
L -19 4134 
L -19 4666 
z
" id="DejaVuSans-54" transform="scale(0.015625)"/>
       <path d="M 603 3500 
L 1178 3500 
L 1178 0 
L 603 0 
L 603 3500 
z
M 603 4863 
L 1178 4863 
L 1178 4134 
L 603 4134 
L 603 4863 
z
" id="DejaVuSans-69" transform="scale(0.015625)"/>
       <path d="M 3597 1894 
L 3597 1613 
L 953 1613 
Q 991 1019 1311 708 
Q 1631 397 2203 397 
Q 2534 397 2845 478 
Q 3156 559 3463 722 
L 3463 178 
Q 3153 47 2828 -22 
Q 2503 -91 2169 -91 
Q 1331 -91 842 396 
Q 353 884 353 1716 
Q 353 2575 817 3079 
Q 1281 3584 2069 3584 
Q 2775 3584 3186 3129 
Q 3597 2675 3597 1894 
z
M 3022 2063 
Q 3016 2534 2758 2815 
Q 2500 3097 2075 3097 
Q 1594 3097 1305 2825 
Q 1016 2553 972 2059 
L 3022 2063 
z
" id="DejaVuSans-65" transform="scale(0.015625)"/>
       <path id="DejaVuSans-20" transform="scale(0.015625)"/>
       <path d="M 1984 4856 
Q 1566 4138 1362 3434 
Q 1159 2731 1159 2009 
Q 1159 1288 1364 580 
Q 1569 -128 1984 -844 
L 1484 -844 
Q 1016 -109 783 600 
Q 550 1309 550 2009 
Q 550 2706 781 3412 
Q 1013 4119 1484 4856 
L 1984 4856 
z
" id="DejaVuSans-28" transform="scale(0.015625)"/>
       <path d="M 1959 3097 
Q 1497 3097 1228 2736 
Q 959 2375 959 1747 
Q 959 1119 1226 758 
Q 1494 397 1959 397 
Q 2419 397 2687 759 
Q 2956 1122 2956 1747 
Q 2956 2369 2687 2733 
Q 2419 3097 1959 3097 
z
M 1959 3584 
Q 2709 3584 3137 3096 
Q 3566 2609 3566 1747 
Q 3566 888 3137 398 
Q 2709 -91 1959 -91 
Q 1206 -91 779 398 
Q 353 888 353 1747 
Q 353 2609 779 3096 
Q 1206 3584 1959 3584 
z
" id="DejaVuSans-6f" transform="scale(0.015625)"/>
       <path d="M 544 1381 
L 544 3500 
L 1119 3500 
L 1119 1403 
Q 1119 906 1312 657 
Q 1506 409 1894 409 
Q 2359 409 2629 706 
Q 2900 1003 2900 1516 
L 2900 3500 
L 3475 3500 
L 3475 0 
L 2900 0 
L 2900 538 
Q 2691 219 2414 64 
Q 2138 -91 1772 -91 
Q 1169 -91 856 284 
Q 544 659 544 1381 
z
M 1991 3584 
L 1991 3584 
z
" id="DejaVuSans-75" transform="scale(0.015625)"/>
       <path d="M 2631 2963 
Q 2534 3019 2420 3045 
Q 2306 3072 2169 3072 
Q 1681 3072 1420 2755 
Q 1159 2438 1159 1844 
L 1159 0 
L 581 0 
L 581 3500 
L 1159 3500 
L 1159 2956 
Q 1341 3275 1631 3429 
Q 1922 3584 2338 3584 
Q 2397 3584 2469 3576 
Q 2541 3569 2628 3553 
L 2631 2963 
z
" id="DejaVuSans-72" transform="scale(0.015625)"/>
       <path d="M 3513 2113 
L 3513 0 
L 2938 0 
L 2938 2094 
Q 2938 2591 2744 2837 
Q 2550 3084 2163 3084 
Q 1697 3084 1428 2787 
Q 1159 2491 1159 1978 
L 1159 0 
L 581 0 
L 581 3500 
L 1159 3500 
L 1159 2956 
Q 1366 3272 1645 3428 
Q 1925 3584 2291 3584 
Q 2894 3584 3203 3211 
Q 3513 2838 3513 2113 
z
" id="DejaVuSans-6e" transform="scale(0.015625)"/>
       <path d="M 1172 4494 
L 1172 3500 
L 2356 3500 
L 2356 3053 
L 1172 3053 
L 1172 1153 
Q 1172 725 1289 603 
Q 1406 481 1766 481 
L 2356 481 
L 2356 0 
L 1766 0 
Q 1100 0 847 248 
Q 594 497 594 1153 
L 594 3053 
L 172 3053 
L 172 3500 
L 594 3500 
L 594 4494 
L 1172 4494 
z
" id="DejaVuSans-74" transform="scale(0.015625)"/>
       <path d="M 513 4856 
L 1013 4856 
Q 1481 4119 1714 3412 
Q 1947 2706 1947 2009 
Q 1947 1309 1714 600 
Q 1481 -109 1013 -844 
L 513 -844 
Q 928 -128 1133 580 
Q 1338 1288 1338 2009 
Q 1338 2731 1133 3434 
Q 928 4138 513 4856 
z
" id="DejaVuSans-29" transform="scale(0.015625)"/>
      </defs>
      <use xlink:href="#DejaVuSans-54"/>
      <use x="57.958984" xlink:href="#DejaVuSans-69"/>
      <use x="85.742188" xlink:href="#DejaVuSans-6d"/>
      <use x="183.154297" xlink:href="#DejaVuSans-65"/>
      <use x="244.677734" xlink:href="#DejaVuSans-20"/>
      <use x="276.464844" xlink:href="#DejaVuSans-28"/>
      <use x="315.478516" xlink:href="#DejaVuSans-68"/>
      <use x="378.857422" xlink:href="#DejaVuSans-6f"/>
      <use x="440.039062" xlink:href="#DejaVuSans-75"/>
      <use x="503.417969" xlink:href="#DejaVuSans-72"/>
      <use x="542.78125" xlink:href="#DejaVuSans-3a"/>
      <use x="576.472656" xlink:href="#DejaVuSans-6d"/>
      <use x="673.884766" xlink:href="#DejaVuSans-69"/>
      <use x="701.667969" xlink:href="#DejaVuSans-6e"/>
      <use x="765.046875" xlink:href="#DejaVuSans-75"/>
      <use x="828.425781" xlink:href="#DejaVuSans-74"/>
      <use x="867.634766" xlink:href="#DejaVuSans-65"/>
      <use x="929.158203" xlink:href="#DejaVuSans-29"/>
     </g>
    </g>
   </g>
   <g id="matplotlib.axis_2">
    <g id="ytick_1">
     <g id="line2d_13">
      <defs>
       <path d="M 0 0 
L -3.5 0 
" id="m31b3538889" style="stroke:#000000;stroke-width:0.8;"/>
      </defs>
      <g>
       <use style="stroke:#000000;stroke-width:0.8;" x="59.690625" xlink:href="#m31b3538889" y="282.865149"/>
      </g>
     </g>
     <g id="text_14">
      <!-- 10400 -->
      <g transform="translate(20.878125 286.664367)scale(0.1 -0.1)">
       <use xlink:href="#DejaVuSans-31"/>
       <use x="63.623047" xlink:href="#DejaVuSans-30"/>
       <use x="127.246094" xlink:href="#DejaVuSans-34"/>
       <use x="190.869141" xlink:href="#DejaVuSans-30"/>
       <use x="254.492188" xlink:href="#DejaVuSans-30"/>
      </g>
     </g>
    </g>
    <g id="ytick_2">
     <g id="line2d_14">
      <g>
       <use style="stroke:#000000;stroke-width:0.8;" x="59.690625" xlink:href="#m31b3538889" y="228.439952"/>
      </g>
     </g>
     <g id="text_15">
      <!-- 10600 -->
      <g transform="translate(20.878125 232.239171)scale(0.1 -0.1)">
       <use xlink:href="#DejaVuSans-31"/>
       <use x="63.623047" xlink:href="#DejaVuSans-30"/>
       <use x="127.246094" xlink:href="#DejaVuSans-36"/>
       <use x="190.869141" xlink:href="#DejaVuSans-30"/>
       <use x="254.492188" xlink:href="#DejaVuSans-30"/>
      </g>
     </g>
    </g>
    <g id="ytick_3">
     <g id="line2d_15">
      <g>
       <use style="stroke:#000000;stroke-width:0.8;" x="59.690625" xlink:href="#m31b3538889" y="174.014755"/>
      </g>
     </g>
     <g id="text_16">
      <!-- 10800 -->
      <g transform="translate(20.878125 177.813974)scale(0.1 -0.1)">
       <defs>
        <path d="M 2034 2216 
Q 1584 2216 1326 1975 
Q 1069 1734 1069 1313 
Q 1069 891 1326 650 
Q 1584 409 2034 409 
Q 2484 409 2743 651 
Q 3003 894 3003 1313 
Q 3003 1734 2745 1975 
Q 2488 2216 2034 2216 
z
M 1403 2484 
Q 997 2584 770 2862 
Q 544 3141 544 3541 
Q 544 4100 942 4425 
Q 1341 4750 2034 4750 
Q 2731 4750 3128 4425 
Q 3525 4100 3525 3541 
Q 3525 3141 3298 2862 
Q 3072 2584 2669 2484 
Q 3125 2378 3379 2068 
Q 3634 1759 3634 1313 
Q 3634 634 3220 271 
Q 2806 -91 2034 -91 
Q 1263 -91 848 271 
Q 434 634 434 1313 
Q 434 1759 690 2068 
Q 947 2378 1403 2484 
z
M 1172 3481 
Q 1172 3119 1398 2916 
Q 1625 2713 2034 2713 
Q 2441 2713 2670 2916 
Q 2900 3119 2900 3481 
Q 2900 3844 2670 4047 
Q 2441 4250 2034 4250 
Q 1625 4250 1398 4047 
Q 1172 3844 1172 3481 
z
" id="DejaVuSans-38" transform="scale(0.015625)"/>
       </defs>
       <use xlink:href="#DejaVuSans-31"/>
       <use x="63.623047" xlink:href="#DejaVuSans-30"/>
       <use x="127.246094" xlink:href="#DejaVuSans-38"/>
       <use x="190.869141" xlink:href="#DejaVuSans-30"/>
       <use x="254.492188" xlink:href="#DejaVuSans-30"/>
      </g>
     </g>
    </g>
    <g id="ytick_4">
     <g id="line2d_16">
      <g>
       <use style="stroke:#000000;stroke-width:0.8;" x="59.690625" xlink:href="#m31b3538889" y="119.589558"/>
      </g>
     </g>
     <g id="text_17">
      <!-- 11000 -->
      <g transform="translate(20.878125 123.388777)scale(0.1 -0.1)">
       <use xlink:href="#DejaVuSans-31"/>
       <use x="63.623047" xlink:href="#DejaVuSans-31"/>
       <use x="127.246094" xlink:href="#DejaVuSans-30"/>
       <use x="190.869141" xlink:href="#DejaVuSans-30"/>
       <use x="254.492188" xlink:href="#DejaVuSans-30"/>
      </g>
     </g>
    </g>
    <g id="ytick_5">
     <g id="line2d_17">
      <g>
       <use style="stroke:#000000;stroke-width:0.8;" x="59.690625" xlink:href="#m31b3538889" y="65.164361"/>
      </g>
     </g>
     <g id="text_18">
      <!-- 11200 -->
      <g transform="translate(20.878125 68.96358)scale(0.1 -0.1)">
       <use xlink:href="#DejaVuSans-31"/>
       <use x="63.623047" xlink:href="#DejaVuSans-31"/>
       <use x="127.246094" xlink:href="#DejaVuSans-32"/>
       <use x="190.869141" xlink:href="#DejaVuSans-30"/>
       <use x="254.492188" xlink:href="#DejaVuSans-30"/>
      </g>
     </g>
    </g>
    <g id="text_19">
     <!-- Code branch coverage -->
     <g transform="translate(14.798438 211.949125)rotate(-90)scale(0.1 -0.1)">
      <defs>
       <path d="M 4122 4306 
L 4122 3641 
Q 3803 3938 3442 4084 
Q 3081 4231 2675 4231 
Q 1875 4231 1450 3742 
Q 1025 3253 1025 2328 
Q 1025 1406 1450 917 
Q 1875 428 2675 428 
Q 3081 428 3442 575 
Q 3803 722 4122 1019 
L 4122 359 
Q 3791 134 3420 21 
Q 3050 -91 2638 -91 
Q 1578 -91 968 557 
Q 359 1206 359 2328 
Q 359 3453 968 4101 
Q 1578 4750 2638 4750 
Q 3056 4750 3426 4639 
Q 3797 4528 4122 4306 
z
" id="DejaVuSans-43" transform="scale(0.015625)"/>
       <path d="M 2906 2969 
L 2906 4863 
L 3481 4863 
L 3481 0 
L 2906 0 
L 2906 525 
Q 2725 213 2448 61 
Q 2172 -91 1784 -91 
Q 1150 -91 751 415 
Q 353 922 353 1747 
Q 353 2572 751 3078 
Q 1150 3584 1784 3584 
Q 2172 3584 2448 3432 
Q 2725 3281 2906 2969 
z
M 947 1747 
Q 947 1113 1208 752 
Q 1469 391 1925 391 
Q 2381 391 2643 752 
Q 2906 1113 2906 1747 
Q 2906 2381 2643 2742 
Q 2381 3103 1925 3103 
Q 1469 3103 1208 2742 
Q 947 2381 947 1747 
z
" id="DejaVuSans-64" transform="scale(0.015625)"/>
       <path d="M 3116 1747 
Q 3116 2381 2855 2742 
Q 2594 3103 2138 3103 
Q 1681 3103 1420 2742 
Q 1159 2381 1159 1747 
Q 1159 1113 1420 752 
Q 1681 391 2138 391 
Q 2594 391 2855 752 
Q 3116 1113 3116 1747 
z
M 1159 2969 
Q 1341 3281 1617 3432 
Q 1894 3584 2278 3584 
Q 2916 3584 3314 3078 
Q 3713 2572 3713 1747 
Q 3713 922 3314 415 
Q 2916 -91 2278 -91 
Q 1894 -91 1617 61 
Q 1341 213 1159 525 
L 1159 0 
L 581 0 
L 581 4863 
L 1159 4863 
L 1159 2969 
z
" id="DejaVuSans-62" transform="scale(0.015625)"/>
       <path d="M 2194 1759 
Q 1497 1759 1228 1600 
Q 959 1441 959 1056 
Q 959 750 1161 570 
Q 1363 391 1709 391 
Q 2188 391 2477 730 
Q 2766 1069 2766 1631 
L 2766 1759 
L 2194 1759 
z
M 3341 1997 
L 3341 0 
L 2766 0 
L 2766 531 
Q 2569 213 2275 61 
Q 1981 -91 1556 -91 
Q 1019 -91 701 211 
Q 384 513 384 1019 
Q 384 1609 779 1909 
Q 1175 2209 1959 2209 
L 2766 2209 
L 2766 2266 
Q 2766 2663 2505 2880 
Q 2244 3097 1772 3097 
Q 1472 3097 1187 3025 
Q 903 2953 641 2809 
L 641 3341 
Q 956 3463 1253 3523 
Q 1550 3584 1831 3584 
Q 2591 3584 2966 3190 
Q 3341 2797 3341 1997 
z
" id="DejaVuSans-61" transform="scale(0.015625)"/>
       <path d="M 3122 3366 
L 3122 2828 
Q 2878 2963 2633 3030 
Q 2388 3097 2138 3097 
Q 1578 3097 1268 2742 
Q 959 2388 959 1747 
Q 959 1106 1268 751 
Q 1578 397 2138 397 
Q 2388 397 2633 464 
Q 2878 531 3122 666 
L 3122 134 
Q 2881 22 2623 -34 
Q 2366 -91 2075 -91 
Q 1284 -91 818 406 
Q 353 903 353 1747 
Q 353 2603 823 3093 
Q 1294 3584 2113 3584 
Q 2378 3584 2631 3529 
Q 2884 3475 3122 3366 
z
" id="DejaVuSans-63" transform="scale(0.015625)"/>
       <path d="M 191 3500 
L 800 3500 
L 1894 563 
L 2988 3500 
L 3597 3500 
L 2284 0 
L 1503 0 
L 191 3500 
z
" id="DejaVuSans-76" transform="scale(0.015625)"/>
       <path d="M 2906 1791 
Q 2906 2416 2648 2759 
Q 2391 3103 1925 3103 
Q 1463 3103 1205 2759 
Q 947 2416 947 1791 
Q 947 1169 1205 825 
Q 1463 481 1925 481 
Q 2391 481 2648 825 
Q 2906 1169 2906 1791 
z
M 3481 434 
Q 3481 -459 3084 -895 
Q 2688 -1331 1869 -1331 
Q 1566 -1331 1297 -1286 
Q 1028 -1241 775 -1147 
L 775 -588 
Q 1028 -725 1275 -790 
Q 1522 -856 1778 -856 
Q 2344 -856 2625 -561 
Q 2906 -266 2906 331 
L 2906 616 
Q 2728 306 2450 153 
Q 2172 0 1784 0 
Q 1141 0 747 490 
Q 353 981 353 1791 
Q 353 2603 747 3093 
Q 1141 3584 1784 3584 
Q 2172 3584 2450 3431 
Q 2728 3278 2906 2969 
L 2906 3500 
L 3481 3500 
L 3481 434 
z
" id="DejaVuSans-67" transform="scale(0.015625)"/>
      </defs>
      <use xlink:href="#DejaVuSans-43"/>
      <use x="69.824219" xlink:href="#DejaVuSans-6f"/>
      <use x="131.005859" xlink:href="#DejaVuSans-64"/>
      <use x="194.482422" xlink:href="#DejaVuSans-65"/>
      <use x="256.005859" xlink:href="#DejaVuSans-20"/>
      <use x="287.792969" xlink:href="#DejaVuSans-62"/>
      <use x="351.269531" xlink:href="#DejaVuSans-72"/>
      <use x="392.382812" xlink:href="#DejaVuSans-61"/>
      <use x="453.662109" xlink:href="#DejaVuSans-6e"/>
      <use x="517.041016" xlink:href="#DejaVuSans-63"/>
      <use x="572.021484" xlink:href="#DejaVuSans-68"/>
      <use x="635.400391" xlink:href="#DejaVuSans-20"/>
      <use x="667.1875" xlink:href="#DejaVuSans-63"/>
      <use x="722.167969" xlink:href="#DejaVuSans-6f"/>
      <use x="783.349609" xlink:href="#DejaVuSans-76"/>
      <use x="842.529297" xlink:href="#DejaVuSans-65"/>
      <use x="904.052734" xlink:href="#DejaVuSans-72"/>
      <use x="945.166016" xlink:href="#DejaVuSans-61"/>
      <use x="1006.445312" xlink:href="#DejaVuSans-67"/>
      <use x="1069.921875" xlink:href="#DejaVuSans-65"/>
     </g>
    </g>
   </g>
   <g id="line2d_18">
    <path clip-path="url(#pb61af1ddc1)" d="M 92.15608 227.8957 
L 99.291344 205.989558 
L 106.426609 188.709558 
L 113.561874 178.913023 
L 120.697138 170.61318 
L 127.832403 157.142944 
L 134.967668 151.564361 
L 142.102933 145.033338 
L 149.238197 136.733495 
L 156.373462 129.250031 
L 163.508727 125.984519 
L 170.643992 124.487826 
L 177.779256 122.991133 
L 184.914521 121.49444 
L 192.049786 120.950188 
L 199.185051 118.909243 
L 206.320315 116.732235 
L 213.45558 115.643731 
L 220.590845 114.010975 
L 227.72611 111.561842 
L 234.861374 109.65696 
L 241.996639 107.888141 
L 249.131904 107.343889 
L 256.267168 107.071763 
L 263.402433 105.711133 
L 270.537698 100.948928 
L 277.672963 100.812865 
L 284.808227 99.724361 
L 291.943492 99.452235 
L 299.078757 99.044046 
L 306.214022 98.635857 
L 313.349286 98.363731 
L 320.484551 98.091605 
L 327.619816 97.683416 
L 334.755081 96.867038 
L 341.890345 94.962156 
L 349.02561 94.826094 
L 356.160875 94.145779 
L 363.296139 93.601527 
L 370.431404 92.921212 
L 377.566669 92.37696 
L 384.701934 92.240897 
L 391.837198 92.240897 
L 398.972463 91.560582 
L 406.107728 90.608141 
L 413.242993 89.111448 
L 420.378257 88.703259 
L 427.513522 88.703259 
L 434.648787 87.886881 
L 441.784052 87.478692 
L 448.919316 85.57381 
L 456.054581 85.301684 
L 463.189846 82.85255 
L 470.325111 81.900109 
L 477.460375 81.219794 
L 484.59564 80.947668 
L 491.730905 80.403416 
L 498.866169 79.178849 
L 506.001434 79.042786 
L 513.136699 77.954282 
L 520.271964 76.321527 
L 527.407228 76.321527 
L 534.542493 75.777275 
L 541.677758 75.233023 
L 548.813023 74.688771 
L 555.948287 74.688771 
L 563.083552 73.73633 
L 570.218817 73.600267 
L 577.354082 73.328141 
L 584.489346 72.3757 
L 591.624611 71.695385 
L 598.759876 71.01507 
L 605.89514 70.879007 
L 613.030405 70.879007 
L 620.16567 69.65444 
L 627.300935 69.382314 
L 634.436199 69.382314 
L 641.571464 69.110188 
L 648.706729 68.565936 
L 655.841994 68.429873 
L 662.977258 68.429873 
L 670.112523 68.429873 
L 677.247788 68.429873 
L 684.383053 68.429873 
L 691.518317 68.157747 
L 698.653582 68.157747 
L 705.788847 67.069243 
L 712.924112 67.069243 
L 720.059376 67.069243 
L 727.194641 66.797117 
L 734.329906 66.797117 
L 741.46517 66.388928 
" style="fill:none;stroke:#1f77b4;stroke-linecap:square;stroke-width:1.5;"/>
    <defs>
     <path d="M 0 3 
C 0.795609 3 1.55874 2.683901 2.12132 2.12132 
C 2.683901 1.55874 3 0.795609 3 0 
C 3 -0.795609 2.683901 -1.55874 2.12132 -2.12132 
C 1.55874 -2.683901 0.795609 -3 0 -3 
C -0.795609 -3 -1.55874 -2.683901 -2.12132 -2.12132 
C -2.683901 -1.55874 -3 -0.795609 -3 0 
C -3 0.795609 -2.683901 1.55874 -2.12132 2.12132 
C -1.55874 2.683901 -0.795609 3 0 3 
z
" id="m65a899fb03" style="stroke:#ffffff;stroke-width:0.75;"/>
    </defs>
    <g clip-path="url(#pb61af1ddc1)">
     <use style="fill:#1f77b4;stroke:#ffffff;stroke-width:0.75;" x="92.15608" xlink:href="#m65a899fb03" y="227.8957"/>
     <use style="fill:#1f77b4;stroke:#ffffff;stroke-width:0.75;" x="99.291344" xlink:href="#m65a899fb03" y="205.989558"/>
     <use style="fill:#1f77b4;stroke:#ffffff;stroke-width:0.75;" x="106.426609" xlink:href="#m65a899fb03" y="188.709558"/>
     <use style="fill:#1f77b4;stroke:#ffffff;stroke-width:0.75;" x="113.561874" xlink:href="#m65a899fb03" y="178.913023"/>
     <use style="fill:#1f77b4;stroke:#ffffff;stroke-width:0.75;" x="120.697138" xlink:href="#m65a899fb03" y="170.61318"/>
     <use style="fill:#1f77b4;stroke:#ffffff;stroke-width:0.75;" x="127.832403" xlink:href="#m65a899fb03" y="157.142944"/>
     <use style="fill:#1f77b4;stroke:#ffffff;stroke-width:0.75;" x="134.967668" xlink:href="#m65a899fb03" y="151.564361"/>
     <use style="fill:#1f77b4;stroke:#ffffff;stroke-width:0.75;" x="142.102933" xlink:href="#m65a899fb03" y="145.033338"/>
     <use style="fill:#1f77b4;stroke:#ffffff;stroke-width:0.75;" x="149.238197" xlink:href="#m65a899fb03" y="136.733495"/>
     <use style="fill:#1f77b4;stroke:#ffffff;stroke-width:0.75;" x="156.373462" xlink:href="#m65a899fb03" y="129.250031"/>
     <use style="fill:#1f77b4;stroke:#ffffff;stroke-width:0.75;" x="163.508727" xlink:href="#m65a899fb03" y="125.984519"/>
     <use style="fill:#1f77b4;stroke:#ffffff;stroke-width:0.75;" x="170.643992" xlink:href="#m65a899fb03" y="124.487826"/>
     <use style="fill:#1f77b4;stroke:#ffffff;stroke-width:0.75;" x="177.779256" xlink:href="#m65a899fb03" y="122.991133"/>
     <use style="fill:#1f77b4;stroke:#ffffff;stroke-width:0.75;" x="184.914521" xlink:href="#m65a899fb03" y="121.49444"/>
     <use style="fill:#1f77b4;stroke:#ffffff;stroke-width:0.75;" x="192.049786" xlink:href="#m65a899fb03" y="120.950188"/>
     <use style="fill:#1f77b4;stroke:#ffffff;stroke-width:0.75;" x="199.185051" xlink:href="#m65a899fb03" y="118.909243"/>
     <use style="fill:#1f77b4;stroke:#ffffff;stroke-width:0.75;" x="206.320315" xlink:href="#m65a899fb03" y="116.732235"/>
     <use style="fill:#1f77b4;stroke:#ffffff;stroke-width:0.75;" x="213.45558" xlink:href="#m65a899fb03" y="115.643731"/>
     <use style="fill:#1f77b4;stroke:#ffffff;stroke-width:0.75;" x="220.590845" xlink:href="#m65a899fb03" y="114.010975"/>
     <use style="fill:#1f77b4;stroke:#ffffff;stroke-width:0.75;" x="227.72611" xlink:href="#m65a899fb03" y="111.561842"/>
     <use style="fill:#1f77b4;stroke:#ffffff;stroke-width:0.75;" x="234.861374" xlink:href="#m65a899fb03" y="109.65696"/>
     <use style="fill:#1f77b4;stroke:#ffffff;stroke-width:0.75;" x="241.996639" xlink:href="#m65a899fb03" y="107.888141"/>
     <use style="fill:#1f77b4;stroke:#ffffff;stroke-width:0.75;" x="249.131904" xlink:href="#m65a899fb03" y="107.343889"/>
     <use style="fill:#1f77b4;stroke:#ffffff;stroke-width:0.75;" x="256.267168" xlink:href="#m65a899fb03" y="107.071763"/>
     <use style="fill:#1f77b4;stroke:#ffffff;stroke-width:0.75;" x="263.402433" xlink:href="#m65a899fb03" y="105.711133"/>
     <use style="fill:#1f77b4;stroke:#ffffff;stroke-width:0.75;" x="270.537698" xlink:href="#m65a899fb03" y="100.948928"/>
     <use style="fill:#1f77b4;stroke:#ffffff;stroke-width:0.75;" x="277.672963" xlink:href="#m65a899fb03" y="100.812865"/>
     <use style="fill:#1f77b4;stroke:#ffffff;stroke-width:0.75;" x="284.808227" xlink:href="#m65a899fb03" y="99.724361"/>
     <use style="fill:#1f77b4;stroke:#ffffff;stroke-width:0.75;" x="291.943492" xlink:href="#m65a899fb03" y="99.452235"/>
     <use style="fill:#1f77b4;stroke:#ffffff;stroke-width:0.75;" x="299.078757" xlink:href="#m65a899fb03" y="99.044046"/>
     <use style="fill:#1f77b4;stroke:#ffffff;stroke-width:0.75;" x="306.214022" xlink:href="#m65a899fb03" y="98.635857"/>
     <use style="fill:#1f77b4;stroke:#ffffff;stroke-width:0.75;" x="313.349286" xlink:href="#m65a899fb03" y="98.363731"/>
     <use style="fill:#1f77b4;stroke:#ffffff;stroke-width:0.75;" x="320.484551" xlink:href="#m65a899fb03" y="98.091605"/>
     <use style="fill:#1f77b4;stroke:#ffffff;stroke-width:0.75;" x="327.619816" xlink:href="#m65a899fb03" y="97.683416"/>
     <use style="fill:#1f77b4;stroke:#ffffff;stroke-width:0.75;" x="334.755081" xlink:href="#m65a899fb03" y="96.867038"/>
     <use style="fill:#1f77b4;stroke:#ffffff;stroke-width:0.75;" x="341.890345" xlink:href="#m65a899fb03" y="94.962156"/>
     <use style="fill:#1f77b4;stroke:#ffffff;stroke-width:0.75;" x="349.02561" xlink:href="#m65a899fb03" y="94.826094"/>
     <use style="fill:#1f77b4;stroke:#ffffff;stroke-width:0.75;" x="356.160875" xlink:href="#m65a899fb03" y="94.145779"/>
     <use style="fill:#1f77b4;stroke:#ffffff;stroke-width:0.75;" x="363.296139" xlink:href="#m65a899fb03" y="93.601527"/>
     <use style="fill:#1f77b4;stroke:#ffffff;stroke-width:0.75;" x="370.431404" xlink:href="#m65a899fb03" y="92.921212"/>
     <use style="fill:#1f77b4;stroke:#ffffff;stroke-width:0.75;" x="377.566669" xlink:href="#m65a899fb03" y="92.37696"/>
     <use style="fill:#1f77b4;stroke:#ffffff;stroke-width:0.75;" x="384.701934" xlink:href="#m65a899fb03" y="92.240897"/>
     <use style="fill:#1f77b4;stroke:#ffffff;stroke-width:0.75;" x="391.837198" xlink:href="#m65a899fb03" y="92.240897"/>
     <use style="fill:#1f77b4;stroke:#ffffff;stroke-width:0.75;" x="398.972463" xlink:href="#m65a899fb03" y="91.560582"/>
     <use style="fill:#1f77b4;stroke:#ffffff;stroke-width:0.75;" x="406.107728" xlink:href="#m65a899fb03" y="90.608141"/>
     <use style="fill:#1f77b4;stroke:#ffffff;stroke-width:0.75;" x="413.242993" xlink:href="#m65a899fb03" y="89.111448"/>
     <use style="fill:#1f77b4;stroke:#ffffff;stroke-width:0.75;" x="420.378257" xlink:href="#m65a899fb03" y="88.703259"/>
     <use style="fill:#1f77b4;stroke:#ffffff;stroke-width:0.75;" x="427.513522" xlink:href="#m65a899fb03" y="88.703259"/>
     <use style="fill:#1f77b4;stroke:#ffffff;stroke-width:0.75;" x="434.648787" xlink:href="#m65a899fb03" y="87.886881"/>
     <use style="fill:#1f77b4;stroke:#ffffff;stroke-width:0.75;" x="441.784052" xlink:href="#m65a899fb03" y="87.478692"/>
     <use style="fill:#1f77b4;stroke:#ffffff;stroke-width:0.75;" x="448.919316" xlink:href="#m65a899fb03" y="85.57381"/>
     <use style="fill:#1f77b4;stroke:#ffffff;stroke-width:0.75;" x="456.054581" xlink:href="#m65a899fb03" y="85.301684"/>
     <use style="fill:#1f77b4;stroke:#ffffff;stroke-width:0.75;" x="463.189846" xlink:href="#m65a899fb03" y="82.85255"/>
     <use style="fill:#1f77b4;stroke:#ffffff;stroke-width:0.75;" x="470.325111" xlink:href="#m65a899fb03" y="81.900109"/>
     <use style="fill:#1f77b4;stroke:#ffffff;stroke-width:0.75;" x="477.460375" xlink:href="#m65a899fb03" y="81.219794"/>
     <use style="fill:#1f77b4;stroke:#ffffff;stroke-width:0.75;" x="484.59564" xlink:href="#m65a899fb03" y="80.947668"/>
     <use style="fill:#1f77b4;stroke:#ffffff;stroke-width:0.75;" x="491.730905" xlink:href="#m65a899fb03" y="80.403416"/>
     <use style="fill:#1f77b4;stroke:#ffffff;stroke-width:0.75;" x="498.866169" xlink:href="#m65a899fb03" y="79.178849"/>
     <use style="fill:#1f77b4;stroke:#ffffff;stroke-width:0.75;" x="506.001434" xlink:href="#m65a899fb03" y="79.042786"/>
     <use style="fill:#1f77b4;stroke:#ffffff;stroke-width:0.75;" x="513.136699" xlink:href="#m65a899fb03" y="77.954282"/>
     <use style="fill:#1f77b4;stroke:#ffffff;stroke-width:0.75;" x="520.271964" xlink:href="#m65a899fb03" y="76.321527"/>
     <use style="fill:#1f77b4;stroke:#ffffff;stroke-width:0.75;" x="527.407228" xlink:href="#m65a899fb03" y="76.321527"/>
     <use style="fill:#1f77b4;stroke:#ffffff;stroke-width:0.75;" x="534.542493" xlink:href="#m65a899fb03" y="75.777275"/>
     <use style="fill:#1f77b4;stroke:#ffffff;stroke-width:0.75;" x="541.677758" xlink:href="#m65a899fb03" y="75.233023"/>
     <use style="fill:#1f77b4;stroke:#ffffff;stroke-width:0.75;" x="548.813023" xlink:href="#m65a899fb03" y="74.688771"/>
     <use style="fill:#1f77b4;stroke:#ffffff;stroke-width:0.75;" x="555.948287" xlink:href="#m65a899fb03" y="74.688771"/>
     <use style="fill:#1f77b4;stroke:#ffffff;stroke-width:0.75;" x="563.083552" xlink:href="#m65a899fb03" y="73.73633"/>
     <use style="fill:#1f77b4;stroke:#ffffff;stroke-width:0.75;" x="570.218817" xlink:href="#m65a899fb03" y="73.600267"/>
     <use style="fill:#1f77b4;stroke:#ffffff;stroke-width:0.75;" x="577.354082" xlink:href="#m65a899fb03" y="73.328141"/>
     <use style="fill:#1f77b4;stroke:#ffffff;stroke-width:0.75;" x="584.489346" xlink:href="#m65a899fb03" y="72.3757"/>
     <use style="fill:#1f77b4;stroke:#ffffff;stroke-width:0.75;" x="591.624611" xlink:href="#m65a899fb03" y="71.695385"/>
     <use style="fill:#1f77b4;stroke:#ffffff;stroke-width:0.75;" x="598.759876" xlink:href="#m65a899fb03" y="71.01507"/>
     <use style="fill:#1f77b4;stroke:#ffffff;stroke-width:0.75;" x="605.89514" xlink:href="#m65a899fb03" y="70.879007"/>
     <use style="fill:#1f77b4;stroke:#ffffff;stroke-width:0.75;" x="613.030405" xlink:href="#m65a899fb03" y="70.879007"/>
     <use style="fill:#1f77b4;stroke:#ffffff;stroke-width:0.75;" x="620.16567" xlink:href="#m65a899fb03" y="69.65444"/>
     <use style="fill:#1f77b4;stroke:#ffffff;stroke-width:0.75;" x="627.300935" xlink:href="#m65a899fb03" y="69.382314"/>
     <use style="fill:#1f77b4;stroke:#ffffff;stroke-width:0.75;" x="634.436199" xlink:href="#m65a899fb03" y="69.382314"/>
     <use style="fill:#1f77b4;stroke:#ffffff;stroke-width:0.75;" x="641.571464" xlink:href="#m65a899fb03" y="69.110188"/>
     <use style="fill:#1f77b4;stroke:#ffffff;stroke-width:0.75;" x="648.706729" xlink:href="#m65a899fb03" y="68.565936"/>
     <use style="fill:#1f77b4;stroke:#ffffff;stroke-width:0.75;" x="655.841994" xlink:href="#m65a899fb03" y="68.429873"/>
     <use style="fill:#1f77b4;stroke:#ffffff;stroke-width:0.75;" x="662.977258" xlink:href="#m65a899fb03" y="68.429873"/>
     <use style="fill:#1f77b4;stroke:#ffffff;stroke-width:0.75;" x="670.112523" xlink:href="#m65a899fb03" y="68.429873"/>
     <use style="fill:#1f77b4;stroke:#ffffff;stroke-width:0.75;" x="677.247788" xlink:href="#m65a899fb03" y="68.429873"/>
     <use style="fill:#1f77b4;stroke:#ffffff;stroke-width:0.75;" x="684.383053" xlink:href="#m65a899fb03" y="68.429873"/>
     <use style="fill:#1f77b4;stroke:#ffffff;stroke-width:0.75;" x="691.518317" xlink:href="#m65a899fb03" y="68.157747"/>
     <use style="fill:#1f77b4;stroke:#ffffff;stroke-width:0.75;" x="698.653582" xlink:href="#m65a899fb03" y="68.157747"/>
     <use style="fill:#1f77b4;stroke:#ffffff;stroke-width:0.75;" x="705.788847" xlink:href="#m65a899fb03" y="67.069243"/>
     <use style="fill:#1f77b4;stroke:#ffffff;stroke-width:0.75;" x="712.924112" xlink:href="#m65a899fb03" y="67.069243"/>
     <use style="fill:#1f77b4;stroke:#ffffff;stroke-width:0.75;" x="720.059376" xlink:href="#m65a899fb03" y="67.069243"/>
     <use style="fill:#1f77b4;stroke:#ffffff;stroke-width:0.75;" x="727.194641" xlink:href="#m65a899fb03" y="66.797117"/>
     <use style="fill:#1f77b4;stroke:#ffffff;stroke-width:0.75;" x="734.329906" xlink:href="#m65a899fb03" y="66.797117"/>
     <use style="fill:#1f77b4;stroke:#ffffff;stroke-width:0.75;" x="741.46517" xlink:href="#m65a899fb03" y="66.388928"/>
    </g>
   </g>
   <g id="line2d_19">
    <path clip-path="url(#pb61af1ddc1)" d="M 92.15608 249.25759 
L 99.291344 220.004046 
L 106.426609 197.689716 
L 113.561874 180.817905 
L 120.697138 176.736015 
L 127.832403 169.25255 
L 134.967668 164.490345 
L 142.102933 158.231448 
L 149.238197 153.469243 
L 156.373462 144.625149 
L 163.508727 140.679322 
L 170.643992 136.05318 
L 177.779256 134.284361 
L 184.914521 132.515542 
L 192.049786 130.882786 
L 199.185051 130.202471 
L 206.320315 128.433653 
L 213.45558 127.073023 
L 220.590845 125.440267 
L 227.72611 117.276487 
L 234.861374 110.473338 
L 241.996639 109.384834 
L 249.131904 106.663574 
L 256.267168 104.350503 
L 263.402433 103.398062 
L 270.537698 103.125936 
L 277.672963 99.860424 
L 284.808227 98.635857 
L 291.943492 96.186723 
L 299.078757 94.690031 
L 306.214022 94.281842 
L 313.349286 94.009716 
L 320.484551 93.465464 
L 327.619816 92.785149 
L 334.755081 92.37696 
L 341.890345 92.104834 
L 349.02561 91.152393 
L 356.160875 90.744204 
L 363.296139 88.975385 
L 370.431404 88.975385 
L 377.566669 88.022944 
L 384.701934 87.614755 
L 391.837198 86.390188 
L 398.972463 85.845936 
L 406.107728 85.437747 
L 413.242993 84.893495 
L 420.378257 83.941054 
L 427.513522 83.668928 
L 434.648787 83.532865 
L 441.784052 83.396802 
L 448.919316 82.85255 
L 456.054581 82.716487 
L 463.189846 82.172235 
L 470.325111 80.267353 
L 477.460375 79.314912 
L 484.59564 77.682156 
L 491.730905 77.682156 
L 498.866169 77.682156 
L 506.001434 77.137905 
L 513.136699 76.729716 
L 520.271964 76.729716 
L 527.407228 76.049401 
L 534.542493 75.641212 
L 541.677758 75.369086 
L 548.813023 75.233023 
L 555.948287 74.960897 
L 563.083552 74.280582 
L 570.218817 74.144519 
L 577.354082 73.056015 
L 584.489346 72.783889 
L 591.624611 72.647826 
L 598.759876 72.647826 
L 605.89514 72.647826 
L 613.030405 72.103574 
L 620.16567 71.01507 
L 627.300935 70.742944 
L 634.436199 70.606881 
L 641.571464 70.198692 
L 648.706729 70.198692 
L 655.841994 69.790503 
L 662.977258 69.65444 
L 670.112523 69.246251 
L 677.247788 68.701999 
L 684.383053 68.701999 
L 691.518317 68.565936 
L 698.653582 68.429873 
L 705.788847 67.885621 
L 712.924112 67.477432 
L 720.059376 67.341369 
L 727.194641 66.252865 
L 734.329906 65.980739 
L 741.46517 65.980739 
" style="fill:none;stroke:#98df8a;stroke-linecap:square;stroke-width:1.5;"/>
    <defs>
     <path d="M -0 3 
L 3 -3 
L -3 -3 
z
" id="mf4bcc750f8" style="stroke:#ffffff;stroke-linejoin:miter;stroke-width:0.75;"/>
    </defs>
    <g clip-path="url(#pb61af1ddc1)">
     <use style="fill:#98df8a;stroke:#ffffff;stroke-linejoin:miter;stroke-width:0.75;" x="92.15608" xlink:href="#mf4bcc750f8" y="249.25759"/>
     <use style="fill:#98df8a;stroke:#ffffff;stroke-linejoin:miter;stroke-width:0.75;" x="99.291344" xlink:href="#mf4bcc750f8" y="220.004046"/>
     <use style="fill:#98df8a;stroke:#ffffff;stroke-linejoin:miter;stroke-width:0.75;" x="106.426609" xlink:href="#mf4bcc750f8" y="197.689716"/>
     <use style="fill:#98df8a;stroke:#ffffff;stroke-linejoin:miter;stroke-width:0.75;" x="113.561874" xlink:href="#mf4bcc750f8" y="180.817905"/>
     <use style="fill:#98df8a;stroke:#ffffff;stroke-linejoin:miter;stroke-width:0.75;" x="120.697138" xlink:href="#mf4bcc750f8" y="176.736015"/>
     <use style="fill:#98df8a;stroke:#ffffff;stroke-linejoin:miter;stroke-width:0.75;" x="127.832403" xlink:href="#mf4bcc750f8" y="169.25255"/>
     <use style="fill:#98df8a;stroke:#ffffff;stroke-linejoin:miter;stroke-width:0.75;" x="134.967668" xlink:href="#mf4bcc750f8" y="164.490345"/>
     <use style="fill:#98df8a;stroke:#ffffff;stroke-linejoin:miter;stroke-width:0.75;" x="142.102933" xlink:href="#mf4bcc750f8" y="158.231448"/>
     <use style="fill:#98df8a;stroke:#ffffff;stroke-linejoin:miter;stroke-width:0.75;" x="149.238197" xlink:href="#mf4bcc750f8" y="153.469243"/>
     <use style="fill:#98df8a;stroke:#ffffff;stroke-linejoin:miter;stroke-width:0.75;" x="156.373462" xlink:href="#mf4bcc750f8" y="144.625149"/>
     <use style="fill:#98df8a;stroke:#ffffff;stroke-linejoin:miter;stroke-width:0.75;" x="163.508727" xlink:href="#mf4bcc750f8" y="140.679322"/>
     <use style="fill:#98df8a;stroke:#ffffff;stroke-linejoin:miter;stroke-width:0.75;" x="170.643992" xlink:href="#mf4bcc750f8" y="136.05318"/>
     <use style="fill:#98df8a;stroke:#ffffff;stroke-linejoin:miter;stroke-width:0.75;" x="177.779256" xlink:href="#mf4bcc750f8" y="134.284361"/>
     <use style="fill:#98df8a;stroke:#ffffff;stroke-linejoin:miter;stroke-width:0.75;" x="184.914521" xlink:href="#mf4bcc750f8" y="132.515542"/>
     <use style="fill:#98df8a;stroke:#ffffff;stroke-linejoin:miter;stroke-width:0.75;" x="192.049786" xlink:href="#mf4bcc750f8" y="130.882786"/>
     <use style="fill:#98df8a;stroke:#ffffff;stroke-linejoin:miter;stroke-width:0.75;" x="199.185051" xlink:href="#mf4bcc750f8" y="130.202471"/>
     <use style="fill:#98df8a;stroke:#ffffff;stroke-linejoin:miter;stroke-width:0.75;" x="206.320315" xlink:href="#mf4bcc750f8" y="128.433653"/>
     <use style="fill:#98df8a;stroke:#ffffff;stroke-linejoin:miter;stroke-width:0.75;" x="213.45558" xlink:href="#mf4bcc750f8" y="127.073023"/>
     <use style="fill:#98df8a;stroke:#ffffff;stroke-linejoin:miter;stroke-width:0.75;" x="220.590845" xlink:href="#mf4bcc750f8" y="125.440267"/>
     <use style="fill:#98df8a;stroke:#ffffff;stroke-linejoin:miter;stroke-width:0.75;" x="227.72611" xlink:href="#mf4bcc750f8" y="117.276487"/>
     <use style="fill:#98df8a;stroke:#ffffff;stroke-linejoin:miter;stroke-width:0.75;" x="234.861374" xlink:href="#mf4bcc750f8" y="110.473338"/>
     <use style="fill:#98df8a;stroke:#ffffff;stroke-linejoin:miter;stroke-width:0.75;" x="241.996639" xlink:href="#mf4bcc750f8" y="109.384834"/>
     <use style="fill:#98df8a;stroke:#ffffff;stroke-linejoin:miter;stroke-width:0.75;" x="249.131904" xlink:href="#mf4bcc750f8" y="106.663574"/>
     <use style="fill:#98df8a;stroke:#ffffff;stroke-linejoin:miter;stroke-width:0.75;" x="256.267168" xlink:href="#mf4bcc750f8" y="104.350503"/>
     <use style="fill:#98df8a;stroke:#ffffff;stroke-linejoin:miter;stroke-width:0.75;" x="263.402433" xlink:href="#mf4bcc750f8" y="103.398062"/>
     <use style="fill:#98df8a;stroke:#ffffff;stroke-linejoin:miter;stroke-width:0.75;" x="270.537698" xlink:href="#mf4bcc750f8" y="103.125936"/>
     <use style="fill:#98df8a;stroke:#ffffff;stroke-linejoin:miter;stroke-width:0.75;" x="277.672963" xlink:href="#mf4bcc750f8" y="99.860424"/>
     <use style="fill:#98df8a;stroke:#ffffff;stroke-linejoin:miter;stroke-width:0.75;" x="284.808227" xlink:href="#mf4bcc750f8" y="98.635857"/>
     <use style="fill:#98df8a;stroke:#ffffff;stroke-linejoin:miter;stroke-width:0.75;" x="291.943492" xlink:href="#mf4bcc750f8" y="96.186723"/>
     <use style="fill:#98df8a;stroke:#ffffff;stroke-linejoin:miter;stroke-width:0.75;" x="299.078757" xlink:href="#mf4bcc750f8" y="94.690031"/>
     <use style="fill:#98df8a;stroke:#ffffff;stroke-linejoin:miter;stroke-width:0.75;" x="306.214022" xlink:href="#mf4bcc750f8" y="94.281842"/>
     <use style="fill:#98df8a;stroke:#ffffff;stroke-linejoin:miter;stroke-width:0.75;" x="313.349286" xlink:href="#mf4bcc750f8" y="94.009716"/>
     <use style="fill:#98df8a;stroke:#ffffff;stroke-linejoin:miter;stroke-width:0.75;" x="320.484551" xlink:href="#mf4bcc750f8" y="93.465464"/>
     <use style="fill:#98df8a;stroke:#ffffff;stroke-linejoin:miter;stroke-width:0.75;" x="327.619816" xlink:href="#mf4bcc750f8" y="92.785149"/>
     <use style="fill:#98df8a;stroke:#ffffff;stroke-linejoin:miter;stroke-width:0.75;" x="334.755081" xlink:href="#mf4bcc750f8" y="92.37696"/>
     <use style="fill:#98df8a;stroke:#ffffff;stroke-linejoin:miter;stroke-width:0.75;" x="341.890345" xlink:href="#mf4bcc750f8" y="92.104834"/>
     <use style="fill:#98df8a;stroke:#ffffff;stroke-linejoin:miter;stroke-width:0.75;" x="349.02561" xlink:href="#mf4bcc750f8" y="91.152393"/>
     <use style="fill:#98df8a;stroke:#ffffff;stroke-linejoin:miter;stroke-width:0.75;" x="356.160875" xlink:href="#mf4bcc750f8" y="90.744204"/>
     <use style="fill:#98df8a;stroke:#ffffff;stroke-linejoin:miter;stroke-width:0.75;" x="363.296139" xlink:href="#mf4bcc750f8" y="88.975385"/>
     <use style="fill:#98df8a;stroke:#ffffff;stroke-linejoin:miter;stroke-width:0.75;" x="370.431404" xlink:href="#mf4bcc750f8" y="88.975385"/>
     <use style="fill:#98df8a;stroke:#ffffff;stroke-linejoin:miter;stroke-width:0.75;" x="377.566669" xlink:href="#mf4bcc750f8" y="88.022944"/>
     <use style="fill:#98df8a;stroke:#ffffff;stroke-linejoin:miter;stroke-width:0.75;" x="384.701934" xlink:href="#mf4bcc750f8" y="87.614755"/>
     <use style="fill:#98df8a;stroke:#ffffff;stroke-linejoin:miter;stroke-width:0.75;" x="391.837198" xlink:href="#mf4bcc750f8" y="86.390188"/>
     <use style="fill:#98df8a;stroke:#ffffff;stroke-linejoin:miter;stroke-width:0.75;" x="398.972463" xlink:href="#mf4bcc750f8" y="85.845936"/>
     <use style="fill:#98df8a;stroke:#ffffff;stroke-linejoin:miter;stroke-width:0.75;" x="406.107728" xlink:href="#mf4bcc750f8" y="85.437747"/>
     <use style="fill:#98df8a;stroke:#ffffff;stroke-linejoin:miter;stroke-width:0.75;" x="413.242993" xlink:href="#mf4bcc750f8" y="84.893495"/>
     <use style="fill:#98df8a;stroke:#ffffff;stroke-linejoin:miter;stroke-width:0.75;" x="420.378257" xlink:href="#mf4bcc750f8" y="83.941054"/>
     <use style="fill:#98df8a;stroke:#ffffff;stroke-linejoin:miter;stroke-width:0.75;" x="427.513522" xlink:href="#mf4bcc750f8" y="83.668928"/>
     <use style="fill:#98df8a;stroke:#ffffff;stroke-linejoin:miter;stroke-width:0.75;" x="434.648787" xlink:href="#mf4bcc750f8" y="83.532865"/>
     <use style="fill:#98df8a;stroke:#ffffff;stroke-linejoin:miter;stroke-width:0.75;" x="441.784052" xlink:href="#mf4bcc750f8" y="83.396802"/>
     <use style="fill:#98df8a;stroke:#ffffff;stroke-linejoin:miter;stroke-width:0.75;" x="448.919316" xlink:href="#mf4bcc750f8" y="82.85255"/>
     <use style="fill:#98df8a;stroke:#ffffff;stroke-linejoin:miter;stroke-width:0.75;" x="456.054581" xlink:href="#mf4bcc750f8" y="82.716487"/>
     <use style="fill:#98df8a;stroke:#ffffff;stroke-linejoin:miter;stroke-width:0.75;" x="463.189846" xlink:href="#mf4bcc750f8" y="82.172235"/>
     <use style="fill:#98df8a;stroke:#ffffff;stroke-linejoin:miter;stroke-width:0.75;" x="470.325111" xlink:href="#mf4bcc750f8" y="80.267353"/>
     <use style="fill:#98df8a;stroke:#ffffff;stroke-linejoin:miter;stroke-width:0.75;" x="477.460375" xlink:href="#mf4bcc750f8" y="79.314912"/>
     <use style="fill:#98df8a;stroke:#ffffff;stroke-linejoin:miter;stroke-width:0.75;" x="484.59564" xlink:href="#mf4bcc750f8" y="77.682156"/>
     <use style="fill:#98df8a;stroke:#ffffff;stroke-linejoin:miter;stroke-width:0.75;" x="491.730905" xlink:href="#mf4bcc750f8" y="77.682156"/>
     <use style="fill:#98df8a;stroke:#ffffff;stroke-linejoin:miter;stroke-width:0.75;" x="498.866169" xlink:href="#mf4bcc750f8" y="77.682156"/>
     <use style="fill:#98df8a;stroke:#ffffff;stroke-linejoin:miter;stroke-width:0.75;" x="506.001434" xlink:href="#mf4bcc750f8" y="77.137905"/>
     <use style="fill:#98df8a;stroke:#ffffff;stroke-linejoin:miter;stroke-width:0.75;" x="513.136699" xlink:href="#mf4bcc750f8" y="76.729716"/>
     <use style="fill:#98df8a;stroke:#ffffff;stroke-linejoin:miter;stroke-width:0.75;" x="520.271964" xlink:href="#mf4bcc750f8" y="76.729716"/>
     <use style="fill:#98df8a;stroke:#ffffff;stroke-linejoin:miter;stroke-width:0.75;" x="527.407228" xlink:href="#mf4bcc750f8" y="76.049401"/>
     <use style="fill:#98df8a;stroke:#ffffff;stroke-linejoin:miter;stroke-width:0.75;" x="534.542493" xlink:href="#mf4bcc750f8" y="75.641212"/>
     <use style="fill:#98df8a;stroke:#ffffff;stroke-linejoin:miter;stroke-width:0.75;" x="541.677758" xlink:href="#mf4bcc750f8" y="75.369086"/>
     <use style="fill:#98df8a;stroke:#ffffff;stroke-linejoin:miter;stroke-width:0.75;" x="548.813023" xlink:href="#mf4bcc750f8" y="75.233023"/>
     <use style="fill:#98df8a;stroke:#ffffff;stroke-linejoin:miter;stroke-width:0.75;" x="555.948287" xlink:href="#mf4bcc750f8" y="74.960897"/>
     <use style="fill:#98df8a;stroke:#ffffff;stroke-linejoin:miter;stroke-width:0.75;" x="563.083552" xlink:href="#mf4bcc750f8" y="74.280582"/>
     <use style="fill:#98df8a;stroke:#ffffff;stroke-linejoin:miter;stroke-width:0.75;" x="570.218817" xlink:href="#mf4bcc750f8" y="74.144519"/>
     <use style="fill:#98df8a;stroke:#ffffff;stroke-linejoin:miter;stroke-width:0.75;" x="577.354082" xlink:href="#mf4bcc750f8" y="73.056015"/>
     <use style="fill:#98df8a;stroke:#ffffff;stroke-linejoin:miter;stroke-width:0.75;" x="584.489346" xlink:href="#mf4bcc750f8" y="72.783889"/>
     <use style="fill:#98df8a;stroke:#ffffff;stroke-linejoin:miter;stroke-width:0.75;" x="591.624611" xlink:href="#mf4bcc750f8" y="72.647826"/>
     <use style="fill:#98df8a;stroke:#ffffff;stroke-linejoin:miter;stroke-width:0.75;" x="598.759876" xlink:href="#mf4bcc750f8" y="72.647826"/>
     <use style="fill:#98df8a;stroke:#ffffff;stroke-linejoin:miter;stroke-width:0.75;" x="605.89514" xlink:href="#mf4bcc750f8" y="72.647826"/>
     <use style="fill:#98df8a;stroke:#ffffff;stroke-linejoin:miter;stroke-width:0.75;" x="613.030405" xlink:href="#mf4bcc750f8" y="72.103574"/>
     <use style="fill:#98df8a;stroke:#ffffff;stroke-linejoin:miter;stroke-width:0.75;" x="620.16567" xlink:href="#mf4bcc750f8" y="71.01507"/>
     <use style="fill:#98df8a;stroke:#ffffff;stroke-linejoin:miter;stroke-width:0.75;" x="627.300935" xlink:href="#mf4bcc750f8" y="70.742944"/>
     <use style="fill:#98df8a;stroke:#ffffff;stroke-linejoin:miter;stroke-width:0.75;" x="634.436199" xlink:href="#mf4bcc750f8" y="70.606881"/>
     <use style="fill:#98df8a;stroke:#ffffff;stroke-linejoin:miter;stroke-width:0.75;" x="641.571464" xlink:href="#mf4bcc750f8" y="70.198692"/>
     <use style="fill:#98df8a;stroke:#ffffff;stroke-linejoin:miter;stroke-width:0.75;" x="648.706729" xlink:href="#mf4bcc750f8" y="70.198692"/>
     <use style="fill:#98df8a;stroke:#ffffff;stroke-linejoin:miter;stroke-width:0.75;" x="655.841994" xlink:href="#mf4bcc750f8" y="69.790503"/>
     <use style="fill:#98df8a;stroke:#ffffff;stroke-linejoin:miter;stroke-width:0.75;" x="662.977258" xlink:href="#mf4bcc750f8" y="69.65444"/>
     <use style="fill:#98df8a;stroke:#ffffff;stroke-linejoin:miter;stroke-width:0.75;" x="670.112523" xlink:href="#mf4bcc750f8" y="69.246251"/>
     <use style="fill:#98df8a;stroke:#ffffff;stroke-linejoin:miter;stroke-width:0.75;" x="677.247788" xlink:href="#mf4bcc750f8" y="68.701999"/>
     <use style="fill:#98df8a;stroke:#ffffff;stroke-linejoin:miter;stroke-width:0.75;" x="684.383053" xlink:href="#mf4bcc750f8" y="68.701999"/>
     <use style="fill:#98df8a;stroke:#ffffff;stroke-linejoin:miter;stroke-width:0.75;" x="691.518317" xlink:href="#mf4bcc750f8" y="68.565936"/>
     <use style="fill:#98df8a;stroke:#ffffff;stroke-linejoin:miter;stroke-width:0.75;" x="698.653582" xlink:href="#mf4bcc750f8" y="68.429873"/>
     <use style="fill:#98df8a;stroke:#ffffff;stroke-linejoin:miter;stroke-width:0.75;" x="705.788847" xlink:href="#mf4bcc750f8" y="67.885621"/>
     <use style="fill:#98df8a;stroke:#ffffff;stroke-linejoin:miter;stroke-width:0.75;" x="712.924112" xlink:href="#mf4bcc750f8" y="67.477432"/>
     <use style="fill:#98df8a;stroke:#ffffff;stroke-linejoin:miter;stroke-width:0.75;" x="720.059376" xlink:href="#mf4bcc750f8" y="67.341369"/>
     <use style="fill:#98df8a;stroke:#ffffff;stroke-linejoin:miter;stroke-width:0.75;" x="727.194641" xlink:href="#mf4bcc750f8" y="66.252865"/>
     <use style="fill:#98df8a;stroke:#ffffff;stroke-linejoin:miter;stroke-width:0.75;" x="734.329906" xlink:href="#mf4bcc750f8" y="65.980739"/>
     <use style="fill:#98df8a;stroke:#ffffff;stroke-linejoin:miter;stroke-width:0.75;" x="741.46517" xlink:href="#mf4bcc750f8" y="65.980739"/>
    </g>
   </g>
   <g id="line2d_20"/>
   <g id="line2d_21"/>
   <g id="line2d_22">
    <path clip-path="url(#pb61af1ddc1)" d="M 741.46517 288.430125 
L 741.46517 22.318125 
" style="fill:none;stroke:#ff0000;stroke-linecap:square;stroke-width:1.5;"/>
   </g>
   <g id="patch_3">
    <path d="M 59.690625 282.865149 
L 59.690625 65.164361 
" style="fill:none;stroke:#000000;stroke-linecap:square;stroke-linejoin:miter;stroke-width:0.8;"/>
   </g>
   <g id="patch_4">
    <path d="M 92.15608 288.430125 
L 693.896739 288.430125 
" style="fill:none;stroke:#000000;stroke-linecap:square;stroke-linejoin:miter;stroke-width:0.8;"/>
   </g>
   <g id="text_20">
    <!-- libxslt_xpath (23h, 10 trials/fuzzer) -->
    <g transform="translate(312.050625 16.318125)scale(0.12 -0.12)">
     <defs>
      <path d="M 603 4863 
L 1178 4863 
L 1178 0 
L 603 0 
L 603 4863 
z
" id="DejaVuSans-6c" transform="scale(0.015625)"/>
      <path d="M 3513 3500 
L 2247 1797 
L 3578 0 
L 2900 0 
L 1881 1375 
L 863 0 
L 184 0 
L 1544 1831 
L 300 3500 
L 978 3500 
L 1906 2253 
L 2834 3500 
L 3513 3500 
z
" id="DejaVuSans-78" transform="scale(0.015625)"/>
      <path d="M 2834 3397 
L 2834 2853 
Q 2591 2978 2328 3040 
Q 2066 3103 1784 3103 
Q 1356 3103 1142 2972 
Q 928 2841 928 2578 
Q 928 2378 1081 2264 
Q 1234 2150 1697 2047 
L 1894 2003 
Q 2506 1872 2764 1633 
Q 3022 1394 3022 966 
Q 3022 478 2636 193 
Q 2250 -91 1575 -91 
Q 1294 -91 989 -36 
Q 684 19 347 128 
L 347 722 
Q 666 556 975 473 
Q 1284 391 1588 391 
Q 1994 391 2212 530 
Q 2431 669 2431 922 
Q 2431 1156 2273 1281 
Q 2116 1406 1581 1522 
L 1381 1569 
Q 847 1681 609 1914 
Q 372 2147 372 2553 
Q 372 3047 722 3315 
Q 1072 3584 1716 3584 
Q 2034 3584 2315 3537 
Q 2597 3491 2834 3397 
z
" id="DejaVuSans-73" transform="scale(0.015625)"/>
      <path d="M 3263 -1063 
L 3263 -1509 
L -63 -1509 
L -63 -1063 
L 3263 -1063 
z
" id="DejaVuSans-5f" transform="scale(0.015625)"/>
      <path d="M 1159 525 
L 1159 -1331 
L 581 -1331 
L 581 3500 
L 1159 3500 
L 1159 2969 
Q 1341 3281 1617 3432 
Q 1894 3584 2278 3584 
Q 2916 3584 3314 3078 
Q 3713 2572 3713 1747 
Q 3713 922 3314 415 
Q 2916 -91 2278 -91 
Q 1894 -91 1617 61 
Q 1341 213 1159 525 
z
M 3116 1747 
Q 3116 2381 2855 2742 
Q 2594 3103 2138 3103 
Q 1681 3103 1420 2742 
Q 1159 2381 1159 1747 
Q 1159 1113 1420 752 
Q 1681 391 2138 391 
Q 2594 391 2855 752 
Q 3116 1113 3116 1747 
z
" id="DejaVuSans-70" transform="scale(0.015625)"/>
      <path d="M 750 794 
L 1409 794 
L 1409 256 
L 897 -744 
L 494 -744 
L 750 256 
L 750 794 
z
" id="DejaVuSans-2c" transform="scale(0.015625)"/>
      <path d="M 1625 4666 
L 2156 4666 
L 531 -594 
L 0 -594 
L 1625 4666 
z
" id="DejaVuSans-2f" transform="scale(0.015625)"/>
      <path d="M 2375 4863 
L 2375 4384 
L 1825 4384 
Q 1516 4384 1395 4259 
Q 1275 4134 1275 3809 
L 1275 3500 
L 2222 3500 
L 2222 3053 
L 1275 3053 
L 1275 0 
L 697 0 
L 697 3053 
L 147 3053 
L 147 3500 
L 697 3500 
L 697 3744 
Q 697 4328 969 4595 
Q 1241 4863 1831 4863 
L 2375 4863 
z
" id="DejaVuSans-66" transform="scale(0.015625)"/>
      <path d="M 353 3500 
L 3084 3500 
L 3084 2975 
L 922 459 
L 3084 459 
L 3084 0 
L 275 0 
L 275 525 
L 2438 3041 
L 353 3041 
L 353 3500 
z
" id="DejaVuSans-7a" transform="scale(0.015625)"/>
     </defs>
     <use xlink:href="#DejaVuSans-6c"/>
     <use x="27.783203" xlink:href="#DejaVuSans-69"/>
     <use x="55.566406" xlink:href="#DejaVuSans-62"/>
     <use x="119.042969" xlink:href="#DejaVuSans-78"/>
     <use x="178.222656" xlink:href="#DejaVuSans-73"/>
     <use x="230.322266" xlink:href="#DejaVuSans-6c"/>
     <use x="258.105469" xlink:href="#DejaVuSans-74"/>
     <use x="297.314453" xlink:href="#DejaVuSans-5f"/>
     <use x="347.314453" xlink:href="#DejaVuSans-78"/>
     <use x="406.494141" xlink:href="#DejaVuSans-70"/>
     <use x="469.970703" xlink:href="#DejaVuSans-61"/>
     <use x="531.25" xlink:href="#DejaVuSans-74"/>
     <use x="570.458984" xlink:href="#DejaVuSans-68"/>
     <use x="633.837891" xlink:href="#DejaVuSans-20"/>
     <use x="665.625" xlink:href="#DejaVuSans-28"/>
     <use x="704.638672" xlink:href="#DejaVuSans-32"/>
     <use x="768.261719" xlink:href="#DejaVuSans-33"/>
     <use x="831.884766" xlink:href="#DejaVuSans-68"/>
     <use x="895.263672" xlink:href="#DejaVuSans-2c"/>
     <use x="927.050781" xlink:href="#DejaVuSans-20"/>
     <use x="958.837891" xlink:href="#DejaVuSans-31"/>
     <use x="1022.460938" xlink:href="#DejaVuSans-30"/>
     <use x="1086.083984" xlink:href="#DejaVuSans-20"/>
     <use x="1117.871094" xlink:href="#DejaVuSans-74"/>
     <use x="1157.080078" xlink:href="#DejaVuSans-72"/>
     <use x="1198.193359" xlink:href="#DejaVuSans-69"/>
     <use x="1225.976562" xlink:href="#DejaVuSans-61"/>
     <use x="1287.255859" xlink:href="#DejaVuSans-6c"/>
     <use x="1315.039062" xlink:href="#DejaVuSans-73"/>
     <use x="1367.138672" xlink:href="#DejaVuSans-2f"/>
     <use x="1400.830078" xlink:href="#DejaVuSans-66"/>
     <use x="1436.035156" xlink:href="#DejaVuSans-75"/>
     <use x="1499.414062" xlink:href="#DejaVuSans-7a"/>
     <use x="1551.904297" xlink:href="#DejaVuSans-7a"/>
     <use x="1604.394531" xlink:href="#DejaVuSans-65"/>
     <use x="1665.917969" xlink:href="#DejaVuSans-72"/>
     <use x="1707.03125" xlink:href="#DejaVuSans-29"/>
    </g>
   </g>
   <g id="legend_1">
    <g id="line2d_23">
     <path d="M 777.930625 30.416563 
L 797.930625 30.416563 
" style="fill:none;stroke:#1f77b4;stroke-linecap:square;stroke-width:1.5;"/>
    </g>
    <g id="line2d_24">
     <defs>
      <path d="M 0 3 
C 0.795609 3 1.55874 2.683901 2.12132 2.12132 
C 2.683901 1.55874 3 0.795609 3 0 
C 3 -0.795609 2.683901 -1.55874 2.12132 -2.12132 
C 1.55874 -2.683901 0.795609 -3 0 -3 
C -0.795609 -3 -1.55874 -2.683901 -2.12132 -2.12132 
C -2.683901 -1.55874 -3 -0.795609 -3 0 
C -3 0.795609 -2.683901 1.55874 -2.12132 2.12132 
C -1.55874 2.683901 -0.795609 3 0 3 
z
" id="mc0c1e4ce8c" style="stroke:#1f77b4;"/>
     </defs>
     <g>
      <use style="fill:#1f77b4;stroke:#1f77b4;" x="787.930625" xlink:href="#mc0c1e4ce8c" y="30.416563"/>
     </g>
    </g>
    <g id="text_21">
     <!-- libfuzzer_two_workers -->
     <g transform="translate(805.930625 33.916563)scale(0.1 -0.1)">
      <defs>
       <path d="M 269 3500 
L 844 3500 
L 1563 769 
L 2278 3500 
L 2956 3500 
L 3675 769 
L 4391 3500 
L 4966 3500 
L 4050 0 
L 3372 0 
L 2619 2869 
L 1863 0 
L 1184 0 
L 269 3500 
z
" id="DejaVuSans-77" transform="scale(0.015625)"/>
       <path d="M 581 4863 
L 1159 4863 
L 1159 1991 
L 2875 3500 
L 3609 3500 
L 1753 1863 
L 3688 0 
L 2938 0 
L 1159 1709 
L 1159 0 
L 581 0 
L 581 4863 
z
" id="DejaVuSans-6b" transform="scale(0.015625)"/>
      </defs>
      <use xlink:href="#DejaVuSans-6c"/>
      <use x="27.783203" xlink:href="#DejaVuSans-69"/>
      <use x="55.566406" xlink:href="#DejaVuSans-62"/>
      <use x="119.042969" xlink:href="#DejaVuSans-66"/>
      <use x="154.248047" xlink:href="#DejaVuSans-75"/>
      <use x="217.626953" xlink:href="#DejaVuSans-7a"/>
      <use x="270.117188" xlink:href="#DejaVuSans-7a"/>
      <use x="322.607422" xlink:href="#DejaVuSans-65"/>
      <use x="384.130859" xlink:href="#DejaVuSans-72"/>
      <use x="425.244141" xlink:href="#DejaVuSans-5f"/>
      <use x="475.244141" xlink:href="#DejaVuSans-74"/>
      <use x="514.453125" xlink:href="#DejaVuSans-77"/>
      <use x="596.240234" xlink:href="#DejaVuSans-6f"/>
      <use x="657.421875" xlink:href="#DejaVuSans-5f"/>
      <use x="707.421875" xlink:href="#DejaVuSans-77"/>
      <use x="789.208984" xlink:href="#DejaVuSans-6f"/>
      <use x="850.390625" xlink:href="#DejaVuSans-72"/>
      <use x="891.503906" xlink:href="#DejaVuSans-6b"/>
      <use x="945.789062" xlink:href="#DejaVuSans-65"/>
      <use x="1007.3125" xlink:href="#DejaVuSans-72"/>
      <use x="1048.425781" xlink:href="#DejaVuSans-73"/>
     </g>
    </g>
    <g id="line2d_25">
     <path d="M 777.930625 45.372813 
L 797.930625 45.372813 
" style="fill:none;stroke:#98df8a;stroke-linecap:square;stroke-width:1.5;"/>
    </g>
    <g id="line2d_26">
     <defs>
      <path d="M -0 3 
L 3 -3 
L -3 -3 
z
" id="mce34e048b7" style="stroke:#98df8a;stroke-linejoin:miter;"/>
     </defs>
     <g>
      <use style="fill:#98df8a;stroke:#98df8a;stroke-linejoin:miter;" x="787.930625" xlink:href="#mce34e048b7" y="45.372813"/>
     </g>
    </g>
    <g id="text_22">
     <!-- sydr_libfuzzer -->
     <g transform="translate(805.930625 48.872813)scale(0.1 -0.1)">
      <defs>
       <path d="M 2059 -325 
Q 1816 -950 1584 -1140 
Q 1353 -1331 966 -1331 
L 506 -1331 
L 506 -850 
L 844 -850 
Q 1081 -850 1212 -737 
Q 1344 -625 1503 -206 
L 1606 56 
L 191 3500 
L 800 3500 
L 1894 763 
L 2988 3500 
L 3597 3500 
L 2059 -325 
z
" id="DejaVuSans-79" transform="scale(0.015625)"/>
      </defs>
      <use xlink:href="#DejaVuSans-73"/>
      <use x="52.099609" xlink:href="#DejaVuSans-79"/>
      <use x="111.279297" xlink:href="#DejaVuSans-64"/>
      <use x="174.755859" xlink:href="#DejaVuSans-72"/>
      <use x="215.869141" xlink:href="#DejaVuSans-5f"/>
      <use x="265.869141" xlink:href="#DejaVuSans-6c"/>
      <use x="293.652344" xlink:href="#DejaVuSans-69"/>
      <use x="321.435547" xlink:href="#DejaVuSans-62"/>
      <use x="384.912109" xlink:href="#DejaVuSans-66"/>
      <use x="420.117188" xlink:href="#DejaVuSans-75"/>
      <use x="483.496094" xlink:href="#DejaVuSans-7a"/>
      <use x="535.986328" xlink:href="#DejaVuSans-7a"/>
      <use x="588.476562" xlink:href="#DejaVuSans-65"/>
      <use x="650" xlink:href="#DejaVuSans-72"/>
     </g>
    </g>
   </g>
  </g>
 </g>
 <defs>
  <clipPath id="pb61af1ddc1">
   <rect height="266.112" width="714.24" x="59.690625" y="22.318125"/>
  </clipPath>
 </defs>
</svg>
