<?xml version="1.0" encoding="utf-8" standalone="no"?>
<!DOCTYPE svg PUBLIC "-//W3C//DTD SVG 1.1//EN"
  "http://www.w3.org/Graphics/SVG/1.1/DTD/svg11.dtd">
<svg height="325.986375pt" version="1.1" viewBox="0 0 923.680625 325.986375" width="923.680625pt" xmlns="http://www.w3.org/2000/svg" xmlns:xlink="http://www.w3.org/1999/xlink">
 <metadata>
  <rdf:RDF xmlns:cc="http://creativecommons.org/ns#" xmlns:dc="http://purl.org/dc/elements/1.1/" xmlns:rdf="http://www.w3.org/1999/02/22-rdf-syntax-ns#">
   <cc:Work>
    <dc:type rdf:resource="http://purl.org/dc/dcmitype/StillImage"/>
    <dc:date>2022-10-24T21:02:36.245714</dc:date>
    <dc:format>image/svg+xml</dc:format>
    <dc:creator>
     <cc:Agent>
      <dc:title>Matplotlib v3.4.1, https://matplotlib.org/</dc:title>
     </cc:Agent>
    </dc:creator>
   </cc:Work>
  </rdf:RDF>
 </metadata>
 <defs>
  <style type="text/css">*{stroke-linecap:butt;stroke-linejoin:round;}</style>
 </defs>
 <g id="figure_1">
  <g id="patch_1">
   <path d="M 0 325.986375 
L 923.680625 325.986375 
L 923.680625 0 
L 0 0 
z
" style="fill:#ffffff;"/>
  </g>
  <g id="axes_1">
   <g id="patch_2">
    <path d="M 53.328125 288.430125 
L 767.568125 288.430125 
L 767.568125 22.318125 
L 53.328125 22.318125 
z
" style="fill:#ffffff;"/>
   </g>
   <g id="PolyCollection_1">
    <defs>
     <path d="M 85.79358 -96.925159 
L 85.79358 -56.328614 
L 92.928844 -94.488614 
L 100.064109 -111.834068 
L 107.199374 -120.539523 
L 114.334638 -128.102795 
L 121.469903 -132.059523 
L 128.605168 -133.499523 
L 135.740433 -135.135886 
L 142.875697 -146.655886 
L 150.010962 -154.05225 
L 157.146227 -164.001341 
L 164.281492 -167.928614 
L 171.416756 -174.801341 
L 178.552021 -173.426795 
L 185.687286 -177.09225 
L 192.822551 -180.757705 
L 199.957815 -178.924977 
L 207.09308 -180.430432 
L 214.228345 -180.823159 
L 221.36361 -180.364977 
L 228.498874 -188.316068 
L 235.634139 -194.764977 
L 242.769404 -189.33225 
L 249.904668 -198.430432 
L 257.039933 -187.041341 
L 264.175198 -200.394068 
L 271.310463 -187.695886 
L 278.445727 -200.655886 
L 285.580992 -206.415886 
L 292.716257 -207.33225 
L 299.851522 -208.248614 
L 306.986786 -208.899886 
L 314.122051 -209.557705 
L 321.257316 -209.688614 
L 328.392581 -210.343159 
L 335.527845 -210.343159 
L 342.66311 -210.343159 
L 349.798375 -210.604977 
L 356.933639 -210.604977 
L 364.068904 -210.735886 
L 371.204169 -210.735886 
L 378.339434 -211.128614 
L 385.474698 -210.93225 
L 392.609963 -211.128614 
L 399.745228 -211.128614 
L 406.880493 -212.306795 
L 414.015757 -213.223159 
L 421.151022 -214.008614 
L 428.286287 -217.543159 
L 435.421552 -217.674068 
L 442.556816 -217.674068 
L 449.692081 -216.364977 
L 456.827346 -219.244977 
L 463.962611 -219.637705 
L 471.097875 -219.637705 
L 478.23314 -219.637705 
L 485.368405 -219.637705 
L 492.503669 -219.637705 
L 499.638934 -219.768614 
L 506.774199 -219.768614 
L 513.909464 -219.768614 
L 521.044728 -219.768614 
L 528.179993 -219.899523 
L 535.315258 -219.899523 
L 542.450523 -220.161341 
L 549.585787 -220.161341 
L 556.721052 -221.274068 
L 563.856317 -221.274068 
L 570.991582 -221.339523 
L 578.126846 -221.339523 
L 585.262111 -222.124977 
L 592.397376 -222.124977 
L 599.53264 -221.404977 
L 606.667905 -222.124977 
L 613.80317 -222.124977 
L 620.938435 -221.404977 
L 628.073699 -221.404977 
L 635.208964 -221.404977 
L 642.344229 -222.124977 
L 649.479494 -222.124977 
L 656.614758 -220.946795 
L 663.750023 -221.404977 
L 670.885288 -221.470432 
L 678.020553 -221.470432 
L 685.155817 -222.517705 
L 692.291082 -222.517705 
L 699.426347 -221.601341 
L 706.561612 -222.321341 
L 713.696876 -222.517705 
L 720.832141 -222.517705 
L 727.967406 -222.321341 
L 735.10267 -222.321341 
L 735.10267 -290.917705 
L 735.10267 -290.917705 
L 727.967406 -284.961341 
L 720.832141 -286.888977 
L 713.696876 -290.263159 
L 706.561612 -290.263159 
L 699.426347 -290.263159 
L 692.291082 -289.477705 
L 685.155817 -289.477705 
L 678.020553 -291.57225 
L 670.885288 -289.150432 
L 663.750023 -289.084977 
L 656.614758 -285.818795 
L 649.479494 -285.746795 
L 642.344229 -285.496432 
L 635.208964 -288.495886 
L 628.073699 -285.419523 
L 620.938435 -286.859523 
L 613.80317 -283.521341 
L 606.667905 -283.521341 
L 599.53264 -283.52625 
L 592.397376 -283.521341 
L 585.262111 -283.521341 
L 578.126846 -283.521341 
L 570.991582 -283.128614 
L 563.856317 -283.128614 
L 556.721052 -283.128614 
L 549.585787 -283.128614 
L 542.450523 -283.128614 
L 535.315258 -283.128614 
L 528.179993 -282.866795 
L 521.044728 -282.735886 
L 513.909464 -282.735886 
L 506.774199 -282.604977 
L 499.638934 -282.604977 
L 492.503669 -282.604977 
L 485.368405 -282.220432 
L 478.23314 -282.21225 
L 471.097875 -279.33225 
L 463.962611 -279.33225 
L 456.827346 -278.808614 
L 449.692081 -278.284977 
L 442.556816 -277.761341 
L 435.421552 -278.088614 
L 428.286287 -277.237705 
L 421.151022 -277.106795 
L 414.015757 -277.761341 
L 406.880493 -276.975886 
L 399.745228 -276.321341 
L 392.609963 -276.321341 
L 385.474698 -276.386795 
L 378.339434 -277.17225 
L 371.204169 -276.322977 
L 364.068904 -274.750432 
L 356.933639 -274.095886 
L 349.798375 -274.095886 
L 342.66311 -274.488614 
L 335.527845 -274.29225 
L 328.392581 -273.441341 
L 321.257316 -273.703159 
L 314.122051 -273.441341 
L 306.986786 -272.263159 
L 299.851522 -269.644977 
L 292.716257 -269.25225 
L 285.580992 -269.25225 
L 278.445727 -269.25225 
L 271.310463 -267.288614 
L 264.175198 -254.001341 
L 257.039933 -250.416068 
L 249.904668 -252.561341 
L 242.769404 -247.455886 
L 235.634139 -247.586795 
L 228.498874 -236.655886 
L 221.36361 -231.681341 
L 214.228345 -242.939523 
L 207.09308 -241.434068 
L 199.957815 -239.863159 
L 192.822551 -239.077705 
L 185.687286 -238.881341 
L 178.552021 -230.681523 
L 171.416756 -237.310432 
L 164.281492 -222.583159 
L 157.146227 -221.73225 
L 150.010962 -218.13225 
L 142.875697 -230.699523 
L 135.740433 -227.819523 
L 128.605168 -224.023159 
L 121.469903 -202.881341 
L 114.334638 -193.324977 
L 107.199374 -193.783159 
L 100.064109 -168.975886 
L 92.928844 -142.139523 
L 85.79358 -96.925159 
z
" id="mf40fcf0143" style="stroke:#1f77b4;stroke-opacity:0.2;"/>
    </defs>
    <g clip-path="url(#pdcd4cb78be)">
     <use style="fill:#1f77b4;fill-opacity:0.2;stroke:#1f77b4;stroke-opacity:0.2;" x="0" xlink:href="#mf40fcf0143" y="325.986375"/>
    </g>
   </g>
   <g id="PolyCollection_2">
    <defs>
     <path d="M 85.79358 -67.063159 
L 85.79358 -49.65225 
L 92.928844 -82.968614 
L 100.064109 -102.474068 
L 107.199374 -117.790432 
L 114.334638 -124.466795 
L 121.469903 -126.168614 
L 128.605168 -130.030432 
L 135.740433 -131.666795 
L 142.875697 -135.463159 
L 150.010962 -140.038432 
L 157.146227 -142.859523 
L 164.281492 -143.579523 
L 171.416756 -144.757705 
L 178.552021 -155.120795 
L 185.687286 -158.503159 
L 192.822551 -158.895886 
L 199.957815 -165.549341 
L 207.09308 -165.637705 
L 214.228345 -165.703159 
L 221.36361 -171.724977 
L 228.498874 -172.248614 
L 235.634139 -173.034068 
L 242.769404 -168.118432 
L 249.904668 -168.386795 
L 257.039933 -174.21225 
L 264.175198 -174.21225 
L 271.310463 -175.259523 
L 278.445727 -176.044977 
L 285.580992 -176.175886 
L 292.716257 -176.306795 
L 299.851522 -177.09225 
L 306.986786 -177.09225 
L 314.122051 -177.09225 
L 321.257316 -194.437705 
L 328.392581 -197.829886 
L 335.527845 -195.223159 
L 342.66311 -203.58825 
L 349.798375 -200.13225 
L 356.933639 -196.074068 
L 364.068904 -201.114068 
L 371.204169 -200.871886 
L 378.339434 -196.597705 
L 385.474698 -196.597705 
L 392.609963 -196.859523 
L 399.745228 -196.990432 
L 406.880493 -197.186795 
L 414.015757 -196.728614 
L 421.151022 -197.317705 
L 428.286287 -201.768614 
L 435.421552 -196.794068 
L 442.556816 -202.161341 
L 449.692081 -198.070432 
L 456.827346 -202.190795 
L 463.962611 -198.234068 
L 471.097875 -198.299523 
L 478.23314 -198.626795 
L 485.368405 -202.684977 
L 492.503669 -215.186795 
L 499.638934 -205.826795 
L 506.774199 -215.317705 
L 513.909464 -215.082068 
L 521.044728 -200.328614 
L 528.179993 -206.088614 
L 535.315258 -201.964977 
L 542.450523 -201.927341 
L 549.585787 -201.964977 
L 556.721052 -214.987159 
L 563.856317 -202.095886 
L 570.991582 -202.095886 
L 578.126846 -202.095886 
L 585.262111 -202.554068 
L 592.397376 -215.710432 
L 599.53264 -217.543159 
L 606.667905 -218.197705 
L 613.80317 -202.684977 
L 620.938435 -218.197705 
L 628.073699 -217.813159 
L 635.208964 -203.077705 
L 642.344229 -217.950614 
L 649.479494 -218.328614 
L 656.614758 -218.328614 
L 663.750023 -203.535886 
L 670.885288 -203.601341 
L 678.020553 -203.535886 
L 685.155817 -203.601341 
L 692.291082 -218.356432 
L 699.426347 -218.356432 
L 706.561612 -218.721341 
L 713.696876 -218.358068 
L 720.832141 -204.255886 
L 727.967406 -203.928614 
L 735.10267 -204.583159 
L 735.10267 -275.666795 
L 735.10267 -275.666795 
L 727.967406 -274.755341 
L 720.832141 -274.815886 
L 713.696876 -274.750432 
L 706.561612 -274.750432 
L 699.426347 -274.815886 
L 692.291082 -274.095886 
L 685.155817 -273.834068 
L 678.020553 -273.57225 
L 670.885288 -274.488614 
L 663.750023 -274.29225 
L 656.614758 -273.57225 
L 649.479494 -274.29225 
L 642.344229 -273.57225 
L 635.208964 -273.57225 
L 628.073699 -274.815886 
L 620.938435 -274.815886 
L 613.80317 -273.57225 
L 606.667905 -273.899523 
L 599.53264 -273.834068 
L 592.397376 -273.703159 
L 585.262111 -273.447886 
L 578.126846 -273.441341 
L 570.991582 -274.488614 
L 563.856317 -274.423159 
L 556.721052 -273.637705 
L 549.585787 -273.310432 
L 542.450523 -274.423159 
L 535.315258 -273.637705 
L 528.179993 -273.57225 
L 521.044728 -273.310432 
L 513.909464 -273.375886 
L 506.774199 -273.375886 
L 499.638934 -273.375886 
L 492.503669 -273.179523 
L 485.368405 -273.048614 
L 478.23314 -273.073159 
L 471.097875 -272.655886 
L 463.962611 -272.655886 
L 456.827346 -272.655886 
L 449.692081 -271.084977 
L 442.556816 -271.084977 
L 435.421552 -270.430432 
L 428.286287 -270.430432 
L 421.151022 -270.299523 
L 414.015757 -267.288614 
L 406.880493 -265.063159 
L 399.745228 -264.801341 
L 392.609963 -264.801341 
L 385.474698 -264.539523 
L 378.339434 -261.921341 
L 371.204169 -261.921341 
L 364.068904 -261.659523 
L 356.933639 -261.528614 
L 349.798375 -260.874068 
L 342.66311 -260.874068 
L 335.527845 -260.874068 
L 328.392581 -259.826795 
L 321.257316 -226.05225 
L 314.122051 -246.015886 
L 306.986786 -225.752795 
L 299.851522 -237.834068 
L 292.716257 -238.357705 
L 285.580992 -235.777159 
L 278.445727 -237.964977 
L 271.310463 -237.441341 
L 264.175198 -225.001705 
L 257.039933 -234.954068 
L 249.904668 -233.579523 
L 242.769404 -234.757705 
L 235.634139 -236.001341 
L 228.498874 -220.226795 
L 221.36361 -216.757705 
L 214.228345 -214.270432 
L 207.09308 -214.008614 
L 199.957815 -215.644977 
L 192.822551 -215.186795 
L 185.687286 -214.53225 
L 178.552021 -210.081341 
L 171.416756 -206.939523 
L 164.281492 -204.321341 
L 157.146227 -185.863159 
L 150.010962 -173.884977 
L 142.875697 -170.61225 
L 135.740433 -169.041341 
L 128.605168 -164.917705 
L 121.469903 -152.350432 
L 114.334638 -155.034068 
L 107.199374 -149.601341 
L 100.064109 -124.074068 
L 92.928844 -102.866795 
L 85.79358 -67.063159 
z
" id="m7a5a2109c5" style="stroke:#98df8a;stroke-opacity:0.2;"/>
    </defs>
    <g clip-path="url(#pdcd4cb78be)">
     <use style="fill:#98df8a;fill-opacity:0.2;stroke:#98df8a;stroke-opacity:0.2;" x="0" xlink:href="#m7a5a2109c5" y="325.986375"/>
    </g>
   </g>
   <g id="matplotlib.axis_1">
    <g id="xtick_1">
     <g id="line2d_1">
      <defs>
       <path d="M 0 0 
L 0 3.5 
" id="mc41f4f54b4" style="stroke:#000000;stroke-width:0.8;"/>
      </defs>
      <g>
       <use style="stroke:#000000;stroke-width:0.8;" x="85.79358" xlink:href="#mc41f4f54b4" y="288.430125"/>
      </g>
     </g>
     <g id="text_1">
      <!-- 15m -->
      <g transform="translate(74.560767 303.028562)scale(0.1 -0.1)">
       <defs>
        <path d="M 794 531 
L 1825 531 
L 1825 4091 
L 703 3866 
L 703 4441 
L 1819 4666 
L 2450 4666 
L 2450 531 
L 3481 531 
L 3481 0 
L 794 0 
L 794 531 
z
" id="DejaVuSans-31" transform="scale(0.015625)"/>
        <path d="M 691 4666 
L 3169 4666 
L 3169 4134 
L 1269 4134 
L 1269 2991 
Q 1406 3038 1543 3061 
Q 1681 3084 1819 3084 
Q 2600 3084 3056 2656 
Q 3513 2228 3513 1497 
Q 3513 744 3044 326 
Q 2575 -91 1722 -91 
Q 1428 -91 1123 -41 
Q 819 9 494 109 
L 494 744 
Q 775 591 1075 516 
Q 1375 441 1709 441 
Q 2250 441 2565 725 
Q 2881 1009 2881 1497 
Q 2881 1984 2565 2268 
Q 2250 2553 1709 2553 
Q 1456 2553 1204 2497 
Q 953 2441 691 2322 
L 691 4666 
z
" id="DejaVuSans-35" transform="scale(0.015625)"/>
        <path d="M 3328 2828 
Q 3544 3216 3844 3400 
Q 4144 3584 4550 3584 
Q 5097 3584 5394 3201 
Q 5691 2819 5691 2113 
L 5691 0 
L 5113 0 
L 5113 2094 
Q 5113 2597 4934 2840 
Q 4756 3084 4391 3084 
Q 3944 3084 3684 2787 
Q 3425 2491 3425 1978 
L 3425 0 
L 2847 0 
L 2847 2094 
Q 2847 2600 2669 2842 
Q 2491 3084 2119 3084 
Q 1678 3084 1418 2786 
Q 1159 2488 1159 1978 
L 1159 0 
L 581 0 
L 581 3500 
L 1159 3500 
L 1159 2956 
Q 1356 3278 1631 3431 
Q 1906 3584 2284 3584 
Q 2666 3584 2933 3390 
Q 3200 3197 3328 2828 
z
" id="DejaVuSans-6d" transform="scale(0.015625)"/>
       </defs>
       <use xlink:href="#DejaVuSans-31"/>
       <use x="63.623047" xlink:href="#DejaVuSans-35"/>
       <use x="127.246094" xlink:href="#DejaVuSans-6d"/>
      </g>
     </g>
    </g>
    <g id="xtick_2">
     <g id="line2d_2">
      <g>
       <use style="stroke:#000000;stroke-width:0.8;" x="140.497276" xlink:href="#mc41f4f54b4" y="288.430125"/>
      </g>
     </g>
     <g id="text_2">
      <!-- 2h:10m -->
      <g transform="translate(121.230088 303.028562)scale(0.1 -0.1)">
       <defs>
        <path d="M 1228 531 
L 3431 531 
L 3431 0 
L 469 0 
L 469 531 
Q 828 903 1448 1529 
Q 2069 2156 2228 2338 
Q 2531 2678 2651 2914 
Q 2772 3150 2772 3378 
Q 2772 3750 2511 3984 
Q 2250 4219 1831 4219 
Q 1534 4219 1204 4116 
Q 875 4013 500 3803 
L 500 4441 
Q 881 4594 1212 4672 
Q 1544 4750 1819 4750 
Q 2544 4750 2975 4387 
Q 3406 4025 3406 3419 
Q 3406 3131 3298 2873 
Q 3191 2616 2906 2266 
Q 2828 2175 2409 1742 
Q 1991 1309 1228 531 
z
" id="DejaVuSans-32" transform="scale(0.015625)"/>
        <path d="M 3513 2113 
L 3513 0 
L 2938 0 
L 2938 2094 
Q 2938 2591 2744 2837 
Q 2550 3084 2163 3084 
Q 1697 3084 1428 2787 
Q 1159 2491 1159 1978 
L 1159 0 
L 581 0 
L 581 4863 
L 1159 4863 
L 1159 2956 
Q 1366 3272 1645 3428 
Q 1925 3584 2291 3584 
Q 2894 3584 3203 3211 
Q 3513 2838 3513 2113 
z
" id="DejaVuSans-68" transform="scale(0.015625)"/>
        <path d="M 750 794 
L 1409 794 
L 1409 0 
L 750 0 
L 750 794 
z
M 750 3309 
L 1409 3309 
L 1409 2516 
L 750 2516 
L 750 3309 
z
" id="DejaVuSans-3a" transform="scale(0.015625)"/>
        <path d="M 2034 4250 
Q 1547 4250 1301 3770 
Q 1056 3291 1056 2328 
Q 1056 1369 1301 889 
Q 1547 409 2034 409 
Q 2525 409 2770 889 
Q 3016 1369 3016 2328 
Q 3016 3291 2770 3770 
Q 2525 4250 2034 4250 
z
M 2034 4750 
Q 2819 4750 3233 4129 
Q 3647 3509 3647 2328 
Q 3647 1150 3233 529 
Q 2819 -91 2034 -91 
Q 1250 -91 836 529 
Q 422 1150 422 2328 
Q 422 3509 836 4129 
Q 1250 4750 2034 4750 
z
" id="DejaVuSans-30" transform="scale(0.015625)"/>
       </defs>
       <use xlink:href="#DejaVuSans-32"/>
       <use x="63.623047" xlink:href="#DejaVuSans-68"/>
       <use x="127.001953" xlink:href="#DejaVuSans-3a"/>
       <use x="160.693359" xlink:href="#DejaVuSans-31"/>
       <use x="224.316406" xlink:href="#DejaVuSans-30"/>
       <use x="287.939453" xlink:href="#DejaVuSans-6d"/>
      </g>
     </g>
    </g>
    <g id="xtick_3">
     <g id="line2d_3">
      <g>
       <use style="stroke:#000000;stroke-width:0.8;" x="195.200972" xlink:href="#mc41f4f54b4" y="288.430125"/>
      </g>
     </g>
     <g id="text_3">
      <!-- 4h:5m -->
      <g transform="translate(179.115035 303.028562)scale(0.1 -0.1)">
       <defs>
        <path d="M 2419 4116 
L 825 1625 
L 2419 1625 
L 2419 4116 
z
M 2253 4666 
L 3047 4666 
L 3047 1625 
L 3713 1625 
L 3713 1100 
L 3047 1100 
L 3047 0 
L 2419 0 
L 2419 1100 
L 313 1100 
L 313 1709 
L 2253 4666 
z
" id="DejaVuSans-34" transform="scale(0.015625)"/>
       </defs>
       <use xlink:href="#DejaVuSans-34"/>
       <use x="63.623047" xlink:href="#DejaVuSans-68"/>
       <use x="127.001953" xlink:href="#DejaVuSans-3a"/>
       <use x="160.693359" xlink:href="#DejaVuSans-35"/>
       <use x="224.316406" xlink:href="#DejaVuSans-6d"/>
      </g>
     </g>
    </g>
    <g id="xtick_4">
     <g id="line2d_4">
      <g>
       <use style="stroke:#000000;stroke-width:0.8;" x="249.904668" xlink:href="#mc41f4f54b4" y="288.430125"/>
      </g>
     </g>
     <g id="text_4">
      <!-- 6h -->
      <g transform="translate(243.554668 303.028562)scale(0.1 -0.1)">
       <defs>
        <path d="M 2113 2584 
Q 1688 2584 1439 2293 
Q 1191 2003 1191 1497 
Q 1191 994 1439 701 
Q 1688 409 2113 409 
Q 2538 409 2786 701 
Q 3034 994 3034 1497 
Q 3034 2003 2786 2293 
Q 2538 2584 2113 2584 
z
M 3366 4563 
L 3366 3988 
Q 3128 4100 2886 4159 
Q 2644 4219 2406 4219 
Q 1781 4219 1451 3797 
Q 1122 3375 1075 2522 
Q 1259 2794 1537 2939 
Q 1816 3084 2150 3084 
Q 2853 3084 3261 2657 
Q 3669 2231 3669 1497 
Q 3669 778 3244 343 
Q 2819 -91 2113 -91 
Q 1303 -91 875 529 
Q 447 1150 447 2328 
Q 447 3434 972 4092 
Q 1497 4750 2381 4750 
Q 2619 4750 2861 4703 
Q 3103 4656 3366 4563 
z
" id="DejaVuSans-36" transform="scale(0.015625)"/>
       </defs>
       <use xlink:href="#DejaVuSans-36"/>
       <use x="63.623047" xlink:href="#DejaVuSans-68"/>
      </g>
     </g>
    </g>
    <g id="xtick_5">
     <g id="line2d_5">
      <g>
       <use style="stroke:#000000;stroke-width:0.8;" x="304.608365" xlink:href="#mc41f4f54b4" y="288.430125"/>
      </g>
     </g>
     <g id="text_5">
      <!-- 7h:55m -->
      <g transform="translate(285.341177 303.028562)scale(0.1 -0.1)">
       <defs>
        <path d="M 525 4666 
L 3525 4666 
L 3525 4397 
L 1831 0 
L 1172 0 
L 2766 4134 
L 525 4134 
L 525 4666 
z
" id="DejaVuSans-37" transform="scale(0.015625)"/>
       </defs>
       <use xlink:href="#DejaVuSans-37"/>
       <use x="63.623047" xlink:href="#DejaVuSans-68"/>
       <use x="127.001953" xlink:href="#DejaVuSans-3a"/>
       <use x="160.693359" xlink:href="#DejaVuSans-35"/>
       <use x="224.316406" xlink:href="#DejaVuSans-35"/>
       <use x="287.939453" xlink:href="#DejaVuSans-6d"/>
      </g>
     </g>
    </g>
    <g id="xtick_6">
     <g id="line2d_6">
      <g>
       <use style="stroke:#000000;stroke-width:0.8;" x="359.312061" xlink:href="#mc41f4f54b4" y="288.430125"/>
      </g>
     </g>
     <g id="text_6">
      <!-- 9h:50m -->
      <g transform="translate(340.044874 303.028562)scale(0.1 -0.1)">
       <defs>
        <path d="M 703 97 
L 703 672 
Q 941 559 1184 500 
Q 1428 441 1663 441 
Q 2288 441 2617 861 
Q 2947 1281 2994 2138 
Q 2813 1869 2534 1725 
Q 2256 1581 1919 1581 
Q 1219 1581 811 2004 
Q 403 2428 403 3163 
Q 403 3881 828 4315 
Q 1253 4750 1959 4750 
Q 2769 4750 3195 4129 
Q 3622 3509 3622 2328 
Q 3622 1225 3098 567 
Q 2575 -91 1691 -91 
Q 1453 -91 1209 -44 
Q 966 3 703 97 
z
M 1959 2075 
Q 2384 2075 2632 2365 
Q 2881 2656 2881 3163 
Q 2881 3666 2632 3958 
Q 2384 4250 1959 4250 
Q 1534 4250 1286 3958 
Q 1038 3666 1038 3163 
Q 1038 2656 1286 2365 
Q 1534 2075 1959 2075 
z
" id="DejaVuSans-39" transform="scale(0.015625)"/>
       </defs>
       <use xlink:href="#DejaVuSans-39"/>
       <use x="63.623047" xlink:href="#DejaVuSans-68"/>
       <use x="127.001953" xlink:href="#DejaVuSans-3a"/>
       <use x="160.693359" xlink:href="#DejaVuSans-35"/>
       <use x="224.316406" xlink:href="#DejaVuSans-30"/>
       <use x="287.939453" xlink:href="#DejaVuSans-6d"/>
      </g>
     </g>
    </g>
    <g id="xtick_7">
     <g id="line2d_7">
      <g>
       <use style="stroke:#000000;stroke-width:0.8;" x="414.015757" xlink:href="#mc41f4f54b4" y="288.430125"/>
      </g>
     </g>
     <g id="text_7">
      <!-- 11h:45m -->
      <g transform="translate(391.56732 303.028562)scale(0.1 -0.1)">
       <use xlink:href="#DejaVuSans-31"/>
       <use x="63.623047" xlink:href="#DejaVuSans-31"/>
       <use x="127.246094" xlink:href="#DejaVuSans-68"/>
       <use x="190.625" xlink:href="#DejaVuSans-3a"/>
       <use x="224.316406" xlink:href="#DejaVuSans-34"/>
       <use x="287.939453" xlink:href="#DejaVuSans-35"/>
       <use x="351.5625" xlink:href="#DejaVuSans-6d"/>
      </g>
     </g>
    </g>
    <g id="xtick_8">
     <g id="line2d_8">
      <g>
       <use style="stroke:#000000;stroke-width:0.8;" x="468.719454" xlink:href="#mc41f4f54b4" y="288.430125"/>
      </g>
     </g>
     <g id="text_8">
      <!-- 13h:40m -->
      <g transform="translate(446.271016 303.028562)scale(0.1 -0.1)">
       <defs>
        <path d="M 2597 2516 
Q 3050 2419 3304 2112 
Q 3559 1806 3559 1356 
Q 3559 666 3084 287 
Q 2609 -91 1734 -91 
Q 1441 -91 1130 -33 
Q 819 25 488 141 
L 488 750 
Q 750 597 1062 519 
Q 1375 441 1716 441 
Q 2309 441 2620 675 
Q 2931 909 2931 1356 
Q 2931 1769 2642 2001 
Q 2353 2234 1838 2234 
L 1294 2234 
L 1294 2753 
L 1863 2753 
Q 2328 2753 2575 2939 
Q 2822 3125 2822 3475 
Q 2822 3834 2567 4026 
Q 2313 4219 1838 4219 
Q 1578 4219 1281 4162 
Q 984 4106 628 3988 
L 628 4550 
Q 988 4650 1302 4700 
Q 1616 4750 1894 4750 
Q 2613 4750 3031 4423 
Q 3450 4097 3450 3541 
Q 3450 3153 3228 2886 
Q 3006 2619 2597 2516 
z
" id="DejaVuSans-33" transform="scale(0.015625)"/>
       </defs>
       <use xlink:href="#DejaVuSans-31"/>
       <use x="63.623047" xlink:href="#DejaVuSans-33"/>
       <use x="127.246094" xlink:href="#DejaVuSans-68"/>
       <use x="190.625" xlink:href="#DejaVuSans-3a"/>
       <use x="224.316406" xlink:href="#DejaVuSans-34"/>
       <use x="287.939453" xlink:href="#DejaVuSans-30"/>
       <use x="351.5625" xlink:href="#DejaVuSans-6d"/>
      </g>
     </g>
    </g>
    <g id="xtick_9">
     <g id="line2d_9">
      <g>
       <use style="stroke:#000000;stroke-width:0.8;" x="523.42315" xlink:href="#mc41f4f54b4" y="288.430125"/>
      </g>
     </g>
     <g id="text_9">
      <!-- 15h:35m -->
      <g transform="translate(500.974712 303.028562)scale(0.1 -0.1)">
       <use xlink:href="#DejaVuSans-31"/>
       <use x="63.623047" xlink:href="#DejaVuSans-35"/>
       <use x="127.246094" xlink:href="#DejaVuSans-68"/>
       <use x="190.625" xlink:href="#DejaVuSans-3a"/>
       <use x="224.316406" xlink:href="#DejaVuSans-33"/>
       <use x="287.939453" xlink:href="#DejaVuSans-35"/>
       <use x="351.5625" xlink:href="#DejaVuSans-6d"/>
      </g>
     </g>
    </g>
    <g id="xtick_10">
     <g id="line2d_10">
      <g>
       <use style="stroke:#000000;stroke-width:0.8;" x="578.126846" xlink:href="#mc41f4f54b4" y="288.430125"/>
      </g>
     </g>
     <g id="text_10">
      <!-- 17h:30m -->
      <g transform="translate(555.678409 303.028562)scale(0.1 -0.1)">
       <use xlink:href="#DejaVuSans-31"/>
       <use x="63.623047" xlink:href="#DejaVuSans-37"/>
       <use x="127.246094" xlink:href="#DejaVuSans-68"/>
       <use x="190.625" xlink:href="#DejaVuSans-3a"/>
       <use x="224.316406" xlink:href="#DejaVuSans-33"/>
       <use x="287.939453" xlink:href="#DejaVuSans-30"/>
       <use x="351.5625" xlink:href="#DejaVuSans-6d"/>
      </g>
     </g>
    </g>
    <g id="xtick_11">
     <g id="line2d_11">
      <g>
       <use style="stroke:#000000;stroke-width:0.8;" x="632.830543" xlink:href="#mc41f4f54b4" y="288.430125"/>
      </g>
     </g>
     <g id="text_11">
      <!-- 19h:25m -->
      <g transform="translate(610.382105 303.028562)scale(0.1 -0.1)">
       <use xlink:href="#DejaVuSans-31"/>
       <use x="63.623047" xlink:href="#DejaVuSans-39"/>
       <use x="127.246094" xlink:href="#DejaVuSans-68"/>
       <use x="190.625" xlink:href="#DejaVuSans-3a"/>
       <use x="224.316406" xlink:href="#DejaVuSans-32"/>
       <use x="287.939453" xlink:href="#DejaVuSans-35"/>
       <use x="351.5625" xlink:href="#DejaVuSans-6d"/>
      </g>
     </g>
    </g>
    <g id="xtick_12">
     <g id="line2d_12">
      <g>
       <use style="stroke:#000000;stroke-width:0.8;" x="687.534239" xlink:href="#mc41f4f54b4" y="288.430125"/>
      </g>
     </g>
     <g id="text_12">
      <!-- 21h:20m -->
      <g transform="translate(665.085801 303.028562)scale(0.1 -0.1)">
       <use xlink:href="#DejaVuSans-32"/>
       <use x="63.623047" xlink:href="#DejaVuSans-31"/>
       <use x="127.246094" xlink:href="#DejaVuSans-68"/>
       <use x="190.625" xlink:href="#DejaVuSans-3a"/>
       <use x="224.316406" xlink:href="#DejaVuSans-32"/>
       <use x="287.939453" xlink:href="#DejaVuSans-30"/>
       <use x="351.5625" xlink:href="#DejaVuSans-6d"/>
      </g>
     </g>
    </g>
    <g id="text_13">
     <!-- Time (hour:minute) -->
     <g transform="translate(362.041094 316.706687)scale(0.1 -0.1)">
      <defs>
       <path d="M -19 4666 
L 3928 4666 
L 3928 4134 
L 2272 4134 
L 2272 0 
L 1638 0 
L 1638 4134 
L -19 4134 
L -19 4666 
z
" id="DejaVuSans-54" transform="scale(0.015625)"/>
       <path d="M 603 3500 
L 1178 3500 
L 1178 0 
L 603 0 
L 603 3500 
z
M 603 4863 
L 1178 4863 
L 1178 4134 
L 603 4134 
L 603 4863 
z
" id="DejaVuSans-69" transform="scale(0.015625)"/>
       <path d="M 3597 1894 
L 3597 1613 
L 953 1613 
Q 991 1019 1311 708 
Q 1631 397 2203 397 
Q 2534 397 2845 478 
Q 3156 559 3463 722 
L 3463 178 
Q 3153 47 2828 -22 
Q 2503 -91 2169 -91 
Q 1331 -91 842 396 
Q 353 884 353 1716 
Q 353 2575 817 3079 
Q 1281 3584 2069 3584 
Q 2775 3584 3186 3129 
Q 3597 2675 3597 1894 
z
M 3022 2063 
Q 3016 2534 2758 2815 
Q 2500 3097 2075 3097 
Q 1594 3097 1305 2825 
Q 1016 2553 972 2059 
L 3022 2063 
z
" id="DejaVuSans-65" transform="scale(0.015625)"/>
       <path id="DejaVuSans-20" transform="scale(0.015625)"/>
       <path d="M 1984 4856 
Q 1566 4138 1362 3434 
Q 1159 2731 1159 2009 
Q 1159 1288 1364 580 
Q 1569 -128 1984 -844 
L 1484 -844 
Q 1016 -109 783 600 
Q 550 1309 550 2009 
Q 550 2706 781 3412 
Q 1013 4119 1484 4856 
L 1984 4856 
z
" id="DejaVuSans-28" transform="scale(0.015625)"/>
       <path d="M 1959 3097 
Q 1497 3097 1228 2736 
Q 959 2375 959 1747 
Q 959 1119 1226 758 
Q 1494 397 1959 397 
Q 2419 397 2687 759 
Q 2956 1122 2956 1747 
Q 2956 2369 2687 2733 
Q 2419 3097 1959 3097 
z
M 1959 3584 
Q 2709 3584 3137 3096 
Q 3566 2609 3566 1747 
Q 3566 888 3137 398 
Q 2709 -91 1959 -91 
Q 1206 -91 779 398 
Q 353 888 353 1747 
Q 353 2609 779 3096 
Q 1206 3584 1959 3584 
z
" id="DejaVuSans-6f" transform="scale(0.015625)"/>
       <path d="M 544 1381 
L 544 3500 
L 1119 3500 
L 1119 1403 
Q 1119 906 1312 657 
Q 1506 409 1894 409 
Q 2359 409 2629 706 
Q 2900 1003 2900 1516 
L 2900 3500 
L 3475 3500 
L 3475 0 
L 2900 0 
L 2900 538 
Q 2691 219 2414 64 
Q 2138 -91 1772 -91 
Q 1169 -91 856 284 
Q 544 659 544 1381 
z
M 1991 3584 
L 1991 3584 
z
" id="DejaVuSans-75" transform="scale(0.015625)"/>
       <path d="M 2631 2963 
Q 2534 3019 2420 3045 
Q 2306 3072 2169 3072 
Q 1681 3072 1420 2755 
Q 1159 2438 1159 1844 
L 1159 0 
L 581 0 
L 581 3500 
L 1159 3500 
L 1159 2956 
Q 1341 3275 1631 3429 
Q 1922 3584 2338 3584 
Q 2397 3584 2469 3576 
Q 2541 3569 2628 3553 
L 2631 2963 
z
" id="DejaVuSans-72" transform="scale(0.015625)"/>
       <path d="M 3513 2113 
L 3513 0 
L 2938 0 
L 2938 2094 
Q 2938 2591 2744 2837 
Q 2550 3084 2163 3084 
Q 1697 3084 1428 2787 
Q 1159 2491 1159 1978 
L 1159 0 
L 581 0 
L 581 3500 
L 1159 3500 
L 1159 2956 
Q 1366 3272 1645 3428 
Q 1925 3584 2291 3584 
Q 2894 3584 3203 3211 
Q 3513 2838 3513 2113 
z
" id="DejaVuSans-6e" transform="scale(0.015625)"/>
       <path d="M 1172 4494 
L 1172 3500 
L 2356 3500 
L 2356 3053 
L 1172 3053 
L 1172 1153 
Q 1172 725 1289 603 
Q 1406 481 1766 481 
L 2356 481 
L 2356 0 
L 1766 0 
Q 1100 0 847 248 
Q 594 497 594 1153 
L 594 3053 
L 172 3053 
L 172 3500 
L 594 3500 
L 594 4494 
L 1172 4494 
z
" id="DejaVuSans-74" transform="scale(0.015625)"/>
       <path d="M 513 4856 
L 1013 4856 
Q 1481 4119 1714 3412 
Q 1947 2706 1947 2009 
Q 1947 1309 1714 600 
Q 1481 -109 1013 -844 
L 513 -844 
Q 928 -128 1133 580 
Q 1338 1288 1338 2009 
Q 1338 2731 1133 3434 
Q 928 4138 513 4856 
z
" id="DejaVuSans-29" transform="scale(0.015625)"/>
      </defs>
      <use xlink:href="#DejaVuSans-54"/>
      <use x="57.958984" xlink:href="#DejaVuSans-69"/>
      <use x="85.742188" xlink:href="#DejaVuSans-6d"/>
      <use x="183.154297" xlink:href="#DejaVuSans-65"/>
      <use x="244.677734" xlink:href="#DejaVuSans-20"/>
      <use x="276.464844" xlink:href="#DejaVuSans-28"/>
      <use x="315.478516" xlink:href="#DejaVuSans-68"/>
      <use x="378.857422" xlink:href="#DejaVuSans-6f"/>
      <use x="440.039062" xlink:href="#DejaVuSans-75"/>
      <use x="503.417969" xlink:href="#DejaVuSans-72"/>
      <use x="542.78125" xlink:href="#DejaVuSans-3a"/>
      <use x="576.472656" xlink:href="#DejaVuSans-6d"/>
      <use x="673.884766" xlink:href="#DejaVuSans-69"/>
      <use x="701.667969" xlink:href="#DejaVuSans-6e"/>
      <use x="765.046875" xlink:href="#DejaVuSans-75"/>
      <use x="828.425781" xlink:href="#DejaVuSans-74"/>
      <use x="867.634766" xlink:href="#DejaVuSans-65"/>
      <use x="929.158203" xlink:href="#DejaVuSans-29"/>
     </g>
    </g>
   </g>
   <g id="matplotlib.axis_2">
    <g id="ytick_1">
     <g id="line2d_13">
      <defs>
       <path d="M 0 0 
L -3.5 0 
" id="me45c0490d1" style="stroke:#000000;stroke-width:0.8;"/>
      </defs>
      <g>
       <use style="stroke:#000000;stroke-width:0.8;" x="53.328125" xlink:href="#me45c0490d1" y="258.072307"/>
      </g>
     </g>
     <g id="text_14">
      <!-- 7000 -->
      <g transform="translate(20.878125 261.871526)scale(0.1 -0.1)">
       <use xlink:href="#DejaVuSans-37"/>
       <use x="63.623047" xlink:href="#DejaVuSans-30"/>
       <use x="127.246094" xlink:href="#DejaVuSans-30"/>
       <use x="190.869141" xlink:href="#DejaVuSans-30"/>
      </g>
     </g>
    </g>
    <g id="ytick_2">
     <g id="line2d_14">
      <g>
       <use style="stroke:#000000;stroke-width:0.8;" x="53.328125" xlink:href="#me45c0490d1" y="225.345034"/>
      </g>
     </g>
     <g id="text_15">
      <!-- 7250 -->
      <g transform="translate(20.878125 229.144253)scale(0.1 -0.1)">
       <use xlink:href="#DejaVuSans-37"/>
       <use x="63.623047" xlink:href="#DejaVuSans-32"/>
       <use x="127.246094" xlink:href="#DejaVuSans-35"/>
       <use x="190.869141" xlink:href="#DejaVuSans-30"/>
      </g>
     </g>
    </g>
    <g id="ytick_3">
     <g id="line2d_15">
      <g>
       <use style="stroke:#000000;stroke-width:0.8;" x="53.328125" xlink:href="#me45c0490d1" y="192.617761"/>
      </g>
     </g>
     <g id="text_16">
      <!-- 7500 -->
      <g transform="translate(20.878125 196.41698)scale(0.1 -0.1)">
       <use xlink:href="#DejaVuSans-37"/>
       <use x="63.623047" xlink:href="#DejaVuSans-35"/>
       <use x="127.246094" xlink:href="#DejaVuSans-30"/>
       <use x="190.869141" xlink:href="#DejaVuSans-30"/>
      </g>
     </g>
    </g>
    <g id="ytick_4">
     <g id="line2d_16">
      <g>
       <use style="stroke:#000000;stroke-width:0.8;" x="53.328125" xlink:href="#me45c0490d1" y="159.890489"/>
      </g>
     </g>
     <g id="text_17">
      <!-- 7750 -->
      <g transform="translate(20.878125 163.689707)scale(0.1 -0.1)">
       <use xlink:href="#DejaVuSans-37"/>
       <use x="63.623047" xlink:href="#DejaVuSans-37"/>
       <use x="127.246094" xlink:href="#DejaVuSans-35"/>
       <use x="190.869141" xlink:href="#DejaVuSans-30"/>
      </g>
     </g>
    </g>
    <g id="ytick_5">
     <g id="line2d_17">
      <g>
       <use style="stroke:#000000;stroke-width:0.8;" x="53.328125" xlink:href="#me45c0490d1" y="127.163216"/>
      </g>
     </g>
     <g id="text_18">
      <!-- 8000 -->
      <g transform="translate(20.878125 130.962435)scale(0.1 -0.1)">
       <defs>
        <path d="M 2034 2216 
Q 1584 2216 1326 1975 
Q 1069 1734 1069 1313 
Q 1069 891 1326 650 
Q 1584 409 2034 409 
Q 2484 409 2743 651 
Q 3003 894 3003 1313 
Q 3003 1734 2745 1975 
Q 2488 2216 2034 2216 
z
M 1403 2484 
Q 997 2584 770 2862 
Q 544 3141 544 3541 
Q 544 4100 942 4425 
Q 1341 4750 2034 4750 
Q 2731 4750 3128 4425 
Q 3525 4100 3525 3541 
Q 3525 3141 3298 2862 
Q 3072 2584 2669 2484 
Q 3125 2378 3379 2068 
Q 3634 1759 3634 1313 
Q 3634 634 3220 271 
Q 2806 -91 2034 -91 
Q 1263 -91 848 271 
Q 434 634 434 1313 
Q 434 1759 690 2068 
Q 947 2378 1403 2484 
z
M 1172 3481 
Q 1172 3119 1398 2916 
Q 1625 2713 2034 2713 
Q 2441 2713 2670 2916 
Q 2900 3119 2900 3481 
Q 2900 3844 2670 4047 
Q 2441 4250 2034 4250 
Q 1625 4250 1398 4047 
Q 1172 3844 1172 3481 
z
" id="DejaVuSans-38" transform="scale(0.015625)"/>
       </defs>
       <use xlink:href="#DejaVuSans-38"/>
       <use x="63.623047" xlink:href="#DejaVuSans-30"/>
       <use x="127.246094" xlink:href="#DejaVuSans-30"/>
       <use x="190.869141" xlink:href="#DejaVuSans-30"/>
      </g>
     </g>
    </g>
    <g id="ytick_6">
     <g id="line2d_18">
      <g>
       <use style="stroke:#000000;stroke-width:0.8;" x="53.328125" xlink:href="#me45c0490d1" y="94.435943"/>
      </g>
     </g>
     <g id="text_19">
      <!-- 8250 -->
      <g transform="translate(20.878125 98.235162)scale(0.1 -0.1)">
       <use xlink:href="#DejaVuSans-38"/>
       <use x="63.623047" xlink:href="#DejaVuSans-32"/>
       <use x="127.246094" xlink:href="#DejaVuSans-35"/>
       <use x="190.869141" xlink:href="#DejaVuSans-30"/>
      </g>
     </g>
    </g>
    <g id="ytick_7">
     <g id="line2d_19">
      <g>
       <use style="stroke:#000000;stroke-width:0.8;" x="53.328125" xlink:href="#me45c0490d1" y="61.70867"/>
      </g>
     </g>
     <g id="text_20">
      <!-- 8500 -->
      <g transform="translate(20.878125 65.507889)scale(0.1 -0.1)">
       <use xlink:href="#DejaVuSans-38"/>
       <use x="63.623047" xlink:href="#DejaVuSans-35"/>
       <use x="127.246094" xlink:href="#DejaVuSans-30"/>
       <use x="190.869141" xlink:href="#DejaVuSans-30"/>
      </g>
     </g>
    </g>
    <g id="ytick_8">
     <g id="line2d_20">
      <g>
       <use style="stroke:#000000;stroke-width:0.8;" x="53.328125" xlink:href="#me45c0490d1" y="28.981398"/>
      </g>
     </g>
     <g id="text_21">
      <!-- 8750 -->
      <g transform="translate(20.878125 32.780616)scale(0.1 -0.1)">
       <use xlink:href="#DejaVuSans-38"/>
       <use x="63.623047" xlink:href="#DejaVuSans-37"/>
       <use x="127.246094" xlink:href="#DejaVuSans-35"/>
       <use x="190.869141" xlink:href="#DejaVuSans-30"/>
      </g>
     </g>
    </g>
    <g id="text_22">
     <!-- Code branch coverage -->
     <g transform="translate(14.798438 211.949125)rotate(-90)scale(0.1 -0.1)">
      <defs>
       <path d="M 4122 4306 
L 4122 3641 
Q 3803 3938 3442 4084 
Q 3081 4231 2675 4231 
Q 1875 4231 1450 3742 
Q 1025 3253 1025 2328 
Q 1025 1406 1450 917 
Q 1875 428 2675 428 
Q 3081 428 3442 575 
Q 3803 722 4122 1019 
L 4122 359 
Q 3791 134 3420 21 
Q 3050 -91 2638 -91 
Q 1578 -91 968 557 
Q 359 1206 359 2328 
Q 359 3453 968 4101 
Q 1578 4750 2638 4750 
Q 3056 4750 3426 4639 
Q 3797 4528 4122 4306 
z
" id="DejaVuSans-43" transform="scale(0.015625)"/>
       <path d="M 2906 2969 
L 2906 4863 
L 3481 4863 
L 3481 0 
L 2906 0 
L 2906 525 
Q 2725 213 2448 61 
Q 2172 -91 1784 -91 
Q 1150 -91 751 415 
Q 353 922 353 1747 
Q 353 2572 751 3078 
Q 1150 3584 1784 3584 
Q 2172 3584 2448 3432 
Q 2725 3281 2906 2969 
z
M 947 1747 
Q 947 1113 1208 752 
Q 1469 391 1925 391 
Q 2381 391 2643 752 
Q 2906 1113 2906 1747 
Q 2906 2381 2643 2742 
Q 2381 3103 1925 3103 
Q 1469 3103 1208 2742 
Q 947 2381 947 1747 
z
" id="DejaVuSans-64" transform="scale(0.015625)"/>
       <path d="M 3116 1747 
Q 3116 2381 2855 2742 
Q 2594 3103 2138 3103 
Q 1681 3103 1420 2742 
Q 1159 2381 1159 1747 
Q 1159 1113 1420 752 
Q 1681 391 2138 391 
Q 2594 391 2855 752 
Q 3116 1113 3116 1747 
z
M 1159 2969 
Q 1341 3281 1617 3432 
Q 1894 3584 2278 3584 
Q 2916 3584 3314 3078 
Q 3713 2572 3713 1747 
Q 3713 922 3314 415 
Q 2916 -91 2278 -91 
Q 1894 -91 1617 61 
Q 1341 213 1159 525 
L 1159 0 
L 581 0 
L 581 4863 
L 1159 4863 
L 1159 2969 
z
" id="DejaVuSans-62" transform="scale(0.015625)"/>
       <path d="M 2194 1759 
Q 1497 1759 1228 1600 
Q 959 1441 959 1056 
Q 959 750 1161 570 
Q 1363 391 1709 391 
Q 2188 391 2477 730 
Q 2766 1069 2766 1631 
L 2766 1759 
L 2194 1759 
z
M 3341 1997 
L 3341 0 
L 2766 0 
L 2766 531 
Q 2569 213 2275 61 
Q 1981 -91 1556 -91 
Q 1019 -91 701 211 
Q 384 513 384 1019 
Q 384 1609 779 1909 
Q 1175 2209 1959 2209 
L 2766 2209 
L 2766 2266 
Q 2766 2663 2505 2880 
Q 2244 3097 1772 3097 
Q 1472 3097 1187 3025 
Q 903 2953 641 2809 
L 641 3341 
Q 956 3463 1253 3523 
Q 1550 3584 1831 3584 
Q 2591 3584 2966 3190 
Q 3341 2797 3341 1997 
z
" id="DejaVuSans-61" transform="scale(0.015625)"/>
       <path d="M 3122 3366 
L 3122 2828 
Q 2878 2963 2633 3030 
Q 2388 3097 2138 3097 
Q 1578 3097 1268 2742 
Q 959 2388 959 1747 
Q 959 1106 1268 751 
Q 1578 397 2138 397 
Q 2388 397 2633 464 
Q 2878 531 3122 666 
L 3122 134 
Q 2881 22 2623 -34 
Q 2366 -91 2075 -91 
Q 1284 -91 818 406 
Q 353 903 353 1747 
Q 353 2603 823 3093 
Q 1294 3584 2113 3584 
Q 2378 3584 2631 3529 
Q 2884 3475 3122 3366 
z
" id="DejaVuSans-63" transform="scale(0.015625)"/>
       <path d="M 191 3500 
L 800 3500 
L 1894 563 
L 2988 3500 
L 3597 3500 
L 2284 0 
L 1503 0 
L 191 3500 
z
" id="DejaVuSans-76" transform="scale(0.015625)"/>
       <path d="M 2906 1791 
Q 2906 2416 2648 2759 
Q 2391 3103 1925 3103 
Q 1463 3103 1205 2759 
Q 947 2416 947 1791 
Q 947 1169 1205 825 
Q 1463 481 1925 481 
Q 2391 481 2648 825 
Q 2906 1169 2906 1791 
z
M 3481 434 
Q 3481 -459 3084 -895 
Q 2688 -1331 1869 -1331 
Q 1566 -1331 1297 -1286 
Q 1028 -1241 775 -1147 
L 775 -588 
Q 1028 -725 1275 -790 
Q 1522 -856 1778 -856 
Q 2344 -856 2625 -561 
Q 2906 -266 2906 331 
L 2906 616 
Q 2728 306 2450 153 
Q 2172 0 1784 0 
Q 1141 0 747 490 
Q 353 981 353 1791 
Q 353 2603 747 3093 
Q 1141 3584 1784 3584 
Q 2172 3584 2450 3431 
Q 2728 3278 2906 2969 
L 2906 3500 
L 3481 3500 
L 3481 434 
z
" id="DejaVuSans-67" transform="scale(0.015625)"/>
      </defs>
      <use xlink:href="#DejaVuSans-43"/>
      <use x="69.824219" xlink:href="#DejaVuSans-6f"/>
      <use x="131.005859" xlink:href="#DejaVuSans-64"/>
      <use x="194.482422" xlink:href="#DejaVuSans-65"/>
      <use x="256.005859" xlink:href="#DejaVuSans-20"/>
      <use x="287.792969" xlink:href="#DejaVuSans-62"/>
      <use x="351.269531" xlink:href="#DejaVuSans-72"/>
      <use x="392.382812" xlink:href="#DejaVuSans-61"/>
      <use x="453.662109" xlink:href="#DejaVuSans-6e"/>
      <use x="517.041016" xlink:href="#DejaVuSans-63"/>
      <use x="572.021484" xlink:href="#DejaVuSans-68"/>
      <use x="635.400391" xlink:href="#DejaVuSans-20"/>
      <use x="667.1875" xlink:href="#DejaVuSans-63"/>
      <use x="722.167969" xlink:href="#DejaVuSans-6f"/>
      <use x="783.349609" xlink:href="#DejaVuSans-76"/>
      <use x="842.529297" xlink:href="#DejaVuSans-65"/>
      <use x="904.052734" xlink:href="#DejaVuSans-72"/>
      <use x="945.166016" xlink:href="#DejaVuSans-61"/>
      <use x="1006.445312" xlink:href="#DejaVuSans-67"/>
      <use x="1069.921875" xlink:href="#DejaVuSans-65"/>
     </g>
    </g>
   </g>
   <g id="line2d_21">
    <path clip-path="url(#pdcd4cb78be)" d="M 85.79358 261.345034 
L 92.928844 221.941398 
L 100.064109 207.345034 
L 107.199374 195.955943 
L 114.334638 190.326852 
L 121.469903 171.86867 
L 128.605168 163.35958 
L 135.740433 160.217761 
L 142.875697 157.795943 
L 150.010962 149.483216 
L 157.146227 143.461398 
L 164.281492 142.217761 
L 171.416756 132.465034 
L 178.552021 131.155943 
L 185.687286 127.490489 
L 192.822551 124.217761 
L 199.957815 123.170489 
L 207.09308 122.385034 
L 214.228345 113.090489 
L 221.36361 112.10867 
L 228.498874 110.014125 
L 235.634139 109.294125 
L 242.769404 108.63958 
L 249.904668 108.115943 
L 257.039933 107.854125 
L 264.175198 106.545034 
L 271.310463 104.123216 
L 278.445727 103.730489 
L 285.580992 98.821398 
L 292.716257 98.166852 
L 299.851522 97.185034 
L 306.986786 96.661398 
L 314.122051 96.530489 
L 321.257316 95.483216 
L 328.392581 94.82867 
L 335.527845 94.697761 
L 342.66311 94.632307 
L 349.798375 94.632307 
L 356.933639 94.632307 
L 364.068904 94.566852 
L 371.204169 73.555943 
L 378.339434 73.032307 
L 385.474698 72.901398 
L 392.609963 72.835943 
L 399.745228 72.63958 
L 406.880493 72.246852 
L 414.015757 71.003216 
L 421.151022 70.872307 
L 428.286287 70.872307 
L 435.421552 70.021398 
L 442.556816 69.301398 
L 449.692081 69.301398 
L 456.827346 69.03958 
L 463.962611 68.90867 
L 471.097875 68.90867 
L 478.23314 68.90867 
L 485.368405 68.90867 
L 492.503669 68.777761 
L 499.638934 68.777761 
L 506.774199 68.712307 
L 513.909464 68.581398 
L 521.044728 68.581398 
L 528.179993 68.581398 
L 535.315258 68.581398 
L 542.450523 68.581398 
L 549.585787 68.057761 
L 556.721052 68.057761 
L 563.856317 67.992307 
L 570.991582 67.992307 
L 578.126846 66.552307 
L 585.262111 66.552307 
L 592.397376 66.552307 
L 599.53264 66.552307 
L 606.667905 66.552307 
L 613.80317 66.355943 
L 620.938435 66.355943 
L 628.073699 66.355943 
L 635.208964 66.225034 
L 642.344229 66.15958 
L 649.479494 65.963216 
L 656.614758 65.963216 
L 663.750023 65.963216 
L 670.885288 65.897761 
L 678.020553 65.897761 
L 685.155817 65.897761 
L 692.291082 65.832307 
L 699.426347 65.832307 
L 706.561612 65.832307 
L 713.696876 65.832307 
L 720.832141 65.766852 
L 727.967406 65.766852 
L 735.10267 65.766852 
" style="fill:none;stroke:#1f77b4;stroke-linecap:square;stroke-width:1.5;"/>
    <defs>
     <path d="M 0 3 
C 0.795609 3 1.55874 2.683901 2.12132 2.12132 
C 2.683901 1.55874 3 0.795609 3 0 
C 3 -0.795609 2.683901 -1.55874 2.12132 -2.12132 
C 1.55874 -2.683901 0.795609 -3 0 -3 
C -0.795609 -3 -1.55874 -2.683901 -2.12132 -2.12132 
C -2.683901 -1.55874 -3 -0.795609 -3 0 
C -3 0.795609 -2.683901 1.55874 -2.12132 2.12132 
C -1.55874 2.683901 -0.795609 3 0 3 
z
" id="m9da7d71efc" style="stroke:#ffffff;stroke-width:0.75;"/>
    </defs>
    <g clip-path="url(#pdcd4cb78be)">
     <use style="fill:#1f77b4;stroke:#ffffff;stroke-width:0.75;" x="85.79358" xlink:href="#m9da7d71efc" y="261.345034"/>
     <use style="fill:#1f77b4;stroke:#ffffff;stroke-width:0.75;" x="92.928844" xlink:href="#m9da7d71efc" y="221.941398"/>
     <use style="fill:#1f77b4;stroke:#ffffff;stroke-width:0.75;" x="100.064109" xlink:href="#m9da7d71efc" y="207.345034"/>
     <use style="fill:#1f77b4;stroke:#ffffff;stroke-width:0.75;" x="107.199374" xlink:href="#m9da7d71efc" y="195.955943"/>
     <use style="fill:#1f77b4;stroke:#ffffff;stroke-width:0.75;" x="114.334638" xlink:href="#m9da7d71efc" y="190.326852"/>
     <use style="fill:#1f77b4;stroke:#ffffff;stroke-width:0.75;" x="121.469903" xlink:href="#m9da7d71efc" y="171.86867"/>
     <use style="fill:#1f77b4;stroke:#ffffff;stroke-width:0.75;" x="128.605168" xlink:href="#m9da7d71efc" y="163.35958"/>
     <use style="fill:#1f77b4;stroke:#ffffff;stroke-width:0.75;" x="135.740433" xlink:href="#m9da7d71efc" y="160.217761"/>
     <use style="fill:#1f77b4;stroke:#ffffff;stroke-width:0.75;" x="142.875697" xlink:href="#m9da7d71efc" y="157.795943"/>
     <use style="fill:#1f77b4;stroke:#ffffff;stroke-width:0.75;" x="150.010962" xlink:href="#m9da7d71efc" y="149.483216"/>
     <use style="fill:#1f77b4;stroke:#ffffff;stroke-width:0.75;" x="157.146227" xlink:href="#m9da7d71efc" y="143.461398"/>
     <use style="fill:#1f77b4;stroke:#ffffff;stroke-width:0.75;" x="164.281492" xlink:href="#m9da7d71efc" y="142.217761"/>
     <use style="fill:#1f77b4;stroke:#ffffff;stroke-width:0.75;" x="171.416756" xlink:href="#m9da7d71efc" y="132.465034"/>
     <use style="fill:#1f77b4;stroke:#ffffff;stroke-width:0.75;" x="178.552021" xlink:href="#m9da7d71efc" y="131.155943"/>
     <use style="fill:#1f77b4;stroke:#ffffff;stroke-width:0.75;" x="185.687286" xlink:href="#m9da7d71efc" y="127.490489"/>
     <use style="fill:#1f77b4;stroke:#ffffff;stroke-width:0.75;" x="192.822551" xlink:href="#m9da7d71efc" y="124.217761"/>
     <use style="fill:#1f77b4;stroke:#ffffff;stroke-width:0.75;" x="199.957815" xlink:href="#m9da7d71efc" y="123.170489"/>
     <use style="fill:#1f77b4;stroke:#ffffff;stroke-width:0.75;" x="207.09308" xlink:href="#m9da7d71efc" y="122.385034"/>
     <use style="fill:#1f77b4;stroke:#ffffff;stroke-width:0.75;" x="214.228345" xlink:href="#m9da7d71efc" y="113.090489"/>
     <use style="fill:#1f77b4;stroke:#ffffff;stroke-width:0.75;" x="221.36361" xlink:href="#m9da7d71efc" y="112.10867"/>
     <use style="fill:#1f77b4;stroke:#ffffff;stroke-width:0.75;" x="228.498874" xlink:href="#m9da7d71efc" y="110.014125"/>
     <use style="fill:#1f77b4;stroke:#ffffff;stroke-width:0.75;" x="235.634139" xlink:href="#m9da7d71efc" y="109.294125"/>
     <use style="fill:#1f77b4;stroke:#ffffff;stroke-width:0.75;" x="242.769404" xlink:href="#m9da7d71efc" y="108.63958"/>
     <use style="fill:#1f77b4;stroke:#ffffff;stroke-width:0.75;" x="249.904668" xlink:href="#m9da7d71efc" y="108.115943"/>
     <use style="fill:#1f77b4;stroke:#ffffff;stroke-width:0.75;" x="257.039933" xlink:href="#m9da7d71efc" y="107.854125"/>
     <use style="fill:#1f77b4;stroke:#ffffff;stroke-width:0.75;" x="264.175198" xlink:href="#m9da7d71efc" y="106.545034"/>
     <use style="fill:#1f77b4;stroke:#ffffff;stroke-width:0.75;" x="271.310463" xlink:href="#m9da7d71efc" y="104.123216"/>
     <use style="fill:#1f77b4;stroke:#ffffff;stroke-width:0.75;" x="278.445727" xlink:href="#m9da7d71efc" y="103.730489"/>
     <use style="fill:#1f77b4;stroke:#ffffff;stroke-width:0.75;" x="285.580992" xlink:href="#m9da7d71efc" y="98.821398"/>
     <use style="fill:#1f77b4;stroke:#ffffff;stroke-width:0.75;" x="292.716257" xlink:href="#m9da7d71efc" y="98.166852"/>
     <use style="fill:#1f77b4;stroke:#ffffff;stroke-width:0.75;" x="299.851522" xlink:href="#m9da7d71efc" y="97.185034"/>
     <use style="fill:#1f77b4;stroke:#ffffff;stroke-width:0.75;" x="306.986786" xlink:href="#m9da7d71efc" y="96.661398"/>
     <use style="fill:#1f77b4;stroke:#ffffff;stroke-width:0.75;" x="314.122051" xlink:href="#m9da7d71efc" y="96.530489"/>
     <use style="fill:#1f77b4;stroke:#ffffff;stroke-width:0.75;" x="321.257316" xlink:href="#m9da7d71efc" y="95.483216"/>
     <use style="fill:#1f77b4;stroke:#ffffff;stroke-width:0.75;" x="328.392581" xlink:href="#m9da7d71efc" y="94.82867"/>
     <use style="fill:#1f77b4;stroke:#ffffff;stroke-width:0.75;" x="335.527845" xlink:href="#m9da7d71efc" y="94.697761"/>
     <use style="fill:#1f77b4;stroke:#ffffff;stroke-width:0.75;" x="342.66311" xlink:href="#m9da7d71efc" y="94.632307"/>
     <use style="fill:#1f77b4;stroke:#ffffff;stroke-width:0.75;" x="349.798375" xlink:href="#m9da7d71efc" y="94.632307"/>
     <use style="fill:#1f77b4;stroke:#ffffff;stroke-width:0.75;" x="356.933639" xlink:href="#m9da7d71efc" y="94.632307"/>
     <use style="fill:#1f77b4;stroke:#ffffff;stroke-width:0.75;" x="364.068904" xlink:href="#m9da7d71efc" y="94.566852"/>
     <use style="fill:#1f77b4;stroke:#ffffff;stroke-width:0.75;" x="371.204169" xlink:href="#m9da7d71efc" y="73.555943"/>
     <use style="fill:#1f77b4;stroke:#ffffff;stroke-width:0.75;" x="378.339434" xlink:href="#m9da7d71efc" y="73.032307"/>
     <use style="fill:#1f77b4;stroke:#ffffff;stroke-width:0.75;" x="385.474698" xlink:href="#m9da7d71efc" y="72.901398"/>
     <use style="fill:#1f77b4;stroke:#ffffff;stroke-width:0.75;" x="392.609963" xlink:href="#m9da7d71efc" y="72.835943"/>
     <use style="fill:#1f77b4;stroke:#ffffff;stroke-width:0.75;" x="399.745228" xlink:href="#m9da7d71efc" y="72.63958"/>
     <use style="fill:#1f77b4;stroke:#ffffff;stroke-width:0.75;" x="406.880493" xlink:href="#m9da7d71efc" y="72.246852"/>
     <use style="fill:#1f77b4;stroke:#ffffff;stroke-width:0.75;" x="414.015757" xlink:href="#m9da7d71efc" y="71.003216"/>
     <use style="fill:#1f77b4;stroke:#ffffff;stroke-width:0.75;" x="421.151022" xlink:href="#m9da7d71efc" y="70.872307"/>
     <use style="fill:#1f77b4;stroke:#ffffff;stroke-width:0.75;" x="428.286287" xlink:href="#m9da7d71efc" y="70.872307"/>
     <use style="fill:#1f77b4;stroke:#ffffff;stroke-width:0.75;" x="435.421552" xlink:href="#m9da7d71efc" y="70.021398"/>
     <use style="fill:#1f77b4;stroke:#ffffff;stroke-width:0.75;" x="442.556816" xlink:href="#m9da7d71efc" y="69.301398"/>
     <use style="fill:#1f77b4;stroke:#ffffff;stroke-width:0.75;" x="449.692081" xlink:href="#m9da7d71efc" y="69.301398"/>
     <use style="fill:#1f77b4;stroke:#ffffff;stroke-width:0.75;" x="456.827346" xlink:href="#m9da7d71efc" y="69.03958"/>
     <use style="fill:#1f77b4;stroke:#ffffff;stroke-width:0.75;" x="463.962611" xlink:href="#m9da7d71efc" y="68.90867"/>
     <use style="fill:#1f77b4;stroke:#ffffff;stroke-width:0.75;" x="471.097875" xlink:href="#m9da7d71efc" y="68.90867"/>
     <use style="fill:#1f77b4;stroke:#ffffff;stroke-width:0.75;" x="478.23314" xlink:href="#m9da7d71efc" y="68.90867"/>
     <use style="fill:#1f77b4;stroke:#ffffff;stroke-width:0.75;" x="485.368405" xlink:href="#m9da7d71efc" y="68.90867"/>
     <use style="fill:#1f77b4;stroke:#ffffff;stroke-width:0.75;" x="492.503669" xlink:href="#m9da7d71efc" y="68.777761"/>
     <use style="fill:#1f77b4;stroke:#ffffff;stroke-width:0.75;" x="499.638934" xlink:href="#m9da7d71efc" y="68.777761"/>
     <use style="fill:#1f77b4;stroke:#ffffff;stroke-width:0.75;" x="506.774199" xlink:href="#m9da7d71efc" y="68.712307"/>
     <use style="fill:#1f77b4;stroke:#ffffff;stroke-width:0.75;" x="513.909464" xlink:href="#m9da7d71efc" y="68.581398"/>
     <use style="fill:#1f77b4;stroke:#ffffff;stroke-width:0.75;" x="521.044728" xlink:href="#m9da7d71efc" y="68.581398"/>
     <use style="fill:#1f77b4;stroke:#ffffff;stroke-width:0.75;" x="528.179993" xlink:href="#m9da7d71efc" y="68.581398"/>
     <use style="fill:#1f77b4;stroke:#ffffff;stroke-width:0.75;" x="535.315258" xlink:href="#m9da7d71efc" y="68.581398"/>
     <use style="fill:#1f77b4;stroke:#ffffff;stroke-width:0.75;" x="542.450523" xlink:href="#m9da7d71efc" y="68.581398"/>
     <use style="fill:#1f77b4;stroke:#ffffff;stroke-width:0.75;" x="549.585787" xlink:href="#m9da7d71efc" y="68.057761"/>
     <use style="fill:#1f77b4;stroke:#ffffff;stroke-width:0.75;" x="556.721052" xlink:href="#m9da7d71efc" y="68.057761"/>
     <use style="fill:#1f77b4;stroke:#ffffff;stroke-width:0.75;" x="563.856317" xlink:href="#m9da7d71efc" y="67.992307"/>
     <use style="fill:#1f77b4;stroke:#ffffff;stroke-width:0.75;" x="570.991582" xlink:href="#m9da7d71efc" y="67.992307"/>
     <use style="fill:#1f77b4;stroke:#ffffff;stroke-width:0.75;" x="578.126846" xlink:href="#m9da7d71efc" y="66.552307"/>
     <use style="fill:#1f77b4;stroke:#ffffff;stroke-width:0.75;" x="585.262111" xlink:href="#m9da7d71efc" y="66.552307"/>
     <use style="fill:#1f77b4;stroke:#ffffff;stroke-width:0.75;" x="592.397376" xlink:href="#m9da7d71efc" y="66.552307"/>
     <use style="fill:#1f77b4;stroke:#ffffff;stroke-width:0.75;" x="599.53264" xlink:href="#m9da7d71efc" y="66.552307"/>
     <use style="fill:#1f77b4;stroke:#ffffff;stroke-width:0.75;" x="606.667905" xlink:href="#m9da7d71efc" y="66.552307"/>
     <use style="fill:#1f77b4;stroke:#ffffff;stroke-width:0.75;" x="613.80317" xlink:href="#m9da7d71efc" y="66.355943"/>
     <use style="fill:#1f77b4;stroke:#ffffff;stroke-width:0.75;" x="620.938435" xlink:href="#m9da7d71efc" y="66.355943"/>
     <use style="fill:#1f77b4;stroke:#ffffff;stroke-width:0.75;" x="628.073699" xlink:href="#m9da7d71efc" y="66.355943"/>
     <use style="fill:#1f77b4;stroke:#ffffff;stroke-width:0.75;" x="635.208964" xlink:href="#m9da7d71efc" y="66.225034"/>
     <use style="fill:#1f77b4;stroke:#ffffff;stroke-width:0.75;" x="642.344229" xlink:href="#m9da7d71efc" y="66.15958"/>
     <use style="fill:#1f77b4;stroke:#ffffff;stroke-width:0.75;" x="649.479494" xlink:href="#m9da7d71efc" y="65.963216"/>
     <use style="fill:#1f77b4;stroke:#ffffff;stroke-width:0.75;" x="656.614758" xlink:href="#m9da7d71efc" y="65.963216"/>
     <use style="fill:#1f77b4;stroke:#ffffff;stroke-width:0.75;" x="663.750023" xlink:href="#m9da7d71efc" y="65.963216"/>
     <use style="fill:#1f77b4;stroke:#ffffff;stroke-width:0.75;" x="670.885288" xlink:href="#m9da7d71efc" y="65.897761"/>
     <use style="fill:#1f77b4;stroke:#ffffff;stroke-width:0.75;" x="678.020553" xlink:href="#m9da7d71efc" y="65.897761"/>
     <use style="fill:#1f77b4;stroke:#ffffff;stroke-width:0.75;" x="685.155817" xlink:href="#m9da7d71efc" y="65.897761"/>
     <use style="fill:#1f77b4;stroke:#ffffff;stroke-width:0.75;" x="692.291082" xlink:href="#m9da7d71efc" y="65.832307"/>
     <use style="fill:#1f77b4;stroke:#ffffff;stroke-width:0.75;" x="699.426347" xlink:href="#m9da7d71efc" y="65.832307"/>
     <use style="fill:#1f77b4;stroke:#ffffff;stroke-width:0.75;" x="706.561612" xlink:href="#m9da7d71efc" y="65.832307"/>
     <use style="fill:#1f77b4;stroke:#ffffff;stroke-width:0.75;" x="713.696876" xlink:href="#m9da7d71efc" y="65.832307"/>
     <use style="fill:#1f77b4;stroke:#ffffff;stroke-width:0.75;" x="720.832141" xlink:href="#m9da7d71efc" y="65.766852"/>
     <use style="fill:#1f77b4;stroke:#ffffff;stroke-width:0.75;" x="727.967406" xlink:href="#m9da7d71efc" y="65.766852"/>
     <use style="fill:#1f77b4;stroke:#ffffff;stroke-width:0.75;" x="735.10267" xlink:href="#m9da7d71efc" y="65.766852"/>
    </g>
   </g>
   <g id="line2d_22">
    <path clip-path="url(#pdcd4cb78be)" d="M 85.79358 266.254125 
L 92.928844 231.825034 
L 100.064109 216.63958 
L 107.199374 202.043216 
L 114.334638 196.086852 
L 121.469903 182.734125 
L 128.605168 181.294125 
L 135.740433 177.75958 
L 142.875697 174.552307 
L 150.010962 173.177761 
L 157.146227 171.99958 
L 164.281492 170.297761 
L 171.416756 159.825034 
L 178.552021 157.272307 
L 185.687286 152.363216 
L 192.822551 151.11958 
L 199.957815 149.090489 
L 207.09308 148.632307 
L 214.228345 147.912307 
L 221.36361 127.621398 
L 228.498874 126.115943 
L 235.634139 124.937761 
L 242.769404 124.937761 
L 249.904668 124.741398 
L 257.039933 108.50867 
L 264.175198 107.134125 
L 271.310463 106.47958 
L 278.445727 106.414125 
L 285.580992 106.414125 
L 292.716257 106.283216 
L 299.851522 106.152307 
L 306.986786 106.086852 
L 314.122051 106.021398 
L 321.257316 106.021398 
L 328.392581 104.974125 
L 335.527845 104.90867 
L 342.66311 104.646852 
L 349.798375 102.87958 
L 356.933639 102.486852 
L 364.068904 102.02867 
L 371.204169 102.02867 
L 378.339434 101.701398 
L 385.474698 101.570489 
L 392.609963 101.505034 
L 399.745228 101.243216 
L 406.880493 101.243216 
L 414.015757 101.046852 
L 421.151022 101.046852 
L 428.286287 100.785034 
L 435.421552 100.71958 
L 442.556816 100.261398 
L 449.692081 100.130489 
L 456.827346 100.065034 
L 463.962611 100.065034 
L 471.097875 100.065034 
L 478.23314 100.065034 
L 485.368405 99.934125 
L 492.503669 98.494125 
L 499.638934 98.494125 
L 506.774199 98.42867 
L 513.909464 98.363216 
L 521.044728 98.363216 
L 528.179993 98.297761 
L 535.315258 80.42867 
L 542.450523 80.166852 
L 549.585787 80.166852 
L 556.721052 60.334125 
L 563.856317 60.334125 
L 570.991582 60.334125 
L 578.126846 59.810489 
L 585.262111 59.417761 
L 592.397376 58.043216 
L 599.53264 57.38867 
L 606.667905 57.257761 
L 613.80317 57.192307 
L 620.938435 57.192307 
L 628.073699 57.126852 
L 635.208964 57.126852 
L 642.344229 57.126852 
L 649.479494 57.126852 
L 656.614758 57.126852 
L 663.750023 56.865034 
L 670.885288 56.865034 
L 678.020553 56.865034 
L 685.155817 56.865034 
L 692.291082 56.865034 
L 699.426347 56.865034 
L 706.561612 56.865034 
L 713.696876 56.865034 
L 720.832141 56.734125 
L 727.967406 56.66867 
L 735.10267 56.66867 
" style="fill:none;stroke:#98df8a;stroke-linecap:square;stroke-width:1.5;"/>
    <defs>
     <path d="M -0 3 
L 3 -3 
L -3 -3 
z
" id="mf46f0b0721" style="stroke:#ffffff;stroke-linejoin:miter;stroke-width:0.75;"/>
    </defs>
    <g clip-path="url(#pdcd4cb78be)">
     <use style="fill:#98df8a;stroke:#ffffff;stroke-linejoin:miter;stroke-width:0.75;" x="85.79358" xlink:href="#mf46f0b0721" y="266.254125"/>
     <use style="fill:#98df8a;stroke:#ffffff;stroke-linejoin:miter;stroke-width:0.75;" x="92.928844" xlink:href="#mf46f0b0721" y="231.825034"/>
     <use style="fill:#98df8a;stroke:#ffffff;stroke-linejoin:miter;stroke-width:0.75;" x="100.064109" xlink:href="#mf46f0b0721" y="216.63958"/>
     <use style="fill:#98df8a;stroke:#ffffff;stroke-linejoin:miter;stroke-width:0.75;" x="107.199374" xlink:href="#mf46f0b0721" y="202.043216"/>
     <use style="fill:#98df8a;stroke:#ffffff;stroke-linejoin:miter;stroke-width:0.75;" x="114.334638" xlink:href="#mf46f0b0721" y="196.086852"/>
     <use style="fill:#98df8a;stroke:#ffffff;stroke-linejoin:miter;stroke-width:0.75;" x="121.469903" xlink:href="#mf46f0b0721" y="182.734125"/>
     <use style="fill:#98df8a;stroke:#ffffff;stroke-linejoin:miter;stroke-width:0.75;" x="128.605168" xlink:href="#mf46f0b0721" y="181.294125"/>
     <use style="fill:#98df8a;stroke:#ffffff;stroke-linejoin:miter;stroke-width:0.75;" x="135.740433" xlink:href="#mf46f0b0721" y="177.75958"/>
     <use style="fill:#98df8a;stroke:#ffffff;stroke-linejoin:miter;stroke-width:0.75;" x="142.875697" xlink:href="#mf46f0b0721" y="174.552307"/>
     <use style="fill:#98df8a;stroke:#ffffff;stroke-linejoin:miter;stroke-width:0.75;" x="150.010962" xlink:href="#mf46f0b0721" y="173.177761"/>
     <use style="fill:#98df8a;stroke:#ffffff;stroke-linejoin:miter;stroke-width:0.75;" x="157.146227" xlink:href="#mf46f0b0721" y="171.99958"/>
     <use style="fill:#98df8a;stroke:#ffffff;stroke-linejoin:miter;stroke-width:0.75;" x="164.281492" xlink:href="#mf46f0b0721" y="170.297761"/>
     <use style="fill:#98df8a;stroke:#ffffff;stroke-linejoin:miter;stroke-width:0.75;" x="171.416756" xlink:href="#mf46f0b0721" y="159.825034"/>
     <use style="fill:#98df8a;stroke:#ffffff;stroke-linejoin:miter;stroke-width:0.75;" x="178.552021" xlink:href="#mf46f0b0721" y="157.272307"/>
     <use style="fill:#98df8a;stroke:#ffffff;stroke-linejoin:miter;stroke-width:0.75;" x="185.687286" xlink:href="#mf46f0b0721" y="152.363216"/>
     <use style="fill:#98df8a;stroke:#ffffff;stroke-linejoin:miter;stroke-width:0.75;" x="192.822551" xlink:href="#mf46f0b0721" y="151.11958"/>
     <use style="fill:#98df8a;stroke:#ffffff;stroke-linejoin:miter;stroke-width:0.75;" x="199.957815" xlink:href="#mf46f0b0721" y="149.090489"/>
     <use style="fill:#98df8a;stroke:#ffffff;stroke-linejoin:miter;stroke-width:0.75;" x="207.09308" xlink:href="#mf46f0b0721" y="148.632307"/>
     <use style="fill:#98df8a;stroke:#ffffff;stroke-linejoin:miter;stroke-width:0.75;" x="214.228345" xlink:href="#mf46f0b0721" y="147.912307"/>
     <use style="fill:#98df8a;stroke:#ffffff;stroke-linejoin:miter;stroke-width:0.75;" x="221.36361" xlink:href="#mf46f0b0721" y="127.621398"/>
     <use style="fill:#98df8a;stroke:#ffffff;stroke-linejoin:miter;stroke-width:0.75;" x="228.498874" xlink:href="#mf46f0b0721" y="126.115943"/>
     <use style="fill:#98df8a;stroke:#ffffff;stroke-linejoin:miter;stroke-width:0.75;" x="235.634139" xlink:href="#mf46f0b0721" y="124.937761"/>
     <use style="fill:#98df8a;stroke:#ffffff;stroke-linejoin:miter;stroke-width:0.75;" x="242.769404" xlink:href="#mf46f0b0721" y="124.937761"/>
     <use style="fill:#98df8a;stroke:#ffffff;stroke-linejoin:miter;stroke-width:0.75;" x="249.904668" xlink:href="#mf46f0b0721" y="124.741398"/>
     <use style="fill:#98df8a;stroke:#ffffff;stroke-linejoin:miter;stroke-width:0.75;" x="257.039933" xlink:href="#mf46f0b0721" y="108.50867"/>
     <use style="fill:#98df8a;stroke:#ffffff;stroke-linejoin:miter;stroke-width:0.75;" x="264.175198" xlink:href="#mf46f0b0721" y="107.134125"/>
     <use style="fill:#98df8a;stroke:#ffffff;stroke-linejoin:miter;stroke-width:0.75;" x="271.310463" xlink:href="#mf46f0b0721" y="106.47958"/>
     <use style="fill:#98df8a;stroke:#ffffff;stroke-linejoin:miter;stroke-width:0.75;" x="278.445727" xlink:href="#mf46f0b0721" y="106.414125"/>
     <use style="fill:#98df8a;stroke:#ffffff;stroke-linejoin:miter;stroke-width:0.75;" x="285.580992" xlink:href="#mf46f0b0721" y="106.414125"/>
     <use style="fill:#98df8a;stroke:#ffffff;stroke-linejoin:miter;stroke-width:0.75;" x="292.716257" xlink:href="#mf46f0b0721" y="106.283216"/>
     <use style="fill:#98df8a;stroke:#ffffff;stroke-linejoin:miter;stroke-width:0.75;" x="299.851522" xlink:href="#mf46f0b0721" y="106.152307"/>
     <use style="fill:#98df8a;stroke:#ffffff;stroke-linejoin:miter;stroke-width:0.75;" x="306.986786" xlink:href="#mf46f0b0721" y="106.086852"/>
     <use style="fill:#98df8a;stroke:#ffffff;stroke-linejoin:miter;stroke-width:0.75;" x="314.122051" xlink:href="#mf46f0b0721" y="106.021398"/>
     <use style="fill:#98df8a;stroke:#ffffff;stroke-linejoin:miter;stroke-width:0.75;" x="321.257316" xlink:href="#mf46f0b0721" y="106.021398"/>
     <use style="fill:#98df8a;stroke:#ffffff;stroke-linejoin:miter;stroke-width:0.75;" x="328.392581" xlink:href="#mf46f0b0721" y="104.974125"/>
     <use style="fill:#98df8a;stroke:#ffffff;stroke-linejoin:miter;stroke-width:0.75;" x="335.527845" xlink:href="#mf46f0b0721" y="104.90867"/>
     <use style="fill:#98df8a;stroke:#ffffff;stroke-linejoin:miter;stroke-width:0.75;" x="342.66311" xlink:href="#mf46f0b0721" y="104.646852"/>
     <use style="fill:#98df8a;stroke:#ffffff;stroke-linejoin:miter;stroke-width:0.75;" x="349.798375" xlink:href="#mf46f0b0721" y="102.87958"/>
     <use style="fill:#98df8a;stroke:#ffffff;stroke-linejoin:miter;stroke-width:0.75;" x="356.933639" xlink:href="#mf46f0b0721" y="102.486852"/>
     <use style="fill:#98df8a;stroke:#ffffff;stroke-linejoin:miter;stroke-width:0.75;" x="364.068904" xlink:href="#mf46f0b0721" y="102.02867"/>
     <use style="fill:#98df8a;stroke:#ffffff;stroke-linejoin:miter;stroke-width:0.75;" x="371.204169" xlink:href="#mf46f0b0721" y="102.02867"/>
     <use style="fill:#98df8a;stroke:#ffffff;stroke-linejoin:miter;stroke-width:0.75;" x="378.339434" xlink:href="#mf46f0b0721" y="101.701398"/>
     <use style="fill:#98df8a;stroke:#ffffff;stroke-linejoin:miter;stroke-width:0.75;" x="385.474698" xlink:href="#mf46f0b0721" y="101.570489"/>
     <use style="fill:#98df8a;stroke:#ffffff;stroke-linejoin:miter;stroke-width:0.75;" x="392.609963" xlink:href="#mf46f0b0721" y="101.505034"/>
     <use style="fill:#98df8a;stroke:#ffffff;stroke-linejoin:miter;stroke-width:0.75;" x="399.745228" xlink:href="#mf46f0b0721" y="101.243216"/>
     <use style="fill:#98df8a;stroke:#ffffff;stroke-linejoin:miter;stroke-width:0.75;" x="406.880493" xlink:href="#mf46f0b0721" y="101.243216"/>
     <use style="fill:#98df8a;stroke:#ffffff;stroke-linejoin:miter;stroke-width:0.75;" x="414.015757" xlink:href="#mf46f0b0721" y="101.046852"/>
     <use style="fill:#98df8a;stroke:#ffffff;stroke-linejoin:miter;stroke-width:0.75;" x="421.151022" xlink:href="#mf46f0b0721" y="101.046852"/>
     <use style="fill:#98df8a;stroke:#ffffff;stroke-linejoin:miter;stroke-width:0.75;" x="428.286287" xlink:href="#mf46f0b0721" y="100.785034"/>
     <use style="fill:#98df8a;stroke:#ffffff;stroke-linejoin:miter;stroke-width:0.75;" x="435.421552" xlink:href="#mf46f0b0721" y="100.71958"/>
     <use style="fill:#98df8a;stroke:#ffffff;stroke-linejoin:miter;stroke-width:0.75;" x="442.556816" xlink:href="#mf46f0b0721" y="100.261398"/>
     <use style="fill:#98df8a;stroke:#ffffff;stroke-linejoin:miter;stroke-width:0.75;" x="449.692081" xlink:href="#mf46f0b0721" y="100.130489"/>
     <use style="fill:#98df8a;stroke:#ffffff;stroke-linejoin:miter;stroke-width:0.75;" x="456.827346" xlink:href="#mf46f0b0721" y="100.065034"/>
     <use style="fill:#98df8a;stroke:#ffffff;stroke-linejoin:miter;stroke-width:0.75;" x="463.962611" xlink:href="#mf46f0b0721" y="100.065034"/>
     <use style="fill:#98df8a;stroke:#ffffff;stroke-linejoin:miter;stroke-width:0.75;" x="471.097875" xlink:href="#mf46f0b0721" y="100.065034"/>
     <use style="fill:#98df8a;stroke:#ffffff;stroke-linejoin:miter;stroke-width:0.75;" x="478.23314" xlink:href="#mf46f0b0721" y="100.065034"/>
     <use style="fill:#98df8a;stroke:#ffffff;stroke-linejoin:miter;stroke-width:0.75;" x="485.368405" xlink:href="#mf46f0b0721" y="99.934125"/>
     <use style="fill:#98df8a;stroke:#ffffff;stroke-linejoin:miter;stroke-width:0.75;" x="492.503669" xlink:href="#mf46f0b0721" y="98.494125"/>
     <use style="fill:#98df8a;stroke:#ffffff;stroke-linejoin:miter;stroke-width:0.75;" x="499.638934" xlink:href="#mf46f0b0721" y="98.494125"/>
     <use style="fill:#98df8a;stroke:#ffffff;stroke-linejoin:miter;stroke-width:0.75;" x="506.774199" xlink:href="#mf46f0b0721" y="98.42867"/>
     <use style="fill:#98df8a;stroke:#ffffff;stroke-linejoin:miter;stroke-width:0.75;" x="513.909464" xlink:href="#mf46f0b0721" y="98.363216"/>
     <use style="fill:#98df8a;stroke:#ffffff;stroke-linejoin:miter;stroke-width:0.75;" x="521.044728" xlink:href="#mf46f0b0721" y="98.363216"/>
     <use style="fill:#98df8a;stroke:#ffffff;stroke-linejoin:miter;stroke-width:0.75;" x="528.179993" xlink:href="#mf46f0b0721" y="98.297761"/>
     <use style="fill:#98df8a;stroke:#ffffff;stroke-linejoin:miter;stroke-width:0.75;" x="535.315258" xlink:href="#mf46f0b0721" y="80.42867"/>
     <use style="fill:#98df8a;stroke:#ffffff;stroke-linejoin:miter;stroke-width:0.75;" x="542.450523" xlink:href="#mf46f0b0721" y="80.166852"/>
     <use style="fill:#98df8a;stroke:#ffffff;stroke-linejoin:miter;stroke-width:0.75;" x="549.585787" xlink:href="#mf46f0b0721" y="80.166852"/>
     <use style="fill:#98df8a;stroke:#ffffff;stroke-linejoin:miter;stroke-width:0.75;" x="556.721052" xlink:href="#mf46f0b0721" y="60.334125"/>
     <use style="fill:#98df8a;stroke:#ffffff;stroke-linejoin:miter;stroke-width:0.75;" x="563.856317" xlink:href="#mf46f0b0721" y="60.334125"/>
     <use style="fill:#98df8a;stroke:#ffffff;stroke-linejoin:miter;stroke-width:0.75;" x="570.991582" xlink:href="#mf46f0b0721" y="60.334125"/>
     <use style="fill:#98df8a;stroke:#ffffff;stroke-linejoin:miter;stroke-width:0.75;" x="578.126846" xlink:href="#mf46f0b0721" y="59.810489"/>
     <use style="fill:#98df8a;stroke:#ffffff;stroke-linejoin:miter;stroke-width:0.75;" x="585.262111" xlink:href="#mf46f0b0721" y="59.417761"/>
     <use style="fill:#98df8a;stroke:#ffffff;stroke-linejoin:miter;stroke-width:0.75;" x="592.397376" xlink:href="#mf46f0b0721" y="58.043216"/>
     <use style="fill:#98df8a;stroke:#ffffff;stroke-linejoin:miter;stroke-width:0.75;" x="599.53264" xlink:href="#mf46f0b0721" y="57.38867"/>
     <use style="fill:#98df8a;stroke:#ffffff;stroke-linejoin:miter;stroke-width:0.75;" x="606.667905" xlink:href="#mf46f0b0721" y="57.257761"/>
     <use style="fill:#98df8a;stroke:#ffffff;stroke-linejoin:miter;stroke-width:0.75;" x="613.80317" xlink:href="#mf46f0b0721" y="57.192307"/>
     <use style="fill:#98df8a;stroke:#ffffff;stroke-linejoin:miter;stroke-width:0.75;" x="620.938435" xlink:href="#mf46f0b0721" y="57.192307"/>
     <use style="fill:#98df8a;stroke:#ffffff;stroke-linejoin:miter;stroke-width:0.75;" x="628.073699" xlink:href="#mf46f0b0721" y="57.126852"/>
     <use style="fill:#98df8a;stroke:#ffffff;stroke-linejoin:miter;stroke-width:0.75;" x="635.208964" xlink:href="#mf46f0b0721" y="57.126852"/>
     <use style="fill:#98df8a;stroke:#ffffff;stroke-linejoin:miter;stroke-width:0.75;" x="642.344229" xlink:href="#mf46f0b0721" y="57.126852"/>
     <use style="fill:#98df8a;stroke:#ffffff;stroke-linejoin:miter;stroke-width:0.75;" x="649.479494" xlink:href="#mf46f0b0721" y="57.126852"/>
     <use style="fill:#98df8a;stroke:#ffffff;stroke-linejoin:miter;stroke-width:0.75;" x="656.614758" xlink:href="#mf46f0b0721" y="57.126852"/>
     <use style="fill:#98df8a;stroke:#ffffff;stroke-linejoin:miter;stroke-width:0.75;" x="663.750023" xlink:href="#mf46f0b0721" y="56.865034"/>
     <use style="fill:#98df8a;stroke:#ffffff;stroke-linejoin:miter;stroke-width:0.75;" x="670.885288" xlink:href="#mf46f0b0721" y="56.865034"/>
     <use style="fill:#98df8a;stroke:#ffffff;stroke-linejoin:miter;stroke-width:0.75;" x="678.020553" xlink:href="#mf46f0b0721" y="56.865034"/>
     <use style="fill:#98df8a;stroke:#ffffff;stroke-linejoin:miter;stroke-width:0.75;" x="685.155817" xlink:href="#mf46f0b0721" y="56.865034"/>
     <use style="fill:#98df8a;stroke:#ffffff;stroke-linejoin:miter;stroke-width:0.75;" x="692.291082" xlink:href="#mf46f0b0721" y="56.865034"/>
     <use style="fill:#98df8a;stroke:#ffffff;stroke-linejoin:miter;stroke-width:0.75;" x="699.426347" xlink:href="#mf46f0b0721" y="56.865034"/>
     <use style="fill:#98df8a;stroke:#ffffff;stroke-linejoin:miter;stroke-width:0.75;" x="706.561612" xlink:href="#mf46f0b0721" y="56.865034"/>
     <use style="fill:#98df8a;stroke:#ffffff;stroke-linejoin:miter;stroke-width:0.75;" x="713.696876" xlink:href="#mf46f0b0721" y="56.865034"/>
     <use style="fill:#98df8a;stroke:#ffffff;stroke-linejoin:miter;stroke-width:0.75;" x="720.832141" xlink:href="#mf46f0b0721" y="56.734125"/>
     <use style="fill:#98df8a;stroke:#ffffff;stroke-linejoin:miter;stroke-width:0.75;" x="727.967406" xlink:href="#mf46f0b0721" y="56.66867"/>
     <use style="fill:#98df8a;stroke:#ffffff;stroke-linejoin:miter;stroke-width:0.75;" x="735.10267" xlink:href="#mf46f0b0721" y="56.66867"/>
    </g>
   </g>
   <g id="line2d_23"/>
   <g id="line2d_24"/>
   <g id="line2d_25">
    <path clip-path="url(#pdcd4cb78be)" d="M 735.10267 288.430125 
L 735.10267 22.318125 
" style="fill:none;stroke:#ff0000;stroke-linecap:square;stroke-width:1.5;"/>
   </g>
   <g id="patch_3">
    <path d="M 53.328125 258.072307 
L 53.328125 28.981398 
" style="fill:none;stroke:#000000;stroke-linecap:square;stroke-linejoin:miter;stroke-width:0.8;"/>
   </g>
   <g id="patch_4">
    <path d="M 85.79358 288.430125 
L 687.534239 288.430125 
" style="fill:none;stroke:#000000;stroke-linecap:square;stroke-linejoin:miter;stroke-width:0.8;"/>
   </g>
   <g id="text_23">
    <!-- libxml2-v2.9.2 (23h, 10 trials/fuzzer) -->
    <g transform="translate(300.87125 16.318125)scale(0.12 -0.12)">
     <defs>
      <path d="M 603 4863 
L 1178 4863 
L 1178 0 
L 603 0 
L 603 4863 
z
" id="DejaVuSans-6c" transform="scale(0.015625)"/>
      <path d="M 3513 3500 
L 2247 1797 
L 3578 0 
L 2900 0 
L 1881 1375 
L 863 0 
L 184 0 
L 1544 1831 
L 300 3500 
L 978 3500 
L 1906 2253 
L 2834 3500 
L 3513 3500 
z
" id="DejaVuSans-78" transform="scale(0.015625)"/>
      <path d="M 313 2009 
L 1997 2009 
L 1997 1497 
L 313 1497 
L 313 2009 
z
" id="DejaVuSans-2d" transform="scale(0.015625)"/>
      <path d="M 684 794 
L 1344 794 
L 1344 0 
L 684 0 
L 684 794 
z
" id="DejaVuSans-2e" transform="scale(0.015625)"/>
      <path d="M 750 794 
L 1409 794 
L 1409 256 
L 897 -744 
L 494 -744 
L 750 256 
L 750 794 
z
" id="DejaVuSans-2c" transform="scale(0.015625)"/>
      <path d="M 2834 3397 
L 2834 2853 
Q 2591 2978 2328 3040 
Q 2066 3103 1784 3103 
Q 1356 3103 1142 2972 
Q 928 2841 928 2578 
Q 928 2378 1081 2264 
Q 1234 2150 1697 2047 
L 1894 2003 
Q 2506 1872 2764 1633 
Q 3022 1394 3022 966 
Q 3022 478 2636 193 
Q 2250 -91 1575 -91 
Q 1294 -91 989 -36 
Q 684 19 347 128 
L 347 722 
Q 666 556 975 473 
Q 1284 391 1588 391 
Q 1994 391 2212 530 
Q 2431 669 2431 922 
Q 2431 1156 2273 1281 
Q 2116 1406 1581 1522 
L 1381 1569 
Q 847 1681 609 1914 
Q 372 2147 372 2553 
Q 372 3047 722 3315 
Q 1072 3584 1716 3584 
Q 2034 3584 2315 3537 
Q 2597 3491 2834 3397 
z
" id="DejaVuSans-73" transform="scale(0.015625)"/>
      <path d="M 1625 4666 
L 2156 4666 
L 531 -594 
L 0 -594 
L 1625 4666 
z
" id="DejaVuSans-2f" transform="scale(0.015625)"/>
      <path d="M 2375 4863 
L 2375 4384 
L 1825 4384 
Q 1516 4384 1395 4259 
Q 1275 4134 1275 3809 
L 1275 3500 
L 2222 3500 
L 2222 3053 
L 1275 3053 
L 1275 0 
L 697 0 
L 697 3053 
L 147 3053 
L 147 3500 
L 697 3500 
L 697 3744 
Q 697 4328 969 4595 
Q 1241 4863 1831 4863 
L 2375 4863 
z
" id="DejaVuSans-66" transform="scale(0.015625)"/>
      <path d="M 353 3500 
L 3084 3500 
L 3084 2975 
L 922 459 
L 3084 459 
L 3084 0 
L 275 0 
L 275 525 
L 2438 3041 
L 353 3041 
L 353 3500 
z
" id="DejaVuSans-7a" transform="scale(0.015625)"/>
     </defs>
     <use xlink:href="#DejaVuSans-6c"/>
     <use x="27.783203" xlink:href="#DejaVuSans-69"/>
     <use x="55.566406" xlink:href="#DejaVuSans-62"/>
     <use x="119.042969" xlink:href="#DejaVuSans-78"/>
     <use x="178.222656" xlink:href="#DejaVuSans-6d"/>
     <use x="275.634766" xlink:href="#DejaVuSans-6c"/>
     <use x="303.417969" xlink:href="#DejaVuSans-32"/>
     <use x="367.041016" xlink:href="#DejaVuSans-2d"/>
     <use x="400.5" xlink:href="#DejaVuSans-76"/>
     <use x="459.679688" xlink:href="#DejaVuSans-32"/>
     <use x="523.302734" xlink:href="#DejaVuSans-2e"/>
     <use x="555.089844" xlink:href="#DejaVuSans-39"/>
     <use x="618.712891" xlink:href="#DejaVuSans-2e"/>
     <use x="650.5" xlink:href="#DejaVuSans-32"/>
     <use x="714.123047" xlink:href="#DejaVuSans-20"/>
     <use x="745.910156" xlink:href="#DejaVuSans-28"/>
     <use x="784.923828" xlink:href="#DejaVuSans-32"/>
     <use x="848.546875" xlink:href="#DejaVuSans-33"/>
     <use x="912.169922" xlink:href="#DejaVuSans-68"/>
     <use x="975.548828" xlink:href="#DejaVuSans-2c"/>
     <use x="1007.335938" xlink:href="#DejaVuSans-20"/>
     <use x="1039.123047" xlink:href="#DejaVuSans-31"/>
     <use x="1102.746094" xlink:href="#DejaVuSans-30"/>
     <use x="1166.369141" xlink:href="#DejaVuSans-20"/>
     <use x="1198.15625" xlink:href="#DejaVuSans-74"/>
     <use x="1237.365234" xlink:href="#DejaVuSans-72"/>
     <use x="1278.478516" xlink:href="#DejaVuSans-69"/>
     <use x="1306.261719" xlink:href="#DejaVuSans-61"/>
     <use x="1367.541016" xlink:href="#DejaVuSans-6c"/>
     <use x="1395.324219" xlink:href="#DejaVuSans-73"/>
     <use x="1447.423828" xlink:href="#DejaVuSans-2f"/>
     <use x="1481.115234" xlink:href="#DejaVuSans-66"/>
     <use x="1516.320312" xlink:href="#DejaVuSans-75"/>
     <use x="1579.699219" xlink:href="#DejaVuSans-7a"/>
     <use x="1632.189453" xlink:href="#DejaVuSans-7a"/>
     <use x="1684.679688" xlink:href="#DejaVuSans-65"/>
     <use x="1746.203125" xlink:href="#DejaVuSans-72"/>
     <use x="1787.316406" xlink:href="#DejaVuSans-29"/>
    </g>
   </g>
   <g id="legend_1">
    <g id="line2d_26">
     <path d="M 771.568125 30.416563 
L 791.568125 30.416563 
" style="fill:none;stroke:#1f77b4;stroke-linecap:square;stroke-width:1.5;"/>
    </g>
    <g id="line2d_27">
     <defs>
      <path d="M 0 3 
C 0.795609 3 1.55874 2.683901 2.12132 2.12132 
C 2.683901 1.55874 3 0.795609 3 0 
C 3 -0.795609 2.683901 -1.55874 2.12132 -2.12132 
C 1.55874 -2.683901 0.795609 -3 0 -3 
C -0.795609 -3 -1.55874 -2.683901 -2.12132 -2.12132 
C -2.683901 -1.55874 -3 -0.795609 -3 0 
C -3 0.795609 -2.683901 1.55874 -2.12132 2.12132 
C -1.55874 2.683901 -0.795609 3 0 3 
z
" id="m4e6c1827ed" style="stroke:#1f77b4;"/>
     </defs>
     <g>
      <use style="fill:#1f77b4;stroke:#1f77b4;" x="781.568125" xlink:href="#m4e6c1827ed" y="30.416563"/>
     </g>
    </g>
    <g id="text_24">
     <!-- fuzzolic_aflplusplus_z3 -->
     <g transform="translate(799.568125 33.916563)scale(0.1 -0.1)">
      <defs>
       <path d="M 3263 -1063 
L 3263 -1509 
L -63 -1509 
L -63 -1063 
L 3263 -1063 
z
" id="DejaVuSans-5f" transform="scale(0.015625)"/>
       <path d="M 1159 525 
L 1159 -1331 
L 581 -1331 
L 581 3500 
L 1159 3500 
L 1159 2969 
Q 1341 3281 1617 3432 
Q 1894 3584 2278 3584 
Q 2916 3584 3314 3078 
Q 3713 2572 3713 1747 
Q 3713 922 3314 415 
Q 2916 -91 2278 -91 
Q 1894 -91 1617 61 
Q 1341 213 1159 525 
z
M 3116 1747 
Q 3116 2381 2855 2742 
Q 2594 3103 2138 3103 
Q 1681 3103 1420 2742 
Q 1159 2381 1159 1747 
Q 1159 1113 1420 752 
Q 1681 391 2138 391 
Q 2594 391 2855 752 
Q 3116 1113 3116 1747 
z
" id="DejaVuSans-70" transform="scale(0.015625)"/>
      </defs>
      <use xlink:href="#DejaVuSans-66"/>
      <use x="35.205078" xlink:href="#DejaVuSans-75"/>
      <use x="98.583984" xlink:href="#DejaVuSans-7a"/>
      <use x="151.074219" xlink:href="#DejaVuSans-7a"/>
      <use x="203.564453" xlink:href="#DejaVuSans-6f"/>
      <use x="264.746094" xlink:href="#DejaVuSans-6c"/>
      <use x="292.529297" xlink:href="#DejaVuSans-69"/>
      <use x="320.3125" xlink:href="#DejaVuSans-63"/>
      <use x="375.292969" xlink:href="#DejaVuSans-5f"/>
      <use x="425.292969" xlink:href="#DejaVuSans-61"/>
      <use x="486.572266" xlink:href="#DejaVuSans-66"/>
      <use x="521.777344" xlink:href="#DejaVuSans-6c"/>
      <use x="549.560547" xlink:href="#DejaVuSans-70"/>
      <use x="613.037109" xlink:href="#DejaVuSans-6c"/>
      <use x="640.820312" xlink:href="#DejaVuSans-75"/>
      <use x="704.199219" xlink:href="#DejaVuSans-73"/>
      <use x="756.298828" xlink:href="#DejaVuSans-70"/>
      <use x="819.775391" xlink:href="#DejaVuSans-6c"/>
      <use x="847.558594" xlink:href="#DejaVuSans-75"/>
      <use x="910.9375" xlink:href="#DejaVuSans-73"/>
      <use x="963.037109" xlink:href="#DejaVuSans-5f"/>
      <use x="1013.037109" xlink:href="#DejaVuSans-7a"/>
      <use x="1065.527344" xlink:href="#DejaVuSans-33"/>
     </g>
    </g>
    <g id="line2d_28">
     <path d="M 771.568125 45.372813 
L 791.568125 45.372813 
" style="fill:none;stroke:#98df8a;stroke-linecap:square;stroke-width:1.5;"/>
    </g>
    <g id="line2d_29">
     <defs>
      <path d="M -0 3 
L 3 -3 
L -3 -3 
z
" id="m1978911676" style="stroke:#98df8a;stroke-linejoin:miter;"/>
     </defs>
     <g>
      <use style="fill:#98df8a;stroke:#98df8a;stroke-linejoin:miter;" x="781.568125" xlink:href="#m1978911676" y="45.372813"/>
     </g>
    </g>
    <g id="text_25">
     <!-- sydr_aflplusplus -->
     <g transform="translate(799.568125 48.872813)scale(0.1 -0.1)">
      <defs>
       <path d="M 2059 -325 
Q 1816 -950 1584 -1140 
Q 1353 -1331 966 -1331 
L 506 -1331 
L 506 -850 
L 844 -850 
Q 1081 -850 1212 -737 
Q 1344 -625 1503 -206 
L 1606 56 
L 191 3500 
L 800 3500 
L 1894 763 
L 2988 3500 
L 3597 3500 
L 2059 -325 
z
" id="DejaVuSans-79" transform="scale(0.015625)"/>
      </defs>
      <use xlink:href="#DejaVuSans-73"/>
      <use x="52.099609" xlink:href="#DejaVuSans-79"/>
      <use x="111.279297" xlink:href="#DejaVuSans-64"/>
      <use x="174.755859" xlink:href="#DejaVuSans-72"/>
      <use x="215.869141" xlink:href="#DejaVuSans-5f"/>
      <use x="265.869141" xlink:href="#DejaVuSans-61"/>
      <use x="327.148438" xlink:href="#DejaVuSans-66"/>
      <use x="362.353516" xlink:href="#DejaVuSans-6c"/>
      <use x="390.136719" xlink:href="#DejaVuSans-70"/>
      <use x="453.613281" xlink:href="#DejaVuSans-6c"/>
      <use x="481.396484" xlink:href="#DejaVuSans-75"/>
      <use x="544.775391" xlink:href="#DejaVuSans-73"/>
      <use x="596.875" xlink:href="#DejaVuSans-70"/>
      <use x="660.351562" xlink:href="#DejaVuSans-6c"/>
      <use x="688.134766" xlink:href="#DejaVuSans-75"/>
      <use x="751.513672" xlink:href="#DejaVuSans-73"/>
     </g>
    </g>
   </g>
  </g>
 </g>
 <defs>
  <clipPath id="pdcd4cb78be">
   <rect height="266.112" width="714.24" x="53.328125" y="22.318125"/>
  </clipPath>
 </defs>
</svg>
