<?xml version="1.0" encoding="utf-8" standalone="no"?>
<!DOCTYPE svg PUBLIC "-//W3C//DTD SVG 1.1//EN"
  "http://www.w3.org/Graphics/SVG/1.1/DTD/svg11.dtd">
<svg height="325.986375pt" version="1.1" viewBox="0 0 917.318125 325.986375" width="917.318125pt" xmlns="http://www.w3.org/2000/svg" xmlns:xlink="http://www.w3.org/1999/xlink">
 <metadata>
  <rdf:RDF xmlns:cc="http://creativecommons.org/ns#" xmlns:dc="http://purl.org/dc/elements/1.1/" xmlns:rdf="http://www.w3.org/1999/02/22-rdf-syntax-ns#">
   <cc:Work>
    <dc:type rdf:resource="http://purl.org/dc/dcmitype/StillImage"/>
    <dc:date>2022-10-24T21:03:54.024709</dc:date>
    <dc:format>image/svg+xml</dc:format>
    <dc:creator>
     <cc:Agent>
      <dc:title>Matplotlib v3.4.1, https://matplotlib.org/</dc:title>
     </cc:Agent>
    </dc:creator>
   </cc:Work>
  </rdf:RDF>
 </metadata>
 <defs>
  <style type="text/css">*{stroke-linecap:butt;stroke-linejoin:round;}</style>
 </defs>
 <g id="figure_1">
  <g id="patch_1">
   <path d="M 0 325.986375 
L 917.318125 325.986375 
L 917.318125 0 
L 0 0 
z
" style="fill:#ffffff;"/>
  </g>
  <g id="axes_1">
   <g id="patch_2">
    <path d="M 46.965625 288.430125 
L 761.205625 288.430125 
L 761.205625 22.318125 
L 46.965625 22.318125 
z
" style="fill:#ffffff;"/>
   </g>
   <g id="PolyCollection_1">
    <defs>
     <path d="M 79.43108 -190.121927 
L 79.43108 -49.65225 
L 86.566344 -96.475476 
L 93.701609 -127.69096 
L 100.836874 -158.906444 
L 107.972138 -158.906444 
L 115.107403 -166.710315 
L 122.242668 -174.514185 
L 129.377933 -182.318056 
L 136.513197 -174.514185 
L 143.648462 -190.121927 
L 150.783727 -174.514185 
L 157.918992 -182.318056 
L 165.054256 -182.318056 
L 172.189521 -174.514185 
L 179.324786 -174.514185 
L 186.460051 -174.514185 
L 193.595315 -190.121927 
L 200.73058 -190.121927 
L 207.865845 -190.121927 
L 215.00111 -190.121927 
L 222.136374 -190.121927 
L 229.271639 -190.121927 
L 236.406904 -197.925798 
L 243.542168 -205.534573 
L 250.677433 -197.925798 
L 257.812698 -197.925798 
L 264.947963 -205.729669 
L 272.083227 -197.925798 
L 279.218492 -205.729669 
L 286.353757 -197.925798 
L 293.489022 -205.729669 
L 300.624286 -197.925798 
L 307.759551 -205.729669 
L 314.894816 -197.925798 
L 322.030081 -197.925798 
L 329.165345 -197.925798 
L 336.30061 -205.729669 
L 343.435875 -205.729669 
L 350.571139 -205.729669 
L 357.706404 -205.729669 
L 364.841669 -205.729669 
L 371.976934 -205.729669 
L 379.112198 -205.729669 
L 386.247463 -197.925798 
L 393.382728 -205.729669 
L 400.517993 -205.729669 
L 407.653257 -205.729669 
L 414.788522 -197.925798 
L 421.923787 -205.729669 
L 429.059052 -205.729669 
L 436.194316 -197.925798 
L 443.329581 -205.729669 
L 450.464846 -205.729669 
L 457.600111 -205.729669 
L 464.735375 -205.729669 
L 471.87064 -205.729669 
L 479.005905 -205.729669 
L 486.141169 -205.729669 
L 493.276434 -229.141282 
L 500.411699 -221.337411 
L 507.546964 -229.141282 
L 514.682228 -229.141282 
L 521.817493 -228.946185 
L 528.952758 -229.141282 
L 536.088023 -229.141282 
L 543.223287 -229.141282 
L 550.358552 -229.141282 
L 557.493817 -236.945153 
L 564.629082 -236.945153 
L 571.764346 -229.141282 
L 578.899611 -229.141282 
L 586.034876 -229.141282 
L 593.17014 -229.141282 
L 600.305405 -229.141282 
L 607.44067 -221.337411 
L 614.575935 -229.141282 
L 621.711199 -229.141282 
L 628.846464 -229.141282 
L 635.981729 -236.945153 
L 643.116994 -236.750056 
L 650.252258 -229.141282 
L 657.387523 -236.945153 
L 664.522788 -236.750056 
L 671.658053 -229.141282 
L 678.793317 -229.141282 
L 685.928582 -221.337411 
L 693.063847 -229.141282 
L 700.199112 -229.141282 
L 707.334376 -229.141282 
L 714.469641 -228.946185 
L 721.604906 -236.945153 
L 728.74017 -229.141282 
L 728.74017 -283.963476 
L 728.74017 -283.963476 
L 721.604906 -291.57225 
L 714.469641 -291.57225 
L 707.334376 -283.963476 
L 700.199112 -291.57225 
L 693.063847 -291.57225 
L 685.928582 -283.768379 
L 678.793317 -291.57225 
L 671.658053 -291.57225 
L 664.522788 -283.963476 
L 657.387523 -283.963476 
L 650.252258 -291.57225 
L 643.116994 -291.57225 
L 635.981729 -291.57225 
L 628.846464 -291.57225 
L 621.711199 -291.57225 
L 614.575935 -291.57225 
L 607.44067 -283.768379 
L 600.305405 -283.768379 
L 593.17014 -291.57225 
L 586.034876 -283.768379 
L 578.899611 -283.768379 
L 571.764346 -291.57225 
L 564.629082 -291.57225 
L 557.493817 -283.768379 
L 550.358552 -283.768379 
L 543.223287 -291.57225 
L 536.088023 -291.57225 
L 528.952758 -291.57225 
L 521.817493 -291.57225 
L 514.682228 -291.57225 
L 507.546964 -283.768379 
L 500.411699 -283.768379 
L 493.276434 -283.768379 
L 486.141169 -291.57225 
L 479.005905 -291.57225 
L 471.87064 -291.57225 
L 464.735375 -283.768379 
L 457.600111 -283.768379 
L 450.464846 -283.768379 
L 443.329581 -283.768379 
L 436.194316 -283.768379 
L 429.059052 -283.768379 
L 421.923787 -283.768379 
L 414.788522 -283.768379 
L 407.653257 -283.768379 
L 400.517993 -283.768379 
L 393.382728 -283.768379 
L 386.247463 -283.768379 
L 379.112198 -283.768379 
L 371.976934 -283.768379 
L 364.841669 -283.768379 
L 357.706404 -283.768379 
L 350.571139 -283.768379 
L 343.435875 -283.768379 
L 336.30061 -283.768379 
L 329.165345 -283.768379 
L 322.030081 -283.768379 
L 314.894816 -283.768379 
L 307.759551 -283.768379 
L 300.624286 -283.768379 
L 293.489022 -283.768379 
L 286.353757 -283.768379 
L 279.218492 -283.768379 
L 272.083227 -283.768379 
L 264.947963 -283.768379 
L 257.812698 -283.768379 
L 250.677433 -283.768379 
L 243.542168 -283.768379 
L 236.406904 -283.768379 
L 229.271639 -283.768379 
L 222.136374 -283.768379 
L 215.00111 -283.768379 
L 207.865845 -283.768379 
L 200.73058 -283.768379 
L 193.595315 -283.768379 
L 186.460051 -244.749024 
L 179.324786 -237.14025 
L 172.189521 -244.749024 
L 165.054256 -244.749024 
L 157.918992 -244.749024 
L 150.783727 -244.749024 
L 143.648462 -205.729669 
L 136.513197 -205.729669 
L 129.377933 -205.729669 
L 122.242668 -205.729669 
L 115.107403 -205.729669 
L 107.972138 -205.729669 
L 100.836874 -205.729669 
L 93.701609 -197.925798 
L 86.566344 -197.925798 
L 79.43108 -190.121927 
z
" id="me93f94b8b0" style="stroke:#1f77b4;stroke-opacity:0.2;"/>
    </defs>
    <g clip-path="url(#pf691192d41)">
     <use style="fill:#1f77b4;fill-opacity:0.2;stroke:#1f77b4;stroke-opacity:0.2;" x="0" xlink:href="#me93f94b8b0" y="325.986375"/>
    </g>
   </g>
   <g id="PolyCollection_2">
    <defs>
     <path d="M 79.43108 -190.121927 
L 79.43108 -80.867734 
L 86.566344 -112.083218 
L 93.701609 -143.103605 
L 100.836874 -143.298702 
L 107.972138 -143.298702 
L 115.107403 -143.298702 
L 122.242668 -143.298702 
L 129.377933 -143.298702 
L 136.513197 -143.298702 
L 143.648462 -143.298702 
L 150.783727 -143.298702 
L 157.918992 -143.298702 
L 165.054256 -166.710315 
L 172.189521 -166.710315 
L 179.324786 -190.121927 
L 186.460051 -166.710315 
L 193.595315 -174.514185 
L 200.73058 -174.514185 
L 207.865845 -174.514185 
L 215.00111 -190.121927 
L 222.136374 -190.121927 
L 229.271639 -190.121927 
L 236.406904 -190.121927 
L 243.542168 -190.121927 
L 250.677433 -190.121927 
L 257.812698 -190.121927 
L 264.947963 -190.121927 
L 272.083227 -190.121927 
L 279.218492 -190.121927 
L 286.353757 -190.121927 
L 293.489022 -190.121927 
L 300.624286 -190.121927 
L 307.759551 -190.121927 
L 314.894816 -190.121927 
L 322.030081 -190.121927 
L 329.165345 -190.121927 
L 336.30061 -190.121927 
L 343.435875 -190.121927 
L 350.571139 -190.121927 
L 357.706404 -190.121927 
L 364.841669 -190.121927 
L 371.976934 -190.121927 
L 379.112198 -190.121927 
L 386.247463 -190.121927 
L 393.382728 -190.121927 
L 400.517993 -190.121927 
L 407.653257 -190.121927 
L 414.788522 -190.121927 
L 421.923787 -190.121927 
L 429.059052 -190.121927 
L 436.194316 -190.121927 
L 443.329581 -190.121927 
L 450.464846 -190.121927 
L 457.600111 -190.121927 
L 464.735375 -190.121927 
L 471.87064 -190.121927 
L 479.005905 -197.925798 
L 486.141169 -197.925798 
L 493.276434 -197.925798 
L 500.411699 -197.925798 
L 507.546964 -197.925798 
L 514.682228 -205.729669 
L 521.817493 -205.729669 
L 528.952758 -205.729669 
L 536.088023 -205.729669 
L 543.223287 -205.729669 
L 550.358552 -205.729669 
L 557.493817 -205.729669 
L 564.629082 -205.729669 
L 571.764346 -205.729669 
L 578.899611 -205.729669 
L 586.034876 -205.729669 
L 593.17014 -205.729669 
L 600.305405 -205.729669 
L 607.44067 -205.729669 
L 614.575935 -205.729669 
L 621.711199 -205.729669 
L 628.846464 -205.729669 
L 635.981729 -205.729669 
L 643.116994 -205.729669 
L 650.252258 -205.729669 
L 657.387523 -205.729669 
L 664.522788 -205.729669 
L 671.658053 -205.729669 
L 678.793317 -205.729669 
L 685.928582 -205.729669 
L 693.063847 -205.729669 
L 700.199112 -205.729669 
L 707.334376 -205.729669 
L 714.469641 -205.729669 
L 721.604906 -205.729669 
L 728.74017 -205.729669 
L 728.74017 -283.768379 
L 728.74017 -283.768379 
L 721.604906 -283.768379 
L 714.469641 -283.768379 
L 707.334376 -283.768379 
L 700.199112 -283.768379 
L 693.063847 -283.768379 
L 685.928582 -283.768379 
L 678.793317 -283.768379 
L 671.658053 -283.768379 
L 664.522788 -283.768379 
L 657.387523 -283.768379 
L 650.252258 -283.768379 
L 643.116994 -283.768379 
L 635.981729 -283.768379 
L 628.846464 -283.768379 
L 621.711199 -283.768379 
L 614.575935 -283.768379 
L 607.44067 -283.768379 
L 600.305405 -283.768379 
L 593.17014 -283.768379 
L 586.034876 -283.768379 
L 578.899611 -283.768379 
L 571.764346 -283.768379 
L 564.629082 -283.768379 
L 557.493817 -283.768379 
L 550.358552 -268.160637 
L 543.223287 -268.160637 
L 536.088023 -268.160637 
L 528.952758 -268.160637 
L 521.817493 -268.160637 
L 514.682228 -275.964508 
L 507.546964 -268.160637 
L 500.411699 -268.160637 
L 493.276434 -268.160637 
L 486.141169 -268.160637 
L 479.005905 -268.160637 
L 471.87064 -268.160637 
L 464.735375 -268.160637 
L 457.600111 -268.160637 
L 450.464846 -268.160637 
L 443.329581 -268.160637 
L 436.194316 -268.355734 
L 429.059052 -268.160637 
L 421.923787 -275.964508 
L 414.788522 -268.160637 
L 407.653257 -268.160637 
L 400.517993 -268.160637 
L 393.382728 -268.160637 
L 386.247463 -268.160637 
L 379.112198 -268.160637 
L 371.976934 -268.160637 
L 364.841669 -268.160637 
L 357.706404 -236.945153 
L 350.571139 -236.945153 
L 343.435875 -205.729669 
L 336.30061 -205.729669 
L 329.165345 -205.729669 
L 322.030081 -205.729669 
L 314.894816 -205.729669 
L 307.759551 -205.729669 
L 300.624286 -205.729669 
L 293.489022 -205.729669 
L 286.353757 -205.729669 
L 279.218492 -205.729669 
L 272.083227 -205.729669 
L 264.947963 -205.729669 
L 257.812698 -205.729669 
L 250.677433 -205.729669 
L 243.542168 -205.729669 
L 236.406904 -205.729669 
L 229.271639 -205.729669 
L 222.136374 -205.729669 
L 215.00111 -205.729669 
L 207.865845 -205.729669 
L 200.73058 -205.729669 
L 193.595315 -205.729669 
L 186.460051 -205.729669 
L 179.324786 -205.729669 
L 172.189521 -205.729669 
L 165.054256 -205.729669 
L 157.918992 -205.729669 
L 150.783727 -205.729669 
L 143.648462 -205.729669 
L 136.513197 -205.729669 
L 129.377933 -205.729669 
L 122.242668 -205.729669 
L 115.107403 -205.729669 
L 107.972138 -205.729669 
L 100.836874 -205.729669 
L 93.701609 -205.729669 
L 86.566344 -190.121927 
L 79.43108 -190.121927 
z
" id="m34ee12dd13" style="stroke:#98df8a;stroke-opacity:0.2;"/>
    </defs>
    <g clip-path="url(#pf691192d41)">
     <use style="fill:#98df8a;fill-opacity:0.2;stroke:#98df8a;stroke-opacity:0.2;" x="0" xlink:href="#m34ee12dd13" y="325.986375"/>
    </g>
   </g>
   <g id="matplotlib.axis_1">
    <g id="xtick_1">
     <g id="line2d_1">
      <defs>
       <path d="M 0 0 
L 0 3.5 
" id="m5a85364d92" style="stroke:#000000;stroke-width:0.8;"/>
      </defs>
      <g>
       <use style="stroke:#000000;stroke-width:0.8;" x="79.43108" xlink:href="#m5a85364d92" y="288.430125"/>
      </g>
     </g>
     <g id="text_1">
      <!-- 15m -->
      <g transform="translate(68.198267 303.028562)scale(0.1 -0.1)">
       <defs>
        <path d="M 794 531 
L 1825 531 
L 1825 4091 
L 703 3866 
L 703 4441 
L 1819 4666 
L 2450 4666 
L 2450 531 
L 3481 531 
L 3481 0 
L 794 0 
L 794 531 
z
" id="DejaVuSans-31" transform="scale(0.015625)"/>
        <path d="M 691 4666 
L 3169 4666 
L 3169 4134 
L 1269 4134 
L 1269 2991 
Q 1406 3038 1543 3061 
Q 1681 3084 1819 3084 
Q 2600 3084 3056 2656 
Q 3513 2228 3513 1497 
Q 3513 744 3044 326 
Q 2575 -91 1722 -91 
Q 1428 -91 1123 -41 
Q 819 9 494 109 
L 494 744 
Q 775 591 1075 516 
Q 1375 441 1709 441 
Q 2250 441 2565 725 
Q 2881 1009 2881 1497 
Q 2881 1984 2565 2268 
Q 2250 2553 1709 2553 
Q 1456 2553 1204 2497 
Q 953 2441 691 2322 
L 691 4666 
z
" id="DejaVuSans-35" transform="scale(0.015625)"/>
        <path d="M 3328 2828 
Q 3544 3216 3844 3400 
Q 4144 3584 4550 3584 
Q 5097 3584 5394 3201 
Q 5691 2819 5691 2113 
L 5691 0 
L 5113 0 
L 5113 2094 
Q 5113 2597 4934 2840 
Q 4756 3084 4391 3084 
Q 3944 3084 3684 2787 
Q 3425 2491 3425 1978 
L 3425 0 
L 2847 0 
L 2847 2094 
Q 2847 2600 2669 2842 
Q 2491 3084 2119 3084 
Q 1678 3084 1418 2786 
Q 1159 2488 1159 1978 
L 1159 0 
L 581 0 
L 581 3500 
L 1159 3500 
L 1159 2956 
Q 1356 3278 1631 3431 
Q 1906 3584 2284 3584 
Q 2666 3584 2933 3390 
Q 3200 3197 3328 2828 
z
" id="DejaVuSans-6d" transform="scale(0.015625)"/>
       </defs>
       <use xlink:href="#DejaVuSans-31"/>
       <use x="63.623047" xlink:href="#DejaVuSans-35"/>
       <use x="127.246094" xlink:href="#DejaVuSans-6d"/>
      </g>
     </g>
    </g>
    <g id="xtick_2">
     <g id="line2d_2">
      <g>
       <use style="stroke:#000000;stroke-width:0.8;" x="134.134776" xlink:href="#m5a85364d92" y="288.430125"/>
      </g>
     </g>
     <g id="text_2">
      <!-- 2h:10m -->
      <g transform="translate(114.867588 303.028562)scale(0.1 -0.1)">
       <defs>
        <path d="M 1228 531 
L 3431 531 
L 3431 0 
L 469 0 
L 469 531 
Q 828 903 1448 1529 
Q 2069 2156 2228 2338 
Q 2531 2678 2651 2914 
Q 2772 3150 2772 3378 
Q 2772 3750 2511 3984 
Q 2250 4219 1831 4219 
Q 1534 4219 1204 4116 
Q 875 4013 500 3803 
L 500 4441 
Q 881 4594 1212 4672 
Q 1544 4750 1819 4750 
Q 2544 4750 2975 4387 
Q 3406 4025 3406 3419 
Q 3406 3131 3298 2873 
Q 3191 2616 2906 2266 
Q 2828 2175 2409 1742 
Q 1991 1309 1228 531 
z
" id="DejaVuSans-32" transform="scale(0.015625)"/>
        <path d="M 3513 2113 
L 3513 0 
L 2938 0 
L 2938 2094 
Q 2938 2591 2744 2837 
Q 2550 3084 2163 3084 
Q 1697 3084 1428 2787 
Q 1159 2491 1159 1978 
L 1159 0 
L 581 0 
L 581 4863 
L 1159 4863 
L 1159 2956 
Q 1366 3272 1645 3428 
Q 1925 3584 2291 3584 
Q 2894 3584 3203 3211 
Q 3513 2838 3513 2113 
z
" id="DejaVuSans-68" transform="scale(0.015625)"/>
        <path d="M 750 794 
L 1409 794 
L 1409 0 
L 750 0 
L 750 794 
z
M 750 3309 
L 1409 3309 
L 1409 2516 
L 750 2516 
L 750 3309 
z
" id="DejaVuSans-3a" transform="scale(0.015625)"/>
        <path d="M 2034 4250 
Q 1547 4250 1301 3770 
Q 1056 3291 1056 2328 
Q 1056 1369 1301 889 
Q 1547 409 2034 409 
Q 2525 409 2770 889 
Q 3016 1369 3016 2328 
Q 3016 3291 2770 3770 
Q 2525 4250 2034 4250 
z
M 2034 4750 
Q 2819 4750 3233 4129 
Q 3647 3509 3647 2328 
Q 3647 1150 3233 529 
Q 2819 -91 2034 -91 
Q 1250 -91 836 529 
Q 422 1150 422 2328 
Q 422 3509 836 4129 
Q 1250 4750 2034 4750 
z
" id="DejaVuSans-30" transform="scale(0.015625)"/>
       </defs>
       <use xlink:href="#DejaVuSans-32"/>
       <use x="63.623047" xlink:href="#DejaVuSans-68"/>
       <use x="127.001953" xlink:href="#DejaVuSans-3a"/>
       <use x="160.693359" xlink:href="#DejaVuSans-31"/>
       <use x="224.316406" xlink:href="#DejaVuSans-30"/>
       <use x="287.939453" xlink:href="#DejaVuSans-6d"/>
      </g>
     </g>
    </g>
    <g id="xtick_3">
     <g id="line2d_3">
      <g>
       <use style="stroke:#000000;stroke-width:0.8;" x="188.838472" xlink:href="#m5a85364d92" y="288.430125"/>
      </g>
     </g>
     <g id="text_3">
      <!-- 4h:5m -->
      <g transform="translate(172.752535 303.028562)scale(0.1 -0.1)">
       <defs>
        <path d="M 2419 4116 
L 825 1625 
L 2419 1625 
L 2419 4116 
z
M 2253 4666 
L 3047 4666 
L 3047 1625 
L 3713 1625 
L 3713 1100 
L 3047 1100 
L 3047 0 
L 2419 0 
L 2419 1100 
L 313 1100 
L 313 1709 
L 2253 4666 
z
" id="DejaVuSans-34" transform="scale(0.015625)"/>
       </defs>
       <use xlink:href="#DejaVuSans-34"/>
       <use x="63.623047" xlink:href="#DejaVuSans-68"/>
       <use x="127.001953" xlink:href="#DejaVuSans-3a"/>
       <use x="160.693359" xlink:href="#DejaVuSans-35"/>
       <use x="224.316406" xlink:href="#DejaVuSans-6d"/>
      </g>
     </g>
    </g>
    <g id="xtick_4">
     <g id="line2d_4">
      <g>
       <use style="stroke:#000000;stroke-width:0.8;" x="243.542168" xlink:href="#m5a85364d92" y="288.430125"/>
      </g>
     </g>
     <g id="text_4">
      <!-- 6h -->
      <g transform="translate(237.192168 303.028562)scale(0.1 -0.1)">
       <defs>
        <path d="M 2113 2584 
Q 1688 2584 1439 2293 
Q 1191 2003 1191 1497 
Q 1191 994 1439 701 
Q 1688 409 2113 409 
Q 2538 409 2786 701 
Q 3034 994 3034 1497 
Q 3034 2003 2786 2293 
Q 2538 2584 2113 2584 
z
M 3366 4563 
L 3366 3988 
Q 3128 4100 2886 4159 
Q 2644 4219 2406 4219 
Q 1781 4219 1451 3797 
Q 1122 3375 1075 2522 
Q 1259 2794 1537 2939 
Q 1816 3084 2150 3084 
Q 2853 3084 3261 2657 
Q 3669 2231 3669 1497 
Q 3669 778 3244 343 
Q 2819 -91 2113 -91 
Q 1303 -91 875 529 
Q 447 1150 447 2328 
Q 447 3434 972 4092 
Q 1497 4750 2381 4750 
Q 2619 4750 2861 4703 
Q 3103 4656 3366 4563 
z
" id="DejaVuSans-36" transform="scale(0.015625)"/>
       </defs>
       <use xlink:href="#DejaVuSans-36"/>
       <use x="63.623047" xlink:href="#DejaVuSans-68"/>
      </g>
     </g>
    </g>
    <g id="xtick_5">
     <g id="line2d_5">
      <g>
       <use style="stroke:#000000;stroke-width:0.8;" x="298.245865" xlink:href="#m5a85364d92" y="288.430125"/>
      </g>
     </g>
     <g id="text_5">
      <!-- 7h:55m -->
      <g transform="translate(278.978677 303.028562)scale(0.1 -0.1)">
       <defs>
        <path d="M 525 4666 
L 3525 4666 
L 3525 4397 
L 1831 0 
L 1172 0 
L 2766 4134 
L 525 4134 
L 525 4666 
z
" id="DejaVuSans-37" transform="scale(0.015625)"/>
       </defs>
       <use xlink:href="#DejaVuSans-37"/>
       <use x="63.623047" xlink:href="#DejaVuSans-68"/>
       <use x="127.001953" xlink:href="#DejaVuSans-3a"/>
       <use x="160.693359" xlink:href="#DejaVuSans-35"/>
       <use x="224.316406" xlink:href="#DejaVuSans-35"/>
       <use x="287.939453" xlink:href="#DejaVuSans-6d"/>
      </g>
     </g>
    </g>
    <g id="xtick_6">
     <g id="line2d_6">
      <g>
       <use style="stroke:#000000;stroke-width:0.8;" x="352.949561" xlink:href="#m5a85364d92" y="288.430125"/>
      </g>
     </g>
     <g id="text_6">
      <!-- 9h:50m -->
      <g transform="translate(333.682374 303.028562)scale(0.1 -0.1)">
       <defs>
        <path d="M 703 97 
L 703 672 
Q 941 559 1184 500 
Q 1428 441 1663 441 
Q 2288 441 2617 861 
Q 2947 1281 2994 2138 
Q 2813 1869 2534 1725 
Q 2256 1581 1919 1581 
Q 1219 1581 811 2004 
Q 403 2428 403 3163 
Q 403 3881 828 4315 
Q 1253 4750 1959 4750 
Q 2769 4750 3195 4129 
Q 3622 3509 3622 2328 
Q 3622 1225 3098 567 
Q 2575 -91 1691 -91 
Q 1453 -91 1209 -44 
Q 966 3 703 97 
z
M 1959 2075 
Q 2384 2075 2632 2365 
Q 2881 2656 2881 3163 
Q 2881 3666 2632 3958 
Q 2384 4250 1959 4250 
Q 1534 4250 1286 3958 
Q 1038 3666 1038 3163 
Q 1038 2656 1286 2365 
Q 1534 2075 1959 2075 
z
" id="DejaVuSans-39" transform="scale(0.015625)"/>
       </defs>
       <use xlink:href="#DejaVuSans-39"/>
       <use x="63.623047" xlink:href="#DejaVuSans-68"/>
       <use x="127.001953" xlink:href="#DejaVuSans-3a"/>
       <use x="160.693359" xlink:href="#DejaVuSans-35"/>
       <use x="224.316406" xlink:href="#DejaVuSans-30"/>
       <use x="287.939453" xlink:href="#DejaVuSans-6d"/>
      </g>
     </g>
    </g>
    <g id="xtick_7">
     <g id="line2d_7">
      <g>
       <use style="stroke:#000000;stroke-width:0.8;" x="407.653257" xlink:href="#m5a85364d92" y="288.430125"/>
      </g>
     </g>
     <g id="text_7">
      <!-- 11h:45m -->
      <g transform="translate(385.20482 303.028562)scale(0.1 -0.1)">
       <use xlink:href="#DejaVuSans-31"/>
       <use x="63.623047" xlink:href="#DejaVuSans-31"/>
       <use x="127.246094" xlink:href="#DejaVuSans-68"/>
       <use x="190.625" xlink:href="#DejaVuSans-3a"/>
       <use x="224.316406" xlink:href="#DejaVuSans-34"/>
       <use x="287.939453" xlink:href="#DejaVuSans-35"/>
       <use x="351.5625" xlink:href="#DejaVuSans-6d"/>
      </g>
     </g>
    </g>
    <g id="xtick_8">
     <g id="line2d_8">
      <g>
       <use style="stroke:#000000;stroke-width:0.8;" x="462.356954" xlink:href="#m5a85364d92" y="288.430125"/>
      </g>
     </g>
     <g id="text_8">
      <!-- 13h:40m -->
      <g transform="translate(439.908516 303.028562)scale(0.1 -0.1)">
       <defs>
        <path d="M 2597 2516 
Q 3050 2419 3304 2112 
Q 3559 1806 3559 1356 
Q 3559 666 3084 287 
Q 2609 -91 1734 -91 
Q 1441 -91 1130 -33 
Q 819 25 488 141 
L 488 750 
Q 750 597 1062 519 
Q 1375 441 1716 441 
Q 2309 441 2620 675 
Q 2931 909 2931 1356 
Q 2931 1769 2642 2001 
Q 2353 2234 1838 2234 
L 1294 2234 
L 1294 2753 
L 1863 2753 
Q 2328 2753 2575 2939 
Q 2822 3125 2822 3475 
Q 2822 3834 2567 4026 
Q 2313 4219 1838 4219 
Q 1578 4219 1281 4162 
Q 984 4106 628 3988 
L 628 4550 
Q 988 4650 1302 4700 
Q 1616 4750 1894 4750 
Q 2613 4750 3031 4423 
Q 3450 4097 3450 3541 
Q 3450 3153 3228 2886 
Q 3006 2619 2597 2516 
z
" id="DejaVuSans-33" transform="scale(0.015625)"/>
       </defs>
       <use xlink:href="#DejaVuSans-31"/>
       <use x="63.623047" xlink:href="#DejaVuSans-33"/>
       <use x="127.246094" xlink:href="#DejaVuSans-68"/>
       <use x="190.625" xlink:href="#DejaVuSans-3a"/>
       <use x="224.316406" xlink:href="#DejaVuSans-34"/>
       <use x="287.939453" xlink:href="#DejaVuSans-30"/>
       <use x="351.5625" xlink:href="#DejaVuSans-6d"/>
      </g>
     </g>
    </g>
    <g id="xtick_9">
     <g id="line2d_9">
      <g>
       <use style="stroke:#000000;stroke-width:0.8;" x="517.06065" xlink:href="#m5a85364d92" y="288.430125"/>
      </g>
     </g>
     <g id="text_9">
      <!-- 15h:35m -->
      <g transform="translate(494.612212 303.028562)scale(0.1 -0.1)">
       <use xlink:href="#DejaVuSans-31"/>
       <use x="63.623047" xlink:href="#DejaVuSans-35"/>
       <use x="127.246094" xlink:href="#DejaVuSans-68"/>
       <use x="190.625" xlink:href="#DejaVuSans-3a"/>
       <use x="224.316406" xlink:href="#DejaVuSans-33"/>
       <use x="287.939453" xlink:href="#DejaVuSans-35"/>
       <use x="351.5625" xlink:href="#DejaVuSans-6d"/>
      </g>
     </g>
    </g>
    <g id="xtick_10">
     <g id="line2d_10">
      <g>
       <use style="stroke:#000000;stroke-width:0.8;" x="571.764346" xlink:href="#m5a85364d92" y="288.430125"/>
      </g>
     </g>
     <g id="text_10">
      <!-- 17h:30m -->
      <g transform="translate(549.315909 303.028562)scale(0.1 -0.1)">
       <use xlink:href="#DejaVuSans-31"/>
       <use x="63.623047" xlink:href="#DejaVuSans-37"/>
       <use x="127.246094" xlink:href="#DejaVuSans-68"/>
       <use x="190.625" xlink:href="#DejaVuSans-3a"/>
       <use x="224.316406" xlink:href="#DejaVuSans-33"/>
       <use x="287.939453" xlink:href="#DejaVuSans-30"/>
       <use x="351.5625" xlink:href="#DejaVuSans-6d"/>
      </g>
     </g>
    </g>
    <g id="xtick_11">
     <g id="line2d_11">
      <g>
       <use style="stroke:#000000;stroke-width:0.8;" x="626.468043" xlink:href="#m5a85364d92" y="288.430125"/>
      </g>
     </g>
     <g id="text_11">
      <!-- 19h:25m -->
      <g transform="translate(604.019605 303.028562)scale(0.1 -0.1)">
       <use xlink:href="#DejaVuSans-31"/>
       <use x="63.623047" xlink:href="#DejaVuSans-39"/>
       <use x="127.246094" xlink:href="#DejaVuSans-68"/>
       <use x="190.625" xlink:href="#DejaVuSans-3a"/>
       <use x="224.316406" xlink:href="#DejaVuSans-32"/>
       <use x="287.939453" xlink:href="#DejaVuSans-35"/>
       <use x="351.5625" xlink:href="#DejaVuSans-6d"/>
      </g>
     </g>
    </g>
    <g id="xtick_12">
     <g id="line2d_12">
      <g>
       <use style="stroke:#000000;stroke-width:0.8;" x="681.171739" xlink:href="#m5a85364d92" y="288.430125"/>
      </g>
     </g>
     <g id="text_12">
      <!-- 21h:20m -->
      <g transform="translate(658.723301 303.028562)scale(0.1 -0.1)">
       <use xlink:href="#DejaVuSans-32"/>
       <use x="63.623047" xlink:href="#DejaVuSans-31"/>
       <use x="127.246094" xlink:href="#DejaVuSans-68"/>
       <use x="190.625" xlink:href="#DejaVuSans-3a"/>
       <use x="224.316406" xlink:href="#DejaVuSans-32"/>
       <use x="287.939453" xlink:href="#DejaVuSans-30"/>
       <use x="351.5625" xlink:href="#DejaVuSans-6d"/>
      </g>
     </g>
    </g>
    <g id="text_13">
     <!-- Time (hour:minute) -->
     <g transform="translate(355.678594 316.706687)scale(0.1 -0.1)">
      <defs>
       <path d="M -19 4666 
L 3928 4666 
L 3928 4134 
L 2272 4134 
L 2272 0 
L 1638 0 
L 1638 4134 
L -19 4134 
L -19 4666 
z
" id="DejaVuSans-54" transform="scale(0.015625)"/>
       <path d="M 603 3500 
L 1178 3500 
L 1178 0 
L 603 0 
L 603 3500 
z
M 603 4863 
L 1178 4863 
L 1178 4134 
L 603 4134 
L 603 4863 
z
" id="DejaVuSans-69" transform="scale(0.015625)"/>
       <path d="M 3597 1894 
L 3597 1613 
L 953 1613 
Q 991 1019 1311 708 
Q 1631 397 2203 397 
Q 2534 397 2845 478 
Q 3156 559 3463 722 
L 3463 178 
Q 3153 47 2828 -22 
Q 2503 -91 2169 -91 
Q 1331 -91 842 396 
Q 353 884 353 1716 
Q 353 2575 817 3079 
Q 1281 3584 2069 3584 
Q 2775 3584 3186 3129 
Q 3597 2675 3597 1894 
z
M 3022 2063 
Q 3016 2534 2758 2815 
Q 2500 3097 2075 3097 
Q 1594 3097 1305 2825 
Q 1016 2553 972 2059 
L 3022 2063 
z
" id="DejaVuSans-65" transform="scale(0.015625)"/>
       <path id="DejaVuSans-20" transform="scale(0.015625)"/>
       <path d="M 1984 4856 
Q 1566 4138 1362 3434 
Q 1159 2731 1159 2009 
Q 1159 1288 1364 580 
Q 1569 -128 1984 -844 
L 1484 -844 
Q 1016 -109 783 600 
Q 550 1309 550 2009 
Q 550 2706 781 3412 
Q 1013 4119 1484 4856 
L 1984 4856 
z
" id="DejaVuSans-28" transform="scale(0.015625)"/>
       <path d="M 1959 3097 
Q 1497 3097 1228 2736 
Q 959 2375 959 1747 
Q 959 1119 1226 758 
Q 1494 397 1959 397 
Q 2419 397 2687 759 
Q 2956 1122 2956 1747 
Q 2956 2369 2687 2733 
Q 2419 3097 1959 3097 
z
M 1959 3584 
Q 2709 3584 3137 3096 
Q 3566 2609 3566 1747 
Q 3566 888 3137 398 
Q 2709 -91 1959 -91 
Q 1206 -91 779 398 
Q 353 888 353 1747 
Q 353 2609 779 3096 
Q 1206 3584 1959 3584 
z
" id="DejaVuSans-6f" transform="scale(0.015625)"/>
       <path d="M 544 1381 
L 544 3500 
L 1119 3500 
L 1119 1403 
Q 1119 906 1312 657 
Q 1506 409 1894 409 
Q 2359 409 2629 706 
Q 2900 1003 2900 1516 
L 2900 3500 
L 3475 3500 
L 3475 0 
L 2900 0 
L 2900 538 
Q 2691 219 2414 64 
Q 2138 -91 1772 -91 
Q 1169 -91 856 284 
Q 544 659 544 1381 
z
M 1991 3584 
L 1991 3584 
z
" id="DejaVuSans-75" transform="scale(0.015625)"/>
       <path d="M 2631 2963 
Q 2534 3019 2420 3045 
Q 2306 3072 2169 3072 
Q 1681 3072 1420 2755 
Q 1159 2438 1159 1844 
L 1159 0 
L 581 0 
L 581 3500 
L 1159 3500 
L 1159 2956 
Q 1341 3275 1631 3429 
Q 1922 3584 2338 3584 
Q 2397 3584 2469 3576 
Q 2541 3569 2628 3553 
L 2631 2963 
z
" id="DejaVuSans-72" transform="scale(0.015625)"/>
       <path d="M 3513 2113 
L 3513 0 
L 2938 0 
L 2938 2094 
Q 2938 2591 2744 2837 
Q 2550 3084 2163 3084 
Q 1697 3084 1428 2787 
Q 1159 2491 1159 1978 
L 1159 0 
L 581 0 
L 581 3500 
L 1159 3500 
L 1159 2956 
Q 1366 3272 1645 3428 
Q 1925 3584 2291 3584 
Q 2894 3584 3203 3211 
Q 3513 2838 3513 2113 
z
" id="DejaVuSans-6e" transform="scale(0.015625)"/>
       <path d="M 1172 4494 
L 1172 3500 
L 2356 3500 
L 2356 3053 
L 1172 3053 
L 1172 1153 
Q 1172 725 1289 603 
Q 1406 481 1766 481 
L 2356 481 
L 2356 0 
L 1766 0 
Q 1100 0 847 248 
Q 594 497 594 1153 
L 594 3053 
L 172 3053 
L 172 3500 
L 594 3500 
L 594 4494 
L 1172 4494 
z
" id="DejaVuSans-74" transform="scale(0.015625)"/>
       <path d="M 513 4856 
L 1013 4856 
Q 1481 4119 1714 3412 
Q 1947 2706 1947 2009 
Q 1947 1309 1714 600 
Q 1481 -109 1013 -844 
L 513 -844 
Q 928 -128 1133 580 
Q 1338 1288 1338 2009 
Q 1338 2731 1133 3434 
Q 928 4138 513 4856 
z
" id="DejaVuSans-29" transform="scale(0.015625)"/>
      </defs>
      <use xlink:href="#DejaVuSans-54"/>
      <use x="57.958984" xlink:href="#DejaVuSans-69"/>
      <use x="85.742188" xlink:href="#DejaVuSans-6d"/>
      <use x="183.154297" xlink:href="#DejaVuSans-65"/>
      <use x="244.677734" xlink:href="#DejaVuSans-20"/>
      <use x="276.464844" xlink:href="#DejaVuSans-28"/>
      <use x="315.478516" xlink:href="#DejaVuSans-68"/>
      <use x="378.857422" xlink:href="#DejaVuSans-6f"/>
      <use x="440.039062" xlink:href="#DejaVuSans-75"/>
      <use x="503.417969" xlink:href="#DejaVuSans-72"/>
      <use x="542.78125" xlink:href="#DejaVuSans-3a"/>
      <use x="576.472656" xlink:href="#DejaVuSans-6d"/>
      <use x="673.884766" xlink:href="#DejaVuSans-69"/>
      <use x="701.667969" xlink:href="#DejaVuSans-6e"/>
      <use x="765.046875" xlink:href="#DejaVuSans-75"/>
      <use x="828.425781" xlink:href="#DejaVuSans-74"/>
      <use x="867.634766" xlink:href="#DejaVuSans-65"/>
      <use x="929.158203" xlink:href="#DejaVuSans-29"/>
     </g>
    </g>
   </g>
   <g id="matplotlib.axis_2">
    <g id="ytick_1">
     <g id="line2d_13">
      <defs>
       <path d="M 0 0 
L -3.5 0 
" id="m2f5ad5a0e1" style="stroke:#000000;stroke-width:0.8;"/>
      </defs>
      <g>
       <use style="stroke:#000000;stroke-width:0.8;" x="46.965625" xlink:href="#m2f5ad5a0e1" y="260.726383"/>
      </g>
     </g>
     <g id="text_14">
      <!-- 448 -->
      <g transform="translate(20.878125 264.525602)scale(0.1 -0.1)">
       <defs>
        <path d="M 2034 2216 
Q 1584 2216 1326 1975 
Q 1069 1734 1069 1313 
Q 1069 891 1326 650 
Q 1584 409 2034 409 
Q 2484 409 2743 651 
Q 3003 894 3003 1313 
Q 3003 1734 2745 1975 
Q 2488 2216 2034 2216 
z
M 1403 2484 
Q 997 2584 770 2862 
Q 544 3141 544 3541 
Q 544 4100 942 4425 
Q 1341 4750 2034 4750 
Q 2731 4750 3128 4425 
Q 3525 4100 3525 3541 
Q 3525 3141 3298 2862 
Q 3072 2584 2669 2484 
Q 3125 2378 3379 2068 
Q 3634 1759 3634 1313 
Q 3634 634 3220 271 
Q 2806 -91 2034 -91 
Q 1263 -91 848 271 
Q 434 634 434 1313 
Q 434 1759 690 2068 
Q 947 2378 1403 2484 
z
M 1172 3481 
Q 1172 3119 1398 2916 
Q 1625 2713 2034 2713 
Q 2441 2713 2670 2916 
Q 2900 3119 2900 3481 
Q 2900 3844 2670 4047 
Q 2441 4250 2034 4250 
Q 1625 4250 1398 4047 
Q 1172 3844 1172 3481 
z
" id="DejaVuSans-38" transform="scale(0.015625)"/>
       </defs>
       <use xlink:href="#DejaVuSans-34"/>
       <use x="63.623047" xlink:href="#DejaVuSans-34"/>
       <use x="127.246094" xlink:href="#DejaVuSans-38"/>
      </g>
     </g>
    </g>
    <g id="ytick_2">
     <g id="line2d_14">
      <g>
       <use style="stroke:#000000;stroke-width:0.8;" x="46.965625" xlink:href="#m2f5ad5a0e1" y="229.510899"/>
      </g>
     </g>
     <g id="text_15">
      <!-- 450 -->
      <g transform="translate(20.878125 233.310118)scale(0.1 -0.1)">
       <use xlink:href="#DejaVuSans-34"/>
       <use x="63.623047" xlink:href="#DejaVuSans-35"/>
       <use x="127.246094" xlink:href="#DejaVuSans-30"/>
      </g>
     </g>
    </g>
    <g id="ytick_3">
     <g id="line2d_15">
      <g>
       <use style="stroke:#000000;stroke-width:0.8;" x="46.965625" xlink:href="#m2f5ad5a0e1" y="198.295415"/>
      </g>
     </g>
     <g id="text_16">
      <!-- 452 -->
      <g transform="translate(20.878125 202.094634)scale(0.1 -0.1)">
       <use xlink:href="#DejaVuSans-34"/>
       <use x="63.623047" xlink:href="#DejaVuSans-35"/>
       <use x="127.246094" xlink:href="#DejaVuSans-32"/>
      </g>
     </g>
    </g>
    <g id="ytick_4">
     <g id="line2d_16">
      <g>
       <use style="stroke:#000000;stroke-width:0.8;" x="46.965625" xlink:href="#m2f5ad5a0e1" y="167.079931"/>
      </g>
     </g>
     <g id="text_17">
      <!-- 454 -->
      <g transform="translate(20.878125 170.87915)scale(0.1 -0.1)">
       <use xlink:href="#DejaVuSans-34"/>
       <use x="63.623047" xlink:href="#DejaVuSans-35"/>
       <use x="127.246094" xlink:href="#DejaVuSans-34"/>
      </g>
     </g>
    </g>
    <g id="ytick_5">
     <g id="line2d_17">
      <g>
       <use style="stroke:#000000;stroke-width:0.8;" x="46.965625" xlink:href="#m2f5ad5a0e1" y="135.864448"/>
      </g>
     </g>
     <g id="text_18">
      <!-- 456 -->
      <g transform="translate(20.878125 139.663666)scale(0.1 -0.1)">
       <use xlink:href="#DejaVuSans-34"/>
       <use x="63.623047" xlink:href="#DejaVuSans-35"/>
       <use x="127.246094" xlink:href="#DejaVuSans-36"/>
      </g>
     </g>
    </g>
    <g id="ytick_6">
     <g id="line2d_18">
      <g>
       <use style="stroke:#000000;stroke-width:0.8;" x="46.965625" xlink:href="#m2f5ad5a0e1" y="104.648964"/>
      </g>
     </g>
     <g id="text_19">
      <!-- 458 -->
      <g transform="translate(20.878125 108.448182)scale(0.1 -0.1)">
       <use xlink:href="#DejaVuSans-34"/>
       <use x="63.623047" xlink:href="#DejaVuSans-35"/>
       <use x="127.246094" xlink:href="#DejaVuSans-38"/>
      </g>
     </g>
    </g>
    <g id="ytick_7">
     <g id="line2d_19">
      <g>
       <use style="stroke:#000000;stroke-width:0.8;" x="46.965625" xlink:href="#m2f5ad5a0e1" y="73.43348"/>
      </g>
     </g>
     <g id="text_20">
      <!-- 460 -->
      <g transform="translate(20.878125 77.232699)scale(0.1 -0.1)">
       <use xlink:href="#DejaVuSans-34"/>
       <use x="63.623047" xlink:href="#DejaVuSans-36"/>
       <use x="127.246094" xlink:href="#DejaVuSans-30"/>
      </g>
     </g>
    </g>
    <g id="ytick_8">
     <g id="line2d_20">
      <g>
       <use style="stroke:#000000;stroke-width:0.8;" x="46.965625" xlink:href="#m2f5ad5a0e1" y="42.217996"/>
      </g>
     </g>
     <g id="text_21">
      <!-- 462 -->
      <g transform="translate(20.878125 46.017215)scale(0.1 -0.1)">
       <use xlink:href="#DejaVuSans-34"/>
       <use x="63.623047" xlink:href="#DejaVuSans-36"/>
       <use x="127.246094" xlink:href="#DejaVuSans-32"/>
      </g>
     </g>
    </g>
    <g id="text_22">
     <!-- Code branch coverage -->
     <g transform="translate(14.798438 211.949125)rotate(-90)scale(0.1 -0.1)">
      <defs>
       <path d="M 4122 4306 
L 4122 3641 
Q 3803 3938 3442 4084 
Q 3081 4231 2675 4231 
Q 1875 4231 1450 3742 
Q 1025 3253 1025 2328 
Q 1025 1406 1450 917 
Q 1875 428 2675 428 
Q 3081 428 3442 575 
Q 3803 722 4122 1019 
L 4122 359 
Q 3791 134 3420 21 
Q 3050 -91 2638 -91 
Q 1578 -91 968 557 
Q 359 1206 359 2328 
Q 359 3453 968 4101 
Q 1578 4750 2638 4750 
Q 3056 4750 3426 4639 
Q 3797 4528 4122 4306 
z
" id="DejaVuSans-43" transform="scale(0.015625)"/>
       <path d="M 2906 2969 
L 2906 4863 
L 3481 4863 
L 3481 0 
L 2906 0 
L 2906 525 
Q 2725 213 2448 61 
Q 2172 -91 1784 -91 
Q 1150 -91 751 415 
Q 353 922 353 1747 
Q 353 2572 751 3078 
Q 1150 3584 1784 3584 
Q 2172 3584 2448 3432 
Q 2725 3281 2906 2969 
z
M 947 1747 
Q 947 1113 1208 752 
Q 1469 391 1925 391 
Q 2381 391 2643 752 
Q 2906 1113 2906 1747 
Q 2906 2381 2643 2742 
Q 2381 3103 1925 3103 
Q 1469 3103 1208 2742 
Q 947 2381 947 1747 
z
" id="DejaVuSans-64" transform="scale(0.015625)"/>
       <path d="M 3116 1747 
Q 3116 2381 2855 2742 
Q 2594 3103 2138 3103 
Q 1681 3103 1420 2742 
Q 1159 2381 1159 1747 
Q 1159 1113 1420 752 
Q 1681 391 2138 391 
Q 2594 391 2855 752 
Q 3116 1113 3116 1747 
z
M 1159 2969 
Q 1341 3281 1617 3432 
Q 1894 3584 2278 3584 
Q 2916 3584 3314 3078 
Q 3713 2572 3713 1747 
Q 3713 922 3314 415 
Q 2916 -91 2278 -91 
Q 1894 -91 1617 61 
Q 1341 213 1159 525 
L 1159 0 
L 581 0 
L 581 4863 
L 1159 4863 
L 1159 2969 
z
" id="DejaVuSans-62" transform="scale(0.015625)"/>
       <path d="M 2194 1759 
Q 1497 1759 1228 1600 
Q 959 1441 959 1056 
Q 959 750 1161 570 
Q 1363 391 1709 391 
Q 2188 391 2477 730 
Q 2766 1069 2766 1631 
L 2766 1759 
L 2194 1759 
z
M 3341 1997 
L 3341 0 
L 2766 0 
L 2766 531 
Q 2569 213 2275 61 
Q 1981 -91 1556 -91 
Q 1019 -91 701 211 
Q 384 513 384 1019 
Q 384 1609 779 1909 
Q 1175 2209 1959 2209 
L 2766 2209 
L 2766 2266 
Q 2766 2663 2505 2880 
Q 2244 3097 1772 3097 
Q 1472 3097 1187 3025 
Q 903 2953 641 2809 
L 641 3341 
Q 956 3463 1253 3523 
Q 1550 3584 1831 3584 
Q 2591 3584 2966 3190 
Q 3341 2797 3341 1997 
z
" id="DejaVuSans-61" transform="scale(0.015625)"/>
       <path d="M 3122 3366 
L 3122 2828 
Q 2878 2963 2633 3030 
Q 2388 3097 2138 3097 
Q 1578 3097 1268 2742 
Q 959 2388 959 1747 
Q 959 1106 1268 751 
Q 1578 397 2138 397 
Q 2388 397 2633 464 
Q 2878 531 3122 666 
L 3122 134 
Q 2881 22 2623 -34 
Q 2366 -91 2075 -91 
Q 1284 -91 818 406 
Q 353 903 353 1747 
Q 353 2603 823 3093 
Q 1294 3584 2113 3584 
Q 2378 3584 2631 3529 
Q 2884 3475 3122 3366 
z
" id="DejaVuSans-63" transform="scale(0.015625)"/>
       <path d="M 191 3500 
L 800 3500 
L 1894 563 
L 2988 3500 
L 3597 3500 
L 2284 0 
L 1503 0 
L 191 3500 
z
" id="DejaVuSans-76" transform="scale(0.015625)"/>
       <path d="M 2906 1791 
Q 2906 2416 2648 2759 
Q 2391 3103 1925 3103 
Q 1463 3103 1205 2759 
Q 947 2416 947 1791 
Q 947 1169 1205 825 
Q 1463 481 1925 481 
Q 2391 481 2648 825 
Q 2906 1169 2906 1791 
z
M 3481 434 
Q 3481 -459 3084 -895 
Q 2688 -1331 1869 -1331 
Q 1566 -1331 1297 -1286 
Q 1028 -1241 775 -1147 
L 775 -588 
Q 1028 -725 1275 -790 
Q 1522 -856 1778 -856 
Q 2344 -856 2625 -561 
Q 2906 -266 2906 331 
L 2906 616 
Q 2728 306 2450 153 
Q 2172 0 1784 0 
Q 1141 0 747 490 
Q 353 981 353 1791 
Q 353 2603 747 3093 
Q 1141 3584 1784 3584 
Q 2172 3584 2450 3431 
Q 2728 3278 2906 2969 
L 2906 3500 
L 3481 3500 
L 3481 434 
z
" id="DejaVuSans-67" transform="scale(0.015625)"/>
      </defs>
      <use xlink:href="#DejaVuSans-43"/>
      <use x="69.824219" xlink:href="#DejaVuSans-6f"/>
      <use x="131.005859" xlink:href="#DejaVuSans-64"/>
      <use x="194.482422" xlink:href="#DejaVuSans-65"/>
      <use x="256.005859" xlink:href="#DejaVuSans-20"/>
      <use x="287.792969" xlink:href="#DejaVuSans-62"/>
      <use x="351.269531" xlink:href="#DejaVuSans-72"/>
      <use x="392.382812" xlink:href="#DejaVuSans-61"/>
      <use x="453.662109" xlink:href="#DejaVuSans-6e"/>
      <use x="517.041016" xlink:href="#DejaVuSans-63"/>
      <use x="572.021484" xlink:href="#DejaVuSans-68"/>
      <use x="635.400391" xlink:href="#DejaVuSans-20"/>
      <use x="667.1875" xlink:href="#DejaVuSans-63"/>
      <use x="722.167969" xlink:href="#DejaVuSans-6f"/>
      <use x="783.349609" xlink:href="#DejaVuSans-76"/>
      <use x="842.529297" xlink:href="#DejaVuSans-65"/>
      <use x="904.052734" xlink:href="#DejaVuSans-72"/>
      <use x="945.166016" xlink:href="#DejaVuSans-61"/>
      <use x="1006.445312" xlink:href="#DejaVuSans-67"/>
      <use x="1069.921875" xlink:href="#DejaVuSans-65"/>
     </g>
    </g>
   </g>
   <g id="line2d_21">
    <path clip-path="url(#pf691192d41)" d="M 79.43108 135.864448 
L 86.566344 135.864448 
L 93.701609 135.864448 
L 100.836874 128.060577 
L 107.972138 128.060577 
L 115.107403 128.060577 
L 122.242668 128.060577 
L 129.377933 120.256706 
L 136.513197 120.256706 
L 143.648462 120.256706 
L 150.783727 120.256706 
L 157.918992 120.256706 
L 165.054256 120.256706 
L 172.189521 120.256706 
L 179.324786 120.256706 
L 186.460051 120.256706 
L 193.595315 120.256706 
L 200.73058 120.256706 
L 207.865845 120.256706 
L 215.00111 120.256706 
L 222.136374 120.256706 
L 229.271639 120.256706 
L 236.406904 104.648964 
L 243.542168 104.648964 
L 250.677433 81.237351 
L 257.812698 81.237351 
L 264.947963 81.237351 
L 272.083227 81.237351 
L 279.218492 81.237351 
L 286.353757 81.237351 
L 293.489022 81.237351 
L 300.624286 81.237351 
L 307.759551 81.237351 
L 314.894816 81.237351 
L 322.030081 81.237351 
L 329.165345 81.237351 
L 336.30061 73.43348 
L 343.435875 73.43348 
L 350.571139 73.43348 
L 357.706404 73.43348 
L 364.841669 73.43348 
L 371.976934 73.43348 
L 379.112198 73.43348 
L 386.247463 73.43348 
L 393.382728 73.43348 
L 400.517993 73.43348 
L 407.653257 73.43348 
L 414.788522 73.43348 
L 421.923787 73.43348 
L 429.059052 73.43348 
L 436.194316 73.43348 
L 443.329581 73.43348 
L 450.464846 73.43348 
L 457.600111 73.43348 
L 464.735375 73.43348 
L 471.87064 73.43348 
L 479.005905 73.43348 
L 486.141169 73.43348 
L 493.276434 73.43348 
L 500.411699 73.43348 
L 507.546964 73.43348 
L 514.682228 73.43348 
L 521.817493 73.43348 
L 528.952758 73.43348 
L 536.088023 73.43348 
L 543.223287 73.43348 
L 550.358552 73.43348 
L 557.493817 73.43348 
L 564.629082 73.43348 
L 571.764346 73.43348 
L 578.899611 73.43348 
L 586.034876 73.43348 
L 593.17014 73.43348 
L 600.305405 73.43348 
L 607.44067 73.43348 
L 614.575935 73.43348 
L 621.711199 73.43348 
L 628.846464 73.43348 
L 635.981729 73.43348 
L 643.116994 73.43348 
L 650.252258 73.43348 
L 657.387523 73.43348 
L 664.522788 73.43348 
L 671.658053 73.43348 
L 678.793317 73.43348 
L 685.928582 73.43348 
L 693.063847 73.43348 
L 700.199112 73.43348 
L 707.334376 73.43348 
L 714.469641 73.43348 
L 721.604906 73.43348 
L 728.74017 73.43348 
" style="fill:none;stroke:#1f77b4;stroke-linecap:square;stroke-width:1.5;"/>
    <defs>
     <path d="M 0 3 
C 0.795609 3 1.55874 2.683901 2.12132 2.12132 
C 2.683901 1.55874 3 0.795609 3 0 
C 3 -0.795609 2.683901 -1.55874 2.12132 -2.12132 
C 1.55874 -2.683901 0.795609 -3 0 -3 
C -0.795609 -3 -1.55874 -2.683901 -2.12132 -2.12132 
C -2.683901 -1.55874 -3 -0.795609 -3 0 
C -3 0.795609 -2.683901 1.55874 -2.12132 2.12132 
C -1.55874 2.683901 -0.795609 3 0 3 
z
" id="m946975b5af" style="stroke:#ffffff;stroke-width:0.75;"/>
    </defs>
    <g clip-path="url(#pf691192d41)">
     <use style="fill:#1f77b4;stroke:#ffffff;stroke-width:0.75;" x="79.43108" xlink:href="#m946975b5af" y="135.864448"/>
     <use style="fill:#1f77b4;stroke:#ffffff;stroke-width:0.75;" x="86.566344" xlink:href="#m946975b5af" y="135.864448"/>
     <use style="fill:#1f77b4;stroke:#ffffff;stroke-width:0.75;" x="93.701609" xlink:href="#m946975b5af" y="135.864448"/>
     <use style="fill:#1f77b4;stroke:#ffffff;stroke-width:0.75;" x="100.836874" xlink:href="#m946975b5af" y="128.060577"/>
     <use style="fill:#1f77b4;stroke:#ffffff;stroke-width:0.75;" x="107.972138" xlink:href="#m946975b5af" y="128.060577"/>
     <use style="fill:#1f77b4;stroke:#ffffff;stroke-width:0.75;" x="115.107403" xlink:href="#m946975b5af" y="128.060577"/>
     <use style="fill:#1f77b4;stroke:#ffffff;stroke-width:0.75;" x="122.242668" xlink:href="#m946975b5af" y="128.060577"/>
     <use style="fill:#1f77b4;stroke:#ffffff;stroke-width:0.75;" x="129.377933" xlink:href="#m946975b5af" y="120.256706"/>
     <use style="fill:#1f77b4;stroke:#ffffff;stroke-width:0.75;" x="136.513197" xlink:href="#m946975b5af" y="120.256706"/>
     <use style="fill:#1f77b4;stroke:#ffffff;stroke-width:0.75;" x="143.648462" xlink:href="#m946975b5af" y="120.256706"/>
     <use style="fill:#1f77b4;stroke:#ffffff;stroke-width:0.75;" x="150.783727" xlink:href="#m946975b5af" y="120.256706"/>
     <use style="fill:#1f77b4;stroke:#ffffff;stroke-width:0.75;" x="157.918992" xlink:href="#m946975b5af" y="120.256706"/>
     <use style="fill:#1f77b4;stroke:#ffffff;stroke-width:0.75;" x="165.054256" xlink:href="#m946975b5af" y="120.256706"/>
     <use style="fill:#1f77b4;stroke:#ffffff;stroke-width:0.75;" x="172.189521" xlink:href="#m946975b5af" y="120.256706"/>
     <use style="fill:#1f77b4;stroke:#ffffff;stroke-width:0.75;" x="179.324786" xlink:href="#m946975b5af" y="120.256706"/>
     <use style="fill:#1f77b4;stroke:#ffffff;stroke-width:0.75;" x="186.460051" xlink:href="#m946975b5af" y="120.256706"/>
     <use style="fill:#1f77b4;stroke:#ffffff;stroke-width:0.75;" x="193.595315" xlink:href="#m946975b5af" y="120.256706"/>
     <use style="fill:#1f77b4;stroke:#ffffff;stroke-width:0.75;" x="200.73058" xlink:href="#m946975b5af" y="120.256706"/>
     <use style="fill:#1f77b4;stroke:#ffffff;stroke-width:0.75;" x="207.865845" xlink:href="#m946975b5af" y="120.256706"/>
     <use style="fill:#1f77b4;stroke:#ffffff;stroke-width:0.75;" x="215.00111" xlink:href="#m946975b5af" y="120.256706"/>
     <use style="fill:#1f77b4;stroke:#ffffff;stroke-width:0.75;" x="222.136374" xlink:href="#m946975b5af" y="120.256706"/>
     <use style="fill:#1f77b4;stroke:#ffffff;stroke-width:0.75;" x="229.271639" xlink:href="#m946975b5af" y="120.256706"/>
     <use style="fill:#1f77b4;stroke:#ffffff;stroke-width:0.75;" x="236.406904" xlink:href="#m946975b5af" y="104.648964"/>
     <use style="fill:#1f77b4;stroke:#ffffff;stroke-width:0.75;" x="243.542168" xlink:href="#m946975b5af" y="104.648964"/>
     <use style="fill:#1f77b4;stroke:#ffffff;stroke-width:0.75;" x="250.677433" xlink:href="#m946975b5af" y="81.237351"/>
     <use style="fill:#1f77b4;stroke:#ffffff;stroke-width:0.75;" x="257.812698" xlink:href="#m946975b5af" y="81.237351"/>
     <use style="fill:#1f77b4;stroke:#ffffff;stroke-width:0.75;" x="264.947963" xlink:href="#m946975b5af" y="81.237351"/>
     <use style="fill:#1f77b4;stroke:#ffffff;stroke-width:0.75;" x="272.083227" xlink:href="#m946975b5af" y="81.237351"/>
     <use style="fill:#1f77b4;stroke:#ffffff;stroke-width:0.75;" x="279.218492" xlink:href="#m946975b5af" y="81.237351"/>
     <use style="fill:#1f77b4;stroke:#ffffff;stroke-width:0.75;" x="286.353757" xlink:href="#m946975b5af" y="81.237351"/>
     <use style="fill:#1f77b4;stroke:#ffffff;stroke-width:0.75;" x="293.489022" xlink:href="#m946975b5af" y="81.237351"/>
     <use style="fill:#1f77b4;stroke:#ffffff;stroke-width:0.75;" x="300.624286" xlink:href="#m946975b5af" y="81.237351"/>
     <use style="fill:#1f77b4;stroke:#ffffff;stroke-width:0.75;" x="307.759551" xlink:href="#m946975b5af" y="81.237351"/>
     <use style="fill:#1f77b4;stroke:#ffffff;stroke-width:0.75;" x="314.894816" xlink:href="#m946975b5af" y="81.237351"/>
     <use style="fill:#1f77b4;stroke:#ffffff;stroke-width:0.75;" x="322.030081" xlink:href="#m946975b5af" y="81.237351"/>
     <use style="fill:#1f77b4;stroke:#ffffff;stroke-width:0.75;" x="329.165345" xlink:href="#m946975b5af" y="81.237351"/>
     <use style="fill:#1f77b4;stroke:#ffffff;stroke-width:0.75;" x="336.30061" xlink:href="#m946975b5af" y="73.43348"/>
     <use style="fill:#1f77b4;stroke:#ffffff;stroke-width:0.75;" x="343.435875" xlink:href="#m946975b5af" y="73.43348"/>
     <use style="fill:#1f77b4;stroke:#ffffff;stroke-width:0.75;" x="350.571139" xlink:href="#m946975b5af" y="73.43348"/>
     <use style="fill:#1f77b4;stroke:#ffffff;stroke-width:0.75;" x="357.706404" xlink:href="#m946975b5af" y="73.43348"/>
     <use style="fill:#1f77b4;stroke:#ffffff;stroke-width:0.75;" x="364.841669" xlink:href="#m946975b5af" y="73.43348"/>
     <use style="fill:#1f77b4;stroke:#ffffff;stroke-width:0.75;" x="371.976934" xlink:href="#m946975b5af" y="73.43348"/>
     <use style="fill:#1f77b4;stroke:#ffffff;stroke-width:0.75;" x="379.112198" xlink:href="#m946975b5af" y="73.43348"/>
     <use style="fill:#1f77b4;stroke:#ffffff;stroke-width:0.75;" x="386.247463" xlink:href="#m946975b5af" y="73.43348"/>
     <use style="fill:#1f77b4;stroke:#ffffff;stroke-width:0.75;" x="393.382728" xlink:href="#m946975b5af" y="73.43348"/>
     <use style="fill:#1f77b4;stroke:#ffffff;stroke-width:0.75;" x="400.517993" xlink:href="#m946975b5af" y="73.43348"/>
     <use style="fill:#1f77b4;stroke:#ffffff;stroke-width:0.75;" x="407.653257" xlink:href="#m946975b5af" y="73.43348"/>
     <use style="fill:#1f77b4;stroke:#ffffff;stroke-width:0.75;" x="414.788522" xlink:href="#m946975b5af" y="73.43348"/>
     <use style="fill:#1f77b4;stroke:#ffffff;stroke-width:0.75;" x="421.923787" xlink:href="#m946975b5af" y="73.43348"/>
     <use style="fill:#1f77b4;stroke:#ffffff;stroke-width:0.75;" x="429.059052" xlink:href="#m946975b5af" y="73.43348"/>
     <use style="fill:#1f77b4;stroke:#ffffff;stroke-width:0.75;" x="436.194316" xlink:href="#m946975b5af" y="73.43348"/>
     <use style="fill:#1f77b4;stroke:#ffffff;stroke-width:0.75;" x="443.329581" xlink:href="#m946975b5af" y="73.43348"/>
     <use style="fill:#1f77b4;stroke:#ffffff;stroke-width:0.75;" x="450.464846" xlink:href="#m946975b5af" y="73.43348"/>
     <use style="fill:#1f77b4;stroke:#ffffff;stroke-width:0.75;" x="457.600111" xlink:href="#m946975b5af" y="73.43348"/>
     <use style="fill:#1f77b4;stroke:#ffffff;stroke-width:0.75;" x="464.735375" xlink:href="#m946975b5af" y="73.43348"/>
     <use style="fill:#1f77b4;stroke:#ffffff;stroke-width:0.75;" x="471.87064" xlink:href="#m946975b5af" y="73.43348"/>
     <use style="fill:#1f77b4;stroke:#ffffff;stroke-width:0.75;" x="479.005905" xlink:href="#m946975b5af" y="73.43348"/>
     <use style="fill:#1f77b4;stroke:#ffffff;stroke-width:0.75;" x="486.141169" xlink:href="#m946975b5af" y="73.43348"/>
     <use style="fill:#1f77b4;stroke:#ffffff;stroke-width:0.75;" x="493.276434" xlink:href="#m946975b5af" y="73.43348"/>
     <use style="fill:#1f77b4;stroke:#ffffff;stroke-width:0.75;" x="500.411699" xlink:href="#m946975b5af" y="73.43348"/>
     <use style="fill:#1f77b4;stroke:#ffffff;stroke-width:0.75;" x="507.546964" xlink:href="#m946975b5af" y="73.43348"/>
     <use style="fill:#1f77b4;stroke:#ffffff;stroke-width:0.75;" x="514.682228" xlink:href="#m946975b5af" y="73.43348"/>
     <use style="fill:#1f77b4;stroke:#ffffff;stroke-width:0.75;" x="521.817493" xlink:href="#m946975b5af" y="73.43348"/>
     <use style="fill:#1f77b4;stroke:#ffffff;stroke-width:0.75;" x="528.952758" xlink:href="#m946975b5af" y="73.43348"/>
     <use style="fill:#1f77b4;stroke:#ffffff;stroke-width:0.75;" x="536.088023" xlink:href="#m946975b5af" y="73.43348"/>
     <use style="fill:#1f77b4;stroke:#ffffff;stroke-width:0.75;" x="543.223287" xlink:href="#m946975b5af" y="73.43348"/>
     <use style="fill:#1f77b4;stroke:#ffffff;stroke-width:0.75;" x="550.358552" xlink:href="#m946975b5af" y="73.43348"/>
     <use style="fill:#1f77b4;stroke:#ffffff;stroke-width:0.75;" x="557.493817" xlink:href="#m946975b5af" y="73.43348"/>
     <use style="fill:#1f77b4;stroke:#ffffff;stroke-width:0.75;" x="564.629082" xlink:href="#m946975b5af" y="73.43348"/>
     <use style="fill:#1f77b4;stroke:#ffffff;stroke-width:0.75;" x="571.764346" xlink:href="#m946975b5af" y="73.43348"/>
     <use style="fill:#1f77b4;stroke:#ffffff;stroke-width:0.75;" x="578.899611" xlink:href="#m946975b5af" y="73.43348"/>
     <use style="fill:#1f77b4;stroke:#ffffff;stroke-width:0.75;" x="586.034876" xlink:href="#m946975b5af" y="73.43348"/>
     <use style="fill:#1f77b4;stroke:#ffffff;stroke-width:0.75;" x="593.17014" xlink:href="#m946975b5af" y="73.43348"/>
     <use style="fill:#1f77b4;stroke:#ffffff;stroke-width:0.75;" x="600.305405" xlink:href="#m946975b5af" y="73.43348"/>
     <use style="fill:#1f77b4;stroke:#ffffff;stroke-width:0.75;" x="607.44067" xlink:href="#m946975b5af" y="73.43348"/>
     <use style="fill:#1f77b4;stroke:#ffffff;stroke-width:0.75;" x="614.575935" xlink:href="#m946975b5af" y="73.43348"/>
     <use style="fill:#1f77b4;stroke:#ffffff;stroke-width:0.75;" x="621.711199" xlink:href="#m946975b5af" y="73.43348"/>
     <use style="fill:#1f77b4;stroke:#ffffff;stroke-width:0.75;" x="628.846464" xlink:href="#m946975b5af" y="73.43348"/>
     <use style="fill:#1f77b4;stroke:#ffffff;stroke-width:0.75;" x="635.981729" xlink:href="#m946975b5af" y="73.43348"/>
     <use style="fill:#1f77b4;stroke:#ffffff;stroke-width:0.75;" x="643.116994" xlink:href="#m946975b5af" y="73.43348"/>
     <use style="fill:#1f77b4;stroke:#ffffff;stroke-width:0.75;" x="650.252258" xlink:href="#m946975b5af" y="73.43348"/>
     <use style="fill:#1f77b4;stroke:#ffffff;stroke-width:0.75;" x="657.387523" xlink:href="#m946975b5af" y="73.43348"/>
     <use style="fill:#1f77b4;stroke:#ffffff;stroke-width:0.75;" x="664.522788" xlink:href="#m946975b5af" y="73.43348"/>
     <use style="fill:#1f77b4;stroke:#ffffff;stroke-width:0.75;" x="671.658053" xlink:href="#m946975b5af" y="73.43348"/>
     <use style="fill:#1f77b4;stroke:#ffffff;stroke-width:0.75;" x="678.793317" xlink:href="#m946975b5af" y="73.43348"/>
     <use style="fill:#1f77b4;stroke:#ffffff;stroke-width:0.75;" x="685.928582" xlink:href="#m946975b5af" y="73.43348"/>
     <use style="fill:#1f77b4;stroke:#ffffff;stroke-width:0.75;" x="693.063847" xlink:href="#m946975b5af" y="73.43348"/>
     <use style="fill:#1f77b4;stroke:#ffffff;stroke-width:0.75;" x="700.199112" xlink:href="#m946975b5af" y="73.43348"/>
     <use style="fill:#1f77b4;stroke:#ffffff;stroke-width:0.75;" x="707.334376" xlink:href="#m946975b5af" y="73.43348"/>
     <use style="fill:#1f77b4;stroke:#ffffff;stroke-width:0.75;" x="714.469641" xlink:href="#m946975b5af" y="73.43348"/>
     <use style="fill:#1f77b4;stroke:#ffffff;stroke-width:0.75;" x="721.604906" xlink:href="#m946975b5af" y="73.43348"/>
     <use style="fill:#1f77b4;stroke:#ffffff;stroke-width:0.75;" x="728.74017" xlink:href="#m946975b5af" y="73.43348"/>
    </g>
   </g>
   <g id="line2d_22">
    <path clip-path="url(#pf691192d41)" d="M 79.43108 190.491544 
L 86.566344 143.668319 
L 93.701609 128.060577 
L 100.836874 128.060577 
L 107.972138 128.060577 
L 115.107403 128.060577 
L 122.242668 128.060577 
L 129.377933 128.060577 
L 136.513197 128.060577 
L 143.648462 128.060577 
L 150.783727 128.060577 
L 157.918992 128.060577 
L 165.054256 128.060577 
L 172.189521 128.060577 
L 179.324786 128.060577 
L 186.460051 128.060577 
L 193.595315 128.060577 
L 200.73058 128.060577 
L 207.865845 128.060577 
L 215.00111 120.256706 
L 222.136374 120.256706 
L 229.271639 120.256706 
L 236.406904 120.256706 
L 243.542168 120.256706 
L 250.677433 120.256706 
L 257.812698 120.256706 
L 264.947963 120.256706 
L 272.083227 120.256706 
L 279.218492 120.256706 
L 286.353757 120.256706 
L 293.489022 120.256706 
L 300.624286 120.256706 
L 307.759551 120.256706 
L 314.894816 120.256706 
L 322.030081 120.256706 
L 329.165345 120.256706 
L 336.30061 120.256706 
L 343.435875 120.256706 
L 350.571139 120.256706 
L 357.706404 120.256706 
L 364.841669 120.256706 
L 371.976934 120.256706 
L 379.112198 120.256706 
L 386.247463 120.256706 
L 393.382728 120.256706 
L 400.517993 120.256706 
L 407.653257 120.256706 
L 414.788522 120.256706 
L 421.923787 120.256706 
L 429.059052 120.256706 
L 436.194316 120.256706 
L 443.329581 120.256706 
L 450.464846 120.256706 
L 457.600111 120.256706 
L 464.735375 120.256706 
L 471.87064 120.256706 
L 479.005905 120.256706 
L 486.141169 120.256706 
L 493.276434 120.256706 
L 500.411699 120.256706 
L 507.546964 120.256706 
L 514.682228 120.256706 
L 521.817493 120.256706 
L 528.952758 120.256706 
L 536.088023 120.256706 
L 543.223287 120.256706 
L 550.358552 120.256706 
L 557.493817 104.648964 
L 564.629082 104.648964 
L 571.764346 104.648964 
L 578.899611 104.648964 
L 586.034876 89.041222 
L 593.17014 89.041222 
L 600.305405 89.041222 
L 607.44067 89.041222 
L 614.575935 89.041222 
L 621.711199 89.041222 
L 628.846464 89.041222 
L 635.981729 89.041222 
L 643.116994 65.629609 
L 650.252258 65.629609 
L 657.387523 65.629609 
L 664.522788 65.629609 
L 671.658053 65.629609 
L 678.793317 65.629609 
L 685.928582 65.629609 
L 693.063847 65.629609 
L 700.199112 65.629609 
L 707.334376 65.629609 
L 714.469641 65.629609 
L 721.604906 65.629609 
L 728.74017 65.629609 
" style="fill:none;stroke:#98df8a;stroke-linecap:square;stroke-width:1.5;"/>
    <defs>
     <path d="M -0 3 
L 3 -3 
L -3 -3 
z
" id="m6602a72c61" style="stroke:#ffffff;stroke-linejoin:miter;stroke-width:0.75;"/>
    </defs>
    <g clip-path="url(#pf691192d41)">
     <use style="fill:#98df8a;stroke:#ffffff;stroke-linejoin:miter;stroke-width:0.75;" x="79.43108" xlink:href="#m6602a72c61" y="190.491544"/>
     <use style="fill:#98df8a;stroke:#ffffff;stroke-linejoin:miter;stroke-width:0.75;" x="86.566344" xlink:href="#m6602a72c61" y="143.668319"/>
     <use style="fill:#98df8a;stroke:#ffffff;stroke-linejoin:miter;stroke-width:0.75;" x="93.701609" xlink:href="#m6602a72c61" y="128.060577"/>
     <use style="fill:#98df8a;stroke:#ffffff;stroke-linejoin:miter;stroke-width:0.75;" x="100.836874" xlink:href="#m6602a72c61" y="128.060577"/>
     <use style="fill:#98df8a;stroke:#ffffff;stroke-linejoin:miter;stroke-width:0.75;" x="107.972138" xlink:href="#m6602a72c61" y="128.060577"/>
     <use style="fill:#98df8a;stroke:#ffffff;stroke-linejoin:miter;stroke-width:0.75;" x="115.107403" xlink:href="#m6602a72c61" y="128.060577"/>
     <use style="fill:#98df8a;stroke:#ffffff;stroke-linejoin:miter;stroke-width:0.75;" x="122.242668" xlink:href="#m6602a72c61" y="128.060577"/>
     <use style="fill:#98df8a;stroke:#ffffff;stroke-linejoin:miter;stroke-width:0.75;" x="129.377933" xlink:href="#m6602a72c61" y="128.060577"/>
     <use style="fill:#98df8a;stroke:#ffffff;stroke-linejoin:miter;stroke-width:0.75;" x="136.513197" xlink:href="#m6602a72c61" y="128.060577"/>
     <use style="fill:#98df8a;stroke:#ffffff;stroke-linejoin:miter;stroke-width:0.75;" x="143.648462" xlink:href="#m6602a72c61" y="128.060577"/>
     <use style="fill:#98df8a;stroke:#ffffff;stroke-linejoin:miter;stroke-width:0.75;" x="150.783727" xlink:href="#m6602a72c61" y="128.060577"/>
     <use style="fill:#98df8a;stroke:#ffffff;stroke-linejoin:miter;stroke-width:0.75;" x="157.918992" xlink:href="#m6602a72c61" y="128.060577"/>
     <use style="fill:#98df8a;stroke:#ffffff;stroke-linejoin:miter;stroke-width:0.75;" x="165.054256" xlink:href="#m6602a72c61" y="128.060577"/>
     <use style="fill:#98df8a;stroke:#ffffff;stroke-linejoin:miter;stroke-width:0.75;" x="172.189521" xlink:href="#m6602a72c61" y="128.060577"/>
     <use style="fill:#98df8a;stroke:#ffffff;stroke-linejoin:miter;stroke-width:0.75;" x="179.324786" xlink:href="#m6602a72c61" y="128.060577"/>
     <use style="fill:#98df8a;stroke:#ffffff;stroke-linejoin:miter;stroke-width:0.75;" x="186.460051" xlink:href="#m6602a72c61" y="128.060577"/>
     <use style="fill:#98df8a;stroke:#ffffff;stroke-linejoin:miter;stroke-width:0.75;" x="193.595315" xlink:href="#m6602a72c61" y="128.060577"/>
     <use style="fill:#98df8a;stroke:#ffffff;stroke-linejoin:miter;stroke-width:0.75;" x="200.73058" xlink:href="#m6602a72c61" y="128.060577"/>
     <use style="fill:#98df8a;stroke:#ffffff;stroke-linejoin:miter;stroke-width:0.75;" x="207.865845" xlink:href="#m6602a72c61" y="128.060577"/>
     <use style="fill:#98df8a;stroke:#ffffff;stroke-linejoin:miter;stroke-width:0.75;" x="215.00111" xlink:href="#m6602a72c61" y="120.256706"/>
     <use style="fill:#98df8a;stroke:#ffffff;stroke-linejoin:miter;stroke-width:0.75;" x="222.136374" xlink:href="#m6602a72c61" y="120.256706"/>
     <use style="fill:#98df8a;stroke:#ffffff;stroke-linejoin:miter;stroke-width:0.75;" x="229.271639" xlink:href="#m6602a72c61" y="120.256706"/>
     <use style="fill:#98df8a;stroke:#ffffff;stroke-linejoin:miter;stroke-width:0.75;" x="236.406904" xlink:href="#m6602a72c61" y="120.256706"/>
     <use style="fill:#98df8a;stroke:#ffffff;stroke-linejoin:miter;stroke-width:0.75;" x="243.542168" xlink:href="#m6602a72c61" y="120.256706"/>
     <use style="fill:#98df8a;stroke:#ffffff;stroke-linejoin:miter;stroke-width:0.75;" x="250.677433" xlink:href="#m6602a72c61" y="120.256706"/>
     <use style="fill:#98df8a;stroke:#ffffff;stroke-linejoin:miter;stroke-width:0.75;" x="257.812698" xlink:href="#m6602a72c61" y="120.256706"/>
     <use style="fill:#98df8a;stroke:#ffffff;stroke-linejoin:miter;stroke-width:0.75;" x="264.947963" xlink:href="#m6602a72c61" y="120.256706"/>
     <use style="fill:#98df8a;stroke:#ffffff;stroke-linejoin:miter;stroke-width:0.75;" x="272.083227" xlink:href="#m6602a72c61" y="120.256706"/>
     <use style="fill:#98df8a;stroke:#ffffff;stroke-linejoin:miter;stroke-width:0.75;" x="279.218492" xlink:href="#m6602a72c61" y="120.256706"/>
     <use style="fill:#98df8a;stroke:#ffffff;stroke-linejoin:miter;stroke-width:0.75;" x="286.353757" xlink:href="#m6602a72c61" y="120.256706"/>
     <use style="fill:#98df8a;stroke:#ffffff;stroke-linejoin:miter;stroke-width:0.75;" x="293.489022" xlink:href="#m6602a72c61" y="120.256706"/>
     <use style="fill:#98df8a;stroke:#ffffff;stroke-linejoin:miter;stroke-width:0.75;" x="300.624286" xlink:href="#m6602a72c61" y="120.256706"/>
     <use style="fill:#98df8a;stroke:#ffffff;stroke-linejoin:miter;stroke-width:0.75;" x="307.759551" xlink:href="#m6602a72c61" y="120.256706"/>
     <use style="fill:#98df8a;stroke:#ffffff;stroke-linejoin:miter;stroke-width:0.75;" x="314.894816" xlink:href="#m6602a72c61" y="120.256706"/>
     <use style="fill:#98df8a;stroke:#ffffff;stroke-linejoin:miter;stroke-width:0.75;" x="322.030081" xlink:href="#m6602a72c61" y="120.256706"/>
     <use style="fill:#98df8a;stroke:#ffffff;stroke-linejoin:miter;stroke-width:0.75;" x="329.165345" xlink:href="#m6602a72c61" y="120.256706"/>
     <use style="fill:#98df8a;stroke:#ffffff;stroke-linejoin:miter;stroke-width:0.75;" x="336.30061" xlink:href="#m6602a72c61" y="120.256706"/>
     <use style="fill:#98df8a;stroke:#ffffff;stroke-linejoin:miter;stroke-width:0.75;" x="343.435875" xlink:href="#m6602a72c61" y="120.256706"/>
     <use style="fill:#98df8a;stroke:#ffffff;stroke-linejoin:miter;stroke-width:0.75;" x="350.571139" xlink:href="#m6602a72c61" y="120.256706"/>
     <use style="fill:#98df8a;stroke:#ffffff;stroke-linejoin:miter;stroke-width:0.75;" x="357.706404" xlink:href="#m6602a72c61" y="120.256706"/>
     <use style="fill:#98df8a;stroke:#ffffff;stroke-linejoin:miter;stroke-width:0.75;" x="364.841669" xlink:href="#m6602a72c61" y="120.256706"/>
     <use style="fill:#98df8a;stroke:#ffffff;stroke-linejoin:miter;stroke-width:0.75;" x="371.976934" xlink:href="#m6602a72c61" y="120.256706"/>
     <use style="fill:#98df8a;stroke:#ffffff;stroke-linejoin:miter;stroke-width:0.75;" x="379.112198" xlink:href="#m6602a72c61" y="120.256706"/>
     <use style="fill:#98df8a;stroke:#ffffff;stroke-linejoin:miter;stroke-width:0.75;" x="386.247463" xlink:href="#m6602a72c61" y="120.256706"/>
     <use style="fill:#98df8a;stroke:#ffffff;stroke-linejoin:miter;stroke-width:0.75;" x="393.382728" xlink:href="#m6602a72c61" y="120.256706"/>
     <use style="fill:#98df8a;stroke:#ffffff;stroke-linejoin:miter;stroke-width:0.75;" x="400.517993" xlink:href="#m6602a72c61" y="120.256706"/>
     <use style="fill:#98df8a;stroke:#ffffff;stroke-linejoin:miter;stroke-width:0.75;" x="407.653257" xlink:href="#m6602a72c61" y="120.256706"/>
     <use style="fill:#98df8a;stroke:#ffffff;stroke-linejoin:miter;stroke-width:0.75;" x="414.788522" xlink:href="#m6602a72c61" y="120.256706"/>
     <use style="fill:#98df8a;stroke:#ffffff;stroke-linejoin:miter;stroke-width:0.75;" x="421.923787" xlink:href="#m6602a72c61" y="120.256706"/>
     <use style="fill:#98df8a;stroke:#ffffff;stroke-linejoin:miter;stroke-width:0.75;" x="429.059052" xlink:href="#m6602a72c61" y="120.256706"/>
     <use style="fill:#98df8a;stroke:#ffffff;stroke-linejoin:miter;stroke-width:0.75;" x="436.194316" xlink:href="#m6602a72c61" y="120.256706"/>
     <use style="fill:#98df8a;stroke:#ffffff;stroke-linejoin:miter;stroke-width:0.75;" x="443.329581" xlink:href="#m6602a72c61" y="120.256706"/>
     <use style="fill:#98df8a;stroke:#ffffff;stroke-linejoin:miter;stroke-width:0.75;" x="450.464846" xlink:href="#m6602a72c61" y="120.256706"/>
     <use style="fill:#98df8a;stroke:#ffffff;stroke-linejoin:miter;stroke-width:0.75;" x="457.600111" xlink:href="#m6602a72c61" y="120.256706"/>
     <use style="fill:#98df8a;stroke:#ffffff;stroke-linejoin:miter;stroke-width:0.75;" x="464.735375" xlink:href="#m6602a72c61" y="120.256706"/>
     <use style="fill:#98df8a;stroke:#ffffff;stroke-linejoin:miter;stroke-width:0.75;" x="471.87064" xlink:href="#m6602a72c61" y="120.256706"/>
     <use style="fill:#98df8a;stroke:#ffffff;stroke-linejoin:miter;stroke-width:0.75;" x="479.005905" xlink:href="#m6602a72c61" y="120.256706"/>
     <use style="fill:#98df8a;stroke:#ffffff;stroke-linejoin:miter;stroke-width:0.75;" x="486.141169" xlink:href="#m6602a72c61" y="120.256706"/>
     <use style="fill:#98df8a;stroke:#ffffff;stroke-linejoin:miter;stroke-width:0.75;" x="493.276434" xlink:href="#m6602a72c61" y="120.256706"/>
     <use style="fill:#98df8a;stroke:#ffffff;stroke-linejoin:miter;stroke-width:0.75;" x="500.411699" xlink:href="#m6602a72c61" y="120.256706"/>
     <use style="fill:#98df8a;stroke:#ffffff;stroke-linejoin:miter;stroke-width:0.75;" x="507.546964" xlink:href="#m6602a72c61" y="120.256706"/>
     <use style="fill:#98df8a;stroke:#ffffff;stroke-linejoin:miter;stroke-width:0.75;" x="514.682228" xlink:href="#m6602a72c61" y="120.256706"/>
     <use style="fill:#98df8a;stroke:#ffffff;stroke-linejoin:miter;stroke-width:0.75;" x="521.817493" xlink:href="#m6602a72c61" y="120.256706"/>
     <use style="fill:#98df8a;stroke:#ffffff;stroke-linejoin:miter;stroke-width:0.75;" x="528.952758" xlink:href="#m6602a72c61" y="120.256706"/>
     <use style="fill:#98df8a;stroke:#ffffff;stroke-linejoin:miter;stroke-width:0.75;" x="536.088023" xlink:href="#m6602a72c61" y="120.256706"/>
     <use style="fill:#98df8a;stroke:#ffffff;stroke-linejoin:miter;stroke-width:0.75;" x="543.223287" xlink:href="#m6602a72c61" y="120.256706"/>
     <use style="fill:#98df8a;stroke:#ffffff;stroke-linejoin:miter;stroke-width:0.75;" x="550.358552" xlink:href="#m6602a72c61" y="120.256706"/>
     <use style="fill:#98df8a;stroke:#ffffff;stroke-linejoin:miter;stroke-width:0.75;" x="557.493817" xlink:href="#m6602a72c61" y="104.648964"/>
     <use style="fill:#98df8a;stroke:#ffffff;stroke-linejoin:miter;stroke-width:0.75;" x="564.629082" xlink:href="#m6602a72c61" y="104.648964"/>
     <use style="fill:#98df8a;stroke:#ffffff;stroke-linejoin:miter;stroke-width:0.75;" x="571.764346" xlink:href="#m6602a72c61" y="104.648964"/>
     <use style="fill:#98df8a;stroke:#ffffff;stroke-linejoin:miter;stroke-width:0.75;" x="578.899611" xlink:href="#m6602a72c61" y="104.648964"/>
     <use style="fill:#98df8a;stroke:#ffffff;stroke-linejoin:miter;stroke-width:0.75;" x="586.034876" xlink:href="#m6602a72c61" y="89.041222"/>
     <use style="fill:#98df8a;stroke:#ffffff;stroke-linejoin:miter;stroke-width:0.75;" x="593.17014" xlink:href="#m6602a72c61" y="89.041222"/>
     <use style="fill:#98df8a;stroke:#ffffff;stroke-linejoin:miter;stroke-width:0.75;" x="600.305405" xlink:href="#m6602a72c61" y="89.041222"/>
     <use style="fill:#98df8a;stroke:#ffffff;stroke-linejoin:miter;stroke-width:0.75;" x="607.44067" xlink:href="#m6602a72c61" y="89.041222"/>
     <use style="fill:#98df8a;stroke:#ffffff;stroke-linejoin:miter;stroke-width:0.75;" x="614.575935" xlink:href="#m6602a72c61" y="89.041222"/>
     <use style="fill:#98df8a;stroke:#ffffff;stroke-linejoin:miter;stroke-width:0.75;" x="621.711199" xlink:href="#m6602a72c61" y="89.041222"/>
     <use style="fill:#98df8a;stroke:#ffffff;stroke-linejoin:miter;stroke-width:0.75;" x="628.846464" xlink:href="#m6602a72c61" y="89.041222"/>
     <use style="fill:#98df8a;stroke:#ffffff;stroke-linejoin:miter;stroke-width:0.75;" x="635.981729" xlink:href="#m6602a72c61" y="89.041222"/>
     <use style="fill:#98df8a;stroke:#ffffff;stroke-linejoin:miter;stroke-width:0.75;" x="643.116994" xlink:href="#m6602a72c61" y="65.629609"/>
     <use style="fill:#98df8a;stroke:#ffffff;stroke-linejoin:miter;stroke-width:0.75;" x="650.252258" xlink:href="#m6602a72c61" y="65.629609"/>
     <use style="fill:#98df8a;stroke:#ffffff;stroke-linejoin:miter;stroke-width:0.75;" x="657.387523" xlink:href="#m6602a72c61" y="65.629609"/>
     <use style="fill:#98df8a;stroke:#ffffff;stroke-linejoin:miter;stroke-width:0.75;" x="664.522788" xlink:href="#m6602a72c61" y="65.629609"/>
     <use style="fill:#98df8a;stroke:#ffffff;stroke-linejoin:miter;stroke-width:0.75;" x="671.658053" xlink:href="#m6602a72c61" y="65.629609"/>
     <use style="fill:#98df8a;stroke:#ffffff;stroke-linejoin:miter;stroke-width:0.75;" x="678.793317" xlink:href="#m6602a72c61" y="65.629609"/>
     <use style="fill:#98df8a;stroke:#ffffff;stroke-linejoin:miter;stroke-width:0.75;" x="685.928582" xlink:href="#m6602a72c61" y="65.629609"/>
     <use style="fill:#98df8a;stroke:#ffffff;stroke-linejoin:miter;stroke-width:0.75;" x="693.063847" xlink:href="#m6602a72c61" y="65.629609"/>
     <use style="fill:#98df8a;stroke:#ffffff;stroke-linejoin:miter;stroke-width:0.75;" x="700.199112" xlink:href="#m6602a72c61" y="65.629609"/>
     <use style="fill:#98df8a;stroke:#ffffff;stroke-linejoin:miter;stroke-width:0.75;" x="707.334376" xlink:href="#m6602a72c61" y="65.629609"/>
     <use style="fill:#98df8a;stroke:#ffffff;stroke-linejoin:miter;stroke-width:0.75;" x="714.469641" xlink:href="#m6602a72c61" y="65.629609"/>
     <use style="fill:#98df8a;stroke:#ffffff;stroke-linejoin:miter;stroke-width:0.75;" x="721.604906" xlink:href="#m6602a72c61" y="65.629609"/>
     <use style="fill:#98df8a;stroke:#ffffff;stroke-linejoin:miter;stroke-width:0.75;" x="728.74017" xlink:href="#m6602a72c61" y="65.629609"/>
    </g>
   </g>
   <g id="line2d_23"/>
   <g id="line2d_24"/>
   <g id="line2d_25">
    <path clip-path="url(#pf691192d41)" d="M 728.74017 288.430125 
L 728.74017 22.318125 
" style="fill:none;stroke:#ff0000;stroke-linecap:square;stroke-width:1.5;"/>
   </g>
   <g id="patch_3">
    <path d="M 46.965625 260.726383 
L 46.965625 42.217996 
" style="fill:none;stroke:#000000;stroke-linecap:square;stroke-linejoin:miter;stroke-width:0.8;"/>
   </g>
   <g id="patch_4">
    <path d="M 79.43108 288.430125 
L 681.171739 288.430125 
" style="fill:none;stroke:#000000;stroke-linecap:square;stroke-linejoin:miter;stroke-width:0.8;"/>
   </g>
   <g id="text_23">
    <!-- zlib_zlib_uncompress_fuzzer (23h, 10 trials/fuzzer) -->
    <g transform="translate(252.897813 16.318125)scale(0.12 -0.12)">
     <defs>
      <path d="M 353 3500 
L 3084 3500 
L 3084 2975 
L 922 459 
L 3084 459 
L 3084 0 
L 275 0 
L 275 525 
L 2438 3041 
L 353 3041 
L 353 3500 
z
" id="DejaVuSans-7a" transform="scale(0.015625)"/>
      <path d="M 603 4863 
L 1178 4863 
L 1178 0 
L 603 0 
L 603 4863 
z
" id="DejaVuSans-6c" transform="scale(0.015625)"/>
      <path d="M 3263 -1063 
L 3263 -1509 
L -63 -1509 
L -63 -1063 
L 3263 -1063 
z
" id="DejaVuSans-5f" transform="scale(0.015625)"/>
      <path d="M 1159 525 
L 1159 -1331 
L 581 -1331 
L 581 3500 
L 1159 3500 
L 1159 2969 
Q 1341 3281 1617 3432 
Q 1894 3584 2278 3584 
Q 2916 3584 3314 3078 
Q 3713 2572 3713 1747 
Q 3713 922 3314 415 
Q 2916 -91 2278 -91 
Q 1894 -91 1617 61 
Q 1341 213 1159 525 
z
M 3116 1747 
Q 3116 2381 2855 2742 
Q 2594 3103 2138 3103 
Q 1681 3103 1420 2742 
Q 1159 2381 1159 1747 
Q 1159 1113 1420 752 
Q 1681 391 2138 391 
Q 2594 391 2855 752 
Q 3116 1113 3116 1747 
z
" id="DejaVuSans-70" transform="scale(0.015625)"/>
      <path d="M 2834 3397 
L 2834 2853 
Q 2591 2978 2328 3040 
Q 2066 3103 1784 3103 
Q 1356 3103 1142 2972 
Q 928 2841 928 2578 
Q 928 2378 1081 2264 
Q 1234 2150 1697 2047 
L 1894 2003 
Q 2506 1872 2764 1633 
Q 3022 1394 3022 966 
Q 3022 478 2636 193 
Q 2250 -91 1575 -91 
Q 1294 -91 989 -36 
Q 684 19 347 128 
L 347 722 
Q 666 556 975 473 
Q 1284 391 1588 391 
Q 1994 391 2212 530 
Q 2431 669 2431 922 
Q 2431 1156 2273 1281 
Q 2116 1406 1581 1522 
L 1381 1569 
Q 847 1681 609 1914 
Q 372 2147 372 2553 
Q 372 3047 722 3315 
Q 1072 3584 1716 3584 
Q 2034 3584 2315 3537 
Q 2597 3491 2834 3397 
z
" id="DejaVuSans-73" transform="scale(0.015625)"/>
      <path d="M 2375 4863 
L 2375 4384 
L 1825 4384 
Q 1516 4384 1395 4259 
Q 1275 4134 1275 3809 
L 1275 3500 
L 2222 3500 
L 2222 3053 
L 1275 3053 
L 1275 0 
L 697 0 
L 697 3053 
L 147 3053 
L 147 3500 
L 697 3500 
L 697 3744 
Q 697 4328 969 4595 
Q 1241 4863 1831 4863 
L 2375 4863 
z
" id="DejaVuSans-66" transform="scale(0.015625)"/>
      <path d="M 750 794 
L 1409 794 
L 1409 256 
L 897 -744 
L 494 -744 
L 750 256 
L 750 794 
z
" id="DejaVuSans-2c" transform="scale(0.015625)"/>
      <path d="M 1625 4666 
L 2156 4666 
L 531 -594 
L 0 -594 
L 1625 4666 
z
" id="DejaVuSans-2f" transform="scale(0.015625)"/>
     </defs>
     <use xlink:href="#DejaVuSans-7a"/>
     <use x="52.490234" xlink:href="#DejaVuSans-6c"/>
     <use x="80.273438" xlink:href="#DejaVuSans-69"/>
     <use x="108.056641" xlink:href="#DejaVuSans-62"/>
     <use x="171.533203" xlink:href="#DejaVuSans-5f"/>
     <use x="221.533203" xlink:href="#DejaVuSans-7a"/>
     <use x="274.023438" xlink:href="#DejaVuSans-6c"/>
     <use x="301.806641" xlink:href="#DejaVuSans-69"/>
     <use x="329.589844" xlink:href="#DejaVuSans-62"/>
     <use x="393.066406" xlink:href="#DejaVuSans-5f"/>
     <use x="443.066406" xlink:href="#DejaVuSans-75"/>
     <use x="506.445312" xlink:href="#DejaVuSans-6e"/>
     <use x="569.824219" xlink:href="#DejaVuSans-63"/>
     <use x="624.804688" xlink:href="#DejaVuSans-6f"/>
     <use x="685.986328" xlink:href="#DejaVuSans-6d"/>
     <use x="783.398438" xlink:href="#DejaVuSans-70"/>
     <use x="846.875" xlink:href="#DejaVuSans-72"/>
     <use x="885.738281" xlink:href="#DejaVuSans-65"/>
     <use x="947.261719" xlink:href="#DejaVuSans-73"/>
     <use x="999.361328" xlink:href="#DejaVuSans-73"/>
     <use x="1051.460938" xlink:href="#DejaVuSans-5f"/>
     <use x="1101.460938" xlink:href="#DejaVuSans-66"/>
     <use x="1136.666016" xlink:href="#DejaVuSans-75"/>
     <use x="1200.044922" xlink:href="#DejaVuSans-7a"/>
     <use x="1252.535156" xlink:href="#DejaVuSans-7a"/>
     <use x="1305.025391" xlink:href="#DejaVuSans-65"/>
     <use x="1366.548828" xlink:href="#DejaVuSans-72"/>
     <use x="1407.662109" xlink:href="#DejaVuSans-20"/>
     <use x="1439.449219" xlink:href="#DejaVuSans-28"/>
     <use x="1478.462891" xlink:href="#DejaVuSans-32"/>
     <use x="1542.085938" xlink:href="#DejaVuSans-33"/>
     <use x="1605.708984" xlink:href="#DejaVuSans-68"/>
     <use x="1669.087891" xlink:href="#DejaVuSans-2c"/>
     <use x="1700.875" xlink:href="#DejaVuSans-20"/>
     <use x="1732.662109" xlink:href="#DejaVuSans-31"/>
     <use x="1796.285156" xlink:href="#DejaVuSans-30"/>
     <use x="1859.908203" xlink:href="#DejaVuSans-20"/>
     <use x="1891.695312" xlink:href="#DejaVuSans-74"/>
     <use x="1930.904297" xlink:href="#DejaVuSans-72"/>
     <use x="1972.017578" xlink:href="#DejaVuSans-69"/>
     <use x="1999.800781" xlink:href="#DejaVuSans-61"/>
     <use x="2061.080078" xlink:href="#DejaVuSans-6c"/>
     <use x="2088.863281" xlink:href="#DejaVuSans-73"/>
     <use x="2140.962891" xlink:href="#DejaVuSans-2f"/>
     <use x="2174.654297" xlink:href="#DejaVuSans-66"/>
     <use x="2209.859375" xlink:href="#DejaVuSans-75"/>
     <use x="2273.238281" xlink:href="#DejaVuSans-7a"/>
     <use x="2325.728516" xlink:href="#DejaVuSans-7a"/>
     <use x="2378.21875" xlink:href="#DejaVuSans-65"/>
     <use x="2439.742188" xlink:href="#DejaVuSans-72"/>
     <use x="2480.855469" xlink:href="#DejaVuSans-29"/>
    </g>
   </g>
   <g id="legend_1">
    <g id="line2d_26">
     <path d="M 765.205625 30.416563 
L 785.205625 30.416563 
" style="fill:none;stroke:#1f77b4;stroke-linecap:square;stroke-width:1.5;"/>
    </g>
    <g id="line2d_27">
     <defs>
      <path d="M 0 3 
C 0.795609 3 1.55874 2.683901 2.12132 2.12132 
C 2.683901 1.55874 3 0.795609 3 0 
C 3 -0.795609 2.683901 -1.55874 2.12132 -2.12132 
C 1.55874 -2.683901 0.795609 -3 0 -3 
C -0.795609 -3 -1.55874 -2.683901 -2.12132 -2.12132 
C -2.683901 -1.55874 -3 -0.795609 -3 0 
C -3 0.795609 -2.683901 1.55874 -2.12132 2.12132 
C -1.55874 2.683901 -0.795609 3 0 3 
z
" id="m70a6a4ebe6" style="stroke:#1f77b4;"/>
     </defs>
     <g>
      <use style="fill:#1f77b4;stroke:#1f77b4;" x="775.205625" xlink:href="#m70a6a4ebe6" y="30.416563"/>
     </g>
    </g>
    <g id="text_24">
     <!-- fuzzolic_aflplusplus_z3 -->
     <g transform="translate(793.205625 33.916563)scale(0.1 -0.1)">
      <use xlink:href="#DejaVuSans-66"/>
      <use x="35.205078" xlink:href="#DejaVuSans-75"/>
      <use x="98.583984" xlink:href="#DejaVuSans-7a"/>
      <use x="151.074219" xlink:href="#DejaVuSans-7a"/>
      <use x="203.564453" xlink:href="#DejaVuSans-6f"/>
      <use x="264.746094" xlink:href="#DejaVuSans-6c"/>
      <use x="292.529297" xlink:href="#DejaVuSans-69"/>
      <use x="320.3125" xlink:href="#DejaVuSans-63"/>
      <use x="375.292969" xlink:href="#DejaVuSans-5f"/>
      <use x="425.292969" xlink:href="#DejaVuSans-61"/>
      <use x="486.572266" xlink:href="#DejaVuSans-66"/>
      <use x="521.777344" xlink:href="#DejaVuSans-6c"/>
      <use x="549.560547" xlink:href="#DejaVuSans-70"/>
      <use x="613.037109" xlink:href="#DejaVuSans-6c"/>
      <use x="640.820312" xlink:href="#DejaVuSans-75"/>
      <use x="704.199219" xlink:href="#DejaVuSans-73"/>
      <use x="756.298828" xlink:href="#DejaVuSans-70"/>
      <use x="819.775391" xlink:href="#DejaVuSans-6c"/>
      <use x="847.558594" xlink:href="#DejaVuSans-75"/>
      <use x="910.9375" xlink:href="#DejaVuSans-73"/>
      <use x="963.037109" xlink:href="#DejaVuSans-5f"/>
      <use x="1013.037109" xlink:href="#DejaVuSans-7a"/>
      <use x="1065.527344" xlink:href="#DejaVuSans-33"/>
     </g>
    </g>
    <g id="line2d_28">
     <path d="M 765.205625 45.372813 
L 785.205625 45.372813 
" style="fill:none;stroke:#98df8a;stroke-linecap:square;stroke-width:1.5;"/>
    </g>
    <g id="line2d_29">
     <defs>
      <path d="M -0 3 
L 3 -3 
L -3 -3 
z
" id="mc60e4ee58f" style="stroke:#98df8a;stroke-linejoin:miter;"/>
     </defs>
     <g>
      <use style="fill:#98df8a;stroke:#98df8a;stroke-linejoin:miter;" x="775.205625" xlink:href="#mc60e4ee58f" y="45.372813"/>
     </g>
    </g>
    <g id="text_25">
     <!-- sydr_aflplusplus -->
     <g transform="translate(793.205625 48.872813)scale(0.1 -0.1)">
      <defs>
       <path d="M 2059 -325 
Q 1816 -950 1584 -1140 
Q 1353 -1331 966 -1331 
L 506 -1331 
L 506 -850 
L 844 -850 
Q 1081 -850 1212 -737 
Q 1344 -625 1503 -206 
L 1606 56 
L 191 3500 
L 800 3500 
L 1894 763 
L 2988 3500 
L 3597 3500 
L 2059 -325 
z
" id="DejaVuSans-79" transform="scale(0.015625)"/>
      </defs>
      <use xlink:href="#DejaVuSans-73"/>
      <use x="52.099609" xlink:href="#DejaVuSans-79"/>
      <use x="111.279297" xlink:href="#DejaVuSans-64"/>
      <use x="174.755859" xlink:href="#DejaVuSans-72"/>
      <use x="215.869141" xlink:href="#DejaVuSans-5f"/>
      <use x="265.869141" xlink:href="#DejaVuSans-61"/>
      <use x="327.148438" xlink:href="#DejaVuSans-66"/>
      <use x="362.353516" xlink:href="#DejaVuSans-6c"/>
      <use x="390.136719" xlink:href="#DejaVuSans-70"/>
      <use x="453.613281" xlink:href="#DejaVuSans-6c"/>
      <use x="481.396484" xlink:href="#DejaVuSans-75"/>
      <use x="544.775391" xlink:href="#DejaVuSans-73"/>
      <use x="596.875" xlink:href="#DejaVuSans-70"/>
      <use x="660.351562" xlink:href="#DejaVuSans-6c"/>
      <use x="688.134766" xlink:href="#DejaVuSans-75"/>
      <use x="751.513672" xlink:href="#DejaVuSans-73"/>
     </g>
    </g>
   </g>
  </g>
 </g>
 <defs>
  <clipPath id="pf691192d41">
   <rect height="266.112" width="714.24" x="46.965625" y="22.318125"/>
  </clipPath>
 </defs>
</svg>
