<?xml version="1.0" encoding="utf-8" standalone="no"?>
<!DOCTYPE svg PUBLIC "-//W3C//DTD SVG 1.1//EN"
  "http://www.w3.org/Graphics/SVG/1.1/DTD/svg11.dtd">
<svg height="325.986375pt" version="1.1" viewBox="0 0 917.318125 325.986375" width="917.318125pt" xmlns="http://www.w3.org/2000/svg" xmlns:xlink="http://www.w3.org/1999/xlink">
 <metadata>
  <rdf:RDF xmlns:cc="http://creativecommons.org/ns#" xmlns:dc="http://purl.org/dc/elements/1.1/" xmlns:rdf="http://www.w3.org/1999/02/22-rdf-syntax-ns#">
   <cc:Work>
    <dc:type rdf:resource="http://purl.org/dc/dcmitype/StillImage"/>
    <dc:date>2022-10-24T21:04:03.298294</dc:date>
    <dc:format>image/svg+xml</dc:format>
    <dc:creator>
     <cc:Agent>
      <dc:title>Matplotlib v3.4.1, https://matplotlib.org/</dc:title>
     </cc:Agent>
    </dc:creator>
   </cc:Work>
  </rdf:RDF>
 </metadata>
 <defs>
  <style type="text/css">*{stroke-linecap:butt;stroke-linejoin:round;}</style>
 </defs>
 <g id="figure_1">
  <g id="patch_1">
   <path d="M 0 325.986375 
L 917.318125 325.986375 
L 917.318125 0 
L 0 0 
z
" style="fill:#ffffff;"/>
  </g>
  <g id="axes_1">
   <g id="patch_2">
    <path d="M 46.965625 288.430125 
L 761.205625 288.430125 
L 761.205625 22.318125 
L 46.965625 22.318125 
z
" style="fill:#ffffff;"/>
   </g>
   <g id="PolyCollection_1">
    <defs>
     <path d="M 79.43108 -186.74025 
L 79.43108 -49.65225 
L 178.963987 -89.97225 
L 237.187006 -122.22825 
L 278.496895 -162.54825 
L 310.539335 -154.48425 
L 336.719914 -162.54825 
L 358.855278 -170.61225 
L 378.029803 -178.67625 
L 394.942933 -170.61225 
L 410.072242 -178.67625 
L 423.758368 -178.67625 
L 436.252822 -170.61225 
L 447.746605 -170.61225 
L 458.388186 -170.61225 
L 468.295261 -170.61225 
L 477.562711 -178.67625 
L 486.268142 -186.74025 
L 494.47584 -186.74025 
L 502.239657 -186.74025 
L 509.60515 -186.74025 
L 516.611205 -186.74025 
L 523.291276 -186.74025 
L 529.674355 -194.80425 
L 535.78573 -202.66665 
L 541.64759 -194.80425 
L 547.279513 -194.80425 
L 552.698859 -194.80425 
L 557.921094 -194.80425 
L 562.960054 -194.80425 
L 567.828169 -194.80425 
L 572.536644 -202.86825 
L 577.095619 -202.86825 
L 581.514294 -202.86825 
L 585.80105 -202.86825 
L 589.963533 -194.80425 
L 594.008748 -202.66665 
L 597.943121 -202.86825 
L 601.772565 -202.86825 
L 605.502531 -202.86825 
L 609.138058 -202.86825 
L 612.683809 -202.86825 
L 616.144113 -202.86825 
L 619.522989 -202.86825 
L 622.824184 -202.86825 
L 626.051188 -202.86825 
L 629.207263 -194.80425 
L 632.29546 -202.86825 
L 635.318637 -202.66665 
L 638.279477 -202.86825 
L 641.180497 -202.86825 
L 644.024068 -202.86825 
L 646.812421 -202.86825 
L 649.547658 -202.86825 
L 652.231767 -202.86825 
L 654.866623 -202.86825 
L 657.454002 -202.86825 
L 659.995584 -202.86825 
L 662.492962 -202.86825 
L 664.947648 -227.06025 
L 667.361077 -227.06025 
L 669.734612 -227.06025 
L 672.069552 -227.06025 
L 674.367131 -227.06025 
L 676.628527 -227.06025 
L 678.85486 -235.12425 
L 681.047202 -227.06025 
L 683.206576 -226.85865 
L 685.333957 -227.06025 
L 687.430281 -227.06025 
L 689.496441 -227.06025 
L 691.533293 -227.06025 
L 693.541656 -227.06025 
L 695.522317 -227.06025 
L 697.476029 -227.06025 
L 699.403516 -227.06025 
L 701.305473 -227.06025 
L 703.182567 -227.06025 
L 705.035439 -227.06025 
L 706.864708 -227.06025 
L 708.670966 -227.06025 
L 710.454786 -227.06025 
L 712.216717 -227.06025 
L 713.957292 -218.99625 
L 715.67702 -226.85865 
L 717.376397 -227.06025 
L 719.055897 -227.06025 
L 720.715981 -234.92265 
L 722.357091 -227.06025 
L 723.979658 -227.06025 
L 725.584095 -227.06025 
L 727.170804 -227.06025 
L 728.74017 -227.06025 
L 728.74017 -291.57225 
L 728.74017 -291.57225 
L 727.170804 -283.50825 
L 725.584095 -291.57225 
L 723.979658 -291.57225 
L 722.357091 -283.50825 
L 720.715981 -283.50825 
L 719.055897 -283.50825 
L 717.376397 -291.57225 
L 715.67702 -283.70985 
L 713.957292 -283.50825 
L 712.216717 -291.57225 
L 710.454786 -283.50825 
L 708.670966 -291.57225 
L 706.864708 -291.57225 
L 705.035439 -291.57225 
L 703.182567 -291.57225 
L 701.305473 -291.57225 
L 699.403516 -291.57225 
L 697.476029 -283.50825 
L 695.522317 -291.57225 
L 693.541656 -283.70985 
L 691.533293 -283.50825 
L 689.496441 -283.50825 
L 687.430281 -291.57225 
L 685.333957 -291.57225 
L 683.206576 -291.57225 
L 681.047202 -291.57225 
L 678.85486 -283.50825 
L 676.628527 -291.57225 
L 674.367131 -283.50825 
L 672.069552 -291.57225 
L 669.734612 -291.57225 
L 667.361077 -291.57225 
L 664.947648 -291.57225 
L 662.492962 -291.57225 
L 659.995584 -291.57225 
L 657.454002 -291.57225 
L 654.866623 -283.50825 
L 652.231767 -283.50825 
L 649.547658 -283.50825 
L 646.812421 -283.50825 
L 644.024068 -283.50825 
L 641.180497 -283.50825 
L 638.279477 -283.50825 
L 635.318637 -283.50825 
L 632.29546 -283.50825 
L 629.207263 -283.50825 
L 626.051188 -283.50825 
L 622.824184 -283.50825 
L 619.522989 -283.50825 
L 616.144113 -283.50825 
L 612.683809 -283.50825 
L 609.138058 -283.50825 
L 605.502531 -283.50825 
L 601.772565 -283.50825 
L 597.943121 -283.50825 
L 594.008748 -283.50825 
L 589.963533 -283.50825 
L 585.80105 -283.50825 
L 581.514294 -283.50825 
L 577.095619 -283.50825 
L 572.536644 -283.50825 
L 567.828169 -283.50825 
L 562.960054 -283.50825 
L 557.921094 -283.50825 
L 552.698859 -283.50825 
L 547.279513 -283.50825 
L 541.64759 -283.50825 
L 535.78573 -283.50825 
L 529.674355 -283.50825 
L 523.291276 -283.50825 
L 516.611205 -283.50825 
L 509.60515 -283.50825 
L 502.239657 -283.50825 
L 494.47584 -283.50825 
L 486.268142 -283.50825 
L 477.562711 -243.18825 
L 468.295261 -243.18825 
L 458.388186 -243.18825 
L 447.746605 -243.18825 
L 436.252822 -243.18825 
L 423.758368 -243.18825 
L 410.072242 -202.86825 
L 394.942933 -202.86825 
L 378.029803 -202.86825 
L 358.855278 -202.86825 
L 336.719914 -202.86825 
L 310.539335 -202.86825 
L 278.496895 -202.86825 
L 237.187006 -186.74025 
L 178.963987 -194.80425 
L 79.43108 -186.74025 
z
" id="mb9ad307ebc" style="stroke:#1f77b4;stroke-opacity:0.2;"/>
    </defs>
    <g clip-path="url(#p8e881d1057)">
     <use style="fill:#1f77b4;fill-opacity:0.2;stroke:#1f77b4;stroke-opacity:0.2;" x="0" xlink:href="#mb9ad307ebc" y="325.986375"/>
    </g>
   </g>
   <g id="PolyCollection_2">
    <defs>
     <path d="M 79.43108 -186.74025 
L 79.43108 -73.84425 
L 178.963987 -106.10025 
L 237.187006 -130.29225 
L 278.496895 -138.35625 
L 310.539335 -138.35625 
L 336.719914 -138.35625 
L 358.855278 -138.35625 
L 378.029803 -138.35625 
L 394.942933 -138.35625 
L 410.072242 -138.35625 
L 423.758368 -138.35625 
L 436.252822 -138.35625 
L 447.746605 -162.54825 
L 458.388186 -162.54825 
L 468.295261 -162.54825 
L 477.562711 -162.54825 
L 486.268142 -170.61225 
L 494.47584 -170.61225 
L 502.239657 -170.61225 
L 509.60515 -186.74025 
L 516.611205 -186.74025 
L 523.291276 -186.74025 
L 529.674355 -186.74025 
L 535.78573 -186.74025 
L 541.64759 -186.74025 
L 547.279513 -186.74025 
L 552.698859 -186.74025 
L 557.921094 -186.74025 
L 562.960054 -186.74025 
L 567.828169 -186.74025 
L 572.536644 -186.74025 
L 577.095619 -186.74025 
L 581.514294 -186.74025 
L 585.80105 -186.74025 
L 589.963533 -186.74025 
L 594.008748 -186.74025 
L 597.943121 -186.74025 
L 601.772565 -186.74025 
L 605.502531 -186.74025 
L 609.138058 -186.74025 
L 612.683809 -186.74025 
L 616.144113 -186.74025 
L 619.522989 -186.74025 
L 622.824184 -186.74025 
L 626.051188 -186.74025 
L 629.207263 -186.74025 
L 632.29546 -186.74025 
L 635.318637 -186.74025 
L 638.279477 -186.74025 
L 641.180497 -186.74025 
L 644.024068 -186.74025 
L 646.812421 -186.74025 
L 649.547658 -186.74025 
L 652.231767 -186.74025 
L 654.866623 -186.74025 
L 657.454002 -186.74025 
L 659.995584 -194.80425 
L 662.492962 -194.80425 
L 664.947648 -202.66665 
L 667.361077 -194.80425 
L 669.734612 -194.80425 
L 672.069552 -202.86825 
L 674.367131 -202.86825 
L 676.628527 -202.86825 
L 678.85486 -202.86825 
L 681.047202 -202.86825 
L 683.206576 -202.86825 
L 685.333957 -202.86825 
L 687.430281 -202.86825 
L 689.496441 -202.86825 
L 691.533293 -202.86825 
L 693.541656 -202.86825 
L 695.522317 -202.86825 
L 697.476029 -202.86825 
L 699.403516 -202.86825 
L 701.305473 -202.86825 
L 703.182567 -202.86825 
L 705.035439 -202.86825 
L 706.864708 -202.86825 
L 708.670966 -202.86825 
L 710.454786 -202.86825 
L 712.216717 -202.86825 
L 713.957292 -202.86825 
L 715.67702 -202.86825 
L 717.376397 -202.86825 
L 719.055897 -202.86825 
L 720.715981 -202.86825 
L 722.357091 -202.86825 
L 723.979658 -202.86825 
L 725.584095 -202.86825 
L 727.170804 -202.86825 
L 728.74017 -202.86825 
L 728.74017 -283.50825 
L 728.74017 -283.50825 
L 727.170804 -283.50825 
L 725.584095 -283.50825 
L 723.979658 -283.50825 
L 722.357091 -283.50825 
L 720.715981 -283.50825 
L 719.055897 -283.50825 
L 717.376397 -283.50825 
L 715.67702 -283.50825 
L 713.957292 -283.50825 
L 712.216717 -283.50825 
L 710.454786 -283.50825 
L 708.670966 -283.50825 
L 706.864708 -283.50825 
L 705.035439 -283.50825 
L 703.182567 -283.50825 
L 701.305473 -283.50825 
L 699.403516 -283.50825 
L 697.476029 -283.50825 
L 695.522317 -283.50825 
L 693.541656 -283.50825 
L 691.533293 -283.50825 
L 689.496441 -283.50825 
L 687.430281 -283.50825 
L 685.333957 -283.50825 
L 683.206576 -267.38025 
L 681.047202 -267.38025 
L 678.85486 -267.38025 
L 676.628527 -267.38025 
L 674.367131 -267.38025 
L 672.069552 -267.38025 
L 669.734612 -267.38025 
L 667.361077 -267.58185 
L 664.947648 -267.38025 
L 662.492962 -267.38025 
L 659.995584 -267.38025 
L 657.454002 -267.38025 
L 654.866623 -267.38025 
L 652.231767 -267.38025 
L 649.547658 -267.58185 
L 646.812421 -267.38025 
L 644.024068 -267.38025 
L 641.180497 -267.38025 
L 638.279477 -267.38025 
L 635.318637 -267.38025 
L 632.29546 -267.58185 
L 629.207263 -267.38025 
L 626.051188 -275.44425 
L 622.824184 -267.38025 
L 619.522989 -267.38025 
L 616.144113 -267.38025 
L 612.683809 -267.38025 
L 609.138058 -235.12425 
L 605.502531 -235.12425 
L 601.772565 -202.86825 
L 597.943121 -202.86825 
L 594.008748 -202.86825 
L 589.963533 -202.86825 
L 585.80105 -202.86825 
L 581.514294 -202.86825 
L 577.095619 -202.86825 
L 572.536644 -202.86825 
L 567.828169 -202.86825 
L 562.960054 -202.86825 
L 557.921094 -202.86825 
L 552.698859 -202.86825 
L 547.279513 -202.86825 
L 541.64759 -202.86825 
L 535.78573 -202.86825 
L 529.674355 -202.86825 
L 523.291276 -202.86825 
L 516.611205 -202.86825 
L 509.60515 -202.86825 
L 502.239657 -202.86825 
L 494.47584 -202.86825 
L 486.268142 -202.86825 
L 477.562711 -202.86825 
L 468.295261 -202.86825 
L 458.388186 -202.86825 
L 447.746605 -202.86825 
L 436.252822 -202.86825 
L 423.758368 -202.86825 
L 410.072242 -202.86825 
L 394.942933 -202.86825 
L 378.029803 -202.86825 
L 358.855278 -202.86825 
L 336.719914 -202.86825 
L 310.539335 -202.86825 
L 278.496895 -202.86825 
L 237.187006 -202.86825 
L 178.963987 -186.74025 
L 79.43108 -186.74025 
z
" id="m6ed0dc07f9" style="stroke:#98df8a;stroke-opacity:0.2;"/>
    </defs>
    <g clip-path="url(#p8e881d1057)">
     <use style="fill:#98df8a;fill-opacity:0.2;stroke:#98df8a;stroke-opacity:0.2;" x="0" xlink:href="#m6ed0dc07f9" y="325.986375"/>
    </g>
   </g>
   <g id="matplotlib.axis_1">
    <g id="xtick_1">
     <g id="line2d_1">
      <defs>
       <path d="M 0 0 
L 0 3.5 
" id="mf58c84edbb" style="stroke:#000000;stroke-width:0.8;"/>
      </defs>
      <g>
       <use style="stroke:#000000;stroke-width:0.8;" x="79.43108" xlink:href="#mf58c84edbb" y="288.430125"/>
      </g>
     </g>
     <g id="text_1">
      <!-- 14m -->
      <g transform="translate(68.198267 303.028562)scale(0.1 -0.1)">
       <defs>
        <path d="M 794 531 
L 1825 531 
L 1825 4091 
L 703 3866 
L 703 4441 
L 1819 4666 
L 2450 4666 
L 2450 531 
L 3481 531 
L 3481 0 
L 794 0 
L 794 531 
z
" id="DejaVuSans-31" transform="scale(0.015625)"/>
        <path d="M 2419 4116 
L 825 1625 
L 2419 1625 
L 2419 4116 
z
M 2253 4666 
L 3047 4666 
L 3047 1625 
L 3713 1625 
L 3713 1100 
L 3047 1100 
L 3047 0 
L 2419 0 
L 2419 1100 
L 313 1100 
L 313 1709 
L 2253 4666 
z
" id="DejaVuSans-34" transform="scale(0.015625)"/>
        <path d="M 3328 2828 
Q 3544 3216 3844 3400 
Q 4144 3584 4550 3584 
Q 5097 3584 5394 3201 
Q 5691 2819 5691 2113 
L 5691 0 
L 5113 0 
L 5113 2094 
Q 5113 2597 4934 2840 
Q 4756 3084 4391 3084 
Q 3944 3084 3684 2787 
Q 3425 2491 3425 1978 
L 3425 0 
L 2847 0 
L 2847 2094 
Q 2847 2600 2669 2842 
Q 2491 3084 2119 3084 
Q 1678 3084 1418 2786 
Q 1159 2488 1159 1978 
L 1159 0 
L 581 0 
L 581 3500 
L 1159 3500 
L 1159 2956 
Q 1356 3278 1631 3431 
Q 1906 3584 2284 3584 
Q 2666 3584 2933 3390 
Q 3200 3197 3328 2828 
z
" id="DejaVuSans-6d" transform="scale(0.015625)"/>
       </defs>
       <use xlink:href="#DejaVuSans-31"/>
       <use x="63.623047" xlink:href="#DejaVuSans-34"/>
       <use x="127.246094" xlink:href="#DejaVuSans-6d"/>
      </g>
     </g>
    </g>
    <g id="xtick_2">
     <g id="line2d_2">
      <g>
       <use style="stroke:#000000;stroke-width:0.8;" x="138.459336" xlink:href="#mf58c84edbb" y="288.430125"/>
      </g>
     </g>
     <g id="text_2">
      <!-- 22m -->
      <g transform="translate(127.226524 303.028562)scale(0.1 -0.1)">
       <defs>
        <path d="M 1228 531 
L 3431 531 
L 3431 0 
L 469 0 
L 469 531 
Q 828 903 1448 1529 
Q 2069 2156 2228 2338 
Q 2531 2678 2651 2914 
Q 2772 3150 2772 3378 
Q 2772 3750 2511 3984 
Q 2250 4219 1831 4219 
Q 1534 4219 1204 4116 
Q 875 4013 500 3803 
L 500 4441 
Q 881 4594 1212 4672 
Q 1544 4750 1819 4750 
Q 2544 4750 2975 4387 
Q 3406 4025 3406 3419 
Q 3406 3131 3298 2873 
Q 3191 2616 2906 2266 
Q 2828 2175 2409 1742 
Q 1991 1309 1228 531 
z
" id="DejaVuSans-32" transform="scale(0.015625)"/>
       </defs>
       <use xlink:href="#DejaVuSans-32"/>
       <use x="63.623047" xlink:href="#DejaVuSans-32"/>
       <use x="127.246094" xlink:href="#DejaVuSans-6d"/>
      </g>
     </g>
    </g>
    <g id="xtick_3">
     <g id="line2d_3">
      <g>
       <use style="stroke:#000000;stroke-width:0.8;" x="197.487593" xlink:href="#mf58c84edbb" y="288.430125"/>
      </g>
     </g>
     <g id="text_3">
      <!-- 34m -->
      <g transform="translate(186.254781 303.028562)scale(0.1 -0.1)">
       <defs>
        <path d="M 2597 2516 
Q 3050 2419 3304 2112 
Q 3559 1806 3559 1356 
Q 3559 666 3084 287 
Q 2609 -91 1734 -91 
Q 1441 -91 1130 -33 
Q 819 25 488 141 
L 488 750 
Q 750 597 1062 519 
Q 1375 441 1716 441 
Q 2309 441 2620 675 
Q 2931 909 2931 1356 
Q 2931 1769 2642 2001 
Q 2353 2234 1838 2234 
L 1294 2234 
L 1294 2753 
L 1863 2753 
Q 2328 2753 2575 2939 
Q 2822 3125 2822 3475 
Q 2822 3834 2567 4026 
Q 2313 4219 1838 4219 
Q 1578 4219 1281 4162 
Q 984 4106 628 3988 
L 628 4550 
Q 988 4650 1302 4700 
Q 1616 4750 1894 4750 
Q 2613 4750 3031 4423 
Q 3450 4097 3450 3541 
Q 3450 3153 3228 2886 
Q 3006 2619 2597 2516 
z
" id="DejaVuSans-33" transform="scale(0.015625)"/>
       </defs>
       <use xlink:href="#DejaVuSans-33"/>
       <use x="63.623047" xlink:href="#DejaVuSans-34"/>
       <use x="127.246094" xlink:href="#DejaVuSans-6d"/>
      </g>
     </g>
    </g>
    <g id="xtick_4">
     <g id="line2d_4">
      <g>
       <use style="stroke:#000000;stroke-width:0.8;" x="256.51585" xlink:href="#mf58c84edbb" y="288.430125"/>
      </g>
     </g>
     <g id="text_4">
      <!-- 51m -->
      <g transform="translate(245.283038 303.028562)scale(0.1 -0.1)">
       <defs>
        <path d="M 691 4666 
L 3169 4666 
L 3169 4134 
L 1269 4134 
L 1269 2991 
Q 1406 3038 1543 3061 
Q 1681 3084 1819 3084 
Q 2600 3084 3056 2656 
Q 3513 2228 3513 1497 
Q 3513 744 3044 326 
Q 2575 -91 1722 -91 
Q 1428 -91 1123 -41 
Q 819 9 494 109 
L 494 744 
Q 775 591 1075 516 
Q 1375 441 1709 441 
Q 2250 441 2565 725 
Q 2881 1009 2881 1497 
Q 2881 1984 2565 2268 
Q 2250 2553 1709 2553 
Q 1456 2553 1204 2497 
Q 953 2441 691 2322 
L 691 4666 
z
" id="DejaVuSans-35" transform="scale(0.015625)"/>
       </defs>
       <use xlink:href="#DejaVuSans-35"/>
       <use x="63.623047" xlink:href="#DejaVuSans-31"/>
       <use x="127.246094" xlink:href="#DejaVuSans-6d"/>
      </g>
     </g>
    </g>
    <g id="xtick_5">
     <g id="line2d_5">
      <g>
       <use style="stroke:#000000;stroke-width:0.8;" x="315.544107" xlink:href="#mf58c84edbb" y="288.430125"/>
      </g>
     </g>
     <g id="text_5">
      <!-- 1h:17m -->
      <g transform="translate(296.276919 303.028562)scale(0.1 -0.1)">
       <defs>
        <path d="M 3513 2113 
L 3513 0 
L 2938 0 
L 2938 2094 
Q 2938 2591 2744 2837 
Q 2550 3084 2163 3084 
Q 1697 3084 1428 2787 
Q 1159 2491 1159 1978 
L 1159 0 
L 581 0 
L 581 4863 
L 1159 4863 
L 1159 2956 
Q 1366 3272 1645 3428 
Q 1925 3584 2291 3584 
Q 2894 3584 3203 3211 
Q 3513 2838 3513 2113 
z
" id="DejaVuSans-68" transform="scale(0.015625)"/>
        <path d="M 750 794 
L 1409 794 
L 1409 0 
L 750 0 
L 750 794 
z
M 750 3309 
L 1409 3309 
L 1409 2516 
L 750 2516 
L 750 3309 
z
" id="DejaVuSans-3a" transform="scale(0.015625)"/>
        <path d="M 525 4666 
L 3525 4666 
L 3525 4397 
L 1831 0 
L 1172 0 
L 2766 4134 
L 525 4134 
L 525 4666 
z
" id="DejaVuSans-37" transform="scale(0.015625)"/>
       </defs>
       <use xlink:href="#DejaVuSans-31"/>
       <use x="63.623047" xlink:href="#DejaVuSans-68"/>
       <use x="127.001953" xlink:href="#DejaVuSans-3a"/>
       <use x="160.693359" xlink:href="#DejaVuSans-31"/>
       <use x="224.316406" xlink:href="#DejaVuSans-37"/>
       <use x="287.939453" xlink:href="#DejaVuSans-6d"/>
      </g>
     </g>
    </g>
    <g id="xtick_6">
     <g id="line2d_6">
      <g>
       <use style="stroke:#000000;stroke-width:0.8;" x="374.572364" xlink:href="#mf58c84edbb" y="288.430125"/>
      </g>
     </g>
     <g id="text_6">
      <!-- 1h:57m -->
      <g transform="translate(355.305176 303.028562)scale(0.1 -0.1)">
       <use xlink:href="#DejaVuSans-31"/>
       <use x="63.623047" xlink:href="#DejaVuSans-68"/>
       <use x="127.001953" xlink:href="#DejaVuSans-3a"/>
       <use x="160.693359" xlink:href="#DejaVuSans-35"/>
       <use x="224.316406" xlink:href="#DejaVuSans-37"/>
       <use x="287.939453" xlink:href="#DejaVuSans-6d"/>
      </g>
     </g>
    </g>
    <g id="xtick_7">
     <g id="line2d_7">
      <g>
       <use style="stroke:#000000;stroke-width:0.8;" x="433.600621" xlink:href="#mf58c84edbb" y="288.430125"/>
      </g>
     </g>
     <g id="text_7">
      <!-- 2h:56m -->
      <g transform="translate(414.333433 303.028562)scale(0.1 -0.1)">
       <defs>
        <path d="M 2113 2584 
Q 1688 2584 1439 2293 
Q 1191 2003 1191 1497 
Q 1191 994 1439 701 
Q 1688 409 2113 409 
Q 2538 409 2786 701 
Q 3034 994 3034 1497 
Q 3034 2003 2786 2293 
Q 2538 2584 2113 2584 
z
M 3366 4563 
L 3366 3988 
Q 3128 4100 2886 4159 
Q 2644 4219 2406 4219 
Q 1781 4219 1451 3797 
Q 1122 3375 1075 2522 
Q 1259 2794 1537 2939 
Q 1816 3084 2150 3084 
Q 2853 3084 3261 2657 
Q 3669 2231 3669 1497 
Q 3669 778 3244 343 
Q 2819 -91 2113 -91 
Q 1303 -91 875 529 
Q 447 1150 447 2328 
Q 447 3434 972 4092 
Q 1497 4750 2381 4750 
Q 2619 4750 2861 4703 
Q 3103 4656 3366 4563 
z
" id="DejaVuSans-36" transform="scale(0.015625)"/>
       </defs>
       <use xlink:href="#DejaVuSans-32"/>
       <use x="63.623047" xlink:href="#DejaVuSans-68"/>
       <use x="127.001953" xlink:href="#DejaVuSans-3a"/>
       <use x="160.693359" xlink:href="#DejaVuSans-35"/>
       <use x="224.316406" xlink:href="#DejaVuSans-36"/>
       <use x="287.939453" xlink:href="#DejaVuSans-6d"/>
      </g>
     </g>
    </g>
    <g id="xtick_8">
     <g id="line2d_8">
      <g>
       <use style="stroke:#000000;stroke-width:0.8;" x="492.628877" xlink:href="#mf58c84edbb" y="288.430125"/>
      </g>
     </g>
     <g id="text_8">
      <!-- 4h:26m -->
      <g transform="translate(473.36169 303.028562)scale(0.1 -0.1)">
       <use xlink:href="#DejaVuSans-34"/>
       <use x="63.623047" xlink:href="#DejaVuSans-68"/>
       <use x="127.001953" xlink:href="#DejaVuSans-3a"/>
       <use x="160.693359" xlink:href="#DejaVuSans-32"/>
       <use x="224.316406" xlink:href="#DejaVuSans-36"/>
       <use x="287.939453" xlink:href="#DejaVuSans-6d"/>
      </g>
     </g>
    </g>
    <g id="xtick_9">
     <g id="line2d_9">
      <g>
       <use style="stroke:#000000;stroke-width:0.8;" x="551.657134" xlink:href="#mf58c84edbb" y="288.430125"/>
      </g>
     </g>
     <g id="text_9">
      <!-- 6h:42m -->
      <g transform="translate(532.389947 303.028562)scale(0.1 -0.1)">
       <use xlink:href="#DejaVuSans-36"/>
       <use x="63.623047" xlink:href="#DejaVuSans-68"/>
       <use x="127.001953" xlink:href="#DejaVuSans-3a"/>
       <use x="160.693359" xlink:href="#DejaVuSans-34"/>
       <use x="224.316406" xlink:href="#DejaVuSans-32"/>
       <use x="287.939453" xlink:href="#DejaVuSans-6d"/>
      </g>
     </g>
    </g>
    <g id="xtick_10">
     <g id="line2d_10">
      <g>
       <use style="stroke:#000000;stroke-width:0.8;" x="610.685391" xlink:href="#mf58c84edbb" y="288.430125"/>
      </g>
     </g>
     <g id="text_10">
      <!-- 10h:6m -->
      <g transform="translate(591.418204 303.028562)scale(0.1 -0.1)">
       <defs>
        <path d="M 2034 4250 
Q 1547 4250 1301 3770 
Q 1056 3291 1056 2328 
Q 1056 1369 1301 889 
Q 1547 409 2034 409 
Q 2525 409 2770 889 
Q 3016 1369 3016 2328 
Q 3016 3291 2770 3770 
Q 2525 4250 2034 4250 
z
M 2034 4750 
Q 2819 4750 3233 4129 
Q 3647 3509 3647 2328 
Q 3647 1150 3233 529 
Q 2819 -91 2034 -91 
Q 1250 -91 836 529 
Q 422 1150 422 2328 
Q 422 3509 836 4129 
Q 1250 4750 2034 4750 
z
" id="DejaVuSans-30" transform="scale(0.015625)"/>
       </defs>
       <use xlink:href="#DejaVuSans-31"/>
       <use x="63.623047" xlink:href="#DejaVuSans-30"/>
       <use x="127.246094" xlink:href="#DejaVuSans-68"/>
       <use x="190.625" xlink:href="#DejaVuSans-3a"/>
       <use x="224.316406" xlink:href="#DejaVuSans-36"/>
       <use x="287.939453" xlink:href="#DejaVuSans-6d"/>
      </g>
     </g>
    </g>
    <g id="xtick_11">
     <g id="line2d_11">
      <g>
       <use style="stroke:#000000;stroke-width:0.8;" x="669.713648" xlink:href="#mf58c84edbb" y="288.430125"/>
      </g>
     </g>
     <g id="text_11">
      <!-- 15h:14m -->
      <g transform="translate(647.26521 303.028562)scale(0.1 -0.1)">
       <use xlink:href="#DejaVuSans-31"/>
       <use x="63.623047" xlink:href="#DejaVuSans-35"/>
       <use x="127.246094" xlink:href="#DejaVuSans-68"/>
       <use x="190.625" xlink:href="#DejaVuSans-3a"/>
       <use x="224.316406" xlink:href="#DejaVuSans-31"/>
       <use x="287.939453" xlink:href="#DejaVuSans-34"/>
       <use x="351.5625" xlink:href="#DejaVuSans-6d"/>
      </g>
     </g>
    </g>
    <g id="xtick_12">
     <g id="line2d_12">
      <g>
       <use style="stroke:#000000;stroke-width:0.8;" x="728.741905" xlink:href="#mf58c84edbb" y="288.430125"/>
      </g>
     </g>
     <g id="text_12">
      <!-- 23h -->
      <g transform="translate(719.210655 303.028562)scale(0.1 -0.1)">
       <use xlink:href="#DejaVuSans-32"/>
       <use x="63.623047" xlink:href="#DejaVuSans-33"/>
       <use x="127.246094" xlink:href="#DejaVuSans-68"/>
      </g>
     </g>
    </g>
    <g id="xtick_13">
     <g id="line2d_13">
      <defs>
       <path d="M 0 0 
L 0 2 
" id="m961a0380f7" style="stroke:#000000;stroke-width:0.6;"/>
      </defs>
      <g>
       <use style="stroke:#000000;stroke-width:0.6;" x="62.51795" xlink:href="#m961a0380f7" y="288.430125"/>
      </g>
     </g>
    </g>
    <g id="xtick_14">
     <g id="line2d_14">
      <g>
       <use style="stroke:#000000;stroke-width:0.6;" x="194.093297" xlink:href="#m961a0380f7" y="288.430125"/>
      </g>
     </g>
    </g>
    <g id="xtick_15">
     <g id="line2d_15">
      <g>
       <use style="stroke:#000000;stroke-width:0.6;" x="252.316316" xlink:href="#m961a0380f7" y="288.430125"/>
      </g>
     </g>
    </g>
    <g id="xtick_16">
     <g id="line2d_16">
      <g>
       <use style="stroke:#000000;stroke-width:0.6;" x="293.626205" xlink:href="#m961a0380f7" y="288.430125"/>
      </g>
     </g>
    </g>
    <g id="xtick_17">
     <g id="line2d_17">
      <g>
       <use style="stroke:#000000;stroke-width:0.6;" x="325.668644" xlink:href="#m961a0380f7" y="288.430125"/>
      </g>
     </g>
    </g>
    <g id="xtick_18">
     <g id="line2d_18">
      <g>
       <use style="stroke:#000000;stroke-width:0.6;" x="351.849224" xlink:href="#m961a0380f7" y="288.430125"/>
      </g>
     </g>
    </g>
    <g id="xtick_19">
     <g id="line2d_19">
      <g>
       <use style="stroke:#000000;stroke-width:0.6;" x="373.984588" xlink:href="#m961a0380f7" y="288.430125"/>
      </g>
     </g>
    </g>
    <g id="xtick_20">
     <g id="line2d_20">
      <g>
       <use style="stroke:#000000;stroke-width:0.6;" x="393.159113" xlink:href="#m961a0380f7" y="288.430125"/>
      </g>
     </g>
    </g>
    <g id="xtick_21">
     <g id="line2d_21">
      <g>
       <use style="stroke:#000000;stroke-width:0.6;" x="410.072242" xlink:href="#m961a0380f7" y="288.430125"/>
      </g>
     </g>
    </g>
    <g id="xtick_22">
     <g id="line2d_22">
      <g>
       <use style="stroke:#000000;stroke-width:0.6;" x="524.73446" xlink:href="#m961a0380f7" y="288.430125"/>
      </g>
     </g>
    </g>
    <g id="xtick_23">
     <g id="line2d_23">
      <g>
       <use style="stroke:#000000;stroke-width:0.6;" x="582.957479" xlink:href="#m961a0380f7" y="288.430125"/>
      </g>
     </g>
    </g>
    <g id="xtick_24">
     <g id="line2d_24">
      <g>
       <use style="stroke:#000000;stroke-width:0.6;" x="624.267368" xlink:href="#m961a0380f7" y="288.430125"/>
      </g>
     </g>
    </g>
    <g id="xtick_25">
     <g id="line2d_25">
      <g>
       <use style="stroke:#000000;stroke-width:0.6;" x="656.309807" xlink:href="#m961a0380f7" y="288.430125"/>
      </g>
     </g>
    </g>
    <g id="xtick_26">
     <g id="line2d_26">
      <g>
       <use style="stroke:#000000;stroke-width:0.6;" x="682.490387" xlink:href="#m961a0380f7" y="288.430125"/>
      </g>
     </g>
    </g>
    <g id="xtick_27">
     <g id="line2d_27">
      <g>
       <use style="stroke:#000000;stroke-width:0.6;" x="704.625751" xlink:href="#m961a0380f7" y="288.430125"/>
      </g>
     </g>
    </g>
    <g id="xtick_28">
     <g id="line2d_28">
      <g>
       <use style="stroke:#000000;stroke-width:0.6;" x="723.800276" xlink:href="#m961a0380f7" y="288.430125"/>
      </g>
     </g>
    </g>
    <g id="xtick_29">
     <g id="line2d_29">
      <g>
       <use style="stroke:#000000;stroke-width:0.6;" x="740.713405" xlink:href="#m961a0380f7" y="288.430125"/>
      </g>
     </g>
    </g>
    <g id="text_13">
     <!-- Time (hour:minute) -->
     <g transform="translate(355.678594 316.706687)scale(0.1 -0.1)">
      <defs>
       <path d="M -19 4666 
L 3928 4666 
L 3928 4134 
L 2272 4134 
L 2272 0 
L 1638 0 
L 1638 4134 
L -19 4134 
L -19 4666 
z
" id="DejaVuSans-54" transform="scale(0.015625)"/>
       <path d="M 603 3500 
L 1178 3500 
L 1178 0 
L 603 0 
L 603 3500 
z
M 603 4863 
L 1178 4863 
L 1178 4134 
L 603 4134 
L 603 4863 
z
" id="DejaVuSans-69" transform="scale(0.015625)"/>
       <path d="M 3597 1894 
L 3597 1613 
L 953 1613 
Q 991 1019 1311 708 
Q 1631 397 2203 397 
Q 2534 397 2845 478 
Q 3156 559 3463 722 
L 3463 178 
Q 3153 47 2828 -22 
Q 2503 -91 2169 -91 
Q 1331 -91 842 396 
Q 353 884 353 1716 
Q 353 2575 817 3079 
Q 1281 3584 2069 3584 
Q 2775 3584 3186 3129 
Q 3597 2675 3597 1894 
z
M 3022 2063 
Q 3016 2534 2758 2815 
Q 2500 3097 2075 3097 
Q 1594 3097 1305 2825 
Q 1016 2553 972 2059 
L 3022 2063 
z
" id="DejaVuSans-65" transform="scale(0.015625)"/>
       <path id="DejaVuSans-20" transform="scale(0.015625)"/>
       <path d="M 1984 4856 
Q 1566 4138 1362 3434 
Q 1159 2731 1159 2009 
Q 1159 1288 1364 580 
Q 1569 -128 1984 -844 
L 1484 -844 
Q 1016 -109 783 600 
Q 550 1309 550 2009 
Q 550 2706 781 3412 
Q 1013 4119 1484 4856 
L 1984 4856 
z
" id="DejaVuSans-28" transform="scale(0.015625)"/>
       <path d="M 1959 3097 
Q 1497 3097 1228 2736 
Q 959 2375 959 1747 
Q 959 1119 1226 758 
Q 1494 397 1959 397 
Q 2419 397 2687 759 
Q 2956 1122 2956 1747 
Q 2956 2369 2687 2733 
Q 2419 3097 1959 3097 
z
M 1959 3584 
Q 2709 3584 3137 3096 
Q 3566 2609 3566 1747 
Q 3566 888 3137 398 
Q 2709 -91 1959 -91 
Q 1206 -91 779 398 
Q 353 888 353 1747 
Q 353 2609 779 3096 
Q 1206 3584 1959 3584 
z
" id="DejaVuSans-6f" transform="scale(0.015625)"/>
       <path d="M 544 1381 
L 544 3500 
L 1119 3500 
L 1119 1403 
Q 1119 906 1312 657 
Q 1506 409 1894 409 
Q 2359 409 2629 706 
Q 2900 1003 2900 1516 
L 2900 3500 
L 3475 3500 
L 3475 0 
L 2900 0 
L 2900 538 
Q 2691 219 2414 64 
Q 2138 -91 1772 -91 
Q 1169 -91 856 284 
Q 544 659 544 1381 
z
M 1991 3584 
L 1991 3584 
z
" id="DejaVuSans-75" transform="scale(0.015625)"/>
       <path d="M 2631 2963 
Q 2534 3019 2420 3045 
Q 2306 3072 2169 3072 
Q 1681 3072 1420 2755 
Q 1159 2438 1159 1844 
L 1159 0 
L 581 0 
L 581 3500 
L 1159 3500 
L 1159 2956 
Q 1341 3275 1631 3429 
Q 1922 3584 2338 3584 
Q 2397 3584 2469 3576 
Q 2541 3569 2628 3553 
L 2631 2963 
z
" id="DejaVuSans-72" transform="scale(0.015625)"/>
       <path d="M 3513 2113 
L 3513 0 
L 2938 0 
L 2938 2094 
Q 2938 2591 2744 2837 
Q 2550 3084 2163 3084 
Q 1697 3084 1428 2787 
Q 1159 2491 1159 1978 
L 1159 0 
L 581 0 
L 581 3500 
L 1159 3500 
L 1159 2956 
Q 1366 3272 1645 3428 
Q 1925 3584 2291 3584 
Q 2894 3584 3203 3211 
Q 3513 2838 3513 2113 
z
" id="DejaVuSans-6e" transform="scale(0.015625)"/>
       <path d="M 1172 4494 
L 1172 3500 
L 2356 3500 
L 2356 3053 
L 1172 3053 
L 1172 1153 
Q 1172 725 1289 603 
Q 1406 481 1766 481 
L 2356 481 
L 2356 0 
L 1766 0 
Q 1100 0 847 248 
Q 594 497 594 1153 
L 594 3053 
L 172 3053 
L 172 3500 
L 594 3500 
L 594 4494 
L 1172 4494 
z
" id="DejaVuSans-74" transform="scale(0.015625)"/>
       <path d="M 513 4856 
L 1013 4856 
Q 1481 4119 1714 3412 
Q 1947 2706 1947 2009 
Q 1947 1309 1714 600 
Q 1481 -109 1013 -844 
L 513 -844 
Q 928 -128 1133 580 
Q 1338 1288 1338 2009 
Q 1338 2731 1133 3434 
Q 928 4138 513 4856 
z
" id="DejaVuSans-29" transform="scale(0.015625)"/>
      </defs>
      <use xlink:href="#DejaVuSans-54"/>
      <use x="57.958984" xlink:href="#DejaVuSans-69"/>
      <use x="85.742188" xlink:href="#DejaVuSans-6d"/>
      <use x="183.154297" xlink:href="#DejaVuSans-65"/>
      <use x="244.677734" xlink:href="#DejaVuSans-20"/>
      <use x="276.464844" xlink:href="#DejaVuSans-28"/>
      <use x="315.478516" xlink:href="#DejaVuSans-68"/>
      <use x="378.857422" xlink:href="#DejaVuSans-6f"/>
      <use x="440.039062" xlink:href="#DejaVuSans-75"/>
      <use x="503.417969" xlink:href="#DejaVuSans-72"/>
      <use x="542.78125" xlink:href="#DejaVuSans-3a"/>
      <use x="576.472656" xlink:href="#DejaVuSans-6d"/>
      <use x="673.884766" xlink:href="#DejaVuSans-69"/>
      <use x="701.667969" xlink:href="#DejaVuSans-6e"/>
      <use x="765.046875" xlink:href="#DejaVuSans-75"/>
      <use x="828.425781" xlink:href="#DejaVuSans-74"/>
      <use x="867.634766" xlink:href="#DejaVuSans-65"/>
      <use x="929.158203" xlink:href="#DejaVuSans-29"/>
     </g>
    </g>
   </g>
   <g id="matplotlib.axis_2">
    <g id="ytick_1">
     <g id="line2d_30">
      <defs>
       <path d="M 0 0 
L -3.5 0 
" id="m5e8f5a2dba" style="stroke:#000000;stroke-width:0.8;"/>
      </defs>
      <g>
       <use style="stroke:#000000;stroke-width:0.8;" x="46.965625" xlink:href="#m5e8f5a2dba" y="268.270125"/>
      </g>
     </g>
     <g id="text_14">
      <!-- 448 -->
      <g transform="translate(20.878125 272.069344)scale(0.1 -0.1)">
       <defs>
        <path d="M 2034 2216 
Q 1584 2216 1326 1975 
Q 1069 1734 1069 1313 
Q 1069 891 1326 650 
Q 1584 409 2034 409 
Q 2484 409 2743 651 
Q 3003 894 3003 1313 
Q 3003 1734 2745 1975 
Q 2488 2216 2034 2216 
z
M 1403 2484 
Q 997 2584 770 2862 
Q 544 3141 544 3541 
Q 544 4100 942 4425 
Q 1341 4750 2034 4750 
Q 2731 4750 3128 4425 
Q 3525 4100 3525 3541 
Q 3525 3141 3298 2862 
Q 3072 2584 2669 2484 
Q 3125 2378 3379 2068 
Q 3634 1759 3634 1313 
Q 3634 634 3220 271 
Q 2806 -91 2034 -91 
Q 1263 -91 848 271 
Q 434 634 434 1313 
Q 434 1759 690 2068 
Q 947 2378 1403 2484 
z
M 1172 3481 
Q 1172 3119 1398 2916 
Q 1625 2713 2034 2713 
Q 2441 2713 2670 2916 
Q 2900 3119 2900 3481 
Q 2900 3844 2670 4047 
Q 2441 4250 2034 4250 
Q 1625 4250 1398 4047 
Q 1172 3844 1172 3481 
z
" id="DejaVuSans-38" transform="scale(0.015625)"/>
       </defs>
       <use xlink:href="#DejaVuSans-34"/>
       <use x="63.623047" xlink:href="#DejaVuSans-34"/>
       <use x="127.246094" xlink:href="#DejaVuSans-38"/>
      </g>
     </g>
    </g>
    <g id="ytick_2">
     <g id="line2d_31">
      <g>
       <use style="stroke:#000000;stroke-width:0.8;" x="46.965625" xlink:href="#m5e8f5a2dba" y="236.014125"/>
      </g>
     </g>
     <g id="text_15">
      <!-- 450 -->
      <g transform="translate(20.878125 239.813344)scale(0.1 -0.1)">
       <use xlink:href="#DejaVuSans-34"/>
       <use x="63.623047" xlink:href="#DejaVuSans-35"/>
       <use x="127.246094" xlink:href="#DejaVuSans-30"/>
      </g>
     </g>
    </g>
    <g id="ytick_3">
     <g id="line2d_32">
      <g>
       <use style="stroke:#000000;stroke-width:0.8;" x="46.965625" xlink:href="#m5e8f5a2dba" y="203.758125"/>
      </g>
     </g>
     <g id="text_16">
      <!-- 452 -->
      <g transform="translate(20.878125 207.557344)scale(0.1 -0.1)">
       <use xlink:href="#DejaVuSans-34"/>
       <use x="63.623047" xlink:href="#DejaVuSans-35"/>
       <use x="127.246094" xlink:href="#DejaVuSans-32"/>
      </g>
     </g>
    </g>
    <g id="ytick_4">
     <g id="line2d_33">
      <g>
       <use style="stroke:#000000;stroke-width:0.8;" x="46.965625" xlink:href="#m5e8f5a2dba" y="171.502125"/>
      </g>
     </g>
     <g id="text_17">
      <!-- 454 -->
      <g transform="translate(20.878125 175.301344)scale(0.1 -0.1)">
       <use xlink:href="#DejaVuSans-34"/>
       <use x="63.623047" xlink:href="#DejaVuSans-35"/>
       <use x="127.246094" xlink:href="#DejaVuSans-34"/>
      </g>
     </g>
    </g>
    <g id="ytick_5">
     <g id="line2d_34">
      <g>
       <use style="stroke:#000000;stroke-width:0.8;" x="46.965625" xlink:href="#m5e8f5a2dba" y="139.246125"/>
      </g>
     </g>
     <g id="text_18">
      <!-- 456 -->
      <g transform="translate(20.878125 143.045344)scale(0.1 -0.1)">
       <use xlink:href="#DejaVuSans-34"/>
       <use x="63.623047" xlink:href="#DejaVuSans-35"/>
       <use x="127.246094" xlink:href="#DejaVuSans-36"/>
      </g>
     </g>
    </g>
    <g id="ytick_6">
     <g id="line2d_35">
      <g>
       <use style="stroke:#000000;stroke-width:0.8;" x="46.965625" xlink:href="#m5e8f5a2dba" y="106.990125"/>
      </g>
     </g>
     <g id="text_19">
      <!-- 458 -->
      <g transform="translate(20.878125 110.789344)scale(0.1 -0.1)">
       <use xlink:href="#DejaVuSans-34"/>
       <use x="63.623047" xlink:href="#DejaVuSans-35"/>
       <use x="127.246094" xlink:href="#DejaVuSans-38"/>
      </g>
     </g>
    </g>
    <g id="ytick_7">
     <g id="line2d_36">
      <g>
       <use style="stroke:#000000;stroke-width:0.8;" x="46.965625" xlink:href="#m5e8f5a2dba" y="74.734125"/>
      </g>
     </g>
     <g id="text_20">
      <!-- 460 -->
      <g transform="translate(20.878125 78.533344)scale(0.1 -0.1)">
       <use xlink:href="#DejaVuSans-34"/>
       <use x="63.623047" xlink:href="#DejaVuSans-36"/>
       <use x="127.246094" xlink:href="#DejaVuSans-30"/>
      </g>
     </g>
    </g>
    <g id="ytick_8">
     <g id="line2d_37">
      <g>
       <use style="stroke:#000000;stroke-width:0.8;" x="46.965625" xlink:href="#m5e8f5a2dba" y="42.478125"/>
      </g>
     </g>
     <g id="text_21">
      <!-- 462 -->
      <g transform="translate(20.878125 46.277344)scale(0.1 -0.1)">
       <use xlink:href="#DejaVuSans-34"/>
       <use x="63.623047" xlink:href="#DejaVuSans-36"/>
       <use x="127.246094" xlink:href="#DejaVuSans-32"/>
      </g>
     </g>
    </g>
    <g id="text_22">
     <!-- Code branch coverage -->
     <g transform="translate(14.798438 211.949125)rotate(-90)scale(0.1 -0.1)">
      <defs>
       <path d="M 4122 4306 
L 4122 3641 
Q 3803 3938 3442 4084 
Q 3081 4231 2675 4231 
Q 1875 4231 1450 3742 
Q 1025 3253 1025 2328 
Q 1025 1406 1450 917 
Q 1875 428 2675 428 
Q 3081 428 3442 575 
Q 3803 722 4122 1019 
L 4122 359 
Q 3791 134 3420 21 
Q 3050 -91 2638 -91 
Q 1578 -91 968 557 
Q 359 1206 359 2328 
Q 359 3453 968 4101 
Q 1578 4750 2638 4750 
Q 3056 4750 3426 4639 
Q 3797 4528 4122 4306 
z
" id="DejaVuSans-43" transform="scale(0.015625)"/>
       <path d="M 2906 2969 
L 2906 4863 
L 3481 4863 
L 3481 0 
L 2906 0 
L 2906 525 
Q 2725 213 2448 61 
Q 2172 -91 1784 -91 
Q 1150 -91 751 415 
Q 353 922 353 1747 
Q 353 2572 751 3078 
Q 1150 3584 1784 3584 
Q 2172 3584 2448 3432 
Q 2725 3281 2906 2969 
z
M 947 1747 
Q 947 1113 1208 752 
Q 1469 391 1925 391 
Q 2381 391 2643 752 
Q 2906 1113 2906 1747 
Q 2906 2381 2643 2742 
Q 2381 3103 1925 3103 
Q 1469 3103 1208 2742 
Q 947 2381 947 1747 
z
" id="DejaVuSans-64" transform="scale(0.015625)"/>
       <path d="M 3116 1747 
Q 3116 2381 2855 2742 
Q 2594 3103 2138 3103 
Q 1681 3103 1420 2742 
Q 1159 2381 1159 1747 
Q 1159 1113 1420 752 
Q 1681 391 2138 391 
Q 2594 391 2855 752 
Q 3116 1113 3116 1747 
z
M 1159 2969 
Q 1341 3281 1617 3432 
Q 1894 3584 2278 3584 
Q 2916 3584 3314 3078 
Q 3713 2572 3713 1747 
Q 3713 922 3314 415 
Q 2916 -91 2278 -91 
Q 1894 -91 1617 61 
Q 1341 213 1159 525 
L 1159 0 
L 581 0 
L 581 4863 
L 1159 4863 
L 1159 2969 
z
" id="DejaVuSans-62" transform="scale(0.015625)"/>
       <path d="M 2194 1759 
Q 1497 1759 1228 1600 
Q 959 1441 959 1056 
Q 959 750 1161 570 
Q 1363 391 1709 391 
Q 2188 391 2477 730 
Q 2766 1069 2766 1631 
L 2766 1759 
L 2194 1759 
z
M 3341 1997 
L 3341 0 
L 2766 0 
L 2766 531 
Q 2569 213 2275 61 
Q 1981 -91 1556 -91 
Q 1019 -91 701 211 
Q 384 513 384 1019 
Q 384 1609 779 1909 
Q 1175 2209 1959 2209 
L 2766 2209 
L 2766 2266 
Q 2766 2663 2505 2880 
Q 2244 3097 1772 3097 
Q 1472 3097 1187 3025 
Q 903 2953 641 2809 
L 641 3341 
Q 956 3463 1253 3523 
Q 1550 3584 1831 3584 
Q 2591 3584 2966 3190 
Q 3341 2797 3341 1997 
z
" id="DejaVuSans-61" transform="scale(0.015625)"/>
       <path d="M 3122 3366 
L 3122 2828 
Q 2878 2963 2633 3030 
Q 2388 3097 2138 3097 
Q 1578 3097 1268 2742 
Q 959 2388 959 1747 
Q 959 1106 1268 751 
Q 1578 397 2138 397 
Q 2388 397 2633 464 
Q 2878 531 3122 666 
L 3122 134 
Q 2881 22 2623 -34 
Q 2366 -91 2075 -91 
Q 1284 -91 818 406 
Q 353 903 353 1747 
Q 353 2603 823 3093 
Q 1294 3584 2113 3584 
Q 2378 3584 2631 3529 
Q 2884 3475 3122 3366 
z
" id="DejaVuSans-63" transform="scale(0.015625)"/>
       <path d="M 191 3500 
L 800 3500 
L 1894 563 
L 2988 3500 
L 3597 3500 
L 2284 0 
L 1503 0 
L 191 3500 
z
" id="DejaVuSans-76" transform="scale(0.015625)"/>
       <path d="M 2906 1791 
Q 2906 2416 2648 2759 
Q 2391 3103 1925 3103 
Q 1463 3103 1205 2759 
Q 947 2416 947 1791 
Q 947 1169 1205 825 
Q 1463 481 1925 481 
Q 2391 481 2648 825 
Q 2906 1169 2906 1791 
z
M 3481 434 
Q 3481 -459 3084 -895 
Q 2688 -1331 1869 -1331 
Q 1566 -1331 1297 -1286 
Q 1028 -1241 775 -1147 
L 775 -588 
Q 1028 -725 1275 -790 
Q 1522 -856 1778 -856 
Q 2344 -856 2625 -561 
Q 2906 -266 2906 331 
L 2906 616 
Q 2728 306 2450 153 
Q 2172 0 1784 0 
Q 1141 0 747 490 
Q 353 981 353 1791 
Q 353 2603 747 3093 
Q 1141 3584 1784 3584 
Q 2172 3584 2450 3431 
Q 2728 3278 2906 2969 
L 2906 3500 
L 3481 3500 
L 3481 434 
z
" id="DejaVuSans-67" transform="scale(0.015625)"/>
      </defs>
      <use xlink:href="#DejaVuSans-43"/>
      <use x="69.824219" xlink:href="#DejaVuSans-6f"/>
      <use x="131.005859" xlink:href="#DejaVuSans-64"/>
      <use x="194.482422" xlink:href="#DejaVuSans-65"/>
      <use x="256.005859" xlink:href="#DejaVuSans-20"/>
      <use x="287.792969" xlink:href="#DejaVuSans-62"/>
      <use x="351.269531" xlink:href="#DejaVuSans-72"/>
      <use x="392.382812" xlink:href="#DejaVuSans-61"/>
      <use x="453.662109" xlink:href="#DejaVuSans-6e"/>
      <use x="517.041016" xlink:href="#DejaVuSans-63"/>
      <use x="572.021484" xlink:href="#DejaVuSans-68"/>
      <use x="635.400391" xlink:href="#DejaVuSans-20"/>
      <use x="667.1875" xlink:href="#DejaVuSans-63"/>
      <use x="722.167969" xlink:href="#DejaVuSans-6f"/>
      <use x="783.349609" xlink:href="#DejaVuSans-76"/>
      <use x="842.529297" xlink:href="#DejaVuSans-65"/>
      <use x="904.052734" xlink:href="#DejaVuSans-72"/>
      <use x="945.166016" xlink:href="#DejaVuSans-61"/>
      <use x="1006.445312" xlink:href="#DejaVuSans-67"/>
      <use x="1069.921875" xlink:href="#DejaVuSans-65"/>
     </g>
    </g>
   </g>
   <g id="line2d_38">
    <path clip-path="url(#p8e881d1057)" d="M 79.43108 139.246125 
L 178.963987 139.246125 
L 237.187006 139.246125 
L 278.496895 131.182125 
L 310.539335 131.182125 
L 336.719914 131.182125 
L 358.855278 131.182125 
L 378.029803 123.118125 
L 394.942933 123.118125 
L 410.072242 123.118125 
L 423.758368 123.118125 
L 436.252822 123.118125 
L 447.746605 123.118125 
L 458.388186 123.118125 
L 468.295261 123.118125 
L 477.562711 123.118125 
L 486.268142 123.118125 
L 494.47584 123.118125 
L 502.239657 123.118125 
L 509.60515 123.118125 
L 516.611205 123.118125 
L 523.291276 123.118125 
L 529.674355 106.990125 
L 535.78573 106.990125 
L 541.64759 82.798125 
L 547.279513 82.798125 
L 552.698859 82.798125 
L 557.921094 82.798125 
L 562.960054 82.798125 
L 567.828169 82.798125 
L 572.536644 82.798125 
L 577.095619 82.798125 
L 581.514294 82.798125 
L 585.80105 82.798125 
L 589.963533 82.798125 
L 594.008748 82.798125 
L 597.943121 74.734125 
L 601.772565 74.734125 
L 605.502531 74.734125 
L 609.138058 74.734125 
L 612.683809 74.734125 
L 616.144113 74.734125 
L 619.522989 74.734125 
L 622.824184 74.734125 
L 626.051188 74.734125 
L 629.207263 74.734125 
L 632.29546 74.734125 
L 635.318637 74.734125 
L 638.279477 74.734125 
L 641.180497 74.734125 
L 644.024068 74.734125 
L 646.812421 74.734125 
L 649.547658 74.734125 
L 652.231767 74.734125 
L 654.866623 74.734125 
L 657.454002 74.734125 
L 659.995584 74.734125 
L 662.492962 74.734125 
L 664.947648 74.734125 
L 667.361077 74.734125 
L 669.734612 74.734125 
L 672.069552 74.734125 
L 674.367131 74.734125 
L 676.628527 74.734125 
L 678.85486 74.734125 
L 681.047202 74.734125 
L 683.206576 74.734125 
L 685.333957 74.734125 
L 687.430281 74.734125 
L 689.496441 74.734125 
L 691.533293 74.734125 
L 693.541656 74.734125 
L 695.522317 74.734125 
L 697.476029 74.734125 
L 699.403516 74.734125 
L 701.305473 74.734125 
L 703.182567 74.734125 
L 705.035439 74.734125 
L 706.864708 74.734125 
L 708.670966 74.734125 
L 710.454786 74.734125 
L 712.216717 74.734125 
L 713.957292 74.734125 
L 715.67702 74.734125 
L 717.376397 74.734125 
L 719.055897 74.734125 
L 720.715981 74.734125 
L 722.357091 74.734125 
L 723.979658 74.734125 
L 725.584095 74.734125 
L 727.170804 74.734125 
L 728.74017 74.734125 
" style="fill:none;stroke:#1f77b4;stroke-linecap:square;stroke-width:1.5;"/>
    <defs>
     <path d="M 0 3 
C 0.795609 3 1.55874 2.683901 2.12132 2.12132 
C 2.683901 1.55874 3 0.795609 3 0 
C 3 -0.795609 2.683901 -1.55874 2.12132 -2.12132 
C 1.55874 -2.683901 0.795609 -3 0 -3 
C -0.795609 -3 -1.55874 -2.683901 -2.12132 -2.12132 
C -2.683901 -1.55874 -3 -0.795609 -3 0 
C -3 0.795609 -2.683901 1.55874 -2.12132 2.12132 
C -1.55874 2.683901 -0.795609 3 0 3 
z
" id="m76737101c5" style="stroke:#ffffff;stroke-width:0.75;"/>
    </defs>
    <g clip-path="url(#p8e881d1057)">
     <use style="fill:#1f77b4;stroke:#ffffff;stroke-width:0.75;" x="79.43108" xlink:href="#m76737101c5" y="139.246125"/>
     <use style="fill:#1f77b4;stroke:#ffffff;stroke-width:0.75;" x="178.963987" xlink:href="#m76737101c5" y="139.246125"/>
     <use style="fill:#1f77b4;stroke:#ffffff;stroke-width:0.75;" x="237.187006" xlink:href="#m76737101c5" y="139.246125"/>
     <use style="fill:#1f77b4;stroke:#ffffff;stroke-width:0.75;" x="278.496895" xlink:href="#m76737101c5" y="131.182125"/>
     <use style="fill:#1f77b4;stroke:#ffffff;stroke-width:0.75;" x="310.539335" xlink:href="#m76737101c5" y="131.182125"/>
     <use style="fill:#1f77b4;stroke:#ffffff;stroke-width:0.75;" x="336.719914" xlink:href="#m76737101c5" y="131.182125"/>
     <use style="fill:#1f77b4;stroke:#ffffff;stroke-width:0.75;" x="358.855278" xlink:href="#m76737101c5" y="131.182125"/>
     <use style="fill:#1f77b4;stroke:#ffffff;stroke-width:0.75;" x="378.029803" xlink:href="#m76737101c5" y="123.118125"/>
     <use style="fill:#1f77b4;stroke:#ffffff;stroke-width:0.75;" x="394.942933" xlink:href="#m76737101c5" y="123.118125"/>
     <use style="fill:#1f77b4;stroke:#ffffff;stroke-width:0.75;" x="410.072242" xlink:href="#m76737101c5" y="123.118125"/>
     <use style="fill:#1f77b4;stroke:#ffffff;stroke-width:0.75;" x="423.758368" xlink:href="#m76737101c5" y="123.118125"/>
     <use style="fill:#1f77b4;stroke:#ffffff;stroke-width:0.75;" x="436.252822" xlink:href="#m76737101c5" y="123.118125"/>
     <use style="fill:#1f77b4;stroke:#ffffff;stroke-width:0.75;" x="447.746605" xlink:href="#m76737101c5" y="123.118125"/>
     <use style="fill:#1f77b4;stroke:#ffffff;stroke-width:0.75;" x="458.388186" xlink:href="#m76737101c5" y="123.118125"/>
     <use style="fill:#1f77b4;stroke:#ffffff;stroke-width:0.75;" x="468.295261" xlink:href="#m76737101c5" y="123.118125"/>
     <use style="fill:#1f77b4;stroke:#ffffff;stroke-width:0.75;" x="477.562711" xlink:href="#m76737101c5" y="123.118125"/>
     <use style="fill:#1f77b4;stroke:#ffffff;stroke-width:0.75;" x="486.268142" xlink:href="#m76737101c5" y="123.118125"/>
     <use style="fill:#1f77b4;stroke:#ffffff;stroke-width:0.75;" x="494.47584" xlink:href="#m76737101c5" y="123.118125"/>
     <use style="fill:#1f77b4;stroke:#ffffff;stroke-width:0.75;" x="502.239657" xlink:href="#m76737101c5" y="123.118125"/>
     <use style="fill:#1f77b4;stroke:#ffffff;stroke-width:0.75;" x="509.60515" xlink:href="#m76737101c5" y="123.118125"/>
     <use style="fill:#1f77b4;stroke:#ffffff;stroke-width:0.75;" x="516.611205" xlink:href="#m76737101c5" y="123.118125"/>
     <use style="fill:#1f77b4;stroke:#ffffff;stroke-width:0.75;" x="523.291276" xlink:href="#m76737101c5" y="123.118125"/>
     <use style="fill:#1f77b4;stroke:#ffffff;stroke-width:0.75;" x="529.674355" xlink:href="#m76737101c5" y="106.990125"/>
     <use style="fill:#1f77b4;stroke:#ffffff;stroke-width:0.75;" x="535.78573" xlink:href="#m76737101c5" y="106.990125"/>
     <use style="fill:#1f77b4;stroke:#ffffff;stroke-width:0.75;" x="541.64759" xlink:href="#m76737101c5" y="82.798125"/>
     <use style="fill:#1f77b4;stroke:#ffffff;stroke-width:0.75;" x="547.279513" xlink:href="#m76737101c5" y="82.798125"/>
     <use style="fill:#1f77b4;stroke:#ffffff;stroke-width:0.75;" x="552.698859" xlink:href="#m76737101c5" y="82.798125"/>
     <use style="fill:#1f77b4;stroke:#ffffff;stroke-width:0.75;" x="557.921094" xlink:href="#m76737101c5" y="82.798125"/>
     <use style="fill:#1f77b4;stroke:#ffffff;stroke-width:0.75;" x="562.960054" xlink:href="#m76737101c5" y="82.798125"/>
     <use style="fill:#1f77b4;stroke:#ffffff;stroke-width:0.75;" x="567.828169" xlink:href="#m76737101c5" y="82.798125"/>
     <use style="fill:#1f77b4;stroke:#ffffff;stroke-width:0.75;" x="572.536644" xlink:href="#m76737101c5" y="82.798125"/>
     <use style="fill:#1f77b4;stroke:#ffffff;stroke-width:0.75;" x="577.095619" xlink:href="#m76737101c5" y="82.798125"/>
     <use style="fill:#1f77b4;stroke:#ffffff;stroke-width:0.75;" x="581.514294" xlink:href="#m76737101c5" y="82.798125"/>
     <use style="fill:#1f77b4;stroke:#ffffff;stroke-width:0.75;" x="585.80105" xlink:href="#m76737101c5" y="82.798125"/>
     <use style="fill:#1f77b4;stroke:#ffffff;stroke-width:0.75;" x="589.963533" xlink:href="#m76737101c5" y="82.798125"/>
     <use style="fill:#1f77b4;stroke:#ffffff;stroke-width:0.75;" x="594.008748" xlink:href="#m76737101c5" y="82.798125"/>
     <use style="fill:#1f77b4;stroke:#ffffff;stroke-width:0.75;" x="597.943121" xlink:href="#m76737101c5" y="74.734125"/>
     <use style="fill:#1f77b4;stroke:#ffffff;stroke-width:0.75;" x="601.772565" xlink:href="#m76737101c5" y="74.734125"/>
     <use style="fill:#1f77b4;stroke:#ffffff;stroke-width:0.75;" x="605.502531" xlink:href="#m76737101c5" y="74.734125"/>
     <use style="fill:#1f77b4;stroke:#ffffff;stroke-width:0.75;" x="609.138058" xlink:href="#m76737101c5" y="74.734125"/>
     <use style="fill:#1f77b4;stroke:#ffffff;stroke-width:0.75;" x="612.683809" xlink:href="#m76737101c5" y="74.734125"/>
     <use style="fill:#1f77b4;stroke:#ffffff;stroke-width:0.75;" x="616.144113" xlink:href="#m76737101c5" y="74.734125"/>
     <use style="fill:#1f77b4;stroke:#ffffff;stroke-width:0.75;" x="619.522989" xlink:href="#m76737101c5" y="74.734125"/>
     <use style="fill:#1f77b4;stroke:#ffffff;stroke-width:0.75;" x="622.824184" xlink:href="#m76737101c5" y="74.734125"/>
     <use style="fill:#1f77b4;stroke:#ffffff;stroke-width:0.75;" x="626.051188" xlink:href="#m76737101c5" y="74.734125"/>
     <use style="fill:#1f77b4;stroke:#ffffff;stroke-width:0.75;" x="629.207263" xlink:href="#m76737101c5" y="74.734125"/>
     <use style="fill:#1f77b4;stroke:#ffffff;stroke-width:0.75;" x="632.29546" xlink:href="#m76737101c5" y="74.734125"/>
     <use style="fill:#1f77b4;stroke:#ffffff;stroke-width:0.75;" x="635.318637" xlink:href="#m76737101c5" y="74.734125"/>
     <use style="fill:#1f77b4;stroke:#ffffff;stroke-width:0.75;" x="638.279477" xlink:href="#m76737101c5" y="74.734125"/>
     <use style="fill:#1f77b4;stroke:#ffffff;stroke-width:0.75;" x="641.180497" xlink:href="#m76737101c5" y="74.734125"/>
     <use style="fill:#1f77b4;stroke:#ffffff;stroke-width:0.75;" x="644.024068" xlink:href="#m76737101c5" y="74.734125"/>
     <use style="fill:#1f77b4;stroke:#ffffff;stroke-width:0.75;" x="646.812421" xlink:href="#m76737101c5" y="74.734125"/>
     <use style="fill:#1f77b4;stroke:#ffffff;stroke-width:0.75;" x="649.547658" xlink:href="#m76737101c5" y="74.734125"/>
     <use style="fill:#1f77b4;stroke:#ffffff;stroke-width:0.75;" x="652.231767" xlink:href="#m76737101c5" y="74.734125"/>
     <use style="fill:#1f77b4;stroke:#ffffff;stroke-width:0.75;" x="654.866623" xlink:href="#m76737101c5" y="74.734125"/>
     <use style="fill:#1f77b4;stroke:#ffffff;stroke-width:0.75;" x="657.454002" xlink:href="#m76737101c5" y="74.734125"/>
     <use style="fill:#1f77b4;stroke:#ffffff;stroke-width:0.75;" x="659.995584" xlink:href="#m76737101c5" y="74.734125"/>
     <use style="fill:#1f77b4;stroke:#ffffff;stroke-width:0.75;" x="662.492962" xlink:href="#m76737101c5" y="74.734125"/>
     <use style="fill:#1f77b4;stroke:#ffffff;stroke-width:0.75;" x="664.947648" xlink:href="#m76737101c5" y="74.734125"/>
     <use style="fill:#1f77b4;stroke:#ffffff;stroke-width:0.75;" x="667.361077" xlink:href="#m76737101c5" y="74.734125"/>
     <use style="fill:#1f77b4;stroke:#ffffff;stroke-width:0.75;" x="669.734612" xlink:href="#m76737101c5" y="74.734125"/>
     <use style="fill:#1f77b4;stroke:#ffffff;stroke-width:0.75;" x="672.069552" xlink:href="#m76737101c5" y="74.734125"/>
     <use style="fill:#1f77b4;stroke:#ffffff;stroke-width:0.75;" x="674.367131" xlink:href="#m76737101c5" y="74.734125"/>
     <use style="fill:#1f77b4;stroke:#ffffff;stroke-width:0.75;" x="676.628527" xlink:href="#m76737101c5" y="74.734125"/>
     <use style="fill:#1f77b4;stroke:#ffffff;stroke-width:0.75;" x="678.85486" xlink:href="#m76737101c5" y="74.734125"/>
     <use style="fill:#1f77b4;stroke:#ffffff;stroke-width:0.75;" x="681.047202" xlink:href="#m76737101c5" y="74.734125"/>
     <use style="fill:#1f77b4;stroke:#ffffff;stroke-width:0.75;" x="683.206576" xlink:href="#m76737101c5" y="74.734125"/>
     <use style="fill:#1f77b4;stroke:#ffffff;stroke-width:0.75;" x="685.333957" xlink:href="#m76737101c5" y="74.734125"/>
     <use style="fill:#1f77b4;stroke:#ffffff;stroke-width:0.75;" x="687.430281" xlink:href="#m76737101c5" y="74.734125"/>
     <use style="fill:#1f77b4;stroke:#ffffff;stroke-width:0.75;" x="689.496441" xlink:href="#m76737101c5" y="74.734125"/>
     <use style="fill:#1f77b4;stroke:#ffffff;stroke-width:0.75;" x="691.533293" xlink:href="#m76737101c5" y="74.734125"/>
     <use style="fill:#1f77b4;stroke:#ffffff;stroke-width:0.75;" x="693.541656" xlink:href="#m76737101c5" y="74.734125"/>
     <use style="fill:#1f77b4;stroke:#ffffff;stroke-width:0.75;" x="695.522317" xlink:href="#m76737101c5" y="74.734125"/>
     <use style="fill:#1f77b4;stroke:#ffffff;stroke-width:0.75;" x="697.476029" xlink:href="#m76737101c5" y="74.734125"/>
     <use style="fill:#1f77b4;stroke:#ffffff;stroke-width:0.75;" x="699.403516" xlink:href="#m76737101c5" y="74.734125"/>
     <use style="fill:#1f77b4;stroke:#ffffff;stroke-width:0.75;" x="701.305473" xlink:href="#m76737101c5" y="74.734125"/>
     <use style="fill:#1f77b4;stroke:#ffffff;stroke-width:0.75;" x="703.182567" xlink:href="#m76737101c5" y="74.734125"/>
     <use style="fill:#1f77b4;stroke:#ffffff;stroke-width:0.75;" x="705.035439" xlink:href="#m76737101c5" y="74.734125"/>
     <use style="fill:#1f77b4;stroke:#ffffff;stroke-width:0.75;" x="706.864708" xlink:href="#m76737101c5" y="74.734125"/>
     <use style="fill:#1f77b4;stroke:#ffffff;stroke-width:0.75;" x="708.670966" xlink:href="#m76737101c5" y="74.734125"/>
     <use style="fill:#1f77b4;stroke:#ffffff;stroke-width:0.75;" x="710.454786" xlink:href="#m76737101c5" y="74.734125"/>
     <use style="fill:#1f77b4;stroke:#ffffff;stroke-width:0.75;" x="712.216717" xlink:href="#m76737101c5" y="74.734125"/>
     <use style="fill:#1f77b4;stroke:#ffffff;stroke-width:0.75;" x="713.957292" xlink:href="#m76737101c5" y="74.734125"/>
     <use style="fill:#1f77b4;stroke:#ffffff;stroke-width:0.75;" x="715.67702" xlink:href="#m76737101c5" y="74.734125"/>
     <use style="fill:#1f77b4;stroke:#ffffff;stroke-width:0.75;" x="717.376397" xlink:href="#m76737101c5" y="74.734125"/>
     <use style="fill:#1f77b4;stroke:#ffffff;stroke-width:0.75;" x="719.055897" xlink:href="#m76737101c5" y="74.734125"/>
     <use style="fill:#1f77b4;stroke:#ffffff;stroke-width:0.75;" x="720.715981" xlink:href="#m76737101c5" y="74.734125"/>
     <use style="fill:#1f77b4;stroke:#ffffff;stroke-width:0.75;" x="722.357091" xlink:href="#m76737101c5" y="74.734125"/>
     <use style="fill:#1f77b4;stroke:#ffffff;stroke-width:0.75;" x="723.979658" xlink:href="#m76737101c5" y="74.734125"/>
     <use style="fill:#1f77b4;stroke:#ffffff;stroke-width:0.75;" x="725.584095" xlink:href="#m76737101c5" y="74.734125"/>
     <use style="fill:#1f77b4;stroke:#ffffff;stroke-width:0.75;" x="727.170804" xlink:href="#m76737101c5" y="74.734125"/>
     <use style="fill:#1f77b4;stroke:#ffffff;stroke-width:0.75;" x="728.74017" xlink:href="#m76737101c5" y="74.734125"/>
    </g>
   </g>
   <g id="line2d_39">
    <path clip-path="url(#p8e881d1057)" d="M 79.43108 195.694125 
L 178.963987 147.310125 
L 237.187006 131.182125 
L 278.496895 131.182125 
L 310.539335 131.182125 
L 336.719914 131.182125 
L 358.855278 131.182125 
L 378.029803 131.182125 
L 394.942933 131.182125 
L 410.072242 131.182125 
L 423.758368 131.182125 
L 436.252822 131.182125 
L 447.746605 131.182125 
L 458.388186 131.182125 
L 468.295261 131.182125 
L 477.562711 131.182125 
L 486.268142 131.182125 
L 494.47584 131.182125 
L 502.239657 131.182125 
L 509.60515 123.118125 
L 516.611205 123.118125 
L 523.291276 123.118125 
L 529.674355 123.118125 
L 535.78573 123.118125 
L 541.64759 123.118125 
L 547.279513 123.118125 
L 552.698859 123.118125 
L 557.921094 123.118125 
L 562.960054 123.118125 
L 567.828169 123.118125 
L 572.536644 123.118125 
L 577.095619 123.118125 
L 581.514294 123.118125 
L 585.80105 123.118125 
L 589.963533 123.118125 
L 594.008748 123.118125 
L 597.943121 123.118125 
L 601.772565 123.118125 
L 605.502531 123.118125 
L 609.138058 123.118125 
L 612.683809 123.118125 
L 616.144113 123.118125 
L 619.522989 123.118125 
L 622.824184 123.118125 
L 626.051188 123.118125 
L 629.207263 123.118125 
L 632.29546 123.118125 
L 635.318637 123.118125 
L 638.279477 123.118125 
L 641.180497 123.118125 
L 644.024068 123.118125 
L 646.812421 123.118125 
L 649.547658 123.118125 
L 652.231767 123.118125 
L 654.866623 123.118125 
L 657.454002 123.118125 
L 659.995584 123.118125 
L 662.492962 123.118125 
L 664.947648 123.118125 
L 667.361077 123.118125 
L 669.734612 123.118125 
L 672.069552 123.118125 
L 674.367131 123.118125 
L 676.628527 123.118125 
L 678.85486 123.118125 
L 681.047202 123.118125 
L 683.206576 123.118125 
L 685.333957 106.990125 
L 687.430281 106.990125 
L 689.496441 106.990125 
L 691.533293 106.990125 
L 693.541656 90.862125 
L 695.522317 90.862125 
L 697.476029 90.862125 
L 699.403516 90.862125 
L 701.305473 90.862125 
L 703.182567 90.862125 
L 705.035439 90.862125 
L 706.864708 90.862125 
L 708.670966 66.670125 
L 710.454786 66.670125 
L 712.216717 66.670125 
L 713.957292 66.670125 
L 715.67702 66.670125 
L 717.376397 66.670125 
L 719.055897 66.670125 
L 720.715981 66.670125 
L 722.357091 66.670125 
L 723.979658 66.670125 
L 725.584095 66.670125 
L 727.170804 66.670125 
L 728.74017 66.670125 
" style="fill:none;stroke:#98df8a;stroke-linecap:square;stroke-width:1.5;"/>
    <defs>
     <path d="M -0 3 
L 3 -3 
L -3 -3 
z
" id="mdf17fa3ff8" style="stroke:#ffffff;stroke-linejoin:miter;stroke-width:0.75;"/>
    </defs>
    <g clip-path="url(#p8e881d1057)">
     <use style="fill:#98df8a;stroke:#ffffff;stroke-linejoin:miter;stroke-width:0.75;" x="79.43108" xlink:href="#mdf17fa3ff8" y="195.694125"/>
     <use style="fill:#98df8a;stroke:#ffffff;stroke-linejoin:miter;stroke-width:0.75;" x="178.963987" xlink:href="#mdf17fa3ff8" y="147.310125"/>
     <use style="fill:#98df8a;stroke:#ffffff;stroke-linejoin:miter;stroke-width:0.75;" x="237.187006" xlink:href="#mdf17fa3ff8" y="131.182125"/>
     <use style="fill:#98df8a;stroke:#ffffff;stroke-linejoin:miter;stroke-width:0.75;" x="278.496895" xlink:href="#mdf17fa3ff8" y="131.182125"/>
     <use style="fill:#98df8a;stroke:#ffffff;stroke-linejoin:miter;stroke-width:0.75;" x="310.539335" xlink:href="#mdf17fa3ff8" y="131.182125"/>
     <use style="fill:#98df8a;stroke:#ffffff;stroke-linejoin:miter;stroke-width:0.75;" x="336.719914" xlink:href="#mdf17fa3ff8" y="131.182125"/>
     <use style="fill:#98df8a;stroke:#ffffff;stroke-linejoin:miter;stroke-width:0.75;" x="358.855278" xlink:href="#mdf17fa3ff8" y="131.182125"/>
     <use style="fill:#98df8a;stroke:#ffffff;stroke-linejoin:miter;stroke-width:0.75;" x="378.029803" xlink:href="#mdf17fa3ff8" y="131.182125"/>
     <use style="fill:#98df8a;stroke:#ffffff;stroke-linejoin:miter;stroke-width:0.75;" x="394.942933" xlink:href="#mdf17fa3ff8" y="131.182125"/>
     <use style="fill:#98df8a;stroke:#ffffff;stroke-linejoin:miter;stroke-width:0.75;" x="410.072242" xlink:href="#mdf17fa3ff8" y="131.182125"/>
     <use style="fill:#98df8a;stroke:#ffffff;stroke-linejoin:miter;stroke-width:0.75;" x="423.758368" xlink:href="#mdf17fa3ff8" y="131.182125"/>
     <use style="fill:#98df8a;stroke:#ffffff;stroke-linejoin:miter;stroke-width:0.75;" x="436.252822" xlink:href="#mdf17fa3ff8" y="131.182125"/>
     <use style="fill:#98df8a;stroke:#ffffff;stroke-linejoin:miter;stroke-width:0.75;" x="447.746605" xlink:href="#mdf17fa3ff8" y="131.182125"/>
     <use style="fill:#98df8a;stroke:#ffffff;stroke-linejoin:miter;stroke-width:0.75;" x="458.388186" xlink:href="#mdf17fa3ff8" y="131.182125"/>
     <use style="fill:#98df8a;stroke:#ffffff;stroke-linejoin:miter;stroke-width:0.75;" x="468.295261" xlink:href="#mdf17fa3ff8" y="131.182125"/>
     <use style="fill:#98df8a;stroke:#ffffff;stroke-linejoin:miter;stroke-width:0.75;" x="477.562711" xlink:href="#mdf17fa3ff8" y="131.182125"/>
     <use style="fill:#98df8a;stroke:#ffffff;stroke-linejoin:miter;stroke-width:0.75;" x="486.268142" xlink:href="#mdf17fa3ff8" y="131.182125"/>
     <use style="fill:#98df8a;stroke:#ffffff;stroke-linejoin:miter;stroke-width:0.75;" x="494.47584" xlink:href="#mdf17fa3ff8" y="131.182125"/>
     <use style="fill:#98df8a;stroke:#ffffff;stroke-linejoin:miter;stroke-width:0.75;" x="502.239657" xlink:href="#mdf17fa3ff8" y="131.182125"/>
     <use style="fill:#98df8a;stroke:#ffffff;stroke-linejoin:miter;stroke-width:0.75;" x="509.60515" xlink:href="#mdf17fa3ff8" y="123.118125"/>
     <use style="fill:#98df8a;stroke:#ffffff;stroke-linejoin:miter;stroke-width:0.75;" x="516.611205" xlink:href="#mdf17fa3ff8" y="123.118125"/>
     <use style="fill:#98df8a;stroke:#ffffff;stroke-linejoin:miter;stroke-width:0.75;" x="523.291276" xlink:href="#mdf17fa3ff8" y="123.118125"/>
     <use style="fill:#98df8a;stroke:#ffffff;stroke-linejoin:miter;stroke-width:0.75;" x="529.674355" xlink:href="#mdf17fa3ff8" y="123.118125"/>
     <use style="fill:#98df8a;stroke:#ffffff;stroke-linejoin:miter;stroke-width:0.75;" x="535.78573" xlink:href="#mdf17fa3ff8" y="123.118125"/>
     <use style="fill:#98df8a;stroke:#ffffff;stroke-linejoin:miter;stroke-width:0.75;" x="541.64759" xlink:href="#mdf17fa3ff8" y="123.118125"/>
     <use style="fill:#98df8a;stroke:#ffffff;stroke-linejoin:miter;stroke-width:0.75;" x="547.279513" xlink:href="#mdf17fa3ff8" y="123.118125"/>
     <use style="fill:#98df8a;stroke:#ffffff;stroke-linejoin:miter;stroke-width:0.75;" x="552.698859" xlink:href="#mdf17fa3ff8" y="123.118125"/>
     <use style="fill:#98df8a;stroke:#ffffff;stroke-linejoin:miter;stroke-width:0.75;" x="557.921094" xlink:href="#mdf17fa3ff8" y="123.118125"/>
     <use style="fill:#98df8a;stroke:#ffffff;stroke-linejoin:miter;stroke-width:0.75;" x="562.960054" xlink:href="#mdf17fa3ff8" y="123.118125"/>
     <use style="fill:#98df8a;stroke:#ffffff;stroke-linejoin:miter;stroke-width:0.75;" x="567.828169" xlink:href="#mdf17fa3ff8" y="123.118125"/>
     <use style="fill:#98df8a;stroke:#ffffff;stroke-linejoin:miter;stroke-width:0.75;" x="572.536644" xlink:href="#mdf17fa3ff8" y="123.118125"/>
     <use style="fill:#98df8a;stroke:#ffffff;stroke-linejoin:miter;stroke-width:0.75;" x="577.095619" xlink:href="#mdf17fa3ff8" y="123.118125"/>
     <use style="fill:#98df8a;stroke:#ffffff;stroke-linejoin:miter;stroke-width:0.75;" x="581.514294" xlink:href="#mdf17fa3ff8" y="123.118125"/>
     <use style="fill:#98df8a;stroke:#ffffff;stroke-linejoin:miter;stroke-width:0.75;" x="585.80105" xlink:href="#mdf17fa3ff8" y="123.118125"/>
     <use style="fill:#98df8a;stroke:#ffffff;stroke-linejoin:miter;stroke-width:0.75;" x="589.963533" xlink:href="#mdf17fa3ff8" y="123.118125"/>
     <use style="fill:#98df8a;stroke:#ffffff;stroke-linejoin:miter;stroke-width:0.75;" x="594.008748" xlink:href="#mdf17fa3ff8" y="123.118125"/>
     <use style="fill:#98df8a;stroke:#ffffff;stroke-linejoin:miter;stroke-width:0.75;" x="597.943121" xlink:href="#mdf17fa3ff8" y="123.118125"/>
     <use style="fill:#98df8a;stroke:#ffffff;stroke-linejoin:miter;stroke-width:0.75;" x="601.772565" xlink:href="#mdf17fa3ff8" y="123.118125"/>
     <use style="fill:#98df8a;stroke:#ffffff;stroke-linejoin:miter;stroke-width:0.75;" x="605.502531" xlink:href="#mdf17fa3ff8" y="123.118125"/>
     <use style="fill:#98df8a;stroke:#ffffff;stroke-linejoin:miter;stroke-width:0.75;" x="609.138058" xlink:href="#mdf17fa3ff8" y="123.118125"/>
     <use style="fill:#98df8a;stroke:#ffffff;stroke-linejoin:miter;stroke-width:0.75;" x="612.683809" xlink:href="#mdf17fa3ff8" y="123.118125"/>
     <use style="fill:#98df8a;stroke:#ffffff;stroke-linejoin:miter;stroke-width:0.75;" x="616.144113" xlink:href="#mdf17fa3ff8" y="123.118125"/>
     <use style="fill:#98df8a;stroke:#ffffff;stroke-linejoin:miter;stroke-width:0.75;" x="619.522989" xlink:href="#mdf17fa3ff8" y="123.118125"/>
     <use style="fill:#98df8a;stroke:#ffffff;stroke-linejoin:miter;stroke-width:0.75;" x="622.824184" xlink:href="#mdf17fa3ff8" y="123.118125"/>
     <use style="fill:#98df8a;stroke:#ffffff;stroke-linejoin:miter;stroke-width:0.75;" x="626.051188" xlink:href="#mdf17fa3ff8" y="123.118125"/>
     <use style="fill:#98df8a;stroke:#ffffff;stroke-linejoin:miter;stroke-width:0.75;" x="629.207263" xlink:href="#mdf17fa3ff8" y="123.118125"/>
     <use style="fill:#98df8a;stroke:#ffffff;stroke-linejoin:miter;stroke-width:0.75;" x="632.29546" xlink:href="#mdf17fa3ff8" y="123.118125"/>
     <use style="fill:#98df8a;stroke:#ffffff;stroke-linejoin:miter;stroke-width:0.75;" x="635.318637" xlink:href="#mdf17fa3ff8" y="123.118125"/>
     <use style="fill:#98df8a;stroke:#ffffff;stroke-linejoin:miter;stroke-width:0.75;" x="638.279477" xlink:href="#mdf17fa3ff8" y="123.118125"/>
     <use style="fill:#98df8a;stroke:#ffffff;stroke-linejoin:miter;stroke-width:0.75;" x="641.180497" xlink:href="#mdf17fa3ff8" y="123.118125"/>
     <use style="fill:#98df8a;stroke:#ffffff;stroke-linejoin:miter;stroke-width:0.75;" x="644.024068" xlink:href="#mdf17fa3ff8" y="123.118125"/>
     <use style="fill:#98df8a;stroke:#ffffff;stroke-linejoin:miter;stroke-width:0.75;" x="646.812421" xlink:href="#mdf17fa3ff8" y="123.118125"/>
     <use style="fill:#98df8a;stroke:#ffffff;stroke-linejoin:miter;stroke-width:0.75;" x="649.547658" xlink:href="#mdf17fa3ff8" y="123.118125"/>
     <use style="fill:#98df8a;stroke:#ffffff;stroke-linejoin:miter;stroke-width:0.75;" x="652.231767" xlink:href="#mdf17fa3ff8" y="123.118125"/>
     <use style="fill:#98df8a;stroke:#ffffff;stroke-linejoin:miter;stroke-width:0.75;" x="654.866623" xlink:href="#mdf17fa3ff8" y="123.118125"/>
     <use style="fill:#98df8a;stroke:#ffffff;stroke-linejoin:miter;stroke-width:0.75;" x="657.454002" xlink:href="#mdf17fa3ff8" y="123.118125"/>
     <use style="fill:#98df8a;stroke:#ffffff;stroke-linejoin:miter;stroke-width:0.75;" x="659.995584" xlink:href="#mdf17fa3ff8" y="123.118125"/>
     <use style="fill:#98df8a;stroke:#ffffff;stroke-linejoin:miter;stroke-width:0.75;" x="662.492962" xlink:href="#mdf17fa3ff8" y="123.118125"/>
     <use style="fill:#98df8a;stroke:#ffffff;stroke-linejoin:miter;stroke-width:0.75;" x="664.947648" xlink:href="#mdf17fa3ff8" y="123.118125"/>
     <use style="fill:#98df8a;stroke:#ffffff;stroke-linejoin:miter;stroke-width:0.75;" x="667.361077" xlink:href="#mdf17fa3ff8" y="123.118125"/>
     <use style="fill:#98df8a;stroke:#ffffff;stroke-linejoin:miter;stroke-width:0.75;" x="669.734612" xlink:href="#mdf17fa3ff8" y="123.118125"/>
     <use style="fill:#98df8a;stroke:#ffffff;stroke-linejoin:miter;stroke-width:0.75;" x="672.069552" xlink:href="#mdf17fa3ff8" y="123.118125"/>
     <use style="fill:#98df8a;stroke:#ffffff;stroke-linejoin:miter;stroke-width:0.75;" x="674.367131" xlink:href="#mdf17fa3ff8" y="123.118125"/>
     <use style="fill:#98df8a;stroke:#ffffff;stroke-linejoin:miter;stroke-width:0.75;" x="676.628527" xlink:href="#mdf17fa3ff8" y="123.118125"/>
     <use style="fill:#98df8a;stroke:#ffffff;stroke-linejoin:miter;stroke-width:0.75;" x="678.85486" xlink:href="#mdf17fa3ff8" y="123.118125"/>
     <use style="fill:#98df8a;stroke:#ffffff;stroke-linejoin:miter;stroke-width:0.75;" x="681.047202" xlink:href="#mdf17fa3ff8" y="123.118125"/>
     <use style="fill:#98df8a;stroke:#ffffff;stroke-linejoin:miter;stroke-width:0.75;" x="683.206576" xlink:href="#mdf17fa3ff8" y="123.118125"/>
     <use style="fill:#98df8a;stroke:#ffffff;stroke-linejoin:miter;stroke-width:0.75;" x="685.333957" xlink:href="#mdf17fa3ff8" y="106.990125"/>
     <use style="fill:#98df8a;stroke:#ffffff;stroke-linejoin:miter;stroke-width:0.75;" x="687.430281" xlink:href="#mdf17fa3ff8" y="106.990125"/>
     <use style="fill:#98df8a;stroke:#ffffff;stroke-linejoin:miter;stroke-width:0.75;" x="689.496441" xlink:href="#mdf17fa3ff8" y="106.990125"/>
     <use style="fill:#98df8a;stroke:#ffffff;stroke-linejoin:miter;stroke-width:0.75;" x="691.533293" xlink:href="#mdf17fa3ff8" y="106.990125"/>
     <use style="fill:#98df8a;stroke:#ffffff;stroke-linejoin:miter;stroke-width:0.75;" x="693.541656" xlink:href="#mdf17fa3ff8" y="90.862125"/>
     <use style="fill:#98df8a;stroke:#ffffff;stroke-linejoin:miter;stroke-width:0.75;" x="695.522317" xlink:href="#mdf17fa3ff8" y="90.862125"/>
     <use style="fill:#98df8a;stroke:#ffffff;stroke-linejoin:miter;stroke-width:0.75;" x="697.476029" xlink:href="#mdf17fa3ff8" y="90.862125"/>
     <use style="fill:#98df8a;stroke:#ffffff;stroke-linejoin:miter;stroke-width:0.75;" x="699.403516" xlink:href="#mdf17fa3ff8" y="90.862125"/>
     <use style="fill:#98df8a;stroke:#ffffff;stroke-linejoin:miter;stroke-width:0.75;" x="701.305473" xlink:href="#mdf17fa3ff8" y="90.862125"/>
     <use style="fill:#98df8a;stroke:#ffffff;stroke-linejoin:miter;stroke-width:0.75;" x="703.182567" xlink:href="#mdf17fa3ff8" y="90.862125"/>
     <use style="fill:#98df8a;stroke:#ffffff;stroke-linejoin:miter;stroke-width:0.75;" x="705.035439" xlink:href="#mdf17fa3ff8" y="90.862125"/>
     <use style="fill:#98df8a;stroke:#ffffff;stroke-linejoin:miter;stroke-width:0.75;" x="706.864708" xlink:href="#mdf17fa3ff8" y="90.862125"/>
     <use style="fill:#98df8a;stroke:#ffffff;stroke-linejoin:miter;stroke-width:0.75;" x="708.670966" xlink:href="#mdf17fa3ff8" y="66.670125"/>
     <use style="fill:#98df8a;stroke:#ffffff;stroke-linejoin:miter;stroke-width:0.75;" x="710.454786" xlink:href="#mdf17fa3ff8" y="66.670125"/>
     <use style="fill:#98df8a;stroke:#ffffff;stroke-linejoin:miter;stroke-width:0.75;" x="712.216717" xlink:href="#mdf17fa3ff8" y="66.670125"/>
     <use style="fill:#98df8a;stroke:#ffffff;stroke-linejoin:miter;stroke-width:0.75;" x="713.957292" xlink:href="#mdf17fa3ff8" y="66.670125"/>
     <use style="fill:#98df8a;stroke:#ffffff;stroke-linejoin:miter;stroke-width:0.75;" x="715.67702" xlink:href="#mdf17fa3ff8" y="66.670125"/>
     <use style="fill:#98df8a;stroke:#ffffff;stroke-linejoin:miter;stroke-width:0.75;" x="717.376397" xlink:href="#mdf17fa3ff8" y="66.670125"/>
     <use style="fill:#98df8a;stroke:#ffffff;stroke-linejoin:miter;stroke-width:0.75;" x="719.055897" xlink:href="#mdf17fa3ff8" y="66.670125"/>
     <use style="fill:#98df8a;stroke:#ffffff;stroke-linejoin:miter;stroke-width:0.75;" x="720.715981" xlink:href="#mdf17fa3ff8" y="66.670125"/>
     <use style="fill:#98df8a;stroke:#ffffff;stroke-linejoin:miter;stroke-width:0.75;" x="722.357091" xlink:href="#mdf17fa3ff8" y="66.670125"/>
     <use style="fill:#98df8a;stroke:#ffffff;stroke-linejoin:miter;stroke-width:0.75;" x="723.979658" xlink:href="#mdf17fa3ff8" y="66.670125"/>
     <use style="fill:#98df8a;stroke:#ffffff;stroke-linejoin:miter;stroke-width:0.75;" x="725.584095" xlink:href="#mdf17fa3ff8" y="66.670125"/>
     <use style="fill:#98df8a;stroke:#ffffff;stroke-linejoin:miter;stroke-width:0.75;" x="727.170804" xlink:href="#mdf17fa3ff8" y="66.670125"/>
     <use style="fill:#98df8a;stroke:#ffffff;stroke-linejoin:miter;stroke-width:0.75;" x="728.74017" xlink:href="#mdf17fa3ff8" y="66.670125"/>
    </g>
   </g>
   <g id="line2d_40"/>
   <g id="line2d_41"/>
   <g id="line2d_42">
    <path clip-path="url(#p8e881d1057)" d="M 728.74017 288.430125 
L 728.74017 22.318125 
" style="fill:none;stroke:#ff0000;stroke-linecap:square;stroke-width:1.5;"/>
   </g>
   <g id="patch_3">
    <path d="M 46.965625 268.270125 
L 46.965625 42.478125 
" style="fill:none;stroke:#000000;stroke-linecap:square;stroke-linejoin:miter;stroke-width:0.8;"/>
   </g>
   <g id="patch_4">
    <path d="M 79.43108 288.430125 
L 728.741905 288.430125 
" style="fill:none;stroke:#000000;stroke-linecap:square;stroke-linejoin:miter;stroke-width:0.8;"/>
   </g>
   <g id="text_23">
    <!-- zlib_zlib_uncompress_fuzzer (23h, 10 trials/fuzzer) -->
    <g transform="translate(252.897813 16.318125)scale(0.12 -0.12)">
     <defs>
      <path d="M 353 3500 
L 3084 3500 
L 3084 2975 
L 922 459 
L 3084 459 
L 3084 0 
L 275 0 
L 275 525 
L 2438 3041 
L 353 3041 
L 353 3500 
z
" id="DejaVuSans-7a" transform="scale(0.015625)"/>
      <path d="M 603 4863 
L 1178 4863 
L 1178 0 
L 603 0 
L 603 4863 
z
" id="DejaVuSans-6c" transform="scale(0.015625)"/>
      <path d="M 3263 -1063 
L 3263 -1509 
L -63 -1509 
L -63 -1063 
L 3263 -1063 
z
" id="DejaVuSans-5f" transform="scale(0.015625)"/>
      <path d="M 1159 525 
L 1159 -1331 
L 581 -1331 
L 581 3500 
L 1159 3500 
L 1159 2969 
Q 1341 3281 1617 3432 
Q 1894 3584 2278 3584 
Q 2916 3584 3314 3078 
Q 3713 2572 3713 1747 
Q 3713 922 3314 415 
Q 2916 -91 2278 -91 
Q 1894 -91 1617 61 
Q 1341 213 1159 525 
z
M 3116 1747 
Q 3116 2381 2855 2742 
Q 2594 3103 2138 3103 
Q 1681 3103 1420 2742 
Q 1159 2381 1159 1747 
Q 1159 1113 1420 752 
Q 1681 391 2138 391 
Q 2594 391 2855 752 
Q 3116 1113 3116 1747 
z
" id="DejaVuSans-70" transform="scale(0.015625)"/>
      <path d="M 2834 3397 
L 2834 2853 
Q 2591 2978 2328 3040 
Q 2066 3103 1784 3103 
Q 1356 3103 1142 2972 
Q 928 2841 928 2578 
Q 928 2378 1081 2264 
Q 1234 2150 1697 2047 
L 1894 2003 
Q 2506 1872 2764 1633 
Q 3022 1394 3022 966 
Q 3022 478 2636 193 
Q 2250 -91 1575 -91 
Q 1294 -91 989 -36 
Q 684 19 347 128 
L 347 722 
Q 666 556 975 473 
Q 1284 391 1588 391 
Q 1994 391 2212 530 
Q 2431 669 2431 922 
Q 2431 1156 2273 1281 
Q 2116 1406 1581 1522 
L 1381 1569 
Q 847 1681 609 1914 
Q 372 2147 372 2553 
Q 372 3047 722 3315 
Q 1072 3584 1716 3584 
Q 2034 3584 2315 3537 
Q 2597 3491 2834 3397 
z
" id="DejaVuSans-73" transform="scale(0.015625)"/>
      <path d="M 2375 4863 
L 2375 4384 
L 1825 4384 
Q 1516 4384 1395 4259 
Q 1275 4134 1275 3809 
L 1275 3500 
L 2222 3500 
L 2222 3053 
L 1275 3053 
L 1275 0 
L 697 0 
L 697 3053 
L 147 3053 
L 147 3500 
L 697 3500 
L 697 3744 
Q 697 4328 969 4595 
Q 1241 4863 1831 4863 
L 2375 4863 
z
" id="DejaVuSans-66" transform="scale(0.015625)"/>
      <path d="M 750 794 
L 1409 794 
L 1409 256 
L 897 -744 
L 494 -744 
L 750 256 
L 750 794 
z
" id="DejaVuSans-2c" transform="scale(0.015625)"/>
      <path d="M 1625 4666 
L 2156 4666 
L 531 -594 
L 0 -594 
L 1625 4666 
z
" id="DejaVuSans-2f" transform="scale(0.015625)"/>
     </defs>
     <use xlink:href="#DejaVuSans-7a"/>
     <use x="52.490234" xlink:href="#DejaVuSans-6c"/>
     <use x="80.273438" xlink:href="#DejaVuSans-69"/>
     <use x="108.056641" xlink:href="#DejaVuSans-62"/>
     <use x="171.533203" xlink:href="#DejaVuSans-5f"/>
     <use x="221.533203" xlink:href="#DejaVuSans-7a"/>
     <use x="274.023438" xlink:href="#DejaVuSans-6c"/>
     <use x="301.806641" xlink:href="#DejaVuSans-69"/>
     <use x="329.589844" xlink:href="#DejaVuSans-62"/>
     <use x="393.066406" xlink:href="#DejaVuSans-5f"/>
     <use x="443.066406" xlink:href="#DejaVuSans-75"/>
     <use x="506.445312" xlink:href="#DejaVuSans-6e"/>
     <use x="569.824219" xlink:href="#DejaVuSans-63"/>
     <use x="624.804688" xlink:href="#DejaVuSans-6f"/>
     <use x="685.986328" xlink:href="#DejaVuSans-6d"/>
     <use x="783.398438" xlink:href="#DejaVuSans-70"/>
     <use x="846.875" xlink:href="#DejaVuSans-72"/>
     <use x="885.738281" xlink:href="#DejaVuSans-65"/>
     <use x="947.261719" xlink:href="#DejaVuSans-73"/>
     <use x="999.361328" xlink:href="#DejaVuSans-73"/>
     <use x="1051.460938" xlink:href="#DejaVuSans-5f"/>
     <use x="1101.460938" xlink:href="#DejaVuSans-66"/>
     <use x="1136.666016" xlink:href="#DejaVuSans-75"/>
     <use x="1200.044922" xlink:href="#DejaVuSans-7a"/>
     <use x="1252.535156" xlink:href="#DejaVuSans-7a"/>
     <use x="1305.025391" xlink:href="#DejaVuSans-65"/>
     <use x="1366.548828" xlink:href="#DejaVuSans-72"/>
     <use x="1407.662109" xlink:href="#DejaVuSans-20"/>
     <use x="1439.449219" xlink:href="#DejaVuSans-28"/>
     <use x="1478.462891" xlink:href="#DejaVuSans-32"/>
     <use x="1542.085938" xlink:href="#DejaVuSans-33"/>
     <use x="1605.708984" xlink:href="#DejaVuSans-68"/>
     <use x="1669.087891" xlink:href="#DejaVuSans-2c"/>
     <use x="1700.875" xlink:href="#DejaVuSans-20"/>
     <use x="1732.662109" xlink:href="#DejaVuSans-31"/>
     <use x="1796.285156" xlink:href="#DejaVuSans-30"/>
     <use x="1859.908203" xlink:href="#DejaVuSans-20"/>
     <use x="1891.695312" xlink:href="#DejaVuSans-74"/>
     <use x="1930.904297" xlink:href="#DejaVuSans-72"/>
     <use x="1972.017578" xlink:href="#DejaVuSans-69"/>
     <use x="1999.800781" xlink:href="#DejaVuSans-61"/>
     <use x="2061.080078" xlink:href="#DejaVuSans-6c"/>
     <use x="2088.863281" xlink:href="#DejaVuSans-73"/>
     <use x="2140.962891" xlink:href="#DejaVuSans-2f"/>
     <use x="2174.654297" xlink:href="#DejaVuSans-66"/>
     <use x="2209.859375" xlink:href="#DejaVuSans-75"/>
     <use x="2273.238281" xlink:href="#DejaVuSans-7a"/>
     <use x="2325.728516" xlink:href="#DejaVuSans-7a"/>
     <use x="2378.21875" xlink:href="#DejaVuSans-65"/>
     <use x="2439.742188" xlink:href="#DejaVuSans-72"/>
     <use x="2480.855469" xlink:href="#DejaVuSans-29"/>
    </g>
   </g>
   <g id="legend_1">
    <g id="line2d_43">
     <path d="M 765.205625 30.416563 
L 785.205625 30.416563 
" style="fill:none;stroke:#1f77b4;stroke-linecap:square;stroke-width:1.5;"/>
    </g>
    <g id="line2d_44">
     <defs>
      <path d="M 0 3 
C 0.795609 3 1.55874 2.683901 2.12132 2.12132 
C 2.683901 1.55874 3 0.795609 3 0 
C 3 -0.795609 2.683901 -1.55874 2.12132 -2.12132 
C 1.55874 -2.683901 0.795609 -3 0 -3 
C -0.795609 -3 -1.55874 -2.683901 -2.12132 -2.12132 
C -2.683901 -1.55874 -3 -0.795609 -3 0 
C -3 0.795609 -2.683901 1.55874 -2.12132 2.12132 
C -1.55874 2.683901 -0.795609 3 0 3 
z
" id="m20b5fedc3f" style="stroke:#1f77b4;"/>
     </defs>
     <g>
      <use style="fill:#1f77b4;stroke:#1f77b4;" x="775.205625" xlink:href="#m20b5fedc3f" y="30.416563"/>
     </g>
    </g>
    <g id="text_24">
     <!-- fuzzolic_aflplusplus_z3 -->
     <g transform="translate(793.205625 33.916563)scale(0.1 -0.1)">
      <use xlink:href="#DejaVuSans-66"/>
      <use x="35.205078" xlink:href="#DejaVuSans-75"/>
      <use x="98.583984" xlink:href="#DejaVuSans-7a"/>
      <use x="151.074219" xlink:href="#DejaVuSans-7a"/>
      <use x="203.564453" xlink:href="#DejaVuSans-6f"/>
      <use x="264.746094" xlink:href="#DejaVuSans-6c"/>
      <use x="292.529297" xlink:href="#DejaVuSans-69"/>
      <use x="320.3125" xlink:href="#DejaVuSans-63"/>
      <use x="375.292969" xlink:href="#DejaVuSans-5f"/>
      <use x="425.292969" xlink:href="#DejaVuSans-61"/>
      <use x="486.572266" xlink:href="#DejaVuSans-66"/>
      <use x="521.777344" xlink:href="#DejaVuSans-6c"/>
      <use x="549.560547" xlink:href="#DejaVuSans-70"/>
      <use x="613.037109" xlink:href="#DejaVuSans-6c"/>
      <use x="640.820312" xlink:href="#DejaVuSans-75"/>
      <use x="704.199219" xlink:href="#DejaVuSans-73"/>
      <use x="756.298828" xlink:href="#DejaVuSans-70"/>
      <use x="819.775391" xlink:href="#DejaVuSans-6c"/>
      <use x="847.558594" xlink:href="#DejaVuSans-75"/>
      <use x="910.9375" xlink:href="#DejaVuSans-73"/>
      <use x="963.037109" xlink:href="#DejaVuSans-5f"/>
      <use x="1013.037109" xlink:href="#DejaVuSans-7a"/>
      <use x="1065.527344" xlink:href="#DejaVuSans-33"/>
     </g>
    </g>
    <g id="line2d_45">
     <path d="M 765.205625 45.372813 
L 785.205625 45.372813 
" style="fill:none;stroke:#98df8a;stroke-linecap:square;stroke-width:1.5;"/>
    </g>
    <g id="line2d_46">
     <defs>
      <path d="M -0 3 
L 3 -3 
L -3 -3 
z
" id="m15aa0c45d8" style="stroke:#98df8a;stroke-linejoin:miter;"/>
     </defs>
     <g>
      <use style="fill:#98df8a;stroke:#98df8a;stroke-linejoin:miter;" x="775.205625" xlink:href="#m15aa0c45d8" y="45.372813"/>
     </g>
    </g>
    <g id="text_25">
     <!-- sydr_aflplusplus -->
     <g transform="translate(793.205625 48.872813)scale(0.1 -0.1)">
      <defs>
       <path d="M 2059 -325 
Q 1816 -950 1584 -1140 
Q 1353 -1331 966 -1331 
L 506 -1331 
L 506 -850 
L 844 -850 
Q 1081 -850 1212 -737 
Q 1344 -625 1503 -206 
L 1606 56 
L 191 3500 
L 800 3500 
L 1894 763 
L 2988 3500 
L 3597 3500 
L 2059 -325 
z
" id="DejaVuSans-79" transform="scale(0.015625)"/>
      </defs>
      <use xlink:href="#DejaVuSans-73"/>
      <use x="52.099609" xlink:href="#DejaVuSans-79"/>
      <use x="111.279297" xlink:href="#DejaVuSans-64"/>
      <use x="174.755859" xlink:href="#DejaVuSans-72"/>
      <use x="215.869141" xlink:href="#DejaVuSans-5f"/>
      <use x="265.869141" xlink:href="#DejaVuSans-61"/>
      <use x="327.148438" xlink:href="#DejaVuSans-66"/>
      <use x="362.353516" xlink:href="#DejaVuSans-6c"/>
      <use x="390.136719" xlink:href="#DejaVuSans-70"/>
      <use x="453.613281" xlink:href="#DejaVuSans-6c"/>
      <use x="481.396484" xlink:href="#DejaVuSans-75"/>
      <use x="544.775391" xlink:href="#DejaVuSans-73"/>
      <use x="596.875" xlink:href="#DejaVuSans-70"/>
      <use x="660.351562" xlink:href="#DejaVuSans-6c"/>
      <use x="688.134766" xlink:href="#DejaVuSans-75"/>
      <use x="751.513672" xlink:href="#DejaVuSans-73"/>
     </g>
    </g>
   </g>
  </g>
 </g>
 <defs>
  <clipPath id="p8e881d1057">
   <rect height="266.112" width="714.24" x="46.965625" y="22.318125"/>
  </clipPath>
 </defs>
</svg>
